<?xml version="1.0" standalone="no"?>
<!DOCTYPE svg PUBLIC "-//W3C//DTD SVG 1.1//EN" "http://www.w3.org/Graphics/SVG/1.1/DTD/svg11.dtd" >
<svg xmlns="http://www.w3.org/2000/svg" xmlns:xlink="http://www.w3.org/1999/xlink" version="1.1">
<metadata>
Created by FontForge 20150318 at Mon Jul 20 20:51:24 2015
 By uniteet7
Copyright (c) 2014 by Andriy Konstantynov. All rights reserved.
</metadata>
<defs>
<font id="AngleciaProTextBold" horiz-adv-x="319" >
  <font-face 
    font-family="AngleciaProTextBold"
    font-weight="700"
    font-stretch="normal"
    units-per-em="1000"
    panose-1="2 5 0 3 6 0 0 0 0 0"
    ascent="746"
    descent="-254"
    x-height="460"
    cap-height="700"
    bbox="-159.719 -259 1305 1026"
    underline-thickness="50"
    underline-position="-50"
    unicode-range="U+000D-FB04"
  />
<missing-glyph horiz-adv-x="209" 
 />
    <glyph glyph-name="ff" unicode="ff" horiz-adv-x="761" 
d="M23 451l60 17v61q0 95 84 150q86 56 212 56q69 0 117 -24q52 44 139 44q72 0 117 -32.5t45 -82.5q0 -32 -17.5 -49t-42.5 -17t-43 17.5t-18 42.5v61q-17 11 -36 11q-58 0 -58 -139v-107h158v-52h-158v-342l93 -26v-40h-306v43l60 27v338h-194v-342l94 -26v-40h-306v43
l60 27v338h-60v43zM401 460l28 8v97q0 54 26 101q-35 20 -85 20q-135 0 -135 -154v-72h166z" />
    <glyph glyph-name="fi" unicode="fi" horiz-adv-x="665" 
d="M642 0h-273v43l60 27v310l-49 28h-145v-342l94 -26v-40h-306v43l60 27v338h-60v43l60 17v97q0 84 74 137q76 53 197 53q104 0 166.5 -39t62.5 -103q0 -38 -25 -59t-58 -21q-34 0 -59 24.5t-25 58.5v71q-25 19 -69 19q-112 0 -112 -139v-107h143l187 9l17 -18v-389l60 -22
v-40z" />
    <glyph glyph-name="fl" unicode="fl" horiz-adv-x="665" 
d="M642 0h-274v43l61 27v602q-28 34 -76 34q-57 0 -87.5 -35.5t-30.5 -103.5v-107h139v-52h-139v-342l94 -26v-40h-306v43l60 27v338h-60v43l60 17v97q0 85 75 138q74 52 203 52q54 0 100 -10l104 14l17 -18v-679l60 -22v-40z" />
    <glyph glyph-name="ffi" unicode="ffi" horiz-adv-x="1011" 
d="M988 0h-272v43l60 27v310l-49 28h-145v-342l93 -26v-40h-306v43l60 27v338h-194v-342l94 -26v-40h-306v43l60 27v338h-60v43l60 17v61q0 94 83 150t213 56q82 0 139 -24q68 44 183 44q104 0 166 -39.5t62 -102.5q0 -38 -25 -59t-58 -21q-34 0 -59 24.5t-25 58.5v71
q-25 19 -69 19q-111 0 -111 -139v-107h142l187 9l17 -18v-389l60 -22v-40zM401 460l33 8v97q0 53 30 100q-34 21 -90 21q-139 0 -139 -154v-72h166z" />
    <glyph glyph-name="ffl" unicode="ffl" horiz-adv-x="1011" 
d="M988 0h-274v43l62 27v602q-30 34 -76 34q-57 0 -87.5 -35.5t-30.5 -103.5v-107h138v-52h-138v-342l93 -26v-40h-306v43l60 27v338h-194v-342l94 -26v-40h-306v43l60 27v338h-60v43l60 17v61q0 95 81 150q83 56 207 56q82 0 137 -31q75 51 199 51q54 0 100 -10l104 14
l17 -18v-679l60 -22v-40zM401 460l28 8v97q0 54 32 98q-35 23 -91 23q-135 0 -135 -154v-72h166z" />
    <glyph glyph-name="f_f_j" unicode="ffj" horiz-adv-x="1005" 
d="M770 0v380l-49 28h-139v-342l93 -26v-40h-306v43l60 27v338h-194v-342l94 -26v-40h-306v43l60 27v338h-60v43l60 17v61q0 94 83 150t213 56q82 0 139 -24q65 44 179 44q103 0 164 -40q62 -41 62 -102q0 -38 -24.5 -59t-57.5 -21q-35 0 -59.5 24.5t-24.5 58.5v71
q-25 19 -68 19q-107 0 -107 -139v-107h136l187 9l17 -18v-451q0 -78 -48.5 -144.5t-138.5 -114.5l-32 32q32 38 49.5 100t17.5 127zM401 460l33 8v97q0 53 30 100q-34 21 -89 21q-140 0 -140 -154v-72h166z" />
    <glyph glyph-name="f_j" unicode="fj" horiz-adv-x="665" 
d="M429 0v380l-49 28h-145v-342l94 -26v-40h-306v43l60 27v338h-60v43l60 17v97q0 84 74 137q76 53 197 53q104 0 166.5 -39t62.5 -103q0 -38 -25 -59t-58 -21q-34 0 -59 24.5t-25 58.5v71q-25 19 -69 19q-112 0 -112 -139v-107h143l187 9l17 -18v-451q0 -78 -48.5 -144.5
t-139.5 -114.5l-32 32q33 38 50 99t17 128z" />
    <glyph glyph-name=".notdef" horiz-adv-x="209" 
 />
    <glyph glyph-name=".null" horiz-adv-x="0" 
 />
    <glyph glyph-name="nonmarkingreturn" horiz-adv-x="333" 
 />
    <glyph glyph-name="NULL" horiz-adv-x="0" 
 />
    <glyph glyph-name="NULL" horiz-adv-x="0" 
 />
    <glyph glyph-name="CR.001" unicode="&#xd;" horiz-adv-x="209" 
 />
    <glyph glyph-name="space" unicode=" " horiz-adv-x="209" 
 />
    <glyph glyph-name="exclam" unicode="!" horiz-adv-x="222" 
d="M137 206h-52q-17 193 -33 296q-5 35 -10 64.5t-7.5 41.5t-2.5 18q0 35 22 57.5t57 22.5t57 -22.5t22 -57.5q0 -8 -10 -58l-10 -66q-16 -103 -33 -296zM111 134q31 0 50.5 -19.5t19.5 -50.5t-19.5 -50.5t-50.5 -19.5q-30 0 -50 19.5t-20 50.5t20 50.5t50 19.5z" />
    <glyph glyph-name="quotedbl" unicode="&#x22;" 
d="M106 479h-37q-7 56 -23 109q-14 51 -14 60q0 25 15.5 40.5t40.5 15.5t40.5 -15.5t15.5 -40.5q0 -12 -15 -61q-16 -51 -23 -108zM249 479h-37q-7 56 -23 109q-15 50 -15 60q0 25 16 40.5t41 15.5t40.5 -15.5t15.5 -40.5q0 -12 -15 -61q-16 -51 -23 -108z" />
    <glyph glyph-name="numbersign" unicode="#" horiz-adv-x="616" 
d="M194 450h-97v53h113l58 197h58l-59 -197h170l58 197h58l-59 -197h82v-53h-98l-59 -200h100v-53h-116l-58 -197h-58l59 197h-170l-58 -197h-58l59 197h-79v53h94zM421 450h-170l-59 -200h169z" />
    <glyph glyph-name="dollar" unicode="$" horiz-adv-x="596" 
d="M279 -7l-5 -43h-54l5 46q-65 6 -127 32h-41l-17 149h54q11 -54 47.5 -87t89.5 -42l27 241q-2 0 -3 1q-14 4 -63 22q-20 8 -54 27t-51 39q-44 52 -44 128q0 94 60.5 147.5t183.5 53.5h18l5 43h55l-6 -48q54 -9 104 -30h43l17 -149h-55q-24 109 -115 128l-25 -226h2
q38 -13 62 -23q15 -5 52 -23q29 -12 47 -29q68 -60 63 -147q0 -210 -272 -210h-3zM405 173q0 36 -19.5 55.5t-75.5 41.5l-25 -225q120 11 120 128zM193 536q0 -35 18 -54.5t64 -37.5l24 210q-49 -5 -77.5 -36.5t-28.5 -81.5z" />
    <glyph glyph-name="percent" unicode="%" horiz-adv-x="746" 
d="M82 392q-42 50 -42 133q0 84 42 133q43 49 111 49t110 -49q43 -49 43 -133t-43 -133q-42 -49 -110 -49t-111 49zM193 395q27 0 42 33.5t15 96.5t-15 96.5t-42 33.5q-57 0 -57 -130t57 -130zM613 700l-415 -700h-65l415 700h65zM552 357q69 0 111 -49t42 -133t-42 -133
t-111 -49t-110.5 49.5t-41.5 132.5t41.5 132.5t110.5 49.5zM553 45q27 0 42 33.5t15 96.5t-15 96.5t-42 33.5t-42.5 -33.5t-15.5 -96.5t15.5 -96.5t42.5 -33.5z" />
    <glyph glyph-name="ampersand" unicode="&#x26;" horiz-adv-x="727" 
d="M696 372l-64 -29q0 -114 -43 -193l70 -89l60 -21v-40h-209l-39 48q-71 -53 -178 -53q-118 0 -188 52q-71 53 -71 139q0 59 37 103q17 19 43 36q23 15 48 28q10 5 56 25q-72 99 -72 173q0 71 50.5 112.5t144.5 41.5q81 0 122.5 -33t41.5 -93q0 -53 -30.5 -90t-95.5 -73
l170 -216q27 64 27 146l-64 26v22h184v-22zM322 48q68 0 115 44l-183 235q-67 -52 -67 -135q0 -69 35.5 -106.5t99.5 -37.5zM291 585q0 -55 62 -135q80 53 80 122q0 39 -19.5 60t-53.5 21q-33 0 -51 -17.5t-18 -50.5z" />
    <glyph glyph-name="quotesingle" unicode="'" horiz-adv-x="176" 
d="M106 479h-37q-7 56 -23 109q-14 51 -14 60q0 25 15.5 40.5t40.5 15.5t40.5 -15.5t15.5 -40.5q0 -12 -15 -61q-16 -51 -23 -108z" />
    <glyph glyph-name="parenleft" unicode="(" horiz-adv-x="294" 
d="M233 759l32 -32q-47 -77 -71 -202q-23 -127 -23 -250q0 -124 23 -251q24 -123 71 -201l-32 -32q-94 88 -145 212.5t-51 271.5t51 271.5t145 212.5z" />
    <glyph glyph-name="parenright" unicode=")" horiz-adv-x="295" 
d="M62 -209l-32 32q46 77 69 201q24 124 24 251q0 125 -24 250q-23 126 -69 202l32 32q94 -88 145 -213t51 -271t-51 -271t-145 -213z" />
    <glyph glyph-name="asterisk" unicode="*" horiz-adv-x="429" 
d="M226 489q-14 -24 -26.5 -53t-19.5 -48t-10 -22q-10 -15 -26.5 -18t-30.5 8q-15 10 -17.5 27t8.5 31q4 7 36 31q32 25 63 60q-27 5 -58.5 7.5t-51.5 3.5t-25 3q-37 13 -26 52q5 17 20.5 24.5t32.5 1.5q5 -1 19 -10.5t40.5 -25.5t56.5 -30q-3 28 -10.5 58.5t-12.5 50
t-5 23.5q0 18 11.5 29.5t29.5 11.5q19 0 30.5 -11.5t11.5 -29.5q0 -4 -5 -23.5t-12 -50t-10 -58.5q30 14 56.5 31t40.5 26t20 10q17 6 31.5 -1.5t20.5 -25.5q6 -16 -2 -30.5t-25 -20.5q-4 -1 -24 -2t-51 -4t-58 -9q19 -20 42.5 -41t39 -33.5t17.5 -15.5q24 -34 -8 -58
q-14 -10 -30.5 -7.5t-27.5 16.5q-3 3 -10 22t-19.5 48t-25.5 53z" />
    <glyph glyph-name="plus" unicode="+" horiz-adv-x="453" 
d="M199 273h-163v53h163v164h54v-164h164v-53h-164v-164h-54v164z" />
    <glyph glyph-name="comma" unicode="," horiz-adv-x="200" 
d="M70 -118l-24 24q20 22 36 47q19 28 19 41q0 4 -2 6q-31 0 -50 18q-19 19 -19 49t19 48q23 17 51 19t50.5 -19t19.5 -56q0 -74 -100 -177z" />
    <glyph glyph-name="hyphen" unicode="-" horiz-adv-x="306" 
d="M270 230h-234v54h234v-54z" />
    <glyph glyph-name="period" unicode="." horiz-adv-x="200" 
d="M99 134q31 0 51 -19.5t20 -50.5t-20 -50.5t-51 -19.5q-30 0 -49.5 19.5t-19.5 50.5t19.5 50.5t49.5 19.5z" />
    <glyph glyph-name="slash" unicode="/" horiz-adv-x="368" 
d="M367 750l-308 -850h-58l308 850h58z" />
    <glyph glyph-name="zero" unicode="0" horiz-adv-x="649" 
d="M324 707q127 0 205 -97q78 -96 78 -260t-78 -261q-78 -96 -205 -96q-126 0 -204 96q-78 97 -78 261t78 260q78 97 204 97zM202 350q0 -148 33 -226.5t90 -78.5q56 0 89 79t33 226t-33 226t-89 79q-58 0 -90.5 -78t-32.5 -227z" />
    <glyph glyph-name="one" unicode="1" horiz-adv-x="409" 
d="M372 0h-327v43l87 27v540h-93v47l229 52l17 -18v-629l87 -22v-40z" />
    <glyph glyph-name="two" unicode="2" horiz-adv-x="544" 
d="M496 0h-463v66q79 70 130 121q48 48 96 110q88 117 88 246q0 57 -24 83.5t-75 26.5q-53 0 -93 -37v-65q0 -25 -18 -42.5t-43 -17.5q-26 0 -43 17.5t-17 51.5q0 64 60 104.5t163 40.5q109 0 169 -47t60 -136q0 -40 -12 -79q-10 -37 -38 -77q-26 -38 -48 -66
q-22 -27 -66 -66l-64 -57l-69 -55q-3 -3 -10 -8.5t-10 -7.5h250l34 87h54z" />
    <glyph glyph-name="three" unicode="3" horiz-adv-x="585" 
d="M177 625v-60q0 -25 -18 -42.5t-43 -17.5t-42.5 18t-17.5 49q0 62 62 98q62 37 158 37q109 0 174.5 -48.5t65.5 -130.5q0 -59 -35 -99.5t-97 -58.5q75 -21 117 -68t42 -112q0 -90 -75 -144q-74 -53 -193 -53q-97 0 -162 36q-63 37 -63 99q0 31 17.5 49t42.5 18t43 -17.5
t18 -42.5v-61q34 -25 83 -25q61 0 98 38t37 111q0 72 -41 108t-116 36h-51v52h43q70 0 104.5 29t34.5 94t-30 99.5t-80 34.5q-44 0 -76 -26z" />
    <glyph glyph-name="four" unicode="4" horiz-adv-x="598" 
d="M547 0h-266v43l60 27v80h-299v34q89 149 132 265q44 118 44 251h153q0 -142 -79 -271q-40 -67 -79 -114q-44 -56 -97 -113h225v138l128 129l18 -18v-249h71v-52h-71v-88l60 -22v-40z" />
    <glyph glyph-name="five" unicode="5" horiz-adv-x="530" 
d="M158 124v-59q34 -18 67 -18q119 0 119 160q0 175 -137 175q-57 0 -100 -30l-33 32l31 316q209 0 333 17v-125h-278l-40 -187q59 30 127 30q115 0 182.5 -59.5t67.5 -161.5t-69 -160.5t-189 -58.5q-91 0 -146.5 33.5t-55.5 89.5q0 31 17.5 48.5t43.5 17.5q25 0 42.5 -17.5
t17.5 -42.5z" />
    <glyph glyph-name="six" unicode="6" horiz-adv-x="578" 
d="M187 394q53 38 130 38q103 0 165 -59q63 -59 63 -155q0 -104 -71 -164q-71 -59 -175 -59q-128 0 -197 88q-69 89 -69 235q0 98 32.5 172.5t90.5 119.5t130.5 69t160.5 30l35 -35q-143 -25 -216.5 -91.5t-78.5 -188.5zM187 327q0 -149 26 -214t79 -65q46 0 72.5 42
t26.5 119q0 79 -30 119t-84 40q-58 0 -90 -41z" />
    <glyph glyph-name="seven" unicode="7" horiz-adv-x="563" 
d="M337 0h-153q0 82 25 160q25 81 57 135q39 70 86 145q56 90 87 150h-308l-35 -85h-54l13 195h472v-34q-15 -46 -77 -204q-60 -155 -86 -255q-27 -103 -27 -207z" />
    <glyph glyph-name="eight" unicode="8" horiz-adv-x="615" 
d="M544 547q0 -105 -120 -164q81 -37 115.5 -77.5t34.5 -109.5q0 -203 -279 -203q-253 0 -253 170q0 66 35.5 105.5t111.5 71.5q-61 31 -91 73t-30 103q0 88 61 139.5t188 51.5q113 0 170 -42.5t57 -117.5zM275 302l-26 10q-60 -66 -60 -150q0 -117 110 -117q58 0 92 30.5
t34 90.5q0 46 -30 72q-29 26 -120 64zM210 549q0 -51 30 -77t109 -57q1 0 4.5 -1.5t5.5 -2.5q44 61 44 133q0 111 -92 111q-47 0 -74 -28t-27 -78z" />
    <glyph glyph-name="nine" unicode="9" horiz-adv-x="578" 
d="M389 306q-53 -38 -129 -38q-103 0 -165 58q-62 59 -62 155q0 104 71 164q72 60 179 60q125 0 193 -86t68 -238q0 -367 -424 -389l-35 35q294 42 304 279zM391 373q0 153 -26 217q-25 63 -77 63q-47 0 -74 -43t-27 -121q0 -157 112 -157q57 0 92 41z" />
    <glyph glyph-name="colon" unicode=":" horiz-adv-x="200" 
d="M99 134q31 0 51 -19.5t20 -50.5t-20 -50.5t-51 -19.5q-30 0 -49.5 19.5t-19.5 50.5t19.5 50.5t49.5 19.5zM30 395q0 31 19.5 51t49.5 20q31 0 51 -20t20 -51q0 -30 -20 -49.5t-51 -19.5q-30 0 -49.5 19.5t-19.5 49.5z" />
    <glyph glyph-name="semicolon" unicode=";" horiz-adv-x="200" 
d="M70 -118l-24 24q20 22 36 47q19 28 19 41q0 4 -2 6q-31 0 -50 18q-19 19 -19 49t19 48q23 17 51 19t50.5 -19t19.5 -56q0 -74 -100 -177zM30 395q0 31 19.5 51t49.5 20q31 0 51 -20t20 -51q0 -30 -20 -49.5t-51 -19.5q-30 0 -49.5 19.5t-19.5 49.5z" />
    <glyph glyph-name="less" unicode="&#x3c;" horiz-adv-x="453" 
d="M43 295l345 160l22 -48l-282 -132l282 -131l-22 -48l-345 160v39z" />
    <glyph glyph-name="equal" unicode="=" horiz-adv-x="453" 
d="M417 354h-381v54h381v-54zM417 192h-381v54h381v-54z" />
    <glyph glyph-name="greater" unicode="&#x3e;" horiz-adv-x="453" 
d="M325 275l-282 132l22 48l345 -160v-39l-345 -160l-22 48z" />
    <glyph glyph-name="question" unicode="?" horiz-adv-x="484" 
d="M253 206h-52q-12 65 -7.5 101t24.5 72q19 34 40 58q53 61 53 129q0 87 -83 87q-43 0 -73 -27v-63q0 -25 -18 -43t-43 -18q-26 0 -43 17.5t-17 51.5q0 60 54.5 97t144.5 37q100 0 159 -44.5t59 -120.5q0 -77 -70 -140q-2 -2 -17 -14.5t-18 -15.5t-16.5 -15.5t-18 -17.5
t-15 -17t-14.5 -20t-11.5 -20.5t-10 -23t-5 -23.5t-2.5 -27zM178 13q-19 20 -19 51t19 50q20 20 51 20t50 -20q20 -19 20 -50t-20 -51q-19 -19 -50 -19t-51 19z" />
    <glyph glyph-name="at" unicode="@" horiz-adv-x="917" 
d="M785 -28l20 -21q-52 -52 -139 -84t-197 -32q-186 0 -293 95q-106 94 -106 264q0 167 105 261t303 94q182 0 275.5 -82t93.5 -239q0 -233 -213 -233q-89 0 -106 47l-3 2q-49 -49 -123 -49q-70 0 -109 54t-39 143q0 208 224 208q66 0 114 -19l52 19l15 -15v-312
q0 -33 29 -33q66 0 66 172q0 149 -62 220t-215 71q-306 0 -306 -304q0 -318 340 -318q183 0 274 91zM525 82v256q-25 17 -56 17q-40 0 -59 -37t-19 -118q0 -149 70 -149q39 0 64 31z" />
    <glyph glyph-name="A" unicode="A" horiz-adv-x="774" 
d="M352 700h71l280 -635l65 -25v-40h-289v40l63 25l-63 149h-287l-65 -149l81 -25v-40h-202v40l63 25zM456 266l-119 279l-122 -279h241z" />
    <glyph glyph-name="B" unicode="B" horiz-adv-x="683" 
d="M23 664v36h331q117 0 189 -48t72 -130q0 -59 -37.5 -101t-104.5 -61q80 -20 124.5 -65.5t44.5 -108.5q0 -85 -80 -136q-80 -50 -208 -50h-331v36l65 21v586zM248 332v-280h89q65 0 101 35t36 105t-36 105t-101 35h-89zM337 648h-89v-264h89q110 0 110 132t-110 132z" />
    <glyph glyph-name="C" unicode="C" horiz-adv-x="701" 
d="M630 138l33 -34q-111 -111 -273 -111q-159 0 -254 95q-94 95 -94 258q0 166 96 263q96 98 255 98q103 0 182 -39l49 20l17 -17l17 -152h-54q-57 132 -190 132q-205 0 -205 -295q0 -293 228 -293q119 0 193 75z" />
    <glyph glyph-name="D" unicode="D" horiz-adv-x="749" 
d="M23 664v36h334q159 0 254 -94q96 -93 96 -256q0 -162 -96 -257q-96 -93 -254 -93h-334v36l65 21v586zM357 648h-109v-596h108q86 0 134.5 75.5t48.5 222.5q0 148 -48 223t-134 75z" />
    <glyph glyph-name="E" unicode="E" horiz-adv-x="633" 
d="M248 332v-280h249l44 97h54l-13 -149h-559v36l65 21v586l-65 21v36h549l13 -149h-54l-44 97h-239v-264h178l22 76h50v-203h-50l-22 75h-178z" />
    <glyph glyph-name="F" unicode="F" horiz-adv-x="613" 
d="M440 253l-22 76h-170v-259l95 -30v-40h-320v43l65 31v569l-65 21v36h539l13 -149h-54l-44 97h-229v-267h170l22 75h50v-203h-50z" />
    <glyph glyph-name="G" unicode="G" horiz-adv-x="746" 
d="M723 304l-65 -29v-247l-17 -18l-64 31q-81 -48 -189 -48q-158 0 -253 95q-93 96 -93 258q0 166 96 263q96 98 255 98q103 0 182 -39l49 20l17 -17l17 -152h-54q-57 132 -190 132q-205 0 -205 -295q0 -86 18 -149q19 -65 68.5 -104.5t122.5 -39.5q46 0 80 20v196l-65 25
v40h290v-40z" />
    <glyph glyph-name="H" unicode="H" horiz-adv-x="788" 
d="M23 0v43l65 31v560l-65 26v40h290v-40l-65 -29v-252h292v255l-65 26v40h290v-40l-65 -29v-566l65 -25v-40h-290v43l65 31v253h-292v-262l65 -25v-40h-290z" />
    <glyph glyph-name="I" unicode="I" horiz-adv-x="336" 
d="M311 660l-65 -29v-566l65 -25v-40h-287v43l65 31v560l-65 26v40h287v-40z" />
    <glyph glyph-name="J" unicode="J" horiz-adv-x="336" 
d="M90 0v634l-65 26v40h285v-40l-65 -29v-631q0 -79 -49.5 -145.5t-142.5 -113.5l-32 32q33 38 51 100t18 127z" />
    <glyph glyph-name="K" unicode="K" horiz-adv-x="716" 
d="M311 660l-65 -29v-276l273 279l-82 26v40h225v-40l-67 -26l-180 -186l227 -383l65 -25v-40h-207l-197 339l-57 -58v-216l65 -25v-40h-289v43l65 31v560l-65 26v40h289v-40z" />
    <glyph glyph-name="L" unicode="L" horiz-adv-x="605" 
d="M248 631v-579h220l45 97h54l-14 -149h-530v36l65 21v577l-65 26v40h290v-40z" />
    <glyph glyph-name="M" unicode="M" horiz-adv-x="965" 
d="M908 660l-65 -29l43 -566l65 -25v-40h-289v43l65 31l-33 443l-228 -517h-71l-229 517l-35 -469l65 -26v-22h-182v26l65 30l43 578l-65 26v40h190l234 -545l239 545h188v-40z" />
    <glyph glyph-name="N" unicode="N" horiz-adv-x="713" 
d="M23 0v26l65 30v578l-65 26v40h216l334 -474v426l-65 26v22h182v-22l-65 -29v-649h-73l-412 587v-539l65 -26v-22h-182z" />
    <glyph glyph-name="O" unicode="O" horiz-adv-x="770" 
d="M136 89q-94 97 -94 261q0 165 94 260q94 97 249 97t249 -97q95 -97 95 -260t-95 -261q-94 -96 -249 -96t-249 96zM209 350q0 -148 47 -226.5t130 -78.5q81 0 128 78.5t47 226.5q0 149 -47 227t-128 78q-83 0 -130 -78t-47 -227z" />
    <glyph glyph-name="P" unicode="P" horiz-adv-x="649" 
d="M318 648h-70v-578l95 -30v-40h-320v43l65 31v569l-65 21v36h312q121 0 197 -56q75 -56 75 -151t-75 -150q-76 -56 -197 -56h-39l-17 17v35h39q121 0 121 154q0 155 -121 155z" />
    <glyph glyph-name="Q" unicode="Q" horiz-adv-x="770" 
d="M770 -50l17 -17q-64 -64 -166 -64q-39 0 -71 7q-32 6 -56 12q-22 6 -53 24q-40 23 -43 25q-8 5 -46 33l-41 30q-123 22 -197 114q-72 93 -72 236q0 165 94 260q94 97 249 97t249 -97q95 -97 95 -260q0 -124 -57.5 -211.5t-158.5 -121.5q45 -33 68 -47q64 -40 132 -40
q35 0 57 20zM209 350q0 -148 47 -226.5t130 -78.5q81 0 128 78.5t47 226.5q0 149 -47 227t-128 78q-83 0 -130 -78t-47 -227z" />
    <glyph glyph-name="R" unicode="R" horiz-adv-x="693" 
d="M614 505q0 -67 -43 -114t-120 -65q45 -22 82 -97l86 -164l65 -25v-40h-203l-164 312h-69v-247l65 -25v-40h-290v43l65 31v569l-65 21v36h324q119 0 193 -53t74 -142zM330 648h-82v-284h82q55 0 85.5 35.5t30.5 106.5t-30.5 106.5t-85.5 35.5z" />
    <glyph glyph-name="S" unicode="S" horiz-adv-x="596" 
d="M74 6l-17 17l-17 154h54q12 -63 61 -97.5t113 -34.5q62 0 99.5 31t37.5 97q0 44 -28 63q-27 21 -122 54q-14 4 -63 22q-20 8 -54 27t-51 39q-44 52 -44 128q0 94 60.5 147.5t183.5 53.5q96 0 175 -35l26 21l18 -17l17 -153h-55q-14 66 -55 99t-96 33q-56 0 -90 -32
t-34 -87q0 -44 27 -64q27 -18 110 -47q38 -13 62 -23q15 -5 52 -23q29 -12 47 -29q68 -60 63 -147q0 -210 -272 -210q-103 0 -181 35z" />
    <glyph glyph-name="T" unicode="T" horiz-adv-x="677" 
d="M601 551l-45 97h-137v-583l65 -25v-40h-290v43l65 31v574h-138l-44 -104h-54l14 156h604l14 -149h-54z" />
    <glyph glyph-name="U" unicode="U" horiz-adv-x="743" 
d="M720 678l-65 -29v-385q0 -125 -79 -198q-77 -73 -205 -73t-205 73q-78 74 -78 198v370l-65 26v40h290v-40l-65 -29v-367q0 -94 48 -144t133 -50t133.5 50t48.5 144v388l-65 26v22h174v-22z" />
    <glyph glyph-name="V" unicode="V" horiz-adv-x="774" 
d="M422 0h-71l-280 634l-65 26v40h290v-40l-65 -26l206 -479l210 479l-81 26v40h202v-40l-64 -26z" />
    <glyph glyph-name="W" unicode="W" horiz-adv-x="1194" 
d="M849 0h-71l-185 438l-179 -438h-71l-272 634l-65 26v40h290v-40l-65 -26l198 -479l136 346l-59 133l-65 26v40h291v-40l-65 -26l198 -479l202 479l-81 26v40h202v-40l-64 -26z" />
    <glyph glyph-name="X" unicode="X" horiz-adv-x="744" 
d="M433 40l65 22l-172 238l-180 -238l72 -22v-40h-206v40l69 22l216 277l-216 299l-62 22v40h300v-40l-65 -22l159 -221l167 221l-72 22v40h206v-40l-70 -22l-203 -260l229 -316l62 -22v-40h-299v40z" />
    <glyph glyph-name="Y" unicode="Y" horiz-adv-x="702" 
d="M304 660l-65 -22l162 -288l164 288l-72 22v40h203v-40l-70 -22l-201 -349v-224l65 -25v-40h-289v43l65 31v214l-198 350l-62 22v40h298v-40z" />
    <glyph glyph-name="Z" unicode="Z" horiz-adv-x="634" 
d="M588 0h-546v34l371 614h-270l-44 -104h-54l14 156h534v-34l-375 -614h285l45 107h54z" />
    <glyph glyph-name="bracketleft" unicode="[" horiz-adv-x="324" 
d="M294 710l-95 -26v-819l95 -25v-40h-230v950h230v-40z" />
    <glyph glyph-name="backslash" unicode="\" horiz-adv-x="368" 
d="M59 750l308 -850h-58l-308 850h58z" />
    <glyph glyph-name="bracketright" unicode="]" horiz-adv-x="324" 
d="M30 -160l95 25v819l-95 26v40h230v-950h-230v40z" />
    <glyph glyph-name="asciicircum" unicode="^" horiz-adv-x="435" 
d="M30 483l179 222h17l179 -222l-27 -27l-161 134l-160 -134z" />
    <glyph glyph-name="underscore" unicode="_" horiz-adv-x="634" 
d="M633 -103h-632v53h632v-53z" />
    <glyph glyph-name="grave" unicode="`" horiz-adv-x="300" 
d="M30 606l90 90l150 -167l-27 -27z" />
    <glyph glyph-name="a" unicode="a" horiz-adv-x="544" 
d="M311 46l-3 4q-61 -55 -160 -55q-111 0 -111 105q-8 63 60 102q14 10 54 22l67 19l91 22v75q0 73 -73 73q-27 0 -63 -17v-51q0 -25 -17.5 -43t-42.5 -18t-43 17.5t-18 46.5q0 52 56 84.5t147 32.5q95 0 150.5 -35t55.5 -95v-263q0 -20 17 -20q16 0 26 12l16 -16
q-53 -51 -139 -51q-34 0 -50 11t-20 38zM309 95v120q-81 -21 -108 -38q-25 -16 -25 -61q0 -58 50 -58t83 37z" />
    <glyph glyph-name="b" unicode="b" horiz-adv-x="589" 
d="M83 33v635l-60 26v39l195 26l17 -18v-281l-2 -47l3 -3q52 55 142 55q84 0 131 -65t47 -165q0 -240 -272 -240q-117 0 -201 38zM235 364v-301q28 -19 68 -19q99 0 99 182q0 175 -88 175q-48 0 -79 -37z" />
    <glyph glyph-name="c" unicode="c" horiz-adv-x="516" 
d="M355 339v59q-27 15 -61 15q-107 0 -107 -169q0 -96 33 -140.5t100 -44.5q79 0 122 43l32 -32q-76 -75 -198 -75q-110 0 -177 63q-66 63 -66 173q0 109 67 171.5t184 62.5q86 0 139 -32.5t53 -87.5q0 -31 -17.5 -49t-42.5 -18t-43 18t-18 43z" />
    <glyph glyph-name="d" unicode="d" horiz-adv-x="589" 
d="M506 741v-654l51 -31v-44l-187 -21l-17 18l3 37l-3 4q-52 -55 -143 -55q-85 0 -131 64t-46 164q0 116 62 179t174 63q48 0 84 -16v219l-60 26v39l196 26zM353 96v295q-26 22 -69 22q-97 0 -97 -181q0 -173 88 -173q48 0 78 37z" />
    <glyph glyph-name="e" unicode="e" horiz-adv-x="517" 
d="M475 251l-17 -17h-271q1 -94 32.5 -134.5t98.5 -40.5q82 0 124 43l32 -32q-75 -75 -196 -75q-112 0 -179 64q-66 65 -66 171q0 110 68 172q69 63 172 63q93 0 149 -49q57 -50 57 -125q0 -25 -4 -40zM279 413q-36 0 -62 -37.5t-30 -94.5l167 10q0 58 -20.5 90t-54.5 32z
" />
    <glyph glyph-name="f" unicode="f" horiz-adv-x="414" 
d="M23 451l60 17v97q0 87 55.5 138.5t148.5 51.5q74 0 119 -32t45 -83q0 -31 -17.5 -48.5t-42.5 -17.5t-43 17.5t-18 42.5v61q-17 11 -36 11q-59 0 -59 -139v-107h159v-52h-159v-342l94 -26v-40h-306v43l60 27v338h-60v43z" />
    <glyph glyph-name="g" unicode="g" horiz-adv-x="576" 
d="M538 420l-54 -22h-30q33 -38 33 -89q0 -70 -61 -112q-61 -41 -158 -41q-64 0 -112 18q-15 -22 -15 -41q0 -39 52 -39h137q208 0 208 -159q0 -189 -300 -189q-214 0 -214 93q0 36 28 67.5t78 49.5q-78 22 -78 108q0 37 15 66t49 64q-66 41 -66 115q0 71 59.5 113t158.5 42
q24 0 55 -4h215v-40zM353 -52h-167q-26 -32 -26 -73q0 -78 111 -78q70 0 113 24.5t43 65.5q0 28 -18.5 44.5t-55.5 16.5zM339 310q0 53 -19 81t-52 28q-31 0 -50 -28q-19 -26 -19 -81q0 -54 18 -81q19 -27 51 -27q33 0 52 28t19 80z" />
    <glyph glyph-name="h" unicode="h" horiz-adv-x="636" 
d="M235 361v-299l53 -22v-40h-265v43l60 27v598l-60 26v39l195 26l17 -18v-281l-2 -49l3 -3q27 26 70 41.5t86 15.5q76 0 118 -49q42 -50 42 -120v-234l60 -22v-40h-265v43l53 27v216q0 55 -19 85t-53 30q-22 0 -48.5 -11t-44.5 -29z" />
    <glyph glyph-name="i" unicode="i" 
d="M295 0h-272v43l60 27v300l-51 25v48l186 26l17 -18v-389l60 -22v-40zM65 606q0 39 24.5 63.5t63.5 24.5t63.5 -24.5t24.5 -63.5q0 -40 -24.5 -64t-63.5 -24t-63.5 24t-24.5 64z" />
    <glyph glyph-name="j" unicode="j" 
d="M83 0v370l-51 25v48l186 26l17 -18v-451q0 -78 -48.5 -145t-138.5 -114l-32 32q33 38 50 99t17 128zM65 606q0 39 24.5 63.5t63.5 24.5t63.5 -24.5t24.5 -63.5q0 -40 -24.5 -64t-63.5 -24t-63.5 24t-24.5 64z" />
    <glyph glyph-name="k" unicode="k" horiz-adv-x="587" 
d="M580 0h-181l-121 205l-43 -40v-103l60 -22v-40h-272v43l60 27v598l-60 26v39l195 26l17 -18v-502l175 159l-77 22v40h213v-40l-59 -22l-104 -93l137 -244l60 -21v-40z" />
    <glyph glyph-name="l" unicode="l" 
d="M295 0h-272v43l60 27v598l-60 26v39l195 26l17 -18v-679l60 -22v-40z" />
    <glyph glyph-name="m" unicode="m" horiz-adv-x="901" 
d="M235 361v-299l46 -22v-40h-258v43l60 27v300l-51 25v48l186 26l17 -18l-2 -40l3 -3q26 26 68 41.5t80 15.5q78 0 115 -64q33 30 82 46q49 18 92 18q71 0 108 -49t37 -120v-234l60 -22v-40h-258v43l45 27v216q0 115 -64 115q-46 0 -86 -34q12 -34 12 -71v-234l45 -22v-40
h-244v43l46 27v216q0 55 -16 85t-45 30q-19 0 -41 -11t-37 -29z" />
    <glyph glyph-name="n" unicode="n" horiz-adv-x="636" 
d="M235 361v-299l53 -22v-40h-265v43l60 27v300l-51 25v48l186 26l17 -18l-2 -40l3 -3q29 26 75 41.5t87 15.5q74 0 114 -49t40 -120v-234l60 -22v-40h-265v43l53 27v216q0 54 -19.5 84.5t-53.5 30.5q-23 0 -49 -11t-43 -29z" />
    <glyph glyph-name="o" unicode="o" horiz-adv-x="553" 
d="M100 58q-67 64 -67 172t67 171q67 64 177 64q109 0 176 -64q67 -63 67 -171t-67 -172q-67 -63 -176 -63t-177 63zM187 230q0 -89 23.5 -135.5t66.5 -46.5q42 0 66 46.5t24 135.5q0 90 -24 136.5t-66 46.5q-43 0 -66.5 -46t-23.5 -137z" />
    <glyph glyph-name="p" unicode="p" horiz-adv-x="589" 
d="M329 -250h-306v43l60 27v550l-51 25v48l186 26l17 -18l-2 -38l3 -3q52 55 142 55q84 0 131 -65t47 -164q0 -114 -62 -177.5t-173 -63.5q-49 0 -86 15v-194l94 -26v-40zM235 364v-298q28 -22 69 -22q98 0 98 183q0 174 -88 174q-48 0 -79 -37z" />
    <glyph glyph-name="q" unicode="q" horiz-adv-x="574" 
d="M506 451v-631l60 -27v-43h-273v40l60 22v188l3 47l-3 3q-52 -55 -143 -55q-85 0 -131 64t-46 166q0 240 271 240q64 0 124 -18l61 22zM353 96v298q-28 19 -67 19q-99 0 -99 -180q0 -174 88 -174q48 0 78 37z" />
    <glyph glyph-name="r" unicode="r" horiz-adv-x="482" 
d="M23 43l60 27v300l-51 25v48l186 26l17 -20l-2 -66l3 -3q1 1 2.5 4.5t5.5 10t11 14.5q45 56 102 56q44 0 74 -31.5t30 -77.5q0 -34 -17 -51.5t-43 -17.5q-25 0 -43 17.5t-18 42.5v61q-8 5 -16 5q-22 0 -45 -26q-22 -25 -33 -52l-11 -26v-243l94 -26v-40h-306v43z" />
    <glyph glyph-name="s" unicode="s" horiz-adv-x="443" 
d="M51 3l-14 13v121h55q26 -90 106 -90q36 0 58 16t22 50q0 23 -16.5 33.5t-71.5 26.5l-39 11l-34 13q-26 11 -35 19q-53 41 -48 105q0 143 182 143q77 0 134 -25l16 15l14 -13v-116h-54q-26 87 -91 87q-32 0 -51.5 -17t-19.5 -44q0 -24 15 -34.5t63 -25.5q26 -7 36 -12
q41 -10 65 -27q37 -22 47 -43q18 -34 18 -71q0 -143 -207 -143q-71 0 -134 23z" />
    <glyph glyph-name="t" unicode="t" horiz-adv-x="401" 
d="M83 408h-60v26q113 46 195 142l17 -17v-99h124v-52h-124v-272q0 -80 66 -80q35 0 54 19l25 -25q-55 -55 -142 -55q-70 0 -112.5 38.5t-42.5 102.5v272z" />
    <glyph glyph-name="u" unicode="u" horiz-adv-x="632" 
d="M549 451v-364l51 -31v-44l-186 -21l-18 18l3 47l-3 3q-29 -29 -76.5 -46.5t-93.5 -17.5q-67 0 -105 40t-38 101v234l-51 25v48l186 26l17 -18v-312q0 -38 17.5 -59t48.5 -21q24 0 51 13.5t44 36.5v261l-51 25v48l187 26z" />
    <glyph glyph-name="v" unicode="v" horiz-adv-x="573" 
d="M319 0h-64l-188 398l-60 22v40h272v-40l-58 -22l113 -243l116 243l-77 22v40h193v-40l-59 -22z" />
    <glyph glyph-name="w" unicode="w" horiz-adv-x="881" 
d="M632 0h-63l-120 272l-129 -272h-64l-189 398l-60 22v40h265v-40l-58 -22l119 -254l90 190l-29 64l-60 22v40h265v-40l-59 -22l104 -254l113 254l-76 22v40h193v-40l-59 -22z" />
    <glyph glyph-name="x" unicode="x" horiz-adv-x="578" 
d="M285 40l58 22l-96 119l-100 -119l69 -22v-40h-196v40l63 22l133 157l-146 179l-48 22v40h272v-40l-58 -22l91 -113l96 113l-69 22v40h197v-40l-63 -22l-130 -150l150 -186l49 -22v-40h-272v40z" />
    <glyph glyph-name="y" unicode="y" horiz-adv-x="576" 
d="M258 -6l-191 404l-60 22v40h272v-40l-58 -22l113 -243l116 243l-77 22v40h195v-40l-58 -22l-188 -398q-78 -164 -110 -207q-33 -47 -89 -47q-44 0 -70.5 22.5t-26.5 62.5q0 32 19 50.5t47 18.5t46.5 -16.5t18.5 -42.5v-23q2 -2 7 -2q13 0 32 37q22 42 62 141z" />
    <glyph glyph-name="z" unicode="z" horiz-adv-x="494" 
d="M452 0h-410v34l243 374h-151l-30 -87h-55v139h401v-34l-246 -374h163l31 87h54v-139z" />
    <glyph glyph-name="braceleft" unicode="{" horiz-adv-x="353" 
d="M141 279q105 -61 105 -227q0 -98 20.5 -148t56.5 -50v-52q-97 0 -157 69q-59 68 -59 185q0 98 -20.5 148t-56.5 50v49q36 0 56.5 50t20.5 148q0 117 59 185q60 69 157 69v-52q-36 0 -56.5 -50t-20.5 -148q0 -81 -27.5 -139.5t-77.5 -86.5z" />
    <glyph glyph-name="bar" unicode="|" horiz-adv-x="219" 
d="M136 750v-1000h-53v1000h53z" />
    <glyph glyph-name="braceright" unicode="}" horiz-adv-x="353" 
d="M212 279q-50 28 -77.5 86.5t-27.5 139.5q0 98 -20.5 148t-56.5 50v52q98 0 156 -69q60 -68 60 -185q0 -98 20.5 -148t56.5 -50v-49q-36 0 -56.5 -50t-20.5 -148q0 -117 -60 -185q-58 -69 -156 -69v52q36 0 56.5 50t20.5 148q0 166 105 227z" />
    <glyph glyph-name="asciitilde" unicode="~" horiz-adv-x="519" 
d="M65 226l-29 27q124 124 174 124q23 0 67 -28q47 -27 72 -27q22 0 53 15t52 38l29 -28q-128 -125 -179 -125q-21 0 -67 28q-44 28 -71 28q-22 0 -50 -14t-51 -38z" />
    <glyph glyph-name="exclamdown" unicode="&#xa1;" horiz-adv-x="222" 
d="M85 460h52q17 -218 33 -341q5 -39 10.5 -73t7.5 -48t2 -21q0 -35 -22 -57.5t-57 -22.5t-57 22.5t-22 57.5q0 11 6 42q22 116 47 441zM41 598q0 30 20 49.5t50 19.5q31 0 50.5 -19.5t19.5 -49.5q0 -32 -19.5 -51.5t-50.5 -19.5q-30 0 -50 20t-20 51z" />
    <glyph glyph-name="cent" unicode="&#xa2;" horiz-adv-x="516" 
d="M305 -3v-47h-43v45q-105 4 -167 67.5t-62 168.5q0 103 60.5 165t168.5 68v46h43v-46q78 -4 124.5 -36t46.5 -83q0 -31 -17.5 -49t-42.5 -18t-43 18t-18 43v59q-23 13 -50 14v-353h15q79 0 122 43l32 -32q-66 -66 -169 -73zM187 244q0 -144 75 -175v339q-75 -22 -75 -164z
" />
    <glyph glyph-name="sterling" unicode="&#xa3;" horiz-adv-x="587" 
d="M83 324h-60v35l60 17v105q0 104 64.5 164t178.5 60q84 0 136 -32.5t52 -86.5q0 -32 -17.5 -50t-43.5 -18q-25 0 -42.5 18t-17.5 43v59q-25 15 -57 15q-101 0 -101 -159v-118h180v-52h-180q0 -95 -54 -202q33 14 54 14q27 0 82 -27t87 -27q28 0 64.5 15t63.5 39l28 -29
q-155 -124 -215 -124q-26 0 -81 28t-87 28q-58 0 -122 -53l-29 27l57 46v265z" />
    <glyph glyph-name="currency" unicode="&#xa4;" horiz-adv-x="500" 
d="M75 300q0 62 31 106l-61 62l37 37l61 -61q43 33 106 33q65 0 109 -32l60 60l37 -37l-60 -61q32 -46 32 -107q0 -60 -32 -107l61 -61l-37 -38l-63 62q-44 -32 -107 -32t-105 33l-62 -63l-38 38l63 62q-32 44 -32 106zM129 300q0 -56 33 -91t88 -35t88.5 35t33.5 91
q0 58 -33.5 93.5t-88.5 35.5t-88 -35.5t-33 -93.5z" />
    <glyph glyph-name="yen" unicode="&#xa5;" horiz-adv-x="702" 
d="M266 232h-111v53h111v3l-198 350l-62 22v40h298v-40l-65 -22l162 -288l164 288l-72 22v40h203v-40l-70 -22l-201 -349v-4h111v-53h-111v-62h111v-53h-111v-52l65 -25v-40h-289v43l65 31v43h-111v53h111v62z" />
    <glyph glyph-name="brokenbar" unicode="&#xa6;" horiz-adv-x="219" 
d="M83 750h53v-450h-53v450zM136 200v-450h-53v450h53z" />
    <glyph glyph-name="section" unicode="&#xa7;" horiz-adv-x="484" 
d="M104 429q-65 44 -65 114q0 73 57.5 117.5t155.5 44.5q90 0 142 -36.5t52 -96.5q0 -34 -17.5 -52t-43.5 -18q-25 0 -42.5 18t-17.5 43v63q-31 27 -67 27q-80 0 -80 -79t92 -122q7 -3 32.5 -13.5t35 -15.5t30 -16t30 -20t21.5 -22t16.5 -28.5t4.5 -33.5q0 -67 -58 -131
q69 -44 69 -115q0 -73 -59.5 -117.5t-158.5 -44.5q-91 0 -145 37t-54 97q0 32 17.5 50.5t42.5 18.5t43 -18t18 -43v-63q30 -27 73 -27q39 0 61 21.5t22 59.5q0 41 -26 71t-68 47q-9 4 -32.5 14t-35 15t-31 15.5t-30 19.5t-22 22t-16.5 29t-5 34q0 67 59 134zM310 204
q21 33 21 61q0 48 -38 72q-18 13 -36 21q-7 3 -39.5 17t-44.5 20q-22 -34 -22 -62t17 -50.5t40 -33.5q10 -5 54 -23q36 -15 48 -22z" />
    <glyph glyph-name="dieresis" unicode="&#xa8;" horiz-adv-x="373" 
d="M75 671q33 0 53.5 -20.5t20.5 -53.5t-20.5 -54t-53.5 -21q-32 0 -53 21t-21 54t21 53.5t53 20.5zM299 671q32 0 53 -20.5t21 -53.5t-21 -54t-53 -21q-33 0 -54 21t-21 54t21 53.5t54 20.5z" />
    <glyph glyph-name="copyright" unicode="&#xa9;" horiz-adv-x="782" 
d="M140 99q-104 104 -104 251t104 251t251 104t251 -104t104 -251t-104 -251t-251 -104t-251 104zM177 564q-89 -89 -89 -214t89 -214t214 -89t214 89t89 214t-89 214t-214 89t-214 -89zM515 249l18 -19q-57 -57 -138 -57t-128.5 48t-47.5 129q0 83 48.5 132t129.5 49
q47 0 87 -18l27 10l10 -8l9 -80h-31q-31 64 -92 64q-91 0 -91 -143t107 -143q55 0 92 36z" />
    <glyph glyph-name="ordfeminine" unicode="&#xaa;" horiz-adv-x="285" 
d="M155 493l-1 2q-32 -27 -79 -27q-55 0 -55 52q0 36 26 50t108 33v36q0 34 -32 34q-13 0 -25 -6v-26q0 -20 -17 -29t-34 -0.5t-17 31.5q0 27 28.5 43.5t76.5 16.5q50 0 79 -18.5t29 -48.5v-127q0 -10 8 -10q6 0 13 6l8 -8q-28 -28 -77 -28q-34 0 -39 24zM154 519v55
q-34 -9 -43.5 -16.5t-9.5 -28.5q0 -26 20 -26t33 16z" />
    <glyph glyph-name="guillemotleft" unicode="&#xab;" horiz-adv-x="440" 
d="M210 83l-187 168v17l187 169l27 -27l-99 -151l99 -150zM380 83l-187 168v17l187 169l27 -27l-99 -151l99 -150z" />
    <glyph glyph-name="logicalnot" unicode="&#xac;" horiz-adv-x="503" 
d="M414 322h-378v54h431v-152h-53v98z" />
    <glyph glyph-name="uni00AD" unicode="&#xad;" horiz-adv-x="306" 
d="M270 273h-234v53h234v-53z" />
    <glyph glyph-name="registered" unicode="&#xae;" horiz-adv-x="782" 
d="M140 99q-104 104 -104 251t104 251t251 104t251 -104t104 -251t-104 -251t-251 -104t-251 104zM177 564q-89 -89 -89 -214t89 -214t214 -89t214 89t89 214t-89 214t-214 89t-214 -89zM536 434q0 -32 -20.5 -55.5t-57.5 -33.5q22 -10 41 -49l39 -78l33 -14v-22h-114
l-78 154h-25v-118l33 -14v-22h-158v25l33 16v277l-33 12v20h167q63 0 101.5 -26.5t38.5 -71.5zM387 503h-33v-138h33q51 0 51 69t-51 69z" />
    <glyph glyph-name="overscore" unicode="&#xaf;" horiz-adv-x="306" 
d="M291 551h-276v60h276v-60z" />
    <glyph glyph-name="degree" unicode="&#xb0;" horiz-adv-x="261" 
d="M130 507q-43 0 -70.5 27.5t-27.5 71.5t27 71.5t71 27.5t71.5 -27.5t27.5 -71.5t-27.5 -71.5t-71.5 -27.5zM83 606q0 -25 12.5 -40.5t34.5 -15.5t35.5 15.5t13.5 40.5t-13.5 40.5t-35.5 15.5t-34.5 -15t-12.5 -41z" />
    <glyph glyph-name="plusminus" unicode="&#xb1;" horiz-adv-x="453" 
d="M199 323h-163v53h163v164h54v-164h164v-53h-164v-164h-54v164zM417 54h-381v53h381v-53z" />
    <glyph glyph-name="twosuperior" unicode="&#xb2;" horiz-adv-x="282" 
d="M254 350h-234v38q79 70 114 121q36 53 36 115q0 27 -9 38t-32 11q-24 0 -41 -17v-32q0 -14 -10 -24t-24 -10t-24 10t-10 29q0 33 30.5 53.5t83.5 20.5q55 0 85.5 -23t30.5 -68q0 -42 -36 -94q-10 -16 -39 -42q-7 -6 -16 -14.5t-14 -13t-8 -6.5l-40 -31h114l19 44h31z" />
    <glyph glyph-name="threesuperior" unicode="&#xb3;" horiz-adv-x="302" 
d="M97 661v-30q0 -14 -10 -24.5t-24 -10.5t-24 10t-10 28q0 32 31 50.5t81 18.5q56 0 90.5 -24.5t34.5 -64.5q0 -59 -66 -80q79 -22 79 -89q0 -45 -38.5 -71.5t-99.5 -26.5q-52 0 -83.5 18.5t-31.5 50.5q0 18 10 28t25 10q13 0 23 -10.5t10 -24.5v-31q13 -10 34 -10
q28 0 45.5 18.5t17.5 53.5q0 69 -73 69h-25v29h20q33 0 48.5 13.5t15.5 45.5q0 65 -49 65q-17 0 -31 -11z" />
    <glyph glyph-name="acute" unicode="&#xb4;" horiz-adv-x="300" 
d="M57 502l-27 27l151 167l89 -90z" />
    <glyph glyph-name="mu" unicode="&#xb5;" horiz-adv-x="632" 
d="M83 -91v461l-51 25v48l186 26l17 -18v-312q0 -38 17.5 -59t48.5 -21q24 0 51 13.5t44 36.5v261l-51 25v48l187 26l17 -18v-364l51 -31v-44l-186 -21l-18 18l3 47l-3 3q-27 -29 -70 -46.5t-85 -17.5q-33 0 -58 15l15 -47q15 -41 15 -54q0 -29 -18 -47.5t-47 -18.5
q-28 0 -46.5 18.5t-18.5 47.5z" />
    <glyph glyph-name="paragraph" unicode="&#xb6;" horiz-adv-x="529" 
d="M329 21v186q-129 0 -208 67t-79 179q0 113 79 180t208 67h177v-40l-60 -26v-613q0 -84 -49 -156.5t-139 -123.5l-31 32q49 41 75.5 108.5t26.5 139.5z" />
    <glyph glyph-name="middot" unicode="&#xb7;" horiz-adv-x="200" 
d="M30 280q0 31 19.5 51t49.5 20q31 0 51 -19.5t20 -51.5q0 -30 -20 -49.5t-51 -19.5q-30 0 -49.5 19.5t-19.5 49.5z" />
    <glyph glyph-name="cedilla" unicode="&#xb8;" horiz-adv-x="184" 
d="M17 -114l60 114h37l-20 -39q36 0 58 -13.5t22 -37.5q0 -18 -19 -44q-17 -25 -35 -45q-11 -13 -55 -57l-15 16q48 48 48 73q0 33 -81 33z" />
    <glyph glyph-name="onesuperior" unicode="&#xb9;" horiz-adv-x="219" 
d="M200 350h-176v25l44 14v260h-46v26l125 29l10 -8v-312l43 -12v-22z" />
    <glyph glyph-name="ordmasculine" unicode="&#xba;" horiz-adv-x="284" 
d="M52 499q-34 31 -34 86t34 86q35 32 90 32q54 0 89 -32t35 -86t-35 -86t-89 -32q-55 0 -90 32zM142 673q-35 0 -35 -88t35 -88t35 88t-35 88z" />
    <glyph glyph-name="guillemotright" unicode="&#xbb;" horiz-adv-x="440" 
d="M230 437l187 -169v-17l-187 -168l-27 26l99 151l-99 150zM60 437l187 -169v-17l-187 -168l-27 26l99 151l-99 150z" />
    <glyph glyph-name="onequarter" unicode="&#xbc;" horiz-adv-x="609" 
d="M584 0h-144v25l30 14v36h-142v18q42 73 64 134q21 57 21 123h88q0 -63 -31 -118.5t-99 -127.5h99v56l74 74l10 -8v-122h33v-29h-33v-41l30 -12v-22zM483 700l-299 -700h-58l301 700h56zM198 350h-176v25l44 14v260h-45v26l124 29l9 -8v-312l44 -12v-22z" />
    <glyph glyph-name="onehalf" unicode="&#xbd;" horiz-adv-x="645" 
d="M198 350h-176v25l44 14v260h-45v26l124 29l9 -8v-312l44 -12v-22zM483 700l-299 -700h-58l301 700h56zM618 0h-230v38q77 71 110 121q35 53 35 115q0 26 -9 37q-7 13 -30 12t-39 -17v-32q0 -20 -16.5 -29.5t-33.5 -0.5t-17 35q0 33 30 53.5t82 20.5q54 0 83.5 -23.5
t29.5 -67.5q0 -62 -55 -118q-34 -34 -45 -43q-14 -13 -49 -40h111l18 44h31z" />
    <glyph glyph-name="threequarters" unicode="&#xbe;" horiz-adv-x="652" 
d="M95 661v-30q0 -14 -10 -24.5t-24 -10.5t-24 10t-10 28q0 32 30.5 50.5t80.5 18.5q56 0 89 -24.5t33 -64.5q0 -59 -65 -80q78 -24 78 -89q0 -45 -37.5 -71.5t-98.5 -26.5q-51 0 -81.5 18.5t-30.5 50.5q0 18 9.5 28t24.5 10q13 0 23 -10.5t10 -24.5v-31q13 -10 32 -10
q26 0 43 18.5t17 53.5q0 69 -70 69h-25v29h20q62 0 62 59q0 65 -47 65q-16 0 -29 -11zM625 0h-144v25l30 14v36h-142v18q45 80 65 137t20 120h88q0 -63 -31 -118.5t-99 -127.5h99v56l75 74l9 -8v-122h34v-29h-34v-41l30 -12v-22zM525 700l-299 -700h-58l301 700h56z" />
    <glyph glyph-name="questiondown" unicode="&#xbf;" horiz-adv-x="484" 
d="M231 460h52q13 -71 7 -116q-4 -40 -25 -83q-20 -41 -40 -66q-52 -67 -52 -147q0 -98 83 -98q42 0 74 27v63q0 25 17.5 43t42.5 18q26 0 43.5 -18t17.5 -51q0 -60 -54.5 -97t-145.5 -37q-100 0 -158.5 50.5t-58.5 136.5q0 83 69 156q2 2 24 23.5t26.5 27t22.5 25.5
t23.5 31.5t15 31.5t13 39t3.5 41zM255 527q-30 0 -49.5 19.5t-19.5 50.5t19 50.5t50 19.5t51 -19.5t20 -50.5t-20 -50.5t-51 -19.5z" />
    <glyph glyph-name="Agrave" unicode="&#xc0;" horiz-adv-x="774" 
d="M352 700h71l280 -635l65 -25v-40h-289v40l63 25l-63 149h-287l-65 -149l81 -25v-40h-202v40l63 25zM456 266l-119 279l-122 -279h241zM247 846l89 90l151 -167l-27 -27z" />
    <glyph glyph-name="Aacute" unicode="&#xc1;" horiz-adv-x="774" 
d="M352 700h71l280 -635l65 -25v-40h-289v40l63 25l-63 149h-287l-65 -149l81 -25v-40h-202v40l63 25zM456 266l-119 279l-122 -279h241zM314 742l-27 27l150 167l90 -90z" />
    <glyph glyph-name="Acircumflex" unicode="&#xc2;" horiz-adv-x="774" 
d="M352 700h71l280 -635l65 -25v-40h-289v40l63 25l-63 149h-287l-65 -149l81 -25v-40h-202v40l63 25zM456 266l-119 279l-122 -279h241zM230 769l148 167h17l149 -167l-27 -27l-131 79l-129 -79z" />
    <glyph glyph-name="Atilde" unicode="&#xc3;" horiz-adv-x="774" 
d="M352 700h71l280 -635l65 -25v-40h-289v40l63 25l-63 149h-287l-65 -149l81 -25v-40h-202v40l63 25zM456 266l-119 279l-122 -279h241zM226 769l-25 24q103 103 146 103q21 0 56 -24t60 -24q41 0 87 46l25 -25q-107 -104 -150 -104q-21 0 -56 24q-33 24 -59 24
q-42 0 -84 -44z" />
    <glyph glyph-name="Adieresis" unicode="&#xc4;" horiz-adv-x="774" 
d="M352 700h71l280 -635l65 -25v-40h-289v40l63 25l-63 149h-287l-65 -149l81 -25v-40h-202v40l63 25zM456 266l-119 279l-122 -279h241zM221 783q-21 21 -21 54t21 53q21 21 54 21t53 -21q21 -20 21 -53t-21 -54q-20 -21 -53 -21t-54 21zM444 783q-21 21 -21 54t21 53
q21 21 54 21t53 -21q21 -20 21 -53t-21 -54q-20 -21 -53 -21t-54 21z" />
    <glyph glyph-name="Aring" unicode="&#xc5;" horiz-adv-x="774" 
d="M352 700h71l280 -635l65 -25v-40h-289v40l63 25l-63 149h-287l-65 -149l81 -25v-40h-202v40l63 25zM456 266l-119 279l-122 -279h241zM386 909q40 0 64.5 -22.5t24.5 -61.5t-24.5 -61.5t-64.5 -22.5q-39 0 -63 22.5t-24 61.5t24 61.5t63 22.5zM386 777q34 0 34 48t-34 48
q-21 3 -29.5 -22.5t0 -51t29.5 -22.5z" />
    <glyph glyph-name="AE" unicode="&#xc6;" horiz-adv-x="842" 
d="M342 36l64 20l-23 158h-191l-65 -149l81 -25v-40h-202v40l63 25l283 635h429l13 -149h-54l-44 97h-226l37 -264h127l22 76h50v-203h-50l-22 75h-121l40 -280h153l44 97h54l-13 -149h-449v36zM377 266l-40 279l-122 -279h162z" />
    <glyph glyph-name="Ccedilla" unicode="&#xc7;" horiz-adv-x="701" 
d="M316 -114l56 108q-154 5 -242 99t-88 253q0 166 96 263q96 98 255 98q103 0 182 -39l49 20l17 -17l17 -152h-54q-57 132 -190 132q-205 0 -205 -295q0 -293 228 -293q119 0 193 75l33 -34q-104 -104 -253 -110l-16 -33q35 0 57 -13.5t22 -37.5q0 -18 -19 -44
q-17 -25 -35 -45q-11 -13 -55 -57l-15 16q49 49 49 73q0 33 -82 33z" />
    <glyph glyph-name="Egrave" unicode="&#xc8;" horiz-adv-x="633" 
d="M248 332v-280h249l44 97h54l-13 -149h-559v36l65 21v586l-65 21v36h549l13 -149h-54l-44 97h-239v-264h178l22 76h50v-203h-50l-22 75h-178zM176 846l90 90l150 -167l-26 -27z" />
    <glyph glyph-name="Eacute" unicode="&#xc9;" horiz-adv-x="633" 
d="M248 332v-280h249l44 97h54l-13 -149h-559v36l65 21v586l-65 21v36h549l13 -149h-54l-44 97h-239v-264h178l22 76h50v-203h-50l-22 75h-178zM243 742l-27 27l151 167l89 -90z" />
    <glyph glyph-name="Ecircumflex" unicode="&#xca;" horiz-adv-x="633" 
d="M248 332v-280h249l44 97h54l-13 -149h-559v36l65 21v586l-65 21v36h549l13 -149h-54l-44 97h-239v-264h178l22 76h50v-203h-50l-22 75h-178zM160 769l148 167h17l148 -167l-26 -27l-131 79l-130 -79z" />
    <glyph glyph-name="Edieresis" unicode="&#xcb;" horiz-adv-x="633" 
d="M248 332v-280h249l44 97h54l-13 -149h-559v36l65 21v586l-65 21v36h549l13 -149h-54l-44 97h-239v-264h178l22 76h50v-203h-50l-22 75h-178zM151 783q-20 22 -20 54q0 33 20 53q21 21 54 21t53 -21q21 -20 21 -53t-21 -54q-20 -21 -53 -21t-54 21zM428 911
q33 0 53.5 -20.5t20.5 -53.5t-20.5 -54t-53.5 -21q-32 0 -53 21t-21 54t21 53.5t53 20.5z" />
    <glyph glyph-name="Igrave" unicode="&#xcc;" horiz-adv-x="336" 
d="M311 660l-65 -29v-566l65 -25v-40h-287v43l65 31v560l-65 26v40h287v-40zM42 846l89 90l151 -167l-27 -27z" />
    <glyph glyph-name="Iacute" unicode="&#xcd;" horiz-adv-x="336" 
d="M311 660l-65 -29v-566l65 -25v-40h-287v43l65 31v560l-65 26v40h287v-40zM94 742l-27 27l151 167l89 -90z" />
    <glyph glyph-name="Icircumflex" unicode="&#xce;" horiz-adv-x="336" 
d="M311 660l-65 -29v-566l65 -25v-40h-287v43l65 31v560l-65 26v40h287v-40zM11 769l149 167h16l149 -167l-27 -27l-130 79l-130 -79z" />
    <glyph glyph-name="Idieresis" unicode="&#xcf;" horiz-adv-x="336" 
d="M311 660l-65 -29v-566l65 -25v-40h-287v43l65 31v560l-65 26v40h287v-40zM14 783q-21 21 -21 54t21 53q21 21 54 21t53 -21q21 -20 21 -53t-21 -54q-20 -21 -53 -21t-54 21zM215 783q-20 22 -20 54q0 33 20 53q21 21 54 21t53 -21q21 -20 21 -53t-21 -54q-20 -21 -53 -21
t-54 21z" />
    <glyph glyph-name="Eth" unicode="&#xd0;" horiz-adv-x="749" 
d="M88 329h-65v35l65 17v262l-65 21v36h334q159 0 254 -94q96 -93 96 -256q0 -162 -96 -257q-96 -93 -254 -93h-334v36l65 21v272zM357 648h-109v-267h131v-52h-131v-277h108q86 0 134.5 75.5t48.5 222.5q0 148 -48 223t-134 75z" />
    <glyph glyph-name="Ntilde" unicode="&#xd1;" horiz-adv-x="713" 
d="M23 0v26l65 30v578l-65 26v40h216l334 -474v426l-65 26v22h182v-22l-65 -29v-649h-73l-412 587v-539l65 -26v-22h-182zM196 769l-25 24q103 103 146 103q21 0 56 -24t60 -24q41 0 87 46l25 -25q-107 -104 -150 -104q-21 0 -56 24q-33 24 -59 24q-42 0 -84 -44z" />
    <glyph glyph-name="Ograve" unicode="&#xd2;" horiz-adv-x="770" 
d="M136 89q-94 97 -94 261q0 165 94 260q94 97 249 97t249 -97q95 -97 95 -260t-95 -261q-94 -96 -249 -96t-249 96zM209 350q0 -148 47 -226.5t130 -78.5q81 0 128 78.5t47 226.5q0 149 -47 227t-128 78q-83 0 -130 -78t-47 -227zM245 846l89 90l151 -167l-27 -27z" />
    <glyph glyph-name="Oacute" unicode="&#xd3;" horiz-adv-x="770" 
d="M136 89q-94 97 -94 261q0 165 94 260q94 97 249 97t249 -97q95 -97 95 -260t-95 -261q-94 -96 -249 -96t-249 96zM209 350q0 -148 47 -226.5t130 -78.5q81 0 128 78.5t47 226.5q0 149 -47 227t-128 78q-83 0 -130 -78t-47 -227zM312 742l-27 27l150 167l90 -90z" />
    <glyph glyph-name="Ocircumflex" unicode="&#xd4;" horiz-adv-x="770" 
d="M136 89q-94 97 -94 261q0 165 94 260q94 97 249 97t249 -97q95 -97 95 -260t-95 -261q-94 -96 -249 -96t-249 96zM209 350q0 -148 47 -226.5t130 -78.5q81 0 128 78.5t47 226.5q0 149 -47 227t-128 78q-83 0 -130 -78t-47 -227zM228 769l149 167h16l149 -167l-27 -27
l-130 79l-130 -79z" />
    <glyph glyph-name="Otilde" unicode="&#xd5;" horiz-adv-x="770" 
d="M136 89q-94 97 -94 261q0 165 94 260q94 97 249 97t249 -97q95 -97 95 -260t-95 -261q-94 -96 -249 -96t-249 96zM209 350q0 -148 47 -226.5t130 -78.5q81 0 128 78.5t47 226.5q0 149 -47 227t-128 78q-83 0 -130 -78t-47 -227zM225 769l-25 24q103 103 146 103
q22 0 56 -24q35 -24 59 -24q42 0 88 46l24 -25q-104 -104 -149 -104q-22 0 -56 24q-33 24 -59 24q-42 0 -84 -44z" />
    <glyph glyph-name="Odieresis" unicode="&#xd6;" horiz-adv-x="770" 
d="M136 89q-94 97 -94 261q0 165 94 260q94 97 249 97t249 -97q95 -97 95 -260t-95 -261q-94 -96 -249 -96t-249 96zM209 350q0 -148 47 -226.5t130 -78.5q81 0 128 78.5t47 226.5q0 149 -47 227t-128 78q-83 0 -130 -78t-47 -227zM220 783q-21 21 -21 54t21 53q21 21 54 21
t53 -21q21 -20 21 -53t-21 -54q-20 -21 -53 -21t-54 21zM443 783q-21 21 -21 54t21 53q21 21 54 21t53 -21q21 -20 21 -53t-21 -54q-20 -21 -53 -21t-54 21z" />
    <glyph glyph-name="multiply" unicode="&#xd7;" horiz-adv-x="453" 
d="M188 300l-145 145l38 39l145 -145l146 145l38 -39l-145 -145l146 -146l-38 -38l-147 146l-146 -146l-38 38z" />
    <glyph glyph-name="Oslash" unicode="&#xd8;" horiz-adv-x="770" 
d="M161 67l-60 -67h-59l87 97q-87 95 -87 253q0 165 94 260q94 97 249 97q133 0 224 -75l61 68h59l-88 -98q88 -95 88 -252q0 -163 -95 -261q-94 -96 -249 -96q-135 0 -224 74zM209 350q0 -83 16 -146l305 340q-46 111 -144 111q-83 0 -130 -78t-47 -227zM561 350
q0 82 -16 145l-305 -340q45 -110 146 -110q81 0 128 78.5t47 226.5z" />
    <glyph glyph-name="Ugrave" unicode="&#xd9;" horiz-adv-x="743" 
d="M720 678l-65 -29v-385q0 -125 -79 -198q-77 -73 -205 -73t-205 73q-78 74 -78 198v370l-65 26v40h290v-40l-65 -29v-367q0 -94 48 -144t133 -50t133.5 50t48.5 144v388l-65 26v22h174v-22zM246 846l90 90l150 -167l-27 -27z" />
    <glyph glyph-name="Uacute" unicode="&#xda;" horiz-adv-x="743" 
d="M720 678l-65 -29v-385q0 -125 -79 -198q-77 -73 -205 -73t-205 73q-78 74 -78 198v370l-65 26v40h290v-40l-65 -29v-367q0 -94 48 -144t133 -50t133.5 50t48.5 144v388l-65 26v22h174v-22zM313 742l-27 27l150 167l90 -90z" />
    <glyph glyph-name="Ucircumflex" unicode="&#xdb;" horiz-adv-x="743" 
d="M720 678l-65 -29v-385q0 -125 -79 -198q-77 -73 -205 -73t-205 73q-78 74 -78 198v370l-65 26v40h290v-40l-65 -29v-367q0 -94 48 -144t133 -50t133.5 50t48.5 144v388l-65 26v22h174v-22zM229 769l149 167h16l149 -167l-27 -27l-130 79l-130 -79z" />
    <glyph glyph-name="Udieresis" unicode="&#xdc;" horiz-adv-x="743" 
d="M720 678l-65 -29v-385q0 -125 -79 -198q-77 -73 -205 -73t-205 73q-78 74 -78 198v370l-65 26v40h290v-40l-65 -29v-367q0 -94 48 -144t133 -50t133.5 50t48.5 144v388l-65 26v22h174v-22zM221 783q-21 21 -21 54t21 53q21 21 54 21t53 -21q21 -20 21 -53t-21 -54
q-20 -21 -53 -21t-54 21zM444 783q-21 21 -21 54t21 53q21 21 54 21t53 -21q21 -20 21 -53t-21 -54q-20 -21 -53 -21t-54 21z" />
    <glyph glyph-name="Yacute" unicode="&#xdd;" horiz-adv-x="702" 
d="M304 660l-65 -22l162 -288l164 288l-72 22v40h203v-40l-70 -22l-201 -349v-224l65 -25v-40h-289v43l65 31v214l-198 350l-62 22v40h298v-40zM311 742l-27 27l151 167l89 -90z" />
    <glyph glyph-name="Thorn" unicode="&#xde;" horiz-adv-x="649" 
d="M313 660l-65 -29v-71h87q123 0 197 -55q75 -55 75 -148t-75 -148q-74 -55 -197 -55h-39l-17 17v35h39q121 0 121 151t-121 151h-70v-438l95 -30v-40h-320v43l65 31v560l-65 26v40h290v-40z" />
    <glyph glyph-name="germandbls" unicode="&#xdf;" horiz-adv-x="709" 
d="M342 3l-13 13v121h54q23 -90 93 -90q30 0 49 15t19 46q0 24 -16.5 39t-62.5 34q-37 16 -58 27q-18 10 -41 29q-41 33 -41 104q0 72 44 133q45 61 45 131q0 101 -91 101q-46 0 -67 -31.5t-21 -107.5v-505l60 -22v-40h-272v43l60 27v338h-60v43l60 17v97q0 190 253 190
q202 0 202 -120q0 -46 -46 -120q-45 -73 -45 -123q0 -32 14.5 -47t58.5 -33q23 -10 49 -23q19 -9 40 -23q34 -21 47.5 -48t17.5 -76q0 -147 -191 -147q-68 0 -125 23z" />
    <glyph glyph-name="agrave" unicode="&#xe0;" horiz-adv-x="544" 
d="M311 46l-3 4q-61 -55 -160 -55q-111 0 -111 105q-8 63 60 102q14 10 54 22l67 19l91 22v75q0 73 -73 73q-27 0 -63 -17v-51q0 -25 -17.5 -43t-42.5 -18t-43 17.5t-18 46.5q0 52 56 84.5t147 32.5q95 0 150.5 -35t55.5 -95v-263q0 -20 17 -20q16 0 26 12l16 -16
q-53 -51 -139 -51q-34 0 -50 11t-20 38zM309 95v120q-81 -21 -108 -38q-25 -16 -25 -61q0 -58 50 -58t83 37zM116 606l89 90l151 -167l-27 -27z" />
    <glyph glyph-name="aacute" unicode="&#xe1;" horiz-adv-x="544" 
d="M311 46l-3 4q-61 -55 -160 -55q-111 0 -111 105q-8 63 60 102q14 10 54 22l67 19l91 22v75q0 73 -73 73q-27 0 -63 -17v-51q0 -25 -17.5 -43t-42.5 -18t-43 17.5t-18 46.5q0 52 56 84.5t147 32.5q95 0 150.5 -35t55.5 -95v-263q0 -20 17 -20q16 0 26 12l16 -16
q-53 -51 -139 -51q-34 0 -50 11t-20 38zM309 95v120q-81 -21 -108 -38q-25 -16 -25 -61q0 -58 50 -58t83 37zM182 502l-27 27l151 167l89 -90z" />
    <glyph glyph-name="acircumflex" unicode="&#xe2;" horiz-adv-x="544" 
d="M311 46l-3 4q-61 -55 -160 -55q-111 0 -111 105q-8 63 60 102q14 10 54 22l67 19l91 22v75q0 73 -73 73q-27 0 -63 -17v-51q0 -25 -17.5 -43t-42.5 -18t-43 17.5t-18 46.5q0 52 56 84.5t147 32.5q95 0 150.5 -35t55.5 -95v-263q0 -20 17 -20q16 0 26 12l16 -16
q-53 -51 -139 -51q-34 0 -50 11t-20 38zM309 95v120q-81 -21 -108 -38q-25 -16 -25 -61q0 -58 50 -58t83 37zM99 529l149 167h16l149 -167l-27 -27l-130 79l-130 -79z" />
    <glyph glyph-name="atilde" unicode="&#xe3;" horiz-adv-x="544" 
d="M311 46l-3 4q-61 -55 -160 -55q-111 0 -111 105q-8 63 60 102q14 10 54 22l67 19l91 22v75q0 73 -73 73q-27 0 -63 -17v-51q0 -25 -17.5 -43t-42.5 -18t-43 17.5t-18 46.5q0 52 56 84.5t147 32.5q95 0 150.5 -35t55.5 -95v-263q0 -20 17 -20q16 0 26 12l16 -16
q-53 -51 -139 -51q-34 0 -50 11t-20 38zM309 95v120q-81 -21 -108 -38q-25 -16 -25 -61q0 -58 50 -58t83 37zM95 529l-25 24q103 103 146 103q22 0 56 -24t59 -24q42 0 88 46l24 -25q-104 -104 -149 -104q-22 0 -56 24q-33 24 -59 24q-42 0 -84 -44z" />
    <glyph glyph-name="adieresis" unicode="&#xe4;" horiz-adv-x="544" 
d="M313 46l-3 4q-62 -55 -160 -55q-112 0 -112 105q-8 63 60 102q14 10 54 22l67 19l91 22v75q0 73 -72 73q-27 0 -63 -17v-51q0 -25 -17.5 -43t-42.5 -18t-43 17.5t-18 46.5q0 53 56 85t147 32q94 0 150 -36t56 -94v-263q0 -20 16 -20q15 0 27 12l15 -16q-53 -51 -138 -51
q-33 0 -49.5 11t-20.5 38zM310 95v120q-81 -21 -108 -38q-25 -16 -25 -61q0 -58 51 -58q49 0 82 37zM90 543q-21 21 -21 54t21 53q21 21 54 21t53 -21q21 -20 21 -53t-21 -54q-20 -21 -53 -21t-54 21zM313 543q-20 22 -20 54q0 33 20 53q21 21 54 21t53 -21q21 -20 21 -53
t-21 -54q-20 -21 -53 -21t-54 21z" />
    <glyph glyph-name="aring" unicode="&#xe5;" horiz-adv-x="544" 
d="M311 46l-3 4q-61 -55 -160 -55q-111 0 -111 105q-8 63 60 102q14 10 54 22l67 19l91 22v75q0 73 -73 73q-27 0 -63 -17v-51q0 -25 -17.5 -43t-42.5 -18t-43 17.5t-18 46.5q0 52 56 84.5t147 32.5q95 0 150.5 -35t55.5 -95v-263q0 -20 17 -20q16 0 26 12l16 -16
q-53 -51 -139 -51q-34 0 -50 11t-20 38zM309 95v120q-81 -21 -108 -38q-25 -16 -25 -61q0 -58 50 -58t83 37zM255 669q40 0 64.5 -22.5t24.5 -61.5t-24.5 -61.5t-64.5 -22.5t-63.5 22.5t-23.5 61.5t24 61.5t63 22.5zM255 537q33 0 33 48t-33 48q-21 3 -29.5 -22.5t0 -51
t29.5 -22.5z" />
    <glyph glyph-name="ae" unicode="&#xe6;" horiz-adv-x="745" 
d="M307 50q-59 -55 -159 -55q-111 0 -111 105q0 42 15 62q2 2 6 8t5.5 7.5t5.5 6t7.5 7t9.5 6t13 6.5q25 12 35 15q14 6 48 15q33 10 56 15q28 8 69 17v75q0 73 -71 73q-27 0 -63 -17v-51q0 -25 -17.5 -43t-42.5 -18t-43 17.5t-18 46.5q0 52 56 84.5t147 32.5q75 0 125 -29
q56 29 121 29q92 0 148 -49q58 -49 58 -125q0 -23 -5 -40l-17 -17l-238 -10v-123q29 -42 98 -42q82 0 125 43l32 -32q-76 -75 -192 -75q-133 0 -203 55zM309 95v120q-81 -21 -108 -38q-25 -16 -25 -61q0 -58 50 -58t83 37zM447 335v-63l134 19q0 58 -20.5 90t-54.5 32
q-40 0 -65 -43q6 -18 6 -35z" />
    <glyph glyph-name="ccedilla" unicode="&#xe7;" horiz-adv-x="516" 
d="M201 -114l56 110q-103 5 -163.5 68t-60.5 167q0 109 67 171.5t184 62.5q86 0 139 -32.5t53 -87.5q0 -31 -17.5 -49t-42.5 -18t-43 18t-18 43v59q-27 15 -61 15q-107 0 -107 -169q0 -96 33 -140.5t100 -44.5q79 0 122 43l32 -32q-71 -68 -178 -74l-18 -35q35 0 57 -13.5
t22 -37.5q0 -23 -25 -55t-84 -91l-14 16q48 48 48 73q0 33 -81 33z" />
    <glyph glyph-name="egrave" unicode="&#xe8;" horiz-adv-x="517" 
d="M475 251l-17 -17h-271q1 -94 32.5 -134.5t98.5 -40.5q82 0 124 43l32 -32q-75 -75 -196 -75q-112 0 -179 64q-66 65 -66 171q0 110 68 172q69 63 172 63q93 0 149 -49q57 -50 57 -125q0 -25 -4 -40zM279 413q-36 0 -62 -37.5t-30 -94.5l167 10q0 58 -20.5 90t-54.5 32z
M135 606l90 90l150 -167l-27 -27z" />
    <glyph glyph-name="eacute" unicode="&#xe9;" horiz-adv-x="517" 
d="M475 251l-17 -17h-271q1 -94 32.5 -134.5t98.5 -40.5q82 0 124 43l32 -32q-75 -75 -196 -75q-112 0 -179 64q-66 65 -66 171q0 110 68 172q69 63 172 63q93 0 149 -49q57 -50 57 -125q0 -25 -4 -40zM279 413q-36 0 -62 -37.5t-30 -94.5l167 10q0 58 -20.5 90t-54.5 32z
M200 502l-27 27l151 167l89 -90z" />
    <glyph glyph-name="ecircumflex" unicode="&#xea;" horiz-adv-x="517" 
d="M475 251l-17 -17h-271q1 -94 32.5 -134.5t98.5 -40.5q82 0 124 43l32 -32q-75 -75 -196 -75q-112 0 -179 64q-66 65 -66 171q0 110 68 172q69 63 172 63q93 0 149 -49q57 -50 57 -125q0 -25 -4 -40zM279 413q-36 0 -62 -37.5t-30 -94.5l167 10q0 58 -20.5 90t-54.5 32z
M117 529l148 167h17l149 -167l-27 -27l-131 79l-129 -79z" />
    <glyph glyph-name="edieresis" unicode="&#xeb;" horiz-adv-x="517" 
d="M474 251l-17 -17h-271q1 -94 33 -134.5t99 -40.5q81 0 124 43l32 -32q-75 -75 -196 -75q-112 0 -179 64t-67 171q0 109 69 172t172 63q93 0 149 -49q57 -50 57 -125q0 -23 -5 -40zM279 413q-36 0 -62 -37t-31 -95l167 10q0 58 -20 90t-54 32zM98 543q-21 21 -21 54t21 53
q21 21 54 21t53 -21q21 -20 21 -53t-21 -54q-20 -21 -53 -21t-54 21zM321 543q-21 21 -21 54t21 53q21 21 54 21t53 -21q21 -20 21 -53t-21 -54q-20 -21 -53 -21t-54 21z" />
    <glyph glyph-name="igrave" unicode="&#xec;" 
d="M295 0h-272v43l60 27v300l-51 25v48l186 26l17 -18v-389l60 -22v-40zM19 606l90 90l150 -167l-27 -27z" />
    <glyph glyph-name="iacute" unicode="&#xed;" 
d="M86 502l-27 27l150 167l90 -90zM295 0h-272v43l60 27v300l-51 25v48l186 26l17 -18v-389l60 -22v-40z" />
    <glyph glyph-name="icircumflex" unicode="&#xee;" 
d="M295 0h-272v43l60 27v300l-51 25v48l186 26l17 -18v-389l60 -22v-40zM3 529l148 167h17l149 -167l-27 -27l-131 79l-130 -79z" />
    <glyph glyph-name="idieresis" unicode="&#xef;" 
d="M295 0h-272v43l60 27v300l-51 25v48l186 26l17 -18v-389l60 -22v-40zM11 543q-21 21 -21 54t21 53q21 21 54 21t53 -21q21 -20 21 -53t-21 -54q-20 -21 -53 -21t-54 21zM249 671q32 0 53 -20.5t21 -53.5t-21 -54t-53 -21q-33 0 -54 21t-21 54t21 53.5t54 20.5z" />
    <glyph glyph-name="eth" unicode="&#xf0;" horiz-adv-x="553" 
d="M276 529l-38 38l69 69q-81 64 -223 91l31 31q147 -18 239 -75l75 75l38 -38l-70 -70q123 -108 123 -337q0 -164 -59.5 -241t-178.5 -77q-114 0 -179.5 63t-65.5 173q0 108 63.5 171t171.5 63q90 0 138 -54h4q0 113 -67 189zM368 230q0 90 -23.5 136.5t-65.5 46.5
q-41 0 -64.5 -46.5t-23.5 -136.5q0 -89 23.5 -135.5t64.5 -46.5q42 0 65.5 46.5t23.5 135.5z" />
    <glyph glyph-name="ntilde" unicode="&#xf1;" horiz-adv-x="636" 
d="M235 361v-299l53 -22v-40h-265v43l60 27v300l-51 25v48l186 26l17 -18l-2 -40l3 -3q29 26 75 41.5t87 15.5q74 0 114 -49t40 -120v-234l60 -22v-40h-265v43l53 27v216q0 54 -19.5 84.5t-53.5 30.5q-23 0 -49 -11t-43 -29zM157 529l-24 24q100 103 145 103q22 0 56 -24
t60 -24q18 0 43 13.5t44 32.5l25 -25q-107 -104 -149 -104q-21 0 -56 24t-60 24q-40 0 -84 -44z" />
    <glyph glyph-name="ograve" unicode="&#xf2;" horiz-adv-x="553" 
d="M100 58q-67 64 -67 172t67 171q67 64 177 64q109 0 176 -64q67 -63 67 -171t-67 -172q-67 -63 -176 -63t-177 63zM187 230q0 -89 23.5 -135.5t66.5 -46.5q42 0 66 46.5t24 135.5q0 90 -24 136.5t-66 46.5q-43 0 -66.5 -46t-23.5 -137zM136 606l90 90l150 -167l-27 -27z
" />
    <glyph glyph-name="oacute" unicode="&#xf3;" horiz-adv-x="553" 
d="M100 58q-67 64 -67 172t67 171q67 64 177 64q109 0 176 -64q67 -63 67 -171t-67 -172q-67 -63 -176 -63t-177 63zM187 230q0 -89 23.5 -135.5t66.5 -46.5q42 0 66 46.5t24 135.5q0 90 -24 136.5t-66 46.5q-43 0 -66.5 -46t-23.5 -137zM203 502l-27 27l151 167l89 -90z
" />
    <glyph glyph-name="ocircumflex" unicode="&#xf4;" horiz-adv-x="553" 
d="M100 58q-67 64 -67 172t67 171q67 64 177 64q109 0 176 -64q67 -63 67 -171t-67 -172q-67 -63 -176 -63t-177 63zM187 230q0 -89 23.5 -135.5t66.5 -46.5q42 0 66 46.5t24 135.5q0 90 -24 136.5t-66 46.5q-43 0 -66.5 -46t-23.5 -137zM119 529l149 167h17l148 -167
l-27 -27l-130 79l-130 -79z" />
    <glyph glyph-name="otilde" unicode="&#xf5;" horiz-adv-x="553" 
d="M100 58q-67 64 -67 172t67 171q67 64 177 64q109 0 176 -64q67 -63 67 -171t-67 -172q-67 -63 -176 -63t-177 63zM187 230q0 -89 23.5 -135.5t66.5 -46.5q42 0 66 46.5t24 135.5q0 90 -24 136.5t-66 46.5q-43 0 -66.5 -46t-23.5 -137zM116 529l-25 24q103 103 146 103
q21 0 56 -24t60 -24q41 0 87 46l25 -25q-107 -104 -149 -104q-22 0 -56 24t-60 24q-40 0 -84 -44z" />
    <glyph glyph-name="odieresis" unicode="&#xf6;" horiz-adv-x="553" 
d="M100 58q-67 64 -67 172t67 171q67 64 177 64q109 0 176 -64q67 -63 67 -171t-67 -172q-67 -63 -176 -63t-177 63zM187 230q0 -89 23.5 -135.5t66.5 -46.5q42 0 66 46.5t24 135.5q0 90 -24 136.5t-66 46.5q-43 0 -66.5 -46t-23.5 -137zM111 543q-21 21 -21 54t21 53
q21 21 54 21t53 -21q21 -20 21 -53t-21 -54q-20 -21 -53 -21t-54 21zM334 543q-21 21 -21 54t21 53q21 21 54 21t53 -21q21 -20 21 -53t-21 -54q-20 -21 -53 -21t-54 21z" />
    <glyph glyph-name="divide" unicode="&#xf7;" horiz-adv-x="453" 
d="M417 239h-381v54h381v-54zM166 127q0 27 17 44.5t43 17.5q28 0 45 -17.5t17 -44.5q0 -26 -17 -43t-45 -17q-26 0 -43 17t-17 43zM166 405q0 26 17 43.5t43 17.5q28 0 45 -17t17 -44t-17 -44t-45 -17q-26 0 -43 17t-17 44z" />
    <glyph glyph-name="oslash" unicode="&#xf8;" horiz-adv-x="553" 
d="M126 37l-35 -37h-58l60 65q-60 63 -60 165q0 108 67 171q67 64 177 64q89 0 150 -43l35 38h58l-61 -65q61 -62 61 -165q0 -108 -67 -172q-67 -63 -176 -63q-89 0 -151 42zM367 230q0 39 -4 62l-162 -174q22 -70 76 -70q42 0 66 46.5t24 135.5zM187 230q0 -34 3 -61
l162 174q-22 70 -75 70q-43 0 -66.5 -46t-23.5 -137z" />
    <glyph glyph-name="ugrave" unicode="&#xf9;" horiz-adv-x="632" 
d="M549 451v-364l51 -31v-44l-186 -21l-18 18l3 47l-3 3q-29 -29 -76.5 -46.5t-93.5 -17.5q-67 0 -105 40t-38 101v234l-51 25v48l186 26l17 -18v-312q0 -38 17.5 -59t48.5 -21q24 0 51 13.5t44 36.5v261l-51 25v48l187 26zM177 606l89 90l151 -167l-27 -27z" />
    <glyph glyph-name="uacute" unicode="&#xfa;" horiz-adv-x="632" 
d="M549 451v-364l51 -31v-44l-186 -21l-18 18l3 47l-3 3q-29 -29 -76.5 -46.5t-93.5 -17.5q-67 0 -105 40t-38 101v234l-51 25v48l186 26l17 -18v-312q0 -38 17.5 -59t48.5 -21q24 0 51 13.5t44 36.5v261l-51 25v48l187 26zM241 502l-26 27l150 167l89 -90z" />
    <glyph glyph-name="ucircumflex" unicode="&#xfb;" horiz-adv-x="632" 
d="M549 451v-364l51 -31v-44l-186 -21l-18 18l3 47l-3 3q-29 -29 -76.5 -46.5t-93.5 -17.5q-67 0 -105 40t-38 101v234l-51 25v48l186 26l17 -18v-312q0 -38 17.5 -59t48.5 -21q24 0 51 13.5t44 36.5v261l-51 25v48l187 26zM160 529l148 167h17l149 -167l-27 -27l-131 79
l-130 -79z" />
    <glyph glyph-name="udieresis" unicode="&#xfc;" horiz-adv-x="632" 
d="M549 451v-364l51 -31v-44l-186 -21l-18 18l3 47l-3 3q-29 -29 -76.5 -46.5t-93.5 -17.5q-67 0 -105 40t-38 101v234l-51 25v48l186 26l17 -18v-312q0 -38 17.5 -59t48.5 -21q24 0 51 13.5t44 36.5v261l-51 25v48l187 26zM196 671q32 0 53 -20.5t21 -53.5t-21 -54t-53 -21
q-33 0 -54 21t-21 54t21 53.5t54 20.5zM365 543q-21 21 -21 54t21 53q21 21 54 21t53 -21q21 -20 21 -53t-21 -54q-20 -21 -53 -21t-54 21z" />
    <glyph glyph-name="yacute" unicode="&#xfd;" horiz-adv-x="576" 
d="M258 -6l-191 404l-60 22v40h272v-40l-58 -22l113 -243l116 243l-77 22v40h195v-40l-58 -22l-188 -398q-78 -164 -110 -207q-33 -47 -89 -47q-44 0 -70.5 22.5t-26.5 62.5q0 32 19 50.5t47 18.5t46.5 -16.5t18.5 -42.5v-23q2 -2 7 -2q13 0 32 37q22 42 62 141zM228 502
l-27 27l151 167l89 -90z" />
    <glyph glyph-name="thorn" unicode="&#xfe;" horiz-adv-x="589" 
d="M329 -250h-306v43l60 27v839l-51 26v48l186 25l17 -17v-281l-2 -47l3 -3q52 55 142 55q84 0 131 -65t47 -164q0 -114 -62 -177.5t-173 -63.5q-49 0 -86 15v-194l94 -26v-40zM235 364v-298q28 -22 69 -22q98 0 98 183q0 174 -88 174q-48 0 -79 -37z" />
    <glyph glyph-name="ydieresis" unicode="&#xff;" horiz-adv-x="576" 
d="M258 -6l-191 404l-60 22v40h272v-40l-58 -22l113 -243l116 243l-77 22v40h195v-40l-58 -22l-188 -398q-78 -164 -110 -207q-33 -47 -89 -47q-44 0 -70.5 22.5t-26.5 62.5q0 32 19 50.5t47 18.5t46.5 -16.5t18.5 -42.5v-23q2 -2 7 -2q13 0 32 37q22 42 62 141zM125 543
q-21 21 -21 54t21 53q21 21 54 21t53 -21q21 -20 21 -53t-21 -54q-20 -21 -53 -21t-54 21zM348 543q-21 21 -21 54t21 53q21 21 54 21t53 -21q21 -20 21 -53t-21 -54q-20 -21 -53 -21t-54 21z" />
    <glyph glyph-name="Amacron" unicode="&#x100;" horiz-adv-x="774" 
d="M352 700h71l280 -635l65 -25v-40h-289v40l63 25l-63 149h-287l-65 -149l81 -25v-40h-202v40l63 25zM456 266l-119 279l-122 -279h241zM525 791h-277v60h277v-60z" />
    <glyph glyph-name="amacron" unicode="&#x101;" horiz-adv-x="544" 
d="M311 46l-3 4q-61 -55 -160 -55q-111 0 -111 105q-8 63 60 102q14 10 54 22l67 19l91 22v75q0 73 -73 73q-27 0 -63 -17v-51q0 -25 -17.5 -43t-42.5 -18t-43 17.5t-18 46.5q0 52 56 84.5t147 32.5q95 0 150.5 -35t55.5 -95v-263q0 -20 17 -20q16 0 26 12l16 -16
q-53 -51 -139 -51q-34 0 -50 11t-20 38zM309 95v120q-81 -21 -108 -38q-25 -16 -25 -61q0 -58 50 -58t83 37zM391 551h-277v60h277v-60z" />
    <glyph glyph-name="Abreve" unicode="&#x102;" horiz-adv-x="774" 
d="M352 700h71l280 -635l65 -25v-40h-289v40l63 25l-63 149h-287l-65 -149l81 -25v-40h-202v40l63 25zM456 266l-119 279l-122 -279h241zM437 869q0 25 17.5 43t42.5 18t43 -17t18 -46q0 -47 -50 -76q-49 -28 -122 -28q-74 0 -123 28t-49 76q0 29 18 46t43 17t42.5 -18
t17.5 -43q2 -37 16 -48.5t35 -10.5q20 -1 34 10.5t17 48.5z" />
    <glyph glyph-name="abreve" unicode="&#x103;" horiz-adv-x="544" 
d="M313 46l-3 4q-62 -55 -160 -55q-112 0 -112 105q-8 63 60 102q14 10 54 22l67 19l91 22v75q0 73 -72 73q-27 0 -63 -17v-51q0 -25 -17.5 -43t-42.5 -18t-43 17.5t-18 46.5q0 53 56 85t147 32q94 0 150 -36t56 -94v-263q0 -20 16 -20q15 0 27 12l15 -16q-53 -51 -138 -51
q-33 0 -49.5 11t-20.5 38zM310 95v120q-81 -21 -108 -38q-25 -16 -25 -61q0 -58 51 -58q49 0 82 37zM311 629q0 25 17.5 43t42.5 18t43 -17t18 -46q0 -47 -50 -76q-49 -28 -122 -28q-74 0 -123 28t-49 76q0 29 18 46t43 17q24 0 42 -18t18 -43q2 -37 16 -48.5t35 -10.5
q20 -1 34 10.5t17 48.5z" />
    <glyph glyph-name="Aogonek" unicode="&#x104;" horiz-adv-x="774" 
d="M754 -171l15 -15q-50 -50 -101 -50q-65 0 -65 65q0 77 80 171h-204v40l63 25l-63 149h-287l-65 -149l81 -25v-40h-202v40l63 25l283 635h71l280 -635l65 -25v-40h-46q-24 -35 -40.5 -80t-16.5 -73q0 -38 34 -38q32 0 55 20zM456 266l-119 279l-122 -279h241z" />
    <glyph glyph-name="aogonek" unicode="&#x105;" horiz-adv-x="544" 
d="M504 -151l16 -15q-50 -49 -101 -49q-65 0 -65 65q0 69 62 149q-30 -2 -35 -2q-34 0 -50 11t-20 38l-3 4q-61 -55 -160 -55q-111 0 -111 105q-8 63 60 102q14 10 54 22l67 19l91 22v75q0 73 -73 73q-27 0 -63 -17v-51q0 -25 -17.5 -43t-42.5 -18t-43 17.5t-18 46.5
q0 52 56 84.5t147 32.5q95 0 150.5 -35t55.5 -95v-263q0 -20 17 -20q16 0 26 12l16 -16q-25 -25 -52 -35q-23 -36 -38 -77.5t-15 -68.5q0 -38 35 -38q31 0 54 20zM309 95v120q-81 -21 -108 -38q-25 -16 -25 -61q0 -58 50 -58t83 37z" />
    <glyph glyph-name="Cacute" unicode="&#x106;" horiz-adv-x="701" 
d="M630 138l33 -34q-111 -111 -273 -111q-159 0 -254 95q-94 95 -94 258q0 166 96 263q96 98 255 98q103 0 182 -39l49 20l17 -17l17 -152h-54q-57 132 -190 132q-205 0 -205 -295q0 -293 228 -293q119 0 193 75zM324 742l-27 27l150 167l90 -90z" />
    <glyph glyph-name="cacute" unicode="&#x107;" horiz-adv-x="516" 
d="M355 339v59q-27 15 -61 15q-107 0 -107 -169q0 -96 33 -140.5t100 -44.5q79 0 122 43l32 -32q-76 -75 -198 -75q-110 0 -177 63q-66 63 -66 173q0 109 67 171.5t184 62.5q86 0 139 -32.5t53 -87.5q0 -31 -17.5 -49t-42.5 -18t-43 18t-18 43zM211 502l-26 27l150 167
l90 -90z" />
    <glyph glyph-name="Ccircumflex" unicode="&#x108;" horiz-adv-x="701" 
d="M630 138l33 -34q-111 -111 -273 -111q-159 0 -254 95q-94 95 -94 258q0 166 96 263q96 98 255 98q103 0 182 -39l49 20l17 -17l17 -152h-54q-57 132 -190 132q-205 0 -205 -295q0 -293 228 -293q119 0 193 75zM235 769l149 167h17l148 -167l-26 -27l-131 79l-130 -79z
" />
    <glyph glyph-name="ccircumflex" unicode="&#x109;" horiz-adv-x="516" 
d="M355 339v59q-27 15 -61 15q-107 0 -107 -169q0 -96 33 -140.5t100 -44.5q79 0 122 43l32 -32q-76 -75 -198 -75q-110 0 -177 63q-66 63 -66 173q0 109 67 171.5t184 62.5q86 0 139 -32.5t53 -87.5q0 -31 -17.5 -49t-42.5 -18t-43 18t-18 43zM128 529l148 167h17l149 -167
l-27 -27l-131 79l-129 -79z" />
    <glyph glyph-name="Cdotaccent" unicode="&#x10a;" horiz-adv-x="701" 
d="M630 138l33 -34q-111 -111 -273 -111q-159 0 -254 95q-94 95 -94 258q0 166 96 263q96 98 255 98q103 0 182 -39l49 20l17 -17l17 -152h-54q-57 132 -190 132q-205 0 -205 -295q0 -293 228 -293q119 0 193 75zM309 847q0 36 23 58t59 22t58.5 -22t22.5 -58
q0 -37 -22.5 -59.5t-58.5 -22.5t-59 22.5t-23 59.5z" />
    <glyph glyph-name="cdotaccent" unicode="&#x10b;" horiz-adv-x="516" 
d="M355 339v59q-27 15 -61 15q-107 0 -107 -169q0 -96 33 -140.5t100 -44.5q79 0 122 43l32 -32q-76 -75 -198 -75q-110 0 -177 63q-66 63 -66 173q0 109 67 171.5t184 62.5q86 0 139 -32.5t53 -87.5q0 -31 -17.5 -49t-42.5 -18t-43 18t-18 43zM200 607q0 36 23 58t59 22
t58.5 -22t22.5 -58q0 -37 -22.5 -59.5t-58.5 -22.5t-59 22.5t-23 59.5z" />
    <glyph glyph-name="Ccaron" unicode="&#x10c;" horiz-adv-x="701" 
d="M630 138l33 -34q-111 -111 -273 -111q-159 0 -254 95q-94 95 -94 258q0 166 96 263q96 98 255 98q103 0 182 -39l49 20l17 -17l17 -152h-54q-57 132 -190 132q-205 0 -205 -295q0 -293 228 -293q119 0 193 75zM549 909l-149 -167h-17l-148 167l27 27l129 -79l131 79z" />
    <glyph glyph-name="ccaron" unicode="&#x10d;" horiz-adv-x="516" 
d="M355 339v59q-27 15 -61 15q-107 0 -107 -169q0 -96 33 -140.5t100 -44.5q79 0 122 43l32 -32q-76 -75 -198 -75q-110 0 -177 63q-66 63 -66 173q0 109 67 171.5t184 62.5q86 0 139 -32.5t53 -87.5q0 -31 -17.5 -49t-42.5 -18t-43 18t-18 43zM441 669l-148 -167h-17
l-149 167l27 27l130 -79l131 79z" />
    <glyph glyph-name="Dcaron" unicode="&#x10e;" horiz-adv-x="749" 
d="M23 664v36h334q159 0 254 -94q96 -93 96 -256q0 -162 -96 -257q-96 -93 -254 -93h-334v36l65 21v586zM357 648h-109v-596h108q86 0 134.5 75.5t48.5 222.5q0 148 -48 223t-134 75zM521 909l-149 -167h-16l-149 167l27 27l130 -79l130 79z" />
    <glyph glyph-name="dcaron" unicode="&#x10f;" horiz-adv-x="681" 
d="M506 741v-654l51 -31v-44l-187 -21l-17 18l3 37l-3 4q-52 -55 -143 -55q-85 0 -131 64t-46 164q0 116 62 179t174 63q48 0 84 -16v219l-60 26v39l196 26zM353 96v295q-26 22 -69 22q-97 0 -97 -181q0 -173 88 -173q48 0 78 37zM588 564l-18 17q15 16 28.5 37.5t13.5 30.5
q0 4 -2 6q-33 -4 -46.5 30t9.5 57q17 13 38 14t37.5 -15t14.5 -43q0 -59 -75 -134z" />
    <glyph glyph-name="Dcroat" unicode="&#x110;" horiz-adv-x="749" 
d="M88 329h-65v35l65 17v262l-65 21v36h334q159 0 254 -94q96 -93 96 -256q0 -162 -96 -257q-96 -93 -254 -93h-334v36l65 21v272zM357 648h-109v-267h131v-52h-131v-277h108q86 0 134.5 75.5t48.5 222.5q0 148 -48 223t-134 75z" />
    <glyph glyph-name="dslash" unicode="&#x111;" horiz-adv-x="589" 
d="M353 554h-162v52h162v62l-60 26v39l196 26l17 -18v-135l51 -17v-35h-51v-467l51 -31v-44l-187 -21l-17 18l3 37l-3 4q-52 -55 -143 -55q-85 0 -131 64t-46 164q0 116 62 179t174 63q48 0 84 -16v105zM353 96v295q-26 22 -69 22q-97 0 -97 -181q0 -173 88 -173q48 0 78 37
z" />
    <glyph glyph-name="Emacron" unicode="&#x112;" horiz-adv-x="633" 
d="M248 332v-280h249l44 97h54l-13 -149h-559v36l65 21v586l-65 21v36h549l13 -149h-54l-44 97h-239v-264h178l22 76h50v-203h-50l-22 75h-178zM455 791h-277v60h277v-60z" />
    <glyph glyph-name="emacron" unicode="&#x113;" horiz-adv-x="517" 
d="M475 251l-17 -17h-271q1 -94 32.5 -134.5t98.5 -40.5q82 0 124 43l32 -32q-75 -75 -196 -75q-112 0 -179 64q-66 65 -66 171q0 110 68 172q69 63 172 63q93 0 149 -49q57 -50 57 -125q0 -25 -4 -40zM279 413q-36 0 -62 -37.5t-30 -94.5l167 10q0 58 -20.5 90t-54.5 32z
M411 551h-277v60h277v-60z" />
    <glyph glyph-name="Ebreve" unicode="&#x114;" horiz-adv-x="633" 
d="M248 332v-280h249l44 97h54l-13 -149h-559v36l65 21v586l-65 21v36h549l13 -149h-54l-44 97h-239v-264h178l22 76h50v-203h-50l-22 75h-178zM367 869q0 25 18 43t43 18q24 0 42 -17.5t18 -45.5q0 -47 -50 -76q-49 -28 -122 -28q-74 0 -123 28t-49 76q0 28 18.5 45.5
t42.5 17.5q25 0 42.5 -18t17.5 -43q2 -37 16 -48.5t35 -10.5q20 -1 34 10.5t17 48.5z" />
    <glyph glyph-name="ebreve" unicode="&#x115;" horiz-adv-x="517" 
d="M474 251l-17 -17h-271q1 -94 33 -134.5t99 -40.5q81 0 124 43l32 -32q-75 -75 -196 -75q-112 0 -179 64t-67 171q0 109 69 172t172 63q93 0 149 -49q57 -50 57 -125q0 -23 -5 -40zM279 413q-36 0 -62 -37t-31 -95l167 10q0 58 -20 90t-54 32zM324 629q0 25 18 43t43 18
q24 0 42 -17.5t18 -45.5q0 -47 -50 -76q-49 -28 -122 -28q-74 0 -123 28t-49 76q0 28 18.5 45.5t42.5 17.5q25 0 42.5 -18t17.5 -43q2 -37 16 -48.5t35 -10.5q20 -1 34 10.5t17 48.5z" />
    <glyph glyph-name="Edotaccent" unicode="&#x116;" horiz-adv-x="633" 
d="M248 332v-280h249l44 97h54l-13 -149h-559v36l65 21v586l-65 21v36h549l13 -149h-54l-44 97h-239v-264h178l22 76h50v-203h-50l-22 75h-178zM235 847q0 36 23 58t59 22t58.5 -22t22.5 -58q0 -37 -22.5 -59.5t-58.5 -22.5t-59 22.5t-23 59.5z" />
    <glyph glyph-name="edotaccent" unicode="&#x117;" horiz-adv-x="517" 
d="M474 251l-17 -17h-271q1 -94 33 -134.5t99 -40.5q81 0 124 43l32 -32q-75 -75 -196 -75q-112 0 -179 64t-67 171q0 109 69 172t172 63q93 0 149 -49q57 -50 57 -125q0 -23 -5 -40zM279 413q-36 0 -62 -37t-31 -95l167 10q0 58 -20 90t-54 32zM190 607q0 36 23 58t59 22
t58.5 -22t22.5 -58q0 -37 -22.5 -59.5t-58.5 -22.5t-59 22.5t-23 59.5z" />
    <glyph glyph-name="Eogonek" unicode="&#x118;" horiz-adv-x="633" 
d="M580 -171l15 -15q-50 -50 -101 -50q-64 0 -64 65q0 79 80 171h-487v36l65 21v586l-65 21v36h549l13 -149h-54l-44 97h-239v-264h178l22 76h50v-203h-50l-22 75h-178v-280h249l44 97h54l-13 -149h-34q-24 -35 -40.5 -80t-16.5 -73q0 -38 34 -38q32 0 55 20z" />
    <glyph glyph-name="eogonek" unicode="&#x119;" horiz-adv-x="517" 
d="M461 -134l15 -15q-50 -49 -101 -49q-65 0 -65 65q0 63 56 140q-46 -12 -88 -12q-112 0 -179 64q-66 65 -66 171q0 110 68 172q69 63 172 63q93 0 149 -49q57 -50 57 -125q0 -25 -4 -40l-17 -17h-271q1 -94 32.5 -134.5t98.5 -40.5q82 0 124 43l32 -32q-25 -25 -48 -37
q-23 -34 -38.5 -77t-15.5 -72q0 -38 34 -38q32 0 55 20zM279 413q-36 0 -62 -37.5t-30 -94.5l167 10q0 58 -20.5 90t-54.5 32z" />
    <glyph glyph-name="Ecaron" unicode="&#x11a;" horiz-adv-x="633" 
d="M248 332v-280h249l44 97h54l-13 -149h-559v36l65 21v586l-65 21v36h549l13 -149h-54l-44 97h-239v-264h178l22 76h50v-203h-50l-22 75h-178zM473 909l-148 -167h-17l-148 167l26 27l130 -79l131 79z" />
    <glyph glyph-name="ecaron" unicode="&#x11b;" horiz-adv-x="517" 
d="M475 251l-17 -17h-271q1 -94 32.5 -134.5t98.5 -40.5q82 0 124 43l32 -32q-75 -75 -196 -75q-112 0 -179 64q-66 65 -66 171q0 110 68 172q69 63 172 63q93 0 149 -49q57 -50 57 -125q0 -25 -4 -40zM279 413q-36 0 -62 -37.5t-30 -94.5l167 10q0 58 -20.5 90t-54.5 32z
M431 669l-148 -167h-17l-149 167l27 27l130 -79l131 79z" />
    <glyph glyph-name="Gcircumflex" unicode="&#x11c;" horiz-adv-x="746" 
d="M723 304l-65 -29v-247l-17 -18l-64 31q-81 -48 -189 -48q-158 0 -253 95q-93 96 -93 258q0 166 96 263q96 98 255 98q103 0 182 -39l49 20l17 -17l17 -152h-54q-57 132 -190 132q-205 0 -205 -295q0 -86 18 -149q19 -65 68.5 -104.5t122.5 -39.5q46 0 80 20v196l-65 25
v40h290v-40zM239 769l148 167h17l149 -167l-27 -27l-131 79l-129 -79z" />
    <glyph glyph-name="gcircumflex" unicode="&#x11d;" horiz-adv-x="576" 
d="M538 420l-54 -22h-30q33 -38 33 -89q0 -70 -61 -112q-61 -41 -158 -41q-64 0 -112 18q-15 -22 -15 -41q0 -39 52 -39h137q208 0 208 -159q0 -189 -300 -189q-214 0 -214 93q0 36 28 67.5t78 49.5q-78 22 -78 108q0 37 15 66t49 64q-66 41 -66 115q0 71 59.5 113t158.5 42
q24 0 55 -4h215v-40zM353 -52h-167q-26 -32 -26 -73q0 -78 111 -78q70 0 113 24.5t43 65.5q0 28 -18.5 44.5t-55.5 16.5zM112 529l148 167h17l149 -167l-27 -27l-131 79l-129 -79zM339 310q0 53 -19 81t-52 28q-31 0 -50 -28q-19 -26 -19 -81q0 -54 18 -81q19 -27 51 -27
q33 0 52 28t19 80z" />
    <glyph glyph-name="Gbreve" unicode="&#x11e;" horiz-adv-x="746" 
d="M723 304l-65 -29v-247l-17 -18l-64 31q-81 -48 -189 -48q-158 0 -253 95q-93 96 -93 258q0 166 96 263q96 98 255 98q103 0 182 -39l49 20l17 -17l17 -152h-54q-57 132 -190 132q-205 0 -205 -295q0 -86 18 -149q19 -65 68.5 -104.5t122.5 -39.5q46 0 80 20v196l-65 25
v40h290v-40zM442 869q0 25 18 43t43 18t42.5 -17t17.5 -46q0 -47 -50 -76q-49 -28 -122 -28t-122 28t-49 76q0 29 18 46t43 17q24 0 42 -18t18 -43q0 -20 5 -33t14 -18t15.5 -6.5t15.5 -1.5t16 1.5t16 6.5t14 18t5 33z" />
    <glyph glyph-name="gbreve" unicode="&#x11f;" horiz-adv-x="576" 
d="M538 420l-54 -22h-30q33 -38 33 -89q0 -70 -61 -112q-61 -41 -158 -41q-64 0 -112 18q-15 -22 -15 -41q0 -39 52 -39h137q208 0 208 -159q0 -189 -300 -189q-214 0 -214 93q0 36 28 67.5t78 49.5q-78 22 -78 108q0 37 15 66t49 64q-66 41 -66 115q0 71 59.5 113t158.5 42
q24 0 55 -4h215v-40zM320 629q0 25 17.5 43t42.5 18t43 -17t18 -46q0 -47 -50 -76q-49 -28 -122 -28q-74 0 -123 28t-49 76q0 29 18 46t43 17q24 0 42 -18t18 -43q2 -37 16 -48.5t35 -10.5q20 -1 34 10.5t17 48.5zM353 -52h-167q-26 -32 -26 -73q0 -78 111 -78
q70 0 113 24.5t43 65.5q0 28 -18.5 44.5t-55.5 16.5zM339 310q0 53 -19 81t-52 28q-31 0 -50 -28q-19 -26 -19 -81q0 -54 18 -81q19 -27 51 -27q33 0 52 28t19 80z" />
    <glyph glyph-name="Gdotaccent" unicode="&#x120;" horiz-adv-x="746" 
d="M723 304l-65 -29v-247l-17 -18l-64 31q-81 -48 -189 -48q-158 0 -253 95q-93 96 -93 258q0 166 96 263q96 98 255 98q103 0 182 -39l49 20l17 -17l17 -152h-54q-57 132 -190 132q-205 0 -205 -295q0 -86 18 -149q19 -65 68.5 -104.5t122.5 -39.5q46 0 80 20v196l-65 25
v40h290v-40zM310 847q0 36 23 58t59 22t58.5 -22t22.5 -58q0 -37 -22.5 -59.5t-58.5 -22.5t-59 22.5t-23 59.5z" />
    <glyph glyph-name="gdotaccent" unicode="&#x121;" horiz-adv-x="576" 
d="M538 420l-54 -22h-30q33 -38 33 -89q0 -70 -61 -112q-61 -41 -158 -41q-64 0 -112 18q-15 -22 -15 -41q0 -39 52 -39h137q208 0 208 -159q0 -189 -300 -189q-214 0 -214 93q0 36 28 67.5t78 49.5q-78 22 -78 108q0 37 15 66t49 64q-66 41 -66 115q0 71 59.5 113t158.5 42
q24 0 55 -4h215v-40zM353 -52h-167q-26 -32 -26 -73q0 -78 111 -78q70 0 113 24.5t43 65.5q0 28 -18.5 44.5t-55.5 16.5zM339 310q0 53 -19 81t-52 28q-31 0 -50 -28q-19 -26 -19 -81q0 -54 18 -81q19 -27 51 -27q33 0 52 28t19 80zM187 607q0 36 23 58t59 22t58.5 -22
t22.5 -58q0 -37 -22.5 -59.5t-58.5 -22.5t-59 22.5t-23 59.5z" />
    <glyph glyph-name="Gcommaaccent" unicode="&#x122;" horiz-adv-x="746" 
d="M723 304l-65 -29v-247l-17 -18l-64 31q-81 -48 -189 -48q-158 0 -253 95q-93 96 -93 258q0 166 96 263q96 98 255 98q103 0 182 -39l49 20l17 -17l17 -152h-54q-57 132 -190 132q-205 0 -205 -295q0 -86 18 -149q19 -65 68.5 -104.5t122.5 -39.5q46 0 80 20v196l-65 25
v40h290v-40zM365 -250l-18 18q16 16 28 36q14 23 14 32q0 4 -1 5q-23 0 -37.5 14t-14.5 36q-3 35 31.5 47t58.5 -10q17 -16 15 -43q0 -56 -76 -135z" />
    <glyph glyph-name="gcommaaccent" unicode="&#x123;" horiz-adv-x="576" 
d="M538 420l-54 -22h-30q33 -38 33 -89q0 -70 -61 -112q-61 -41 -158 -41q-64 0 -112 18q-15 -22 -15 -41q0 -39 52 -39h137q208 0 208 -159q0 -189 -300 -189q-214 0 -214 93q0 36 28 67.5t78 49.5q-78 22 -78 108q0 37 15 66t49 64q-66 41 -66 115q0 71 59.5 113t158.5 42
q24 0 55 -4h215v-40zM353 -52h-167q-26 -32 -26 -73q0 -78 111 -78q70 0 113 24.5t43 65.5q0 28 -18.5 44.5t-55.5 16.5zM339 310q0 53 -19 81t-52 28q-31 0 -50 -28q-19 -26 -19 -81q0 -54 18 -81q19 -27 51 -27q33 0 52 28t19 80zM290 699l18 -18q-16 -16 -28 -36
q-14 -22 -14 -31q0 -4 2 -6q33 4 46.5 -30t-10.5 -57q-16 -12 -37 -14t-37.5 14.5t-14.5 43.5q0 56 75 134z" />
    <glyph glyph-name="Hcircumflex" unicode="&#x124;" horiz-adv-x="788" 
d="M23 0v43l65 31v560l-65 26v40h290v-40l-65 -29v-252h292v255l-65 26v40h290v-40l-65 -29v-566l65 -25v-40h-290v43l65 31v253h-292v-262l65 -25v-40h-290zM236 769l149 167h16l149 -167l-27 -27l-130 79l-130 -79z" />
    <glyph glyph-name="hcircumflex" unicode="&#x125;" horiz-adv-x="636" 
d="M235 361v-299l53 -22v-40h-265v43l60 27v598l-60 26v39l195 26l17 -18v-281l-2 -49l3 -3q27 26 70 41.5t86 15.5q76 0 118 -49q42 -50 42 -120v-234l60 -22v-40h-265v43l53 27v216q0 55 -19 85t-53 30q-22 0 -48.5 -11t-44.5 -29zM160 805l149 166h17l148 -166l-26 -27
l-131 78l-130 -78z" />
    <glyph glyph-name="Hbar" unicode="&#x126;" horiz-adv-x="775" 
d="M88 485h-64v35l64 17v97l-65 26v40h290v-40l-65 -29v-94h279v97l-65 26v40h290v-40l-65 -29v-94l65 -17v-35h-65v-420l65 -25v-40h-290v43l65 31v253h-279v-262l65 -25v-40h-290v43l65 31v411zM248 485v-106h279v106h-279z" />
    <glyph glyph-name="hbar" unicode="&#x127;" horiz-adv-x="636" 
d="M23 586l60 17v65l-60 26v39l195 26l17 -18v-138h181v-52h-181v-91l-2 -49l3 -3q27 26 70 41.5t86 15.5q76 0 118 -49q42 -50 42 -120v-234l60 -22v-40h-265v43l53 27v216q0 55 -19 85t-53 30q-22 0 -48.5 -11t-44.5 -29v-299l53 -22v-40h-265v43l60 27v481h-60v35z" />
    <glyph glyph-name="Itilde" unicode="&#x128;" horiz-adv-x="336" 
d="M311 660l-65 -29v-566l65 -25v-40h-287v43l65 31v560l-65 26v40h287v-40zM7 769l-24 24q100 103 145 103q22 0 56 -24t60 -24q18 0 43 13.5t44 32.5l25 -25q-107 -104 -149 -104q-21 0 -56 24t-60 24q-40 0 -84 -44z" />
    <glyph glyph-name="itilde" unicode="&#x129;" 
d="M-1 529l-25 24q103 103 146 103q22 0 56 -24t59 -24q42 0 88 46l24 -25q-104 -104 -149 -104q-22 0 -56 24q-33 24 -59 24q-42 0 -84 -44zM295 0h-272v43l60 27v300l-51 25v48l186 26l17 -18v-389l60 -22v-40z" />
    <glyph glyph-name="Imacron" unicode="&#x12a;" horiz-adv-x="336" 
d="M311 660l-65 -29v-566l65 -25v-40h-287v43l65 31v560l-65 26v40h287v-40zM306 791h-277v60h277v-60z" />
    <glyph glyph-name="imacron" unicode="&#x12b;" 
d="M298 551h-277v60h277v-60zM295 0h-272v43l60 27v300l-51 25v48l186 26l17 -18v-389l60 -22v-40z" />
    <glyph glyph-name="Ibreve" unicode="&#x12c;" horiz-adv-x="336" 
d="M311 660l-65 -29v-566l65 -25v-40h-287v43l65 31v560l-65 26v40h287v-40zM219 869q0 25 17.5 43t42.5 18t43 -17t18 -46q0 -47 -50 -76q-49 -28 -122 -28q-74 0 -123 28t-49 76q0 29 18 46t43 17t42.5 -18t17.5 -43q2 -37 16 -48.5t35 -10.5q20 -1 34 10.5t17 48.5z" />
    <glyph glyph-name="ibreve" unicode="&#x12d;" 
d="M197 629q0 25 18 43t43 18q24 0 42 -17.5t18 -45.5q0 -47 -50 -76q-49 -28 -122 -28q-74 0 -123 28t-49 76q0 29 18 46t43 17t42.5 -18t17.5 -43q2 -37 16 -48.5t35 -10.5q20 -1 34 10.5t17 48.5zM295 0h-272v43l60 27v300l-51 25v48l186 26l17 -18v-389l60 -22v-40z" />
    <glyph glyph-name="Iogonek" unicode="&#x12e;" horiz-adv-x="336" 
d="M296 -171l15 -15q-50 -50 -101 -50q-64 0 -64 65q0 80 79 171h-201v43l65 31v560l-65 26v40h287v-40l-65 -29v-566l65 -25v-40h-47q-24 -35 -40.5 -80t-16.5 -73q0 -38 34 -38q32 0 55 20z" />
    <glyph glyph-name="iogonek" unicode="&#x12f;" 
d="M210 0h-187v43l60 27v300l-51 25v48l186 26l17 -18v-389l60 -22v-40h-46q-24 -36 -41 -80.5t-17 -72.5q0 -38 34 -38q32 0 55 20l15 -15q-50 -50 -100 -50q-65 0 -65 65q0 79 80 171zM65 606q0 39 24.5 63.5t63.5 24.5t63.5 -24.5t24.5 -63.5q0 -40 -24.5 -64t-63.5 -24
t-63.5 24t-24.5 64z" />
    <glyph glyph-name="Idot" unicode="&#x130;" horiz-adv-x="336" 
d="M311 660l-65 -29v-566l65 -25v-40h-287v43l65 31v560l-65 26v40h287v-40zM86 847q0 36 23 58t59 22t58.5 -22t22.5 -58q0 -37 -22.5 -59.5t-58.5 -22.5t-59 22.5t-23 59.5z" />
    <glyph glyph-name="dotlessi" unicode="&#x131;" 
d="M295 0h-272v43l60 27v300l-51 25v48l186 26l17 -18v-389l60 -22v-40z" />
    <glyph glyph-name="IJ" unicode="&#x132;" horiz-adv-x="668" 
d="M311 660l-65 -29v-566l65 -25v-40h-287v43l65 31v560l-65 26v40h287v-40zM423 0v634l-65 26v40h285v-40l-65 -29v-631q0 -79 -49.5 -145.5t-142.5 -113.5l-32 32q32 38 50.5 100.5t18.5 126.5z" />
    <glyph glyph-name="ij" unicode="&#x133;" horiz-adv-x="634" 
d="M295 0h-272v43l60 27v300l-51 25v48l186 26l17 -18v-389l60 -22v-40zM65 606q0 39 24.5 63.5t63.5 24.5t63.5 -24.5t24.5 -63.5q0 -40 -24.5 -64t-63.5 -24t-63.5 24t-24.5 64zM399 0v370l-52 25v48l187 26l17 -18v-451q0 -78 -48.5 -144.5t-138.5 -114.5l-32 32
q32 38 49.5 100t17.5 127zM380 606q0 39 24.5 63.5t64.5 24.5q39 0 63.5 -24.5t24.5 -63.5q0 -40 -24.5 -64t-63.5 -24q-40 0 -64.5 24t-24.5 64z" />
    <glyph glyph-name="Jcircumflex" unicode="&#x134;" horiz-adv-x="336" 
d="M90 0v634l-65 26v40h285v-40l-65 -29v-631q0 -79 -49.5 -145.5t-142.5 -113.5l-32 32q33 38 51 100t18 127zM11 769l149 167h16l149 -167l-27 -27l-130 79l-130 -79z" />
    <glyph glyph-name="jcircumflex" unicode="&#x135;" 
d="M83 0v370l-51 25v48l186 26l17 -18v-451q0 -78 -48.5 -145t-138.5 -114l-32 32q33 38 50 99t17 128zM3 529l148 167h17l149 -167l-27 -27l-131 79l-130 -79z" />
    <glyph glyph-name="Kcommaaccent" unicode="&#x136;" horiz-adv-x="716" 
d="M311 660l-65 -29v-276l273 279l-82 26v40h225v-40l-67 -26l-180 -186l227 -383l65 -25v-40h-207l-197 339l-57 -58v-216l65 -25v-40h-289v43l65 31v560l-65 26v40h289v-40zM335 -250l-18 18q16 16 28 36q14 23 14 32q0 3 -2 5q-23 0 -37 14t-14 36q-4 35 31 47
q34 12 58 -10q17 -16 15 -43q0 -55 -75 -135z" />
    <glyph glyph-name="kcommaaccent" unicode="&#x137;" horiz-adv-x="587" 
d="M580 0h-181l-121 205l-43 -40v-103l60 -22v-40h-272v43l60 27v598l-60 26v39l195 26l17 -18v-502l175 159l-77 22v40h213v-40l-59 -22l-104 -93l137 -244l60 -21v-40zM270 -250l-18 18q16 16 28 36q14 23 14 32q0 4 -1 5q-23 0 -37.5 14t-14.5 36q-3 35 31.5 47t58.5 -10
q17 -16 15 -43q0 -56 -76 -135z" />
    <glyph glyph-name="Lacute" unicode="&#x139;" horiz-adv-x="605" 
d="M248 631v-579h220l45 97h54l-14 -149h-530v36l65 21v577l-65 26v40h290v-40zM94 742l-27 27l151 167l89 -90z" />
    <glyph glyph-name="lacute" unicode="&#x13a;" 
d="M295 0h-272v43l60 27v598l-60 26v39l195 26l17 -18v-679l60 -22v-40zM86 771l-27 27l150 166l90 -90z" />
    <glyph glyph-name="Lcommaaccent" unicode="&#x13b;" horiz-adv-x="605" 
d="M248 631v-579h220l45 97h54l-14 -149h-530v36l65 21v577l-65 26v40h290v-40zM279 -250l-18 18q16 16 28 36q14 23 14 32q0 3 -2 5q-23 0 -37 14t-14 36q-4 35 31 47q34 12 58 -10q17 -16 15 -43q0 -55 -75 -135z" />
    <glyph glyph-name="lcommaaccent" unicode="&#x13c;" 
d="M295 0h-272v43l60 27v598l-60 26v39l195 26l17 -18v-679l60 -22v-40zM136 -250l-18 18q16 16 28 36q14 23 14 32q0 3 -2 5q-22 0 -36.5 14t-14.5 36q0 23 14.5 37t37.5 14t37.5 -15t14.5 -42q0 -55 -75 -135z" />
    <glyph glyph-name="Lcaron" unicode="&#x13d;" horiz-adv-x="605" 
d="M248 631v-579h220l45 97h54l-14 -149h-530v36l65 21v577l-65 26v40h290v-40zM326 903l-148 -166h-17l-149 166l27 27l130 -78l130 78z" />
    <glyph glyph-name="lcaron" unicode="&#x13e;" horiz-adv-x="408" 
d="M295 0h-272v43l60 27v598l-60 26v39l195 26l17 -18v-679l60 -22v-40zM315 564l-18 17q15 16 28.5 37.5t13.5 30.5q0 4 -2 6q-33 -4 -46.5 30t9.5 57q16 12 36.5 14t38 -14.5t15.5 -43.5q0 -56 -75 -134z" />
    <glyph glyph-name="Ldot" unicode="&#x13f;" horiz-adv-x="605" 
d="M248 631v-579h220l45 97h54l-14 -149h-530v36l65 21v577l-65 26v40h290v-40zM400 349q0 31 19.5 51t49.5 20q31 0 51 -20t20 -51q0 -30 -20 -49.5t-51 -19.5q-30 0 -49.5 19.5t-19.5 49.5z" />
    <glyph glyph-name="ldot" unicode="&#x140;" horiz-adv-x="477" 
d="M295 0h-272v43l60 27v598l-60 26v39l195 26l17 -18v-679l60 -22v-40zM323 299q0 31 19.5 51t49.5 20q32 0 51.5 -20t19.5 -51q0 -30 -20 -49.5t-51 -19.5q-30 0 -49.5 19.5t-19.5 49.5z" />
    <glyph glyph-name="Lslash" unicode="&#x141;" horiz-adv-x="605" 
d="M88 207l-41 -41l-37 37l78 78v353l-65 26v40h290v-40l-65 -29v-229l97 97l36 -37l-133 -134v-276h220l45 97h54l-14 -149h-530v36l65 21v150z" />
    <glyph glyph-name="lslash" unicode="&#x142;" 
d="M83 219l-36 -36l-37 37l73 72v376l-60 26v39l195 26l17 -18v-327l37 36l36 -37l-73 -73v-278l60 -22v-40h-272v43l60 27v149z" />
    <glyph glyph-name="Nacute" unicode="&#x143;" horiz-adv-x="713" 
d="M23 0v26l65 30v578l-65 26v40h216l334 -474v426l-65 26v22h182v-22l-65 -29v-649h-73l-412 587v-539l65 -26v-22h-182zM283 742l-27 27l150 167l90 -90z" />
    <glyph glyph-name="nacute" unicode="&#x144;" horiz-adv-x="636" 
d="M235 361v-299l53 -22v-40h-265v43l60 27v300l-51 25v48l186 26l17 -18l-2 -40l3 -3q29 26 75 41.5t87 15.5q74 0 114 -49t40 -120v-234l60 -22v-40h-265v43l53 27v216q0 54 -19.5 84.5t-53.5 30.5q-23 0 -49 -11t-43 -29zM244 502l-27 27l151 167l89 -90z" />
    <glyph glyph-name="Ncommaaccent" unicode="&#x145;" horiz-adv-x="713" 
d="M23 0v26l65 30v578l-65 26v40h216l334 -474v426l-65 26v22h182v-22l-65 -29v-649h-73l-412 587v-539l65 -26v-22h-182zM333 -250l-18 18q16 16 28 36q14 23 14 32q0 4 -1 5q-23 0 -37.5 14t-14.5 36q-3 35 31.5 47t58.5 -10q17 -16 15 -43q0 -56 -76 -135z" />
    <glyph glyph-name="ncommaaccent" unicode="&#x146;" horiz-adv-x="636" 
d="M235 361v-299l53 -22v-40h-265v43l60 27v300l-51 25v48l186 26l17 -18l-2 -40l3 -3q29 26 75 41.5t87 15.5q74 0 114 -49t40 -120v-234l60 -22v-40h-265v43l53 27v216q0 54 -19.5 84.5t-53.5 30.5q-23 0 -49 -11t-43 -29zM295 -250l-18 18q16 16 28 36q14 23 14 32
q0 3 -2 5q-22 0 -36.5 14t-14.5 36q-4 35 31 47q34 12 58 -10q17 -16 15 -43q0 -55 -75 -135z" />
    <glyph glyph-name="Ncaron" unicode="&#x147;" horiz-adv-x="713" 
d="M23 0v26l65 30v578l-65 26v40h216l334 -474v426l-65 26v22h182v-22l-65 -29v-649h-73l-412 587v-539l65 -26v-22h-182zM513 909l-149 -167h-16l-149 167l27 27l130 -79l130 79z" />
    <glyph glyph-name="ncaron" unicode="&#x148;" horiz-adv-x="636" 
d="M235 361v-299l53 -22v-40h-265v43l60 27v300l-51 25v48l186 26l17 -18l-2 -40l3 -3q29 26 75 41.5t87 15.5q74 0 114 -49t40 -120v-234l60 -22v-40h-265v43l53 27v216q0 54 -19.5 84.5t-53.5 30.5q-23 0 -49 -11t-43 -29zM474 669l-148 -167h-17l-149 167l27 27l130 -79
l131 79z" />
    <glyph glyph-name="Eng" unicode="&#x14a;" horiz-adv-x="713" 
d="M23 0v26l65 30v578l-65 26v40h222l328 -580v532l-65 26v22h182v-22l-65 -29v-649q0 -78 -50.5 -144.5t-144.5 -114.5l-31 32q32 38 49 99.5t17 127.5v13l-325 574v-539l65 -26v-22h-182z" />
    <glyph glyph-name="eng" unicode="&#x14b;" horiz-adv-x="636" 
d="M400 0v286q0 54 -19.5 84.5t-53.5 30.5q-23 0 -49 -11t-43 -29v-299l60 -22v-40h-272v43l60 27v300l-51 25v48l186 26l17 -18l-2 -40l3 -3q29 26 75 41.5t87 15.5q74 0 114 -49t40 -120v-296q0 -78 -48.5 -144.5t-138.5 -114.5l-32 32q33 38 50 99t17 128z" />
    <glyph glyph-name="Omacron" unicode="&#x14c;" horiz-adv-x="770" 
d="M136 89q-94 97 -94 261q0 165 94 260q94 97 249 97t249 -97q95 -97 95 -260t-95 -261q-94 -96 -249 -96t-249 96zM209 350q0 -148 47 -226.5t130 -78.5q81 0 128 78.5t47 226.5q0 149 -47 227t-128 78q-83 0 -130 -78t-47 -227zM524 791h-277v60h277v-60z" />
    <glyph glyph-name="omacron" unicode="&#x14d;" horiz-adv-x="553" 
d="M100 58q-67 64 -67 172t67 171q67 64 177 64q109 0 176 -64q67 -63 67 -171t-67 -172q-67 -63 -176 -63t-177 63zM187 230q0 -89 23.5 -135.5t66.5 -46.5q42 0 66 46.5t24 135.5q0 90 -24 136.5t-66 46.5q-43 0 -66.5 -46t-23.5 -137zM415 551h-277v60h277v-60z" />
    <glyph glyph-name="Obreve" unicode="&#x14e;" horiz-adv-x="770" 
d="M136 89q-94 97 -94 261q0 165 94 260q94 97 249 97t249 -97q95 -97 95 -260t-95 -261q-94 -96 -249 -96t-249 96zM209 350q0 -148 47 -226.5t130 -78.5q81 0 128 78.5t47 226.5q0 149 -47 227t-128 78q-83 0 -130 -78t-47 -227zM436 869q0 25 18 43t43 18t42.5 -17
t17.5 -46q0 -47 -50 -76q-49 -28 -122 -28q-74 0 -123 28t-49 76q0 28 18.5 45.5t42.5 17.5q25 0 42.5 -18t17.5 -43q2 -37 16 -48.5t35 -10.5q20 -1 34 10.5t17 48.5z" />
    <glyph glyph-name="obreve" unicode="&#x14f;" horiz-adv-x="553" 
d="M100 58q-67 64 -67 172t67 171q67 64 177 64q109 0 176 -64q67 -63 67 -171t-67 -172q-67 -63 -176 -63t-177 63zM187 230q0 -89 23.5 -135.5t66.5 -46.5q42 0 66 46.5t24 135.5q0 90 -24 136.5t-66 46.5q-43 0 -66.5 -46t-23.5 -137zM328 629q0 25 17.5 43t42.5 18
t43 -17t18 -46q0 -47 -50 -76q-49 -28 -122 -28q-74 0 -123 28t-49 76q0 29 18 46t43 17q24 0 42 -18t18 -43q2 -37 16 -48.5t35 -10.5q20 -1 34 10.5t17 48.5z" />
    <glyph glyph-name="Ohungarumlaut" unicode="&#x150;" horiz-adv-x="770" 
d="M136 89q-94 97 -94 261q0 165 94 260q94 97 249 97t249 -97q95 -97 95 -260t-95 -261q-94 -96 -249 -96t-249 96zM209 350q0 -148 47 -226.5t130 -78.5q81 0 128 78.5t47 226.5q0 149 -47 227t-128 78q-83 0 -130 -78t-47 -227zM214 742l-27 27l129 167l90 -90zM411 742
l-27 27l129 167l90 -90z" />
    <glyph glyph-name="ohungarumlaut" unicode="&#x151;" horiz-adv-x="553" 
d="M100 58q-67 64 -67 172t67 171q67 64 177 64q109 0 176 -64q67 -63 67 -171t-67 -172q-67 -63 -176 -63t-177 63zM187 230q0 -89 23.5 -135.5t66.5 -46.5q42 0 66 46.5t24 135.5q0 90 -24 136.5t-66 46.5q-43 0 -66.5 -46t-23.5 -137zM106 502l-27 27l129 167l89 -90z
M302 502l-26 27l129 167l89 -90z" />
    <glyph glyph-name="OE" unicode="&#x152;" horiz-adv-x="990" 
d="M616 332v-280h238l44 97h54l-13 -149h-476q-39 -7 -78 -7q-155 0 -249 96q-94 97 -94 261q0 165 94 260q94 97 249 97q37 0 78 -7h466l13 -149h-54l-44 97h-228v-264h167l22 76h50v-203h-50l-22 75h-167zM386 45q39 0 71 21v568q-33 21 -71 21q-83 0 -130 -78t-47 -227
q0 -148 47 -226.5t130 -78.5z" />
    <glyph glyph-name="oe" unicode="&#x153;" horiz-adv-x="840" 
d="M797 251l-17 -17h-271q1 -94 32.5 -134.5t99.5 -40.5q81 0 124 43l31 -32q-75 -75 -196 -75q-103 0 -162 58q-62 -58 -161 -58q-109 0 -177 63q-67 64 -67 172t67 171q67 64 177 64q99 0 161 -59q62 59 158 59q92 0 148 -49q58 -49 58 -125q0 -23 -5 -40zM277 48
q70 0 86 115q-8 37 -8 67q0 32 8 66q-17 117 -86 117q-43 0 -66.5 -46t-23.5 -137q0 -89 23.5 -135.5t66.5 -46.5zM601 413q-36 0 -61.5 -37t-30.5 -95l167 10q0 58 -20.5 90t-54.5 32z" />
    <glyph glyph-name="Racute" unicode="&#x154;" horiz-adv-x="693" 
d="M614 505q0 -67 -43 -114t-120 -65q45 -22 82 -97l86 -164l65 -25v-40h-203l-164 312h-69v-247l65 -25v-40h-290v43l65 31v569l-65 21v36h324q119 0 193 -53t74 -142zM330 648h-82v-284h82q55 0 85.5 35.5t30.5 106.5t-30.5 106.5t-85.5 35.5zM273 742l-27 27l151 167
l89 -90z" />
    <glyph glyph-name="racute" unicode="&#x155;" horiz-adv-x="482" 
d="M23 43l60 27v300l-51 25v48l186 26l17 -20l-2 -66l3 -3q1 1 2.5 4.5t5.5 10t11 14.5q45 56 102 56q44 0 74 -31.5t30 -77.5q0 -34 -17 -51.5t-43 -17.5q-25 0 -43 17.5t-18 42.5v61q-8 5 -16 5q-22 0 -45 -26q-22 -25 -33 -52l-11 -26v-243l94 -26v-40h-306v43zM188 502
l-27 27l150 167l90 -90z" />
    <glyph glyph-name="Rcommaaccent" unicode="&#x156;" horiz-adv-x="693" 
d="M614 505q0 -67 -43 -114t-120 -65q45 -22 82 -97l86 -164l65 -25v-40h-203l-164 312h-69v-247l65 -25v-40h-290v43l65 31v569l-65 21v36h324q119 0 193 -53t74 -142zM330 648h-82v-284h82q55 0 85.5 35.5t30.5 106.5t-30.5 106.5t-85.5 35.5zM323 -250l-18 18
q16 16 28 36q14 23 14 32q0 3 -2 5q-23 0 -37 14t-14 36q-4 35 31 47q34 12 58 -10q17 -16 15 -43q0 -55 -75 -135z" />
    <glyph glyph-name="rcommaaccent" unicode="&#x157;" horiz-adv-x="482" 
d="M23 43l60 27v300l-51 25v48l186 26l17 -20l-2 -66l3 -3q1 1 2.5 4.5t5.5 10t11 14.5q45 56 102 56q44 0 74 -31.5t30 -77.5q0 -34 -17 -51.5t-43 -17.5q-25 0 -43 17.5t-18 42.5v61q-8 5 -16 5q-22 0 -45 -26q-22 -25 -33 -52l-11 -26v-243l94 -26v-40h-306v43zM141 -250
l-18 18q16 16 28 36q14 23 14 32q0 3 -2 5q-22 0 -36.5 14t-14.5 36q-4 35 31 47q34 12 58 -10q17 -16 15 -43q0 -55 -75 -135z" />
    <glyph glyph-name="Rcaron" unicode="&#x158;" horiz-adv-x="693" 
d="M614 505q0 -67 -43 -114t-120 -65q45 -22 82 -97l86 -164l65 -25v-40h-203l-164 312h-69v-247l65 -25v-40h-290v43l65 31v569l-65 21v36h324q119 0 193 -53t74 -142zM330 648h-82v-284h82q55 0 85.5 35.5t30.5 106.5t-30.5 106.5t-85.5 35.5zM493 909l-148 -167h-17
l-149 167l27 27l130 -79l130 79z" />
    <glyph glyph-name="rcaron" unicode="&#x159;" horiz-adv-x="482" 
d="M23 43l60 27v300l-51 25v48l186 26l17 -20l-2 -66l3 -3q1 1 2.5 4.5t5.5 10t11 14.5q45 56 102 56q44 0 74 -31.5t30 -77.5q0 -34 -17 -51.5t-43 -17.5q-25 0 -43 17.5t-18 42.5v61q-8 5 -16 5q-22 0 -45 -26q-22 -25 -33 -52l-11 -26v-243l94 -26v-40h-306v43zM403 669
l-149 -167h-17l-148 167l27 27l129 -79l131 79z" />
    <glyph glyph-name="Sacute" unicode="&#x15a;" horiz-adv-x="596" 
d="M74 6l-17 17l-17 154h54q12 -63 61 -97.5t113 -34.5q62 0 99.5 31t37.5 97q0 44 -28 63q-27 21 -122 54q-14 4 -63 22q-20 8 -54 27t-51 39q-44 52 -44 128q0 94 60.5 147.5t183.5 53.5q96 0 175 -35l26 21l18 -17l17 -153h-55q-14 66 -55 99t-96 33q-56 0 -90 -32
t-34 -87q0 -44 27 -64q27 -18 110 -47q38 -13 62 -23q15 -5 52 -23q29 -12 47 -29q68 -60 63 -147q0 -210 -272 -210q-103 0 -181 35zM215 742l-27 27l150 167l90 -90z" />
    <glyph glyph-name="sacute" unicode="&#x15b;" horiz-adv-x="443" 
d="M51 3l-14 13v121h55q26 -90 106 -90q36 0 58 16t22 50q0 23 -16.5 33.5t-71.5 26.5l-39 11l-34 13q-26 11 -35 19q-53 41 -48 105q0 143 182 143q77 0 134 -25l16 15l14 -13v-116h-54q-26 87 -91 87q-32 0 -51.5 -17t-19.5 -44q0 -24 15 -34.5t63 -25.5q26 -7 36 -12
q41 -10 65 -27q37 -22 47 -43q18 -34 18 -71q0 -143 -207 -143q-71 0 -134 23zM145 502l-26 27l150 167l89 -90z" />
    <glyph glyph-name="Scircumflex" unicode="&#x15c;" horiz-adv-x="596" 
d="M74 6l-17 17l-17 154h54q12 -63 61 -97.5t113 -34.5q62 0 99.5 31t37.5 97q0 44 -28 63q-27 21 -122 54q-14 4 -63 22q-20 8 -54 27t-51 39q-44 52 -44 128q0 94 60.5 147.5t183.5 53.5q96 0 175 -35l26 21l18 -17l17 -153h-55q-14 66 -55 99t-96 33q-56 0 -90 -32
t-34 -87q0 -44 27 -64q27 -18 110 -47q38 -13 62 -23q15 -5 52 -23q29 -12 47 -29q68 -60 63 -147q0 -210 -272 -210q-103 0 -181 35zM130 769l148 167h17l149 -167l-27 -27l-131 79l-129 -79z" />
    <glyph glyph-name="scircumflex" unicode="&#x15d;" horiz-adv-x="443" 
d="M51 3l-14 13v121h55q26 -90 106 -90q36 0 58 16t22 50q0 23 -16.5 33.5t-71.5 26.5l-39 11l-34 13q-26 11 -35 19q-53 41 -48 105q0 143 182 143q77 0 134 -25l16 15l14 -13v-116h-54q-26 87 -91 87q-32 0 -51.5 -17t-19.5 -44q0 -24 15 -34.5t63 -25.5q26 -7 36 -12
q41 -10 65 -27q37 -22 47 -43q18 -34 18 -71q0 -143 -207 -143q-71 0 -134 23zM61 529l149 167h16l149 -167l-27 -27l-130 79l-130 -79z" />
    <glyph glyph-name="Scedilla" unicode="&#x15e;" horiz-adv-x="596" 
d="M206 -114l56 107q-89 3 -161 35l-27 -22l-17 17l-17 154h54q12 -63 61 -97.5t113 -34.5q62 0 99.5 31t37.5 97q0 44 -28 63q-27 21 -122 54q-14 4 -63 22q-20 8 -54 27t-51 39q-44 52 -44 128q0 94 60.5 147.5t183.5 53.5q96 0 175 -35l26 21l18 -17l17 -153h-55
q-14 66 -55 99t-96 33q-56 0 -90 -32t-34 -87q0 -44 27 -64q27 -18 110 -47q38 -13 62 -23q15 -5 52 -23q29 -12 47 -29q68 -60 63 -147q0 -202 -254 -210l-16 -32q35 0 57 -13.5t22 -37.5q0 -18 -19 -44q-17 -25 -35 -45q-11 -13 -55 -57l-14 16q48 49 48 73q0 33 -82 33z
" />
    <glyph glyph-name="scedilla" unicode="&#x15f;" horiz-adv-x="443" 
d="M125 -114l56 109q-58 3 -114 23l-16 -15l-14 13v121h55q26 -90 106 -90q36 0 58 16t22 50q0 23 -16.5 33.5t-71.5 26.5l-39 11l-34 13q-26 11 -35 19q-53 41 -48 105q0 143 182 143q77 0 134 -25l16 15l14 -13v-116h-54q-26 87 -91 87q-32 0 -51.5 -17t-19.5 -44
q0 -24 15 -34.5t63 -25.5q26 -7 36 -12q41 -10 65 -27q37 -22 47 -43q18 -34 18 -71q0 -136 -189 -142l-17 -35q35 0 57 -13.5t22 -37.5q0 -23 -25 -55t-84 -91l-14 16q48 48 48 73q0 33 -81 33z" />
    <glyph glyph-name="Scaron" unicode="&#x160;" horiz-adv-x="596" 
d="M74 6l-17 17l-17 154h54q12 -63 61 -97.5t113 -34.5q62 0 99.5 31t37.5 97q0 44 -28 63q-27 21 -122 54q-14 4 -63 22q-20 8 -54 27t-51 39q-44 52 -44 128q0 94 60.5 147.5t183.5 53.5q96 0 175 -35l26 21l18 -17l17 -153h-55q-14 66 -55 99t-96 33q-56 0 -90 -32
t-34 -87q0 -44 27 -64q27 -18 110 -47q38 -13 62 -23q15 -5 52 -23q29 -12 47 -29q68 -60 63 -147q0 -210 -272 -210q-103 0 -181 35zM444 909l-148 -167h-17l-148 167l26 27l130 -79l131 79z" />
    <glyph glyph-name="scaron" unicode="&#x161;" horiz-adv-x="443" 
d="M51 3l-14 13v121h55q26 -90 106 -90q36 0 58 16t22 50q0 23 -16.5 33.5t-71.5 26.5l-39 11l-34 13q-26 11 -35 19q-53 41 -48 105q0 143 182 143q77 0 134 -25l16 15l14 -13v-116h-54q-26 87 -91 87q-32 0 -51.5 -17t-19.5 -44q0 -24 15 -34.5t63 -25.5q26 -7 36 -12
q41 -10 65 -27q37 -22 47 -43q18 -34 18 -71q0 -143 -207 -143q-71 0 -134 23zM375 669l-149 -167h-16l-149 167l27 27l130 -79l130 79z" />
    <glyph glyph-name="Tcommaaccent" unicode="&#x162;" horiz-adv-x="677" 
d="M601 551l-45 97h-137v-583l65 -25v-40h-290v43l65 31v574h-138l-44 -104h-54l14 156h604l14 -149h-54zM315 -250l-18 18q16 16 28 36q14 23 14 32q0 3 -2 5q-22 0 -36.5 14t-14.5 36q-4 35 31 47q34 12 58 -10q17 -16 15 -43q0 -55 -75 -135z" />
    <glyph glyph-name="tcommaaccent" unicode="&#x163;" horiz-adv-x="401" 
d="M83 408h-60v26q113 46 195 142l17 -17v-99h124v-52h-124v-272q0 -80 66 -80q35 0 54 19l25 -25q-55 -55 -142 -55q-70 0 -112.5 38.5t-42.5 102.5v272zM195 -250l-18 18q16 16 28 36q14 23 14 32q0 4 -1 5q-23 0 -37.5 14t-14.5 36q-3 35 31.5 47t58.5 -10q17 -16 15 -43
q0 -56 -76 -135z" />
    <glyph glyph-name="Tcaron" unicode="&#x164;" horiz-adv-x="677" 
d="M601 551l-45 97h-137v-583l65 -25v-40h-290v43l65 31v574h-138l-44 -104h-54l14 156h604l14 -149h-54zM495 909l-148 -167h-17l-149 167l27 27l130 -79l130 79z" />
    <glyph glyph-name="tcaron" unicode="&#x165;" horiz-adv-x="401" 
d="M83 408h-60v26q113 46 195 142l17 -17v-99h124v-52h-124v-272q0 -80 66 -80q35 0 54 19l25 -25q-55 -55 -142 -55q-70 0 -112.5 38.5t-42.5 102.5v272zM299 564l-18 17q15 16 28.5 37.5t13.5 30.5q0 5 -1 6q-34 -4 -47.5 30t9.5 57t58.5 10t32.5 -54q0 -58 -76 -134z" />
    <glyph glyph-name="Tbar" unicode="&#x166;" horiz-adv-x="677" 
d="M259 322h-98v52h98v274h-138l-44 -104h-54l14 156h604l14 -149h-54l-45 97h-137v-274h98v-52h-98v-257l65 -25v-40h-290v43l65 31v248z" />
    <glyph glyph-name="tbar" unicode="&#x167;" horiz-adv-x="401" 
d="M83 248h-60v35l60 17v108h-60v26q113 46 195 142l17 -17v-99h124v-52h-124v-108h124v-52h-124v-112q0 -80 66 -80q35 0 54 19l25 -25q-55 -55 -142 -55q-70 0 -112.5 38.5t-42.5 102.5v112z" />
    <glyph glyph-name="Utilde" unicode="&#x168;" horiz-adv-x="743" 
d="M720 678l-65 -29v-385q0 -125 -79 -198q-77 -73 -205 -73t-205 73q-78 74 -78 198v370l-65 26v40h290v-40l-65 -29v-367q0 -94 48 -144t133 -50t133.5 50t48.5 144v388l-65 26v22h174v-22zM239 769l-24 24q100 103 145 103q22 0 56 -24t60 -24q18 0 43 13.5t44 32.5
l25 -25q-107 -104 -149 -104q-21 0 -56 24t-60 24q-40 0 -84 -44z" />
    <glyph glyph-name="utilde" unicode="&#x169;" horiz-adv-x="632" 
d="M549 451v-364l51 -31v-44l-186 -21l-18 18l3 47l-3 3q-29 -29 -76.5 -46.5t-93.5 -17.5q-67 0 -105 40t-38 101v234l-51 25v48l186 26l17 -18v-312q0 -38 17.5 -59t48.5 -21q24 0 51 13.5t44 36.5v261l-51 25v48l187 26zM154 529l-25 24q103 103 146 103q23 0 56 -24
t59 -24q42 0 88 46l24 -25q-104 -104 -149 -104q-21 0 -56 24q-33 24 -59 24q-42 0 -84 -44z" />
    <glyph glyph-name="Umacron" unicode="&#x16a;" horiz-adv-x="743" 
d="M720 678l-65 -29v-385q0 -125 -79 -198q-77 -73 -205 -73t-205 73q-78 74 -78 198v370l-65 26v40h290v-40l-65 -29v-367q0 -94 48 -144t133 -50t133.5 50t48.5 144v388l-65 26v22h174v-22zM524 791h-277v60h277v-60z" />
    <glyph glyph-name="umacron" unicode="&#x16b;" horiz-adv-x="632" 
d="M549 451v-364l51 -31v-44l-186 -21l-18 18l3 47l-3 3q-29 -29 -76.5 -46.5t-93.5 -17.5q-67 0 -105 40t-38 101v234l-51 25v48l186 26l17 -18v-312q0 -38 17.5 -59t48.5 -21q24 0 51 13.5t44 36.5v261l-51 25v48l187 26zM453 551h-277v60h277v-60z" />
    <glyph glyph-name="Ubreve" unicode="&#x16c;" horiz-adv-x="743" 
d="M720 678l-65 -29v-385q0 -125 -79 -198q-77 -73 -205 -73t-205 73q-78 74 -78 198v370l-65 26v40h290v-40l-65 -29v-367q0 -94 48 -144t133 -50t133.5 50t48.5 144v388l-65 26v22h174v-22zM436 869q0 25 18 43t43 18t42.5 -17t17.5 -46q0 -47 -50 -76q-49 -28 -121 -28
q-74 0 -123 28t-49 76q0 29 18 46t43 17q24 0 42 -18t18 -43q0 -20 5 -33t14 -18t16 -6.5t16 -1.5t15.5 1.5t15.5 6.5t14 18t5 33z" />
    <glyph glyph-name="ubreve" unicode="&#x16d;" horiz-adv-x="632" 
d="M549 451v-364l51 -31v-44l-186 -21l-18 18l3 47l-3 3q-29 -29 -76.5 -46.5t-93.5 -17.5q-67 0 -105 40t-38 101v234l-51 25v48l186 26l17 -18v-312q0 -38 17.5 -59t48.5 -21q24 0 51 13.5t44 36.5v261l-51 25v48l187 26zM362 629q0 25 17.5 43t42.5 18t43 -17t18 -46
q0 -47 -50 -76q-49 -28 -122 -28q-74 0 -123 28t-49 76q0 29 18 46t43 17q24 0 42 -18t18 -43q2 -37 16 -48.5t35 -10.5q20 -1 34 10.5t17 48.5z" />
    <glyph glyph-name="Uring" unicode="&#x16e;" horiz-adv-x="743" 
d="M720 678l-65 -29v-385q0 -125 -79 -198q-77 -73 -205 -73t-205 73q-78 74 -78 198v370l-65 26v40h290v-40l-65 -29v-367q0 -94 48 -144t133 -50t133.5 50t48.5 144v388l-65 26v22h174v-22zM399 909q40 0 64.5 -22.5t24.5 -61.5t-24.5 -61.5t-64.5 -22.5q-39 0 -63 22.5
t-24 61.5t24 61.5t63 22.5zM399 777q34 0 34 48t-34 48q-21 3 -29.5 -22.5t0 -51t29.5 -22.5z" />
    <glyph glyph-name="uring" unicode="&#x16f;" horiz-adv-x="632" 
d="M549 451v-364l51 -31v-44l-186 -21l-18 18l3 47l-3 3q-29 -29 -76.5 -46.5t-93.5 -17.5q-67 0 -105 40t-38 101v234l-51 25v48l186 26l17 -18v-312q0 -38 17.5 -59t48.5 -21q24 0 51 13.5t44 36.5v261l-51 25v48l187 26zM312 669q40 0 64.5 -22.5t24.5 -61.5t-24.5 -61.5
t-64.5 -22.5t-63.5 22.5t-23.5 61.5t24 61.5t63 22.5zM312 537q33 0 33 48t-33 48q-21 3 -29.5 -22.5t0 -51t29.5 -22.5z" />
    <glyph glyph-name="Uhungarumlaut" unicode="&#x170;" horiz-adv-x="743" 
d="M720 678l-65 -29v-385q0 -125 -79 -198q-77 -73 -205 -73t-205 73q-78 74 -78 198v370l-65 26v40h290v-40l-65 -29v-367q0 -94 48 -144t133 -50t133.5 50t48.5 144v388l-65 26v22h174v-22zM214 742l-26 27l129 167l89 -90zM411 742l-27 27l130 167l89 -90z" />
    <glyph glyph-name="uhungarumlaut" unicode="&#x171;" horiz-adv-x="632" 
d="M549 451v-364l51 -31v-44l-186 -21l-18 18l3 47l-3 3q-29 -29 -76.5 -46.5t-93.5 -17.5q-67 0 -105 40t-38 101v234l-51 25v48l186 26l17 -18v-312q0 -38 17.5 -59t48.5 -21q24 0 51 13.5t44 36.5v261l-51 25v48l187 26zM138 502l-27 27l129 167l90 -90zM334 502l-26 27
l129 167l89 -90z" />
    <glyph glyph-name="Uogonek" unicode="&#x172;" horiz-adv-x="743" 
d="M467 -171l15 -15q-50 -50 -101 -50q-64 0 -64 65q0 77 73 165q-4 -1 -19 -1q-128 0 -205 73q-78 74 -78 198v370l-65 26v40h290v-40l-65 -29v-367q0 -94 48 -144t133 -50t133.5 50t48.5 144v388l-65 26v22h174v-22l-65 -29v-385q0 -108 -60 -178t-161 -87
q-24 -35 -40 -79t-16 -73q0 -38 34 -38q32 0 55 20z" />
    <glyph glyph-name="uogonek" unicode="&#x173;" horiz-adv-x="632" 
d="M586 -163l15 -15q-50 -50 -101 -50q-64 0 -64 65q0 76 74 165l-96 -11l-18 18l3 47l-3 3q-29 -29 -76.5 -46.5t-93.5 -17.5q-67 0 -105 40t-38 101v234l-51 25v48l186 26l17 -18v-312q0 -38 17.5 -59t48.5 -21q24 0 51 13.5t44 36.5v261l-51 25v48l187 26l17 -18v-364
l51 -31v-44l-47 -5q-24 -35 -40 -79t-16 -74q0 -38 34 -38t55 21z" />
    <glyph glyph-name="Wcircumflex" unicode="&#x174;" horiz-adv-x="1194" 
d="M849 0h-71l-185 438l-179 -438h-71l-272 634l-65 26v40h290v-40l-65 -26l198 -479l136 346l-59 133l-65 26v40h291v-40l-65 -26l198 -479l202 479l-81 26v40h202v-40l-64 -26zM444 769l148 167h17l149 -167l-27 -27l-131 79l-129 -79z" />
    <glyph glyph-name="wcircumflex" unicode="&#x175;" horiz-adv-x="881" 
d="M632 0h-63l-120 272l-129 -272h-64l-189 398l-60 22v40h265v-40l-58 -22l119 -254l90 190l-29 64l-60 22v40h265v-40l-59 -22l104 -254l113 254l-76 22v40h193v-40l-59 -22zM292 529l149 167h17l148 -167l-26 -27l-131 79l-130 -79z" />
    <glyph glyph-name="Ycircumflex" unicode="&#x176;" horiz-adv-x="702" 
d="M304 660l-65 -22l162 -288l164 288l-72 22v40h203v-40l-70 -22l-201 -349v-224l65 -25v-40h-289v43l65 31v214l-198 350l-62 22v40h298v-40zM200 769l149 167h16l149 -167l-27 -27l-130 79l-130 -79z" />
    <glyph glyph-name="ycircumflex" unicode="&#x177;" horiz-adv-x="576" 
d="M258 -6l-191 404l-60 22v40h272v-40l-58 -22l113 -243l116 243l-77 22v40h195v-40l-58 -22l-188 -398q-78 -164 -110 -207q-33 -47 -89 -47q-44 0 -70.5 22.5t-26.5 62.5q0 32 19 50.5t47 18.5t46.5 -16.5t18.5 -42.5v-23q2 -2 7 -2q13 0 32 37q22 42 62 141zM136 529
l148 167h17l148 -167l-26 -27l-131 79l-130 -79z" />
    <glyph glyph-name="Ydieresis" unicode="&#x178;" horiz-adv-x="702" 
d="M304 660l-65 -22l162 -288l164 288l-72 22v40h203v-40l-70 -22l-201 -349v-224l65 -25v-40h-289v43l65 31v214l-198 350l-62 22v40h298v-40zM185 783q-21 21 -21 54t21 53q21 21 54 21t53 -21q21 -20 21 -53t-21 -54q-20 -21 -53 -21t-54 21zM408 783q-21 21 -21 54
t21 53q21 21 54 21t53 -21q21 -20 21 -53t-21 -54q-20 -21 -53 -21t-54 21z" />
    <glyph glyph-name="Zacute" unicode="&#x179;" horiz-adv-x="634" 
d="M588 0h-546v34l371 614h-270l-44 -104h-54l14 156h534v-34l-375 -614h285l45 107h54zM243 742l-26 27l150 167l90 -90z" />
    <glyph glyph-name="zacute" unicode="&#x17a;" horiz-adv-x="494" 
d="M452 0h-410v34l243 374h-151l-30 -87h-55v139h401v-34l-246 -374h163l31 87h54v-139zM173 502l-26 27l150 167l90 -90z" />
    <glyph glyph-name="Zdotaccent" unicode="&#x17b;" horiz-adv-x="634" 
d="M588 0h-546v34l371 614h-270l-44 -104h-54l14 156h534v-34l-375 -614h285l45 107h54zM235 847q0 36 23 58t59 22t58.5 -22t22.5 -58q0 -37 -22.5 -59.5t-58.5 -22.5t-59 22.5t-23 59.5z" />
    <glyph glyph-name="zdotaccent" unicode="&#x17c;" horiz-adv-x="494" 
d="M452 0h-410v34l243 374h-151l-30 -87h-55v139h401v-34l-246 -374h163l31 87h54v-139zM165 607q0 36 23 58t59 22t58.5 -22t22.5 -58q0 -37 -22.5 -59.5t-58.5 -22.5t-59 22.5t-23 59.5z" />
    <glyph glyph-name="Zcaron" unicode="&#x17d;" horiz-adv-x="634" 
d="M588 0h-546v34l371 614h-270l-44 -104h-54l14 156h534v-34l-375 -614h285l45 107h54zM474 909l-149 -167h-17l-148 167l27 27l129 -79l131 79z" />
    <glyph glyph-name="zcaron" unicode="&#x17e;" horiz-adv-x="494" 
d="M452 0h-410v34l243 374h-151l-30 -87h-55v139h401v-34l-246 -374h163l31 87h54v-139zM404 669l-149 -167h-17l-148 167l27 27l129 -79l131 79z" />
    <glyph glyph-name="longs" unicode="&#x17f;" horiz-adv-x="468" 
d="M23 451l60 17v97q0 87 55.5 138.5t148.5 51.5q74 0 119 -32t45 -83q0 -31 -17.5 -48.5t-42.5 -17.5t-43 17.5t-18 42.5v61q-17 11 -36 11q-59 0 -59 -139v-501l94 -26v-40h-306v43l60 27v338h-60v43z" />
    <glyph glyph-name="uni018F" unicode="&#x18f;" horiz-adv-x="736" 
d="M107 562l-34 34q111 111 273 111q160 0 254 -96q95 -95 95 -257q0 -167 -97 -264q-96 -97 -253 -97q-134 0 -219 71q-84 72 -84 180q0 36 7 60l25 25h452q2 63 -7.5 115.5t-34 97t-72 70t-113.5 25.5q-120 0 -192 -75zM523 277l-337 -25q0 -94 39 -148.5t110 -54.5
q74 0 125.5 58.5t62.5 169.5z" />
    <glyph glyph-name="florin" unicode="&#x192;" horiz-adv-x="436" 
d="M50 0l86 408h-75l10 43l78 17l21 97q18 85 84 138q65 52 160 52q74 0 112.5 -32t27.5 -83q-6 -31 -27.5 -48.5t-46.5 -17.5q-26 0 -40 17.5t-8 42.5l13 61q-14 11 -34 11q-60 0 -88 -139l-23 -107h159l-11 -52h-159l-87 -408q-25 -120 -102 -188q-76 -67 -167 -67
q-55 0 -76.5 22t-14.5 58q8 47 53 61q40 12 63 -12q16 -17 9 -45l-7 -31q26 0 46.5 45.5t43.5 156.5z" />
    <glyph glyph-name="uni01DD" unicode="&#x1dd;" horiz-adv-x="517" 
d="M42 214l18 17h271q-1 89 -32.5 129.5t-95.5 40.5q-76 0 -119 -43l-32 32q77 75 191 75q107 0 174 -65q67 -64 67 -171q0 -109 -69 -172q-68 -62 -171 -62q-91 0 -149 50q-57 49 -57 128q0 26 4 41zM238 47q36 0 62 38.5t31 98.5l-167 -10q0 -60 20 -93.5t54 -33.5z" />
    <glyph glyph-name="Aringacute" unicode="&#x1fa;" horiz-adv-x="774" 
d="M299 772q0 39 24 61.5t63 22.5q40 0 64.5 -22.5t24.5 -61.5q0 -57 -50 -77l278 -630l65 -25v-40h-289v40l63 25l-63 149h-287l-65 -149l81 -25v-40h-202v40l63 25l280 629q-50 20 -50 78zM456 266l-119 279l-122 -279h241zM293 833l-27 26l151 167l89 -90zM386 724
q34 0 34 48q0 49 -34 49q-15 0 -24.5 -13.5t-9.5 -35.5t9.5 -35t24.5 -13z" />
    <glyph glyph-name="aringacute" unicode="&#x1fb;" horiz-adv-x="544" 
d="M311 46l-3 4q-61 -55 -160 -55q-111 0 -111 105q-8 63 60 102q14 10 54 22l67 19l91 22v75q0 73 -73 73q-27 0 -63 -17v-51q0 -25 -17.5 -43t-42.5 -18t-43 17.5t-18 46.5q0 52 56 84.5t147 32.5q95 0 150.5 -35t55.5 -95v-263q0 -20 17 -20q16 0 26 12l16 -16
q-53 -51 -139 -51q-34 0 -50 11t-20 38zM309 95v120q-81 -21 -108 -38q-25 -16 -25 -61q0 -58 50 -58t83 37zM253 649q40 0 64 -22.5t24 -61.5t-24 -61.5t-64 -22.5t-64 22.5t-24 61.5t24.5 61.5t63.5 22.5zM253 517q33 0 33 48t-33 48q-21 3 -29.5 -22.5t0 -51t29.5 -22.5z
M160 633l-27 27l150 166l90 -90z" />
    <glyph glyph-name="AEacute" unicode="&#x1fc;" horiz-adv-x="842" 
d="M342 36l64 20l-23 158h-191l-65 -149l81 -25v-40h-202v40l63 25l283 635h429l13 -149h-54l-44 97h-226l37 -264h127l22 76h50v-203h-50l-22 75h-121l40 -280h153l44 97h54l-13 -149h-449v36zM377 266l-40 279l-122 -279h162zM389 742l-27 27l151 167l89 -90z" />
    <glyph glyph-name="aeacute" unicode="&#x1fd;" horiz-adv-x="745" 
d="M307 50q-59 -55 -159 -55q-111 0 -111 105q0 42 15 62q2 2 6 8t5.5 7.5t5.5 6t7.5 7t9.5 6t13 6.5q25 12 35 15q14 6 48 15q33 10 56 15q28 8 69 17v75q0 73 -71 73q-27 0 -63 -17v-51q0 -25 -17.5 -43t-42.5 -18t-43 17.5t-18 46.5q0 52 56 84.5t147 32.5q75 0 125 -29
q56 29 121 29q92 0 148 -49q58 -49 58 -125q0 -23 -5 -40l-17 -17l-238 -10v-123q29 -42 98 -42q82 0 125 43l32 -32q-76 -75 -192 -75q-133 0 -203 55zM309 95v120q-81 -21 -108 -38q-25 -16 -25 -61q0 -58 50 -58t83 37zM447 335v-63l134 19q0 58 -20.5 90t-54.5 32
q-40 0 -65 -43q6 -18 6 -35zM299 502l-27 27l150 167l90 -90z" />
    <glyph glyph-name="Oslashacute" unicode="&#x1fe;" horiz-adv-x="770" 
d="M161 67l-60 -67h-59l87 97q-87 95 -87 253q0 165 94 260q94 97 249 97q133 0 224 -75l61 68h59l-88 -98q88 -95 88 -252q0 -163 -95 -261q-94 -96 -249 -96q-135 0 -224 74zM209 350q0 -83 16 -146l305 340q-46 111 -144 111q-83 0 -130 -78t-47 -227zM561 350
q0 82 -16 145l-305 -340q45 -110 146 -110q81 0 128 78.5t47 226.5zM312 742l-27 27l150 167l90 -90z" />
    <glyph glyph-name="oslashacute" unicode="&#x1ff;" horiz-adv-x="553" 
d="M126 37l-35 -37h-58l60 65q-60 63 -60 165q0 108 67 171q67 64 177 64q89 0 150 -43l35 38h58l-61 -65q61 -62 61 -165q0 -108 -67 -172q-67 -63 -176 -63q-89 0 -151 42zM367 230q0 39 -4 62l-162 -174q22 -70 76 -70q42 0 66 46.5t24 135.5zM187 230q0 -34 3 -61
l162 174q-22 70 -75 70q-43 0 -66.5 -46t-23.5 -137zM203 502l-26 27l150 167l90 -90z" />
    <glyph glyph-name="Scommaaccent" unicode="&#x218;" horiz-adv-x="596" 
d="M74 6l-17 17l-17 154h54q12 -63 61 -97.5t113 -34.5q62 0 99.5 31t37.5 97q0 44 -28 63q-27 21 -122 54q-14 4 -63 22q-20 8 -54 27t-51 39q-44 52 -44 128q0 94 60.5 147.5t183.5 53.5q96 0 175 -35l26 21l18 -17l17 -153h-55q-14 66 -55 99t-96 33q-56 0 -90 -32
t-34 -87q0 -44 27 -64q27 -18 110 -47q38 -13 62 -23q15 -5 52 -23q29 -12 47 -29q68 -60 63 -147q0 -210 -272 -210q-103 0 -181 35zM259 -250l-18 18q16 16 28 36q14 23 14 32q0 3 -2 5q-22 0 -36.5 14t-14.5 36q-4 35 31 47q34 12 58 -10q17 -16 15 -43q0 -55 -75 -135z
" />
    <glyph glyph-name="scommaaccent" unicode="&#x219;" horiz-adv-x="443" 
d="M51 3l-14 13v121h55q26 -90 106 -90q36 0 58 16t22 50q0 23 -16.5 33.5t-71.5 26.5l-39 11l-34 13q-26 11 -35 19q-53 41 -48 105q0 143 182 143q77 0 134 -25l16 15l14 -13v-116h-54q-26 87 -91 87q-32 0 -51.5 -17t-19.5 -44q0 -24 15 -34.5t63 -25.5q26 -7 36 -12
q41 -10 65 -27q37 -22 47 -43q18 -34 18 -71q0 -143 -207 -143q-71 0 -134 23zM178 -250l-18 18q16 16 28 36q14 23 14 32q0 3 -2 5q-22 0 -36.5 14t-14.5 36q0 23 14.5 37t37.5 14t37.5 -15t14.5 -42q0 -57 -75 -135z" />
    <glyph glyph-name="uni021A" unicode="&#x21a;" horiz-adv-x="677" 
d="M601 551l-45 97h-137v-583l65 -25v-40h-290v43l65 31v574h-138l-44 -104h-54l14 156h604l14 -149h-54zM315 -250l-18 18q16 16 28 36q14 23 14 32q0 3 -2 5q-22 0 -36.5 14t-14.5 36q-4 35 31 47q34 12 58 -10q17 -16 15 -43q0 -55 -75 -135z" />
    <glyph glyph-name="uni021B" unicode="&#x21b;" horiz-adv-x="401" 
d="M83 408h-60v26q113 46 195 142l17 -17v-99h124v-52h-124v-272q0 -80 66 -80q35 0 54 19l25 -25q-55 -55 -142 -55q-70 0 -112.5 38.5t-42.5 102.5v272zM195 -250l-18 18q16 16 28 36q14 23 14 32q0 4 -1 5q-23 0 -37.5 14t-14.5 36q-3 35 31.5 47t58.5 -10q17 -16 15 -43
q0 -56 -76 -135z" />
    <glyph glyph-name="dotlessj" unicode="&#x237;" 
d="M83 0v370l-51 25v48l186 26l17 -18v-451q0 -78 -48.5 -145t-138.5 -114l-32 32q33 38 50 99t17 128z" />
    <glyph glyph-name="circumflex" unicode="&#x2c6;" horiz-adv-x="374" 
d="M30 529l149 167h16l149 -167l-27 -27l-130 79l-130 -79z" />
    <glyph glyph-name="caron" unicode="&#x2c7;" horiz-adv-x="374" 
d="M344 669l-149 -167h-16l-149 167l27 27l130 -79l130 79z" />
    <glyph glyph-name="breve" unicode="&#x2d8;" horiz-adv-x="464" 
d="M283 629q0 25 17.5 43t42.5 18t43 -17t18 -46q0 -47 -50 -76q-49 -28 -122 -28q-74 0 -123 28t-49 76q0 29 18 46t43 17q24 0 42 -18t18 -43q2 -37 16 -48.5t35 -10.5q20 -1 34 10.5t17 48.5z" />
    <glyph glyph-name="dotaccent" unicode="&#x2d9;" horiz-adv-x="306" 
d="M71 607q0 36 23 58t59 22t58.5 -22t22.5 -58q0 -37 -22.5 -59.5t-58.5 -22.5t-59 22.5t-23 59.5z" />
    <glyph glyph-name="ring" unicode="&#x2da;" horiz-adv-x="244" 
d="M121 669q40 0 64.5 -22.5t24.5 -61.5t-24.5 -61.5t-64.5 -22.5q-39 0 -63 22.5t-24 61.5t24 61.5t63 22.5zM121 537q34 0 34 48t-34 48q-21 3 -29.5 -22.5t0 -51t29.5 -22.5z" />
    <glyph glyph-name="ogonek" unicode="&#x2db;" horiz-adv-x="184" 
d="M155 -171l15 -15q-50 -50 -101 -50q-64 0 -64 65q0 79 80 171h38q-24 -35 -40.5 -80t-16.5 -73q0 -38 34 -38q32 0 55 20z" />
    <glyph glyph-name="tilde" unicode="&#x2dc;" horiz-adv-x="442" 
d="M60 529l-24 24q103 103 145 103q23 0 57 -24q35 -24 59 -24q42 0 88 46l24 -25q-107 -104 -149 -104q-22 0 -56 24t-59 24q-41 0 -85 -44z" />
    <glyph glyph-name="hungarumlaut" unicode="&#x2dd;" horiz-adv-x="476" 
d="M57 502l-27 27l129 167l90 -90zM254 502l-27 27l129 167l90 -90z" />
    <glyph glyph-name="uni0400" unicode="&#x400;" horiz-adv-x="633" 
d="M248 332v-280h249l44 97h54l-13 -149h-559v36l65 21v586l-65 21v36h549l13 -149h-54l-44 97h-239v-264h178l22 76h50v-203h-50l-22 75h-178zM176 846l90 90l150 -167l-26 -27z" />
    <glyph glyph-name="afii10023" unicode="&#x401;" horiz-adv-x="633" 
d="M248 332v-280h249l44 97h54l-13 -149h-559v36l65 21v586l-65 21v36h549l13 -149h-54l-44 97h-239v-264h178l22 76h50v-203h-50l-22 75h-178zM131 828q0 33 20.5 54t53.5 21t53.5 -21t20.5 -54q0 -32 -20.5 -53t-53.5 -21t-53.5 21t-20.5 53zM354 828q0 33 21 54t53 21
q33 0 53.5 -21t20.5 -54q0 -32 -20.5 -53t-53.5 -21q-32 0 -53 21t-21 53z" />
    <glyph glyph-name="afii10051" unicode="&#x402;" horiz-adv-x="816" 
d="M617 63v174q0 120 -89 120q-65 0 -109 -41v-251l65 -25v-40h-290v43l65 31v574h-138l-44 -104h-54l14 156h604l14 -149h-54l-45 97h-137v-241l-3 -39l3 -5q35 26 88 41.5t102 15.5q80 0 124 -48t44 -127v-182q0 -122 -64 -187q-63 -67 -157 -67q-56 0 -83 22t-27 58
q0 30 17.5 47.5t44.5 17.5q25 0 43 -17t18 -44v-31q26 0 37 45.5t11 155.5z" />
    <glyph glyph-name="afii10052" unicode="&#x403;" horiz-adv-x="587" 
d="M225 742l-27 27l150 167l90 -90zM458 648h-210v-578l95 -30v-40h-320v43l65 31v569l-65 21v36h520l14 -149h-54z" />
    <glyph glyph-name="afii10053" unicode="&#x404;" horiz-adv-x="701" 
d="M630 138l33 -34q-111 -111 -273 -111q-159 0 -254 95q-94 95 -94 258q0 166 96 263q96 98 255 98q103 0 183 -39l48 18l17 -17l17 -150h-54q-54 132 -194 132q-189 0 -201 -268h306v-52h-306q9 -268 228 -268q119 0 193 75z" />
    <glyph glyph-name="afii10054" unicode="&#x405;" horiz-adv-x="596" 
d="M74 6l-17 17l-17 154h54q12 -63 61 -97.5t113 -34.5q62 0 99.5 31t37.5 97q0 44 -28 63q-27 21 -122 54q-14 4 -63 22q-20 8 -54 27t-51 39q-44 52 -44 128q0 94 60.5 147.5t183.5 53.5q96 0 175 -35l26 21l18 -17l17 -153h-55q-14 66 -55 99t-96 33q-56 0 -90 -32
t-34 -87q0 -44 27 -64q27 -18 110 -47q38 -13 62 -23q15 -5 52 -23q29 -12 47 -29q68 -60 63 -147q0 -210 -272 -210q-103 0 -181 35z" />
    <glyph glyph-name="afii10055" unicode="&#x406;" horiz-adv-x="336" 
d="M311 660l-65 -29v-566l65 -25v-40h-287v43l65 31v560l-65 26v40h287v-40z" />
    <glyph glyph-name="afii10056" unicode="&#x407;" horiz-adv-x="336" 
d="M311 660l-65 -29v-566l65 -25v-40h-287v43l65 31v560l-65 26v40h287v-40zM14 783q-21 21 -21 54t21 53q21 21 54 21t53 -21q21 -20 21 -53t-21 -54q-20 -21 -53 -21t-54 21zM215 783q-20 22 -20 54q0 33 20 53q21 21 54 21t53 -21q21 -20 21 -53t-21 -54q-20 -21 -53 -21
t-54 21z" />
    <glyph glyph-name="afii10057" unicode="&#x408;" horiz-adv-x="336" 
d="M90 0v634l-65 26v40h285v-40l-65 -29v-631q0 -79 -49.5 -145.5t-142.5 -113.5l-32 32q33 38 51 100t18 127z" />
    <glyph glyph-name="afii10058" unicode="&#x409;" horiz-adv-x="1071" 
d="M189 185l47 458l-65 21v36h549v-36l-65 -25v-243h102q122 0 197 -54q76 -52 76 -144q0 -91 -76 -145q-76 -53 -197 -53h-327v36l65 21v591h-204l-45 -457q-11 -116 -44 -155q-33 -41 -83 -41q-41 0 -67.5 20t-26.5 56q0 30 16 48.5t45 18.5q25 0 41.5 -14.5t16.5 -38.5
v-16q4 -2 7 -2q24 0 38 118zM655 344v-292h85q58 0 90 36.5t32 109.5t-32 109.5t-90 36.5h-85z" />
    <glyph glyph-name="afii10059" unicode="&#x40a;" horiz-adv-x="1104" 
d="M23 0v43l65 31v560l-65 26v40h290v-40l-65 -29v-242h280v245l-65 26v40h289v-40l-65 -29v-242h102q122 0 198 -53q75 -52 75 -142t-76 -142q-74 -52 -197 -52h-326v36l65 21v280h-280v-272l65 -25v-40h-290zM687 337v-285h85q122 0 122 142q0 71 -32 107t-90 36h-85z" />
    <glyph glyph-name="afii10060" unicode="&#x40b;" horiz-adv-x="865" 
d="M419 316v-251l65 -25v-40h-290v43l65 31v574h-138l-44 -104h-54l14 156h604l14 -149h-54l-45 97h-137v-241l-3 -39l3 -5q35 26 88 41.5t102 15.5q81 0 124 -49q44 -50 44 -119v-187l65 -25v-40h-291v43l66 31v168q0 54 -24 84.5t-66 30.5q-64 0 -108 -41z" />
    <glyph glyph-name="afii10061" unicode="&#x40c;" horiz-adv-x="744" 
d="M713 79l15 -16q-35 -39 -64 -54.5t-77 -15.5q-60 0 -94.5 27.5t-50.5 89.5l-32 131q-14 53 -44.5 74.5t-87.5 21.5h-32v-272l65 -25v-40h-289v43l65 31v560l-65 26v40h289v-40l-65 -29v-243q67 0 100.5 23t48.5 76l29 99q18 61 52 91t90 30q48 0 75 -21t27 -60
q0 -31 -16.5 -51t-45.5 -20q-28 0 -46.5 16.5t-18.5 45.5v15q-3 3 -9 3q-41 0 -64 -83l-24 -89q-15 -56 -50 -85q80 -7 121.5 -35t55.5 -83l31 -128q11 -41 25.5 -57t36.5 -16q31 0 49 20zM299 742l-26 27l150 167l90 -90z" />
    <glyph glyph-name="uni040D" unicode="&#x40d;" horiz-adv-x="774" 
d="M246 846l90 90l150 -167l-26 -27zM23 0v43l65 31v560l-65 26v40h290v-40l-65 -29v-440l278 423v20l-65 26v40h290v-40l-65 -29v-566l65 -25v-40h-290v43l65 31v435l-278 -424v-20l65 -25v-40h-290z" />
    <glyph glyph-name="afii10062" unicode="&#x40e;" horiz-adv-x="700" 
d="M408 814v46q0 25 18 43t43 18t42.5 -17t17.5 -46q0 -46 -50 -75q-49 -28 -122 -28t-122 28t-49 76q0 28 18 45t42 17q25 0 43 -18t18 -43v-46q21 -12 50 -12q30 0 51 12zM323 202l-250 436l-64 22v40h292v-40l-63 -22l162 -299l167 299l-81 22v40h205v-40l-63 -22
l-225 -398q-84 -151 -127 -200q-41 -47 -101 -47q-48 0 -77 22.5t-29 64.5q0 34 18.5 51.5t47.5 17.5t47 -18.5t18 -45.5v-30q4 -2 8 -2q17 0 43 33.5t72 115.5z" />
    <glyph glyph-name="afii10145" unicode="&#x40f;" horiz-adv-x="763" 
d="M353 -139l-17 139h-313v36l65 21v577l-65 26v40h290v-40l-65 -29v-579h267v582l-65 26v40h290v-40l-65 -29v-574l65 -21v-36h-313l-17 -139h-57z" />
    <glyph glyph-name="afii10017" unicode="&#x410;" horiz-adv-x="774" 
d="M352 700h71l280 -635l65 -25v-40h-289v40l63 25l-63 149h-287l-65 -149l81 -25v-40h-202v40l63 25zM456 266l-119 279l-122 -279h241z" />
    <glyph glyph-name="afii10018" unicode="&#x411;" horiz-adv-x="673" 
d="M480 648h-232v-245h110q124 0 198 -55q75 -54 75 -146t-75 -148q-75 -54 -198 -54h-335v36l65 21v586l-65 21v36h541l14 -149h-54zM248 351v-299h93q122 0 122 150q0 74 -32 111.5t-90 37.5h-93z" />
    <glyph glyph-name="afii10019" unicode="&#x412;" horiz-adv-x="683" 
d="M23 664v36h331q117 0 189 -48t72 -130q0 -59 -37.5 -101t-104.5 -61q80 -20 124.5 -65.5t44.5 -108.5q0 -85 -80 -136q-80 -50 -208 -50h-331v36l65 21v586zM248 332v-280h89q65 0 101 35t36 105t-36 105t-101 35h-89zM337 648h-89v-264h89q110 0 110 132t-110 132z" />
    <glyph glyph-name="afii10020" unicode="&#x413;" horiz-adv-x="587" 
d="M458 648h-210v-578l95 -30v-40h-320v43l65 31v569l-65 21v36h520l14 -149h-54z" />
    <glyph glyph-name="afii10021" unicode="&#x414;" horiz-adv-x="761" 
d="M677 -139l-34 139h-526l-34 -139h-58v191h92q33 23 43 133l47 458l-65 21v36h581v-36l-65 -25v-587h76v-191h-57zM498 648h-227l-46 -457q-7 -88 -35 -139h308v596z" />
    <glyph glyph-name="afii10022" unicode="&#x415;" horiz-adv-x="633" 
d="M248 332v-280h249l44 97h54l-13 -149h-559v36l65 21v586l-65 21v36h549l13 -149h-54l-44 97h-239v-264h178l22 76h50v-203h-50l-22 75h-178z" />
    <glyph glyph-name="afii10024" unicode="&#x416;" horiz-adv-x="1101" 
d="M192 632v-15q0 -29 -18 -45.5t-46 -16.5q-30 0 -46 20t-16 51q0 38 27.5 59.5t73.5 21.5q51 0 81.5 -28.5t52.5 -92.5l33 -97q19 -55 48.5 -78t88.5 -23v246l-65 26v40h289v-40l-65 -29v-243q59 0 88.5 23t48.5 78l34 97q21 64 52 92.5t82 28.5q46 0 73 -21.5t27 -59.5
q0 -31 -16 -51t-45 -20q-28 0 -46.5 16.5t-18.5 45.5v15q-3 3 -9 3q-30 0 -59 -83l-29 -88q-20 -58 -49 -85q79 -6 119 -32.5t55 -83.5l35 -131q10 -41 22.5 -57t34.5 -16q28 0 46 20l15 -16q-34 -39 -62 -54.5t-72 -15.5q-55 0 -87.5 27.5t-48.5 89.5l-35 135
q-14 52 -42 72t-82 20h-31v-272l65 -25v-40h-289v43l65 31v263h-31q-54 0 -82 -20t-42 -72l-35 -135q-16 -62 -48.5 -89.5t-87.5 -27.5q-44 0 -72 15.5t-62 54.5l15 16q18 -20 46 -20q21 0 34 16t24 57l34 131q15 57 55 83.5t120 32.5q-32 31 -50 85l-29 88q-29 83 -59 83
q-6 0 -9 -3z" />
    <glyph glyph-name="afii10025" unicode="&#x417;" horiz-adv-x="638" 
d="M106 521h-54l17 151l17 17l47 -19q75 37 177 37q115 0 188 -50q72 -50 72 -134q0 -60 -37.5 -102t-104.5 -61q80 -21 124.5 -66t44.5 -109q0 -87 -80 -140q-79 -52 -207 -52q-102 0 -182 37l-48 -19l-17 17l-17 151h54q49 -130 181 -130q71 0 109.5 37t38.5 110
q0 136 -153 136q-53 0 -96 -4v61q48 -5 88 -5q72 0 103 28.5t31 96.5q0 142 -123 142q-58 0 -104 -32t-69 -98z" />
    <glyph glyph-name="afii10026" unicode="&#x418;" horiz-adv-x="774" 
d="M23 0v43l65 31v560l-65 26v40h290v-40l-65 -29v-440l278 423v20l-65 26v40h290v-40l-65 -29v-566l65 -25v-40h-290v43l65 31v435l-278 -424v-20l65 -25v-40h-290z" />
    <glyph glyph-name="afii10027" unicode="&#x419;" horiz-adv-x="774" 
d="M438 814v46q0 25 17.5 43t42.5 18t43 -17t18 -46q0 -46 -50 -75q-49 -28 -122 -28q-74 0 -123 28t-49 76q0 28 18 45t43 17t42.5 -18t17.5 -43v-46q21 -12 51 -12t51 12zM23 0v43l65 31v560l-65 26v40h290v-40l-65 -29v-440l278 423v20l-65 26v40h290v-40l-65 -29v-566
l65 -25v-40h-290v43l65 31v435l-278 -424v-20l65 -25v-40h-290z" />
    <glyph glyph-name="afii10028" unicode="&#x41a;" horiz-adv-x="741" 
d="M713 79l15 -16q-35 -39 -64 -54.5t-77 -15.5q-60 0 -94.5 27.5t-50.5 89.5l-32 131q-14 53 -44.5 74.5t-87.5 21.5h-32v-272l65 -25v-40h-289v43l65 31v560l-65 26v40h289v-40l-65 -29v-243q67 0 100.5 23t48.5 76l29 99q18 61 52 91t90 30q48 0 75 -21t27 -60
q0 -31 -16.5 -51t-45.5 -20q-28 0 -46.5 16.5t-18.5 45.5v15q-3 3 -9 3q-41 0 -64 -83l-24 -89q-15 -56 -50 -85q80 -7 121.5 -35t55.5 -83l31 -128q11 -41 25.5 -57t36.5 -16q31 0 49 20z" />
    <glyph glyph-name="afii10029" unicode="&#x41b;" horiz-adv-x="762" 
d="M189 185l47 458l-65 21v36h568v-36l-65 -25v-574l65 -25v-40h-290v43l65 31v574h-214l-46 -457q-18 -196 -135 -196q-41 0 -67.5 20t-26.5 56q0 30 16 48.5t45 18.5q25 0 41.5 -14.5t16.5 -38.5v-16q4 -2 7 -2q24 0 38 118z" />
    <glyph glyph-name="afii10030" unicode="&#x41c;" horiz-adv-x="965" 
d="M908 660l-65 -29l43 -566l65 -25v-40h-289v43l65 31l-33 443l-228 -517h-71l-229 517l-35 -469l65 -26v-22h-182v26l65 30l43 578l-65 26v40h190l234 -545l239 545h188v-40z" />
    <glyph glyph-name="afii10031" unicode="&#x41d;" horiz-adv-x="788" 
d="M23 0v43l65 31v560l-65 26v40h290v-40l-65 -29v-252h292v255l-65 26v40h290v-40l-65 -29v-566l65 -25v-40h-290v43l65 31v253h-292v-262l65 -25v-40h-290z" />
    <glyph glyph-name="afii10032" unicode="&#x41e;" horiz-adv-x="770" 
d="M136 89q-94 97 -94 261q0 165 94 260q94 97 249 97t249 -97q95 -97 95 -260t-95 -261q-94 -96 -249 -96t-249 96zM209 350q0 -148 47 -226.5t130 -78.5q81 0 128 78.5t47 226.5q0 149 -47 227t-128 78q-83 0 -130 -78t-47 -227z" />
    <glyph glyph-name="afii10033" unicode="&#x41f;" horiz-adv-x="765" 
d="M23 0v43l65 31v569l-65 21v36h719v-36l-65 -25v-574l65 -25v-40h-290v43l65 31v574h-269v-583l65 -25v-40h-290z" />
    <glyph glyph-name="afii10034" unicode="&#x420;" horiz-adv-x="652" 
d="M318 648h-70v-578l95 -30v-40h-320v43l65 31v569l-65 21v36h312q121 0 197 -56q75 -56 75 -151t-75 -150q-76 -56 -197 -56h-39l-17 17v35h39q121 0 121 154q0 155 -121 155z" />
    <glyph glyph-name="afii10035" unicode="&#x421;" horiz-adv-x="701" 
d="M630 138l33 -34q-111 -111 -273 -111q-159 0 -254 95q-94 95 -94 258q0 166 96 263q96 98 255 98q103 0 182 -39l49 20l17 -17l17 -152h-54q-57 132 -190 132q-205 0 -205 -295q0 -293 228 -293q119 0 193 75z" />
    <glyph glyph-name="afii10036" unicode="&#x422;" horiz-adv-x="677" 
d="M601 551l-45 97h-137v-583l65 -25v-40h-290v43l65 31v574h-138l-44 -104h-54l14 156h604l14 -149h-54z" />
    <glyph glyph-name="afii10037" unicode="&#x423;" horiz-adv-x="700" 
d="M323 202l-250 436l-64 22v40h292v-40l-63 -22l162 -299l167 299l-81 22v40h205v-40l-63 -22l-225 -398q-84 -151 -127 -200q-41 -47 -101 -47q-48 0 -77 22.5t-29 64.5q0 34 18.5 51.5t47.5 17.5t47 -18.5t18 -45.5v-30q4 -2 8 -2q17 0 43 33.5t72 115.5z" />
    <glyph glyph-name="afii10038" unicode="&#x424;" horiz-adv-x="923" 
d="M606 660l-65 -29v-25q156 0 247 -67q93 -67 93 -186t-93 -186q-92 -66 -247 -66v-36l65 -25v-40h-289v43l65 31v27q-156 0 -248 66q-92 68 -92 187t92 185q92 67 248 67v28l-65 26v40h289v-40zM382 152v403q-173 0 -173 -202q0 -201 173 -201zM541 555v-403q82 0 127 50
t45 151q0 202 -172 202z" />
    <glyph glyph-name="afii10039" unicode="&#x425;" horiz-adv-x="744" 
d="M433 40l65 22l-172 238l-180 -238l72 -22v-40h-206v40l69 22l216 277l-216 299l-62 22v40h300v-40l-65 -22l159 -221l167 221l-72 22v40h206v-40l-70 -22l-203 -260l229 -316l62 -22v-40h-299v40z" />
    <glyph glyph-name="afii10040" unicode="&#x426;" horiz-adv-x="772" 
d="M692 -139l-34 139h-635v36l65 21v577l-65 26v40h290v-40l-65 -29v-579h266v582l-65 26v40h289v-40l-65 -29v-579h77v-191h-58z" />
    <glyph glyph-name="afii10041" unicode="&#x427;" horiz-adv-x="740" 
d="M312 660l-64 -29v-175q0 -116 104 -116q34 0 74.5 10t66.5 27v257l-65 26v40h289v-40l-65 -29v-566l65 -25v-40h-289v43l65 31v254q-35 -21 -100 -37q-64 -14 -113 -14q-93 0 -142.5 49t-49.5 128v180l-65 26v40h289v-40z" />
    <glyph glyph-name="afii10042" unicode="&#x428;" horiz-adv-x="1098" 
d="M23 0v36l65 21v577l-65 26v40h290v-40l-65 -29v-579h221v582l-65 26v40h290v-40l-65 -29v-579h222v582l-65 26v40h289v-40l-65 -29v-574l65 -21v-36h-1052z" />
    <glyph glyph-name="afii10043" unicode="&#x429;" horiz-adv-x="1109" 
d="M1029 -139l-34 139h-972v36l65 21v577l-65 26v40h290v-40l-65 -29v-579h221v582l-65 26v40h290v-40l-65 -29v-579h222v582l-65 26v40h289v-40l-65 -29v-579h77v-191h-58z" />
    <glyph glyph-name="afii10044" unicode="&#x42a;" horiz-adv-x="816" 
d="M465 664l-65 -25v-243h102q122 0 197 -54q76 -52 76 -144q0 -91 -76 -145q-76 -53 -197 -53h-327v36l65 21v591h-119l-44 -104h-54l14 156h428v-36zM400 344v-292h85q58 0 90 36.5t32 109.5t-32 109.5t-90 36.5h-85z" />
    <glyph glyph-name="afii10045" unicode="&#x42b;" horiz-adv-x="958" 
d="M313 660l-65 -29v-235h102q122 0 197 -54q75 -52 75 -144q0 -91 -75 -145q-76 -53 -197 -53h-327v36l65 21v577l-65 26v40h290v-40zM248 344v-292h85q121 0 121 146t-121 146h-85zM935 660l-65 -29v-566l65 -25v-40h-290v43l65 31v560l-65 26v40h290v-40z" />
    <glyph glyph-name="afii10046" unicode="&#x42c;" horiz-adv-x="664" 
d="M313 660l-65 -29v-235h102q122 0 197 -54q75 -52 75 -144q0 -91 -75 -145q-76 -53 -197 -53h-327v36l65 21v577l-65 26v40h290v-40zM248 344v-292h85q121 0 121 146t-121 146h-85z" />
    <glyph glyph-name="afii10047" unicode="&#x42d;" horiz-adv-x="701" 
d="M502 331h-293v52h293q-10 268 -200 268q-140 0 -194 -132h-54l17 150l17 17l47 -18q79 39 183 39q159 0 255 -97q97 -97 97 -261q0 -165 -97 -261q-98 -95 -258 -95q-103 0 -186 39l-48 -18l-17 17l-17 150h54q28 -68 80 -100t117 -32q196 0 204 282z" />
    <glyph glyph-name="afii10048" unicode="&#x42e;" horiz-adv-x="1051" 
d="M23 0v43l65 31v560l-65 26v40h290v-40l-65 -29v-252h120q9 150 96 239t224 89q144 0 232 -97q89 -97 89 -260t-89 -261q-88 -96 -232 -96q-138 0 -226 90q-86 89 -94 244h-120v-262l65 -25v-40h-290zM535 350q0 -148 41.5 -226.5t112.5 -78.5t111.5 78.5t40.5 226.5
q0 149 -40.5 227t-111.5 78q-72 0 -113 -78t-41 -227z" />
    <glyph glyph-name="afii10049" unicode="&#x42f;" horiz-adv-x="710" 
d="M11 63l15 16q18 -20 49 -20q19 0 31 14t24 53l42 121q21 64 77 87q-74 20 -116 66.5t-42 110.5q0 86 73 137q73 52 192 52h331v-36l-65 -25v-574l65 -25v-40h-290v43l65 31v239h-28q-43 0 -69 -20.5t-41 -68.5l-37 -124q-18 -57 -50 -82t-86 -25q-47 0 -76 15.5t-64 54.5
zM462 366v282h-78q-59 0 -92 -35.5t-33 -106.5q0 -140 125 -140h78z" />
    <glyph glyph-name="afii10065" unicode="&#x430;" horiz-adv-x="544" 
d="M313 46l-3 4q-62 -55 -160 -55q-112 0 -112 105q-8 63 60 102q14 10 54 22l67 19l91 22v75q0 73 -72 73q-27 0 -63 -17v-51q0 -25 -17.5 -43t-42.5 -18t-43 17.5t-18 46.5q0 53 56 85t147 32q94 0 150 -36t56 -94v-263q0 -20 16 -20q15 0 27 12l15 -16q-53 -51 -138 -51
q-33 0 -49.5 11t-20.5 38zM310 95v120q-81 -21 -108 -38q-25 -16 -25 -61q0 -58 51 -58q49 0 82 37z" />
    <glyph glyph-name="afii10066" unicode="&#x431;" horiz-adv-x="563" 
d="M151 417h4q49 48 137 48q110 0 174 -63t64 -172t-65.5 -172t-179.5 -63q-119 0 -178.5 75t-59.5 234q0 109 27 187q28 78 69 119q41 40 95 66q54 28 99 35q120 24 144 48l17 -18q-12 -76 -51 -105t-103 -38q-9 -1 -27.5 -3.5t-28 -3.5t-26.5 -4.5t-26 -7.5t-22.5 -11
t-21 -16t-17 -22t-14 -29t-7.5 -37t-3 -47zM200 230q0 -89 23 -135.5t65 -46.5t65.5 46.5t23.5 135.5q0 90 -23.5 136.5t-65.5 46.5q-88 0 -88 -183z" />
    <glyph glyph-name="afii10067" unicode="&#x432;" horiz-adv-x="553" 
d="M23 421v39h303q83 0 133.5 -32t50.5 -86q0 -73 -87 -103q104 -32 104 -113q0 -57 -55 -91.5t-146 -34.5h-303v39l60 23v336zM294 212h-59v-160h59q37 0 58 20.5t21 59.5t-21 59.5t-58 20.5zM235 408v-144h59q28 0 45 18.5t17 53.5t-16.5 53.5t-45.5 18.5h-59z" />
    <glyph glyph-name="afii10068" unicode="&#x433;" horiz-adv-x="474" 
d="M393 321l-30 87h-128v-342l94 -26v-40h-306v43l60 27v337l-60 17v36h424v-139h-54z" />
    <glyph glyph-name="afii10069" unicode="&#x434;" horiz-adv-x="582" 
d="M503 -124l-34 124h-355l-35 -124h-54v176h71q32 27 42 133l23 222l-59 17v36h453v-36l-60 -21v-351h62v-176h-54zM343 408h-126l-22 -217q-7 -92 -36 -139h184v356z" />
    <glyph glyph-name="afii10070" unicode="&#x435;" horiz-adv-x="517" 
d="M474 251l-17 -17h-271q1 -94 33 -134.5t99 -40.5q81 0 124 43l32 -32q-75 -75 -196 -75q-112 0 -179 64t-67 171q0 109 69 172t172 63q93 0 149 -49q57 -50 57 -125q0 -23 -5 -40zM279 413q-36 0 -62 -37t-31 -95l167 10q0 58 -20 90t-54 32z" />
    <glyph glyph-name="afii10072" unicode="&#x436;" horiz-adv-x="882" 
d="M714 376v14q-4 2 -9 2q-17 0 -35 -46l-20 -48q-9 -23 -19 -37q61 -4 92.5 -22.5t43.5 -59.5l27 -92q6 -22 12.5 -29.5t16.5 -7.5q17 0 29 12l15 -15q-43 -52 -116 -52q-87 0 -108 78l-21 85q-14 53 -89 53h-16v-149l60 -22v-40h-272v43l60 27v141h-16q-75 0 -89 -53
l-22 -85q-20 -78 -108 -78q-72 0 -115 52l15 15q12 -12 29 -12q10 0 16.5 7.5t12.5 29.5l27 92q11 40 42.5 58.5t92.5 23.5q-11 15 -18 37l-20 48q-18 46 -35 46q-5 0 -9 -2v-14q0 -22 -16 -35.5t-40 -13.5q-26 0 -41.5 18.5t-15.5 46.5q0 35 24 53.5t66 18.5q41 0 65.5 -19
t42.5 -62l26 -63q13 -31 30.5 -43.5t55.5 -12.5v134l-60 22v40h272v-40l-60 -26v-130q38 0 55 12.5t30 43.5l27 63q19 43 43 62t65 19q42 0 66 -18.5t24 -53.5q0 -28 -15.5 -46.5t-41.5 -18.5q-24 0 -40 13.5t-16 35.5z" />
    <glyph glyph-name="afii10073" unicode="&#x437;" horiz-adv-x="477" 
d="M162 210v61q33 -5 50 -5q69 0 69 73q0 74 -66 74q-38 0 -65.5 -24t-36.5 -72h-54v125l13 13l17 -16q64 26 136 26q94 0 152 -33t58 -89q0 -74 -88 -102q104 -32 104 -114q0 -60 -62 -96q-61 -36 -157 -36q-88 0 -141 28t-53 76q0 26 17 42t40 16q24 0 41 -17t17 -41v-37
q29 -15 63 -15q81 0 81 84q0 83 -83 83q-20 0 -52 -4z" />
    <glyph glyph-name="afii10074" unicode="&#x438;" horiz-adv-x="634" 
d="M23 0v43l60 27v328l-60 22v40h265v-40l-53 -22v-197l-3 -43l3 -3l163 228v15l-53 22v40h266v-40l-60 -26v-332l60 -22v-40h-266v40l53 27v192l3 43l-3 3l-163 -228v-15l53 -22v-40h-265z" />
    <glyph glyph-name="afii10075" unicode="&#x439;" horiz-adv-x="634" 
d="M368 583v46q0 25 18 43t43 18q24 0 42 -17.5t18 -45.5q0 -47 -50 -76q-49 -28 -122 -28q-74 0 -123 28t-49 76q0 29 18 46t43 17t42.5 -18t17.5 -43v-46q51 -28 102 0zM23 0v43l60 27v328l-60 22v40h265v-40l-53 -22v-197l-3 -43l3 -3l163 228v15l-53 22v40h266v-40
l-60 -26v-332l60 -22v-40h-266v40l53 27v192l3 43l-3 3l-163 -228v-15l53 -22v-40h-265z" />
    <glyph glyph-name="afii10076" unicode="&#x43a;" horiz-adv-x="613" 
d="M446 376v14q-4 2 -10 2q-16 0 -37 -46l-22 -48q-9 -21 -20 -38q63 -5 96 -23.5t44 -57.5l23 -84q7 -26 14 -35.5t19 -9.5q17 0 30 12l15 -15q-46 -52 -120 -52q-90 0 -109 78l-23 85q-14 53 -94 53h-17v-149l60 -22v-40h-272v43l60 27v328l-60 22v40h272v-40l-60 -26
v-130q38 0 57 12.5t34 43.5l28 63q19 43 44 62t68 19t68 -18.5t25 -53.5q0 -28 -15.5 -46.5t-41.5 -18.5q-24 0 -40 13.5t-16 35.5z" />
    <glyph glyph-name="afii10077" unicode="&#x43b;" horiz-adv-x="608" 
d="M181 185l23 222l-59 17v36h439v-36l-60 -21v-341l60 -22v-40h-261v40l49 27v341h-112l-22 -217q-10 -114 -43 -155t-83 -41q-40 0 -64 19t-24 54q0 28 15.5 46t41.5 18q24 0 40 -13.5t16 -35.5v-14q2 -2 7 -2q6 0 12 8.5t13.5 37t11.5 72.5z" />
    <glyph glyph-name="afii10078" unicode="&#x43c;" horiz-adv-x="721" 
d="M685 420l-60 -26l21 -332l60 -22v-40h-272v43l60 27l-16 235l-133 -305h-64l-136 305l-17 -257l60 -22v-26h-173v29l60 27l22 342l-60 22v40h193l127 -306l135 306h193v-40z" />
    <glyph glyph-name="afii10079" unicode="&#x43d;" horiz-adv-x="629" 
d="M23 0v43l60 27v328l-60 22v40h262v-40l-50 -22v-139h158v139l-49 22v40h261v-40l-60 -26v-332l60 -22v-40h-261v40l49 27v140h-158v-145l50 -22v-40h-262z" />
    <glyph glyph-name="afii10080" unicode="&#x43e;" horiz-adv-x="553" 
d="M100 58q-67 64 -67 172t67 171q67 64 177 64q109 0 176 -64q67 -63 67 -171t-67 -172q-67 -63 -176 -63t-177 63zM187 230q0 -89 23.5 -135.5t66.5 -46.5q42 0 66 46.5t24 135.5q0 90 -24 136.5t-66 46.5q-43 0 -66.5 -46t-23.5 -137z" />
    <glyph glyph-name="afii10081" unicode="&#x43f;" horiz-adv-x="629" 
d="M23 0v43l60 27v337l-60 17v36h582v-36l-60 -21v-341l60 -22v-40h-261v40l49 27v341h-158v-346l50 -22v-40h-262z" />
    <glyph glyph-name="afii10082" unicode="&#x440;" horiz-adv-x="589" 
d="M329 -250h-306v43l60 27v550l-51 25v48l186 26l17 -18l-2 -38l3 -3q52 55 142 55q84 0 131 -65t47 -164q0 -114 -62 -177.5t-173 -63.5q-49 0 -86 15v-194l94 -26v-40zM235 364v-298q28 -22 69 -22q98 0 98 183q0 174 -88 174q-48 0 -79 -37z" />
    <glyph glyph-name="afii10083" unicode="&#x441;" horiz-adv-x="516" 
d="M355 339v59q-27 15 -61 15q-107 0 -107 -169q0 -96 33 -140.5t100 -44.5q79 0 122 43l32 -32q-76 -75 -198 -75q-110 0 -177 63q-66 63 -66 173q0 109 67 171.5t184 62.5q86 0 139 -32.5t53 -87.5q0 -31 -17.5 -49t-42.5 -18t-43 18t-18 43z" />
    <glyph glyph-name="afii10084" unicode="&#x442;" horiz-adv-x="538" 
d="M457 321l-31 87h-81v-346l60 -22v-40h-272v43l60 27v338h-82l-30 -87h-54v139h484v-139h-54z" />
    <glyph glyph-name="afii10085" unicode="&#x443;" horiz-adv-x="576" 
d="M258 -6l-191 404l-60 22v40h272v-40l-58 -22l113 -243l116 243l-77 22v40h195v-40l-58 -22l-188 -398q-78 -164 -110 -207q-33 -47 -89 -47q-44 0 -70.5 22.5t-26.5 62.5q0 32 19 50.5t47 18.5t46.5 -16.5t18.5 -42.5v-23q2 -2 7 -2q13 0 32 37q22 42 62 141z" />
    <glyph glyph-name="afii10086" unicode="&#x444;" horiz-adv-x="800" 
d="M473 433l3 -3q49 35 115 35q85 0 130 -64q46 -64 46 -164q0 -115 -60 -178.5t-167 -63.5q-32 0 -64 9v-192l60 -22v-40h-272v43l60 27v180l3 26l-3 3q-47 -34 -116 -34q-83 0 -130 63q-45 65 -45 164q0 115 60.5 179t166.5 64q30 0 64 -9v203l-52 26v48l187 25l17 -17
v-281zM272 59q30 0 52 15v329q-20 10 -45 10q-92 0 -92 -183q0 -171 85 -171zM529 401q-31 0 -53 -16v-332q21 -9 45 -9q92 0 92 184q0 173 -84 173z" />
    <glyph glyph-name="afii10087" unicode="&#x445;" horiz-adv-x="578" 
d="M285 40l58 22l-96 119l-100 -119l69 -22v-40h-196v40l63 22l133 157l-146 179l-48 22v40h272v-40l-58 -22l91 -113l96 113l-69 22v40h197v-40l-63 -22l-130 -150l150 -186l49 -22v-40h-272v40z" />
    <glyph glyph-name="afii10088" unicode="&#x446;" horiz-adv-x="629" 
d="M550 -124l-34 124h-493v39l60 23v336l-60 22v40h262v-40l-50 -26v-342h155v346l-49 22v40h261v-40l-60 -26v-342h62v-176h-54z" />
    <glyph glyph-name="afii10089" unicode="&#x447;" horiz-adv-x="618" 
d="M280 420l-45 -22v-92q0 -81 61 -81q21 0 46 10t40 27v136l-45 22v40h257v-40l-60 -26v-332l60 -22v-40h-262v40l50 27v146q-27 -23 -73 -37t-87 -14q-66 0 -102.5 39.5t-36.5 101.5v95l-60 22v40h257v-40z" />
    <glyph glyph-name="afii10090" unicode="&#x448;" horiz-adv-x="892" 
d="M370 52v346l-46 22v40h244v-40l-46 -26v-342h135v346l-46 22v40h258v-40l-60 -26v-341l60 -17v-36h-846v39l60 23v336l-60 22v40h258v-40l-46 -26v-342h135z" />
    <glyph glyph-name="afii10091" unicode="&#x449;" horiz-adv-x="896" 
d="M817 -124l-35 124h-759v39l60 23v336l-60 22v40h258v-40l-46 -26v-342h135v346l-46 22v40h244v-40l-46 -26v-342h135v346l-46 22v40h258v-40l-60 -26v-342h62v-176h-54z" />
    <glyph glyph-name="afii10092" unicode="&#x44a;" horiz-adv-x="640" 
d="M26 460h370v-40l-60 -26v-116h83q87 0 140.5 -38t53.5 -101t-53.5 -101t-140.5 -38h-296v39l60 23v346h-72l-31 -87h-54v139zM387 226h-51v-174h51q34 0 53.5 22.5t19.5 64.5t-19.5 64.5t-53.5 22.5z" />
    <glyph glyph-name="afii10093" unicode="&#x44b;" horiz-adv-x="816" 
d="M319 0h-296v39l60 23v336l-60 22v40h272v-40l-60 -26v-116h84q87 0 140.5 -38t53.5 -101t-53.5 -101t-140.5 -38zM287 226h-52v-174h52q34 0 53 22.5t19 64.5t-19 64.5t-53 22.5zM793 420l-60 -26v-332l60 -22v-40h-273v43l60 27v328l-60 22v40h273v-40z" />
    <glyph glyph-name="afii10094" unicode="&#x44c;" horiz-adv-x="538" 
d="M319 0h-296v39l60 23v336l-60 22v40h272v-40l-60 -26v-116h84q87 0 140.5 -38t53.5 -101t-53.5 -101t-140.5 -38zM287 226h-52v-174h52q34 0 53 22.5t19 64.5t-19 64.5t-53 22.5z" />
    <glyph glyph-name="afii10095" unicode="&#x44d;" horiz-adv-x="511" 
d="M324 211h-161v52h160q-7 150 -111 150q-84 0 -101 -96h-54v125l13 13l16 -16q63 26 133 26q120 0 189.5 -62.5t69.5 -173.5q0 -108 -67 -171t-183 -63q-84 0 -137 28q-53 29 -53 77q0 27 17 43t40 16q24 0 41 -17.5t17 -40.5v-38q28 -16 64 -16q104 0 107 164z" />
    <glyph glyph-name="afii10096" unicode="&#x44e;" horiz-adv-x="815" 
d="M23 0v43l60 27v328l-60 22v40h262v-40l-50 -22v-139h77q9 95 72.5 150.5t161.5 55.5q107 0 171 -64q65 -63 65 -171q0 -107 -65 -172q-65 -63 -171 -63q-100 0 -164 57t-71 155h-76v-145l50 -22v-40h-262zM464 230q0 -89 21.5 -135.5t60.5 -46.5t60.5 46.5t21.5 135.5
q0 183 -82 183t-82 -183z" />
    <glyph glyph-name="afii10097" unicode="&#x44f;" horiz-adv-x="589" 
d="M11 47l15 15q12 -12 30 -12q11 0 17 7.5t14 31.5l20 59q19 57 91 72q-60 12 -93.5 42.5t-33.5 74.5q0 57 54 90t142 33h299v-36l-60 -21v-341l60 -22v-40h-273v40l60 27v129h-16q-38 0 -58.5 -10.5t-29.5 -39.5l-23 -77q-21 -74 -104 -74q-68 0 -111 52zM299 248h54v160
h-54q-35 0 -54.5 -20.5t-19.5 -59.5t19.5 -59.5t54.5 -20.5z" />
    <glyph glyph-name="uni0450" unicode="&#x450;" horiz-adv-x="517" 
d="M474 251l-17 -17h-271q1 -94 33 -134.5t99 -40.5q81 0 124 43l32 -32q-75 -75 -196 -75q-112 0 -179 64t-67 171q0 109 69 172t172 63q93 0 149 -49q57 -50 57 -125q0 -23 -5 -40zM279 413q-36 0 -62 -37t-31 -95l167 10q0 58 -20 90t-54 32zM134 606l89 90l151 -167
l-27 -27z" />
    <glyph glyph-name="afii10071" unicode="&#x451;" horiz-adv-x="517" 
d="M474 251l-17 -17h-271q1 -94 33 -134.5t99 -40.5q81 0 124 43l32 -32q-75 -75 -196 -75q-112 0 -179 64t-67 171q0 109 69 172t172 63q93 0 149 -49q57 -50 57 -125q0 -23 -5 -40zM279 413q-36 0 -62 -37t-31 -95l167 10q0 58 -20 90t-54 32zM77 577q0 32 21 53t54 21
t53.5 -21t20.5 -53q0 -33 -20.5 -54t-53.5 -21t-54 21t-21 54zM300 577q0 32 21 53t54 21t53.5 -21t20.5 -53q0 -33 -20.5 -54t-53.5 -21t-54 21t-21 54z" />
    <glyph glyph-name="afii10099" unicode="&#x452;" horiz-adv-x="636" 
d="M23 0v43l60 27v481h-60v35l60 17v65l-60 26v39l195 26l17 -18v-138h181v-52h-181v-91l-2 -49l3 -3q27 26 70 41.5t86 15.5q76 0 118 -49q42 -50 42 -120v-296q0 -78 -48.5 -144.5t-138.5 -114.5l-32 32q33 38 50 99t17 128v286q0 55 -19 85t-53 30q-22 0 -48.5 -11
t-44.5 -29v-299l60 -22v-40h-272z" />
    <glyph glyph-name="afii10100" unicode="&#x453;" horiz-adv-x="474" 
d="M393 321l-30 87h-128v-342l94 -26v-40h-306v43l60 27v337l-60 17v36h424v-139h-54zM168 502l-27 27l151 167l89 -90z" />
    <glyph glyph-name="afii10101" unicode="&#x454;" horiz-adv-x="511" 
d="M33 230q0 110 70 172.5t190 62.5q69 0 132 -26l16 16l13 -13v-125h-54q-27 96 -101 96q-103 0 -111 -150h193v-52h-194q9 -152 131 -152q79 0 122 43l31 -32q-75 -75 -195 -75q-110 0 -177 63q-66 63 -66 172z" />
    <glyph glyph-name="afii10102" unicode="&#x455;" horiz-adv-x="443" 
d="M51 3l-14 13v121h55q26 -90 106 -90q36 0 58 16t22 50q0 23 -16.5 33.5t-71.5 26.5l-39 11l-34 13q-26 11 -35 19q-53 41 -48 105q0 143 182 143q77 0 134 -25l16 15l14 -13v-116h-54q-26 87 -91 87q-32 0 -51.5 -17t-19.5 -44q0 -24 15 -34.5t63 -25.5q26 -7 36 -12
q41 -10 65 -27q37 -22 47 -43q18 -34 18 -71q0 -143 -207 -143q-71 0 -134 23z" />
    <glyph glyph-name="afii10103" unicode="&#x456;" 
d="M295 0h-272v43l60 27v300l-51 25v48l186 26l17 -18v-389l60 -22v-40zM65 606q0 39 24.5 63.5t63.5 24.5t63.5 -24.5t24.5 -63.5q0 -40 -24.5 -64t-63.5 -24t-63.5 24t-24.5 64z" />
    <glyph glyph-name="afii10104" unicode="&#x457;" 
d="M295 0h-272v43l60 27v300l-51 25v48l186 26l17 -18v-389l60 -22v-40zM11 543q-21 21 -21 54t21 53q21 21 54 21t53 -21q21 -20 21 -53t-21 -54q-20 -21 -53 -21t-54 21zM249 671q32 0 53 -20.5t21 -53.5t-21 -54t-53 -21q-33 0 -54 21t-21 54t21 53.5t54 20.5z" />
    <glyph glyph-name="afii10105" unicode="&#x458;" 
d="M83 0v370l-51 25v48l186 26l17 -18v-451q0 -78 -48.5 -145t-138.5 -114l-32 32q33 38 50 99t17 128zM65 606q0 39 24.5 63.5t63.5 24.5t63.5 -24.5t24.5 -63.5q0 -40 -24.5 -64t-63.5 -24t-63.5 24t-24.5 64z" />
    <glyph glyph-name="afii10106" unicode="&#x459;" horiz-adv-x="829" 
d="M609 0h-297v39l60 23v346h-112l-22 -217q-10 -114 -43 -155t-83 -41q-40 0 -64 19t-24 54q0 28 15.5 46t41.5 18q24 0 40 -13.5t16 -35.5v-14q2 -2 7 -2q6 0 12 8.5t13.5 37t11.5 72.5l23 222l-59 17v36h439v-36l-60 -21v-125h85q87 0 140.5 -38t53.5 -101t-53.5 -101
t-140.5 -38zM577 226h-53v-174h53q34 0 53.5 22.5t19.5 64.5t-19.5 64.5t-53.5 22.5z" />
    <glyph glyph-name="afii10107" unicode="&#x45a;" horiz-adv-x="850" 
d="M630 0h-286v40l49 27v140h-158v-145l50 -22v-40h-262v43l60 27v328l-60 22v40h262v-40l-50 -22v-139h158v139l-49 22v40h261v-40l-60 -26v-135h85q88 0 141 -35t53 -95q0 -59 -53 -94t-141 -35zM598 207h-53v-155h53q34 0 53.5 19.5t19.5 57.5t-19.5 58t-53.5 20z" />
    <glyph glyph-name="afii10108" unicode="&#x45b;" horiz-adv-x="636" 
d="M23 586l60 17v65l-60 26v39l195 26l17 -18v-138h181v-52h-181v-91l-2 -49l3 -3q27 26 70 41.5t86 15.5q76 0 118 -49q42 -50 42 -120v-234l60 -22v-40h-265v43l53 27v216q0 55 -19 85t-53 30q-22 0 -48.5 -11t-44.5 -29v-299l53 -22v-40h-265v43l60 27v481h-60v35z" />
    <glyph glyph-name="afii10109" unicode="&#x45c;" horiz-adv-x="613" 
d="M446 376v14q-4 2 -10 2q-16 0 -37 -46l-22 -48q-9 -21 -20 -38q63 -5 96 -23.5t44 -57.5l23 -84q7 -26 14 -35.5t19 -9.5q17 0 30 12l15 -15q-46 -52 -120 -52q-90 0 -109 78l-23 85q-14 53 -94 53h-17v-149l60 -22v-40h-272v43l60 27v328l-60 22v40h272v-40l-60 -26
v-130q38 0 57 12.5t34 43.5l28 63q19 43 44 62t68 19t68 -18.5t25 -53.5q0 -28 -15.5 -46.5t-41.5 -18.5q-24 0 -40 13.5t-16 35.5zM233 502l-27 27l150 167l90 -90z" />
    <glyph glyph-name="uni045D" unicode="&#x45d;" horiz-adv-x="634" 
d="M177 606l89 90l151 -167l-27 -27zM23 0v43l60 27v328l-60 22v40h265v-40l-53 -22v-197l-3 -43l3 -3l163 228v15l-53 22v40h266v-40l-60 -26v-332l60 -22v-40h-266v40l53 27v192l3 43l-3 3l-163 -228v-15l53 -22v-40h-265z" />
    <glyph glyph-name="afii10110" unicode="&#x45e;" horiz-adv-x="576" 
d="M349 583v46q0 25 18 43t43 18t42.5 -17t17.5 -46q0 -47 -50 -76q-49 -28 -121 -28q-74 0 -123 28t-49 76q0 29 18 46t43 17q24 0 42 -18t18 -43v-46q22 -13 51 -13q28 0 50 13zM258 -6l-191 404l-60 22v40h272v-40l-58 -22l113 -243l116 243l-77 22v40h195v-40l-58 -22
l-188 -398q-78 -164 -110 -207q-33 -47 -89 -47q-44 0 -70.5 22.5t-26.5 62.5q0 32 19 50.5t47 18.5t46.5 -16.5t18.5 -42.5v-23q2 -2 7 -2q13 0 32 37q22 42 62 141z" />
    <glyph glyph-name="afii10193" unicode="&#x45f;" horiz-adv-x="628" 
d="M287 -124l-17 124h-247v39l60 23v336l-60 22v40h262v-40l-50 -26v-342h158v346l-49 22v40h261v-40l-60 -26v-341l60 -17v-36h-247l-17 -124h-54z" />
    <glyph glyph-name="afii10050" unicode="&#x490;" horiz-adv-x="554" 
d="M23 664v36h405l45 97h54l-14 -149h-265v-578l95 -30v-40h-320v43l65 31v569z" />
    <glyph glyph-name="afii10098" unicode="&#x491;" horiz-adv-x="444" 
d="M417 547v-139h-182v-342l94 -26v-40h-306v43l60 27v337l-60 17v36h310l30 87h54z" />
    <glyph glyph-name="uni04D8" unicode="&#x4d8;" horiz-adv-x="736" 
d="M107 562l-34 34q111 111 273 111q160 0 254 -96q95 -95 95 -257q0 -167 -97 -264q-96 -97 -253 -97q-134 0 -219 71q-84 72 -84 180q0 36 7 60l25 25h452q2 63 -7.5 115.5t-34 97t-72 70t-113.5 25.5q-120 0 -192 -75zM523 277l-337 -25q0 -94 39 -148.5t110 -54.5
q74 0 125.5 58.5t62.5 169.5z" />
    <glyph glyph-name="afii10846" unicode="&#x4d9;" horiz-adv-x="517" 
d="M42 214l18 17h271q-1 89 -32.5 129.5t-95.5 40.5q-76 0 -119 -43l-32 32q77 75 191 75q107 0 174 -65q67 -64 67 -171q0 -109 -69 -172q-68 -62 -171 -62q-91 0 -149 50q-57 49 -57 128q0 26 4 41zM238 47q36 0 62 38.5t31 98.5l-167 -10q0 -60 20 -93.5t54 -33.5z" />
    <glyph glyph-name="Wgrave" unicode="&#x1e80;" horiz-adv-x="1194" 
d="M849 0h-71l-185 438l-179 -438h-71l-272 634l-65 26v40h290v-40l-65 -26l198 -479l136 346l-59 133l-65 26v40h291v-40l-65 -26l198 -479l202 479l-81 26v40h202v-40l-64 -26zM461 846l89 90l151 -167l-27 -27z" />
    <glyph glyph-name="wgrave" unicode="&#x1e81;" horiz-adv-x="881" 
d="M632 0h-63l-120 272l-129 -272h-64l-189 398l-60 22v40h265v-40l-58 -22l119 -254l90 190l-29 64l-60 22v40h265v-40l-59 -22l104 -254l113 254l-76 22v40h193v-40l-59 -22zM309 606l90 90l150 -167l-26 -27z" />
    <glyph glyph-name="Wacute" unicode="&#x1e82;" horiz-adv-x="1194" 
d="M849 0h-71l-185 438l-179 -438h-71l-272 634l-65 26v40h290v-40l-65 -26l198 -479l136 346l-59 133l-65 26v40h291v-40l-65 -26l198 -479l202 479l-81 26v40h202v-40l-64 -26zM523 742l-26 27l150 167l90 -90z" />
    <glyph glyph-name="wacute" unicode="&#x1e83;" horiz-adv-x="881" 
d="M632 0h-63l-120 272l-129 -272h-64l-189 398l-60 22v40h265v-40l-58 -22l119 -254l90 190l-29 64l-60 22v40h265v-40l-59 -22l104 -254l113 254l-76 22v40h193v-40l-59 -22zM376 502l-27 27l150 167l90 -90z" />
    <glyph glyph-name="Wdieresis" unicode="&#x1e84;" horiz-adv-x="1194" 
d="M849 0h-71l-185 438l-179 -438h-71l-272 634l-65 26v40h290v-40l-65 -26l198 -479l136 346l-59 133l-65 26v40h291v-40l-65 -26l198 -479l202 479l-81 26v40h202v-40l-64 -26zM434 783q-21 21 -21 54t21 53q21 21 54 21t53 -21q21 -20 21 -53t-21 -54q-20 -21 -53 -21
t-54 21zM657 783q-20 22 -20 54q0 33 20 53q21 21 54 21t53 -21q21 -20 21 -53t-21 -54q-20 -21 -53 -21t-54 21z" />
    <glyph glyph-name="wdieresis" unicode="&#x1e85;" horiz-adv-x="881" 
d="M632 0h-63l-120 272l-129 -272h-64l-189 398l-60 22v40h265v-40l-58 -22l119 -254l90 190l-29 64l-60 22v40h265v-40l-59 -22l104 -254l113 254l-76 22v40h193v-40l-59 -22zM277 543q-20 22 -20 54q0 33 20 53q21 21 54 21t53 -21q21 -20 21 -53t-21 -54q-20 -21 -53 -21
t-54 21zM554 671q33 0 53.5 -20.5t20.5 -53.5t-20.5 -54t-53.5 -21q-32 0 -53 21t-21 54t21 53.5t53 20.5z" />
    <glyph glyph-name="Ygrave" unicode="&#x1ef2;" horiz-adv-x="702" 
d="M304 660l-65 -22l162 -288l164 288l-72 22v40h203v-40l-70 -22l-201 -349v-224l65 -25v-40h-289v43l65 31v214l-198 350l-62 22v40h298v-40zM217 846l90 90l150 -167l-27 -27z" />
    <glyph glyph-name="ygrave" unicode="&#x1ef3;" horiz-adv-x="576" 
d="M258 -6l-191 404l-60 22v40h272v-40l-58 -22l113 -243l116 243l-77 22v40h195v-40l-58 -22l-188 -398q-78 -164 -110 -207q-33 -47 -89 -47q-44 0 -70.5 22.5t-26.5 62.5q0 32 19 50.5t47 18.5t46.5 -16.5t18.5 -42.5v-23q2 -2 7 -2q13 0 32 37q22 42 62 141zM152 606
l90 90l150 -167l-27 -27z" />
    <glyph glyph-name="figuredash" unicode="&#x2012;" horiz-adv-x="503" 
d="M467 322h-431v54h431v-54z" />
    <glyph glyph-name="endash" unicode="&#x2013;" horiz-adv-x="503" 
d="M467 230h-431v54h431v-54z" />
    <glyph glyph-name="emdash" unicode="&#x2014;" horiz-adv-x="703" 
d="M667 230h-631v54h631v-54z" />
    <glyph glyph-name="quoteleft" unicode="&#x2018;" horiz-adv-x="200" 
d="M131 705l24 -24q-15 -15 -37 -47q-19 -28 -19 -40q0 -1 2 -7q31 0 50 -18t19 -48t-19.5 -49t-49.5 -19q-32 0 -51.5 20t-19.5 56q0 75 101 176z" />
    <glyph glyph-name="quoteright" unicode="&#x2019;" horiz-adv-x="200" 
d="M70 453l-24 24q19 19 36 46q19 28 19 41q0 5 -2 7q-31 0 -50 18t-19 49q0 30 19.5 48.5t50.5 18.5q32 0 51 -19.5t19 -55.5q0 -74 -100 -177z" />
    <glyph glyph-name="quotesinglbase" unicode="&#x201a;" horiz-adv-x="200" 
d="M70 -118l-24 24q20 22 36 47q19 28 19 41q0 4 -2 6q-31 0 -50 18q-19 19 -19 49t19 48q23 17 51 19t50.5 -19t19.5 -56q0 -74 -100 -177z" />
    <glyph glyph-name="quotedblleft" unicode="&#x201c;" horiz-adv-x="369" 
d="M299 705l24 -24q-15 -15 -37 -47q-18 -28 -18 -40q0 -5 2 -7q31 0 50 -18t19 -48q0 -31 -19.5 -49.5t-50.5 -18.5q-32 0 -51 20t-19 56q0 73 100 176zM131 705l24 -24q-15 -15 -37 -47q-19 -28 -19 -40q0 -1 2 -7q31 0 50 -18t19 -48t-19.5 -49t-49.5 -19q-32 0 -51.5 20
t-19.5 56q0 75 101 176z" />
    <glyph glyph-name="quotedblright" unicode="&#x201d;" horiz-adv-x="369" 
d="M70 453l-24 24q19 19 36 46q19 28 19 41q0 5 -2 7q-31 0 -50 18t-19 49q0 30 19.5 48.5t50.5 18.5q32 0 51 -19.5t19 -55.5q0 -74 -100 -177zM238 453l-24 24q19 19 36 46q19 28 19 41q0 6 -1 7q-31 0 -50 18t-19 49q0 30 19 48.5t50 18.5q32 0 51.5 -19.5t19.5 -55.5
q0 -76 -101 -177z" />
    <glyph glyph-name="quotedblbase" unicode="&#x201e;" horiz-adv-x="369" 
d="M70 -118l-24 24q20 22 36 47q19 28 19 41q0 4 -2 6q-31 0 -50 18q-19 19 -19 49t19 48q23 17 51 19t50.5 -19t19.5 -56q0 -74 -100 -177zM238 -118l-24 24q17 17 36 47q19 28 19 41q0 5 -1 6q-30 0 -49.5 18.5t-19.5 48.5q0 31 19 49t50 18q32 0 51.5 -19.5t19.5 -55.5
q0 -76 -101 -177z" />
    <glyph glyph-name="dagger" unicode="&#x2020;" horiz-adv-x="556" 
d="M259 479q-7 56 -23 109q-15 50 -15 60q0 25 16 40.5t41 15.5t40.5 -15.5t15.5 -40.5q0 -12 -15 -61q-16 -51 -23 -108q56 7 109 23q50 15 61 15q24 0 40 -16t16 -41t-16 -40.5t-40 -15.5q-11 0 -61 15q-53 16 -109 23q7 -168 23 -318q15 -141 15 -172q0 -25 -15.5 -40.5
t-40.5 -15.5t-41 15.5t-16 40.5q0 29 15 170q16 151 23 320q-56 -7 -109 -23q-50 -15 -60 -15q-25 0 -40.5 15.5t-15.5 40.5t15.5 41t40.5 16q10 0 60 -15q53 -16 109 -23z" />
    <glyph glyph-name="daggerdbl" unicode="&#x2021;" horiz-adv-x="556" 
d="M259 479q-7 56 -23 109q-15 50 -15 60q0 25 16 40.5t41 15.5t40.5 -15.5t15.5 -40.5q0 -12 -15 -61q-16 -51 -23 -108q56 7 109 23q50 15 61 15q24 0 40 -16t16 -41t-16 -40.5t-40 -15.5q-11 0 -61 15q-53 16 -109 23v-209q56 7 109 23q50 15 61 15q24 0 40 -16t16 -41
q0 -24 -16 -40t-40 -16q-11 0 -61 15q-53 16 -109 23q7 -85 23 -159q15 -71 15 -85q0 -25 -15.5 -40.5t-40.5 -15.5t-41 15.5t-16 40.5q0 14 15 84q16 74 23 160q-56 -7 -109 -23q-50 -15 -60 -15q-25 0 -40.5 15.5t-15.5 40.5t15.5 41t40.5 16q10 0 60 -15q53 -16 109 -23
v209q-56 -7 -109 -23q-50 -15 -60 -15q-25 0 -40.5 15.5t-15.5 40.5t15.5 41t40.5 16q10 0 60 -15q53 -16 109 -23z" />
    <glyph glyph-name="bullet" unicode="&#x2022;" horiz-adv-x="240" 
d="M27 300q0 41 26 67t66 26q42 0 68 -26t26 -67t-26 -66.5t-68 -25.5q-40 0 -66 26t-26 66z" />
    <glyph glyph-name="ellipsis" unicode="&#x2026;" horiz-adv-x="595" 
d="M99 134q31 0 51 -19.5t20 -50.5t-20 -50.5t-51 -19.5q-30 0 -49.5 19.5t-19.5 50.5t19.5 50.5t49.5 19.5zM246 13q-19 20 -19 51t19 50q20 20 51 20t50 -20q20 -19 20 -50t-20 -51q-19 -19 -50 -19t-51 19zM494 134q31 0 51 -19.5t20 -50.5t-20 -50.5t-51 -19.5
q-30 0 -49.5 19.5t-19.5 50.5t19.5 50.5t49.5 19.5z" />
    <glyph glyph-name="perthousand" unicode="&#x2030;" horiz-adv-x="1090" 
d="M82 392q-42 50 -42 133q0 84 42 133q43 49 111 49t110 -49q43 -49 43 -133t-43 -133q-42 -49 -110 -49t-111 49zM193 395q27 0 42 33.5t15 96.5t-15 96.5t-42 33.5q-57 0 -57 -130t57 -130zM613 700l-415 -700h-65l415 700h65zM552 357q69 0 111 -49t42 -133t-42 -133
t-111 -49t-110.5 49.5t-41.5 132.5t41.5 132.5t110.5 49.5zM553 45q27 0 42 33.5t15 96.5t-15 96.5t-42 33.5t-42.5 -33.5t-15.5 -96.5t15.5 -96.5t42.5 -33.5zM786 42q-42 49 -42 133q0 83 42 133q43 49 111 49t110 -49q43 -49 43 -133t-43 -133q-42 -49 -110 -49t-111 49z
M897 45q27 0 42 33.5t15 96.5t-15 96.5t-42 33.5t-42.5 -33.5t-15.5 -96.5t15.5 -96.5t42.5 -33.5z" />
    <glyph glyph-name="guilsinglleft" unicode="&#x2039;" horiz-adv-x="270" 
d="M210 83l-187 168v17l187 169l27 -27l-99 -151l99 -150z" />
    <glyph glyph-name="guilsinglright" unicode="&#x203a;" horiz-adv-x="270" 
d="M60 437l187 -169v-17l-187 -168l-27 26l99 151l-99 150z" />
    <glyph glyph-name="fraction" unicode="&#x2044;" horiz-adv-x="368" 
d="M367 700l-308 -700h-58l308 700h58z" />
    <glyph glyph-name="Euro" unicode="&#x20ac;" horiz-adv-x="701" 
d="M44 389h-19v54h27q25 123 116 194q91 70 225 70q105 0 186 -39h62l17 -149h-54q-57 132 -190 132q-172 0 -200 -208h287v-54h-292v-33q0 -38 1 -49h291v-53h-284q38 -191 220 -191q119 0 193 75l33 -34q-111 -111 -273 -111q-135 0 -224.5 69t-114.5 192h-26v53h18
q-1 8 -1 39q0 5 2 43z" />
    <glyph glyph-name="uni20B4" unicode="&#x20b4;" horiz-adv-x="522" 
d="M83 261h-49v53h443v-53h-252q-38 -44 -38 -98q0 -104 126 -104q93 0 141 48l32 -32q-83 -80 -215 -80q-105 0 -172 43q-66 44 -66 118q0 55 50 105zM477 386h-443v53h251q40 47 40 102q0 100 -122 100q-87 0 -133 -46l-32 32q79 78 208 78q104 0 168 -43q65 -44 65 -117
q0 -56 -50 -106h48v-53z" />
    <glyph glyph-name="uni20BD" unicode="&#x20bd;" horiz-adv-x="652" 
d="M88 162h-65v31l65 21v73h-65v32l65 20v304l-65 21v36h312q121 0 197 -56q75 -56 75 -151t-75 -150q-76 -56 -197 -56h-87v-73h182v-52h-182v-92l95 -30v-40h-320v43l65 31v88zM318 648h-70v-309h70q121 0 121 154q0 155 -121 155z" />
    <glyph glyph-name="afii61352" unicode="&#x2116;" horiz-adv-x="1084" 
d="M23 0v26l65 30v578l-65 26v40h216l334 -474v426l-65 26v22h182v-22l-65 -29v-649h-73l-412 587v-539l65 -26v-22h-182zM876 707q69 0 111 -49t42 -133t-42 -133t-111 -49t-110.5 49.5t-41.5 132.5t41.5 132.5t110.5 49.5zM877 395q27 0 42 33.5t15 96.5t-15 96.5
t-42 33.5t-42.5 -33.5t-15.5 -96.5t15.5 -96.5t42.5 -33.5zM1024 230h-295v54h295v-54z" />
    <glyph glyph-name="trademark" unicode="&#x2122;" horiz-adv-x="822" 
d="M298 621l-23 50h-57v-285l31 -14v-22h-156v25l32 16v280h-58l-23 -54h-31l7 83h302l7 -79h-31zM789 678l-32 -17l21 -275l31 -14v-22h-156v25l31 16l-14 206l-107 -247h-40l-107 247l-16 -221l32 -14v-12h-93v14l32 16l20 284l-31 14v22h105l108 -261l112 261h104v-22z
" />
    <glyph glyph-name="arrowleft" unicode="&#x2190;" horiz-adv-x="700" 
d="M220 80l-184 168v17l184 169l27 -27l-80 -123h497v-54h-497l80 -123z" />
    <glyph glyph-name="arrowup" unicode="&#x2191;" horiz-adv-x="700" 
d="M173 386l168 184h17l169 -184l-27 -26l-124 79v-497h-53v497l-124 -79z" />
    <glyph glyph-name="arrowright" unicode="&#x2192;" horiz-adv-x="700" 
d="M480 434l184 -169v-17l-184 -168l-26 27l79 123h-497v54h497l-79 123z" />
    <glyph glyph-name="arrowdown" unicode="&#x2193;" horiz-adv-x="700" 
d="M527 126l-169 -184h-17l-168 184l26 27l124 -80v497h53v-497l124 80z" />
    <glyph glyph-name="uni2196" unicode="&#x2196;" horiz-adv-x="700" 
d="M133 223l-11 250l11 12l250 -11v-38l-143 -31l351 -352l-38 -38l-351 353l-31 -144z" />
    <glyph glyph-name="uni2197" unicode="&#x2197;" horiz-adv-x="700" 
d="M316 473l250 12l12 -12l-11 -250h-38l-31 143l-352 -351l-38 38l353 351l-145 32v37z" />
    <glyph glyph-name="uni2198" unicode="&#x2198;" horiz-adv-x="700" 
d="M567 290l12 -249l-12 -13l-250 11v38l144 31l-352 352l38 38l351 -352l32 144h37z" />
    <glyph glyph-name="uni2199" unicode="&#x2199;" horiz-adv-x="700" 
d="M383 39l-250 -11l-12 12l11 249h38l31 -143l352 351l38 -38l-352 -351l144 -31v-38z" />
    <glyph glyph-name="minus" unicode="&#x2212;" horiz-adv-x="453" 
d="M417 322h-381v54h381v-54z" />
    <glyph glyph-name="commaaccent" unicode="&#xf6c3;" horiz-adv-x="200" 
d="M77 -250l-18 18q16 16 28 36q14 23 14 32q0 3 -2 5q-22 0 -36.5 14t-14.5 36q0 23 14.5 37t37.5 14t37.5 -15t14.5 -42q0 -55 -75 -135z" />
    <glyph glyph-name="dollaroldstyle" unicode="&#xf724;" horiz-adv-x="443" 
d="M204 -5l-7 -45h-47l7 47q-48 5 -90 21l-16 -15l-14 13v121h55q19 -69 74 -86l20 123q-63 19 -85 30q-33 17 -48.5 43.5t-18.5 73.5q0 143 182 143q2 0 8.5 -0.5t8.5 -0.5l8 47h47l-8 -51q33 -5 70 -20l16 15l14 -13v-116h-54q-18 60 -55 79l-19 -116q56 -17 89 -35
q34 -18 49 -43.5t18 -71.5q0 -142 -204 -143zM278 113q0 18 -10.5 28.5t-36.5 19.5l-18 -113q65 8 65 65zM164 351q0 -20 9.5 -30t33.5 -19l18 109q-28 -2 -44.5 -18.5t-16.5 -41.5z" />
    <glyph glyph-name="zerooldstyle" unicode="&#xf730;" horiz-adv-x="622" 
d="M311 467q121 0 194 -64q75 -64 75 -173t-75 -173q-73 -64 -194 -64q-122 0 -195 64q-74 65 -74 173t74 173q73 64 195 64zM312 45q50 0 78.5 47.5t28.5 137.5t-28.5 137.5t-78.5 47.5q-51 0 -80.5 -47.5t-29.5 -137.5t29.5 -137.5t80.5 -47.5z" />
    <glyph glyph-name="oneoldstyle" unicode="&#xf731;" horiz-adv-x="409" 
d="M372 0h-327v43l87 27v300h-93v47l229 52l17 -18v-389l87 -22v-40z" />
    <glyph glyph-name="twooldstyle" unicode="&#xf732;" horiz-adv-x="505" 
d="M451 0h-412v66q81 53 132 95q113 92 113 189q0 63 -65 63q-35 0 -64 -24v-64q0 -25 -18 -43t-43 -18q-26 0 -43 18t-17 52q0 59 52 94.5t145 35.5q90 0 141.5 -33t51.5 -90q0 -54 -52 -112q-23 -25 -58 -50q-28 -21 -62 -43q-23 -15 -67 -40h188l34 87h54z" />
    <glyph glyph-name="threeoldstyle" unicode="&#xf733;" horiz-adv-x="553" 
d="M358 11q0 69 -35 97t-106 28h-43v52h36q121 0 121 107q0 56 -27.5 86t-71.5 30q-40 0 -65 -25v-61q0 -25 -18 -42.5t-43 -17.5t-42.5 18t-17.5 50q0 62 60 98q62 36 153 36q101 0 163 -44q63 -43 63 -117q0 -53 -32.5 -89.5t-90.5 -52.5q76 -24 112.5 -64.5t36.5 -105.5
q0 -119 -115 -183q-116 -65 -313 -69l-34 35q309 35 309 234z" />
    <glyph glyph-name="fouroldstyle" unicode="&#xf734;" horiz-adv-x="588" 
d="M477 0v-250h-146v250h-289v34q159 224 159 426h153q0 -195 -238 -408h215v128l128 129l18 -18v-239h71v-52h-71z" />
    <glyph glyph-name="fiveoldstyle" unicode="&#xf735;" horiz-adv-x="509" 
d="M323 14q0 128 -129 128q-56 0 -100 -30l-32 32l33 316q204 0 326 17v-125h-271l-42 -187q57 30 125 30q109 0 176 -53q67 -52 67 -146q0 -116 -108 -182t-302 -72l-34 35q291 35 291 237z" />
    <glyph glyph-name="sixoldstyle" unicode="&#xf736;" horiz-adv-x="570" 
d="M187 394q52 38 127 38q101 0 162 -58t61 -155q0 -104 -69 -164q-70 -59 -174 -59q-126 0 -193.5 87.5t-67.5 242.5q0 213 123 322q114 100 291 111l35 -35q-142 -29 -216 -108t-79 -222zM187 327q0 -150 25 -214.5t77 -64.5q45 0 70 42t25 119q0 79 -29 119t-81 40
q-55 0 -87 -41z" />
    <glyph glyph-name="sevenoldstyle" unicode="&#xf737;" horiz-adv-x="536" 
d="M316 -250h-152q0 130 55 250q31 66 55 108q32 57 69 119q42 71 69 123h-281l-35 -85h-54l13 195h445v-34q-15 -45 -59 -164t-63 -176q-22 -65 -42 -161q-20 -97 -20 -175z" />
    <glyph glyph-name="eightoldstyle" unicode="&#xf738;" horiz-adv-x="605" 
d="M531 594q0 -62 -36 -104t-103 -74q83 -40 125 -82q47 -46 47 -129q0 -212 -276 -212q-246 0 -246 173q0 71 40 113t124 75q-73 39 -107.5 84.5t-34.5 115.5q0 87 58 145t190 58q108 0 163.5 -43.5t55.5 -119.5zM269 322l-16 7q-64 -70 -64 -162q0 -122 106 -122
q56 0 88 32.5t32 99.5q0 51 -28 76q-28 26 -118 69zM340 441q50 67 50 147q0 117 -88 117q-45 0 -70 -31t-25 -87t27 -83t106 -63z" />
    <glyph glyph-name="nineoldstyle" unicode="&#xf739;" horiz-adv-x="570" 
d="M382 66q-53 -38 -127 -38q-101 0 -162 58q-60 58 -60 155q0 104 70 164q71 60 176 60q124 0 191 -86t67 -238q0 -369 -425 -392l-35 35q146 21 222 89.5t83 192.5zM383 133q0 155 -25 217q-24 63 -74 63q-45 0 -71 -43t-26 -121q0 -79 28 -118t80 -39q53 0 88 41z" />
    <glyph glyph-name="CR" horiz-adv-x="333" 
 />
    <glyph glyph-name="T_h" horiz-adv-x="1196" 
d="M796 361v-299l53 -22v-40h-266v43l60 27v578h-224v-583l65 -25v-40h-290v43l65 31v574h-138l-44 -104h-54l14 156h546l196 49l17 -17v-272l-3 -49l3 -3q27 26 70 41.5t86 15.5q76 0 118 -49q43 -49 43 -120v-234l60 -22v-40h-265v43l52 27v216q0 115 -72 115
q-22 0 -48 -11t-44 -29z" />
    <glyph glyph-name="T_h.caron" horiz-adv-x="1196" 
d="M796 361v-299l53 -22v-40h-266v43l60 27v578h-224v-583l65 -25v-40h-290v43l65 31v574h-138l-44 -104h-54l14 156h546l196 49l17 -17v-272l-3 -49l3 -3q27 26 70 41.5t86 15.5q76 0 118 -49q43 -49 43 -120v-234l60 -22v-40h-265v43l52 27v216q0 115 -72 115
q-22 0 -48 -11t-44 -29zM495 909l-148 -167h-17l-148 167l26 27l130 -79l131 79z" />
    <glyph glyph-name="T_h.commaaccent" horiz-adv-x="1196" 
d="M796 361v-299l53 -22v-40h-266v43l60 27v578h-224v-583l65 -25v-40h-290v43l65 31v574h-138l-44 -104h-54l14 156h546l196 49l17 -17v-272l-3 -49l3 -3q27 26 70 41.5t86 15.5q76 0 118 -49q43 -49 43 -120v-234l60 -22v-40h-265v43l52 27v216q0 115 -72 115
q-22 0 -48 -11t-44 -29zM315 -250l-18 18q16 16 28 36q14 23 14 32q0 3 -2 5q-22 0 -36.5 14t-14.5 36q-4 35 31 47q34 12 58 -10q17 -16 15 -43q0 -55 -75 -135z" />
    <glyph glyph-name="A.smcp" horiz-adv-x="581" 
d="M260 476h63l195 -421l45 -21v-34h-237v34l46 21l-37 80h-184l-38 -80l56 -21v-34h-151v34l46 21zM316 180l-71 158l-74 -158h145z" />
    <glyph glyph-name="Aacute.smcp" horiz-adv-x="581" 
d="M260 476h63l195 -421l45 -21v-34h-237v34l46 21l-37 80h-184l-38 -80l56 -21v-34h-151v34l46 21zM316 180l-71 158l-74 -158h145zM233 495l-23 22l108 131l81 -82z" />
    <glyph glyph-name="Abreve.smcp" horiz-adv-x="581" 
d="M260 476h63l195 -421l45 -21v-34h-237v34l46 21l-37 80h-184l-38 -80l56 -21v-34h-151v34l46 21zM316 180l-71 158l-74 -158h145zM318 591q0 22 15.5 37t36.5 15t36.5 -14.5t15.5 -37.5q0 -35 -36.5 -55.5t-95.5 -20.5t-95.5 20.5t-36.5 55.5q0 23 16 37.5t37 14.5
t36.5 -15t15.5 -37q0 -17 5.5 -26t10 -10t11.5 -1q8 0 12.5 1t10 10t5.5 26z" />
    <glyph glyph-name="Acircumflex.smcp" horiz-adv-x="581" 
d="M260 476h63l195 -421l45 -21v-34h-237v34l46 21l-37 80h-184l-38 -80l56 -21v-34h-151v34l46 21zM316 180l-71 158l-74 -158h145zM175 517l108 131h15l108 -131l-22 -22l-94 53l-93 -53z" />
    <glyph glyph-name="Agrave.smcp" horiz-adv-x="581" 
d="M260 476h63l195 -421l45 -21v-34h-237v34l46 21l-37 80h-184l-38 -80l56 -21v-34h-151v34l46 21zM316 180l-71 158l-74 -158h145zM182 566l80 82l109 -131l-22 -22z" />
    <glyph glyph-name="Adieresis.smcp" horiz-adv-x="581" 
d="M260 476h63l195 -421l45 -21v-34h-237v34l46 21l-37 80h-184l-38 -80l56 -21v-34h-151v34l46 21zM316 180l-71 158l-74 -158h145zM166 529q-17 18 -17 46t17 45t45 17t45 -17q18 -17 18 -45t-18 -46q-17 -17 -45 -17t-45 17zM324 529q-17 18 -17 46t17 45q18 17 46 17
t45 -17q18 -17 18 -45t-18 -46q-17 -17 -45 -17t-46 17z" />
    <glyph glyph-name="Amacron.smcp" horiz-adv-x="581" 
d="M260 476h63l195 -421l45 -21v-34h-237v34l46 21l-37 80h-184l-38 -80l56 -21v-34h-151v34l46 21zM316 180l-71 158l-74 -158h145zM395 532h-209v52h209v-52z" />
    <glyph glyph-name="Aogonek.smcp" horiz-adv-x="581" 
d="M552 -122l13 -12q-37 -37 -75 -37q-47 0 -47 46q0 58 61 125h-178v34l46 21l-37 80h-184l-38 -80l56 -21v-34h-151v34l46 21l196 421h63l195 -421l45 -21v-34h-28q-17 -24 -29 -57.5t-12 -54.5q0 -23 22 -23q23 0 36 13zM316 180l-71 158l-74 -158h145z" />
    <glyph glyph-name="Aring.smcp" horiz-adv-x="581" 
d="M260 476h63l195 -421l45 -21v-34h-237v34l46 21l-37 80h-184l-38 -80l56 -21v-34h-151v34l46 21zM316 180l-71 158l-74 -158h145zM290 620q29 0 47 -16t18 -43t-17.5 -42.5t-47.5 -15.5q-28 0 -45.5 15.5t-17.5 42.5t17.5 43t45.5 16zM290 532q17 0 17 29t-17 29
q-18 0 -18 -29t18 -29z" />
    <glyph glyph-name="Atilde.smcp" horiz-adv-x="581" 
d="M260 476h63l195 -421l45 -21v-34h-237v34l46 21l-37 80h-184l-38 -80l56 -21v-34h-151v34l46 21zM316 180l-71 158l-74 -158h145zM170 518l-21 20q85 82 116 82q14 0 40 -17q25 -16 44 -16q13 0 32 9t32 22l20 -19q-84 -84 -118 -84q-14 0 -40 17t-43 17q-34 0 -62 -31z
" />
    <glyph glyph-name="AE.smcp" horiz-adv-x="626" 
d="M234 31l45 17l-10 87h-118l-38 -80l56 -21v-34h-151v34l46 21l196 421h312l11 -113h-48l-35 68h-133l19 -165h72l17 54h45v-154h-45l-17 54h-67l21 -175h95l35 68h48l-11 -113h-345v31zM264 180l-19 158l-74 -158h93z" />
    <glyph glyph-name="AEacute.smcp" horiz-adv-x="626" 
d="M234 31l45 17l-10 87h-118l-38 -80l56 -21v-34h-151v34l46 21l196 421h312l11 -113h-48l-35 68h-133l19 -165h72l17 54h45v-154h-45l-17 54h-67l21 -175h95l35 68h48l-11 -113h-345v31zM264 180l-19 158l-74 -158h93zM290 495l-23 22l109 131l80 -82z" />
    <glyph glyph-name="B.smcp" horiz-adv-x="525" 
d="M25 445v31h248q88 0 142 -33.5t54 -89.5q0 -77 -101 -109q56 -14 87 -44.5t31 -72.5q0 -57 -59 -92t-154 -35h-248v31l46 17v380zM216 220v-175h43q75 0 75 88q0 46 -19 66.5t-56 20.5h-43zM259 431h-43v-165h43q58 0 58 82q0 83 -58 83z" />
    <glyph glyph-name="C.smcp" horiz-adv-x="518" 
d="M454 103l29 -29q-80 -79 -197 -79q-114 0 -181 64q-66 65 -66 175q0 114 69 180q68 67 182 67q65 0 119 -19l42 13l13 -13l15 -113h-49q-46 84 -124 84q-58 0 -86.5 -44.5t-28.5 -144.5q0 -81 25 -130q31 -58 115 -58q73 0 123 47z" />
    <glyph glyph-name="Cacute.smcp" horiz-adv-x="518" 
d="M454 103l29 -29q-80 -79 -197 -79q-114 0 -181 64q-66 65 -66 175q0 114 69 180q68 67 182 67q65 0 119 -19l42 13l13 -13l15 -113h-49q-46 84 -124 84q-58 0 -86.5 -44.5t-28.5 -144.5q0 -81 25 -130q31 -58 115 -58q73 0 123 47zM235 495l-22 22l108 131l80 -82z" />
    <glyph glyph-name="Ccaron.smcp" horiz-adv-x="518" 
d="M454 103l29 -29q-80 -79 -197 -79q-114 0 -181 64q-66 65 -66 175q0 114 69 180q68 67 182 67q65 0 119 -19l42 13l13 -13l15 -113h-49q-46 84 -124 84q-58 0 -86.5 -44.5t-28.5 -144.5q0 -81 25 -130q31 -58 115 -58q73 0 123 47zM405 625l-108 -130h-16l-108 130l23 23
l93 -54l93 54z" />
    <glyph glyph-name="Ccedilla.smcp" horiz-adv-x="518" 
d="M229 -89l44 84q-109 4 -171.5 68t-62.5 171q0 114 69 180q68 67 182 67q65 0 119 -19l42 13l13 -13l15 -113h-49q-46 84 -124 84q-58 0 -86.5 -44.5t-28.5 -144.5q0 -81 25 -130q31 -58 115 -58q73 0 123 47l29 -29q-75 -74 -180 -78l-9 -20q24 0 40 -10.5t16 -27.5
q0 -27 -85 -109l-11 12q33 33 33 46q0 24 -58 24z" />
    <glyph glyph-name="Ccircumflex.smcp" horiz-adv-x="518" 
d="M454 103l29 -29q-80 -79 -197 -79q-114 0 -181 64q-66 65 -66 175q0 114 69 180q68 67 182 67q65 0 119 -19l42 13l13 -13l15 -113h-49q-46 84 -124 84q-58 0 -86.5 -44.5t-28.5 -144.5q0 -81 25 -130q31 -58 115 -58q73 0 123 47zM174 517l108 131h15l108 -131l-22 -22
l-94 53l-93 -53z" />
    <glyph glyph-name="Cdotaccent.smcp" horiz-adv-x="518" 
d="M454 103l29 -29q-80 -79 -197 -79q-114 0 -181 64q-66 65 -66 175q0 114 69 180q68 67 182 67q65 0 119 -19l42 13l13 -13l15 -113h-49q-46 84 -124 84q-58 0 -86.5 -44.5t-28.5 -144.5q0 -81 25 -130q31 -58 115 -58q73 0 123 47zM290 643q31 0 50 -18.5t19 -49.5
t-19 -50.5t-50 -19.5t-50.5 19.5t-19.5 50.5t19 49.5t51 18.5z" />
    <glyph glyph-name="D.smcp" horiz-adv-x="567" 
d="M25 445v31h252q115 0 182 -63q69 -63 69 -175t-69 -175q-67 -63 -182 -63h-252v31l46 17v380zM277 431h-61v-386h60q100 0 100 193t-99 193z" />
    <glyph glyph-name="Dcaron.smcp" horiz-adv-x="567" 
d="M25 445v31h252q115 0 182 -63q69 -63 69 -175t-69 -175q-67 -63 -182 -63h-252v31l46 17v380zM277 431h-61v-386h60q100 0 100 193t-99 193zM392 625l-108 -130h-15l-108 130l22 23l93 -54l94 54z" />
    <glyph glyph-name="Dcroat.smcp" horiz-adv-x="567" 
d="M71 221h-46v31l46 13v163l-46 17v31h252q115 0 182 -63q69 -63 69 -175t-69 -175q-67 -63 -182 -63h-252v31l46 17v173zM277 431h-61v-166h74v-44h-74v-176h60q100 0 100 193t-99 193z" />
    <glyph glyph-name="Eth.smcp" horiz-adv-x="567" 
d="M71 221h-46v31l46 13v163l-46 17v31h252q115 0 182 -63q69 -63 69 -175t-69 -175q-67 -63 -182 -63h-252v31l46 17v173zM277 431h-61v-166h74v-44h-74v-176h60q100 0 100 193t-99 193z" />
    <glyph glyph-name="Thorn.smcp" horiz-adv-x="504" 
d="M261 442l-45 -25v-36h47q90 0 146 -38t56 -101t-56 -101.5t-146 -38.5h-12l-14 13v31h11q65 0 65 96q0 94 -65 94h-32v-278l66 -24v-34h-257v38l46 24v359l-46 21v34h236v-34z" />
    <glyph glyph-name="E.smcp" horiz-adv-x="480" 
d="M216 220v-175h145l35 68h48l-10 -113h-409v31l46 17v380l-46 17v31h402l10 -113h-48l-35 68h-138v-165h96l18 54h44v-154h-44l-18 54h-96z" />
    <glyph glyph-name="Eacute.smcp" horiz-adv-x="480" 
d="M216 220v-175h145l35 68h48l-10 -113h-409v31l46 17v380l-46 17v31h402l10 -113h-48l-35 68h-138v-165h96l18 54h44v-154h-44l-18 54h-96zM182 495l-22 22l109 131l79 -82z" />
    <glyph glyph-name="Ebreve.smcp" horiz-adv-x="480" 
d="M216 220v-175h145l35 68h48l-10 -113h-409v31l46 17v380l-46 17v31h402l10 -113h-48l-35 68h-138v-165h96l18 54h44v-154h-44l-18 54h-96zM268 591q-2 31 24.5 45t53 1t25.5 -46q0 -35 -36 -55.5t-95 -20.5t-95.5 20.5t-36.5 55.5q0 23 16 37.5t37 14.5t36 -15t15 -37
q0 -17 6 -26t10.5 -10t11.5 -1t11.5 1t10.5 10t6 26z" />
    <glyph glyph-name="Ecaron.smcp" horiz-adv-x="480" 
d="M216 220v-175h145l35 68h48l-10 -113h-409v31l46 17v380l-46 17v31h402l10 -113h-48l-35 68h-138v-165h96l18 54h44v-154h-44l-18 54h-96zM356 625l-109 -130h-14l-108 130l22 23l93 -54l93 54z" />
    <glyph glyph-name="Ecircumflex.smcp" horiz-adv-x="480" 
d="M216 220v-175h145l35 68h48l-10 -113h-409v31l46 17v380l-46 17v31h402l10 -113h-48l-35 68h-138v-165h96l18 54h44v-154h-44l-18 54h-96zM125 517l108 131h14l109 -131l-23 -22l-93 53l-93 -53z" />
    <glyph glyph-name="Edieresis.smcp" horiz-adv-x="480" 
d="M216 220v-175h145l35 68h48l-10 -113h-409v31l46 17v380l-46 17v31h402l10 -113h-48l-35 68h-138v-165h96l18 54h44v-154h-44l-18 54h-96zM115 529q-17 18 -17 46t17 45q18 17 46 17t45 -17q18 -17 18 -45t-18 -46q-17 -17 -45 -17t-46 17zM274 529q-17 18 -17 46t17 45
q18 17 46 17t45 -17t17 -45t-17 -46q-17 -17 -45 -17t-46 17z" />
    <glyph glyph-name="Edotaccent.smcp" horiz-adv-x="480" 
d="M216 220v-175h145l35 68h48l-10 -113h-409v31l46 17v380l-46 17v31h402l10 -113h-48l-35 68h-138v-165h96l18 54h44v-154h-44l-18 54h-96zM241 643q31 0 49.5 -18.5t18.5 -49.5t-18.5 -50.5t-49.5 -19.5t-50.5 19.5t-19.5 50.5t19 49.5t51 18.5z" />
    <glyph glyph-name="Egrave.smcp" horiz-adv-x="480" 
d="M216 220v-175h145l35 68h48l-10 -113h-409v31l46 17v380l-46 17v31h402l10 -113h-48l-35 68h-138v-165h96l18 54h44v-154h-44l-18 54h-96zM132 566l80 82l108 -131l-22 -22z" />
    <glyph glyph-name="Emacron.smcp" horiz-adv-x="480" 
d="M216 220v-175h145l35 68h48l-10 -113h-409v31l46 17v380l-46 17v31h402l10 -113h-48l-35 68h-138v-165h96l18 54h44v-154h-44l-18 54h-96zM344 532h-209v52h209v-52z" />
    <glyph glyph-name="Eogonek.smcp" horiz-adv-x="480" 
d="M432 -122l12 -12q-34 -37 -74 -37q-47 0 -47 46q0 57 60 125h-358v31l46 17v380l-46 17v31h402l10 -113h-48l-35 68h-138v-165h96l18 54h44v-154h-44l-18 54h-96v-175h145l35 68h48l-10 -113h-19q-18 -24 -30 -57t-12 -55q0 -23 22 -23q24 0 37 13z" />
    <glyph glyph-name="F.smcp" horiz-adv-x="466" 
d="M326 163l-17 55h-93v-160l66 -24v-34h-257v38l46 24v366l-46 17v31h395l10 -113h-48l-35 68h-131v-169h93l17 54h45v-153h-45z" />
    <glyph glyph-name="G.smcp" horiz-adv-x="549" 
d="M524 204l-46 -24v-167l-13 -14l-55 23q-56 -27 -126 -27q-114 0 -179 64q-66 65 -66 175q0 114 69 180q68 67 182 67q65 0 119 -19l42 13l13 -13l15 -113h-49q-46 84 -124 84q-58 0 -86.5 -44.5t-28.5 -144.5q0 -79 22 -130q25 -58 99 -58h21v128l-46 20v34h237v-34z" />
    <glyph glyph-name="Gbreve.smcp" horiz-adv-x="549" 
d="M524 204l-46 -24v-167l-13 -14l-55 23q-56 -27 -126 -27q-114 0 -179 64q-66 65 -66 175q0 114 69 180q68 67 182 67q65 0 119 -19l42 13l13 -13l15 -113h-49q-46 84 -124 84q-58 0 -86.5 -44.5t-28.5 -144.5q0 -79 22 -130q25 -58 99 -58h21v128l-46 20v34h237v-34z
M317 591q0 22 15 37t37 15q21 0 36.5 -14.5t15.5 -37.5q0 -35 -36.5 -55.5t-95.5 -20.5t-95 20.5t-36 55.5q0 24 15.5 38t37.5 14q21 0 36 -15.5t15 -36.5q0 -17 5.5 -26t10 -10t11.5 -1q8 0 12.5 1t10 10t5.5 26z" />
    <glyph glyph-name="Gcircumflex.smcp" horiz-adv-x="549" 
d="M524 204l-46 -24v-167l-13 -14l-55 23q-56 -27 -126 -27q-114 0 -179 64q-66 65 -66 175q0 114 69 180q68 67 182 67q65 0 119 -19l42 13l13 -13l15 -113h-49q-46 84 -124 84q-58 0 -86.5 -44.5t-28.5 -144.5q0 -79 22 -130q25 -58 99 -58h21v128l-46 20v34h237v-34z
M176 517l108 131h15l108 -131l-22 -22l-93 53l-93 -53z" />
    <glyph glyph-name="Gcommaaccent.smcp" horiz-adv-x="549" 
d="M524 204l-46 -24v-167l-13 -14l-55 23q-56 -27 -126 -27q-114 0 -179 64q-66 65 -66 175q0 114 69 180q68 67 182 67q65 0 119 -19l42 13l13 -13l15 -113h-49q-46 84 -124 84q-58 0 -86.5 -44.5t-28.5 -144.5q0 -79 22 -130q25 -58 99 -58h21v128l-46 20v34h237v-34z
M269 -170l-14 14q30 30 30 43q0 2 -1 3q-39 0 -39 36q-3 29 26 37t46 -13q8 -10 7 -26q0 -38 -55 -94z" />
    <glyph glyph-name="Gdotaccent.smcp" horiz-adv-x="549" 
d="M524 204l-46 -24v-167l-13 -14l-55 23q-56 -27 -126 -27q-114 0 -179 64q-66 65 -66 175q0 114 69 180q68 67 182 67q65 0 119 -19l42 13l13 -13l15 -113h-49q-46 84 -124 84q-58 0 -86.5 -44.5t-28.5 -144.5q0 -79 22 -130q25 -58 99 -58h21v128l-46 20v34h237v-34z
M290 643q31 0 50 -18.5t19 -49.5t-19 -50.5t-50 -19.5t-50.5 19.5t-19.5 50.5t19 49.5t51 18.5z" />
    <glyph glyph-name="H.smcp" horiz-adv-x="593" 
d="M25 0v38l46 24v359l-46 21v34h236v-34l-45 -25v-155h160v159l-45 21v34h236v-34l-46 -25v-362l46 -21v-34h-236v38l45 24v155h-160v-162l45 -21v-34h-236z" />
    <glyph glyph-name="Hbar.smcp" horiz-adv-x="585" 
d="M71 323h-45v31l45 13v54l-46 21v34h237v-34l-46 -25v-50h153v54l-45 21v34h236v-34l-45 -25v-50l45 -13v-31h-45v-268l45 -21v-34h-236v38l45 24v155h-153v-162l46 -21v-34h-237v38l46 24v261zM216 323v-61h153v61h-153z" />
    <glyph glyph-name="Hcircumflex.smcp" horiz-adv-x="593" 
d="M25 0v38l46 24v359l-46 21v34h236v-34l-45 -25v-155h160v159l-45 21v34h236v-34l-46 -25v-362l46 -21v-34h-236v38l45 24v155h-160v-162l45 -21v-34h-236zM180 517l108 131h15l108 -131l-22 -22l-94 53l-93 -53z" />
    <glyph glyph-name="I.smcp" horiz-adv-x="287" 
d="M260 442l-45 -25v-362l45 -21v-34h-233v38l46 24v359l-46 21v34h233v-34z" />
    <glyph glyph-name="Iacute.smcp" horiz-adv-x="287" 
d="M260 442l-45 -25v-362l45 -21v-34h-233v38l46 24v359l-46 21v34h233v-34zM85 495l-22 22l108 131l81 -82z" />
    <glyph glyph-name="Ibreve.smcp" horiz-adv-x="287" 
d="M260 442l-45 -25v-362l45 -21v-34h-233v38l46 24v359l-46 21v34h233v-34zM171 591q0 22 15.5 37t36.5 15t36.5 -14.5t15.5 -37.5q0 -35 -36 -55.5t-95 -20.5q-60 0 -96 20t-36 56q0 24 15.5 38t37.5 14q21 0 36 -15.5t15 -36.5q0 -17 5.5 -26t10 -10t12.5 -1q7 0 11.5 1
t10 10t5.5 26z" />
    <glyph glyph-name="Icircumflex.smcp" horiz-adv-x="287" 
d="M260 442l-46 -25v-362l46 -21v-34h-233v38l46 24v359l-46 21v34h233v-34zM28 517l109 131h14l108 -131l-22 -22l-94 53l-92 -53z" />
    <glyph glyph-name="Idieresis.smcp" horiz-adv-x="286" 
d="M260 442l-46 -25v-362l46 -21v-34h-233v38l45 24v359l-45 21v34h233v-34zM22 529q-17 18 -17 46t17 45q18 17 46 17t45 -17q18 -17 18 -45t-18 -46q-17 -17 -45 -17t-46 17zM173 529q-17 18 -17 46t17 45q18 17 46 17t45 -17q18 -17 18 -45t-18 -46q-17 -17 -45 -17
t-46 17z" />
    <glyph glyph-name="Idotaccent.smcp" horiz-adv-x="287" 
d="M260 442l-45 -25v-362l45 -21v-34h-233v38l46 24v359l-46 21v34h233v-34zM143 643q32 0 51 -18.5t19 -49.5t-19.5 -50.5t-50.5 -19.5t-50 19.5t-19 50.5t19 49.5t50 18.5z" />
    <glyph glyph-name="Igrave.smcp" horiz-adv-x="287" 
d="M260 442l-45 -25v-362l45 -21v-34h-233v38l46 24v359l-46 21v34h233v-34zM49 566l80 82l109 -131l-23 -22z" />
    <glyph glyph-name="Imacron.smcp" horiz-adv-x="287" 
d="M260 442l-45 -25v-362l45 -21v-34h-233v38l46 24v359l-46 21v34h233v-34zM248 532h-209v52h209v-52z" />
    <glyph glyph-name="Iogonek.smcp" horiz-adv-x="287" 
d="M248 -122l12 -12q-34 -37 -74 -37q-47 0 -47 46q0 57 60 125h-172v38l46 24v359l-46 21v34h233v-34l-45 -25v-362l45 -21v-34h-30q-17 -24 -29 -57.5t-12 -54.5q0 -23 22 -23q24 0 37 13z" />
    <glyph glyph-name="Itilde.smcp" horiz-adv-x="287" 
d="M260 442l-45 -25v-362l45 -21v-34h-233v38l46 24v359l-46 21v34h233v-34zM23 518l-20 20q85 82 115 82q15 0 41 -17q25 -16 43 -16q36 0 64 31l20 -19q-81 -84 -117 -84q-14 0 -40 17t-44 17q-31 0 -62 -31z" />
    <glyph glyph-name="IJ.smcp" horiz-adv-x="539" 
d="M260 442l-45 -25v-362l45 -21v-34h-233v38l46 24v359l-46 21v34h233v-34zM324 0v421l-45 21v34h232v-34l-46 -25v-417q0 -108 -156 -177l-27 27q42 56 42 150z" />
    <glyph glyph-name="J.smcp" horiz-adv-x="287" 
d="M74 0v421l-46 21v34h232v-34l-46 -25v-417q0 -108 -157 -177l-26 27q43 55 43 150z" />
    <glyph glyph-name="Jcircumflex.smcp" horiz-adv-x="287" 
d="M73 0v421l-46 21v34h233v-34l-46 -25v-417q0 -107 -157 -177l-26 27q42 57 42 150zM28 517l109 131h14l108 -131l-22 -22l-94 53l-92 -53z" />
    <glyph glyph-name="K.smcp" horiz-adv-x="551" 
d="M261 442l-45 -25v-158l167 162l-56 21v34h170v-34l-49 -21l-107 -105l147 -261l45 -21v-34h-177l-116 218l-24 -22v-141l45 -21v-34h-236v38l46 24v359l-46 21v34h236v-34z" />
    <glyph glyph-name="Kcommaaccent.smcp" horiz-adv-x="551" 
d="M261 442l-45 -25v-158l167 162l-56 21v34h170v-34l-49 -21l-107 -105l147 -261l45 -21v-34h-177l-116 218l-24 -22v-141l45 -21v-34h-236v38l46 24v359l-46 21v34h236v-34zM260 -170l-14 14q30 33 30 43v1l-1 2q-39 0 -39 36q-3 29 26 37t46 -13q8 -10 7 -26
q0 -38 -55 -94z" />
    <glyph glyph-name="L.smcp" horiz-adv-x="460" 
d="M216 417v-372h124l35 68h48l-10 -113h-388v31l46 17v373l-46 21v34h236v-34z" />
    <glyph glyph-name="Lacute.smcp" horiz-adv-x="460" 
d="M216 417v-372h124l35 68h48l-10 -113h-388v31l46 17v373l-46 21v34h236v-34zM85 495l-22 22l108 131l81 -82z" />
    <glyph glyph-name="Lcaron.smcp" horiz-adv-x="460" 
d="M216 417v-372h124l35 68h48l-10 -113h-388v31l46 17v373l-46 21v34h236v-34zM261 625l-108 -129h-15l-108 129l22 23l93 -54l93 54z" />
    <glyph glyph-name="Lcommaaccent.smcp" horiz-adv-x="460" 
d="M216 417v-372h124l35 68h48l-10 -113h-388v31l46 17v373l-46 21v34h236v-34zM214 -170l-14 14q29 32 29 43v3q-39 0 -39 36q0 18 10.5 28.5t27.5 10.5q19 0 30 -11t11 -30q0 -38 -55 -94z" />
    <glyph glyph-name="Ldot.smcp" horiz-adv-x="460" 
d="M216 417v-372h124l35 68h48l-10 -113h-388v31l46 17v373l-46 21v34h236v-34zM298 237q0 26 15.5 41.5t40.5 15.5q26 0 42 -15.5t16 -41.5q0 -25 -16 -40.5t-42 -15.5q-25 0 -40.5 15.5t-15.5 40.5z" />
    <glyph glyph-name="Lslash.smcp" horiz-adv-x="460" 
d="M70 127l-20 -19l-32 32l52 51v230l-45 21v34h236v-34l-45 -25v-117l54 51l32 -32l-86 -82v-192h123l36 68h48l-11 -113h-387v31l45 17v79z" />
    <glyph glyph-name="M.smcp" horiz-adv-x="726" 
d="M676 442l-45 -25l28 -362l45 -21v-34h-236v38l45 24l-18 257l-150 -319h-62l-149 319l-22 -281l45 -21v-17h-135v20l46 24l27 377l-45 21v34h161l150 -338l156 338h159v-34z" />
    <glyph glyph-name="N.smcp" horiz-adv-x="526" 
d="M25 0v20l46 24v377l-46 21v34h181l204 -274v236l-45 21v17h136v-17l-46 -24v-435h-65l-274 375v-337l45 -21v-17h-136z" />
    <glyph glyph-name="Nacute.smcp" horiz-adv-x="526" 
d="M25 0v20l46 24v377l-46 21v34h181l204 -274v236l-45 21v17h136v-17l-46 -24v-435h-65l-274 375v-337l45 -21v-17h-136zM205 495l-23 22l109 131l80 -82z" />
    <glyph glyph-name="Ncaron.smcp" horiz-adv-x="526" 
d="M25 0v20l46 24v377l-46 21v34h181l204 -274v236l-45 21v17h136v-17l-46 -24v-435h-65l-274 375v-337l45 -21v-17h-136zM378 625l-108 -130h-14l-109 130l23 23l93 -54l93 54z" />
    <glyph glyph-name="Ncommaaccent.smcp" horiz-adv-x="526" 
d="M25 0v20l46 24v377l-46 21v34h181l204 -274v236l-45 21v17h136v-17l-46 -24v-435h-65l-274 375v-337l45 -21v-17h-136zM248 -170l-15 14q30 30 30 43v3q-39 0 -39 36q0 18 10.5 28.5t27.5 10.5q19 0 30 -11t11 -30q0 -38 -55 -94z" />
    <glyph glyph-name="Ntilde.smcp" horiz-adv-x="526" 
d="M25 0v20l46 24v377l-46 21v34h181l204 -274v236l-45 21v17h136v-17l-46 -24v-435h-65l-274 375v-337l45 -21v-17h-136zM143 518l-21 20q85 82 116 82q15 0 40 -17q25 -16 44 -16q13 0 32 9t32 22l20 -19q-84 -84 -118 -84q-14 0 -40 17t-44 17q-30 0 -61 -31z" />
    <glyph glyph-name="Eng.smcp" horiz-adv-x="526" 
d="M25 0v20l46 24v377l-46 21v34h186l199 -375v337l-45 21v17h136v-17l-46 -24v-435q0 -106 -158 -177l-27 27q40 52 40 150v9l-194 366v-337l45 -21v-17h-136z" />
    <glyph glyph-name="O.smcp" horiz-adv-x="568" 
d="M284 481q110 0 177 -66q68 -65 68 -177t-68 -178q-68 -65 -177 -65q-110 0 -178 65q-67 66 -67 178q0 113 67 177q68 66 178 66zM284 436q-93 0 -93 -198t93 -198t93 198t-93 198z" />
    <glyph glyph-name="Oacute.smcp" horiz-adv-x="568" 
d="M284 481q110 0 177 -66q68 -65 68 -177t-68 -178q-68 -65 -177 -65q-110 0 -178 65q-67 66 -67 178q0 113 67 177q68 66 178 66zM284 436q-93 0 -93 -198t93 -198t93 198t-93 198zM226 495l-23 22l108 131l81 -82z" />
    <glyph glyph-name="Obreve.smcp" horiz-adv-x="568" 
d="M284 481q110 0 177 -66q68 -65 68 -177t-68 -178q-68 -65 -177 -65q-110 0 -178 65q-67 66 -67 178q0 113 67 177q68 66 178 66zM284 436q-93 0 -93 -198t93 -198t93 198t-93 198zM312 591q0 22 15 37t37 15q21 0 36 -14t15 -38q0 -35 -36 -55.5t-95 -20.5t-95.5 20.5
t-36.5 55.5q0 23 16 37.5t37 14.5t36 -15t15 -37q0 -17 6 -26t10.5 -10t11.5 -1t11.5 1t10.5 10t6 26z" />
    <glyph glyph-name="Ocircumflex.smcp" horiz-adv-x="568" 
d="M284 481q110 0 177 -66q68 -65 68 -177t-68 -178q-68 -65 -177 -65q-110 0 -178 65q-67 66 -67 178q0 113 67 177q68 66 178 66zM284 436q-93 0 -93 -198t93 -198t93 198t-93 198zM168 517l108 131h15l108 -131l-22 -22l-94 53l-93 -53z" />
    <glyph glyph-name="Odieresis.smcp" horiz-adv-x="568" 
d="M284 481q110 0 177 -66q68 -65 68 -177t-68 -178q-68 -65 -177 -65q-110 0 -178 65q-67 66 -67 178q0 113 67 177q68 66 178 66zM284 436q-93 0 -93 -198t93 -198t93 198t-93 198zM159 529q-17 18 -17 46t17 45q18 17 46 17t45 -17t17 -45t-17 -46q-17 -17 -45 -17
t-46 17zM317 529q-17 18 -17 46t17 45q18 17 46 17t45 -17t17 -45t-17 -46q-17 -17 -45 -17t-46 17z" />
    <glyph glyph-name="Ograve.smcp" horiz-adv-x="568" 
d="M284 481q110 0 177 -66q68 -65 68 -177t-68 -178q-68 -65 -177 -65q-110 0 -178 65q-67 66 -67 178q0 113 67 177q68 66 178 66zM284 436q-93 0 -93 -198t93 -198t93 198t-93 198zM175 566l80 82l109 -131l-22 -22z" />
    <glyph glyph-name="Ohungarumlaut.smcp" horiz-adv-x="568" 
d="M284 481q110 0 177 -66q68 -65 68 -177t-68 -178q-68 -65 -177 -65q-110 0 -178 65q-67 66 -67 178q0 113 67 177q68 66 178 66zM284 436q-93 0 -93 -198t93 -198t93 198t-93 198zM155 495l-23 22l88 131l81 -82zM304 495l-23 22l88 131l80 -82z" />
    <glyph glyph-name="Omacron.smcp" horiz-adv-x="568" 
d="M284 481q110 0 177 -66q68 -65 68 -177t-68 -178q-68 -65 -177 -65q-110 0 -178 65q-67 66 -67 178q0 113 67 177q68 66 178 66zM284 436q-93 0 -93 -198t93 -198t93 198t-93 198zM388 532h-209v52h209v-52z" />
    <glyph glyph-name="Oslash.smcp" horiz-adv-x="568" 
d="M127 43l-40 -43h-48l61 66q-61 65 -61 172q0 113 67 177q68 66 178 66q93 0 156 -48l40 43h49l-62 -67q62 -65 62 -171q0 -112 -68 -178q-68 -65 -177 -65q-94 0 -157 48zM377 238q0 34 -4 70l-171 -184q22 -84 82 -84q93 0 93 198zM191 238q0 -46 4 -70l170 184
q-21 84 -81 84q-93 0 -93 -198z" />
    <glyph glyph-name="Oslashacute.smcp" horiz-adv-x="568" 
d="M127 43l-40 -43h-48l61 66q-61 65 -61 172q0 113 67 177q68 66 178 66q93 0 156 -48l40 43h49l-62 -67q62 -65 62 -171q0 -112 -68 -178q-68 -65 -177 -65q-94 0 -157 48zM377 238q0 34 -4 70l-171 -184q22 -84 82 -84q93 0 93 198zM191 238q0 -46 4 -70l170 184
q-21 84 -81 84q-93 0 -93 -198zM226 495l-23 22l108 131l81 -82z" />
    <glyph glyph-name="Otilde.smcp" horiz-adv-x="568" 
d="M284 481q110 0 177 -66q68 -65 68 -177t-68 -178q-68 -65 -177 -65q-110 0 -178 65q-67 66 -67 178q0 113 67 177q68 66 178 66zM284 436q-93 0 -93 -198t93 -198t93 198t-93 198zM163 518l-20 20q85 82 115 82q14 0 40 -17q25 -16 45 -16q13 0 32 9t32 22l20 -19
q-84 -84 -118 -84q-14 0 -40 17t-44 17q-31 0 -62 -31z" />
    <glyph glyph-name="OE.smcp" horiz-adv-x="731" 
d="M473 220v-175h138l35 68h49l-11 -113h-342q-33 -5 -58 -5q-110 0 -178 65q-67 66 -67 178q0 113 67 177q68 66 178 66q23 0 58 -5h335l11 -113h-49l-35 68h-131v-165h89l18 54h45v-154h-45l-18 54h-89zM284 40q28 0 44 16v364q-19 16 -44 16q-93 0 -93 -198t93 -198z" />
    <glyph glyph-name="P.smcp" horiz-adv-x="504" 
d="M248 431h-32v-373l66 -24v-34h-257v38l46 24v366l-46 17v31h238q91 0 146.5 -39t55.5 -104t-55.5 -104t-146.5 -39h-12l-14 14v31h11q65 0 65 98t-65 98z" />
    <glyph glyph-name="Q.smcp" horiz-adv-x="568" 
d="M559 -27l13 -13q-50 -51 -133 -51q-57 -4 -118 21q-20 6 -53 32l-25 21l-23 19q-84 17 -132.5 80t-48.5 156q0 113 67 177q68 66 178 66t177 -66q68 -65 68 -177q0 -77 -35 -135t-98 -86q41 -33 65.5 -44.5t60.5 -11.5q22 0 37 12zM284 436q-93 0 -93 -198t93 -198
t93 198t-93 198z" />
    <glyph glyph-name="R.smcp" horiz-adv-x="536" 
d="M468 340q0 -41 -27 -72t-78 -47q37 -17 59 -66l50 -100l46 -21v-34h-174l-105 207h-23v-152l45 -21v-34h-236v38l46 24v366l-46 17v31h241q91 0 146.5 -37t55.5 -99zM253 431h-37v-179h37q63 0 63 89q0 90 -63 90z" />
    <glyph glyph-name="Racute.smcp" horiz-adv-x="536" 
d="M468 340q0 -41 -27 -72t-78 -47q37 -17 59 -66l50 -100l46 -21v-34h-174l-105 207h-23v-152l45 -21v-34h-236v38l46 24v366l-46 17v31h241q91 0 146.5 -37t55.5 -99zM253 431h-37v-179h37q63 0 63 89q0 90 -63 90zM210 495l-22 22l108 131l80 -82z" />
    <glyph glyph-name="Rcaron.smcp" horiz-adv-x="536" 
d="M468 340q0 -41 -27 -72t-78 -47q37 -17 59 -66l50 -100l46 -21v-34h-174l-105 207h-23v-152l45 -21v-34h-236v38l46 24v366l-46 17v31h241q91 0 146.5 -37t55.5 -99zM253 431h-37v-179h37q63 0 63 89q0 90 -63 90zM376 625l-108 -130h-15l-107 130l21 23l93 -54l94 54z
" />
    <glyph glyph-name="Rcommaaccent.smcp" horiz-adv-x="536" 
d="M468 340q0 -41 -27 -72t-78 -47q37 -17 59 -66l50 -100l46 -21v-34h-174l-105 207h-23v-152l45 -21v-34h-236v38l46 24v366l-46 17v31h241q91 0 146.5 -37t55.5 -99zM253 431h-37v-179h37q63 0 63 89q0 90 -63 90zM252 -170l-14 14q30 33 30 43q0 2 -1 3q-39 0 -39 36
q-3 29 26 37t46 -13q8 -10 7 -26q0 -38 -55 -94z" />
    <glyph glyph-name="S.smcp" horiz-adv-x="457" 
d="M68 1l-13 14l-14 112h48q8 -41 40.5 -64.5t73.5 -23.5q78 0 78 77q0 22 -15 32q-18 13 -78 34q-39 15 -55 22q-20 10 -44 27q-50 34 -50 106q0 67 45 105.5t137 38.5q70 0 125 -20l20 14l14 -14l14 -112h-49q-9 43 -36 65.5t-61 22.5q-31 0 -51 -19.5t-20 -50.5
q0 -25 16 -35q17 -11 70 -30q54 -20 65 -26q23 -11 46 -28q44 -32 44 -102q0 -151 -204 -151q-74 0 -128 20z" />
    <glyph glyph-name="Sacute.smcp" horiz-adv-x="457" 
d="M68 1l-13 14l-14 112h48q8 -41 40.5 -64.5t73.5 -23.5q78 0 78 77q0 22 -15 32q-18 13 -78 34q-39 15 -55 22q-20 10 -44 27q-50 34 -50 106q0 67 45 105.5t137 38.5q70 0 125 -20l20 14l14 -14l14 -112h-49q-9 43 -36 65.5t-61 22.5q-31 0 -51 -19.5t-20 -50.5
q0 -25 16 -35q17 -11 70 -30q54 -20 65 -26q23 -11 46 -28q44 -32 44 -102q0 -151 -204 -151q-74 0 -128 20zM164 495l-23 22l109 131l80 -82z" />
    <glyph glyph-name="Scaron.smcp" horiz-adv-x="457" 
d="M68 1l-13 14l-14 112h48q8 -41 40.5 -64.5t73.5 -23.5q78 0 78 77q0 22 -15 32q-18 13 -78 34q-39 15 -55 22q-20 10 -44 27q-50 34 -50 106q0 67 45 105.5t137 38.5q70 0 125 -20l20 14l14 -14l14 -112h-49q-9 43 -36 65.5t-61 22.5q-31 0 -51 -19.5t-20 -50.5
q0 -25 16 -35q17 -11 70 -30q54 -20 65 -26q23 -11 46 -28q44 -32 44 -102q0 -151 -204 -151q-74 0 -128 20zM337 625l-109 -130h-14l-108 130l22 23l93 -54l93 54z" />
    <glyph glyph-name="Scedilla.smcp" horiz-adv-x="457" 
d="M155 -89l43 84q-64 1 -112 20l-18 -14l-13 14l-14 112h48q8 -41 40.5 -64.5t73.5 -23.5q78 0 78 77q0 22 -15 32q-18 13 -78 34q-39 15 -55 22q-20 10 -44 27q-50 34 -50 106q0 67 45 105.5t137 38.5q70 0 125 -20l20 14l14 -14l14 -112h-49q-9 43 -36 65.5t-61 22.5
q-31 0 -51 -19.5t-20 -50.5q0 -25 16 -35q17 -11 70 -30q54 -20 65 -26q23 -11 46 -28q44 -32 44 -102q0 -147 -190 -151l-9 -19q24 0 40.5 -10.5t16.5 -27.5q0 -27 -85 -109l-11 12q33 33 33 46q0 24 -58 24z" />
    <glyph glyph-name="Scircumflex.smcp" horiz-adv-x="457" 
d="M68 1l-13 14l-14 112h48q8 -41 40.5 -64.5t73.5 -23.5q78 0 78 77q0 22 -15 32q-18 13 -78 34q-39 15 -55 22q-20 10 -44 27q-50 34 -50 106q0 67 45 105.5t137 38.5q70 0 125 -20l20 14l14 -14l14 -112h-49q-9 43 -36 65.5t-61 22.5q-31 0 -51 -19.5t-20 -50.5
q0 -25 16 -35q17 -11 70 -30q54 -20 65 -26q23 -11 46 -28q44 -32 44 -102q0 -151 -204 -151q-74 0 -128 20zM105 517l108 131h15l108 -131l-22 -22l-94 53l-93 -53z" />
    <glyph glyph-name="Scommaaccent.smcp" horiz-adv-x="457" 
d="M68 1l-13 14l-14 112h48q8 -41 40.5 -64.5t73.5 -23.5q78 0 78 77q0 22 -15 32q-18 13 -78 34q-39 15 -55 22q-20 10 -44 27q-50 34 -50 106q0 67 45 105.5t137 38.5q70 0 125 -20l20 14l14 -14l14 -112h-49q-9 43 -36 65.5t-61 22.5q-31 0 -51 -19.5t-20 -50.5
q0 -25 16 -35q17 -11 70 -30q54 -20 65 -26q23 -11 46 -28q44 -32 44 -102q0 -151 -204 -151q-74 0 -128 20zM200 -170l-15 14q29 32 29 43v3q-39 0 -39 36q0 18 10.5 28.5t28.5 10.5q19 0 29.5 -11t10.5 -30q0 -36 -54 -94z" />
    <glyph glyph-name="T.smcp" horiz-adv-x="511" 
d="M438 363l-35 68h-74v-376l45 -21v-34h-236v38l45 24v369h-75l-34 -74h-49l11 119h440l11 -113h-49z" />
    <glyph glyph-name="Tbar.smcp" horiz-adv-x="511" 
d="M183 213h-63v46h63v172h-75l-34 -74h-49l11 119h440l11 -113h-49l-35 68h-74v-172h63v-46h-63v-158l45 -21v-34h-236v38l45 24v151z" />
    <glyph glyph-name="Tcaron.smcp" horiz-adv-x="511" 
d="M438 363l-35 68h-74v-376l45 -21v-34h-236v38l45 24v369h-75l-34 -74h-49l11 119h440l11 -113h-49zM371 625l-108 -130h-14l-109 130l22 23l93 -54l94 54z" />
    <glyph glyph-name="Tcommaaccent.smcp" horiz-adv-x="511" 
d="M438 363l-35 68h-74v-376l45 -21v-34h-236v38l45 24v369h-75l-34 -74h-49l11 119h440l11 -113h-49zM240 -170l-15 14q31 31 31 43q0 1 -2 3q-18 0 -28.5 9.5t-10.5 26.5q0 24 20 34t40 -0.5t20 -35.5q0 -38 -55 -94z" />
    <glyph glyph-name="uni021A.smcp" horiz-adv-x="511" 
d="M438 363l-35 68h-74v-376l45 -21v-34h-236v38l45 24v369h-75l-34 -74h-49l11 119h440l11 -113h-49zM240 -170l-15 14q31 31 31 43q0 1 -2 3q-18 0 -28.5 9.5t-10.5 26.5q0 24 20 34t40 -0.5t20 -35.5q0 -38 -55 -94z" />
    <glyph glyph-name="U.smcp" horiz-adv-x="551" 
d="M525 459l-45 -24v-251q0 -86 -57 -139q-57 -51 -149 -51q-91 0 -147 51.5t-56 138.5v237l-46 21v34h236v-34l-45 -25v-233q0 -122 113 -122q53 0 83 30.5t30 91.5v254l-45 21v17h128v-17z" />
    <glyph glyph-name="Uacute.smcp" horiz-adv-x="551" 
d="M525 459l-45 -24v-251q0 -86 -57 -139q-57 -51 -149 -51q-91 0 -147 51.5t-56 138.5v237l-46 21v34h236v-34l-45 -25v-233q0 -122 113 -122q53 0 83 30.5t30 91.5v254l-45 21v17h128v-17zM231 495l-22 22l108 131l80 -82z" />
    <glyph glyph-name="Ubreve.smcp" horiz-adv-x="551" 
d="M525 459l-45 -24v-251q0 -86 -57 -139q-57 -51 -149 -51q-91 0 -147 51.5t-56 138.5v237l-46 21v34h236v-34l-45 -25v-233q0 -122 113 -122q53 0 83 30.5t30 91.5v254l-45 21v17h128v-17zM316 591q0 22 15.5 37t37.5 15q21 0 36.5 -14.5t15.5 -37.5q0 -35 -36.5 -55.5
t-95.5 -20.5t-95.5 20.5t-36.5 55.5q0 24 15.5 38t37.5 14q20 0 35.5 -15.5t15.5 -36.5q0 -17 5.5 -26t10 -10t12.5 -1q7 0 11.5 1t10 10t5.5 26z" />
    <glyph glyph-name="Ucircumflex.smcp" horiz-adv-x="551" 
d="M525 459l-45 -24v-251q0 -86 -57 -139q-57 -51 -149 -51q-91 0 -147 51.5t-56 138.5v237l-46 21v34h236v-34l-45 -25v-233q0 -122 113 -122q53 0 83 30.5t30 91.5v254l-45 21v17h128v-17zM174 517l108 131h15l108 -131l-22 -22l-94 53l-93 -53z" />
    <glyph glyph-name="Udieresis.smcp" horiz-adv-x="551" 
d="M525 459l-45 -24v-251q0 -86 -57 -139q-57 -51 -149 -51q-91 0 -147 51.5t-56 138.5v237l-46 21v34h236v-34l-45 -25v-233q0 -122 113 -122q53 0 83 30.5t30 91.5v254l-45 21v17h128v-17zM211 637q28 0 45 -17t17 -45t-17 -45.5t-45 -17.5t-46 17.5t-18 45.5t17.5 45
t46.5 17zM322 529q-17 18 -17 46t17 45q18 17 46 17t45 -17q18 -17 18 -45t-18 -46q-17 -17 -45 -17t-46 17z" />
    <glyph glyph-name="Ugrave.smcp" horiz-adv-x="551" 
d="M525 459l-45 -24v-251q0 -86 -57 -139q-57 -51 -149 -51q-91 0 -147 51.5t-56 138.5v237l-46 21v34h236v-34l-45 -25v-233q0 -122 113 -122q53 0 83 30.5t30 91.5v254l-45 21v17h128v-17zM181 566l80 82l108 -131l-22 -22z" />
    <glyph glyph-name="Uhungarumlaut.smcp" horiz-adv-x="551" 
d="M525 459l-45 -24v-251q0 -86 -57 -139q-57 -51 -149 -51q-91 0 -147 51.5t-56 138.5v237l-46 21v34h236v-34l-45 -25v-233q0 -122 113 -122q53 0 83 30.5t30 91.5v254l-45 21v17h128v-17zM160 495l-22 22l87 131l81 -82zM309 495l-23 22l88 131l80 -82z" />
    <glyph glyph-name="Umacron.smcp" horiz-adv-x="551" 
d="M525 459l-45 -24v-251q0 -86 -57 -139q-57 -51 -149 -51q-91 0 -147 51.5t-56 138.5v237l-46 21v34h236v-34l-45 -25v-233q0 -122 113 -122q53 0 83 30.5t30 91.5v254l-45 21v17h128v-17zM394 532h-210v52h210v-52z" />
    <glyph glyph-name="Uogonek.smcp" horiz-adv-x="551" 
d="M342 -122l13 -12q-34 -37 -75 -37q-47 0 -47 46q0 56 55 120q-2 0 -7.5 -0.5t-6.5 -0.5q-91 0 -147 51.5t-56 138.5v237l-46 21v34h236v-34l-45 -25v-233q0 -122 113 -122q53 0 83 30.5t30 91.5v254l-45 21v17h128v-17l-45 -24v-251q0 -74 -41.5 -123t-114.5 -62
q-17 -25 -29 -57.5t-12 -53.5q0 -23 23 -23t36 13z" />
    <glyph glyph-name="Uring.smcp" horiz-adv-x="551" 
d="M525 459l-45 -24v-251q0 -86 -57 -139q-57 -51 -149 -51q-91 0 -147 51.5t-56 138.5v237l-46 21v34h236v-34l-45 -25v-233q0 -122 113 -122q53 0 83 30.5t30 91.5v254l-45 21v17h128v-17zM256 518q-17 16 -17 43t17 43q18 16 47 16t46 -16q18 -16 18 -43t-18 -43
q-17 -15 -46 -15t-47 15zM303 532q17 0 17 29t-17 29q-18 0 -18 -29t18 -29z" />
    <glyph glyph-name="Utilde.smcp" horiz-adv-x="551" 
d="M525 459l-45 -24v-251q0 -86 -57 -139q-57 -51 -149 -51q-91 0 -147 51.5t-56 138.5v237l-46 21v34h236v-34l-45 -25v-233q0 -122 113 -122q53 0 83 30.5t30 91.5v254l-45 21v17h128v-17zM182 518l-20 20q85 82 116 82q15 0 40 -17q23 -16 43 -16q13 0 32 9t32 22l21 -19
q-84 -84 -118 -84q-15 0 -41 17t-43 17q-31 0 -62 -31z" />
    <glyph glyph-name="V.smcp" horiz-adv-x="581" 
d="M320 0h-62l-194 421l-46 21v34h237v-34l-45 -21l126 -283l131 283l-56 21v34h152v-34l-46 -21z" />
    <glyph glyph-name="W.smcp" horiz-adv-x="880" 
d="M623 0h-63l-125 276l-118 -276h-63l-190 421l-46 21v34h237v-34l-45 -21l122 -283l79 192l-41 91l-45 21v34h237v-34l-46 -21l123 -283l128 283l-56 21v34h151v-34l-45 -21z" />
    <glyph glyph-name="Wacute.smcp" horiz-adv-x="880" 
d="M623 0h-63l-125 276l-118 -276h-63l-190 421l-46 21v34h237v-34l-45 -21l122 -283l79 192l-41 91l-45 21v34h237v-34l-46 -21l123 -283l128 283l-56 21v34h151v-34l-45 -21zM382 495l-22 22l108 131l80 -82z" />
    <glyph glyph-name="Wcircumflex.smcp" horiz-adv-x="880" 
d="M623 0h-63l-125 276l-118 -276h-63l-190 421l-46 21v34h237v-34l-45 -21l122 -283l79 192l-41 91l-45 21v34h237v-34l-46 -21l123 -283l128 283l-56 21v34h151v-34l-45 -21zM328 517l108 131h14l109 -131l-22 -22l-94 53l-93 -53z" />
    <glyph glyph-name="Wdieresis.smcp" horiz-adv-x="880" 
d="M623 0h-63l-125 276l-118 -276h-63l-190 421l-46 21v34h237v-34l-45 -21l122 -283l79 192l-41 91l-45 21v34h237v-34l-46 -21l123 -283l128 283l-56 21v34h151v-34l-45 -21zM322 529q-17 18 -17 46t17 45q18 17 46 17t45 -17q18 -17 18 -45t-18 -46q-17 -17 -45 -17
t-46 17zM480 529q-17 18 -17 46t17 45q18 17 46 17t45 -17t17 -45t-17 -46q-17 -17 -45 -17t-46 17z" />
    <glyph glyph-name="Wgrave.smcp" horiz-adv-x="880" 
d="M623 0h-63l-125 276l-118 -276h-63l-190 421l-46 21v34h237v-34l-45 -21l122 -283l79 192l-41 91l-45 21v34h237v-34l-46 -21l123 -283l128 283l-56 21v34h151v-34l-45 -21zM335 566l81 82l108 -131l-23 -22z" />
    <glyph glyph-name="X.smcp" horiz-adv-x="556" 
d="M291 34l46 18l-101 140l-108 -140l48 -18v-34h-155v34l51 18l139 175l-144 197l-43 18v34h245v-34l-47 -18l94 -129l98 129l-48 18v34h156v-34l-52 -18l-130 -163l152 -209l43 -18v-34h-244v34z" />
    <glyph glyph-name="Y.smcp" horiz-adv-x="527" 
d="M261 442l-47 -18l96 -177l95 177l-48 18v34h152v-34l-52 -18l-126 -230v-139l46 -21v-34h-237v38l46 24v130l-125 232l-43 18v34h243v-34z" />
    <glyph glyph-name="Yacute.smcp" horiz-adv-x="527" 
d="M261 442l-47 -18l96 -177l95 177l-48 18v34h152v-34l-52 -18l-126 -230v-139l46 -21v-34h-237v38l46 24v130l-125 232l-43 18v34h243v-34zM239 495l-23 22l108 131l81 -82z" />
    <glyph glyph-name="Ycircumflex.smcp" horiz-adv-x="527" 
d="M261 442l-47 -18l96 -177l95 177l-48 18v34h152v-34l-52 -18l-126 -230v-139l46 -21v-34h-237v38l46 24v130l-125 232l-43 18v34h243v-34zM155 517l108 131h14l109 -131l-23 -22l-93 53l-93 -53z" />
    <glyph glyph-name="Ydieresis.smcp" horiz-adv-x="527" 
d="M261 442l-47 -18l96 -177l95 177l-48 18v34h152v-34l-52 -18l-126 -230v-139l46 -21v-34h-237v38l46 24v130l-125 232l-43 18v34h243v-34zM185 637q28 0 45 -17t17 -45t-17 -45.5t-45 -17.5t-46 17.5t-18 45.5t17.5 45t46.5 17zM297 529q-17 18 -17 46t17 45t45 17
t45 -17q18 -17 18 -45t-18 -46q-17 -17 -45 -17t-45 17z" />
    <glyph glyph-name="Ygrave.smcp" horiz-adv-x="527" 
d="M261 442l-47 -18l96 -177l95 177l-48 18v34h152v-34l-52 -18l-126 -230v-139l46 -21v-34h-237v38l46 24v130l-125 232l-43 18v34h243v-34zM162 566l80 82l108 -131l-22 -22z" />
    <glyph glyph-name="Z.smcp" horiz-adv-x="476" 
d="M433 0h-394v28l237 403h-153l-34 -74h-49l11 119h389v-28l-241 -403h162l34 75h49z" />
    <glyph glyph-name="Zacute.smcp" horiz-adv-x="476" 
d="M433 0h-394v28l237 403h-153l-34 -74h-49l11 119h389v-28l-241 -403h162l34 75h49zM180 495l-22 22l108 131l80 -82z" />
    <glyph glyph-name="Zcaron.smcp" horiz-adv-x="476" 
d="M433 0h-394v28l237 403h-153l-34 -74h-49l11 119h389v-28l-241 -403h162l34 75h49zM353 625l-108 -130h-14l-109 130l23 23l93 -54l93 54z" />
    <glyph glyph-name="Zdotaccent.smcp" horiz-adv-x="476" 
d="M433 0h-394v28l237 403h-153l-34 -74h-49l11 119h389v-28l-241 -403h162l34 75h49zM239 643q31 0 49.5 -18.5t18.5 -49.5t-18.5 -50.5t-49.5 -19.5t-51 19.5t-20 50.5t19.5 49.5t51.5 18.5z" />
    <glyph glyph-name="uni018F.smcp" horiz-adv-x="545" 
d="M91 373l-29 29q82 79 197 79q113 0 180 -65q67 -64 67 -175q0 -113 -69 -180q-69 -66 -181 -66q-96 0 -157 48q-60 48 -60 125q0 24 5 44l21 21h289q0 82 -25 129q-30 58 -115 58q-73 0 -123 -47zM247 43q41 0 69.5 36t34.5 109l-182 -21q0 -124 78 -124z" />
    <glyph glyph-name="f_b" horiz-adv-x="935" 
d="M429 33v639q-28 34 -76 34q-57 0 -87.5 -35.5t-30.5 -103.5v-107h139v-52h-139v-342l94 -26v-40h-306v43l60 27v338h-60v43l60 17v97q0 85 75 138q74 52 203 52q54 0 100 -10l104 14l17 -18v-281l-3 -47l3 -3q52 55 143 55q83 0 130 -63t47 -167q0 -240 -272 -240
q-117 0 -201 38zM582 364v-301q26 -19 67 -19q99 0 99 182q0 175 -88 175q-48 0 -78 -37z" />
    <glyph glyph-name="f_f_b" horiz-adv-x="1281" 
d="M776 33v639q-30 34 -76 34q-57 0 -87.5 -35.5t-30.5 -103.5v-107h138v-52h-138v-342l93 -26v-40h-306v43l60 27v338h-194v-342l94 -26v-40h-306v43l60 27v338h-60v43l60 17v61q0 95 81 150q83 56 207 56q82 0 137 -31q75 51 199 51q54 0 100 -10l104 14l17 -18v-281
l-3 -47l3 -3q52 55 143 55q83 0 130 -63t47 -167q0 -240 -272 -240q-118 0 -200 38zM401 460l28 8v97q0 54 32 98q-35 23 -91 23q-135 0 -135 -154v-72h166zM928 364v-301q26 -19 68 -19q99 0 99 182q0 175 -88 175q-49 0 -79 -37z" />
    <glyph glyph-name="f_h" horiz-adv-x="982" 
d="M582 361v-299l53 -22v-40h-266v43l60 27v602q-28 34 -76 34q-57 0 -87.5 -35.5t-30.5 -103.5v-107h139v-52h-139v-342l94 -26v-40h-306v43l60 27v338h-60v43l60 17v97q0 85 75 138q74 52 203 52q54 0 100 -10l104 14l17 -18v-281l-3 -49l3 -3q27 26 70 41.5t86 15.5
q76 0 118 -49q43 -49 43 -120v-234l60 -22v-40h-266v43l53 27v216q0 115 -72 115q-22 0 -48 -11t-44 -29z" />
    <glyph glyph-name="f_f_h" horiz-adv-x="1328" 
d="M928 361v-299l53 -22v-40h-265v43l60 27v602q-30 34 -76 34q-57 0 -87.5 -35.5t-30.5 -103.5v-107h138v-52h-138v-342l93 -26v-40h-306v43l60 27v338h-194v-342l94 -26v-40h-306v43l60 27v338h-60v43l60 17v61q0 95 81 150q83 56 207 56q82 0 137 -31q75 51 199 51
q54 0 100 -10l104 14l17 -18v-281l-3 -49l3 -3q27 26 70 41.5t86 15.5q76 0 118 -49q43 -49 43 -120v-234l60 -22v-40h-265v43l53 27v216q0 55 -19 85t-53 30q-22 0 -48.5 -11t-44.5 -29zM401 460l28 8v97q0 54 32 98q-35 23 -91 23q-135 0 -135 -154v-72h166z" />
    <glyph glyph-name="f_k" horiz-adv-x="933" 
d="M926 0h-181l-121 205l-42 -40v-103l60 -22v-40h-273v43l60 27v602q-28 34 -76 34q-57 0 -87.5 -35.5t-30.5 -103.5v-107h139v-52h-139v-342l94 -26v-40h-306v43l60 27v338h-60v43l60 17v97q0 85 75 138q74 52 203 52q54 0 100 -10l104 14l17 -18v-502l174 159l-77 22v40
h213v-40l-59 -22l-104 -93l137 -244l60 -21v-40z" />
    <glyph glyph-name="f_f_k" horiz-adv-x="1280" 
d="M1272 0h-180l-121 205l-43 -40v-103l60 -22v-40h-272v43l60 27v602q-30 34 -76 34q-57 0 -87.5 -35.5t-30.5 -103.5v-107h138v-52h-138v-342l93 -26v-40h-306v43l60 27v338h-194v-342l94 -26v-40h-306v43l60 27v338h-60v43l60 17v61q0 95 81 150q83 56 207 56
q82 0 137 -31q75 51 199 51q54 0 100 -10l104 14l17 -18v-502l174 159l-76 22v40h212v-40l-59 -22l-104 -93l137 -244l60 -21v-40zM401 460l28 8v97q0 54 32 98q-35 23 -91 23q-135 0 -135 -154v-72h166z" />
    <glyph glyph-name="f_t" horiz-adv-x="748" 
d="M429 136v536q-28 34 -77 34q-57 0 -87 -35.5t-30 -103.5v-107h139v-52h-139v-342l94 -26v-40h-306v43l60 27v338h-60v43l60 17v97q0 88 75.5 139t209.5 51q81 0 129.5 -21t84.5 -68v-206h124v-52h-124v-272q0 -80 64 -80q37 0 55 19l25 -25q-55 -55 -141 -55
q-71 0 -113.5 38.5t-42.5 102.5z" />
    <glyph glyph-name="f_f_t" horiz-adv-x="1094" 
d="M776 136v536q-30 34 -77 34q-57 0 -87 -35.5t-30 -103.5v-107h138v-52h-138v-342l93 -25v-42h-306v45l60 26v338h-194v-342l94 -25v-42h-306v45l60 26v338h-60v43l60 17v61q0 95 81 150q83 56 207 56q83 0 136 -31q77 51 207 51q81 0 129.5 -21t84.5 -68v-206h124v-52
h-124v-272q0 -80 64 -80q37 0 56 19l24 -25q-54 -54 -141 -54q-71 0 -113 38t-42 102zM401 460l28 8v97q0 54 32 98q-35 23 -91 23q-135 0 -135 -154v-72h166z" />
    <glyph glyph-name="germandbls.smcp" horiz-adv-x="557" 
d="M283 10h-21v90h48q18 -58 60 -58q34 0 34 30q0 10 -9.5 19t-35.5 21q-43 22 -55 30q-45 29 -45 87q0 39 27 80t27 72q0 57 -57 57q-27 0 -38.5 -18t-11.5 -67v-301l42 -18v-34h-223v38l42 20v210h-42v38l42 13v31q0 65 47.5 97.5t155.5 32.5q153 0 153 -68q0 -22 -27 -64
q-27 -40 -27 -71q0 -18 9 -28t33 -20q55 -27 78 -47q32 -25 32 -77q0 -109 -146 -109q-44 0 -92 14z" />
    <glyph glyph-name="zero.fitted" horiz-adv-x="585" 
d="M93 89q-76 97 -76 261q0 165 76 260q76 97 200 97t199 -97q76 -95 76 -260q0 -164 -76 -261q-75 -96 -199 -96q-123 0 -200 96zM178 350q0 -148 31 -226.5t84 -78.5t83.5 78.5t30.5 226.5q0 149 -30.5 227t-83.5 78q-54 0 -84.5 -77.5t-30.5 -227.5z" />
    <glyph glyph-name="one.fitted" horiz-adv-x="585" 
d="M470 0h-347v43l98 27v540h-106v47l240 52l18 -18v-629l97 -22v-40z" />
    <glyph glyph-name="two.fitted" horiz-adv-x="585" 
d="M522 0h-473v66q70 60 133 121q51 48 99 110q91 115 91 246q0 56 -25 83t-79 27q-56 0 -97 -37v-65q0 -25 -18 -42.5t-43 -17.5q-26 0 -43 17.5t-17 51.5q0 64 61.5 104.5t166.5 40.5q110 0 172 -47t62 -136q0 -140 -177 -296q-43 -39 -150 -120h259l34 87h54z" />
    <glyph glyph-name="three.fitted" horiz-adv-x="585" 
d="M177 625v-60q0 -25 -17.5 -42.5t-42.5 -17.5t-43 17.5t-18 49.5q0 62 63 98q62 37 158 37q109 0 174.5 -48.5t65.5 -130.5q0 -59 -35.5 -99.5t-97.5 -58.5q76 -21 118 -68t42 -112q0 -90 -75 -144q-74 -53 -193 -53q-98 0 -162 36q-64 37 -64 99q0 31 17.5 49t42.5 18
q26 0 44 -17.5t18 -42.5v-61q31 -25 83 -25q60 0 97.5 38.5t37.5 110.5t-41.5 108t-116.5 36h-51v52h44q70 0 104 29t34 94t-29.5 99.5t-79.5 34.5q-45 0 -77 -26z" />
    <glyph glyph-name="four.fitted" horiz-adv-x="585" 
d="M539 0h-264v43l59 27v80h-298v34q89 149 132 265q44 118 44 251h152q0 -144 -78 -271q-39 -65 -78 -114q-44 -56 -97 -113h223v138l129 129l17 -18v-249h71v-52h-71v-88l59 -22v-40z" />
    <glyph glyph-name="five.fitted" horiz-adv-x="585" 
d="M180 124v-59q38 -18 72 -18q126 0 126 160q0 175 -145 175q-61 0 -104 -30l-33 32l31 316q216 0 344 17v-125h-288l-40 -187q60 30 131 30q116 0 187 -59q70 -58 70 -162q0 -101 -71 -160t-194 -59q-93 0 -150 33.5t-57 89.5q0 31 17.5 48.5t42.5 17.5t43 -17.5t18 -42.5
z" />
    <glyph glyph-name="six.fitted" horiz-adv-x="585" 
d="M190 394q53 38 131 38q104 0 166 -59t62 -155q0 -104 -71 -164q-71 -59 -175 -59q-129 0 -198 88q-69 89 -69 235q0 196 123 292q115 87 293 99l34 -35q-143 -25 -217 -91.5t-79 -188.5zM190 327q0 -153 26 -217q27 -62 80 -62q46 0 73 42t27 119q0 79 -30 119t-85 40
q-59 0 -91 -41z" />
    <glyph glyph-name="seven.fitted" horiz-adv-x="585" 
d="M348 0h-152q0 78 26 161q25 80 56 134q34 59 88 145q53 86 88 150h-313l-37 -85h-54l14 195h477v-34q-14 -43 -78 -203q-61 -153 -88 -257q-27 -103 -27 -206z" />
    <glyph glyph-name="eight.fitted" horiz-adv-x="585" 
d="M527 547q0 -106 -118 -164q80 -37 113.5 -77.5t33.5 -109.5q0 -203 -276 -203q-251 0 -251 170q0 65 35.5 105t110.5 72q-60 31 -89.5 73t-29.5 103q0 85 58 137q59 54 188 54q112 0 168.5 -42.5t56.5 -117.5zM260 302q-21 9 -25 10q-58 -64 -58 -150q0 -117 107 -117
q57 0 90 30.5t33 90.5q0 48 -30 73q-29 25 -117 63zM198 549q0 -52 29 -78q31 -25 108 -56l8 -4q43 61 43 133q0 111 -90 111q-46 0 -72 -28.5t-26 -77.5z" />
    <glyph glyph-name="nine.fitted" horiz-adv-x="585" 
d="M394 306q-56 -38 -130 -38q-104 0 -166 58q-62 59 -62 155q0 104 71 164q72 60 180 60q125 0 193 -86t68 -238q0 -366 -425 -389l-35 35q294 42 306 279zM395 373q0 153 -26 217q-25 63 -77 63q-48 0 -75 -43t-27 -121t30 -117.5t83 -39.5q57 0 92 41z" />
    <glyph glyph-name="zero.taboldstyle" horiz-adv-x="575" 
d="M97 57q-73 64 -73 173t73 173t191 64t191 -64t73 -173t-73 -173t-191 -64t-191 64zM288 45q47 0 75 47.5t28 137.5t-28 137.5t-75 47.5q-48 0 -76 -47.5t-28 -137.5t28 -137.5t76 -47.5z" />
    <glyph glyph-name="one.taboldstyle" horiz-adv-x="575" 
d="M465 0h-346v43l97 27v300h-106v47l240 52l18 -18v-389l97 -22v-40z" />
    <glyph glyph-name="two.taboldstyle" horiz-adv-x="575" 
d="M493 0h-425v66q134 86 195 147q62 62 62 137q0 63 -71 63q-42 0 -70 -24v-64q0 -25 -18 -43t-43 -18q-26 0 -43.5 18t-17.5 52q0 59 54 94.5t150 35.5q92 0 145.5 -33t53.5 -90q0 -73 -85 -139q-41 -32 -76 -55q-42 -26 -89 -51h199l35 87h54z" />
    <glyph glyph-name="three.taboldstyle" horiz-adv-x="575" 
d="M371 11q0 69 -35.5 97t-107.5 28h-44v52h37q123 0 123 107q0 55 -28 85.5t-72 30.5q-40 0 -68 -25v-61q0 -25 -17.5 -42.5t-42.5 -17.5q-26 0 -43.5 18t-17.5 50q0 62 61 98t154 36q101 0 165 -44q63 -43 63 -117q0 -53 -33.5 -89.5t-91.5 -52.5q78 -24 114.5 -64.5
t36.5 -105.5q0 -118 -116 -183t-315 -69l-34 35q312 35 312 234z" />
    <glyph glyph-name="four.taboldstyle" horiz-adv-x="575" 
d="M470 0v-250h-146v250h-288v34q159 224 159 426h152q0 -195 -236 -408h213v128l129 129l17 -18v-239h71v-52h-71z" />
    <glyph glyph-name="five.taboldstyle" horiz-adv-x="575" 
d="M362 14q0 128 -136 128q-60 0 -104 -30l-33 32l34 316q211 0 336 17v-125h-281l-43 -187q60 30 131 30q113 0 181 -53q69 -53 69 -146q0 -117 -113 -182q-113 -66 -311 -72l-34 35q304 34 304 237z" />
    </font>
</defs>
</svg>
