<?xml version="1.0" standalone="no"?>
<!DOCTYPE svg PUBLIC "-//W3C//DTD SVG 1.1//EN" "http://www.w3.org/Graphics/SVG/1.1/DTD/svg11.dtd" >
<svg xmlns="http://www.w3.org/2000/svg" xmlns:xlink="http://www.w3.org/1999/xlink" version="1.1">
<metadata>
Created by FontForge 20150318 at Mon Jul 20 20:50:54 2015
 By uniteet7
Copyright (c) 2014 by Andriy Konstantynov. All rights reserved.
</metadata>
<defs>
<font id="AngleciaProTextLight" horiz-adv-x="584" >
  <font-face 
    font-family="AngleciaProTextLight"
    font-weight="300"
    font-stretch="normal"
    units-per-em="1000"
    panose-1="2 5 0 3 6 0 0 0 0 0"
    ascent="747"
    descent="-253"
    x-height="460"
    cap-height="700"
    bbox="-129.756 -256 1164 980"
    underline-thickness="50"
    underline-position="-50"
    unicode-range="U+000D-FB04"
  />
<missing-glyph horiz-adv-x="206" 
 />
    <glyph glyph-name="ff" unicode="ff" horiz-adv-x="687" 
d="M45 454l60 11v85q0 84 63 134q65 50 166 50q70 0 113 -24q42 44 118 44q60 0 98.5 -28.5t38.5 -70.5q0 -20 -10 -31t-26 -11t-26.5 10.5t-10.5 26.5v57q-23 18 -61 18q-42 0 -66.5 -34.5t-24.5 -94.5v-136h173v-30h-173v-386l91 -21v-23h-225v24l60 22v384h-225v-386
l92 -21v-23h-225v24l60 22v384h-60v24zM379 460l24 5v130q0 52 23 90q-42 20 -97 20q-71 0 -111 -41t-40 -113v-91h201z" />
    <glyph glyph-name="fi" unicode="fi" horiz-adv-x="582" 
d="M537 0h-194v24l60 22v365l-46 19h-179v-386l92 -21v-23h-225v24l60 22v384h-60v24l60 11v130q0 71 56 115t145 44q77 0 125 -33t48 -82q0 -34 -23.5 -46t-47 1t-23.5 40v70q-33 21 -82 21q-58 0 -91.5 -34.5t-33.5 -94.5v-136h172l115 6l12 -12v-414l60 -17v-23z" />
    <glyph glyph-name="fl" unicode="fl" horiz-adv-x="582" 
d="M537 0h-197v24l63 22v651q-34 28 -89 28q-63 0 -99.5 -34.5t-36.5 -94.5v-136h153v-30h-153v-386l92 -21v-23h-225v24l60 22v384h-60v24l60 11v130q0 73 56 116t152 43q41 0 81 -8l71 10l12 -12v-704l60 -17v-23z" />
    <glyph glyph-name="ffi" unicode="ffi" horiz-adv-x="881" 
d="M836 0h-194v24l60 22v365l-47 19h-178v-386l91 -21v-23h-225v24l60 22v384h-225v-386l92 -21v-23h-225v24l60 22v384h-60v24l60 11v85q0 84 63 134t166 50q72 0 122 -26q53 46 148 46q77 0 125.5 -33t48.5 -82q0 -25 -13.5 -38.5t-33.5 -13.5q-19 0 -33 14t-14 33v70
q-33 21 -82 21q-58 0 -91.5 -34.5t-33.5 -94.5v-136h171l116 6l12 -12v-414l60 -17v-23zM379 460l26 5v130q0 50 26 88q-41 22 -101 22q-72 0 -112 -41t-40 -113v-91h201z" />
    <glyph glyph-name="ffl" unicode="ffl" horiz-adv-x="881" 
d="M836 0h-198v24l64 22v651q-34 28 -89 28q-63 0 -99.5 -34.5t-36.5 -94.5v-136h153v-30h-153v-386l91 -21v-23h-225v24l60 22v384h-225v-386l92 -21v-23h-225v24l60 22v384h-60v24l60 11v85q0 84 63 134q64 50 164 50q73 0 122 -29q55 49 158 49q38 0 81 -8l71 10l12 -12
v-704l60 -17v-23zM379 460l24 5v130q0 51 27 87q-41 23 -100 23q-72 0 -112 -41t-40 -113v-91h201z" />
    <glyph glyph-name="f_f_j" unicode="ffj" horiz-adv-x="865" 
d="M687 0v411l-47 19h-163v-386l91 -21v-23h-225v24l60 22v384h-225v-386l92 -21v-23h-225v24l60 22v384h-60v24l60 11v85q0 84 63 134t166 50q72 0 122 -26q50 46 139 46q75 0 121 -34q47 -35 47 -81q0 -25 -13.5 -38.5t-33.5 -13.5q-19 0 -33.5 14t-14.5 33v70
q-30 21 -76 21q-54 0 -84.5 -34.5t-30.5 -94.5v-136h156l115 6l13 -12v-454q0 -79 -36.5 -147t-101.5 -109l-19 20q40 37 61.5 100.5t21.5 135.5zM379 460l26 5v130q0 50 26 88q-41 22 -100 22q-72 0 -112.5 -41t-40.5 -113v-91h201z" />
    <glyph glyph-name="f_j" unicode="fj" horiz-adv-x="582" 
d="M403 0v411l-46 19h-179v-386l92 -21v-23h-225v24l60 22v384h-60v24l60 11v130q0 71 56 115t145 44q77 0 125 -33t48 -82q0 -34 -23.5 -46t-47 1t-23.5 40v70q-33 21 -82 21q-58 0 -91.5 -34.5t-33.5 -94.5v-136h172l115 6l12 -12v-454q0 -79 -36 -147t-101 -109l-20 20
q40 37 61.5 100.5t21.5 135.5z" />
    <glyph glyph-name=".notdef" horiz-adv-x="206" 
 />
    <glyph glyph-name=".null" horiz-adv-x="0" 
 />
    <glyph glyph-name="nonmarkingreturn" horiz-adv-x="333" 
 />
    <glyph glyph-name="NULL" horiz-adv-x="0" 
 />
    <glyph glyph-name="NULL" horiz-adv-x="0" 
 />
    <glyph glyph-name="CR.001" unicode="&#xd;" horiz-adv-x="206" 
 />
    <glyph glyph-name="space" unicode=" " horiz-adv-x="206" 
 />
    <glyph glyph-name="exclam" unicode="!" horiz-adv-x="202" 
d="M118 185h-34q-11 249 -19 344q-3 41 -6 70.5t-5 41t-2 13.5q0 21 14.5 35.5t34.5 14.5q21 0 35.5 -14.5t14.5 -35.5q0 -1 -7 -53l-7 -72q-8 -95 -19 -344zM101 96q21 0 35.5 -14.5t14.5 -35.5t-14.5 -35.5t-35.5 -14.5q-20 0 -35 14.5t-15 35.5t15 35.5t35 14.5z" />
    <glyph glyph-name="quotedbl" unicode="&#x22;" horiz-adv-x="284" 
d="M97 510h-25q-3 43 -8 80.5t-9 57t-4 22.5q0 14 9.5 23.5t24.5 9.5q14 0 23.5 -9.5t9.5 -23.5q0 -3 -4 -22.5t-9 -57t-8 -80.5zM212 510h-26q-3 43 -8 80.5t-9 57t-4 22.5q0 14 10 23.5t24 9.5q15 0 24.5 -9.5t9.5 -23.5q0 -3 -4 -22.5t-9 -57t-8 -80.5z" />
    <glyph glyph-name="numbersign" unicode="#" horiz-adv-x="629" 
d="M211 450h-102v34h112l64 216h37l-64 -216h185l64 216h37l-64 -216h92v-34h-103l-59 -200h110v-34h-120l-64 -216h-37l64 216h-185l-64 -216h-37l64 216h-84v34h94zM433 450h-186l-59 -200h185z" />
    <glyph glyph-name="dollar" unicode="$" 
d="M289 -6l-1 -44h-34l1 45q-87 4 -158 43h-31l-12 123h27q28 -125 175 -136l11 301q-52 15 -62 19q-23 8 -53 24q-29 15 -47 35q-40 46 -40 118q0 87 54 135.5t162 48.5l2 44h35l-2 -45q72 -6 136 -43h33l12 -123h-28q-25 124 -154 135l-11 -282q48 -15 67 -22
q24 -8 58 -27q46 -24 68 -60.5t26 -98.5q0 -89 -58.5 -139t-175.5 -51zM455 176q0 57 -35 86q-34 28 -119 54l-11 -291q77 4 121 42.5t44 108.5zM133 532q0 -56 31 -81t106 -48l10 271q-68 -4 -107.5 -41.5t-39.5 -100.5z" />
    <glyph glyph-name="percent" unicode="%" horiz-adv-x="761" 
d="M96 393q-39 49 -39 132t39 132q40 49 104 49t104 -49t40 -132t-40 -132t-104 -49t-104 49zM201 375q39 0 62 40.5t23 109.5t-23.5 109.5t-61.5 40.5q-39 0 -62.5 -40.5t-23.5 -109.5t23.5 -109.5t62.5 -40.5zM605 700l-408 -700h-41l408 700h41zM457 43q-40 49 -40 132
t40 132t104 49t103 -49q40 -49 40 -132t-40 -132q-39 -49 -103 -49t-104 49zM475 175q0 -69 23.5 -109.5t62.5 -40.5t62.5 40.5t23.5 109.5q0 68 -23.5 109t-62.5 41t-62.5 -41t-23.5 -109z" />
    <glyph glyph-name="ampersand" unicode="&#x26;" horiz-adv-x="709" 
d="M669 367l-61 -19q0 -136 -51 -222l72 -86l61 -17v-23h-125l-61 72q-72 -77 -202 -77q-115 0 -179.5 55t-64.5 147q0 67 37 113q15 19 43 37q22 15 48 29q20 10 54 24q-72 95 -72 172q0 61 40.5 97t116.5 36q72 0 110.5 -35t38.5 -94q0 -57 -36.5 -93.5t-115.5 -72.5
l207 -250q36 74 36 189l-61 18v18h165v-18zM313 29q112 0 167 73l-220 270q-64 -31 -94.5 -70.5t-30.5 -104.5q0 -81 46 -124.5t132 -43.5zM240 584q0 -68 66 -151q67 32 96 62.5t29 77.5t-27.5 74.5t-72.5 27.5q-42 0 -66.5 -24t-24.5 -67z" />
    <glyph glyph-name="quotesingle" unicode="'" horiz-adv-x="169" 
d="M97 510h-25q-3 43 -8 80.5t-9 57t-4 22.5q0 14 9.5 23.5t24.5 9.5q14 0 23.5 -9.5t9.5 -23.5q0 -3 -4 -22.5t-9 -57t-8 -80.5z" />
    <glyph glyph-name="parenleft" unicode="(" horiz-adv-x="282" 
d="M216 756l20 -20q-56 -74 -84 -200q-28 -125 -28 -261t28 -261q28 -126 84 -200l-20 -20q-77 77 -119 205q-41 131 -41 276t41 276q42 128 119 205z" />
    <glyph glyph-name="parenright" unicode=")" horiz-adv-x="283" 
d="M66 -206l-20 20q54 72 83 200q29 130 29 261t-29 261q-29 128 -83 200l20 20q78 -78 118 -205q42 -129 42 -276t-42 -276q-40 -127 -118 -205z" />
    <glyph glyph-name="asterisk" unicode="*" horiz-adv-x="456" 
d="M232 493q-21 -34 -38.5 -65.5t-25 -47t-9.5 -17.5q-15 -22 -40 -7q-10 7 -11.5 19t5.5 22l15 13q14 14 37 39.5t48 56.5q-38 9 -72.5 15.5t-52.5 9.5t-21 4q-12 4 -17 14t-1 22q3 11 14 16.5t22 1.5q2 -1 18 -9.5t47.5 -23t69.5 -29.5q-3 40 -7.5 75t-7.5 52.5t-3 19.5
q0 13 8.5 21t20.5 8q13 0 21 -8t8 -21q0 -2 -3 -19.5t-7 -52.5t-7 -75q38 15 70 29.5t48 23t17 9.5q25 8 37 -19q4 -10 -2 -20t-17 -14q-3 -1 -20.5 -4t-52 -9.5t-73.5 -16.5q26 -31 50.5 -57t37 -38t13.5 -14q17 -23 -6 -41q-21 -15 -40 7q-2 2 -9.5 18.5t-24.5 47
t-39 64.5z" />
    <glyph glyph-name="plus" unicode="+" horiz-adv-x="458" 
d="M211 283h-166v34h166v166h34v-166h167v-34h-167v-167h-34v167z" />
    <glyph glyph-name="comma" unicode="," horiz-adv-x="194" 
d="M69 -106l-14 15q17 17 30.5 42.5t13.5 39.5q0 6 -3 9q-21 0 -35 13.5t-14 34.5q0 20 14 34t36 14q50 0 50 -59q0 -65 -78 -143z" />
    <glyph glyph-name="hyphen" unicode="-" horiz-adv-x="315" 
d="M270 247h-225v34h225v-34z" />
    <glyph glyph-name="period" unicode="." horiz-adv-x="194" 
d="M96 96q31 2 44 -24t0 -52t-44 -24q-20 0 -34.5 14.5t-14.5 35.5t14.5 35.5t34.5 14.5z" />
    <glyph glyph-name="slash" unicode="/" horiz-adv-x="353" 
d="M349 750l-308 -850h-37l308 850h37z" />
    <glyph glyph-name="zero" unicode="0" horiz-adv-x="647" 
d="M323 706q118 0 190 -97q73 -95 73 -259q0 -163 -73 -260q-72 -96 -190 -96q-117 0 -190 96q-72 97 -72 260t72 259q73 97 190 97zM140 349q0 -150 50 -238q51 -86 134 -86q82 0 132 86q51 87 51 238q0 152 -51 239q-50 87 -132 87q-83 0 -134 -87q-50 -88 -50 -239z" />
    <glyph glyph-name="one" unicode="1" horiz-adv-x="377" 
d="M310 0h-238v24l82 22v601h-97v25l159 34l12 -12v-654l82 -17v-23z" />
    <glyph glyph-name="two" unicode="2" horiz-adv-x="543" 
d="M487 0h-443v35l97 84q48 44 83 79q48 46 75 81q110 136 103 246q0 74 -40 111.5t-113 37.5q-78 0 -128 -50v-62q0 -15 -10.5 -26t-26.5 -11q-36 0 -36 44q0 56 56 95q56 40 152 40q103 0 160.5 -48.5t57.5 -140.5q0 -91 -66 -186q-27 -39 -77 -88q-49 -49 -87 -81
l-102 -84l-21 -17h318l24 82h28z" />
    <glyph glyph-name="three" unicode="3" horiz-adv-x="586" 
d="M153 632v-53q0 -15 -10.5 -25.5t-26.5 -10.5t-26 11t-10 32q0 56 61 87q62 32 144 32q97 0 153.5 -46.5t56.5 -127.5q0 -62 -34 -103t-95 -57q75 -18 117 -65.5t42 -116.5q0 -90 -67 -142t-174 -52q-87 0 -148 31q-62 32 -62 88q0 21 10 32t25 11q16 0 27 -10.5t11 -25.5
v-56q47 -38 132 -38q78 0 123.5 43.5t45.5 120.5q0 78 -52.5 120.5t-145.5 42.5h-49v31h49q169 0 169 142q0 69 -38 107.5t-104 38.5q-77 0 -124 -41z" />
    <glyph glyph-name="four" unicode="4" horiz-adv-x="589" 
d="M514 0h-191v24l60 22v104h-326v25q89 144 137 263q48 122 48 262h73q0 -144 -70 -286q-38 -74 -67 -119q-25 -39 -80 -115h285v227l59 59l12 -12v-274h78v-30h-78v-110l60 -17v-23z" />
    <glyph glyph-name="five" unicode="5" horiz-adv-x="539" 
d="M129 110v-52q44 -32 113 -32q77 0 121.5 49t44.5 135q0 92 -47.5 142t-132.5 50q-70 0 -117 -33l-21 21l27 310q195 0 312 12v-67h-274l-36 -242q56 31 131 31q109 0 171.5 -58.5t62.5 -161.5q0 -102 -63.5 -160t-175.5 -58q-80 0 -135 29q-54 28 -54 79q0 21 10 32
t26 11t26.5 -10.5t10.5 -26.5z" />
    <glyph glyph-name="six" unicode="6" horiz-adv-x="570" 
d="M133 366q58 61 160 61q100 0 161 -58t61 -156q0 -101 -63 -159q-61 -58 -161 -58q-114 0 -175 80t-61 224q0 204 117 305q108 93 274 101l18 -18q-149 -17 -236 -102.5t-95 -219.5zM131 310q0 -283 158 -283q67 0 108 49t41 132q0 87 -45 134.5t-119 47.5q-48 0 -87 -22
t-56 -58z" />
    <glyph glyph-name="seven" unicode="7" horiz-adv-x="560" 
d="M295 0h-74q0 85 25 172q27 95 53 150q29 62 81 162q40 77 77 157h-343l-29 -79h-28l12 138h439v-25q-27 -69 -68 -164q-43 -98 -73 -172q-28 -72 -49 -161q-23 -97 -23 -178z" />
    <glyph glyph-name="eight" unicode="8" horiz-adv-x="588" 
d="M499 538q0 -62 -31.5 -101.5t-92.5 -67.5q77 -32 114.5 -74.5t37.5 -112.5q0 -88 -60 -138t-177 -50q-113 0 -171 46.5t-58 129.5q0 70 38 113t113 76q-63 28 -93.5 66t-30.5 102q0 82 52 130.5t156 48.5q100 0 151.5 -45t51.5 -123zM285 333q-27 7 -40 13
q-112 -61 -112 -171q0 -74 41.5 -112t117.5 -38q79 0 123 39t44 111q0 65 -40 95q-39 31 -134 63zM153 538q0 -61 33 -88q34 -26 118 -55l38 -14q87 60 87 154q0 67 -36 103.5t-100 36.5q-65 0 -102.5 -36.5t-37.5 -100.5z" />
    <glyph glyph-name="nine" unicode="9" horiz-adv-x="570" 
d="M433 334q-60 -60 -159 -60q-100 0 -159.5 56.5t-59.5 153.5q0 103 64 161q64 60 167 60q111 0 169 -76.5t58 -223.5q0 -199 -104 -298q-103 -98 -286 -112l-18 18q152 18 234 100.5t94 220.5zM436 391q0 283 -150 283q-69 0 -112 -52t-43 -136t44.5 -130t116.5 -46
q49 0 87.5 22.5t56.5 58.5z" />
    <glyph glyph-name="colon" unicode=":" horiz-adv-x="194" 
d="M96 96q31 2 44 -24t0 -52t-44 -24q-20 0 -34.5 14.5t-14.5 35.5t14.5 35.5t34.5 14.5zM96 464q31 2 44 -24t0 -52t-44 -24q-20 0 -34.5 14.5t-14.5 35.5t14.5 35.5t34.5 14.5z" />
    <glyph glyph-name="semicolon" unicode=";" horiz-adv-x="194" 
d="M69 -106l-14 15q17 17 30.5 42.5t13.5 39.5q0 6 -3 9q-21 0 -35 13.5t-14 34.5q0 20 14 34t36 14q50 0 50 -59q0 -65 -78 -143zM96 464q31 2 44 -24t0 -52t-44 -24q-20 0 -34.5 14.5t-14.5 35.5t14.5 35.5t34.5 14.5z" />
    <glyph glyph-name="less" unicode="&#x3c;" horiz-adv-x="458" 
d="M56 288l332 155l14 -31l-292 -137l292 -136l-14 -31l-332 155v25z" />
    <glyph glyph-name="equal" unicode="=" horiz-adv-x="458" 
d="M412 362h-367v34h367v-34zM412 204h-367v34h367v-34z" />
    <glyph glyph-name="greater" unicode="&#x3e;" horiz-adv-x="458" 
d="M348 275l-292 137l14 31l332 -155v-25l-332 -155l-14 31z" />
    <glyph glyph-name="question" unicode="?" horiz-adv-x="477" 
d="M244 185h-34q-7 110 45 182q8 11 32.5 41t35.5 46t22 44t11 56q0 57 -35 88.5t-96 31.5q-67 0 -104 -40v-58q0 -15 -10.5 -26t-26.5 -11q-36 0 -36 46q0 52 50 85.5t131 33.5q91 0 145.5 -43t54.5 -118q0 -36 -13.5 -67t-34.5 -52t-44.5 -46t-44.5 -49t-34.5 -61.5
t-13.5 -82.5zM181 47q0 20 15 34.5t35 14.5q21 0 35.5 -14.5t14.5 -34.5q0 -22 -14.5 -36.5t-35.5 -14.5t-35.5 15t-14.5 36z" />
    <glyph glyph-name="at" unicode="@" horiz-adv-x="852" 
d="M725 -50l15 -15q-104 -104 -295 -104q-174 0 -275 95q-100 94 -100 265q0 162 95 257q95 94 274 94q171 0 257 -87q86 -86 86 -227q0 -107 -47.5 -170t-128.5 -63q-69 0 -73 46l-3 2q-48 -48 -133 -48q-74 0 -116 52t-42 140q0 96 52 147.5t147 51.5q57 0 115 -20l32 20
l11 -10v-314q0 -36 33 -36q45 0 70.5 54t25.5 140q0 141 -71.5 217t-213.5 76q-148 0 -229 -84.5t-81 -238.5q0 -156 86 -243t248 -87q171 0 261 90zM530 69v265q-34 25 -91 25q-63 0 -96 -43t-33 -125q0 -79 30.5 -121.5t87.5 -42.5q68 0 102 42z" />
    <glyph glyph-name="A" unicode="A" horiz-adv-x="765" 
d="M362 700h38l286 -659l64 -18v-23h-203v23l61 18l-85 197h-328l-85 -197l83 -18v-23h-178v23l62 18zM509 269l-150 350l-152 -350h302z" />
    <glyph glyph-name="B" unicode="B" horiz-adv-x="655" 
d="M45 680v20h291q102 0 166 -47q63 -47 63 -128q0 -62 -36.5 -104.5t-102.5 -59.5q79 -17 124 -63.5t45 -112.5q0 -87 -72 -136q-70 -49 -187 -49h-291v20l65 15v630zM186 344v-314h137q86 0 138 42t52 115q0 74 -51.5 115.5t-138.5 41.5h-137zM323 670h-137v-295h137
q74 0 117.5 39t43.5 108t-44 108.5t-117 39.5z" />
    <glyph glyph-name="C" unicode="C" horiz-adv-x="723" 
d="M641 116l19 -19q-100 -103 -260 -103q-155 0 -247 95q-92 97 -92 260t92 260q93 97 248 97q116 0 202 -56l30 21l12 -12l12 -131h-27q-46 145 -213 145q-131 0 -203 -84.5t-72 -237.5q0 -149 72 -234q72 -86 206 -86q137 0 221 85z" />
    <glyph glyph-name="D" unicode="D" horiz-adv-x="731" 
d="M45 680v20h290q152 0 243 -94q92 -94 92 -256t-92 -257q-92 -93 -243 -93h-290v20l65 15v630zM335 670h-149v-640h149q113 0 184 84q70 83 70 235q0 151 -70 236t-184 85z" />
    <glyph glyph-name="E" unicode="E" horiz-adv-x="630" 
d="M186 344v-314h322l35 93h28l-11 -123h-515v20l65 15v630l-65 15v20h505l11 -123h-28l-35 93h-312v-295h249l17 68h25v-167h-25l-17 68h-249z" />
    <glyph glyph-name="F" unicode="F" horiz-adv-x="610" 
d="M439 275l-17 68h-236v-297l95 -23v-23h-236v24l65 24v617l-65 15v20h495l11 -123h-28l-35 93h-302v-297h236l17 69h25v-167h-25z" />
    <glyph glyph-name="G" unicode="G" horiz-adv-x="768" 
d="M723 312l-65 -20v-252l-12 -12l-38 27q-88 -61 -208 -61q-156 0 -248 95q-91 95 -91 260q0 163 92 260q93 97 248 97q116 0 202 -56l30 21l12 -12l12 -131h-27q-46 145 -213 145q-131 0 -203 -84.5t-72 -237.5q0 -148 70 -234q71 -86 201 -86q101 0 169 52v210l-65 19v23
h206v-23z" />
    <glyph glyph-name="H" unicode="H" horiz-adv-x="776" 
d="M45 0v24l65 24v610l-65 19v23h206v-23l-65 -20v-287h404v288l-65 19v23h206v-23l-65 -20v-616l65 -18v-23h-206v24l65 24v291h-404v-298l65 -18v-23h-206z" />
    <glyph glyph-name="I" unicode="I" horiz-adv-x="295" 
d="M250 677l-65 -20v-616l65 -18v-23h-205v24l65 24v610l-65 19v23h205v-23z" />
    <glyph glyph-name="J" unicode="J" horiz-adv-x="295" 
d="M110 0v658l-65 19v23h205v-23l-65 -20v-657q0 -79 -36.5 -147t-102.5 -109l-20 20q40 37 62 101t22 135z" />
    <glyph glyph-name="K" unicode="K" horiz-adv-x="679" 
d="M247 677l-65 -20v-341l332 342l-85 19v23h193v-23l-63 -19l-227 -236l259 -381l65 -18v-23h-128l-250 369l-96 -99v-229l65 -18v-23h-206v24l65 24v610l-65 19v23h206v-23z" />
    <glyph glyph-name="L" unicode="L" horiz-adv-x="604" 
d="M186 657v-627h296l35 93h28l-12 -123h-488v20l65 15v623l-65 19v23h206v-23z" />
    <glyph glyph-name="M" unicode="M" horiz-adv-x="928" 
d="M853 677l-65 -20l47 -616l65 -18v-23h-206v24l65 24l-41 544l-256 -592h-38l-257 592l-44 -556l65 -19v-17h-160v18l65 24l48 616l-64 19v23h121l267 -619l267 619h121v-23z" />
    <glyph glyph-name="N" unicode="N" horiz-adv-x="735" 
d="M45 0v18l65 24v616l-65 19v23h143l407 -584v548l-65 19v17h160v-17l-65 -20v-663h-37l-448 643v-607l65 -19v-17h-160z" />
    <glyph glyph-name="O" unicode="O" horiz-adv-x="788" 
d="M153 90q-92 98 -92 260t92 259q91 97 241 97t241 -97q92 -97 92 -259t-92 -260q-91 -96 -241 -96q-149 0 -241 96zM142 349q0 -151 69 -238q71 -86 183 -86q113 0 182 86q70 86 70 238q0 153 -70 239q-71 87 -182 87q-112 0 -183 -87q-69 -87 -69 -239z" />
    <glyph glyph-name="P" unicode="P" horiz-adv-x="614" 
d="M297 670h-111v-624l95 -23v-23h-236v24l65 24v617l-65 15v20h264q109 0 177 -54q67 -54 67 -147t-67 -147q-68 -53 -177 -53h-77l-12 13v18h77q80 0 127.5 45t47.5 124q0 80 -48 125.5t-127 45.5z" />
    <glyph glyph-name="Q" unicode="Q" horiz-adv-x="788" 
d="M764 -66l12 -12q-48 -49 -122 -49q-38 0 -85 15q-41 12 -69 25q-20 9 -82 45q-56 33 -68 39q-130 13 -210 108q-79 94 -79 245q0 162 92 259q91 97 241 97t241 -97q92 -97 92 -259q0 -142 -71 -234q-70 -91 -188 -112q2 -1 26 -15l27 -16l25 -13l28 -14q50 -23 51 -23
q46 -14 74 -14q40 0 65 25zM142 349q0 -151 69 -238q71 -86 183 -86q113 0 182 86q70 86 70 238q0 153 -70 239q-71 87 -182 87q-112 0 -183 -87q-69 -87 -69 -239z" />
    <glyph glyph-name="R" unicode="R" horiz-adv-x="656" 
d="M562 512q0 -77 -50 -125.5t-135 -57.5q33 -17 80 -99l110 -189l66 -18v-23h-126l-188 324h-133v-283l65 -18v-23h-206v24l65 24v617l-65 15v20h288q103 0 166 -51q63 -49 63 -137zM321 670h-135v-315h135q72 0 115.5 42t43.5 115t-43.5 115.5t-115.5 42.5z" />
    <glyph glyph-name="S" unicode="S" 
d="M78 13l-12 12l-12 136h27q32 -136 194 -136q83 0 131.5 39t48.5 112q0 62 -39 90q-37 27 -140 58l-47 14l-41 15q-26 10 -41 19q-46 32 -60 56q-22 46 -22 94q0 87 54 135.5t163 48.5q93 0 166 -44l25 23l12 -12l12 -134h-28q-28 136 -174 136q-75 0 -118.5 -38
t-43.5 -105q0 -58 35 -84q33 -24 125 -52l50 -16q16 -4 46 -17q30 -11 45 -21q50 -33 65 -60q24 -44 24 -98q0 -90 -59.5 -140t-178.5 -50q-101 0 -180 44z" />
    <glyph glyph-name="T" unicode="T" horiz-adv-x="673" 
d="M602 577l-35 93h-192v-629l65 -18v-23h-206v24l65 24v622h-192l-35 -95h-27l11 125h562l11 -123h-27z" />
    <glyph glyph-name="U" unicode="U" horiz-adv-x="757" 
d="M713 683l-65 -20v-408q0 -119 -75 -189q-73 -70 -195 -70t-195 70t-73 189v403l-65 19v23h206v-23l-65 -20v-402q0 -102 59 -160.5t158 -58.5q98 0 157.5 58.5t59.5 160.5v409l-65 19v17h158v-17z" />
    <glyph glyph-name="V" unicode="V" horiz-adv-x="765" 
d="M403 0h-38l-285 658l-65 19v23h207v-23l-65 -19l249 -577l249 577l-83 19v23h178v-23l-61 -19z" />
    <glyph glyph-name="W" unicode="W" horiz-adv-x="1172" 
d="M822 0h-38l-199 487l-195 -487h-38l-272 658l-65 19v23h207v-23l-65 -19l237 -577l175 444l-58 133l-64 19v23h207v-23l-65 -19l237 -577l236 577l-84 19v23h178v-23l-61 -19z" />
    <glyph glyph-name="X" unicode="X" horiz-adv-x="743" 
d="M507 23l61 17l-218 288l-226 -288l79 -17v-23h-179v23l63 17l247 310l-234 310l-63 17v23h212v-23l-62 -17l203 -270l212 270l-79 17v23h180v-23l-64 -17l-232 -292l248 -328l63 -17v-23h-211v23z" />
    <glyph glyph-name="Y" unicode="Y" horiz-adv-x="702" 
d="M227 677l-62 -17l208 -330l214 330l-78 17v23h178v-23l-64 -17l-237 -363v-256l65 -18v-23h-206v24l65 24v248l-231 364l-64 17v23h212v-23z" />
    <glyph glyph-name="Z" unicode="Z" horiz-adv-x="641" 
d="M579 0h-518v25l429 645h-361l-35 -95h-27l11 125h497v-25l-429 -645h381l35 103h28z" />
    <glyph glyph-name="bracketleft" unicode="[" horiz-adv-x="298" 
d="M251 727l-95 -19v-867l95 -18v-23h-163v950h163v-23z" />
    <glyph glyph-name="backslash" unicode="\" horiz-adv-x="353" 
d="M41 750l308 -850h-37l-308 850h37z" />
    <glyph glyph-name="bracketright" unicode="]" horiz-adv-x="298" 
d="M47 -177l95 18v867l-95 19v23h163v-950h-163v23z" />
    <glyph glyph-name="asciicircum" unicode="^" horiz-adv-x="507" 
d="M47 475l202 229h9l202 -229l-18 -18l-188 180l-189 -180z" />
    <glyph glyph-name="underscore" unicode="_" horiz-adv-x="625" 
d="M621 -84h-617v34h617v-34z" />
    <glyph glyph-name="grave" unicode="`" horiz-adv-x="283" 
d="M47 625l46 46l143 -128l-19 -19z" />
    <glyph glyph-name="a" unicode="a" horiz-adv-x="523" 
d="M346 50l-3 3q-31 -25 -78 -41.5t-93 -16.5q-116 0 -116 107q0 66 54 93t230 66q2 1 5 1v84q0 39 -28.5 63.5t-75.5 24.5q-57 0 -98 -31v-50q0 -21 -18.5 -31t-36.5 -0.5t-18 35.5q0 46 51 76q52 31 127 31q77 0 123.5 -33t46.5 -87v-288q0 -26 23 -26q19 0 29 12l11 -11
q-34 -34 -86 -34q-46 0 -49 53zM345 84v146q-132 -29 -169 -47q-48 -25 -48 -76q0 -77 82 -77q78 0 135 54z" />
    <glyph glyph-name="b" unicode="b" horiz-adv-x="587" 
d="M105 37v666l-60 14v21l121 18l12 -12v-284l-2 -50l3 -3q25 27 70 42t92 15q91 0 141 -62t50 -168q0 -116 -63 -177t-180 -61q-107 0 -184 41zM178 375v-319q44 -31 117 -31q76 0 118 53t42 151q0 94 -39 146.5t-109 52.5q-84 0 -129 -53z" />
    <glyph glyph-name="c" unicode="c" horiz-adv-x="534" 
d="M398 354v51q-40 29 -107 29q-75 0 -117.5 -52t-42.5 -144q0 -99 48.5 -152.5t133.5 -53.5q92 0 137 46l20 -20q-65 -62 -180 -62q-109 0 -172 63t-63 173q0 109 62 170.5t173 61.5q76 0 128 -27q53 -27 53 -76q0 -21 -10.5 -32.5t-25.5 -11.5q-16 0 -26.5 11t-10.5 26z
" />
    <glyph glyph-name="d" unicode="d" horiz-adv-x="587" 
d="M482 744v-692l54 -19v-26l-115 -13l-12 12l2 44l-3 3q-25 -27 -70 -42t-92 -15q-90 0 -140.5 62t-50.5 166q0 114 60.5 177t168.5 63q78 0 125 -32v271l-60 14v21l121 18zM409 85v313q-45 36 -117 36q-76 0 -118.5 -53.5t-42.5 -151.5q0 -93 39.5 -145t109.5 -52
q84 0 129 53z" />
    <glyph glyph-name="e" unicode="e" horiz-adv-x="538" 
d="M475 257l-13 -12h-331q1 -213 178 -213q96 0 139 46l20 -20q-60 -62 -178 -62q-109 0 -172 64t-63 171q0 108 62 170q63 63 162 63q89 0 144 -50q55 -49 55 -124q0 -20 -3 -33zM284 434q-60 0 -103 -48q-43 -46 -49 -113l279 7q0 68 -35 111t-92 43z" />
    <glyph glyph-name="f" unicode="f" horiz-adv-x="388" 
d="M45 454l60 11v130q0 73 43.5 116t117.5 43q61 0 99 -29t38 -70q0 -42 -36 -42q-16 0 -26.5 10.5t-10.5 26.5v57q-22 18 -60 18q-43 0 -67.5 -34t-24.5 -95v-136h173v-30h-173v-386l92 -21v-23h-225v24l60 22v384h-60v24z" />
    <glyph glyph-name="g" unicode="g" horiz-adv-x="569" 
d="M510 437l-61 -17h-44q54 -44 54 -114q0 -71 -53.5 -113t-141.5 -42q-66 0 -113 24q-24 -32 -24 -65q0 -55 84 -55h141q158 0 158 -134q0 -174 -268 -174q-204 0 -204 104q0 38 25.5 75.5t66.5 65.5q-58 19 -58 85q0 52 57 112q-59 44 -59 117q0 72 53.5 114.5t140.5 42.5
q22 0 41 -3h205v-23zM358 -17h-161q-21 0 -39 3q-49 -53 -49 -114q0 -51 35.5 -73t108.5 -22q96 0 147.5 31t51.5 90q0 40 -23.5 62.5t-70.5 22.5zM384 306q0 59 -33 94t-87 35t-86.5 -35t-32.5 -94t32 -93t87 -34t87.5 34t32.5 93z" />
    <glyph glyph-name="h" unicode="h" horiz-adv-x="612" 
d="M178 367v-327l58 -17v-23h-191v24l60 22v657l-60 14v21l121 18l12 -12v-284l-2 -57l3 -3q32 31 87 47q57 17 101 17q68 0 104 -43.5t36 -118.5v-262l60 -17v-23h-192v24l58 22v251q0 62 -25.5 96.5t-72.5 34.5q-36 0 -81 -16q-46 -16 -76 -45z" />
    <glyph glyph-name="i" unicode="i" horiz-adv-x="283" 
d="M238 0h-193v24l60 22v361l-54 14v27l115 18l12 -12v-414l60 -17v-23zM133 660q23 0 38 -15t15 -38q0 -22 -15 -37t-38 -15q-22 0 -37 15t-15 37t15 37.5t37 15.5z" />
    <glyph glyph-name="j" unicode="j" horiz-adv-x="283" 
d="M105 0v407l-54 14v27l115 18l12 -12v-454q0 -79 -36 -147t-101 -109l-20 20q40 37 62 101t22 135zM133 660q23 0 38 -15t15 -38q0 -22 -15 -37t-38 -15q-22 0 -37 15t-15 37t15 37.5t37 15.5z" />
    <glyph glyph-name="k" unicode="k" horiz-adv-x="546" 
d="M527 0h-117l-155 249l-77 -73v-136l60 -17v-23h-193v24l60 22v657l-60 14v21l121 18l12 -12v-522l213 198l-80 17v23h183v-23l-57 -17l-130 -122l159 -258l61 -17v-23z" />
    <glyph glyph-name="l" unicode="l" horiz-adv-x="283" 
d="M238 0h-193v24l60 22v657l-60 14v21l121 18l12 -12v-704l60 -17v-23z" />
    <glyph glyph-name="m" unicode="m" horiz-adv-x="869" 
d="M178 367v-327l56 -17v-23h-189v24l60 22v361l-54 14v27l115 18l12 -12l-2 -51l3 -3q29 31 78 47q51 17 88 17q79 0 108 -68q34 31 87 49q53 19 96 19q62 0 95.5 -43.5t33.5 -118.5v-262l60 -17v-23h-190v24l56 22v251q0 61 -23.5 96t-65.5 35q-32 0 -72 -15.5t-68 -41.5
q9 -31 9 -69v-262l56 -17v-23h-185v24l56 22v251q0 61 -23.5 96t-64.5 35q-30 0 -68 -16t-64 -45z" />
    <glyph glyph-name="n" unicode="n" horiz-adv-x="612" 
d="M178 367v-327l58 -17v-23h-191v24l60 22v361l-54 14v27l115 18l12 -12l-2 -51l3 -3q31 30 87 47q57 17 100 17q68 0 104.5 -44t36.5 -118v-262l60 -17v-23h-192v24l58 22v251q0 61 -27 96t-75 35q-36 0 -80 -16.5t-73 -44.5z" />
    <glyph glyph-name="o" unicode="o" horiz-adv-x="569" 
d="M118 59q-63 63 -63 171t63 171t166 63t166 -63q64 -63 64 -171t-64 -171q-63 -63 -166 -63t-166 63zM131 230q0 -94 41.5 -148.5t111.5 -54.5t111.5 54.5t41.5 148.5q0 95 -41.5 149.5t-111.5 54.5t-111.5 -54.5t-41.5 -149.5z" />
    <glyph glyph-name="p" unicode="p" horiz-adv-x="587" 
d="M270 -250h-225v24l60 22v611l-54 14v27l115 18l12 -12l-2 -44l3 -3q25 27 70 42t92 15q90 0 140.5 -62.5t50.5 -166.5q0 -113 -60.5 -176t-168.5 -63q-76 0 -125 32v-235l92 -20v-23zM178 375v-314q45 -36 117 -36q75 0 117.5 54t42.5 151q0 94 -39 146t-109 52
q-84 0 -129 -53z" />
    <glyph glyph-name="q" unicode="q" horiz-adv-x="572" 
d="M482 454v-658l60 -22v-24h-193v23l60 17v210l2 50l-3 3q-25 -27 -70 -42t-92 -15q-90 0 -140.5 62.5t-50.5 167.5q0 116 62.5 177t179.5 61q68 0 134 -23l39 25zM409 85v318q-44 31 -117 31q-76 0 -118.5 -53.5t-42.5 -150.5q0 -94 39 -146t110 -52q84 0 129 53z" />
    <glyph glyph-name="r" unicode="r" horiz-adv-x="456" 
d="M45 24l60 22v361l-54 14v27l115 18l12 -13l-2 -89l3 -3q11 18 25 36q52 67 117 67q40 0 67.5 -25.5t27.5 -63.5q0 -43 -36 -43q-16 0 -26.5 10.5t-10.5 25.5v55q-14 11 -33 11q-34 0 -67 -30q-32 -29 -49 -60l-16 -29v-271l92 -21v-23h-225v24z" />
    <glyph glyph-name="s" unicode="s" horiz-adv-x="446" 
d="M69 7l-11 11v102h28q25 -94 123 -94q56 0 89 23.5t33 67.5q0 37 -27 53q-27 18 -94 34l-38 10q-47 13 -67 27q-52 42 -47 96q0 126 160 126q73 0 123 -32l17 17l11 -11v-100h-28q-23 96 -113 96q-47 0 -76.5 -23.5t-29.5 -62.5q0 -35 23 -50q24 -13 84 -30l48 -14
q21 -7 42 -17q29 -14 40 -26q35 -33 35 -86q0 -128 -179 -128q-73 0 -128 28z" />
    <glyph glyph-name="t" unicode="t" horiz-adv-x="387" 
d="M105 430h-60v18q81 29 121 120l12 -12v-96h147v-30h-147v-302q0 -46 23 -71.5t64 -25.5q43 0 67 24l17 -17q-41 -42 -112 -42q-61 0 -96.5 35.5t-35.5 96.5v302z" />
    <glyph glyph-name="u" unicode="u" horiz-adv-x="611" 
d="M506 454v-402l54 -19v-26l-116 -13l-12 12l2 53l-3 3q-32 -31 -87 -49q-56 -17 -101 -17q-67 0 -102.5 37.5t-35.5 101.5v272l-54 14v27l115 18l12 -12v-316q0 -49 26.5 -77.5t74.5 -28.5q38 0 82 17.5t71 46.5v311l-54 14v27l115 18z" />
    <glyph glyph-name="v" unicode="v" horiz-adv-x="578" 
d="M308 0h-36l-194 420l-59 17v23h191v-23l-56 -17l158 -339l157 339l-78 17v23h167v-23l-56 -17z" />
    <glyph glyph-name="w" unicode="w" horiz-adv-x="844" 
d="M590 0h-35l-129 304l-131 -304h-36l-181 420l-59 17v23h189v-23l-56 -17l144 -343l114 264l-32 79l-59 17v23h189v-23l-56 -17l140 -343l143 343l-78 17v23h168v-23l-56 -17z" />
    <glyph glyph-name="x" unicode="x" horiz-adv-x="566" 
d="M341 23l55 17l-134 165l-138 -165l75 -17v-23h-170v23l58 17l158 187l-156 193l-56 17v23h197v-23l-56 -17l127 -158l134 158l-74 17v23h169v-23l-58 -17l-153 -180l162 -200l56 -17v-23h-196v23z" />
    <glyph glyph-name="y" unicode="y" horiz-adv-x="580" 
d="M273 -2l-195 422l-59 17v23h191v-23l-56 -17l158 -339l157 339l-78 17v23h170v-23l-56 -17l-196 -420q-73 -156 -105 -205q-32 -48 -75 -48q-31 0 -52 17t-21 46q0 43 39 43q18 0 29.5 -10t11.5 -26v-31q4 -3 11 -3q19 0 45 44q26 43 81 171z" />
    <glyph glyph-name="z" unicode="z" horiz-adv-x="501" 
d="M440 0h-379v25l294 405h-234l-23 -83h-28v113h366v-25l-294 -405h247l23 83h28v-113z" />
    <glyph glyph-name="braceleft" unicode="{" horiz-adv-x="369" 
d="M118 276q48 -24 75 -85t27 -147q0 -100 28 -158t74 -58v-31q-78 0 -126 67.5t-48 180.5q0 100 -27.5 158t-73.5 58v31q46 0 73.5 57.5t27.5 157.5q0 113 48 180.5t126 67.5v-31q-46 0 -74 -58t-28 -158q0 -86 -27 -147t-75 -85z" />
    <glyph glyph-name="bar" unicode="|" horiz-adv-x="243" 
d="M139 750v-1000h-34v1000h34z" />
    <glyph glyph-name="braceright" unicode="}" horiz-adv-x="369" 
d="M251 276q-48 24 -75.5 85t-27.5 147q0 100 -27.5 158t-73.5 58v31q77 0 125 -67t48 -181q0 -100 28 -157.5t74 -57.5v-31q-46 0 -74 -58t-28 -158q0 -113 -48 -181q-48 -67 -125 -67v31q46 0 73.5 58t27.5 158q0 86 27.5 147t75.5 85z" />
    <glyph glyph-name="asciitilde" unicode="~" horiz-adv-x="471" 
d="M64 248l-17 17q89 90 133 90q22 0 63 -27t66 -27q49 0 98 52l17 -17q-88 -91 -138 -91q-22 0 -63 27t-66 27q-42 0 -93 -51z" />
    <glyph glyph-name="exclamdown" unicode="&#xa1;" horiz-adv-x="202" 
d="M84 460h34q11 -274 19 -377q3 -44 7 -76.5t5.5 -45t1.5 -15.5q0 -20 -14.5 -34.5t-35.5 -14.5q-20 0 -34.5 14.5t-14.5 34.5q0 3 0.5 8.5t2 20t3.5 29.5q4 25 7 79q8 103 19 377zM101 644q21 0 35.5 -14.5t14.5 -35.5t-14.5 -35.5t-35.5 -14.5q-20 0 -35 14.5t-15 35.5
t15 35.5t35 14.5z" />
    <glyph glyph-name="cent" unicode="&#xa2;" horiz-adv-x="534" 
d="M302 -4v-46h-31v47q-101 5 -158.5 67t-57.5 168q0 103 57 164.5t159 66.5v47h31v-46q70 -2 120 -30q49 -27 49 -73q0 -21 -10.5 -32.5t-25.5 -11.5q-16 0 -26.5 11t-10.5 26v51q-33 24 -96 29v-402h11q92 0 137 46l20 -20q-59 -58 -168 -62zM131 238q0 -86 36.5 -138.5
t103.5 -64.5v398q-66 -8 -103 -59.5t-37 -135.5z" />
    <glyph glyph-name="sterling" unicode="&#xa3;" horiz-adv-x="577" 
d="M105 335h-60v18l60 12v133q0 96 56 151t157 55q74 0 122 -27.5t48 -75.5q0 -21 -10 -32.5t-26 -11.5t-26.5 11t-10.5 26v51q-35 29 -94 29q-66 0 -104.5 -45t-38.5 -124v-140h219v-30h-219q0 -132 -33 -264q38 20 70 20q30 0 84 -26q51 -25 87 -25q61 0 128 52l17 -17
q-112 -88 -178 -88q-32 0 -83 25q-54 26 -87 26q-55 0 -121 -51l-17 17q43 33 60 44v287z" />
    <glyph glyph-name="currency" unicode="&#xa4;" horiz-adv-x="534" 
d="M130 414l-67 68l22 22l67 -67q45 39 115 39q69 0 116 -38l66 66l22 -22l-67 -66q39 -46 39 -116t-39 -116l67 -66l-22 -22l-67 67q-49 -38 -115 -38q-69 0 -114 39l-68 -68l-22 22l68 68q-37 44 -37 114q0 69 36 114zM125 300q0 -64 39 -104t103 -40q65 0 104.5 40
t39.5 104q0 66 -39.5 107t-104.5 41q-64 0 -103 -41t-39 -107z" />
    <glyph glyph-name="yen" unicode="&#xa5;" horiz-adv-x="702" 
d="M310 227h-146v34h146v35l-231 364l-64 17v23h212v-23l-62 -17l208 -330l214 330l-78 17v23h178v-23l-64 -17l-237 -363v-36h145v-34h-145v-81h145v-34h-145v-71l65 -18v-23h-206v24l65 24v64h-146v34h146v81z" />
    <glyph glyph-name="brokenbar" unicode="&#xa6;" horiz-adv-x="243" 
d="M105 750h34v-450h-34v450zM139 200v-450h-34v450h34z" />
    <glyph glyph-name="section" unicode="&#xa7;" horiz-adv-x="477" 
d="M105 439q-52 39 -52 106q0 74 52 116.5t143 42.5q80 0 128 -33.5t48 -85.5q0 -22 -10 -34t-26 -12t-26.5 11t-10.5 26v58q-37 40 -98 40q-60 0 -94 -30.5t-34 -83.5q0 -41 22 -70t55 -42.5t72 -28t72 -27t55 -39t22 -64.5q0 -57 -50 -127q56 -39 56 -108
q0 -73 -54.5 -116t-145.5 -43q-81 0 -131 34t-50 86q0 46 36 46q16 0 26.5 -11t10.5 -27v-58q37 -40 104 -40q60 0 95.5 31t35.5 84q0 46 -29.5 76.5t-77.5 44.5q-10 3 -32.5 9.5t-34.5 10.5t-32 11.5t-31 14t-25.5 17t-21.5 21.5t-12.5 26t-5.5 33q0 64 51 135zM334 182
q32 50 32 84q0 35 -23.5 60.5t-56.5 36.5l-76 26q-43 14 -69 29q-32 -56 -32 -89q0 -36 24 -62t58 -37q64 -18 76 -22q49 -15 67 -26z" />
    <glyph glyph-name="dieresis" unicode="&#xa8;" horiz-adv-x="301" 
d="M7 550q-14 14 -14 34t14 34t34 14t34 -14t14 -34t-14 -34t-34 -14t-34 14zM226 550q-14 14 -14 34t14 34t34 14t33 -14q14 -14 14 -34t-14 -34q-13 -14 -33 -14t-34 14z" />
    <glyph glyph-name="copyright" unicode="&#xa9;" horiz-adv-x="801" 
d="M149 99q-104 104 -104 251t104 251t251 104t251 -104t104 -251t-104 -251t-251 -104t-251 104zM400 25q135 0 230 95q95 97 95 230q0 134 -95 229q-94 96 -230 96q-135 0 -229 -96q-95 -95 -95 -229q0 -133 95 -230q95 -95 229 -95zM524 238l12 -13q-56 -53 -132 -53
q-79 0 -125.5 48t-46.5 129q0 83 46.5 131.5t125.5 48.5q56 0 97 -25l19 10l7 -7l7 -69h-20q-24 70 -101 70q-60 0 -91.5 -39.5t-31.5 -116.5q0 -72 33 -113t96 -41q64 0 105 40z" />
    <glyph glyph-name="ordfeminine" unicode="&#xaa;" horiz-adv-x="276" 
d="M170 494l-1 2q-32 -28 -83 -28q-57 0 -57 53q0 33 26 47q31 15 115 34v40q0 18 -12.5 29t-32.5 11q-25 0 -42 -12v-25q0 -14 -12 -20t-23.5 0t-11.5 22q0 25 26.5 40t68.5 15t67 -17.5t25 -44.5v-139q0 -11 10 -11q8 0 14 6l6 -7q-20 -20 -53 -20q-27 0 -30 25zM170 514
v68q-46 -11 -59 -16q-32 -11 -32 -41q0 -34 34 -34q31 0 57 23z" />
    <glyph glyph-name="guillemotleft" unicode="&#xab;" horiz-adv-x="420" 
d="M193 97l-148 158v10l148 158l18 -18l-99 -145l99 -145zM347 97l-149 158v10l149 158l18 -18l-100 -145l100 -145z" />
    <glyph glyph-name="logicalnot" unicode="&#xac;" horiz-adv-x="508" 
d="M428 334h-383v34h417v-136h-34v102z" />
    <glyph glyph-name="uni00AD" unicode="&#xad;" horiz-adv-x="315" 
d="M270 283h-225v34h225v-34z" />
    <glyph glyph-name="registered" unicode="&#xae;" horiz-adv-x="801" 
d="M149 99q-104 104 -104 251t104 251t251 104t251 -104t104 -251t-104 -251t-251 -104t-251 104zM400 25q135 0 230 95q95 97 95 230q0 134 -95 229q-94 96 -230 96q-135 0 -229 -96q-95 -95 -95 -229q0 -133 95 -230q95 -95 229 -95zM529 437q0 -36 -24 -60.5t-64 -30.5
q16 -7 41 -49l49 -90l33 -10v-15h-79l-88 159h-54v-134l33 -10v-15h-121v16l33 14v298l-33 9v13h152q55 0 88.5 -25.5t33.5 -69.5zM400 512h-57v-151h57q33 0 52 20t19 56t-19 55.5t-52 19.5z" />
    <glyph glyph-name="overscore" unicode="&#xaf;" horiz-adv-x="315" 
d="M277 564h-239v36h239v-36z" />
    <glyph glyph-name="degree" unicode="&#xb0;" horiz-adv-x="277" 
d="M44 610q0 43 26 69t67 26q43 0 69 -26t26 -69q0 -42 -26 -68t-69 -26q-41 0 -67 26.5t-26 67.5zM77 610q0 -29 16.5 -46.5t44.5 -17.5t45 17.5t17 46.5t-17 47.5t-45 18.5t-44.5 -18t-16.5 -48z" />
    <glyph glyph-name="plusminus" unicode="&#xb1;" horiz-adv-x="458" 
d="M211 333h-166v34h166v166h34v-166h167v-34h-167v-167h-34v167zM412 51h-367v34h367v-34z" />
    <glyph glyph-name="twosuperior" unicode="&#xb2;" horiz-adv-x="281" 
d="M250 350h-225v24q85 74 128 129q41 53 41 113q0 66 -65 66q-35 0 -57 -22v-31q0 -10 -6.5 -16.5t-16.5 -6.5q-23 0 -23 27q0 30 29 49.5t78 19.5q52 0 81.5 -24t29.5 -69t-35 -95q-12 -19 -42 -46l-42 -38l-50 -41h145l14 42h20z" />
    <glyph glyph-name="threesuperior" unicode="&#xb3;" horiz-adv-x="303" 
d="M86 664v-27q0 -10 -6.5 -16.5t-16.5 -6.5q-23 0 -23 26q0 28 30.5 45t74.5 17q51 0 81.5 -23.5t30.5 -63.5q0 -62 -65 -80q37 -9 58 -32.5t21 -58.5q0 -44 -34.5 -70t-91.5 -26q-46 0 -77 17t-31 45q0 26 23 26q10 0 16.5 -6.5t6.5 -16.5v-29q19 -16 56 -16q36 0 57 20.5
t21 58.5q0 77 -91 77h-24v20h22q79 0 79 68q0 33 -17 51.5t-47 18.5q-32 0 -53 -18z" />
    <glyph glyph-name="acute" unicode="&#xb4;" horiz-adv-x="283" 
d="M65 524l-18 19l143 128l46 -46z" />
    <glyph glyph-name="mu" unicode="&#xb5;" horiz-adv-x="611" 
d="M105 -109v516l-54 14v27l115 18l12 -12v-316q0 -49 26.5 -77.5t74.5 -28.5q38 0 82 17.5t71 46.5v311l-54 14v27l115 18l13 -12v-402l54 -19v-26l-116 -13l-12 12l2 53l-3 3q-31 -31 -84 -49q-54 -17 -96 -17q-56 0 -85 28q7 -43 14 -75t11 -44.5t4 -13.5
q0 -19 -13.5 -32t-32.5 -13q-18 0 -31 13t-13 32z" />
    <glyph glyph-name="paragraph" unicode="&#xb6;" horiz-adv-x="511" 
d="M344 7v212q-127 0 -204 64q-78 65 -78 176t78 176q79 65 204 65h122v-23l-60 -19v-651q0 -81 -36 -151.5t-101 -111.5l-20 20q46 38 70.5 104t24.5 139z" />
    <glyph glyph-name="middot" unicode="&#xb7;" horiz-adv-x="194" 
d="M96 330q31 2 44 -24t0 -52t-44 -24q-20 0 -34.5 14.5t-14.5 35.5t14.5 35.5t34.5 14.5z" />
    <glyph glyph-name="cedilla" unicode="&#xb8;" horiz-adv-x="189" 
d="M37 -88l49 88h28l-24 -45q78 0 78 -44q0 -34 -89 -123l-12 13q50 53 50 81q0 30 -80 30z" />
    <glyph glyph-name="onesuperior" unicode="&#xb9;" horiz-adv-x="205" 
d="M173 350h-137v16l42 12v288h-48v17l94 20l7 -6v-322l42 -10v-15z" />
    <glyph glyph-name="ordmasculine" unicode="&#xba;" horiz-adv-x="292" 
d="M60 499q-32 32 -32 86q0 53 32 85q34 32 86 32q53 0 85 -32t32 -85q0 -54 -32 -86q-31 -31 -85 -31t-86 31zM100 657q-17 -26 -17 -72t17 -72q17 -25 46 -25t46 25q18 25 18 72t-18 72q-17 25 -46 25t-46 -25z" />
    <glyph glyph-name="guillemotright" unicode="&#xbb;" horiz-adv-x="420" 
d="M227 423l148 -158v-10l-148 -158l-19 18l100 145l-100 145zM73 423l148 -158v-10l-148 -158l-18 18l99 145l-99 145z" />
    <glyph glyph-name="onequarter" unicode="&#xbc;" horiz-adv-x="572" 
d="M535 0h-109v16l29 12v47h-152v14q46 78 67 137t21 124h53q0 -65 -28 -124t-86 -131h125v95l44 43l7 -6v-132h36v-20h-36v-50l29 -10v-15zM445 700l-297 -700h-36l297 700h36zM167 350h-135v16l41 12v288h-46v17l92 20l7 -6v-322l41 -10v-15z" />
    <glyph glyph-name="onehalf" unicode="&#xbd;" horiz-adv-x="616" 
d="M167 350h-135v16l41 12v288h-46v17l92 20l7 -6v-322l41 -10v-15zM445 700l-297 -700h-36l297 700h36zM585 0h-219v24q86 77 124 128q39 52 39 114q0 66 -63 66q-32 0 -54 -22v-31q0 -10 -6.5 -16.5t-16.5 -6.5q-22 0 -22 27q0 30 28.5 49.5t75.5 19.5q51 0 79.5 -24
t28.5 -69t-34 -96q-9 -14 -40 -45q-29 -28 -42 -39l-48 -40h140l14 42h18z" />
    <glyph glyph-name="threequarters" unicode="&#xbe;" horiz-adv-x="636" 
d="M83 664v-27q0 -10 -7 -16.5t-17 -6.5t-16.5 7t-6.5 19q0 28 29.5 45t73.5 17q50 0 79 -23.5t29 -63.5q0 -63 -63 -80q78 -19 78 -91q0 -44 -34.5 -70t-89.5 -26q-45 0 -74.5 16.5t-29.5 45.5q0 26 22 26q10 0 16.5 -6.5t6.5 -16.5v-29q19 -16 54 -16q34 0 54 20.5
t20 58.5q0 77 -87 77h-23v20h21q75 0 75 68q0 33 -16.5 51.5t-44.5 18.5q-32 0 -49 -18zM597 0h-110v16l29 12v47h-152v14q46 78 67 137t21 124h53q0 -65 -28 -124.5t-85 -130.5h124v95l44 43l7 -6v-132h36v-20h-36v-50l30 -10v-15zM508 700l-298 -700h-36l298 700h36z" />
    <glyph glyph-name="questiondown" unicode="&#xbf;" horiz-adv-x="477" 
d="M232 460h34q7 -120 -45 -199q-9 -14 -32.5 -45.5t-35 -49.5t-22.5 -48.5t-11 -60.5q0 -62 35 -96t96 -34q69 0 105 40v58q0 15 10.5 26t26.5 11t26 -12t10 -34q0 -52 -50 -85.5t-131 -33.5q-92 0 -146 47t-54 129t65 149q61 63 81 98q38 63 38 140zM246 544
q-21 0 -36 14.5t-15 35.5t14.5 35.5t36.5 14.5q20 0 34.5 -14.5t14.5 -35.5t-14.5 -35.5t-34.5 -14.5z" />
    <glyph glyph-name="Agrave" unicode="&#xc0;" horiz-adv-x="765" 
d="M362 700h38l286 -659l64 -18v-23h-203v23l61 18l-85 197h-328l-85 -197l83 -18v-23h-178v23l62 18zM509 269l-150 350l-152 -350h302zM268 865l46 46l142 -128l-18 -19z" />
    <glyph glyph-name="Aacute" unicode="&#xc1;" horiz-adv-x="765" 
d="M362 700h38l286 -659l64 -18v-23h-203v23l61 18l-85 197h-328l-85 -197l83 -18v-23h-178v23l62 18zM509 269l-150 350l-152 -350h302zM326 764l-18 19l143 128l45 -46z" />
    <glyph glyph-name="Acircumflex" unicode="&#xc2;" horiz-adv-x="765" 
d="M362 700h38l286 -659l64 -18v-23h-203v23l61 18l-85 197h-328l-85 -197l83 -18v-23h-178v23l62 18zM509 269l-150 350l-152 -350h302zM239 783l138 128h10l138 -128l-18 -19l-125 80l-124 -80z" />
    <glyph glyph-name="Atilde" unicode="&#xc3;" horiz-adv-x="765" 
d="M362 700h38l286 -659l64 -18v-23h-203v23l61 18l-85 197h-328l-85 -197l83 -18v-23h-178v23l62 18zM509 269l-150 350l-152 -350h302zM242 780l-17 17q41 41 65.5 58t46.5 17t53 -23q32 -23 55 -23q35 0 80 45l17 -17q-75 -77 -116 -77q-21 0 -53 23q-30 24 -55 24
q-29 0 -76 -44z" />
    <glyph glyph-name="Adieresis" unicode="&#xc4;" horiz-adv-x="765" 
d="M362 700h38l286 -659l64 -18v-23h-203v23l61 18l-85 197h-328l-85 -197l83 -18v-23h-178v23l62 18zM509 269l-150 350l-152 -350h302zM238 790q-14 14 -14 34t14 34t34 14t33 -14q14 -14 14 -34t-14 -34q-13 -14 -33 -14t-34 14zM456 790q-14 14 -14 34t14 34t34 14
t34 -14t14 -34t-14 -34t-34 -14t-34 14z" />
    <glyph glyph-name="Aring" unicode="&#xc5;" horiz-adv-x="765" 
d="M362 700h38l286 -659l64 -18v-23h-203v23l61 18l-85 197h-328l-85 -197l83 -18v-23h-178v23l62 18zM509 269l-150 350l-152 -350h302zM300 825q0 36 23 58t59 22q37 0 60 -22t23 -58q0 -37 -23 -59t-60 -22q-36 0 -59 22.5t-23 58.5zM346 868q-13 -16 -13 -43t13 -43
q14 -16 36 -16t35 16q14 16 14 43t-14 43q-13 16 -35 16t-36 -16z" />
    <glyph glyph-name="AE" unicode="&#xc6;" horiz-adv-x="841" 
d="M399 20l65 15l-37 203h-232l-85 -197l83 -18v-23h-178v23l62 18l285 659h398l11 -123h-28l-34 93h-289l54 -295h171l17 68h25v-167h-25l-17 68h-166l57 -314h184l34 93h28l-11 -123h-372v20zM422 269l-63 350l-152 -350h215z" />
    <glyph glyph-name="Ccedilla" unicode="&#xc7;" horiz-adv-x="723" 
d="M340 -88l46 83q-148 5 -237 99q-88 94 -88 255q0 163 92 260q93 97 248 97q116 0 202 -56l30 21l12 -12l12 -131h-27q-46 145 -213 145q-131 0 -203 -84.5t-72 -237.5q0 -149 72 -234q72 -86 206 -86q137 0 221 85l19 -19q-97 -98 -246 -103l-21 -39q78 0 78 -44
q0 -34 -89 -123l-12 13q50 53 50 81q0 30 -80 30z" />
    <glyph glyph-name="Egrave" unicode="&#xc8;" horiz-adv-x="630" 
d="M186 344v-314h322l35 93h28l-11 -123h-515v20l65 15v630l-65 15v20h505l11 -123h-28l-35 93h-312v-295h249l17 68h25v-167h-25l-17 68h-249zM200 865l46 46l143 -128l-18 -19z" />
    <glyph glyph-name="Eacute" unicode="&#xc9;" horiz-adv-x="630" 
d="M186 344v-314h322l35 93h28l-11 -123h-515v20l65 15v630l-65 15v20h505l11 -123h-28l-35 93h-312v-295h249l17 68h25v-167h-25l-17 68h-249zM259 764l-19 19l143 128l46 -46z" />
    <glyph glyph-name="Ecircumflex" unicode="&#xca;" horiz-adv-x="630" 
d="M186 344v-314h322l35 93h28l-11 -123h-515v20l65 15v630l-65 15v20h505l11 -123h-28l-35 93h-312v-295h249l17 68h25v-167h-25l-17 68h-249zM172 783l138 128h10l138 -128l-19 -19l-124 80l-125 -80z" />
    <glyph glyph-name="Edieresis" unicode="&#xcb;" horiz-adv-x="630" 
d="M186 344v-314h322l35 93h28l-11 -123h-515v20l65 15v630l-65 15v20h505l11 -123h-28l-35 93h-312v-295h249l17 68h25v-167h-25l-17 68h-249zM172 790q-14 14 -14 34t14 34t34 14t33 -14q14 -14 14 -34t-14 -34q-13 -14 -33 -14t-34 14zM390 790q-14 14 -14 34t14 34
t34 14t34 -14t14 -34t-14 -34t-34 -14t-34 14z" />
    <glyph glyph-name="Igrave" unicode="&#xcc;" horiz-adv-x="295" 
d="M250 677l-65 -20v-616l65 -18v-23h-205v24l65 24v610l-65 19v23h205v-23zM38 865l46 46l142 -128l-18 -19z" />
    <glyph glyph-name="Iacute" unicode="&#xcd;" horiz-adv-x="295" 
d="M250 677l-65 -20v-616l65 -18v-23h-205v24l65 24v610l-65 19v23h205v-23zM91 764l-18 19l143 128l46 -46z" />
    <glyph glyph-name="Icircumflex" unicode="&#xce;" horiz-adv-x="295" 
d="M250 677l-65 -20v-616l65 -18v-23h-205v24l65 24v610l-65 19v23h205v-23zM5 783l138 128h9l139 -128l-19 -19l-124 80l-125 -80z" />
    <glyph glyph-name="Idieresis" unicode="&#xcf;" horiz-adv-x="295" 
d="M250 677l-65 -20v-616l65 -18v-23h-205v24l65 24v610l-65 19v23h205v-23zM25 790q-14 14 -14 34t14 34t34 14t34 -14t14 -34t-14 -34t-34 -14t-34 14zM203 790q-14 14 -14 34t14 34t34 14t33 -14q14 -14 14 -34t-14 -34q-13 -14 -33 -14t-34 14z" />
    <glyph glyph-name="Eth" unicode="&#xd0;" horiz-adv-x="731" 
d="M110 337h-65v18l65 12v298l-65 15v20h290q152 0 243 -94q92 -94 92 -256t-92 -257q-92 -93 -243 -93h-290v20l65 15v302zM335 670h-149v-303h177v-30h-177v-307h149q113 0 184 84q70 83 70 235q0 151 -70 236t-184 85z" />
    <glyph glyph-name="Ntilde" unicode="&#xd1;" horiz-adv-x="735" 
d="M45 0v18l65 24v616l-65 19v23h143l407 -584v548l-65 19v17h160v-17l-65 -20v-663h-37l-448 643v-607l65 -19v-17h-160zM227 780l-17 17q41 41 65.5 58t46.5 17t53 -23q32 -23 55 -23q35 0 80 45l17 -17q-75 -77 -116 -77q-21 0 -53 23q-30 24 -55 24q-29 0 -76 -44z" />
    <glyph glyph-name="Ograve" unicode="&#xd2;" horiz-adv-x="788" 
d="M153 90q-92 98 -92 260t92 259q91 97 241 97t241 -97q92 -97 92 -259t-92 -260q-91 -96 -241 -96q-149 0 -241 96zM142 349q0 -151 69 -238q71 -86 183 -86q113 0 182 86q70 86 70 238q0 153 -70 239q-71 87 -182 87q-112 0 -183 -87q-69 -87 -69 -239zM279 865l46 46
l143 -128l-18 -19z" />
    <glyph glyph-name="Oacute" unicode="&#xd3;" horiz-adv-x="788" 
d="M153 90q-92 98 -92 260t92 259q91 97 241 97t241 -97q92 -97 92 -259t-92 -260q-91 -96 -241 -96q-149 0 -241 96zM142 349q0 -151 69 -238q71 -86 183 -86q113 0 182 86q70 86 70 238q0 153 -70 239q-71 87 -182 87q-112 0 -183 -87q-69 -87 -69 -239zM338 764l-19 19
l143 128l46 -46z" />
    <glyph glyph-name="Ocircumflex" unicode="&#xd4;" horiz-adv-x="788" 
d="M153 90q-92 98 -92 260t92 259q91 97 241 97t241 -97q92 -97 92 -259t-92 -260q-91 -96 -241 -96q-149 0 -241 96zM142 349q0 -151 69 -238q71 -86 183 -86q113 0 182 86q70 86 70 238q0 153 -70 239q-71 87 -182 87q-112 0 -183 -87q-69 -87 -69 -239zM251 783l138 128
h9l139 -128l-19 -19l-124 80l-125 -80z" />
    <glyph glyph-name="Otilde" unicode="&#xd5;" horiz-adv-x="788" 
d="M153 90q-92 98 -92 260t92 259q91 97 241 97t241 -97q92 -97 92 -259t-92 -260q-91 -96 -241 -96q-149 0 -241 96zM142 349q0 -151 69 -238q71 -86 183 -86q113 0 182 86q70 86 70 238q0 153 -70 239q-71 87 -182 87q-112 0 -183 -87q-69 -87 -69 -239zM254 780l-17 17
q41 41 65.5 58t46.5 17t53 -23q32 -23 55 -23q35 0 80 45l17 -17q-75 -77 -116 -77q-21 0 -53 23q-30 24 -55 24q-29 0 -76 -44z" />
    <glyph glyph-name="Odieresis" unicode="&#xd6;" horiz-adv-x="788" 
d="M153 90q-92 98 -92 260t92 259q91 97 241 97t241 -97q92 -97 92 -259t-92 -260q-91 -96 -241 -96q-149 0 -241 96zM142 349q0 -151 69 -238q71 -86 183 -86q113 0 182 86q70 86 70 238q0 153 -70 239q-71 87 -182 87q-112 0 -183 -87q-69 -87 -69 -239zM251 790
q-14 14 -14 34t14 34t34 14t33 -14q14 -14 14 -34t-14 -34q-13 -14 -33 -14t-34 14zM469 790q-14 14 -14 34t14 34t34 14t34 -14t14 -34t-14 -34t-34 -14t-34 14z" />
    <glyph glyph-name="multiply" unicode="&#xd7;" horiz-adv-x="458" 
d="M204 301l-147 147l25 24l147 -147l147 147l25 -24l-147 -147l147 -148l-24 -25l-148 148l-148 -148l-24 25z" />
    <glyph glyph-name="Oslash" unicode="&#xd8;" horiz-adv-x="788" 
d="M169 75l-67 -75h-41l86 96q-86 95 -86 254q0 162 92 259q91 97 241 97q135 0 225 -81l67 75h41l-86 -97q86 -98 86 -253q0 -162 -92 -260q-91 -96 -241 -96q-136 0 -225 81zM646 349q0 121 -48 206l-391 -438q68 -92 187 -92q113 0 182 86q70 86 70 238zM142 349
q0 -123 47 -205l391 438q-70 93 -186 93q-112 0 -183 -87q-69 -87 -69 -239z" />
    <glyph glyph-name="Ugrave" unicode="&#xd9;" horiz-adv-x="757" 
d="M713 683l-65 -20v-408q0 -119 -75 -189q-73 -70 -195 -70t-195 70t-73 189v403l-65 19v23h206v-23l-65 -20v-402q0 -102 59 -160.5t158 -58.5q98 0 157.5 58.5t59.5 160.5v409l-65 19v17h158v-17zM269 865l46 46l143 -128l-19 -19z" />
    <glyph glyph-name="Uacute" unicode="&#xda;" horiz-adv-x="757" 
d="M713 683l-65 -20v-408q0 -119 -75 -189q-73 -70 -195 -70t-195 70t-73 189v403l-65 19v23h206v-23l-65 -20v-402q0 -102 59 -160.5t158 -58.5q98 0 157.5 58.5t59.5 160.5v409l-65 19v17h158v-17zM327 764l-18 19l143 128l46 -46z" />
    <glyph glyph-name="Ucircumflex" unicode="&#xdb;" horiz-adv-x="757" 
d="M713 683l-65 -20v-408q0 -119 -75 -189q-73 -70 -195 -70t-195 70t-73 189v403l-65 19v23h206v-23l-65 -20v-402q0 -102 59 -160.5t158 -58.5q98 0 157.5 58.5t59.5 160.5v409l-65 19v17h158v-17zM240 783l139 128h9l138 -128l-18 -19l-125 80l-124 -80z" />
    <glyph glyph-name="Udieresis" unicode="&#xdc;" horiz-adv-x="757" 
d="M713 683l-65 -20v-408q0 -119 -75 -189q-73 -70 -195 -70t-195 70t-73 189v403l-65 19v23h206v-23l-65 -20v-402q0 -102 59 -160.5t158 -58.5q98 0 157.5 58.5t59.5 160.5v409l-65 19v17h158v-17zM240 790q-14 14 -14 34t14 34t34 14t34 -14t14 -34t-14 -34t-34 -14
t-34 14zM493 872q20 0 33.5 -14t13.5 -34t-13.5 -34t-33.5 -14q-21 0 -34.5 14t-13.5 34t13.5 34t34.5 14z" />
    <glyph glyph-name="Yacute" unicode="&#xdd;" horiz-adv-x="702" 
d="M227 677l-62 -17l208 -330l214 330l-78 17v23h178v-23l-64 -17l-237 -363v-256l65 -18v-23h-206v24l65 24v248l-231 364l-64 17v23h212v-23zM305 764l-18 19l143 128l45 -46z" />
    <glyph glyph-name="Thorn" unicode="&#xde;" horiz-adv-x="614" 
d="M251 677l-65 -20v-97h123q109 0 177 -54q67 -52 67 -146q0 -93 -67 -145q-68 -53 -177 -53h-77l-12 12v18h77q80 0 127.5 44.5t47.5 123.5t-48 124.5t-127 45.5h-111v-484l95 -23v-23h-236v24l65 24v610l-65 19v23h206v-23z" />
    <glyph glyph-name="germandbls" unicode="&#xdf;" horiz-adv-x="647" 
d="M304 7l-11 11v102h28q21 -94 108 -94q47 0 75 23.5t28 66.5q0 36 -22 53.5t-84 36.5q-60 20 -91 42q-42 30 -42 94q0 73 53 136q54 62 54 138q0 109 -106 109q-116 0 -116 -129v-556l60 -17v-23h-193v24l60 22v384h-60v24l60 11v130q0 76 48.5 117.5t143.5 41.5
q84 0 126 -33t42 -91q0 -70 -57 -135q-56 -66 -56 -132q0 -37 20 -55q20 -17 76 -35l54 -21q19 -8 44 -24q49 -32 49 -103q0 -129 -159 -129q-71 0 -115 28z" />
    <glyph glyph-name="agrave" unicode="&#xe0;" horiz-adv-x="523" 
d="M346 50l-3 3q-31 -25 -78 -41.5t-93 -16.5q-116 0 -116 107q0 66 54 93t230 66q2 1 5 1v84q0 39 -28.5 63.5t-75.5 24.5q-57 0 -98 -31v-50q0 -21 -18.5 -31t-36.5 -0.5t-18 35.5q0 46 51 76q52 31 127 31q77 0 123.5 -33t46.5 -87v-288q0 -26 23 -26q19 0 29 12l11 -11
q-34 -34 -86 -34q-46 0 -49 53zM345 84v146q-132 -29 -169 -47q-48 -25 -48 -76q0 -77 82 -77q78 0 135 54zM133 625l46 46l143 -128l-18 -19z" />
    <glyph glyph-name="aacute" unicode="&#xe1;" horiz-adv-x="523" 
d="M346 50l-3 3q-31 -25 -78 -41.5t-93 -16.5q-116 0 -116 107q0 66 54 93t230 66q2 1 5 1v84q0 39 -28.5 63.5t-75.5 24.5q-57 0 -98 -31v-50q0 -21 -18.5 -31t-36.5 -0.5t-18 35.5q0 46 51 76q52 31 127 31q77 0 123.5 -33t46.5 -87v-288q0 -26 23 -26q19 0 29 12l11 -11
q-34 -34 -86 -34q-46 0 -49 53zM345 84v146q-132 -29 -169 -47q-48 -25 -48 -76q0 -77 82 -77q78 0 135 54zM191 524l-18 19l142 128l46 -46z" />
    <glyph glyph-name="acircumflex" unicode="&#xe2;" horiz-adv-x="523" 
d="M346 50l-3 3q-31 -25 -78 -41.5t-93 -16.5q-116 0 -116 107q0 66 54 93t230 66q2 1 5 1v84q0 39 -28.5 63.5t-75.5 24.5q-57 0 -98 -31v-50q0 -21 -18.5 -31t-36.5 -0.5t-18 35.5q0 46 51 76q52 31 127 31q77 0 123.5 -33t46.5 -87v-288q0 -26 23 -26q19 0 29 12l11 -11
q-34 -34 -86 -34q-46 0 -49 53zM345 84v146q-132 -29 -169 -47q-48 -25 -48 -76q0 -77 82 -77q78 0 135 54zM104 543l139 128h9l138 -128l-18 -19l-125 80l-124 -80z" />
    <glyph glyph-name="atilde" unicode="&#xe3;" horiz-adv-x="523" 
d="M346 50l-3 3q-31 -25 -78 -41.5t-93 -16.5q-116 0 -116 107q0 66 54 93t230 66q2 1 5 1v84q0 39 -28.5 63.5t-75.5 24.5q-57 0 -98 -31v-50q0 -21 -18.5 -31t-36.5 -0.5t-18 35.5q0 46 51 76q52 31 127 31q77 0 123.5 -33t46.5 -87v-288q0 -26 23 -26q19 0 29 12l11 -11
q-34 -34 -86 -34q-46 0 -49 53zM345 84v146q-132 -29 -169 -47q-48 -25 -48 -76q0 -77 82 -77q78 0 135 54zM106 540l-18 17q75 75 112 75q22 0 54 -23t55 -23q34 0 79 45l18 -17q-75 -77 -117 -77q-20 0 -52 23q-30 24 -55 24q-32 0 -76 -44z" />
    <glyph glyph-name="adieresis" unicode="&#xe4;" horiz-adv-x="523" 
d="M347 50l-3 3q-30 -25 -78 -41.5t-93 -16.5q-117 0 -117 107q0 66 54 93t230 66q2 1 5 1v84q0 38 -28.5 63t-74.5 25q-58 0 -99 -31v-50q0 -15 -10.5 -25.5t-26.5 -10.5t-26 10.5t-10 29.5q0 46 51 76q52 31 127 31q77 0 124 -33t47 -87v-288q0 -26 22 -26q18 0 30 12
l10 -11q-34 -34 -85 -34q-46 0 -49 53zM345 84v146q-132 -29 -169 -47q-48 -25 -48 -76q0 -77 82 -77q80 0 135 54zM104 550q-14 14 -14 34t14 34t34 14t34 -14t14 -34t-14 -34t-34 -14t-34 14zM322 550q-14 14 -14 34t14 34t34 14t34 -14t14 -34t-14 -34t-34 -14t-34 14z
" />
    <glyph glyph-name="aring" unicode="&#xe5;" horiz-adv-x="523" 
d="M346 50l-3 3q-31 -25 -78 -41.5t-93 -16.5q-116 0 -116 107q0 66 54 93t230 66q2 1 5 1v84q0 39 -28.5 63.5t-75.5 24.5q-57 0 -98 -31v-50q0 -21 -18.5 -31t-36.5 -0.5t-18 35.5q0 46 51 76q52 31 127 31q77 0 123.5 -33t46.5 -87v-288q0 -26 23 -26q19 0 29 12l11 -11
q-34 -34 -86 -34q-46 0 -49 53zM345 84v146q-132 -29 -169 -47q-48 -25 -48 -76q0 -77 82 -77q78 0 135 54zM165 585q0 36 23 58t59 22q37 0 60 -22t23 -58q0 -37 -23 -59t-60 -22q-36 0 -59 22.5t-23 58.5zM211 628q-13 -16 -13 -43t13 -43q14 -16 36 -16t35 16
q14 16 14 43t-14 43q-13 16 -35 16t-36 -16z" />
    <glyph glyph-name="ae" unicode="&#xe6;" horiz-adv-x="766" 
d="M343 53q-31 -25 -78 -41.5t-93 -16.5q-116 0 -116 107q0 67 54.5 94t227.5 65q3 1 6 1v84q0 38 -28.5 63t-74.5 25q-57 0 -98 -31v-50q0 -21 -18.5 -31t-36.5 -0.5t-18 35.5q0 46 51 76q52 31 127 31q82 0 125 -40q55 40 134 40q89 0 144 -50q55 -49 55 -124
q0 -20 -3 -33l-13 -12l-276 -10v-161q44 -42 122 -42q95 0 140 46l20 -20q-60 -62 -177 -62q-113 0 -176 57zM345 84v146q-132 -29 -169 -47q-48 -25 -48 -76q0 -77 82 -77q78 0 135 54zM414 344v-80l225 16q0 67 -35 110.5t-92 43.5q-63 0 -106 -52q8 -21 8 -38z" />
    <glyph glyph-name="ccedilla" unicode="&#xe7;" horiz-adv-x="534" 
d="M230 -88l47 84q-103 4 -162.5 66.5t-59.5 169.5q0 109 62 170.5t173 61.5q76 0 128 -27q53 -27 53 -76q0 -21 -10.5 -32.5t-25.5 -11.5q-16 0 -26.5 11t-10.5 26v51q-40 29 -107 29q-75 0 -117.5 -52t-42.5 -144q0 -99 48.5 -152.5t133.5 -53.5q92 0 137 46l20 -20
q-59 -58 -165 -62l-22 -41q78 0 78 -44q0 -34 -89 -123l-12 13q50 53 50 81q0 30 -80 30z" />
    <glyph glyph-name="egrave" unicode="&#xe8;" horiz-adv-x="538" 
d="M475 257l-13 -12h-331q1 -213 178 -213q96 0 139 46l20 -20q-60 -62 -178 -62q-109 0 -172 64t-63 171q0 108 62 170q63 63 162 63q89 0 144 -50q55 -49 55 -124q0 -20 -3 -33zM284 434q-60 0 -103 -48q-43 -46 -49 -113l279 7q0 68 -35 111t-92 43zM167 625l46 46
l142 -128l-18 -19z" />
    <glyph glyph-name="eacute" unicode="&#xe9;" horiz-adv-x="538" 
d="M475 257l-13 -12h-331q1 -213 178 -213q96 0 139 46l20 -20q-60 -62 -178 -62q-109 0 -172 64t-63 171q0 108 62 170q63 63 162 63q89 0 144 -50q55 -49 55 -124q0 -20 -3 -33zM284 434q-60 0 -103 -48q-43 -46 -49 -113l279 7q0 68 -35 111t-92 43zM224 524l-18 19
l142 128l46 -46z" />
    <glyph glyph-name="ecircumflex" unicode="&#xea;" horiz-adv-x="538" 
d="M475 257l-13 -12h-331q1 -213 178 -213q96 0 139 46l20 -20q-60 -62 -178 -62q-109 0 -172 64t-63 171q0 108 62 170q63 63 162 63q89 0 144 -50q55 -49 55 -124q0 -20 -3 -33zM284 434q-60 0 -103 -48q-43 -46 -49 -113l279 7q0 68 -35 111t-92 43zM138 543l138 128h9
l138 -128l-18 -19l-124 80l-125 -80z" />
    <glyph glyph-name="edieresis" unicode="&#xeb;" horiz-adv-x="538" 
d="M473 257l-13 -12h-330q1 -111 45.5 -162t132.5 -51q94 0 139 46l19 -20q-59 -62 -177 -62q-109 0 -173 64q-63 64 -63 171q0 108 62 170q63 63 163 63q89 0 144 -50q55 -49 55 -124q0 -22 -4 -33zM283 434q-59 0 -103 -48q-43 -46 -49 -113l279 7q0 67 -35 110.5
t-92 43.5zM163 632q21 0 34.5 -14t13.5 -34t-13.5 -34t-34.5 -14q-20 0 -33.5 14t-13.5 34t13.5 34t33.5 14zM348 550q-14 14 -14 34t14 34t34 14t33 -14q14 -14 14 -34t-14 -34q-13 -14 -33 -14t-34 14z" />
    <glyph glyph-name="igrave" unicode="&#xec;" horiz-adv-x="283" 
d="M27 625l46 46l143 -128l-18 -19zM238 0h-193v24l60 22v361l-54 14v27l115 18l12 -12v-414l60 -17v-23z" />
    <glyph glyph-name="iacute" unicode="&#xed;" horiz-adv-x="283" 
d="M238 0h-193v24l60 22v361l-54 14v27l115 18l12 -12v-414l60 -17v-23zM85 524l-18 19l143 128l46 -46z" />
    <glyph glyph-name="icircumflex" unicode="&#xee;" horiz-adv-x="283" 
d="M238 0h-193v24l60 22v361l-54 14v27l115 18l12 -12v-414l60 -17v-23zM-1 543l138 128h9l138 -128l-18 -19l-124 80l-125 -80z" />
    <glyph glyph-name="idieresis" unicode="&#xef;" horiz-adv-x="283" 
d="M238 0h-193v24l60 22v361l-54 14v27l115 18l12 -12v-414l60 -17v-23zM27 550q-14 14 -14 34t14 34t34 14t33 -14q14 -14 14 -34t-14 -34q-13 -14 -33 -14t-34 14zM174 550q-14 14 -14 34t14 34t34 14t34 -14t14 -34t-14 -34t-34 -14t-34 14z" />
    <glyph glyph-name="eth" unicode="&#xf0;" horiz-adv-x="569" 
d="M264 542l-24 24l79 79q-92 70 -224 94l17 17q143 -21 235 -83l83 83l24 -24l-79 -79q139 -112 139 -349q0 -308 -229 -308q-104 0 -165 62.5t-61 171.5q0 108 60.5 171t163.5 63q120 0 168 -86h4q0 149 -109 246zM434 230q0 95 -40.5 149.5t-108.5 54.5t-108.5 -54.5
t-40.5 -149.5q0 -94 40.5 -148.5t108.5 -54.5t108.5 54.5t40.5 148.5z" />
    <glyph glyph-name="ntilde" unicode="&#xf1;" horiz-adv-x="612" 
d="M178 367v-327l58 -17v-23h-191v24l60 22v361l-54 14v27l115 18l12 -12l-2 -51l3 -3q31 30 87 47q57 17 100 17q68 0 104.5 -44t36.5 -118v-262l60 -17v-23h-192v24l58 22v251q0 61 -27 96t-75 35q-36 0 -80 -16.5t-73 -44.5zM166 540l-18 17q42 41 66.5 58t46.5 17
t53 -23q32 -23 55 -23q33 0 80 45l17 -17q-75 -77 -117 -77q-20 0 -52 23q-30 24 -55 24q-32 0 -76 -44z" />
    <glyph glyph-name="ograve" unicode="&#xf2;" horiz-adv-x="569" 
d="M118 59q-63 63 -63 171t63 171t166 63t166 -63q64 -63 64 -171t-64 -171q-63 -63 -166 -63t-166 63zM131 230q0 -94 41.5 -148.5t111.5 -54.5t111.5 54.5t41.5 148.5q0 95 -41.5 149.5t-111.5 54.5t-111.5 -54.5t-41.5 -149.5zM170 625l46 46l143 -128l-19 -19z" />
    <glyph glyph-name="oacute" unicode="&#xf3;" horiz-adv-x="569" 
d="M118 59q-63 63 -63 171t63 171t166 63t166 -63q64 -63 64 -171t-64 -171q-63 -63 -166 -63t-166 63zM131 230q0 -94 41.5 -148.5t111.5 -54.5t111.5 54.5t41.5 148.5q0 95 -41.5 149.5t-111.5 54.5t-111.5 -54.5t-41.5 -149.5zM228 524l-18 19l143 128l46 -46z" />
    <glyph glyph-name="ocircumflex" unicode="&#xf4;" horiz-adv-x="569" 
d="M118 59q-63 63 -63 171t63 171t166 63t166 -63q64 -63 64 -171t-64 -171q-63 -63 -166 -63t-166 63zM131 230q0 -94 41.5 -148.5t111.5 -54.5t111.5 54.5t41.5 148.5q0 95 -41.5 149.5t-111.5 54.5t-111.5 -54.5t-41.5 -149.5zM141 543l138 128h10l138 -128l-18 -19
l-125 80l-124 -80z" />
    <glyph glyph-name="otilde" unicode="&#xf5;" horiz-adv-x="569" 
d="M118 59q-63 63 -63 171t63 171t166 63t166 -63q64 -63 64 -171t-64 -171q-63 -63 -166 -63t-166 63zM131 230q0 -94 41.5 -148.5t111.5 -54.5t111.5 54.5t41.5 148.5q0 95 -41.5 149.5t-111.5 54.5t-111.5 -54.5t-41.5 -149.5zM144 540l-17 17q75 75 112 75q22 0 53 -23
q32 -23 56 -23q34 0 79 45l18 -17q-77 -77 -117 -77q-20 0 -52 23q-32 24 -56 24q-29 0 -76 -44z" />
    <glyph glyph-name="odieresis" unicode="&#xf6;" horiz-adv-x="569" 
d="M118 59q-63 63 -63 171t63 171t166 63t166 -63q64 -63 64 -171t-64 -171q-63 -63 -166 -63t-166 63zM131 230q0 -94 41.5 -148.5t111.5 -54.5t111.5 54.5t41.5 148.5q0 95 -41.5 149.5t-111.5 54.5t-111.5 -54.5t-41.5 -149.5zM141 550q-14 14 -14 34t14 34t34 14t34 -14
t14 -34t-14 -34t-34 -14t-34 14zM393 632q21 0 34.5 -14t13.5 -34t-13.5 -34t-34.5 -14q-20 0 -33.5 14t-13.5 34t13.5 34t33.5 14z" />
    <glyph glyph-name="divide" unicode="&#xf7;" horiz-adv-x="458" 
d="M412 263h-367v35h367v-35zM182 145q0 19 14 33t33 14q32 0 44 -29t-10 -52q-23 -22 -52 -10t-29 44zM229 464q20 0 34 -13.5t14 -33.5t-14 -33.5t-34 -13.5q-19 0 -33 14t-14 33t14 33t33 14z" />
    <glyph glyph-name="oslash" unicode="&#xf8;" horiz-adv-x="569" 
d="M134 44l-40 -44h-39l58 64q-58 62 -58 166q0 108 63 171t166 63q91 0 150 -49l41 45h39l-59 -65q59 -65 59 -165q0 -108 -64 -171q-63 -63 -166 -63q-90 0 -150 48zM131 230q0 -73 24 -121l243 266q-42 59 -114 59q-70 0 -111.5 -54.5t-41.5 -149.5zM437 230
q0 70 -24 119l-242 -265q42 -57 113 -57q70 0 111.5 54.5t41.5 148.5z" />
    <glyph glyph-name="ugrave" unicode="&#xf9;" horiz-adv-x="611" 
d="M506 454v-402l54 -19v-26l-116 -13l-12 12l2 53l-3 3q-32 -31 -87 -49q-56 -17 -101 -17q-67 0 -102.5 37.5t-35.5 101.5v272l-54 14v27l115 18l12 -12v-316q0 -49 26.5 -77.5t74.5 -28.5q38 0 82 17.5t71 46.5v311l-54 14v27l115 18zM188 625l46 46l142 -128l-18 -19z
" />
    <glyph glyph-name="uacute" unicode="&#xfa;" horiz-adv-x="611" 
d="M506 454v-402l54 -19v-26l-116 -13l-12 12l2 53l-3 3q-32 -31 -87 -49q-56 -17 -101 -17q-67 0 -102.5 37.5t-35.5 101.5v272l-54 14v27l115 18l12 -12v-316q0 -49 26.5 -77.5t74.5 -28.5q38 0 82 17.5t71 46.5v311l-54 14v27l115 18zM242 524l-18 19l142 128l46 -46z
" />
    <glyph glyph-name="ucircumflex" unicode="&#xfb;" horiz-adv-x="611" 
d="M506 454v-402l54 -19v-26l-116 -13l-12 12l2 53l-3 3q-32 -31 -87 -49q-56 -17 -101 -17q-67 0 -102.5 37.5t-35.5 101.5v272l-54 14v27l115 18l12 -12v-316q0 -49 26.5 -77.5t74.5 -28.5q38 0 82 17.5t71 46.5v311l-54 14v27l115 18zM159 543l138 128h10l138 -128
l-18 -19l-125 80l-125 -80z" />
    <glyph glyph-name="udieresis" unicode="&#xfc;" horiz-adv-x="611" 
d="M506 454v-402l54 -19v-26l-116 -13l-12 12l2 53l-3 3q-32 -31 -87 -49q-56 -17 -101 -17q-67 0 -102.5 37.5t-35.5 101.5v272l-54 14v27l115 18l12 -12v-316q0 -49 26.5 -77.5t74.5 -28.5q38 0 82 17.5t71 46.5v311l-54 14v27l115 18zM154 550q-13 14 -13 34t13 34
q14 14 34 14t34 -14t14 -34t-14 -34t-34 -14t-34 14zM373 550q-14 14 -14 34t14 34t34 14t33 -14q14 -14 14 -34t-14 -34q-13 -14 -33 -14t-34 14z" />
    <glyph glyph-name="yacute" unicode="&#xfd;" horiz-adv-x="580" 
d="M273 -2l-195 422l-59 17v23h191v-23l-56 -17l158 -339l157 339l-78 17v23h170v-23l-56 -17l-196 -420q-73 -156 -105 -205q-32 -48 -75 -48q-31 0 -52 17t-21 46q0 43 39 43q18 0 29.5 -10t11.5 -26v-31q4 -3 11 -3q19 0 45 44q26 43 81 171zM245 524l-18 19l142 128
l46 -46z" />
    <glyph glyph-name="thorn" unicode="&#xfe;" horiz-adv-x="587" 
d="M270 -250h-225v24l60 22v900l-54 14v27l115 18l12 -12v-283l-2 -50l3 -3q25 27 70 42t92 15q90 0 140.5 -62.5t50.5 -166.5q0 -113 -60.5 -176t-168.5 -63q-76 0 -125 32v-235l92 -20v-23zM178 375v-314q45 -36 117 -36q75 0 117.5 54t42.5 151q0 94 -39 146t-109 52
q-84 0 -129 -53z" />
    <glyph glyph-name="ydieresis" unicode="&#xff;" horiz-adv-x="580" 
d="M273 -2l-195 422l-59 17v23h191v-23l-56 -17l158 -339l157 339l-78 17v23h170v-23l-56 -17l-196 -420q-73 -156 -105 -205q-32 -48 -75 -48q-31 0 -52 17t-21 46q0 43 39 43q18 0 29.5 -10t11.5 -26v-31q4 -3 11 -3q19 0 45 44q26 43 81 171zM148 550q-14 14 -14 34
t14 34t34 14t33 -14q14 -14 14 -34t-14 -34q-13 -14 -33 -14t-34 14zM366 550q-14 14 -14 34t14 34t34 14t34 -14t14 -34t-14 -34t-34 -14t-34 14z" />
    <glyph glyph-name="Amacron" unicode="&#x100;" horiz-adv-x="765" 
d="M362 700h38l286 -659l64 -18v-23h-203v23l61 18l-85 197h-328l-85 -197l83 -18v-23h-178v23l62 18zM509 269l-150 350l-152 -350h302zM501 804h-238v36h238v-36z" />
    <glyph glyph-name="amacron" unicode="&#x101;" horiz-adv-x="523" 
d="M346 50l-3 3q-31 -25 -78 -41.5t-93 -16.5q-116 0 -116 107q0 66 54 93t230 66q2 1 5 1v84q0 39 -28.5 63.5t-75.5 24.5q-57 0 -98 -31v-50q0 -21 -18.5 -31t-36.5 -0.5t-18 35.5q0 46 51 76q52 31 127 31q77 0 123.5 -33t46.5 -87v-288q0 -26 23 -26q19 0 29 12l11 -11
q-34 -34 -86 -34q-46 0 -49 53zM345 84v146q-132 -29 -169 -47q-48 -25 -48 -76q0 -77 82 -77q78 0 135 54zM366 564h-238v36h238v-36z" />
    <glyph glyph-name="Abreve" unicode="&#x102;" horiz-adv-x="765" 
d="M362 700h38l286 -659l64 -18v-23h-203v23l61 18l-85 197h-328l-85 -197l83 -18v-23h-178v23l62 18zM509 269l-150 350l-152 -350h302zM451 868q0 15 10.5 25.5t26.5 10.5q15 0 25.5 -11t10.5 -29q0 -40 -45 -65q-43 -25 -98 -25q-56 0 -100 25q-44 26 -44 65
q0 19 10 29.5t26 10.5t26.5 -10.5t10.5 -25.5q0 -65 71 -65q70 0 70 65z" />
    <glyph glyph-name="abreve" unicode="&#x103;" horiz-adv-x="523" 
d="M347 50l-3 3q-30 -25 -78 -41.5t-93 -16.5q-117 0 -117 107q0 66 54 93t230 66q2 1 5 1v84q0 38 -28.5 63t-74.5 25q-58 0 -99 -31v-50q0 -15 -10.5 -25.5t-26.5 -10.5t-26 10.5t-10 29.5q0 46 51 76q52 31 127 31q77 0 124 -33t47 -87v-288q0 -26 22 -26q18 0 30 12
l10 -11q-34 -34 -85 -34q-46 0 -49 53zM345 84v146q-132 -29 -169 -47q-48 -25 -48 -76q0 -77 82 -77q80 0 135 54zM320 628q0 15 10.5 25.5t26.5 10.5q15 0 25.5 -11t10.5 -29q0 -40 -45 -65q-43 -25 -99 -25t-100 25q-44 26 -44 65q0 19 10 29.5t26 10.5t26.5 -10.5
t10.5 -25.5q0 -65 71 -65t71 65z" />
    <glyph glyph-name="Aogonek" unicode="&#x104;" horiz-adv-x="765" 
d="M737 -157l10 -11q-44 -44 -90 -44q-61 0 -61 62q0 71 70 150h-119v23l61 18l-85 197h-328l-85 -197l83 -18v-23h-178v23l62 18l285 659h38l286 -659l64 -18v-23h-58q-52 -73 -52 -138q0 -42 37 -42t60 23zM509 269l-150 350l-152 -350h302z" />
    <glyph glyph-name="aogonek" unicode="&#x105;" horiz-adv-x="523" 
d="M470 -149l11 -10q-44 -44 -91 -44q-61 0 -61 62q0 65 60 138q-40 3 -43 53l-3 3q-31 -25 -78 -41.5t-93 -16.5q-116 0 -116 107q0 66 54 93t230 66q2 1 5 1v84q0 39 -28.5 63.5t-75.5 24.5q-57 0 -98 -31v-50q0 -21 -18.5 -31t-36.5 -0.5t-18 35.5q0 46 51 76
q52 31 127 31q77 0 123.5 -33t46.5 -87v-288q0 -26 23 -26q19 0 29 12l11 -11q-24 -24 -63 -32q-45 -68 -45 -128q0 -43 38 -43q36 0 59 23zM345 84v146q-132 -29 -169 -47q-48 -25 -48 -76q0 -77 82 -77q78 0 135 54z" />
    <glyph glyph-name="Cacute" unicode="&#x106;" horiz-adv-x="723" 
d="M641 116l19 -19q-100 -103 -260 -103q-155 0 -247 95q-92 97 -92 260t92 260q93 97 248 97q116 0 202 -56l30 21l12 -12l12 -131h-27q-46 145 -213 145q-131 0 -203 -84.5t-72 -237.5q0 -149 72 -234q72 -86 206 -86q137 0 221 85zM346 764l-18 19l143 128l46 -46z" />
    <glyph glyph-name="cacute" unicode="&#x107;" horiz-adv-x="534" 
d="M398 354v51q-40 29 -107 29q-75 0 -117.5 -52t-42.5 -144q0 -99 48.5 -152.5t133.5 -53.5q92 0 137 46l20 -20q-65 -62 -180 -62q-109 0 -172 63t-63 173q0 109 62 170.5t173 61.5q76 0 128 -27q53 -27 53 -76q0 -21 -10.5 -32.5t-25.5 -11.5q-16 0 -26.5 11t-10.5 26z
M233 524l-18 19l143 128l46 -46z" />
    <glyph glyph-name="Ccircumflex" unicode="&#x108;" horiz-adv-x="723" 
d="M641 116l19 -19q-100 -103 -260 -103q-155 0 -247 95q-92 97 -92 260t92 260q93 97 248 97q116 0 202 -56l30 21l12 -12l12 -131h-27q-46 145 -213 145q-131 0 -203 -84.5t-72 -237.5q0 -149 72 -234q72 -86 206 -86q137 0 221 85zM256 783l138 128h10l138 -128l-18 -19
l-125 80l-125 -80z" />
    <glyph glyph-name="ccircumflex" unicode="&#x109;" horiz-adv-x="534" 
d="M398 354v51q-40 29 -107 29q-75 0 -117.5 -52t-42.5 -144q0 -99 48.5 -152.5t133.5 -53.5q92 0 137 46l20 -20q-65 -62 -180 -62q-109 0 -172 63t-63 173q0 109 62 170.5t173 61.5q76 0 128 -27q53 -27 53 -76q0 -21 -10.5 -32.5t-25.5 -11.5q-16 0 -26.5 11t-10.5 26z
M145 543l139 128h9l138 -128l-18 -19l-125 80l-124 -80z" />
    <glyph glyph-name="Cdotaccent" unicode="&#x10a;" horiz-adv-x="723" 
d="M641 116l19 -19q-100 -103 -260 -103q-155 0 -247 95q-92 97 -92 260t92 260q93 97 248 97q116 0 202 -56l30 21l12 -12l12 -131h-27q-46 145 -213 145q-131 0 -203 -84.5t-72 -237.5q0 -149 72 -234q72 -86 206 -86q137 0 221 85zM345 848q0 21 14.5 35t35.5 14
q22 0 36 -14t14 -35q0 -22 -14 -36.5t-36 -14.5q-21 0 -35.5 14.5t-14.5 36.5z" />
    <glyph glyph-name="cdotaccent" unicode="&#x10b;" horiz-adv-x="534" 
d="M398 354v51q-40 29 -107 29q-75 0 -117.5 -52t-42.5 -144q0 -99 48.5 -152.5t133.5 -53.5q92 0 137 46l20 -20q-65 -62 -180 -62q-109 0 -172 63t-63 173q0 109 62 170.5t173 61.5q76 0 128 -27q53 -27 53 -76q0 -21 -10.5 -32.5t-25.5 -11.5q-16 0 -26.5 11t-10.5 26z
M236 608q0 21 14.5 35t35.5 14q22 0 36 -14t14 -35q0 -22 -14 -36.5t-36 -14.5q-21 0 -35.5 14.5t-14.5 36.5z" />
    <glyph glyph-name="Ccaron" unicode="&#x10c;" horiz-adv-x="723" 
d="M641 116l19 -19q-100 -103 -260 -103q-155 0 -247 95q-92 97 -92 260t92 260q93 97 248 97q116 0 202 -56l30 21l12 -12l12 -131h-27q-46 145 -213 145q-131 0 -203 -84.5t-72 -237.5q0 -149 72 -234q72 -86 206 -86q137 0 221 85zM541 893l-138 -129h-9l-138 129l18 18
l125 -80l124 80z" />
    <glyph glyph-name="ccaron" unicode="&#x10d;" horiz-adv-x="534" 
d="M398 354v51q-40 29 -107 29q-75 0 -117.5 -52t-42.5 -144q0 -99 48.5 -152.5t133.5 -53.5q92 0 137 46l20 -20q-65 -62 -180 -62q-109 0 -172 63t-63 173q0 109 62 170.5t173 61.5q76 0 128 -27q53 -27 53 -76q0 -21 -10.5 -32.5t-25.5 -11.5q-16 0 -26.5 11t-10.5 26z
M430 653l-138 -129h-9l-138 129l18 18l124 -80l125 80z" />
    <glyph glyph-name="Dcaron" unicode="&#x10e;" horiz-adv-x="731" 
d="M45 680v20h290q152 0 243 -94q92 -94 92 -256t-92 -257q-92 -93 -243 -93h-290v20l65 15v630zM335 670h-149v-640h149q113 0 184 84q70 83 70 235q0 151 -70 236t-184 85zM498 893l-138 -129h-9l-139 129l19 18l124 -80l125 80z" />
    <glyph glyph-name="dcaron" unicode="&#x10f;" horiz-adv-x="685" 
d="M482 744v-692l54 -19v-26l-115 -13l-12 12l2 44l-3 3q-25 -27 -70 -42t-92 -15q-90 0 -140.5 62t-50.5 166q0 114 60.5 177t168.5 63q78 0 125 -32v271l-60 14v21l121 18zM409 85v313q-45 36 -117 36q-76 0 -118.5 -53.5t-42.5 -151.5q0 -93 39.5 -145t109.5 -52
q84 0 129 53zM593 571l-13 13q15 15 27.5 39t12.5 37q0 3 -2 9q-18 0 -31 12t-13 30t12.5 30.5t31.5 12.5q44 0 44 -54q0 -60 -69 -129z" />
    <glyph glyph-name="Dcroat" unicode="&#x110;" horiz-adv-x="731" 
d="M110 337h-65v18l65 12v298l-65 15v20h290q152 0 243 -94q92 -94 92 -256t-92 -257q-92 -93 -243 -93h-290v20l65 15v302zM335 670h-149v-303h177v-30h-177v-307h149q113 0 184 84q70 83 70 235q0 151 -70 236t-184 85z" />
    <glyph glyph-name="dslash" unicode="&#x111;" horiz-adv-x="587" 
d="M409 585h-184v30h184v88l-60 14v21l121 18l12 -12v-129l54 -12v-18h-54v-533l54 -19v-26l-115 -13l-12 12l2 44l-3 3q-25 -27 -70 -42t-92 -15q-90 0 -140.5 62t-50.5 166q0 114 60.5 177t168.5 63q78 0 125 -32v153zM409 85v313q-45 36 -117 36q-76 0 -118.5 -53.5
t-42.5 -151.5q0 -93 39.5 -145t109.5 -52q84 0 129 53z" />
    <glyph glyph-name="Emacron" unicode="&#x112;" horiz-adv-x="630" 
d="M186 344v-314h322l35 93h28l-11 -123h-515v20l65 15v630l-65 15v20h505l11 -123h-28l-35 93h-312v-295h249l17 68h25v-167h-25l-17 68h-249zM434 804h-239v36h239v-36z" />
    <glyph glyph-name="emacron" unicode="&#x113;" horiz-adv-x="538" 
d="M475 257l-13 -12h-331q1 -213 178 -213q96 0 139 46l20 -20q-60 -62 -178 -62q-109 0 -172 64t-63 171q0 108 62 170q63 63 162 63q89 0 144 -50q55 -49 55 -124q0 -20 -3 -33zM284 434q-60 0 -103 -48q-43 -46 -49 -113l279 7q0 68 -35 111t-92 43zM397 564h-238v36h238
v-36z" />
    <glyph glyph-name="Ebreve" unicode="&#x114;" horiz-adv-x="630" 
d="M186 344v-314h322l35 93h28l-11 -123h-515v20l65 15v630l-65 15v20h505l11 -123h-28l-35 93h-312v-295h249l17 68h25v-167h-25l-17 68h-249zM385 868q0 15 11 25.5t27 10.5q15 0 25 -11t10 -29q0 -40 -45 -65q-43 -25 -98 -25q-56 0 -100 25q-44 26 -44 65q0 19 10 29.5
t26 10.5t26.5 -10.5t10.5 -25.5q0 -65 71 -65q70 0 70 65z" />
    <glyph glyph-name="ebreve" unicode="&#x115;" horiz-adv-x="538" 
d="M473 257l-13 -12h-330q1 -111 45.5 -162t132.5 -51q94 0 139 46l19 -20q-59 -62 -177 -62q-109 0 -173 64q-63 64 -63 171q0 108 62 170q63 63 163 63q89 0 144 -50q55 -49 55 -124q0 -22 -4 -33zM283 434q-59 0 -103 -48q-43 -46 -49 -113l279 7q0 67 -35 110.5
t-92 43.5zM349 628q0 15 10.5 25.5t26.5 10.5q15 0 25.5 -11t10.5 -29q0 -40 -45 -65q-43 -25 -99 -25q-55 0 -99 25q-44 26 -44 65q0 19 10 29.5t26 10.5t26.5 -10.5t10.5 -25.5q0 -65 70 -65q71 0 71 65z" />
    <glyph glyph-name="Edotaccent" unicode="&#x116;" horiz-adv-x="630" 
d="M186 344v-314h322l35 93h28l-11 -123h-515v20l65 15v630l-65 15v20h505l11 -123h-28l-35 93h-312v-295h249l17 68h25v-167h-25l-17 68h-249zM265 848q0 21 14 35t36 14q21 0 35.5 -14t14.5 -35q0 -22 -14.5 -36.5t-35.5 -14.5q-22 0 -36 14.5t-14 36.5z" />
    <glyph glyph-name="edotaccent" unicode="&#x117;" horiz-adv-x="538" 
d="M473 257l-13 -12h-330q1 -111 45.5 -162t132.5 -51q94 0 139 46l19 -20q-59 -62 -177 -62q-109 0 -173 64q-63 64 -63 171q0 108 62 170q63 63 163 63q89 0 144 -50q55 -49 55 -124q0 -22 -4 -33zM283 434q-59 0 -103 -48q-43 -46 -49 -113l279 7q0 67 -35 110.5
t-92 43.5zM227 608q0 21 14 35t36 14q21 0 35.5 -14t14.5 -35q0 -22 -14.5 -36.5t-35.5 -14.5q-22 0 -36 14.5t-14 36.5z" />
    <glyph glyph-name="Eogonek" unicode="&#x118;" horiz-adv-x="630" 
d="M560 -157l11 -11q-47 -44 -91 -44q-61 0 -61 62q0 71 70 150h-444v20l65 15v630l-65 15v20h505l11 -123h-28l-35 93h-312v-295h249l17 68h25v-167h-25l-17 68h-249v-314h322l35 93h28l-11 -123h-44q-24 -33 -38.5 -72t-14.5 -66q0 -42 38 -42t59 23z" />
    <glyph glyph-name="eogonek" unicode="&#x119;" horiz-adv-x="538" 
d="M458 -135l10 -10q-44 -44 -90 -44q-61 0 -61 62t56 133q-41 -10 -83 -10q-109 0 -172 64t-63 171q0 108 62 170q63 63 162 63q89 0 144 -50q55 -49 55 -124q0 -20 -3 -33l-13 -12h-331q1 -213 178 -213q96 0 139 46l20 -20q-24 -24 -58 -39q-49 -70 -49 -134
q0 -42 37 -42t60 22zM284 434q-60 0 -103 -48q-43 -46 -49 -113l279 7q0 68 -35 111t-92 43z" />
    <glyph glyph-name="Ecaron" unicode="&#x11a;" horiz-adv-x="630" 
d="M186 344v-314h322l35 93h28l-11 -123h-515v20l65 15v630l-65 15v20h505l11 -123h-28l-35 93h-312v-295h249l17 68h25v-167h-25l-17 68h-249zM458 893l-138 -129h-10l-138 129l18 18l125 -80l124 80z" />
    <glyph glyph-name="ecaron" unicode="&#x11b;" horiz-adv-x="538" 
d="M475 257l-13 -12h-331q1 -213 178 -213q96 0 139 46l20 -20q-60 -62 -178 -62q-109 0 -172 64t-63 171q0 108 62 170q63 63 162 63q89 0 144 -50q55 -49 55 -124q0 -20 -3 -33zM284 434q-60 0 -103 -48q-43 -46 -49 -113l279 7q0 68 -35 111t-92 43zM424 653l-138 -129
h-10l-138 129l18 18l125 -80l125 80z" />
    <glyph glyph-name="Gcircumflex" unicode="&#x11c;" horiz-adv-x="768" 
d="M723 312l-65 -20v-252l-12 -12l-38 27q-88 -61 -208 -61q-156 0 -248 95q-91 95 -91 260q0 163 92 260q93 97 248 97q116 0 202 -56l30 21l12 -12l12 -131h-27q-46 145 -213 145q-131 0 -203 -84.5t-72 -237.5q0 -148 70 -234q71 -86 201 -86q101 0 169 52v210l-65 19v23
h206v-23zM260 783l138 128h9l138 -128l-18 -19l-124 80l-125 -80z" />
    <glyph glyph-name="gcircumflex" unicode="&#x11d;" horiz-adv-x="569" 
d="M510 437l-61 -17h-44q54 -44 54 -114q0 -71 -53.5 -113t-141.5 -42q-66 0 -113 24q-24 -32 -24 -65q0 -55 84 -55h141q158 0 158 -134q0 -174 -268 -174q-204 0 -204 104q0 38 25.5 75.5t66.5 65.5q-58 19 -58 85q0 52 57 112q-59 44 -59 117q0 72 53.5 114.5t140.5 42.5
q22 0 41 -3h205v-23zM358 -17h-161q-21 0 -39 3q-49 -53 -49 -114q0 -51 35.5 -73t108.5 -22q96 0 147.5 31t51.5 90q0 40 -23.5 62.5t-70.5 22.5zM384 306q0 59 -33 94t-87 35t-86.5 -35t-32.5 -94t32 -93t87 -34t87.5 34t32.5 93zM121 543l138 128h10l138 -128l-18 -19
l-125 80l-124 -80z" />
    <glyph glyph-name="Gbreve" unicode="&#x11e;" horiz-adv-x="768" 
d="M723 312l-65 -20v-252l-12 -12l-38 27q-88 -61 -208 -61q-156 0 -248 95q-91 95 -91 260q0 163 92 260q93 97 248 97q116 0 202 -56l30 21l12 -12l12 -131h-27q-46 145 -213 145q-131 0 -203 -84.5t-72 -237.5q0 -148 70 -234q71 -86 201 -86q101 0 169 52v210l-65 19v23
h206v-23zM468 868q0 15 10.5 25.5t26.5 10.5q15 0 25.5 -11t10.5 -29q0 -40 -45 -65q-43 -25 -99 -25q-55 0 -99 25q-44 26 -44 65q0 26 18 35.5t36.5 -0.5t18.5 -31q0 -65 70 -65q71 0 71 65z" />
    <glyph glyph-name="gbreve" unicode="&#x11f;" horiz-adv-x="569" 
d="M510 437l-61 -17h-44q54 -44 54 -114q0 -71 -53.5 -113t-141.5 -42q-66 0 -113 24q-24 -32 -24 -65q0 -55 84 -55h141q158 0 158 -134q0 -174 -268 -174q-204 0 -204 104q0 38 25.5 75.5t66.5 65.5q-58 19 -58 85q0 52 57 112q-59 44 -59 117q0 72 53.5 114.5t140.5 42.5
q22 0 41 -3h205v-23zM358 -17h-161q-21 0 -39 3q-49 -53 -49 -114q0 -51 35.5 -73t108.5 -22q96 0 147.5 31t51.5 90q0 40 -23.5 62.5t-70.5 22.5zM384 306q0 59 -33 94t-87 35t-86.5 -35t-32.5 -94t32 -93t87 -34t87.5 34t32.5 93zM335 628q0 15 11 25.5t27 10.5
q15 0 25 -11t10 -29q0 -40 -45 -65q-43 -25 -98 -25q-56 0 -100 25q-44 26 -44 65q0 19 10 29.5t26 10.5t26.5 -10.5t10.5 -25.5q0 -65 71 -65q70 0 70 65z" />
    <glyph glyph-name="Gdotaccent" unicode="&#x120;" horiz-adv-x="768" 
d="M723 312l-65 -20v-252l-12 -12l-38 27q-88 -61 -208 -61q-156 0 -248 95q-91 95 -91 260q0 163 92 260q93 97 248 97q116 0 202 -56l30 21l12 -12l12 -131h-27q-46 145 -213 145q-131 0 -203 -84.5t-72 -237.5q0 -148 70 -234q71 -86 201 -86q101 0 169 52v210l-65 19v23
h206v-23zM347 848q0 21 14.5 35t35.5 14q22 0 36 -14t14 -35q0 -22 -14 -36.5t-36 -14.5q-21 0 -35.5 14.5t-14.5 36.5z" />
    <glyph glyph-name="gdotaccent" unicode="&#x121;" horiz-adv-x="569" 
d="M510 437l-61 -17h-44q54 -44 54 -114q0 -71 -53.5 -113t-141.5 -42q-66 0 -113 24q-24 -32 -24 -65q0 -55 84 -55h141q158 0 158 -134q0 -174 -268 -174q-204 0 -204 104q0 38 25.5 75.5t66.5 65.5q-58 19 -58 85q0 52 57 112q-59 44 -59 117q0 72 53.5 114.5t140.5 42.5
q22 0 41 -3h205v-23zM358 -17h-161q-21 0 -39 3q-49 -53 -49 -114q0 -51 35.5 -73t108.5 -22q96 0 147.5 31t51.5 90q0 40 -23.5 62.5t-70.5 22.5zM384 306q0 59 -33 94t-87 35t-86.5 -35t-32.5 -94t32 -93t87 -34t87.5 34t32.5 93zM215 608q0 21 14 35t36 14q21 0 35.5 -14
t14.5 -35q0 -22 -14.5 -36.5t-35.5 -14.5q-22 0 -36 14.5t-14 36.5z" />
    <glyph glyph-name="Gcommaaccent" unicode="&#x122;" horiz-adv-x="768" 
d="M723 312l-65 -20v-252l-12 -12l-38 27q-88 -61 -208 -61q-156 0 -248 95q-91 95 -91 260q0 163 92 260q93 97 248 97q116 0 202 -56l30 21l12 -12l12 -131h-27q-46 145 -213 145q-131 0 -203 -84.5t-72 -237.5q0 -148 70 -234q71 -86 201 -86q101 0 169 52v210l-65 19v23
h206v-23zM375 -250l-12 13q16 16 28 39t12 37q0 5 -3 8q-18 0 -31 12.5t-13 30.5t13 30.5t32 12.5q44 0 44 -54q0 -62 -70 -129z" />
    <glyph glyph-name="gcommaaccent" unicode="&#x123;" horiz-adv-x="569" 
d="M510 437l-61 -17h-44q54 -44 54 -114q0 -71 -53.5 -113t-141.5 -42q-66 0 -113 24q-24 -32 -24 -65q0 -55 84 -55h141q158 0 158 -134q0 -174 -268 -174q-204 0 -204 104q0 38 25.5 75.5t66.5 65.5q-58 19 -58 85q0 52 57 112q-59 44 -59 117q0 72 53.5 114.5t140.5 42.5
q22 0 41 -3h205v-23zM358 -17h-161q-21 0 -39 3q-49 -53 -49 -114q0 -51 35.5 -73t108.5 -22q96 0 147.5 31t51.5 90q0 40 -23.5 62.5t-70.5 22.5zM384 306q0 59 -33 94t-87 35t-86.5 -35t-32.5 -94t32 -93t87 -34t87.5 34t32.5 93zM284 700l13 -13q-16 -16 -28 -39t-12 -37
q0 -6 2 -8q18 0 31 -12.5t13 -30.5t-13 -30.5t-32 -12.5q-44 0 -44 54q0 59 70 129z" />
    <glyph glyph-name="Hcircumflex" unicode="&#x124;" horiz-adv-x="776" 
d="M45 0v24l65 24v610l-65 19v23h206v-23l-65 -20v-287h404v288l-65 19v23h206v-23l-65 -20v-616l65 -18v-23h-206v24l65 24v291h-404v-298l65 -18v-23h-206zM245 783l138 128h9l138 -128l-18 -19l-124 80l-125 -80z" />
    <glyph glyph-name="hcircumflex" unicode="&#x125;" horiz-adv-x="612" 
d="M178 367v-327l58 -17v-23h-191v24l60 22v657l-60 14v21l121 18l12 -12v-284l-2 -57l3 -3q32 31 87 47q57 17 101 17q68 0 104 -43.5t36 -118.5v-262l60 -17v-23h-192v24l58 22v251q0 62 -25.5 96.5t-72.5 34.5q-36 0 -81 -16q-46 -16 -76 -45zM163 794l138 128h9
l138 -128l-18 -18l-124 79l-125 -79z" />
    <glyph glyph-name="Hbar" unicode="&#x126;" horiz-adv-x="758" 
d="M110 502h-62v18l62 12v126l-65 19v23h206v-23l-65 -20v-125h386v126l-65 19v23h206v-23l-65 -20v-125l65 -12v-18h-65v-461l65 -18v-23h-206v24l65 24v291h-386v-298l65 -18v-23h-206v24l65 24v454zM186 502v-132h386v132h-386z" />
    <glyph glyph-name="hbar" unicode="&#x127;" horiz-adv-x="612" 
d="M45 595l60 13v95l-60 14v21l121 18l12 -12v-136h208v-31h-208v-117l-2 -57l3 -3q32 31 87 47q57 17 101 17q68 0 104 -43.5t36 -118.5v-262l60 -17v-23h-192v24l58 22v251q0 62 -25.5 96.5t-72.5 34.5q-36 0 -81 -16q-46 -16 -76 -45v-327l58 -17v-23h-191v24l60 22v531
h-60v18z" />
    <glyph glyph-name="Itilde" unicode="&#x128;" horiz-adv-x="295" 
d="M250 677l-65 -20v-616l65 -18v-23h-205v24l65 24v610l-65 19v23h205v-23zM8 780l-18 17q76 75 112 75q22 0 54 -23t55 -23q33 0 80 45l17 -17q-75 -77 -117 -77q-20 0 -52 23q-30 24 -55 24q-32 0 -76 -44z" />
    <glyph glyph-name="itilde" unicode="&#x129;" horiz-adv-x="283" 
d="M2 540l-18 17q75 75 112 75q22 0 54 -23t55 -23q34 0 79 45l18 -17q-75 -77 -117 -77q-20 0 -52 23q-31 24 -55 24q-32 0 -76 -44zM238 0h-193v24l60 22v361l-54 14v27l115 18l12 -12v-414l60 -17v-23z" />
    <glyph glyph-name="Imacron" unicode="&#x12a;" horiz-adv-x="295" 
d="M250 677l-65 -20v-616l65 -18v-23h-205v24l65 24v610l-65 19v23h205v-23zM267 804h-239v36h239v-36z" />
    <glyph glyph-name="imacron" unicode="&#x12b;" horiz-adv-x="283" 
d="M238 0h-193v24l60 22v361l-54 14v27l115 18l12 -12v-414l60 -17v-23zM261 564h-239v36h239v-36z" />
    <glyph glyph-name="Ibreve" unicode="&#x12c;" horiz-adv-x="295" 
d="M250 677l-65 -20v-616l65 -18v-23h-205v24l65 24v610l-65 19v23h205v-23zM218 868q0 22 18 31.5t36.5 0t18.5 -35.5q0 -40 -45 -65q-43 -25 -98 -25q-56 0 -100 25q-44 26 -44 65q0 19 10 29.5t26 10.5t26.5 -10.5t10.5 -25.5q0 -65 71 -65q70 0 70 65z" />
    <glyph glyph-name="ibreve" unicode="&#x12d;" horiz-adv-x="283" 
d="M198 628q0 15 11 25.5t27 10.5q15 0 25 -11t10 -29q0 -40 -45 -65q-43 -25 -98 -25q-56 0 -100 25q-44 26 -44 65q0 19 10 29.5t26 10.5t26.5 -10.5t10.5 -25.5q0 -65 71 -65q70 0 70 65zM238 0h-193v24l60 22v361l-54 14v27l115 18l12 -12v-414l60 -17v-23z" />
    <glyph glyph-name="Iogonek" unicode="&#x12e;" horiz-adv-x="295" 
d="M240 -157l10 -11q-44 -44 -91 -44q-60 0 -60 62q0 70 69 150h-123v24l65 24v610l-65 19v23h205v-23l-65 -20v-616l65 -18v-23h-55q-52 -73 -52 -138q0 -42 37 -42t60 23z" />
    <glyph glyph-name="iogonek" unicode="&#x12f;" horiz-adv-x="283" 
d="M157 0h-112v24l60 22v361l-54 14v27l115 18l12 -12v-414l60 -17v-23h-55q-52 -73 -52 -138q0 -42 37 -42t60 23l10 -11q-44 -44 -90 -44q-61 0 -61 62q0 71 70 150zM133 660q23 0 38 -15t15 -38q0 -22 -15 -37t-38 -15q-22 0 -37 15t-15 37t15 37.5t37 15.5z" />
    <glyph glyph-name="Idot" unicode="&#x130;" horiz-adv-x="295" 
d="M250 677l-65 -20v-616l65 -18v-23h-205v24l65 24v610l-65 19v23h205v-23zM97 848q0 21 14.5 35t36.5 14q21 0 35.5 -14t14.5 -35q0 -22 -14.5 -36.5t-35.5 -14.5q-22 0 -36.5 14.5t-14.5 36.5z" />
    <glyph glyph-name="dotlessi" unicode="&#x131;" horiz-adv-x="283" 
d="M238 0h-193v24l60 22v361l-54 14v27l115 18l12 -12v-414l60 -17v-23z" />
    <glyph glyph-name="IJ" unicode="&#x132;" horiz-adv-x="583" 
d="M250 677l-65 -20v-616l65 -18v-23h-205v24l65 24v610l-65 19v23h205v-23zM398 0v658l-65 19v23h205v-23l-65 -20v-657q0 -79 -36.5 -147t-102.5 -109l-20 20q40 37 62 101t22 135z" />
    <glyph glyph-name="ij" unicode="&#x133;" horiz-adv-x="558" 
d="M238 0h-193v24l60 22v361l-54 14v27l115 18l12 -12v-414l60 -17v-23zM133 660q23 0 38 -15t15 -38q0 -22 -15 -37t-38 -15q-22 0 -37 15t-15 37t15 37.5t37 15.5zM380 0v407l-54 14v27l115 18l13 -12v-454q0 -78 -36 -146.5t-101 -109.5l-20 20q40 37 61.5 100.5
t21.5 135.5zM371 569q-14 15 -14 38t15 38t37 15t37 -15t15 -38t-15 -38q-14 -14 -37 -14t-38 14z" />
    <glyph glyph-name="Jcircumflex" unicode="&#x134;" horiz-adv-x="295" 
d="M110 0v658l-65 19v23h205v-23l-65 -20v-657q0 -79 -36.5 -147t-102.5 -109l-20 20q40 37 62 101t22 135zM5 783l138 128h9l139 -128l-19 -19l-124 80l-125 -80z" />
    <glyph glyph-name="jcircumflex" unicode="&#x135;" horiz-adv-x="283" 
d="M105 0v407l-54 14v27l115 18l12 -12v-454q0 -79 -36 -147t-101 -109l-20 20q40 37 62 101t22 135zM-1 543l138 128h9l138 -128l-18 -19l-124 80l-125 -80z" />
    <glyph glyph-name="Kcommaaccent" unicode="&#x136;" horiz-adv-x="679" 
d="M247 677l-65 -20v-341l332 342l-85 19v23h193v-23l-63 -19l-227 -236l259 -381l65 -18v-23h-128l-250 369l-96 -99v-229l65 -18v-23h-206v24l65 24v610l-65 19v23h206v-23zM314 -250l-13 13q16 15 28 38.5t12 37.5q0 6 -2 8q-18 0 -31 12.5t-13 30.5t13 30.5t32 12.5
q44 0 44 -54q0 -59 -70 -129z" />
    <glyph glyph-name="kcommaaccent" unicode="&#x137;" horiz-adv-x="546" 
d="M527 0h-117l-155 249l-77 -73v-136l60 -17v-23h-193v24l60 22v657l-60 14v21l121 18l12 -12v-522l213 198l-80 17v23h183v-23l-57 -17l-130 -122l159 -258l61 -17v-23zM247 -250l-12 13q15 15 27 38.5t12 37.5q0 6 -2 8q-18 0 -31 12.5t-13 30.5t13 30.5t32 12.5
q44 0 44 -54q0 -59 -70 -129z" />
    <glyph glyph-name="Lacute" unicode="&#x139;" horiz-adv-x="604" 
d="M186 657v-627h296l35 93h28l-12 -123h-488v20l65 15v623l-65 19v23h206v-23zM91 764l-18 19l143 128l46 -46z" />
    <glyph glyph-name="lacute" unicode="&#x13a;" horiz-adv-x="283" 
d="M238 0h-193v24l60 22v657l-60 14v21l121 18l12 -12v-704l60 -17v-23zM85 774l-18 18l143 128l46 -46z" />
    <glyph glyph-name="Lcommaaccent" unicode="&#x13b;" horiz-adv-x="604" 
d="M186 657v-627h296l35 93h28l-12 -123h-488v20l65 15v623l-65 19v23h206v-23zM276 -250l-12 13q16 16 28 39t12 37q0 5 -3 8q-18 0 -31 12.5t-13 30.5t13 30.5t32 12.5q44 0 44 -54q0 -62 -70 -129z" />
    <glyph glyph-name="lcommaaccent" unicode="&#x13c;" horiz-adv-x="283" 
d="M238 0h-193v24l60 22v657l-60 14v21l121 18l12 -12v-704l60 -17v-23zM116 -250l-13 13q16 15 28 38.5t12 37.5q0 2 -2 8q-18 0 -31 12.5t-13 30.5t12.5 30.5t31.5 12.5q44 0 44 -54q0 -60 -69 -129z" />
    <glyph glyph-name="Lcaron" unicode="&#x13d;" horiz-adv-x="604" 
d="M186 657v-627h296l35 93h28l-12 -123h-488v20l65 15v623l-65 19v23h206v-23zM290 877l-138 -128h-9l-138 128l18 19l124 -80l125 80z" />
    <glyph glyph-name="lcaron" unicode="&#x13e;" horiz-adv-x="374" 
d="M238 0h-193v24l60 22v657l-60 14v21l121 18l12 -12v-704l60 -17v-23zM281 571l-12 13q15 16 27 39.5t12 36.5q0 7 -2 9q-18 0 -31 12t-13 30t13 30.5t32 12.5q44 0 44 -54q0 -62 -70 -129z" />
    <glyph glyph-name="Ldot" unicode="&#x13f;" horiz-adv-x="604" 
d="M186 657v-627h296l35 93h28l-12 -123h-488v20l65 15v623l-65 19v23h206v-23zM401 350q0 20 14.5 35t34.5 15q22 0 36.5 -15t14.5 -35q0 -21 -14.5 -35.5t-36.5 -14.5q-20 0 -34.5 14.5t-14.5 35.5z" />
    <glyph glyph-name="ldot" unicode="&#x140;" horiz-adv-x="423" 
d="M238 0h-193v24l60 22v657l-60 14v21l121 18l12 -12v-704l60 -17v-23zM295 300q0 20 14.5 35t34.5 15q21 0 36 -15t15 -35q0 -21 -15 -35.5t-36 -14.5q-20 0 -34.5 14.5t-14.5 35.5z" />
    <glyph glyph-name="Lslash" unicode="&#x141;" horiz-adv-x="604" 
d="M110 239l-62 -62l-21 22l83 83v376l-65 19v23h206v-23l-65 -20v-317l132 133l21 -22l-153 -153v-268h296l35 93h28l-12 -123h-488v20l65 15v204z" />
    <glyph glyph-name="lslash" unicode="&#x142;" horiz-adv-x="283" 
d="M105 274l-57 -57l-21 22l78 77v387l-60 14v21l121 18l12 -12v-369l57 57l21 -22l-78 -77v-293l60 -17v-23h-193v24l60 22v228z" />
    <glyph glyph-name="Nacute" unicode="&#x143;" horiz-adv-x="735" 
d="M45 0v18l65 24v616l-65 19v23h143l407 -584v548l-65 19v17h160v-17l-65 -20v-663h-37l-448 643v-607l65 -19v-17h-160zM311 764l-18 19l142 128l46 -46z" />
    <glyph glyph-name="nacute" unicode="&#x144;" horiz-adv-x="612" 
d="M178 367v-327l58 -17v-23h-191v24l60 22v361l-54 14v27l115 18l12 -12l-2 -51l3 -3q31 30 87 47q57 17 100 17q68 0 104.5 -44t36.5 -118v-262l60 -17v-23h-192v24l58 22v251q0 61 -27 96t-75 35q-36 0 -80 -16.5t-73 -44.5zM249 524l-18 19l143 128l46 -46z" />
    <glyph glyph-name="Ncommaaccent" unicode="&#x145;" horiz-adv-x="735" 
d="M45 0v18l65 24v616l-65 19v23h143l407 -584v548l-65 19v17h160v-17l-65 -20v-663h-37l-448 643v-607l65 -19v-17h-160zM342 -250l-13 13q16 15 28 38.5t12 37.5q0 2 -2 8q-18 0 -31 12.5t-13 30.5t12.5 30.5t31.5 12.5q45 0 45 -54q0 -59 -70 -129z" />
    <glyph glyph-name="ncommaaccent" unicode="&#x146;" horiz-adv-x="612" 
d="M178 367v-327l58 -17v-23h-191v24l60 22v361l-54 14v27l115 18l12 -12l-2 -51l3 -3q31 30 87 47q57 17 100 17q68 0 104.5 -44t36.5 -118v-262l60 -17v-23h-192v24l58 22v251q0 61 -27 96t-75 35q-36 0 -80 -16.5t-73 -44.5zM281 -250l-13 13q16 15 28 38.5t12 37.5
q0 2 -2 8q-18 0 -31 12.5t-13 30.5t12.5 30.5t31.5 12.5q44 0 44 -54q0 -60 -69 -129z" />
    <glyph glyph-name="Ncaron" unicode="&#x147;" horiz-adv-x="735" 
d="M45 0v18l65 24v616l-65 19v23h143l407 -584v548l-65 19v17h160v-17l-65 -20v-663h-37l-448 643v-607l65 -19v-17h-160zM510 893l-138 -129h-10l-138 129l18 18l125 -80l124 80z" />
    <glyph glyph-name="ncaron" unicode="&#x148;" horiz-adv-x="612" 
d="M178 367v-327l58 -17v-23h-191v24l60 22v361l-54 14v27l115 18l12 -12l-2 -51l3 -3q31 30 87 47q57 17 100 17q68 0 104.5 -44t36.5 -118v-262l60 -17v-23h-192v24l58 22v251q0 61 -27 96t-75 35q-36 0 -80 -16.5t-73 -44.5zM448 653l-138 -129h-9l-138 129l18 18
l125 -80l124 80z" />
    <glyph glyph-name="Eng" unicode="&#x14a;" horiz-adv-x="735" 
d="M45 0v18l65 24v616l-65 19v23h145l405 -625v589l-65 19v17h160v-17l-65 -20v-663q0 -79 -36.5 -147t-102.5 -109l-20 20q40 37 61.5 100.5t21.5 135.5v13l-409 630v-607l65 -19v-17h-160z" />
    <glyph glyph-name="eng" unicode="&#x14b;" horiz-adv-x="612" 
d="M433 0v297q0 61 -27 96t-75 35q-36 0 -80 -16.5t-73 -44.5v-327l60 -17v-23h-193v24l60 22v361l-54 14v27l115 18l12 -12l-2 -51l3 -3q31 30 87 47q57 17 100 17q68 0 104.5 -44t36.5 -118v-302q0 -79 -36 -147t-101 -109l-20 20q40 37 61.5 100.5t21.5 135.5z" />
    <glyph glyph-name="Omacron" unicode="&#x14c;" horiz-adv-x="788" 
d="M153 90q-92 98 -92 260t92 259q91 97 241 97t241 -97q92 -97 92 -259t-92 -260q-91 -96 -241 -96q-149 0 -241 96zM142 349q0 -151 69 -238q71 -86 183 -86q113 0 182 86q70 86 70 238q0 153 -70 239q-71 87 -182 87q-112 0 -183 -87q-69 -87 -69 -239zM513 804h-238v36
h238v-36z" />
    <glyph glyph-name="omacron" unicode="&#x14d;" horiz-adv-x="569" 
d="M118 59q-63 63 -63 171t63 171t166 63t166 -63q64 -63 64 -171t-64 -171q-63 -63 -166 -63t-166 63zM131 230q0 -94 41.5 -148.5t111.5 -54.5t111.5 54.5t41.5 148.5q0 95 -41.5 149.5t-111.5 54.5t-111.5 -54.5t-41.5 -149.5zM404 564h-239v36h239v-36z" />
    <glyph glyph-name="Obreve" unicode="&#x14e;" horiz-adv-x="788" 
d="M153 90q-92 98 -92 260t92 259q91 97 241 97t241 -97q92 -97 92 -259t-92 -260q-91 -96 -241 -96q-149 0 -241 96zM142 349q0 -151 69 -238q71 -86 183 -86q113 0 182 86q70 86 70 238q0 153 -70 239q-71 87 -182 87q-112 0 -183 -87q-69 -87 -69 -239zM464 868
q0 15 11 25.5t27 10.5q15 0 25 -11t10 -29q0 -40 -45 -65q-43 -25 -98 -25q-56 0 -100 25q-44 26 -44 65q0 19 10 29.5t26 10.5t26.5 -10.5t10.5 -25.5q0 -65 71 -65q70 0 70 65z" />
    <glyph glyph-name="obreve" unicode="&#x14f;" horiz-adv-x="569" 
d="M118 59q-63 63 -63 171t63 171t166 63t166 -63q64 -63 64 -171t-64 -171q-63 -63 -166 -63t-166 63zM131 230q0 -94 41.5 -148.5t111.5 -54.5t111.5 54.5t41.5 148.5q0 95 -41.5 149.5t-111.5 54.5t-111.5 -54.5t-41.5 -149.5zM355 628q0 15 10.5 25.5t26.5 10.5
q15 0 25.5 -11t10.5 -29q0 -40 -45 -65q-43 -25 -99 -25q-55 0 -99 25q-44 26 -44 65q0 26 18.5 35.5t36.5 -0.5t18 -31q0 -65 70 -65q71 0 71 65z" />
    <glyph glyph-name="Ohungarumlaut" unicode="&#x150;" horiz-adv-x="788" 
d="M153 90q-92 98 -92 260t92 259q91 97 241 97t241 -97q92 -97 92 -259t-92 -260q-91 -96 -241 -96q-149 0 -241 96zM142 349q0 -151 69 -238q71 -86 183 -86q113 0 182 86q70 86 70 238q0 153 -70 239q-71 87 -182 87q-112 0 -183 -87q-69 -87 -69 -239zM246 764l-18 19
l135 128l46 -46zM416 764l-18 19l135 128l46 -46z" />
    <glyph glyph-name="ohungarumlaut" unicode="&#x151;" horiz-adv-x="569" 
d="M118 59q-63 63 -63 171t63 171t166 63t166 -63q64 -63 64 -171t-64 -171q-63 -63 -166 -63t-166 63zM131 230q0 -94 41.5 -148.5t111.5 -54.5t111.5 54.5t41.5 148.5q0 95 -41.5 149.5t-111.5 54.5t-111.5 -54.5t-41.5 -149.5zM136 524l-18 19l136 128l46 -46zM306 524
l-18 19l136 128l46 -46z" />
    <glyph glyph-name="OE" unicode="&#x152;" horiz-adv-x="986" 
d="M555 344v-314h309l35 93h27l-11 -123h-453q-42 -6 -68 -6q-149 0 -241 96q-92 98 -92 260t92 259q91 97 241 97q26 0 69 -6h442l11 -123h-27l-35 93h-299v-295h235l18 68h25v-167h-25l-18 68h-235zM394 25q49 0 85 16v617q-42 17 -85 17q-112 0 -183 -87
q-69 -87 -69 -239q0 -151 69 -238q71 -86 183 -86z" />
    <glyph glyph-name="oe" unicode="&#x153;" horiz-adv-x="907" 
d="M844 257l-13 -12h-331q2 -213 178 -213q94 0 139 46l20 -20q-60 -62 -178 -62q-133 0 -191 93q-58 -93 -184 -93q-103 0 -166 63t-63 171t63 171t166 63q126 0 184 -93q58 93 180 93q89 0 144 -50q55 -49 55 -124q0 -20 -3 -33zM284 27q56 0 94.5 35t52.5 100
q-8 37 -8 69t8 66q-14 66 -52.5 101.5t-94.5 35.5q-70 0 -111.5 -54.5t-41.5 -149.5q0 -94 41.5 -148.5t111.5 -54.5zM653 434q-59 0 -103 -48q-43 -46 -49 -113l279 7q0 67 -35 110.5t-92 43.5z" />
    <glyph glyph-name="Racute" unicode="&#x154;" horiz-adv-x="656" 
d="M562 512q0 -77 -50 -125.5t-135 -57.5q33 -17 80 -99l110 -189l66 -18v-23h-126l-188 324h-133v-283l65 -18v-23h-206v24l65 24v617l-65 15v20h288q103 0 166 -51q63 -49 63 -137zM321 670h-135v-315h135q72 0 115.5 42t43.5 115t-43.5 115.5t-115.5 42.5zM272 764
l-18 19l142 128l46 -46z" />
    <glyph glyph-name="racute" unicode="&#x155;" horiz-adv-x="456" 
d="M45 24l60 22v361l-54 14v27l115 18l12 -13l-2 -89l3 -3q11 18 25 36q52 67 117 67q40 0 67.5 -25.5t27.5 -63.5q0 -43 -36 -43q-16 0 -26.5 10.5t-10.5 25.5v55q-14 11 -33 11q-34 0 -67 -30q-32 -29 -49 -60l-16 -29v-271l92 -21v-23h-225v24zM189 524l-19 19l143 128
l46 -46z" />
    <glyph glyph-name="Rcommaaccent" unicode="&#x156;" horiz-adv-x="656" 
d="M562 512q0 -77 -50 -125.5t-135 -57.5q33 -17 80 -99l110 -189l66 -18v-23h-126l-188 324h-133v-283l65 -18v-23h-206v24l65 24v617l-65 15v20h288q103 0 166 -51q63 -49 63 -137zM321 670h-135v-315h135q72 0 115.5 42t43.5 115t-43.5 115.5t-115.5 42.5zM302 -250
l-13 13q16 15 28 38.5t12 37.5q0 6 -2 8q-18 0 -31 12.5t-13 30.5t13 30.5t32 12.5q44 0 44 -54q0 -59 -70 -129z" />
    <glyph glyph-name="rcommaaccent" unicode="&#x157;" horiz-adv-x="456" 
d="M45 24l60 22v361l-54 14v27l115 18l12 -13l-2 -89l3 -3q11 18 25 36q52 67 117 67q40 0 67.5 -25.5t27.5 -63.5q0 -43 -36 -43q-16 0 -26.5 10.5t-10.5 25.5v55q-14 11 -33 11q-34 0 -67 -30q-32 -29 -49 -60l-16 -29v-271l92 -21v-23h-225v24zM130 -250l-12 13
q15 15 27 38.5t12 37.5q0 6 -2 8q-18 0 -31 12.5t-13 30.5t13 30.5t32 12.5q44 0 44 -54q0 -62 -70 -129z" />
    <glyph glyph-name="Rcaron" unicode="&#x158;" horiz-adv-x="656" 
d="M562 512q0 -77 -50 -125.5t-135 -57.5q33 -17 80 -99l110 -189l66 -18v-23h-126l-188 324h-133v-283l65 -18v-23h-206v24l65 24v617l-65 15v20h288q103 0 166 -51q63 -49 63 -137zM321 670h-135v-315h135q72 0 115.5 42t43.5 115t-43.5 115.5t-115.5 42.5zM461 893
l-138 -129h-10l-138 129l18 18l125 -80l124 80z" />
    <glyph glyph-name="rcaron" unicode="&#x159;" horiz-adv-x="456" 
d="M45 24l60 22v361l-54 14v27l115 18l12 -13l-2 -89l3 -3q11 18 25 36q52 67 117 67q40 0 67.5 -25.5t27.5 -63.5q0 -43 -36 -43q-16 0 -26.5 10.5t-10.5 25.5v55q-14 11 -33 11q-34 0 -67 -30q-32 -29 -49 -60l-16 -29v-271l92 -21v-23h-225v24zM376 653l-138 -129h-10
l-138 129l18 18l125 -80l125 80z" />
    <glyph glyph-name="Sacute" unicode="&#x15a;" 
d="M78 13l-12 12l-12 136h27q32 -136 194 -136q83 0 131.5 39t48.5 112q0 62 -39 90q-37 27 -140 58l-47 14l-41 15q-26 10 -41 19q-46 32 -60 56q-22 46 -22 94q0 87 54 135.5t163 48.5q93 0 166 -44l25 23l12 -12l12 -134h-28q-28 136 -174 136q-75 0 -118.5 -38
t-43.5 -105q0 -58 35 -84q33 -24 125 -52l50 -16q16 -4 46 -17q30 -11 45 -21q50 -33 65 -60q24 -44 24 -98q0 -90 -59.5 -140t-178.5 -50q-101 0 -180 44zM226 764l-18 19l142 128l46 -46z" />
    <glyph glyph-name="sacute" unicode="&#x15b;" horiz-adv-x="446" 
d="M69 7l-11 11v102h28q25 -94 123 -94q56 0 89 23.5t33 67.5q0 37 -27 53q-27 18 -94 34l-38 10q-47 13 -67 27q-52 42 -47 96q0 126 160 126q73 0 123 -32l17 17l11 -11v-100h-28q-23 96 -113 96q-47 0 -76.5 -23.5t-29.5 -62.5q0 -35 23 -50q24 -13 84 -30l48 -14
q21 -7 42 -17q29 -14 40 -26q35 -33 35 -86q0 -128 -179 -128q-73 0 -128 28zM164 524l-18 19l143 128l45 -46z" />
    <glyph glyph-name="Scircumflex" unicode="&#x15c;" 
d="M78 13l-12 12l-12 136h27q32 -136 194 -136q83 0 131.5 39t48.5 112q0 62 -39 90q-37 27 -140 58l-47 14l-41 15q-26 10 -41 19q-46 32 -60 56q-22 46 -22 94q0 87 54 135.5t163 48.5q93 0 166 -44l25 23l12 -12l12 -134h-28q-28 136 -174 136q-75 0 -118.5 -38
t-43.5 -105q0 -58 35 -84q33 -24 125 -52l50 -16q16 -4 46 -17q30 -11 45 -21q50 -33 65 -60q24 -44 24 -98q0 -90 -59.5 -140t-178.5 -50q-101 0 -180 44zM139 783l138 128h10l138 -128l-18 -19l-125 80l-124 -80z" />
    <glyph glyph-name="scircumflex" unicode="&#x15d;" horiz-adv-x="446" 
d="M69 7l-11 11v102h28q25 -94 123 -94q56 0 89 23.5t33 67.5q0 37 -27 53q-27 18 -94 34l-38 10q-47 13 -67 27q-52 42 -47 96q0 126 160 126q73 0 123 -32l17 17l11 -11v-100h-28q-23 96 -113 96q-47 0 -76.5 -23.5t-29.5 -62.5q0 -35 23 -50q24 -13 84 -30l48 -14
q21 -7 42 -17q29 -14 40 -26q35 -33 35 -86q0 -128 -179 -128q-73 0 -128 28zM76 543l138 128h9l138 -128l-18 -19l-124 80l-125 -80z" />
    <glyph glyph-name="Scedilla" unicode="&#x15e;" 
d="M224 -88l45 82q-93 3 -164 44l-27 -25l-12 12l-12 136h27q32 -136 194 -136q83 0 131.5 39t48.5 112q0 62 -39 90q-37 27 -140 58l-47 14l-41 15q-26 10 -41 19q-46 32 -60 56q-22 46 -22 94q0 87 54 135.5t163 48.5q93 0 166 -44l25 23l12 -12l12 -134h-28
q-28 136 -174 136q-75 0 -118.5 -38t-43.5 -105q0 -58 35 -84q33 -24 125 -52l50 -16q16 -4 46 -17q30 -11 45 -21q50 -33 65 -60q24 -44 24 -98q0 -87 -56.5 -137t-168.5 -53l-21 -39q78 0 78 -44q0 -34 -89 -123l-12 13q50 53 50 81q0 30 -80 30z" />
    <glyph glyph-name="scedilla" unicode="&#x15f;" horiz-adv-x="446" 
d="M154 -88l47 84q-67 3 -114 28l-18 -17l-11 11v102h28q25 -94 123 -94q56 0 89 23.5t33 67.5q0 37 -27 53q-27 18 -94 34l-38 10q-47 13 -67 27q-52 42 -47 96q0 126 160 126q73 0 123 -32l17 17l11 -11v-100h-28q-23 96 -113 96q-47 0 -76.5 -23.5t-29.5 -62.5
q0 -35 23 -50q24 -13 84 -30l48 -14q21 -7 42 -17q29 -14 40 -26q35 -33 35 -86q0 -122 -165 -128l-22 -41q78 0 78 -44q0 -34 -89 -123l-12 13q50 53 50 81q0 30 -80 30z" />
    <glyph glyph-name="Scaron" unicode="&#x160;" 
d="M78 13l-12 12l-12 136h27q32 -136 194 -136q83 0 131.5 39t48.5 112q0 62 -39 90q-37 27 -140 58l-47 14l-41 15q-26 10 -41 19q-46 32 -60 56q-22 46 -22 94q0 87 54 135.5t163 48.5q93 0 166 -44l25 23l12 -12l12 -134h-28q-28 136 -174 136q-75 0 -118.5 -38
t-43.5 -105q0 -58 35 -84q33 -24 125 -52l50 -16q16 -4 46 -17q30 -11 45 -21q50 -33 65 -60q24 -44 24 -98q0 -90 -59.5 -140t-178.5 -50q-101 0 -180 44zM425 893l-138 -129h-9l-138 129l18 18l124 -80l125 80z" />
    <glyph glyph-name="scaron" unicode="&#x161;" horiz-adv-x="446" 
d="M69 7l-11 11v102h28q25 -94 123 -94q56 0 89 23.5t33 67.5q0 37 -27 53q-27 18 -94 34l-38 10q-47 13 -67 27q-52 42 -47 96q0 126 160 126q73 0 123 -32l17 17l11 -11v-100h-28q-23 96 -113 96q-47 0 -76.5 -23.5t-29.5 -62.5q0 -35 23 -50q24 -13 84 -30l48 -14
q21 -7 42 -17q29 -14 40 -26q35 -33 35 -86q0 -128 -179 -128q-73 0 -128 28zM361 653l-138 -129h-9l-138 129l18 18l125 -80l124 80z" />
    <glyph glyph-name="Tcommaaccent" unicode="&#x162;" horiz-adv-x="673" 
d="M602 577l-35 93h-192v-629l65 -18v-23h-206v24l65 24v622h-192l-35 -95h-27l11 125h562l11 -123h-27zM311 -250l-13 13q16 15 28 38.5t12 37.5q0 2 -2 8q-18 0 -31 12.5t-13 30.5t12.5 30.5t31.5 12.5q45 0 45 -54q0 -59 -70 -129z" />
    <glyph glyph-name="tcommaaccent" unicode="&#x163;" horiz-adv-x="387" 
d="M105 430h-60v18q81 29 121 120l12 -12v-96h147v-30h-147v-302q0 -46 23 -71.5t64 -25.5q43 0 67 24l17 -17q-41 -42 -112 -42q-61 0 -96.5 35.5t-35.5 96.5v302zM190 -250l-12 13q16 16 28 39t12 37q0 5 -3 8q-18 0 -31 12.5t-13 30.5t13 30.5t32 12.5q44 0 44 -54
q0 -62 -70 -129z" />
    <glyph glyph-name="Tcaron" unicode="&#x164;" horiz-adv-x="673" 
d="M602 577l-35 93h-192v-629l65 -18v-23h-206v24l65 24v622h-192l-35 -95h-27l11 125h562l11 -123h-27zM479 893l-138 -129h-10l-138 129l18 18l125 -80l125 80z" />
    <glyph glyph-name="tcaron" unicode="&#x165;" horiz-adv-x="387" 
d="M105 430h-60v18q81 29 121 120l12 -12v-96h147v-30h-147v-302q0 -46 23 -71.5t64 -25.5q43 0 67 24l17 -17q-41 -42 -112 -42q-61 0 -96.5 35.5t-35.5 96.5v302zM275 571l-13 13q15 15 27.5 39t12.5 37q0 3 -2 9q-18 0 -31 12t-13 30t12.5 30.5t31.5 12.5q44 0 44 -54
q0 -60 -69 -129z" />
    <glyph glyph-name="Tbar" unicode="&#x166;" horiz-adv-x="673" 
d="M299 334h-112v31h112v305h-192l-35 -95h-27l11 125h562l11 -123h-27l-35 93h-192v-305h112v-31h-112v-293l65 -18v-23h-206v24l65 24v286z" />
    <glyph glyph-name="tbar" unicode="&#x167;" horiz-adv-x="387" 
d="M105 270h-60v18l60 12v130h-60v18q81 29 121 120l12 -12v-96h147v-30h-147v-130h147v-30h-147v-142q0 -46 23 -71.5t64 -25.5q43 0 67 24l17 -17q-41 -42 -112 -42q-61 0 -96.5 35.5t-35.5 96.5v142z" />
    <glyph glyph-name="Utilde" unicode="&#x168;" horiz-adv-x="757" 
d="M713 683l-65 -20v-408q0 -119 -75 -189q-73 -70 -195 -70t-195 70t-73 189v403l-65 19v23h206v-23l-65 -20v-402q0 -102 59 -160.5t158 -58.5q98 0 157.5 58.5t59.5 160.5v409l-65 19v17h158v-17zM248 780l-18 17q42 41 66.5 58t46.5 17t53 -23q32 -23 55 -23q33 0 80 45
l17 -17q-75 -77 -117 -77q-20 0 -52 23q-30 24 -55 24q-32 0 -76 -44z" />
    <glyph glyph-name="utilde" unicode="&#x169;" horiz-adv-x="611" 
d="M506 454v-402l54 -19v-26l-116 -13l-12 12l2 53l-3 3q-32 -31 -87 -49q-56 -17 -101 -17q-67 0 -102.5 37.5t-35.5 101.5v272l-54 14v27l115 18l12 -12v-316q0 -49 26.5 -77.5t74.5 -28.5q38 0 82 17.5t71 46.5v311l-54 14v27l115 18zM161 540l-17 17q75 75 112 75
q22 0 53 -23q32 -23 55 -23q35 0 80 45l18 -17q-77 -77 -117 -77q-21 0 -53 23q-30 24 -55 24q-29 0 -76 -44z" />
    <glyph glyph-name="Umacron" unicode="&#x16a;" horiz-adv-x="757" 
d="M713 683l-65 -20v-408q0 -119 -75 -189q-73 -70 -195 -70t-195 70t-73 189v403l-65 19v23h206v-23l-65 -20v-402q0 -102 59 -160.5t158 -58.5q98 0 157.5 58.5t59.5 160.5v409l-65 19v17h158v-17zM502 804h-238v36h238v-36z" />
    <glyph glyph-name="umacron" unicode="&#x16b;" horiz-adv-x="611" 
d="M506 454v-402l54 -19v-26l-116 -13l-12 12l2 53l-3 3q-32 -31 -87 -49q-56 -17 -101 -17q-67 0 -102.5 37.5t-35.5 101.5v272l-54 14v27l115 18l12 -12v-316q0 -49 26.5 -77.5t74.5 -28.5q38 0 82 17.5t71 46.5v311l-54 14v27l115 18zM420 564h-238v36h238v-36z" />
    <glyph glyph-name="Ubreve" unicode="&#x16c;" horiz-adv-x="757" 
d="M713 683l-65 -20v-408q0 -119 -75 -189q-73 -70 -195 -70t-195 70t-73 189v403l-65 19v23h206v-23l-65 -20v-402q0 -102 59 -160.5t158 -58.5q98 0 157.5 58.5t59.5 160.5v409l-65 19v17h158v-17zM454 868q0 15 10.5 25.5t26.5 10.5q15 0 25.5 -11t10.5 -29
q0 -40 -45 -65q-43 -25 -99 -25q-55 0 -99 25q-44 26 -44 65q0 26 18 35.5t36.5 -0.5t18.5 -31q0 -65 70 -65q71 0 71 65z" />
    <glyph glyph-name="ubreve" unicode="&#x16d;" horiz-adv-x="611" 
d="M506 454v-402l54 -19v-26l-116 -13l-12 12l2 53l-3 3q-32 -31 -87 -49q-56 -17 -101 -17q-67 0 -102.5 37.5t-35.5 101.5v272l-54 14v27l115 18l12 -12v-316q0 -49 26.5 -77.5t74.5 -28.5q38 0 82 17.5t71 46.5v311l-54 14v27l115 18zM371 628q0 15 10.5 25.5t26.5 10.5
q15 0 25.5 -11t10.5 -29q0 -40 -45 -65q-43 -25 -99 -25t-100 25q-44 26 -44 65q0 19 10 29.5t26 10.5t26.5 -10.5t10.5 -25.5q0 -65 71 -65t71 65z" />
    <glyph glyph-name="Uring" unicode="&#x16e;" horiz-adv-x="757" 
d="M713 683l-65 -20v-408q0 -119 -75 -189q-73 -70 -195 -70t-195 70t-73 189v403l-65 19v23h206v-23l-65 -20v-402q0 -102 59 -160.5t158 -58.5q98 0 157.5 58.5t59.5 160.5v409l-65 19v17h158v-17zM305 825q0 36 23 58t59 22q37 0 60 -22t23 -58q0 -37 -23 -59t-60 -22
q-36 0 -59 22.5t-23 58.5zM351 868q-13 -16 -13 -43t13 -43q14 -16 36 -16t35 16q14 16 14 43t-14 43q-13 16 -35 16t-36 -16z" />
    <glyph glyph-name="uring" unicode="&#x16f;" horiz-adv-x="611" 
d="M506 454v-402l54 -19v-26l-116 -13l-12 12l2 53l-3 3q-32 -31 -87 -49q-56 -17 -101 -17q-67 0 -102.5 37.5t-35.5 101.5v272l-54 14v27l115 18l12 -12v-316q0 -49 26.5 -77.5t74.5 -28.5q38 0 82 17.5t71 46.5v311l-54 14v27l115 18zM222 585q0 36 23 58t59 22
q37 0 60 -22t23 -58q0 -37 -23 -59t-60 -22q-36 0 -59 22.5t-23 58.5zM268 628q-13 -16 -13 -43t13 -43q14 -16 36 -16t35 16q14 16 14 43t-14 43q-13 16 -35 16t-36 -16z" />
    <glyph glyph-name="Uhungarumlaut" unicode="&#x170;" horiz-adv-x="757" 
d="M713 683l-65 -20v-408q0 -119 -75 -189q-73 -70 -195 -70t-195 70t-73 189v403l-65 19v23h206v-23l-65 -20v-402q0 -102 59 -160.5t158 -58.5q98 0 157.5 58.5t59.5 160.5v409l-65 19v17h158v-17zM235 764l-18 19l136 128l46 -46zM405 764l-18 19l136 128l46 -46z" />
    <glyph glyph-name="uhungarumlaut" unicode="&#x171;" horiz-adv-x="611" 
d="M506 454v-402l54 -19v-26l-116 -13l-12 12l2 53l-3 3q-32 -31 -87 -49q-56 -17 -101 -17q-67 0 -102.5 37.5t-35.5 101.5v272l-54 14v27l115 18l12 -12v-316q0 -49 26.5 -77.5t74.5 -28.5q38 0 82 17.5t71 46.5v311l-54 14v27l115 18zM155 524l-18 19l136 128l46 -46z
M325 524l-18 19l136 128l46 -46z" />
    <glyph glyph-name="Uogonek" unicode="&#x172;" horiz-adv-x="757" 
d="M474 -157l10 -11q-44 -44 -91 -44q-61 0 -61 62q0 71 67 147q-5 -1 -21 -1q-122 0 -195 70t-73 189v403l-65 19v23h206v-23l-65 -20v-402q0 -102 59 -160.5t158 -58.5q98 0 157.5 58.5t59.5 160.5v409l-65 19v17h158v-17l-65 -20v-408q0 -107 -60 -174q-58 -67 -160 -81
q-51 -70 -51 -138q0 -42 37 -42t60 23z" />
    <glyph glyph-name="uogonek" unicode="&#x173;" horiz-adv-x="611" 
d="M552 -155l10 -10q-44 -44 -91 -44q-61 0 -61 62q0 65 65 145l-31 -4l-12 12l2 53l-3 3q-32 -31 -87 -49q-56 -17 -101 -17q-67 0 -102.5 37.5t-35.5 101.5v272l-54 14v27l115 18l12 -12v-316q0 -49 26.5 -77.5t74.5 -28.5q38 0 82 17.5t71 46.5v311l-54 14v27l115 18
l13 -12v-402l54 -19v-26l-55 -6q-51 -70 -51 -136q0 -43 38 -43q34 0 60 23z" />
    <glyph glyph-name="Wcircumflex" unicode="&#x174;" horiz-adv-x="1172" 
d="M822 0h-38l-199 487l-195 -487h-38l-272 658l-65 19v23h207v-23l-65 -19l237 -577l175 444l-58 133l-64 19v23h207v-23l-65 -19l237 -577l236 577l-84 19v23h178v-23l-61 -19zM445 783l138 128h10l138 -128l-18 -19l-125 80l-125 -80z" />
    <glyph glyph-name="wcircumflex" unicode="&#x175;" horiz-adv-x="844" 
d="M590 0h-35l-129 304l-131 -304h-36l-181 420l-59 17v23h189v-23l-56 -17l144 -343l114 264l-32 79l-59 17v23h189v-23l-56 -17l140 -343l143 343l-78 17v23h168v-23l-56 -17zM283 543l138 128h10l138 -128l-18 -19l-125 80l-124 -80z" />
    <glyph glyph-name="Ycircumflex" unicode="&#x176;" horiz-adv-x="702" 
d="M227 677l-62 -17l208 -330l214 330l-78 17v23h178v-23l-64 -17l-237 -363v-256l65 -18v-23h-206v24l65 24v248l-231 364l-64 17v23h212v-23zM209 783l138 128h9l138 -128l-18 -19l-124 80l-125 -80z" />
    <glyph glyph-name="ycircumflex" unicode="&#x177;" horiz-adv-x="580" 
d="M273 -2l-195 422l-59 17v23h191v-23l-56 -17l158 -339l157 339l-78 17v23h170v-23l-56 -17l-196 -420q-73 -156 -105 -205q-32 -48 -75 -48q-31 0 -52 17t-21 46q0 43 39 43q18 0 29.5 -10t11.5 -26v-31q4 -3 11 -3q19 0 45 44q26 43 81 171zM151 543l138 128h10
l138 -128l-18 -19l-125 80l-124 -80z" />
    <glyph glyph-name="Ydieresis" unicode="&#x178;" horiz-adv-x="702" 
d="M227 677l-62 -17l208 -330l214 330l-78 17v23h178v-23l-64 -17l-237 -363v-256l65 -18v-23h-206v24l65 24v248l-231 364l-64 17v23h212v-23zM207 790q-14 14 -14 34t14 34t34 14t34 -14t14 -34t-14 -34t-34 -14t-34 14zM425 790q-14 14 -14 34t14 34t34 14t34 -14t14 -34
t-14 -34t-34 -14t-34 14z" />
    <glyph glyph-name="Zacute" unicode="&#x179;" horiz-adv-x="641" 
d="M579 0h-518v25l429 645h-361l-35 -95h-27l11 125h497v-25l-429 -645h381l35 103h28zM264 764l-18 19l143 128l46 -46z" />
    <glyph glyph-name="zacute" unicode="&#x17a;" horiz-adv-x="501" 
d="M440 0h-379v25l294 405h-234l-23 -83h-28v113h366v-25l-294 -405h247l23 83h28v-113zM194 524l-18 19l143 128l46 -46z" />
    <glyph glyph-name="Zdotaccent" unicode="&#x17b;" horiz-adv-x="641" 
d="M579 0h-518v25l429 645h-361l-35 -95h-27l11 125h497v-25l-429 -645h381l35 103h28zM270 848q0 21 14.5 35t35.5 14q22 0 36 -14t14 -35q0 -22 -14 -36.5t-36 -14.5q-21 0 -35.5 14.5t-14.5 36.5z" />
    <glyph glyph-name="zdotaccent" unicode="&#x17c;" horiz-adv-x="501" 
d="M440 0h-379v25l294 405h-234l-23 -83h-28v113h366v-25l-294 -405h247l23 83h28v-113zM200 608q0 21 14.5 35t35.5 14q22 0 36 -14t14 -35q0 -22 -14 -36.5t-36 -14.5q-21 0 -35.5 14.5t-14.5 36.5z" />
    <glyph glyph-name="Zcaron" unicode="&#x17d;" horiz-adv-x="641" 
d="M579 0h-518v25l429 645h-361l-35 -95h-27l11 125h497v-25l-429 -645h381l35 103h28zM463 893l-138 -129h-9l-139 129l19 18l124 -80l125 80z" />
    <glyph glyph-name="zcaron" unicode="&#x17e;" horiz-adv-x="501" 
d="M440 0h-379v25l294 405h-234l-23 -83h-28v113h366v-25l-294 -405h247l23 83h28v-113zM393 653l-138 -129h-9l-139 129l19 18l124 -80l125 80z" />
    <glyph glyph-name="longs" unicode="&#x17f;" horiz-adv-x="436" 
d="M45 454l60 11v130q0 73 43.5 116t117.5 43q61 0 99 -29t38 -70q0 -42 -36 -42q-16 0 -26.5 10.5t-10.5 26.5v57q-22 18 -60 18q-43 0 -67.5 -34t-24.5 -95v-552l92 -21v-23h-225v24l60 22v384h-60v24z" />
    <glyph glyph-name="uni018F" unicode="&#x18f;" horiz-adv-x="750" 
d="M110 584l-19 19q100 103 259 103q156 0 248 -96q92 -95 92 -258q0 -164 -93 -261q-91 -97 -243 -97q-134 0 -213 72q-80 72 -80 175q0 26 5 51l19 17h522q5 70 -8.5 132.5t-45 114.5t-89 82.5t-134.5 30.5q-138 0 -220 -85zM348 27q98 0 170 66q73 67 86 186l-470 -16
q0 -99 55 -167q55 -69 159 -69z" />
    <glyph glyph-name="florin" unicode="&#x192;" horiz-adv-x="406" 
d="M67 0l91 430h-75l6 24l77 11l28 130q15 73 68 116t127 43q60 0 92.5 -28.5t23.5 -70.5q-7 -42 -45 -42q-16 0 -24.5 10.5t-4.5 26.5l12 57q-19 18 -57 18q-42 0 -73.5 -34.5t-44.5 -94.5l-29 -136h173l-7 -30h-173l-91 -430q-24 -114 -81 -185q-55 -70 -130 -70
q-35 0 -49.5 14.5t-8.5 36.5q6 34 39 41q28 6 40 -14q5 -10 2 -23l-5 -24q72 0 119 224z" />
    <glyph glyph-name="uni01DD" unicode="&#x1dd;" horiz-adv-x="538" 
d="M63 208l13 12h331q-1 208 -175 208q-90 0 -136 -46l-20 20q62 62 174 62q107 0 170 -64q63 -65 63 -172q0 -109 -63 -170q-62 -62 -160 -62q-90 0 -146 51q-54 51 -54 127q0 20 3 34zM254 26q59 0 102 49q44 50 50 117l-279 -7q0 -70 35 -114.5t92 -44.5z" />
    <glyph glyph-name="Aringacute" unicode="&#x1fa;" horiz-adv-x="765" 
d="M300 774q0 36 23 58t59 22q37 0 60 -22t23 -58q0 -32 -17 -53t-46 -26l284 -654l64 -18v-23h-203v23l61 18l-85 197h-328l-85 -197l83 -18v-23h-178v23l62 18l283 654q-27 6 -43.5 27.5t-16.5 51.5zM509 269l-150 350l-152 -350h302zM346 817q-13 -16 -13 -43t13 -43
q14 -16 36 -16t35 16q14 16 14 43t-14 43q-13 16 -35 16t-36 -16zM304 834l-18 18l143 128l46 -46z" />
    <glyph glyph-name="aringacute" unicode="&#x1fb;" horiz-adv-x="523" 
d="M346 50l-3 3q-31 -25 -78 -41.5t-93 -16.5q-116 0 -116 107q0 66 54 93t230 66q2 1 5 1v84q0 39 -28.5 63.5t-75.5 24.5q-57 0 -98 -31v-50q0 -21 -18.5 -31t-36.5 -0.5t-18 35.5q0 46 51 76q52 31 127 31q77 0 123.5 -33t46.5 -87v-288q0 -26 23 -26q19 0 29 12l11 -11
q-34 -34 -86 -34q-46 0 -49 53zM345 84v146q-132 -29 -169 -47q-48 -25 -48 -76q0 -77 82 -77q78 0 135 54zM164 565q0 36 23 58t59 22q37 0 60 -22t23 -58q0 -37 -23 -59t-60 -22q-36 0 -59 22.5t-23 58.5zM246 506q22 0 35.5 16t13.5 43t-13.5 43t-35.5 16q-21 0 -35 -16
t-14 -43t14 -43t35 -16zM171 636l-18 18l142 128l46 -46z" />
    <glyph glyph-name="AEacute" unicode="&#x1fc;" horiz-adv-x="841" 
d="M399 20l65 15l-37 203h-232l-85 -197l83 -18v-23h-178v23l62 18l285 659h398l11 -123h-28l-34 93h-289l54 -295h171l17 68h25v-167h-25l-17 68h-166l57 -314h184l34 93h28l-11 -123h-372v20zM422 269l-63 350l-152 -350h215zM391 764l-18 19l143 128l46 -46z" />
    <glyph glyph-name="aeacute" unicode="&#x1fd;" horiz-adv-x="766" 
d="M343 53q-31 -25 -78 -41.5t-93 -16.5q-116 0 -116 107q0 67 54.5 94t227.5 65q3 1 6 1v84q0 38 -28.5 63t-74.5 25q-57 0 -98 -31v-50q0 -21 -18.5 -31t-36.5 -0.5t-18 35.5q0 46 51 76q52 31 127 31q82 0 125 -40q55 40 134 40q89 0 144 -50q55 -49 55 -124
q0 -20 -3 -33l-13 -12l-276 -10v-161q44 -42 122 -42q95 0 140 46l20 -20q-60 -62 -177 -62q-113 0 -176 57zM345 84v146q-132 -29 -169 -47q-48 -25 -48 -76q0 -77 82 -77q78 0 135 54zM414 344v-80l225 16q0 67 -35 110.5t-92 43.5q-63 0 -106 -52q8 -21 8 -38zM327 524
l-18 19l142 128l46 -46z" />
    <glyph glyph-name="Oslashacute" unicode="&#x1fe;" horiz-adv-x="788" 
d="M169 75l-67 -75h-41l86 96q-86 95 -86 254q0 162 92 259q91 97 241 97q135 0 225 -81l67 75h41l-86 -97q86 -98 86 -253q0 -162 -92 -260q-91 -96 -241 -96q-136 0 -225 81zM646 349q0 121 -48 206l-391 -438q68 -92 187 -92q113 0 182 86q70 86 70 238zM142 349
q0 -123 47 -205l391 438q-70 93 -186 93q-112 0 -183 -87q-69 -87 -69 -239zM338 764l-19 19l143 128l46 -46z" />
    <glyph glyph-name="oslashacute" unicode="&#x1ff;" horiz-adv-x="569" 
d="M134 44l-40 -44h-39l58 64q-58 62 -58 166q0 108 63 171t166 63q91 0 150 -49l41 45h39l-59 -65q59 -65 59 -165q0 -108 -64 -171q-63 -63 -166 -63q-90 0 -150 48zM131 230q0 -73 24 -121l243 266q-42 59 -114 59q-70 0 -111.5 -54.5t-41.5 -149.5zM437 230
q0 70 -24 119l-242 -265q42 -57 113 -57q70 0 111.5 54.5t41.5 148.5zM227 524l-18 19l143 128l46 -46z" />
    <glyph glyph-name="Scommaaccent" unicode="&#x218;" 
d="M78 13l-12 12l-12 136h27q32 -136 194 -136q83 0 131.5 39t48.5 112q0 62 -39 90q-37 27 -140 58l-47 14l-41 15q-26 10 -41 19q-46 32 -60 56q-22 46 -22 94q0 87 54 135.5t163 48.5q93 0 166 -44l25 23l12 -12l12 -134h-28q-28 136 -174 136q-75 0 -118.5 -38
t-43.5 -105q0 -58 35 -84q33 -24 125 -52l50 -16q16 -4 46 -17q30 -11 45 -21q50 -33 65 -60q24 -44 24 -98q0 -90 -59.5 -140t-178.5 -50q-101 0 -180 44zM258 -250l-12 13q16 16 28 39t12 37q0 5 -3 8q-18 0 -31 12.5t-13 30.5t13 30.5t32 12.5q44 0 44 -54
q0 -62 -70 -129z" />
    <glyph glyph-name="scommaaccent" unicode="&#x219;" horiz-adv-x="446" 
d="M69 7l-11 11v102h28q25 -94 123 -94q56 0 89 23.5t33 67.5q0 37 -27 53q-27 18 -94 34l-38 10q-47 13 -67 27q-52 42 -47 96q0 126 160 126q73 0 123 -32l17 17l11 -11v-100h-28q-23 96 -113 96q-47 0 -76.5 -23.5t-29.5 -62.5q0 -35 23 -50q24 -13 84 -30l48 -14
q21 -7 42 -17q29 -14 40 -26q35 -33 35 -86q0 -128 -179 -128q-73 0 -128 28zM189 -250l-12 13q16 15 28 38.5t12 37.5q0 5 -3 8q-18 0 -30.5 12.5t-12.5 30.5t12.5 30.5t31.5 12.5q44 0 44 -54q0 -62 -70 -129z" />
    <glyph glyph-name="uni021A" unicode="&#x21a;" horiz-adv-x="673" 
d="M602 577l-35 93h-192v-629l65 -18v-23h-206v24l65 24v622h-192l-35 -95h-27l11 125h562l11 -123h-27zM311 -250l-13 13q16 15 28 38.5t12 37.5q0 2 -2 8q-18 0 -31 12.5t-13 30.5t12.5 30.5t31.5 12.5q45 0 45 -54q0 -59 -70 -129z" />
    <glyph glyph-name="uni021B" unicode="&#x21b;" horiz-adv-x="387" 
d="M105 430h-60v18q81 29 121 120l12 -12v-96h147v-30h-147v-302q0 -46 23 -71.5t64 -25.5q43 0 67 24l17 -17q-41 -42 -112 -42q-61 0 -96.5 35.5t-35.5 96.5v302zM190 -250l-12 13q16 16 28 39t12 37q0 5 -3 8q-18 0 -31 12.5t-13 30.5t13 30.5t32 12.5q44 0 44 -54
q0 -62 -70 -129z" />
    <glyph glyph-name="dotlessj" unicode="&#x237;" horiz-adv-x="283" 
d="M105 0v407l-54 14v27l115 18l12 -12v-454q0 -79 -36 -147t-101 -109l-20 20q40 37 62 101t22 135z" />
    <glyph glyph-name="circumflex" unicode="&#x2c6;" horiz-adv-x="379" 
d="M47 543l138 128h9l139 -128l-19 -19l-124 80l-125 -80z" />
    <glyph glyph-name="caron" unicode="&#x2c7;" horiz-adv-x="379" 
d="M333 653l-139 -129h-9l-138 129l18 18l125 -80l124 80z" />
    <glyph glyph-name="breve" unicode="&#x2d8;" horiz-adv-x="421" 
d="M280 628q0 15 10.5 25.5t26.5 10.5q15 0 25.5 -11t10.5 -29q0 -40 -45 -65q-43 -25 -98 -25q-56 0 -100 25q-44 26 -44 65q0 19 10 29.5t26 10.5t26.5 -10.5t10.5 -25.5q0 -65 71 -65q70 0 70 65z" />
    <glyph glyph-name="dotaccent" unicode="&#x2d9;" horiz-adv-x="267" 
d="M83 608q0 21 14.5 35t35.5 14q22 0 36 -14t14 -35q0 -22 -14 -36.5t-36 -14.5q-21 0 -35.5 14.5t-14.5 36.5z" />
    <glyph glyph-name="ring" unicode="&#x2da;" horiz-adv-x="249" 
d="M42 585q0 36 23 58t59 22q37 0 60 -22t23 -58q0 -37 -23 -59t-60 -22q-36 0 -59 22.5t-23 58.5zM88 628q-13 -16 -13 -43t13 -43q14 -16 36 -16t35 16t13 43t-13 43t-35 16t-36 -16z" />
    <glyph glyph-name="ogonek" unicode="&#x2db;" horiz-adv-x="189" 
d="M154 -157l10 -11q-44 -44 -91 -44q-61 0 -61 62q0 71 70 150h27q-52 -70 -52 -138q0 -42 37 -42t60 23z" />
    <glyph glyph-name="tilde" unicode="&#x2dc;" horiz-adv-x="405" 
d="M63 540l-18 17q76 75 112 75q22 0 54 -23t55 -23q34 0 80 45l17 -17q-75 -77 -117 -77q-20 0 -52 23q-30 24 -55 24q-32 0 -76 -44z" />
    <glyph glyph-name="hungarumlaut" unicode="&#x2dd;" horiz-adv-x="445" 
d="M65 524l-18 19l136 128l46 -46zM235 524l-18 19l136 128l46 -46z" />
    <glyph glyph-name="uni0400" unicode="&#x400;" horiz-adv-x="630" 
d="M186 344v-314h322l35 93h28l-11 -123h-515v20l65 15v630l-65 15v20h505l11 -123h-28l-35 93h-312v-295h249l17 68h25v-167h-25l-17 68h-249zM200 865l46 46l143 -128l-18 -19z" />
    <glyph glyph-name="afii10023" unicode="&#x401;" horiz-adv-x="630" 
d="M186 344v-314h322l35 93h28l-11 -123h-515v20l65 15v630l-65 15v20h505l11 -123h-28l-35 93h-312v-295h249l17 68h25v-167h-25l-17 68h-249zM172 767q-14 14 -14 34t14 34t34 14t33 -14q14 -14 14 -34t-14 -34q-13 -14 -33 -14t-34 14zM390 767q-14 14 -14 34t14 34
t34 14t34 -14t14 -34t-14 -34t-34 -14t-34 14z" />
    <glyph glyph-name="afii10051" unicode="&#x402;" horiz-adv-x="783" 
d="M654 84v158q0 66 -29 100.5t-82 34.5q-40 0 -88 -16q-50 -17 -80 -46v-274l65 -18v-23h-206v24l65 24v622h-192l-35 -95h-27l11 125h562l11 -123h-27l-35 93h-192v-268l-2 -50l3 -3q37 31 96 47q62 17 108 17q74 0 112 -44.5t38 -124.5v-160q0 -115 -42 -183t-116 -68
q-35 0 -53 14t-18 37q0 20 11.5 31.5t29.5 11.5q16 0 27.5 -11t11.5 -28v-24q73 0 73 220z" />
    <glyph glyph-name="afii10052" unicode="&#x403;" horiz-adv-x="582" 
d="M472 670h-286v-624l95 -23v-23h-236v24l65 24v617l-65 15v20h478l12 -123h-28zM239 764l-18 19l143 128l46 -46z" />
    <glyph glyph-name="afii10053" unicode="&#x404;" horiz-adv-x="723" 
d="M641 116l19 -19q-100 -103 -260 -103q-155 0 -247 95q-92 97 -92 260t92 260q93 97 248 97q120 0 206 -56l26 17l12 -12l12 -127h-27q-25 93 -100 120q-59 25 -121 25q-124 0 -192 -78.5t-75 -223.5h364v-31h-364q1 -142 73 -226q72 -83 204 -83q138 0 222 85z" />
    <glyph glyph-name="afii10054" unicode="&#x405;" 
d="M78 13l-12 12l-12 136h27q32 -136 194 -136q83 0 131.5 39t48.5 112q0 62 -39 90q-37 27 -140 58l-47 14l-41 15q-26 10 -41 19q-46 32 -60 56q-22 46 -22 94q0 87 54 135.5t163 48.5q93 0 166 -44l25 23l12 -12l12 -134h-28q-28 136 -174 136q-75 0 -118.5 -38
t-43.5 -105q0 -58 35 -84q33 -24 125 -52l50 -16q16 -4 46 -17q30 -11 45 -21q50 -33 65 -60q24 -44 24 -98q0 -90 -59.5 -140t-178.5 -50q-101 0 -180 44z" />
    <glyph glyph-name="afii10055" unicode="&#x406;" horiz-adv-x="295" 
d="M250 677l-65 -20v-616l65 -18v-23h-205v24l65 24v610l-65 19v23h205v-23z" />
    <glyph glyph-name="afii10056" unicode="&#x407;" horiz-adv-x="295" 
d="M250 677l-65 -20v-616l65 -18v-23h-205v24l65 24v610l-65 19v23h205v-23zM25 790q-14 14 -14 34t14 34t34 14t34 -14t14 -34t-14 -34t-34 -14t-34 14zM203 790q-14 14 -14 34t14 34t34 14t33 -14q14 -14 14 -34t-14 -34q-13 -14 -33 -14t-34 14z" />
    <glyph glyph-name="afii10057" unicode="&#x408;" horiz-adv-x="295" 
d="M110 0v658l-65 19v23h205v-23l-65 -20v-657q0 -79 -36.5 -147t-102.5 -109l-20 20q40 37 62 101t22 135z" />
    <glyph glyph-name="afii10058" unicode="&#x409;" horiz-adv-x="1068" 
d="M184 141l66 524l-65 15v20h505v-20l-65 -17v-275h139q109 0 176 -52q68 -53 68 -141q0 -90 -68 -143q-67 -52 -176 -52h-280v20l65 15v635h-265l-67 -527q-17 -147 -97 -147q-32 0 -55 17t-23 46q-4 33 29 42q30 7 47 -12q9 -10 7 -24v-30q4 -2 9 -2q8 -2 16 7t17.5 35
t16.5 66zM625 358v-328h126q79 0 127 44t48 121q0 76 -48 119.5t-127 43.5h-126z" />
    <glyph glyph-name="afii10059" unicode="&#x40a;" horiz-adv-x="1085" 
d="M45 0v24l65 24v610l-65 19v23h206v-23l-65 -20v-277h380v278l-65 19v23h206v-23l-65 -20v-277h138q110 0 177 -51t67 -139t-67 -139t-177 -51h-279v20l65 15v314h-380v-308l65 -18v-23h-206zM642 349v-319h126q79 0 127 42.5t48 117.5q0 74 -47.5 116.5t-127.5 42.5h-126
z" />
    <glyph glyph-name="afii10060" unicode="&#x40b;" horiz-adv-x="841" 
d="M375 315v-274l65 -18v-23h-206v24l65 24v622h-192l-35 -95h-27l11 125h562l11 -123h-27l-35 93h-192v-268l-2 -50l3 -3q37 31 96 47q62 17 108 17q73 0 111.5 -43.5t38.5 -118.5v-210l65 -18v-23h-209v24l68 24v197q0 62 -30 97t-83 35q-38 0 -86 -16q-50 -17 -80 -46z
" />
    <glyph glyph-name="afii10061" unicode="&#x40c;" horiz-adv-x="692" 
d="M656 51l10 -12q-23 -24 -43.5 -34.5t-52.5 -10.5q-46 0 -72 25t-44 90l-35 130q-15 59 -61 84t-131 25h-45v-307l65 -18v-23h-206v24l65 24v610l-65 19v23h206v-23l-65 -20v-281q86 0 126 26q38 27 58 84l34 104q39 116 127 116q38 0 60 -17.5t22 -47.5q0 -46 -42 -46
q-19 0 -31 11t-12 31v29q-5 3 -11 3q-54 0 -84 -93l-32 -98q-27 -83 -82 -108q85 -8 126 -36q42 -29 58 -93l34 -130q12 -45 28.5 -62t43.5 -17q32 0 51 19zM292 764l-18 19l142 128l46 -46z" />
    <glyph glyph-name="uni040D" unicode="&#x40d;" horiz-adv-x="764" 
d="M267 865l46 46l143 -128l-18 -19zM45 0v24l65 24v610l-65 19v23h206v-23l-65 -20v-539l392 520v20l-65 19v23h206v-23l-65 -20v-616l65 -18v-23h-206v24l65 24v534l-392 -521v-20l65 -18v-23h-206z" />
    <glyph glyph-name="afii10062" unicode="&#x40e;" horiz-adv-x="715" 
d="M430 801v44q0 15 11 25.5t27 10.5q15 0 25 -11t10 -29q0 -39 -44 -65q-43 -25 -99 -25t-100 25q-44 26 -44 65q0 18 10.5 29t25.5 11q16 0 26.5 -10.5t10.5 -25.5v-44q25 -21 71 -21q44 0 70 21zM342 211l-255 449l-64 17v23h204v-23l-61 -17l215 -381l214 381l-83 17v23
h180v-23l-61 -17l-237 -420q-83 -148 -125 -199q-38 -47 -85 -47q-35 0 -59.5 18t-24.5 49q0 45 43 45q21 0 32.5 -11.5t11.5 -29.5v-35q6 -3 11 -3q21 0 54.5 42.5t89.5 141.5z" />
    <glyph glyph-name="afii10145" unicode="&#x40f;" horiz-adv-x="751" 
d="M361 -136l-12 136h-304v20l65 15v623l-65 19v23h206v-23l-65 -20v-627h379v628l-65 19v23h206v-23l-65 -20v-622l65 -13v-22h-304l-12 -136h-29z" />
    <glyph glyph-name="afii10017" unicode="&#x410;" horiz-adv-x="765" 
d="M362 700h38l286 -659l64 -18v-23h-203v23l61 18l-85 197h-328l-85 -197l83 -18v-23h-178v23l62 18zM509 269l-150 350l-152 -350h302z" />
    <glyph glyph-name="afii10018" unicode="&#x411;" horiz-adv-x="652" 
d="M479 670h-293v-279h161q109 0 177 -53q67 -52 67 -142q0 -92 -67 -144t-177 -52h-302v20l65 15v630l-65 15v20h485l11 -123h-27zM186 360v-330h149q79 0 127 44.5t48 121.5t-47.5 120.5t-127.5 43.5h-149z" />
    <glyph glyph-name="afii10019" unicode="&#x412;" horiz-adv-x="655" 
d="M45 680v20h291q102 0 166 -47q63 -47 63 -128q0 -62 -36.5 -104.5t-102.5 -59.5q79 -17 124 -63.5t45 -112.5q0 -87 -72 -136q-70 -49 -187 -49h-291v20l65 15v630zM186 344v-314h137q86 0 138 42t52 115q0 74 -51.5 115.5t-138.5 41.5h-137zM323 670h-137v-295h137
q74 0 117.5 39t43.5 108t-44 108.5t-117 39.5z" />
    <glyph glyph-name="afii10020" unicode="&#x413;" horiz-adv-x="582" 
d="M472 670h-286v-624l95 -23v-23h-236v24l65 24v617l-65 15v20h478l12 -123h-28z" />
    <glyph glyph-name="afii10021" unicode="&#x414;" horiz-adv-x="758" 
d="M683 -136l-25 136h-563l-24 -136h-29v166h79q33 20 43 111l67 524l-65 15v20h532v-20l-65 -17v-633h79v-166h-29zM557 670h-287l-67 -527q-7 -79 -35 -113h389v640z" />
    <glyph glyph-name="afii10022" unicode="&#x415;" horiz-adv-x="630" 
d="M186 344v-314h322l35 93h28l-11 -123h-515v20l65 15v630l-65 15v20h505l11 -123h-28l-35 93h-312v-295h249l17 68h25v-167h-25l-17 68h-249z" />
    <glyph glyph-name="afii10024" unicode="&#x416;" horiz-adv-x="1050" 
d="M164 666v-29q0 -20 -12.5 -31t-31.5 -11q-20 0 -30.5 13t-10.5 33q0 29 22 47t58 18q41 0 68.5 -26.5t52.5 -89.5l40 -100q14 -35 31 -61q38 -53 136 -53v282l-65 19v23h206v-23l-65 -20v-281q54 0 87 16q35 17 48 37q17 23 32 61l40 100q27 64 53.5 90t67.5 26
q37 0 59 -18t22 -47q0 -20 -11 -33t-31 -13q-19 0 -31.5 11t-12.5 31v29q-5 3 -10 3q-40 0 -79 -93l-38 -94q-19 -47 -37 -71.5t-44 -39.5q88 -5 126 -30q40 -26 59 -90l43 -140q14 -47 27.5 -63t38.5 -16q29 0 48 19l10 -12q-22 -25 -41.5 -35t-50.5 -10q-42 0 -65 24
q-21 26 -42 91l-43 140q-20 59 -60 78q-40 21 -121 21h-44v-307l65 -18v-23h-206v24l65 24v300h-44q-81 0 -121.5 -21.5t-58.5 -77.5l-44 -140q-21 -68 -43 -91q-21 -24 -63 -24q-31 0 -50.5 10t-42.5 35l11 12q16 -19 47 -19q25 0 38.5 16t27.5 63l43 140q19 64 58 90
t127 30q-46 25 -80 111l-39 94q-39 93 -78 93q-7 0 -11 -3z" />
    <glyph glyph-name="afii10025" unicode="&#x417;" horiz-adv-x="627" 
d="M96 535h-28l12 128l13 12l26 -17q73 48 185 48q105 0 169 -49q64 -48 64 -131q0 -63 -37.5 -106t-102.5 -59q80 -17 124.5 -63t44.5 -114q0 -87 -73 -139q-72 -51 -188 -51q-115 0 -194 48l-27 -17l-12 12l-12 128h27q19 -83 89 -114q61 -24 117 -24q88 0 140 42.5
t52 118.5q0 75 -53 115.5t-150 40.5q-40 0 -94 -3v37q52 -3 94 -3q174 0 174 144q0 74 -43.5 114t-119.5 40q-57 0 -111 -25q-70 -32 -86 -113z" />
    <glyph glyph-name="afii10026" unicode="&#x418;" horiz-adv-x="764" 
d="M45 0v24l65 24v610l-65 19v23h206v-23l-65 -20v-539l392 520v20l-65 19v23h206v-23l-65 -20v-616l65 -18v-23h-206v24l65 24v534l-392 -521v-20l65 -18v-23h-206z" />
    <glyph glyph-name="afii10027" unicode="&#x419;" horiz-adv-x="764" 
d="M452 801v44q0 15 10.5 25.5t26.5 10.5q15 0 25.5 -11t10.5 -29q0 -40 -45 -65q-43 -25 -98 -25q-56 0 -100 25q-44 26 -44 65q0 18 10.5 29t25.5 11q16 0 26.5 -10.5t10.5 -25.5v-44q25 -21 71 -21q44 0 70 21zM45 0v24l65 24v610l-65 19v23h206v-23l-65 -20v-539
l392 520v20l-65 19v23h206v-23l-65 -20v-616l65 -18v-23h-206v24l65 24v534l-392 -521v-20l65 -18v-23h-206z" />
    <glyph glyph-name="afii10028" unicode="&#x41a;" horiz-adv-x="691" 
d="M656 51l10 -12q-23 -24 -43.5 -34.5t-52.5 -10.5q-46 0 -72 25t-44 90l-35 130q-15 59 -61 84t-131 25h-45v-307l65 -18v-23h-206v24l65 24v610l-65 19v23h206v-23l-65 -20v-281q86 0 126 26q38 27 58 84l34 104q39 116 127 116q38 0 60 -17.5t22 -47.5q0 -46 -42 -46
q-19 0 -31 11t-12 31v29q-5 3 -11 3q-54 0 -84 -93l-32 -98q-27 -83 -82 -108q85 -8 126 -36q42 -29 58 -93l34 -130q12 -45 28.5 -62t43.5 -17q32 0 51 19z" />
    <glyph glyph-name="afii10029" unicode="&#x41b;" horiz-adv-x="751" 
d="M184 141l66 524l-65 15v20h521v-20l-65 -17v-622l65 -18v-23h-206v24l65 24v622h-275l-67 -527q-17 -147 -103 -147q-32 0 -55 17t-23 46q-4 33 29 42q30 7 47 -12q9 -10 7 -24v-30q4 -2 9 -2q8 -2 16 7t17.5 35t16.5 66z" />
    <glyph glyph-name="afii10030" unicode="&#x41c;" horiz-adv-x="928" 
d="M853 677l-65 -20l47 -616l65 -18v-23h-206v24l65 24l-41 544l-256 -592h-38l-257 592l-44 -556l65 -19v-17h-160v18l65 24l48 616l-64 19v23h121l267 -619l267 619h121v-23z" />
    <glyph glyph-name="afii10031" unicode="&#x41d;" horiz-adv-x="776" 
d="M45 0v24l65 24v610l-65 19v23h206v-23l-65 -20v-287h404v288l-65 19v23h206v-23l-65 -20v-616l65 -18v-23h-206v24l65 24v291h-404v-298l65 -18v-23h-206z" />
    <glyph glyph-name="afii10032" unicode="&#x41e;" horiz-adv-x="788" 
d="M153 90q-92 98 -92 260t92 259q91 97 241 97t241 -97q92 -97 92 -259t-92 -260q-91 -96 -241 -96q-149 0 -241 96zM142 349q0 -151 69 -238q71 -86 183 -86q113 0 182 86q70 86 70 238q0 153 -70 239q-71 87 -182 87q-112 0 -183 -87q-69 -87 -69 -239z" />
    <glyph glyph-name="afii10033" unicode="&#x41f;" horiz-adv-x="748" 
d="M45 0v24l65 24v617l-65 15v20h658v-20l-65 -17v-622l65 -18v-23h-206v24l65 24v622h-376v-629l65 -18v-23h-206z" />
    <glyph glyph-name="afii10034" unicode="&#x420;" horiz-adv-x="621" 
d="M297 670h-111v-624l95 -23v-23h-236v24l65 24v617l-65 15v20h264q109 0 177 -54q67 -54 67 -147t-67 -147q-68 -53 -177 -53h-77l-12 13v18h77q80 0 127.5 45t47.5 124q0 80 -48 125.5t-127 45.5z" />
    <glyph glyph-name="afii10035" unicode="&#x421;" horiz-adv-x="723" 
d="M641 116l19 -19q-100 -103 -260 -103q-155 0 -247 95q-92 97 -92 260t92 260q93 97 248 97q116 0 202 -56l30 21l12 -12l12 -131h-27q-46 145 -213 145q-131 0 -203 -84.5t-72 -237.5q0 -149 72 -234q72 -86 206 -86q137 0 221 85z" />
    <glyph glyph-name="afii10036" unicode="&#x422;" horiz-adv-x="673" 
d="M602 577l-35 93h-192v-629l65 -18v-23h-206v24l65 24v622h-192l-35 -95h-27l11 125h562l11 -123h-27z" />
    <glyph glyph-name="afii10037" unicode="&#x423;" horiz-adv-x="715" 
d="M342 211l-255 449l-64 17v23h204v-23l-61 -17l215 -381l214 381l-83 17v23h180v-23l-61 -17l-237 -420q-83 -148 -125 -199q-38 -47 -85 -47q-35 0 -59.5 18t-24.5 49q0 45 43 45q21 0 32.5 -11.5t11.5 -29.5v-35q6 -3 11 -3q21 0 54.5 42.5t89.5 141.5z" />
    <glyph glyph-name="afii10038" unicode="&#x424;" horiz-adv-x="861" 
d="M534 677l-65 -20v-42q149 0 241 -71q91 -70 91 -193t-91 -193q-92 -71 -241 -71v-46l65 -18v-23h-206v24l65 24v39q-149 0 -241 71q-91 70 -91 193t91 193q92 71 241 71v43l-65 19v23h206v-23zM393 117v469q-115 0 -183 -63t-68 -173t68 -172q68 -61 183 -61zM469 586
v-469q114 0 181 61q69 62 69 172q0 112 -69 173q-69 63 -181 63z" />
    <glyph glyph-name="afii10039" unicode="&#x425;" horiz-adv-x="743" 
d="M507 23l61 17l-218 288l-226 -288l79 -17v-23h-179v23l63 17l247 310l-234 310l-63 17v23h212v-23l-62 -17l203 -270l212 270l-79 17v23h180v-23l-64 -17l-232 -292l248 -328l63 -17v-23h-211v23z" />
    <glyph glyph-name="afii10040" unicode="&#x426;" horiz-adv-x="750" 
d="M687 -136l-24 136h-618v20l65 15v623l-65 19v23h206v-23l-65 -20v-627h375v628l-65 19v23h206v-23l-65 -20v-627h79v-166h-29z" />
    <glyph glyph-name="afii10041" unicode="&#x427;" horiz-adv-x="716" 
d="M250 677l-64 -20v-182q0 -151 141 -151q49 0 105 13q61 14 98 39v282l-65 19v23h206v-23l-65 -20v-616l65 -18v-23h-206v24l65 24v294q-43 -27 -111 -40q-73 -14 -125 -14q-184 0 -184 184v186l-65 19v23h205v-23z" />
    <glyph glyph-name="afii10042" unicode="&#x428;" horiz-adv-x="1095" 
d="M45 0v20l65 15v623l-65 19v23h206v-23l-65 -20v-627h324v628l-65 19v23h206v-23l-65 -20v-627h324v628l-65 19v23h206v-23l-65 -20v-622l65 -13v-22h-1006z" />
    <glyph glyph-name="afii10043" unicode="&#x429;" horiz-adv-x="1099" 
d="M1036 -136l-25 136h-966v20l65 15v623l-65 19v23h206v-23l-65 -20v-627h324v628l-65 19v23h206v-23l-65 -20v-627h324v628l-65 19v23h206v-23l-65 -20v-627h79v-166h-29z" />
    <glyph glyph-name="afii10044" unicode="&#x42a;" horiz-adv-x="785" 
d="M407 680l-65 -17v-275h138q110 0 177 -52t67 -141q0 -91 -67 -143t-177 -52h-279v20l65 15v635h-159l-35 -95h-27l11 125h351v-20zM342 358v-328h126q79 0 127 44t48 121q0 76 -48 119.5t-127 43.5h-126z" />
    <glyph glyph-name="afii10045" unicode="&#x42b;" horiz-adv-x="880" 
d="M251 677l-65 -20v-269h138q110 0 177 -52t67 -141q0 -91 -67 -143t-177 -52h-279v20l65 15v623l-65 19v23h206v-23zM186 358v-328h126q79 0 127 44t48 121q0 76 -48 119.5t-127 43.5h-126zM836 677l-65 -20v-616l65 -18v-23h-206v24l65 24v610l-65 19v23h206v-23z" />
    <glyph glyph-name="afii10046" unicode="&#x42c;" horiz-adv-x="629" 
d="M251 677l-65 -20v-269h138q110 0 177 -52t67 -141q0 -91 -67 -143t-177 -52h-279v20l65 15v623l-65 19v23h206v-23zM186 358v-328h126q79 0 127 44t48 121q0 76 -48 119.5t-127 43.5h-126z" />
    <glyph glyph-name="afii10047" unicode="&#x42d;" horiz-adv-x="723" 
d="M584 340h-346v31h346q-7 145 -75.5 223.5t-189.5 78.5q-60 0 -122 -25q-77 -28 -100 -120h-28l13 127l12 12l26 -17q86 56 206 56q156 0 247 -96q93 -96 93 -260q0 -165 -93 -261q-93 -95 -250 -95q-123 0 -209 56l-27 -17l-12 12l-12 127h27q20 -86 97 -119
q64 -26 130 -26q126 0 195.5 81.5t71.5 231.5z" />
    <glyph glyph-name="afii10048" unicode="&#x42e;" horiz-adv-x="1017" 
d="M45 0v24l65 24v610l-65 19v23h206v-23l-65 -20v-287h160q4 154 89 245q84 91 216 91q137 0 221 -97q84 -96 84 -259q0 -162 -84 -260q-84 -96 -221 -96q-135 0 -219 93q-83 94 -86 252h-160v-298l65 -18v-23h-206zM427 349q0 -152 61 -238q62 -86 163 -86q100 0 162 86
q62 88 62 238q0 151 -62 239q-61 87 -162 87t-163 -87q-61 -86 -61 -239z" />
    <glyph glyph-name="afii10049" unicode="&#x42f;" horiz-adv-x="658" 
d="M21 39l10 12q16 -19 48 -19q18 0 28.5 14t28.5 58l51 132q28 75 85 97q-85 12 -133 60t-48 122q0 85 62 135t163 50h297v-20l-65 -17v-622l65 -18v-23h-206v24l65 24v279h-43q-71 0 -109 -21.5t-58 -74.5l-49 -132q-24 -61 -44 -83t-56 -22q-51 0 -92 45zM472 358v312
h-141q-72 0 -115.5 -41.5t-43.5 -114.5t43.5 -114.5t115.5 -41.5h141z" />
    <glyph glyph-name="afii10065" unicode="&#x430;" horiz-adv-x="523" 
d="M347 50l-3 3q-30 -25 -78 -41.5t-93 -16.5q-117 0 -117 107q0 66 54 93t230 66q2 1 5 1v84q0 38 -28.5 63t-74.5 25q-58 0 -99 -31v-50q0 -15 -10.5 -25.5t-26.5 -10.5t-26 10.5t-10 29.5q0 46 51 76q52 31 127 31q77 0 124 -33t47 -87v-288q0 -26 22 -26q18 0 30 12
l10 -11q-34 -34 -85 -34q-46 0 -49 53zM345 84v146q-132 -29 -169 -47q-48 -25 -48 -76q0 -77 82 -77q80 0 135 54z" />
    <glyph glyph-name="afii10066" unicode="&#x431;" horiz-adv-x="579" 
d="M127 380h4q51 84 169 84q104 0 164 -63t60 -172t-61 -171t-167 -62q-107 0 -167 73t-60 244q-1 253 139 343q44 31 104 47t106 26t63 27l12 -12q-22 -36 -55 -58t-66.5 -31t-69 -17t-66.5 -21.5t-55.5 -38.5t-39 -74.5t-14.5 -123.5zM149 230q0 -94 40.5 -148.5
t108.5 -54.5t108.5 54.5t40.5 148.5q0 95 -40.5 149.5t-108.5 54.5t-108.5 -54.5t-40.5 -149.5z" />
    <glyph glyph-name="afii10067" unicode="&#x432;" horiz-adv-x="531" 
d="M45 438v22h258q70 0 113 -31t43 -84q0 -39 -23.5 -66.5t-65.5 -38.5q54 -11 84.5 -41.5t30.5 -75.5q0 -57 -50 -90t-132 -33h-258v22l60 18v380zM293 224h-115v-194h115q52 0 83.5 26t31.5 71t-31.5 71t-83.5 26zM178 430v-175h115q40 0 64.5 23t24.5 64t-24.5 64.5
t-64.5 23.5h-115z" />
    <glyph glyph-name="afii10068" unicode="&#x433;" horiz-adv-x="464" 
d="M390 347l-23 83h-189v-387l92 -20v-23h-225v24l60 22v380l-60 14v20h373v-113h-28z" />
    <glyph glyph-name="afii10069" unicode="&#x434;" horiz-adv-x="583" 
d="M512 -121l-24 121h-393l-25 -121h-27v151h63q32 22 43 111l37 285l-60 14v20h410v-20l-60 -15v-395h64v-151h-28zM402 430h-182l-37 -287q-9 -79 -37 -113h256v400z" />
    <glyph glyph-name="afii10070" unicode="&#x435;" horiz-adv-x="538" 
d="M473 257l-13 -12h-330q1 -111 45.5 -162t132.5 -51q94 0 139 46l19 -20q-59 -62 -177 -62q-109 0 -173 64q-63 64 -63 171q0 108 62 170q63 63 163 63q89 0 144 -50q55 -49 55 -124q0 -22 -4 -33zM283 434q-59 0 -103 -48q-43 -46 -49 -113l279 7q0 67 -35 110.5
t-92 43.5z" />
    <glyph glyph-name="afii10072" unicode="&#x436;" horiz-adv-x="818" 
d="M677 396v28q-4 2 -8 2q-27 0 -49 -54l-26 -59q-18 -42 -44 -62q55 -5 85 -24.5t43 -58.5l29 -95q7 -25 17 -34.5t28 -9.5q20 0 34 11l10 -11q-28 -33 -81 -33q-33 0 -52 17.5t-32 58.5l-28 92q-11 34 -40.5 46.5t-89.5 12.5h-27v-183l60 -17v-23h-194v24l60 22v177h-26
q-60 0 -90 -12.5t-41 -46.5l-28 -92q-12 -41 -31.5 -58.5t-52.5 -17.5q-53 0 -81 33l11 11q11 -11 33 -11q18 0 28 9.5t18 34.5l29 95q21 72 126 83q-26 20 -43 62l-25 59q-13 30 -24 42t-25 12q-4 0 -8 -2v-28q0 -16 -10.5 -25.5t-28.5 -9.5q-39 0 -39 43q0 28 20 43t52 15
q56 0 89 -76l28 -65q16 -35 42.5 -50.5t76.5 -15.5v165l-60 17v23h194v-23l-60 -19v-163q50 0 76.5 15.5t42.5 50.5l29 65q33 76 91 76q31 0 50.5 -15t19.5 -43q0 -43 -38 -43q-18 0 -29 9.5t-11 25.5z" />
    <glyph glyph-name="afii10073" unicode="&#x437;" horiz-adv-x="478" 
d="M172 221v38q39 -4 60 -4q49 0 75 23t26 66t-26 66.5t-71 23.5q-49 0 -84.5 -26t-46.5 -80h-27v111l11 11l18 -18q59 32 132 32q78 0 124.5 -32t46.5 -86q0 -81 -94 -106q54 -11 85 -42t31 -75q0 -59 -51.5 -93t-138.5 -34q-76 0 -130 26q-52 25 -52 72q0 39 34 39
q16 0 26.5 -10.5t10.5 -24.5v-44q37 -28 106 -28q55 0 86.5 26.5t31.5 73.5t-31.5 73t-87.5 26q-25 0 -64 -4z" />
    <glyph glyph-name="afii10074" unicode="&#x438;" horiz-adv-x="608" 
d="M45 0v24l60 22v374l-60 17v23h191v-23l-58 -17v-267l-3 -47l3 -3l251 302v15l-58 17v23h191v-23l-60 -19v-378l60 -17v-23h-191v23l58 22v262l3 47l-3 3l-251 -302v-15l58 -17v-23h-191z" />
    <glyph glyph-name="afii10075" unicode="&#x439;" horiz-adv-x="608" 
d="M374 584v44q0 15 10.5 25.5t26.5 10.5q15 0 25.5 -11t10.5 -29q0 -40 -45 -65q-43 -25 -99 -25q-55 0 -99 25q-44 26 -44 65q0 19 10 29.5t26 10.5t26.5 -10.5t10.5 -25.5v-44q25 -21 70 -21t71 21zM45 0v24l60 22v374l-60 17v23h191v-23l-58 -17v-267l-3 -47l3 -3
l251 302v15l-58 17v23h191v-23l-60 -19v-378l60 -17v-23h-191v23l58 22v262l3 47l-3 3l-251 -302v-15l58 -17v-23h-191z" />
    <glyph glyph-name="afii10076" unicode="&#x43a;" horiz-adv-x="568" 
d="M428 396v28q-4 2 -9 2q-27 0 -53 -54l-27 -59q-19 -41 -47 -62q58 -6 89.5 -25.5t43.5 -57.5l29 -93q8 -27 17.5 -36.5t28.5 -9.5q22 0 36 11l10 -11q-30 -33 -85 -33q-34 0 -53 17t-32 59l-29 92q-11 34 -43.5 46.5t-96.5 12.5h-29v-183l60 -17v-23h-193v24l60 22v374
l-60 17v23h193v-23l-60 -19v-163q55 0 84 15t45 51l30 65q19 40 41 58t55 18q32 0 52 -15t20 -43q0 -43 -38 -43q-18 0 -28.5 9.5t-10.5 25.5z" />
    <glyph glyph-name="afii10077" unicode="&#x43b;" 
d="M174 141l36 285l-60 14v20h389v-20l-60 -15v-385l60 -17v-23h-190v23l56 22v385h-161l-37 -287q-17 -147 -97 -147q-30 0 -51 15.5t-21 43.5q-3 33 28 40q29 7 44 -13q6 -8 5 -20v-27q4 -2 9 -2q8 -2 17 7t18.5 35t14.5 66z" />
    <glyph glyph-name="afii10078" unicode="&#x43c;" horiz-adv-x="693" 
d="M638 437l-60 -19l23 -378l60 -17v-23h-193v24l60 22l-21 318l-163 -364h-35l-164 364l-21 -328l60 -18v-18h-152v20l60 22l24 378l-60 17v23h122l169 -381l170 381h121v-23z" />
    <glyph glyph-name="afii10079" unicode="&#x43d;" horiz-adv-x="610" 
d="M45 0v24l60 22v374l-60 17v23h190v-23l-57 -17v-170h253v170l-57 17v23h191v-23l-60 -19v-378l60 -17v-23h-191v23l57 22v174h-253v-179l57 -17v-23h-190z" />
    <glyph glyph-name="afii10080" unicode="&#x43e;" horiz-adv-x="569" 
d="M118 59q-63 63 -63 171t63 171t166 63t166 -63q64 -63 64 -171t-64 -171q-63 -63 -166 -63t-166 63zM131 230q0 -94 41.5 -148.5t111.5 -54.5t111.5 54.5t41.5 148.5q0 95 -41.5 149.5t-111.5 54.5t-111.5 -54.5t-41.5 -149.5z" />
    <glyph glyph-name="afii10081" unicode="&#x43f;" horiz-adv-x="610" 
d="M45 0v24l60 22v380l-60 14v20h520v-20l-60 -15v-385l60 -17v-23h-191v23l57 22v385h-253v-390l57 -17v-23h-190z" />
    <glyph glyph-name="afii10082" unicode="&#x440;" horiz-adv-x="587" 
d="M270 -250h-225v24l60 22v611l-54 14v27l115 18l12 -12l-2 -44l3 -3q25 27 70 42t92 15q90 0 140.5 -62.5t50.5 -166.5q0 -113 -60.5 -176t-168.5 -63q-76 0 -125 32v-235l92 -20v-23zM178 375v-314q45 -36 117 -36q75 0 117.5 54t42.5 151q0 94 -39 146t-109 52
q-84 0 -129 -53z" />
    <glyph glyph-name="afii10083" unicode="&#x441;" horiz-adv-x="534" 
d="M398 354v51q-40 29 -107 29q-75 0 -117.5 -52t-42.5 -144q0 -99 48.5 -152.5t133.5 -53.5q92 0 137 46l20 -20q-65 -62 -180 -62q-109 0 -172 63t-63 173q0 109 62 170.5t173 61.5q76 0 128 -27q53 -27 53 -76q0 -21 -10.5 -32.5t-25.5 -11.5q-16 0 -26.5 11t-10.5 26z
" />
    <glyph glyph-name="afii10084" unicode="&#x442;" horiz-adv-x="534" 
d="M460 347l-23 83h-133v-390l60 -17v-23h-194v24l60 22v384h-133l-24 -83h-27v113h442v-113h-28z" />
    <glyph glyph-name="afii10085" unicode="&#x443;" horiz-adv-x="580" 
d="M273 -2l-195 422l-59 17v23h191v-23l-56 -17l158 -339l157 339l-78 17v23h170v-23l-56 -17l-196 -420q-73 -156 -105 -205q-32 -48 -75 -48q-31 0 -52 17t-21 46q0 43 39 43q18 0 29.5 -10t11.5 -26v-31q4 -3 11 -3q19 0 45 44q26 43 81 171z" />
    <glyph glyph-name="afii10086" unicode="&#x444;" horiz-adv-x="785" 
d="M426 435l3 -3q52 32 120 32q85 0 132.5 -62t47.5 -166q0 -113 -57 -176.5t-157 -63.5q-50 0 -86 16v-222l60 -17v-23h-194v24l60 22v204l3 25l-3 3q-53 -32 -121 -32q-85 0 -132 62t-47 166q0 114 56.5 177t156.5 63q48 0 87 -16v248l-54 14v27l115 18l13 -12v-283z
M267 32q51 0 88 24v361q-42 17 -77 17q-69 0 -108 -53.5t-39 -151.5q0 -93 36 -145t100 -52zM517 428q-51 0 -88 -25v-361q39 -17 76 -17q69 0 108 54t39 152q0 93 -35.5 145t-99.5 52z" />
    <glyph glyph-name="afii10087" unicode="&#x445;" horiz-adv-x="566" 
d="M341 23l55 17l-134 165l-138 -165l75 -17v-23h-170v23l58 17l158 187l-156 193l-56 17v23h197v-23l-56 -17l127 -158l134 158l-74 17v23h169v-23l-58 -17l-153 -180l162 -200l56 -17v-23h-196v23z" />
    <glyph glyph-name="afii10088" unicode="&#x446;" horiz-adv-x="603" 
d="M533 -121l-25 121h-463v22l60 18v380l-60 17v23h190v-23l-57 -19v-388h245v390l-56 17v23h190v-23l-60 -19v-388h64v-151h-28z" />
    <glyph glyph-name="afii10089" unicode="&#x447;" horiz-adv-x="589" 
d="M233 437l-55 -17v-105q0 -51 24 -78.5t69 -27.5q35 0 75 14t64 38v159l-55 17v23h188v-23l-60 -19v-378l60 -17v-23h-190v23l57 22v182q-34 -27 -82 -40q-51 -14 -92 -14q-64 0 -97.5 37t-33.5 102v108l-60 17v23h188v-23z" />
    <glyph glyph-name="afii10090" unicode="&#x448;" horiz-adv-x="846" 
d="M386 30v390l-55 17v23h184v-23l-55 -19v-388h208v390l-56 17v23h189v-23l-60 -19v-384l60 -14v-20h-756v22l60 18v380l-60 17v23h189v-23l-56 -19v-388h208z" />
    <glyph glyph-name="afii10091" unicode="&#x449;" horiz-adv-x="847" 
d="M778 -121l-25 121h-708v22l60 18v380l-60 17v23h189v-23l-56 -19v-388h208v390l-55 17v23h184v-23l-55 -19v-388h208v390l-56 17v23h189v-23l-60 -19v-388h64v-151h-27z" />
    <glyph glyph-name="afii10092" unicode="&#x44a;" horiz-adv-x="603" 
d="M45 460h294v-23l-60 -19v-152h106q78 0 125.5 -36t47.5 -97t-47.5 -97t-125.5 -36h-240v22l60 18v390h-109l-23 -83h-28v113zM374 235h-95v-205h95q48 0 77.5 27.5t29.5 75.5q0 47 -29.5 74.5t-77.5 27.5z" />
    <glyph glyph-name="afii10093" unicode="&#x44b;" horiz-adv-x="731" 
d="M284 0h-239v22l60 18v380l-60 17v23h193v-23l-60 -19v-152h106q78 0 125.5 -36t47.5 -97t-47.5 -97t-125.5 -36zM273 235h-95v-205h95q49 0 78 27.5t29 75.5q0 47 -29 74.5t-78 27.5zM687 437l-60 -19v-378l60 -17v-23h-194v24l60 22v374l-60 17v23h194v-23z" />
    <glyph glyph-name="afii10094" unicode="&#x44c;" horiz-adv-x="499" 
d="M284 0h-239v22l60 18v380l-60 17v23h193v-23l-60 -19v-152h106q78 0 125.5 -36t47.5 -97t-47.5 -97t-125.5 -36zM273 235h-95v-205h95q49 0 78 27.5t29 75.5q0 47 -29 74.5t-78 27.5z" />
    <glyph glyph-name="afii10095" unicode="&#x44d;" horiz-adv-x="529" 
d="M398 220h-209v31h208q-4 87 -47 135t-116 48q-110 0 -132 -106h-28v111l12 11l18 -18q56 32 132 32q113 0 176 -62t63 -171q0 -110 -62 -172.5t-171 -62.5q-77 0 -129 28q-53 29 -53 73q0 19 9.5 29.5t24.5 10.5q16 0 26.5 -10.5t10.5 -24.5v-46q43 -30 108 -30
q73 0 115.5 52t43.5 142z" />
    <glyph glyph-name="afii10096" unicode="&#x44e;" horiz-adv-x="778" 
d="M45 0v24l60 22v374l-60 17v23h190v-23l-57 -17v-170h112q6 99 65 156.5t152 57.5q97 0 157 -63t60 -171t-60 -171t-157 -63q-95 0 -154 60t-63 163h-112v-179l57 -17v-23h-190zM367 230q0 -94 38 -148.5t102 -54.5t102 54.5t38 148.5q0 95 -38 149.5t-102 54.5
t-102 -54.5t-38 -149.5z" />
    <glyph glyph-name="afii10097" unicode="&#x44f;" horiz-adv-x="552" 
d="M20 29l11 11q11 -11 35 -11q17 0 24 7.5t17 34.5l29 79q20 50 74 66q-60 10 -93.5 41t-33.5 79q0 57 49 90.5t128 33.5h247v-20l-60 -15v-385l60 -17v-23h-194v23l60 22v160h-29q-63 0 -93.5 -11.5t-42.5 -43.5l-29 -84q-15 -40 -31 -55t-48 -15q-50 0 -80 33zM271 236
h102v194h-102q-51 0 -81 -26t-30 -71t30 -71t81 -26z" />
    <glyph glyph-name="uni0450" unicode="&#x450;" horiz-adv-x="538" 
d="M473 257l-13 -12h-330q1 -111 45.5 -162t132.5 -51q94 0 139 46l19 -20q-59 -62 -177 -62q-109 0 -173 64q-63 64 -63 171q0 108 62 170q63 63 163 63q89 0 144 -50q55 -49 55 -124q0 -22 -4 -33zM283 434q-59 0 -103 -48q-43 -46 -49 -113l279 7q0 67 -35 110.5
t-92 43.5zM165 625l46 46l143 -128l-18 -19z" />
    <glyph glyph-name="afii10071" unicode="&#x451;" horiz-adv-x="538" 
d="M473 257l-13 -12h-330q1 -111 45.5 -162t132.5 -51q94 0 139 46l19 -20q-59 -62 -177 -62q-109 0 -173 64q-63 64 -63 171q0 108 62 170q63 63 163 63q89 0 144 -50q55 -49 55 -124q0 -22 -4 -33zM283 434q-59 0 -103 -48q-43 -46 -49 -113l279 7q0 67 -35 110.5
t-92 43.5zM163 618q21 0 34.5 -13.5t13.5 -33.5t-13.5 -34t-34.5 -14q-20 0 -33.5 14t-13.5 34t13.5 33.5t33.5 13.5zM348 537q-14 14 -14 34t14 33q14 14 34 14t33 -14q14 -13 14 -33t-14 -34q-13 -14 -33 -14t-34 14z" />
    <glyph glyph-name="afii10099" unicode="&#x452;" horiz-adv-x="612" 
d="M45 0v24l60 22v531h-60v18l60 13v95l-60 14v21l121 18l12 -12v-136h208v-31h-208v-117l-2 -57l3 -3q32 31 87 47q57 17 101 17q68 0 104 -43.5t36 -118.5v-302q0 -79 -36 -147t-101 -109l-20 20q40 37 61.5 100.5t21.5 135.5v297q0 62 -25.5 96.5t-72.5 34.5
q-36 0 -81 -16q-46 -16 -76 -45v-327l60 -17v-23h-193z" />
    <glyph glyph-name="afii10100" unicode="&#x453;" horiz-adv-x="464" 
d="M390 347l-23 83h-189v-387l92 -20v-23h-225v24l60 22v380l-60 14v20h373v-113h-28zM180 524l-18 19l143 128l46 -46z" />
    <glyph glyph-name="afii10101" unicode="&#x454;" horiz-adv-x="529" 
d="M55 231q0 109 63 171t176 62q74 0 132 -32l18 18l11 -11v-111h-28q-25 106 -131 106q-73 0 -116.5 -48t-47.5 -135h247v-31h-247q3 -90 49.5 -139t127.5 -49q90 0 135 46l20 -20q-65 -62 -177 -62q-108 0 -170 63t-62 172z" />
    <glyph glyph-name="afii10102" unicode="&#x455;" horiz-adv-x="446" 
d="M69 7l-11 11v102h28q25 -94 123 -94q56 0 89 23.5t33 67.5q0 37 -27 53q-27 18 -94 34l-38 10q-47 13 -67 27q-52 42 -47 96q0 126 160 126q73 0 123 -32l17 17l11 -11v-100h-28q-23 96 -113 96q-47 0 -76.5 -23.5t-29.5 -62.5q0 -35 23 -50q24 -13 84 -30l48 -14
q21 -7 42 -17q29 -14 40 -26q35 -33 35 -86q0 -128 -179 -128q-73 0 -128 28z" />
    <glyph glyph-name="afii10103" unicode="&#x456;" horiz-adv-x="283" 
d="M238 0h-193v24l60 22v361l-54 14v27l115 18l12 -12v-414l60 -17v-23zM133 660q23 0 38 -15t15 -38q0 -22 -15 -37t-38 -15q-22 0 -37 15t-15 37t15 37.5t37 15.5z" />
    <glyph glyph-name="afii10104" unicode="&#x457;" horiz-adv-x="283" 
d="M238 0h-193v24l60 22v361l-54 14v27l115 18l12 -12v-414l60 -17v-23zM27 550q-14 14 -14 34t14 34t34 14t33 -14q14 -14 14 -34t-14 -34q-13 -14 -33 -14t-34 14zM174 550q-14 14 -14 34t14 34t34 14t34 -14t14 -34t-14 -34t-34 -14t-34 14z" />
    <glyph glyph-name="afii10105" unicode="&#x458;" horiz-adv-x="283" 
d="M105 0v407l-54 14v27l115 18l12 -12v-454q0 -79 -36 -147t-101 -109l-20 20q40 37 62 101t22 135zM133 660q23 0 38 -15t15 -38q0 -22 -15 -37t-38 -15q-22 0 -37 15t-15 37t15 37.5t37 15.5z" />
    <glyph glyph-name="afii10106" unicode="&#x459;" horiz-adv-x="803" 
d="M588 0h-243v22l60 18v390h-161l-37 -287q-17 -147 -97 -147q-30 0 -51 15.5t-21 43.5q-3 33 28 40q29 7 44 -13q6 -8 5 -20v-27q4 -2 9 -2q8 -2 17 7t18.5 35t14.5 66l36 285l-60 14v20h389v-20l-60 -15v-159h109q78 0 125.5 -36t47.5 -97t-47.5 -97t-125.5 -36zM578 235
h-99v-205h99q48 0 77 27.5t29 75.5q0 47 -29 74.5t-77 27.5z" />
    <glyph glyph-name="afii10107" unicode="&#x45a;" horiz-adv-x="829" 
d="M614 0h-240v23l57 22v174h-253v-179l57 -17v-23h-190v24l60 22v374l-60 17v23h190v-23l-57 -17v-170h253v170l-57 17v23h191v-23l-60 -19v-168h109q78 0 125.5 -34t47.5 -92q0 -57 -47.5 -90.5t-125.5 -33.5zM603 219h-98v-189h98q49 0 78 25t29 69t-29 69.5t-78 25.5z
" />
    <glyph glyph-name="afii10108" unicode="&#x45b;" horiz-adv-x="612" 
d="M45 595l60 13v95l-60 14v21l121 18l12 -12v-136h208v-31h-208v-117l-2 -57l3 -3q32 31 87 47q57 17 101 17q68 0 104 -43.5t36 -118.5v-262l60 -17v-23h-192v24l58 22v251q0 62 -25.5 96.5t-72.5 34.5q-36 0 -81 -16q-46 -16 -76 -45v-327l58 -17v-23h-191v24l60 22v531
h-60v18z" />
    <glyph glyph-name="afii10109" unicode="&#x45c;" horiz-adv-x="568" 
d="M428 396v28q-4 2 -9 2q-27 0 -53 -54l-27 -59q-19 -41 -47 -62q58 -6 89.5 -25.5t43.5 -57.5l29 -93q8 -27 17.5 -36.5t28.5 -9.5q22 0 36 11l10 -11q-30 -33 -85 -33q-34 0 -53 17t-32 59l-29 92q-11 34 -43.5 46.5t-96.5 12.5h-29v-183l60 -17v-23h-193v24l60 22v374
l-60 17v23h193v-23l-60 -19v-163q55 0 84 15t45 51l30 65q19 40 41 58t55 18q32 0 52 -15t20 -43q0 -43 -38 -43q-18 0 -28.5 9.5t-10.5 25.5zM228 524l-19 19l143 128l46 -46z" />
    <glyph glyph-name="uni045D" unicode="&#x45d;" horiz-adv-x="608" 
d="M45 0v24l60 22v374l-60 17v23h191v-23l-58 -17v-267l-3 -47l3 -3l251 302v15l-58 17v23h191v-23l-60 -19v-378l60 -17v-23h-191v23l58 22v262l3 47l-3 3l-251 -302v-15l58 -17v-23h-191zM189 625l46 46l143 -128l-19 -19z" />
    <glyph glyph-name="afii10110" unicode="&#x45e;" horiz-adv-x="580" 
d="M367 584v44q0 15 10.5 25.5t26.5 10.5q15 0 25.5 -11t10.5 -29q0 -40 -45 -65q-43 -25 -99 -25q-55 0 -99 25q-44 26 -44 65q0 26 18.5 35.5t36.5 -0.5t18 -31v-44q26 -21 70 -21q46 0 71 21zM273 -2l-195 422l-59 17v23h191v-23l-56 -17l158 -339l157 339l-78 17v23h170
v-23l-56 -17l-196 -420q-73 -156 -105 -205q-32 -48 -75 -48q-31 0 -52 17t-21 46q0 43 39 43q18 0 29.5 -10t11.5 -26v-31q4 -3 11 -3q19 0 45 44q26 43 81 171z" />
    <glyph glyph-name="afii10193" unicode="&#x45f;" horiz-adv-x="609" 
d="M291 -121l-13 121h-233v22l60 18v380l-60 17v23h190v-23l-57 -19v-388h253v390l-57 17v23h191v-23l-60 -19v-384l60 -14v-20h-234l-13 -121h-27z" />
    <glyph glyph-name="afii10050" unicode="&#x490;" horiz-adv-x="544" 
d="M45 680v20h397l35 92h28l-12 -122h-307v-624l95 -23v-23h-236v24l65 24v617z" />
    <glyph glyph-name="afii10098" unicode="&#x491;" horiz-adv-x="434" 
d="M388 542v-112h-210v-387l92 -20v-23h-225v24l60 22v380l-60 14v20h292l23 82h28z" />
    <glyph glyph-name="uni04D8" unicode="&#x4d8;" horiz-adv-x="750" 
d="M110 584l-19 19q100 103 259 103q156 0 248 -96q92 -95 92 -258q0 -164 -93 -261q-91 -97 -243 -97q-134 0 -213 72q-80 72 -80 175q0 26 5 51l19 17h522q5 70 -8.5 132.5t-45 114.5t-89 82.5t-134.5 30.5q-138 0 -220 -85zM348 27q98 0 170 66q73 67 86 186l-470 -16
q0 -99 55 -167q55 -69 159 -69z" />
    <glyph glyph-name="afii10846" unicode="&#x4d9;" horiz-adv-x="538" 
d="M63 208l13 12h331q-1 208 -175 208q-90 0 -136 -46l-20 20q62 62 174 62q107 0 170 -64q63 -65 63 -172q0 -109 -63 -170q-62 -62 -160 -62q-90 0 -146 51q-54 51 -54 127q0 20 3 34zM254 26q59 0 102 49q44 50 50 117l-279 -7q0 -70 35 -114.5t92 -44.5z" />
    <glyph glyph-name="Wgrave" unicode="&#x1e80;" horiz-adv-x="1172" 
d="M822 0h-38l-199 487l-195 -487h-38l-272 658l-65 19v23h207v-23l-65 -19l237 -577l175 444l-58 133l-64 19v23h207v-23l-65 -19l237 -577l236 577l-84 19v23h178v-23l-61 -19zM474 865l46 46l142 -128l-18 -19z" />
    <glyph glyph-name="wgrave" unicode="&#x1e81;" horiz-adv-x="844" 
d="M590 0h-35l-129 304l-131 -304h-36l-181 420l-59 17v23h189v-23l-56 -17l144 -343l114 264l-32 79l-59 17v23h189v-23l-56 -17l140 -343l143 343l-78 17v23h168v-23l-56 -17zM312 625l46 46l142 -128l-18 -19z" />
    <glyph glyph-name="Wacute" unicode="&#x1e82;" horiz-adv-x="1172" 
d="M822 0h-38l-199 487l-195 -487h-38l-272 658l-65 19v23h207v-23l-65 -19l237 -577l175 444l-58 133l-64 19v23h207v-23l-65 -19l237 -577l236 577l-84 19v23h178v-23l-61 -19zM529 764l-18 19l143 128l46 -46z" />
    <glyph glyph-name="wacute" unicode="&#x1e83;" horiz-adv-x="844" 
d="M590 0h-35l-129 304l-131 -304h-36l-181 420l-59 17v23h189v-23l-56 -17l144 -343l114 264l-32 79l-59 17v23h189v-23l-56 -17l140 -343l143 343l-78 17v23h168v-23l-56 -17zM368 524l-18 19l143 128l46 -46z" />
    <glyph glyph-name="Wdieresis" unicode="&#x1e84;" horiz-adv-x="1172" 
d="M822 0h-38l-199 487l-195 -487h-38l-272 658l-65 19v23h207v-23l-65 -19l237 -577l175 444l-58 133l-64 19v23h207v-23l-65 -19l237 -577l236 577l-84 19v23h178v-23l-61 -19zM433 790q-14 14 -14 34t14 34t34 14t34 -14t14 -34t-14 -34t-34 -14t-34 14zM651 790
q-13 14 -13 34t13 34q14 14 34 14t34 -14t14 -34t-14 -34t-34 -14t-34 14z" />
    <glyph glyph-name="wdieresis" unicode="&#x1e85;" horiz-adv-x="844" 
d="M590 0h-35l-129 304l-131 -304h-36l-181 420l-59 17v23h189v-23l-56 -17l144 -343l114 264l-32 79l-59 17v23h189v-23l-56 -17l140 -343l143 343l-78 17v23h168v-23l-56 -17zM314 632q20 0 33.5 -14t13.5 -34t-13.5 -34t-33.5 -14q-21 0 -34.5 14t-13.5 34t13.5 34
t34.5 14zM498 550q-14 14 -14 34t14 34t34 14t33 -14q14 -14 14 -34t-14 -34q-13 -14 -33 -14t-34 14z" />
    <glyph glyph-name="Ygrave" unicode="&#x1ef2;" horiz-adv-x="702" 
d="M227 677l-62 -17l208 -330l214 330l-78 17v23h178v-23l-64 -17l-237 -363v-256l65 -18v-23h-206v24l65 24v248l-231 364l-64 17v23h212v-23zM237 865l46 46l143 -128l-18 -19z" />
    <glyph glyph-name="ygrave" unicode="&#x1ef3;" horiz-adv-x="580" 
d="M273 -2l-195 422l-59 17v23h191v-23l-56 -17l158 -339l157 339l-78 17v23h170v-23l-56 -17l-196 -420q-73 -156 -105 -205q-32 -48 -75 -48q-31 0 -52 17t-21 46q0 43 39 43q18 0 29.5 -10t11.5 -26v-31q4 -3 11 -3q19 0 45 44q26 43 81 171zM178 625l46 46l143 -128
l-18 -19z" />
    <glyph glyph-name="figuredash" unicode="&#x2012;" horiz-adv-x="508" 
d="M462 334h-417v34h417v-34z" />
    <glyph glyph-name="endash" unicode="&#x2013;" horiz-adv-x="508" 
d="M462 247h-417v34h417v-34z" />
    <glyph glyph-name="emdash" unicode="&#x2014;" horiz-adv-x="708" 
d="M662 247h-617v34h617v-34z" />
    <glyph glyph-name="quoteleft" unicode="&#x2018;" horiz-adv-x="194" 
d="M125 705l14 -15q-17 -17 -30.5 -42.5t-13.5 -39.5q0 -6 3 -9q21 0 35 -13.5t14 -34.5q0 -20 -14 -34t-36 -14q-50 0 -50 60q0 67 78 142z" />
    <glyph glyph-name="quoteright" unicode="&#x2019;" horiz-adv-x="194" 
d="M69 503l-14 15q17 17 30.5 42.5t13.5 39.5q0 6 -3 9q-21 0 -35 13.5t-14 34.5q0 20 14 34t36 14q50 0 50 -60q0 -67 -78 -142z" />
    <glyph glyph-name="quotesinglbase" unicode="&#x201a;" horiz-adv-x="194" 
d="M69 -106l-14 15q17 17 30.5 42.5t13.5 39.5q0 6 -3 9q-21 0 -35 13.5t-14 34.5q0 20 14 34t36 14q50 0 50 -59q0 -65 -78 -143z" />
    <glyph glyph-name="quotedblleft" unicode="&#x201c;" horiz-adv-x="338" 
d="M268 705l15 -15q-18 -17 -31.5 -42t-13.5 -40q0 -6 3 -9q21 0 35 -13.5t14 -34.5q0 -20 -14 -34t-36 -14t-36 15t-14 45q0 67 78 142zM125 705l14 -15q-17 -17 -30.5 -42.5t-13.5 -39.5q0 -6 3 -9q21 0 35 -13.5t14 -34.5q0 -20 -14 -34t-36 -14q-50 0 -50 60
q0 67 78 142z" />
    <glyph glyph-name="quotedblright" unicode="&#x201d;" horiz-adv-x="338" 
d="M69 503l-14 15q17 17 30.5 42.5t13.5 39.5q0 6 -3 9q-21 0 -35 13.5t-14 34.5q0 20 14 34t36 14q50 0 50 -60q0 -67 -78 -142zM212 503l-14 15q17 17 30.5 42.5t13.5 39.5q0 3 -2 9q-21 0 -35.5 13.5t-14.5 34.5q0 20 14.5 34t35.5 14q50 0 50 -60q0 -67 -78 -142z" />
    <glyph glyph-name="quotedblbase" unicode="&#x201e;" horiz-adv-x="337" 
d="M69 -106l-14 15q17 17 30.5 42.5t13.5 39.5q0 6 -3 9q-21 0 -35 13.5t-14 34.5q0 20 14 34t36 14q50 0 50 -59q0 -65 -78 -143zM212 -106l-14 15q17 17 30.5 42.5t13.5 39.5q0 3 -2 9q-21 0 -35.5 13.5t-14.5 34.5q0 20 14.5 34t35.5 14q50 0 50 -59q0 -65 -78 -143z" />
    <glyph glyph-name="dagger" unicode="&#x2020;" horiz-adv-x="509" 
d="M242 510q-3 43 -8.5 80.5t-9.5 57t-4 22.5q0 14 10 23.5t24 9.5q15 0 24.5 -9.5t9.5 -23.5q0 -3 -4 -22.5t-9 -57t-8 -80.5q43 3 80.5 8t57 9t22.5 4q14 0 23.5 -9.5t9.5 -24.5q0 -14 -9.5 -24t-23.5 -10q-3 0 -22.5 4t-57 9.5t-80.5 8.5q3 -138 8 -290l9 -183
q4 -52 4 -82q0 -14 -9.5 -23.5t-24.5 -9.5q-14 0 -24 9.5t-10 23.5q0 22 3 81q3 39 10 184q6 124 9 290q-44 -3 -81.5 -8.5t-56.5 -9.5t-22 -4q-15 0 -24.5 10t-9.5 24q0 15 9.5 24.5t24.5 9.5q3 0 22 -4t56.5 -9t81.5 -8z" />
    <glyph glyph-name="daggerdbl" unicode="&#x2021;" horiz-adv-x="509" 
d="M242 510q-3 43 -8.5 80.5t-9.5 57t-4 22.5q0 14 10 23.5t24 9.5q15 0 24.5 -9.5t9.5 -23.5q0 -3 -4 -22.5t-9 -57t-8 -80.5q43 3 80.5 8t57 9t22.5 4q14 0 23.5 -9.5t9.5 -24.5q0 -14 -9.5 -24t-23.5 -10q-3 0 -22.5 4t-57 9.5t-80.5 8.5v-234q43 3 80.5 8t57 9t22.5 4
q14 0 23.5 -9.5t9.5 -24.5q0 -14 -9.5 -23.5t-23.5 -9.5q-3 0 -22.5 4t-57 9t-80.5 8q2 -71 8 -155q3 -35 6.5 -70t5 -49.5t1.5 -21.5q0 -14 -9.5 -23.5t-24.5 -9.5q-14 0 -24 9.5t-10 23.5q0 12 3 44q14 118 19 252q-44 -3 -81.5 -8t-56.5 -9t-22 -4q-15 0 -24.5 9.5
t-9.5 23.5q0 15 9.5 24.5t24.5 9.5q3 0 22 -4t56.5 -9t81.5 -8v234q-44 -3 -81.5 -8.5t-56.5 -9.5t-22 -4q-15 0 -24.5 10t-9.5 24q0 15 9.5 24.5t24.5 9.5q3 0 22 -4t56.5 -9t81.5 -8z" />
    <glyph glyph-name="bullet" unicode="&#x2022;" horiz-adv-x="234" 
d="M39 300q0 33 22.5 55.5t54.5 22.5q34 0 56.5 -22.5t22.5 -55.5q0 -32 -22.5 -55t-56.5 -23q-32 0 -54.5 23t-22.5 55z" />
    <glyph glyph-name="ellipsis" unicode="&#x2026;" horiz-adv-x="567" 
d="M96 96q31 2 44 -24t0 -52t-44 -24q-20 0 -34.5 14.5t-14.5 35.5t14.5 35.5t34.5 14.5zM247 10q-14 15 -14 36t14 35q15 15 36 15t35 -15q15 -14 15 -35t-15 -36q-14 -14 -35 -14t-36 14zM469 96q21 0 36 -14.5t15 -35.5t-15 -35.5t-36 -14.5q-20 0 -34.5 14.5t-14.5 35.5
t14.5 35.5t34.5 14.5z" />
    <glyph glyph-name="perthousand" unicode="&#x2030;" horiz-adv-x="1101" 
d="M96 393q-39 49 -39 132t39 132q40 49 104 49t104 -49t40 -132t-40 -132t-104 -49t-104 49zM201 375q39 0 62 40.5t23 109.5t-23.5 109.5t-61.5 40.5q-39 0 -62.5 -40.5t-23.5 -109.5t23.5 -109.5t62.5 -40.5zM605 700l-408 -700h-41l408 700h41zM457 43q-40 49 -40 132
t40 132t104 49t103 -49q40 -49 40 -132t-40 -132q-39 -49 -103 -49t-104 49zM475 175q0 -69 23.5 -109.5t62.5 -40.5t62.5 40.5t23.5 109.5q0 68 -23.5 109t-62.5 41t-62.5 -41t-23.5 -109zM797 43q-39 49 -39 132t39 132q40 49 104 49t104 -49t40 -132t-40 -132t-104 -49
t-104 49zM815 175q0 -69 23.5 -109.5t62.5 -40.5t62.5 40.5t23.5 109.5q0 68 -23.5 109t-62.5 41t-62.5 -41t-23.5 -109z" />
    <glyph glyph-name="guilsinglleft" unicode="&#x2039;" horiz-adv-x="266" 
d="M193 97l-148 158v10l148 158l18 -18l-99 -145l99 -145z" />
    <glyph glyph-name="guilsinglright" unicode="&#x203a;" horiz-adv-x="266" 
d="M73 423l148 -158v-10l-148 -158l-18 18l99 145l-99 145z" />
    <glyph glyph-name="fraction" unicode="&#x2044;" horiz-adv-x="353" 
d="M349 700l-308 -700h-37l308 700h37z" />
    <glyph glyph-name="Euro" unicode="&#x20ac;" horiz-adv-x="723" 
d="M63 397h-21v34h25q23 127 111 201q89 74 223 74q122 0 213 -56h31l12 -122h-27q-46 145 -213 145q-113 0 -182.5 -62.5t-87.5 -179.5h340v-34h-344q-1 -10 -1 -46q0 -27 2 -49h343v-34h-339q19 -113 89 -175t183 -62q137 0 221 85l19 -19q-100 -103 -260 -103
q-135 0 -223 73q-87 73 -110 201h-25v34h21q-2 20 -2 47q0 26 2 48z" />
    <glyph glyph-name="uni20B4" unicode="&#x20b4;" horiz-adv-x="543" 
d="M113 270h-55v35h413v-35h-282q-58 -51 -58 -114q0 -60 44.5 -92t122.5 -32q106 0 166 57l20 -19q-77 -74 -206 -74q-102 0 -162.5 42t-60.5 114q0 67 58 118zM471 395h-413v35h280q60 52 60 117q0 59 -43 90t-119 31q-99 0 -157 -53l-19 19q71 70 197 70q102 0 160 -41
t58 -113q0 -68 -60 -120h56v-35z" />
    <glyph glyph-name="uni20BD" unicode="&#x20bd;" horiz-adv-x="621" 
d="M110 181h-65v17l65 13v88h-65v17l65 14v335l-65 15v20h264q109 0 177 -54q67 -54 67 -147t-67 -147q-68 -53 -177 -53h-123v-88h210v-30h-210v-135l95 -23v-23h-236v24l65 24v133zM297 670h-111v-340h111q80 0 127.5 45t47.5 124q0 80 -48 125.5t-127 45.5z" />
    <glyph glyph-name="afii61352" unicode="&#x2116;" horiz-adv-x="1087" 
d="M45 0v18l65 24v616l-65 19v23h143l407 -584v548l-65 19v17h160v-17l-65 -20v-663h-37l-448 643v-607l65 -19v-17h-160zM777 393q-39 49 -39 132t39 132q40 49 104 49t104 -49t40 -132t-40 -132t-104 -49t-104 49zM796 525q0 -69 23.5 -109.5t62.5 -40.5t62 40.5t23 109.5
t-23.5 109.5t-61.5 40.5q-39 0 -62.5 -41t-23.5 -109zM1020 247h-277v34h277v-34z" />
    <glyph glyph-name="trademark" unicode="&#x2122;" horiz-adv-x="786" 
d="M295 633l-18 47h-81v-305l31 -10v-15h-118v16l31 14v300h-81l-18 -49h-19l6 69h281l6 -67h-20zM746 685l-31 -12l22 -298l32 -10v-15h-119v16l31 14l-18 251l-117 -281h-26l-118 281l-19 -260l31 -11v-10h-82v11l31 13l22 301l-31 10v15h74l122 -294l123 294h73v-15z" />
    <glyph glyph-name="arrowleft" unicode="&#x2190;" horiz-adv-x="687" 
d="M190 101l-145 158v9l145 158l18 -18l-85 -127h519v-34h-520l86 -128z" />
    <glyph glyph-name="arrowup" unicode="&#x2191;" horiz-adv-x="687" 
d="M180 417l158 144h10l158 -144l-18 -18l-127 85v-519h-35v519l-128 -85z" />
    <glyph glyph-name="arrowright" unicode="&#x2192;" horiz-adv-x="687" 
d="M497 426l145 -158v-9l-145 -158l-17 18l85 128h-520v34h519l-84 127z" />
    <glyph glyph-name="arrowdown" unicode="&#x2193;" horiz-adv-x="687" 
d="M506 110l-158 -145h-10l-158 145l18 17l128 -85v519h35v-518l127 84z" />
    <glyph glyph-name="uni2196" unicode="&#x2196;" horiz-adv-x="687" 
d="M120 257l9 214l7 7l214 10v-26l-150 -30l367 -367l-25 -24l-366 367l-31 -150z" />
    <glyph glyph-name="uni2197" unicode="&#x2197;" horiz-adv-x="687" 
d="M336 487l214 -10l8 -6l9 -214h-25l-30 150l-367 -367l-25 24l368 367l-151 31z" />
    <glyph glyph-name="uni2198" unicode="&#x2198;" horiz-adv-x="687" 
d="M567 270l-9 -214l-7 -7l-214 -9v25l151 30l-367 368l24 24l367 -367l30 150h25z" />
    <glyph glyph-name="uni2199" unicode="&#x2199;" horiz-adv-x="687" 
d="M350 40l-214 9l-7 6l-10 214h25l31 -150l367 367l25 -24l-367 -367l149 -30z" />
    <glyph glyph-name="minus" unicode="&#x2212;" horiz-adv-x="458" 
d="M412 334h-367v34h367v-34z" />
    <glyph glyph-name="commaaccent" unicode="&#xf6c3;" horiz-adv-x="194" 
d="M72 -250l-13 13q16 15 28 38.5t12 37.5q0 5 -3 8q-18 0 -30.5 12.5t-12.5 30.5t12.5 30.5t31.5 12.5q44 0 44 -54q0 -60 -69 -129z" />
    <glyph glyph-name="dollaroldstyle" unicode="&#xf724;" horiz-adv-x="446" 
d="M225 -4l-2 -46h-33l2 47q-60 3 -105 27l-18 -17l-11 11v102h28q22 -86 108 -94l9 179q-49 12 -82 28q-31 15 -45.5 38.5t-17.5 65.5q0 60 40 93t119 33l3 47h32l-3 -49q52 -5 92 -30l17 17l11 -11v-100h-28q-21 85 -93 94l-9 -167q62 -17 104 -42q51 -31 51 -98
q0 -124 -169 -128zM331 117q0 32 -21 48.5t-74 31.5l-9 -170q49 4 76.5 27t27.5 63zM122 347q0 -30 19 -45.5t66 -28.5l9 159q-43 -3 -68.5 -26t-25.5 -59z" />
    <glyph glyph-name="zerooldstyle" unicode="&#xf730;" horiz-adv-x="625" 
d="M130 58q-69 64 -69 172q0 107 69 172q70 64 182 64t182 -64t70 -172t-70 -172t-182 -64t-182 64zM140 229q0 -94 47 -149t126 -55q78 0 125 55t47 149q0 95 -47 150.5t-125 55.5q-79 0 -126 -55.5t-47 -150.5z" />
    <glyph glyph-name="oneoldstyle" unicode="&#xf731;" horiz-adv-x="377" 
d="M310 0h-238v24l82 22v361h-97v25l159 34l12 -12v-414l82 -17v-23z" />
    <glyph glyph-name="twooldstyle" unicode="&#xf732;" horiz-adv-x="474" 
d="M412 0h-359v35q44 32 85 63q37 30 71 60q39 35 59 62q50 64 50 125q0 89 -102 89q-58 0 -95 -39v-62q0 -15 -10.5 -26t-26.5 -11q-36 0 -36 46q0 53 48 87t128 34q77 0 121.5 -32t44.5 -91q-7 -75 -59 -130q-5 -5 -13 -13.5t-14 -14.5t-11 -10q-24 -21 -49 -40
q-14 -11 -50 -37l-56 -40h226l24 83h28z" />
    <glyph glyph-name="threeoldstyle" unicode="&#xf733;" horiz-adv-x="535" 
d="M397 -4q0 143 -180 143h-35v30h35q73 0 112 33t39 98q0 62 -33.5 97.5t-90.5 35.5q-63 0 -101 -38v-56q0 -15 -10.5 -25.5t-26.5 -10.5q-36 0 -36 45q0 54 54 85q55 32 129 32q87 0 139 -43.5t52 -117.5q0 -57 -31.5 -95t-85.5 -54q147 -41 147 -166q0 -111 -102 -174
q-101 -64 -279 -70l-18 18q158 14 240 75t82 158z" />
    <glyph glyph-name="fouroldstyle" unicode="&#xf734;" horiz-adv-x="579" 
d="M444 0v-250h-71v250h-316v25q172 229 172 435h74q0 -201 -205 -430h275v217l59 59l12 -12v-264h78v-30h-78z" />
    <glyph glyph-name="fiveoldstyle" unicode="&#xf735;" horiz-adv-x="500" 
d="M368 5q0 75 -43 116t-119 41q-68 0 -111 -33l-21 21l26 310q182 0 290 12v-67h-253l-34 -242q52 31 125 31q100 0 158.5 -51t58.5 -141q0 -116 -97.5 -182.5t-277.5 -74.5l-18 18q157 14 236.5 76.5t79.5 165.5z" />
    <glyph glyph-name="sixoldstyle" unicode="&#xf736;" horiz-adv-x="558" 
d="M133 366q55 61 154 61t157 -58q59 -57 59 -154q0 -100 -61 -158t-158 -58q-112 0 -170.5 80t-58.5 229q0 212 110 325q109 114 281 123l18 -18q-152 -20 -237 -120q-87 -100 -94 -252zM131 310q0 -283 152 -283q64 0 104 49t40 132q0 87 -43.5 134.5t-114.5 47.5
q-47 0 -84 -22t-54 -58z" />
    <glyph glyph-name="sevenoldstyle" unicode="&#xf737;" horiz-adv-x="539" 
d="M282 -250h-74q0 136 52 271q23 61 50 120q24 53 63 132q38 78 61 128h-320l-29 -79h-28l12 138h417v-25l-66 -164q-54 -133 -71 -178q-23 -64 -45 -160q-22 -95 -22 -183z" />
    <glyph glyph-name="eightoldstyle" unicode="&#xf738;" horiz-adv-x="578" 
d="M488 580q0 -68 -33.5 -111t-96.5 -72q79 -36 118 -79q41 -44 41 -124q0 -94 -59 -147t-174 -53q-109 0 -166 49.5t-57 135.5q0 75 39.5 121.5t118.5 81.5q-68 29 -100.5 70.5t-32.5 112.5q0 88 51.5 139.5t153.5 51.5q96 0 146.5 -47.5t50.5 -128.5zM280 358l-31 11
q-60 -34 -88 -78.5t-28 -106.5q0 -78 40.5 -118.5t113.5 -40.5q76 0 119 42.5t43 119.5q0 70 -38 102q-38 34 -131 69zM300 421l29 -12q46 33 67.5 72t21.5 94q0 72 -35 111t-96 39q-63 0 -99 -40t-36 -110q0 -48 23 -84q13 -16 31 -28q36 -21 94 -42z" />
    <glyph glyph-name="nineoldstyle" unicode="&#xf739;" horiz-adv-x="558" 
d="M421 94q-57 -60 -154 -60t-154.5 56.5t-57.5 153.5q0 102 63 161q63 60 162 60q108 0 164.5 -76.5t56.5 -223.5q0 -197 -101 -301t-289 -117l-18 18q153 18 234.5 103t93.5 226zM424 151q0 283 -144 283q-67 0 -108 -51.5t-41 -136.5q0 -84 43 -130t112 -46q47 0 83.5 22
t54.5 59z" />
    <glyph glyph-name="CR" horiz-adv-x="333" 
 />
    <glyph glyph-name="T_h" horiz-adv-x="1156" 
d="M723 367v-327l58 -17v-23h-192v24l60 22v624h-274v-629l65 -18v-23h-206v24l65 24v622h-192l-35 -95h-27l11 125h533l122 32l12 -13v-259l-2 -57l3 -3q32 31 87 47q57 17 101 17q67 0 103 -43.5t36 -118.5v-262l60 -17v-23h-191v24l58 22v251q0 61 -26 96t-73 35
q-36 0 -81 -16q-46 -16 -75 -45z" />
    <glyph glyph-name="T_h.caron" horiz-adv-x="1156" 
d="M723 367v-327l58 -17v-23h-192v24l60 22v624h-274v-629l65 -18v-23h-206v24l65 24v622h-192l-35 -95h-27l11 125h533l122 32l12 -13v-259l-2 -57l3 -3q32 31 87 47q57 17 101 17q67 0 103 -43.5t36 -118.5v-262l60 -17v-23h-191v24l58 22v251q0 61 -26 96t-73 35
q-36 0 -81 -16q-46 -16 -75 -45zM480 893l-138 -129h-10l-138 129l18 18l125 -80l124 80z" />
    <glyph glyph-name="T_h.commaaccent" horiz-adv-x="1156" 
d="M723 367v-327l58 -17v-23h-192v24l60 22v624h-274v-629l65 -18v-23h-206v24l65 24v622h-192l-35 -95h-27l11 125h533l122 32l12 -13v-259l-2 -57l3 -3q32 31 87 47q57 17 101 17q67 0 103 -43.5t36 -118.5v-262l60 -17v-23h-191v24l58 22v251q0 61 -26 96t-73 35
q-36 0 -81 -16q-46 -16 -75 -45zM311 -250l-13 13q16 15 28 38.5t12 37.5q0 2 -2 8q-18 0 -31 12.5t-13 30.5t12.5 30.5t31.5 12.5q45 0 45 -54q0 -59 -70 -129z" />
    <glyph glyph-name="A.smcp" 
d="M274 476h34l199 -442l45 -14v-20h-162v20l44 14l-55 122h-221l-54 -122l58 -14v-20h-130v20l43 14zM368 182l-99 221l-99 -221h198z" />
    <glyph glyph-name="Aacute.smcp" 
d="M274 476h34l199 -442l45 -14v-20h-162v20l44 14l-55 122h-221l-54 -122l58 -14v-20h-130v20l43 14zM368 182l-99 221l-99 -221h198zM248 515l-14 14l101 97l42 -42z" />
    <glyph glyph-name="Abreve.smcp" 
d="M274 476h34l199 -442l45 -14v-20h-162v20l44 14l-55 122h-221l-54 -122l58 -14v-20h-130v20l43 14zM368 182l-99 221l-99 -221h198zM335 590q0 13 9.5 22t22.5 9t22 -9t9 -24q0 -28 -31.5 -46t-75.5 -18t-75.5 18t-31.5 46q0 15 8.5 24t21.5 9t22 -9t9 -22q0 -43 46 -43
q44 0 44 43z" />
    <glyph glyph-name="Acircumflex.smcp" 
d="M274 476h34l199 -442l45 -14v-20h-162v20l44 14l-55 122h-221l-54 -122l58 -14v-20h-130v20l43 14zM368 182l-99 221l-99 -221h198zM189 529l98 97h9l99 -97l-15 -14l-89 53l-88 -53z" />
    <glyph glyph-name="Agrave.smcp" 
d="M274 476h34l199 -442l45 -14v-20h-162v20l44 14l-55 122h-221l-54 -122l58 -14v-20h-130v20l43 14zM368 182l-99 221l-99 -221h198zM206 584l42 42l101 -97l-14 -14z" />
    <glyph glyph-name="Adieresis.smcp" 
d="M274 476h34l199 -442l45 -14v-20h-162v20l44 14l-55 122h-221l-54 -122l58 -14v-20h-130v20l43 14zM368 182l-99 221l-99 -221h198zM214 603q16 0 27.5 -11.5t11.5 -27.5q0 -26 -24 -37t-43 8q-18 19 -8 43.5t36 24.5zM368 603q16 0 27.5 -11.5t11.5 -27.5
q0 -26 -24.5 -36.5t-43.5 7.5q-18 19 -7.5 43.5t36.5 24.5z" />
    <glyph glyph-name="Amacron.smcp" 
d="M274 476h34l199 -442l45 -14v-20h-162v20l44 14l-55 122h-221l-54 -122l58 -14v-20h-130v20l43 14zM368 182l-99 221l-99 -221h198zM379 543h-176v31h176v-31z" />
    <glyph glyph-name="Aogonek.smcp" 
d="M543 -111l8 -8q-32 -31 -66 -31q-43 0 -43 43q0 53 51 107h-103v20l44 14l-55 122h-221l-54 -122l58 -14v-20h-130v20l43 14l199 442h34l199 -442l45 -14v-20h-38q-38 -53 -38 -98q0 -28 26 -28q23 0 41 15zM368 182l-99 221l-99 -221h198z" />
    <glyph glyph-name="Aring.smcp" 
d="M274 476h34l199 -442l45 -14v-20h-162v20l44 14l-55 122h-221l-54 -122l58 -14v-20h-130v20l43 14zM368 182l-99 221l-99 -221h198zM233 561q0 25 16 40.5t42 15.5q27 0 43.5 -15.5t16.5 -40.5q0 -26 -16.5 -40.5t-43.5 -14.5t-42.5 14.5t-15.5 40.5zM269 588
q-8 -10 -8 -27t8 -28q8 -10 22 -10t22 10q9 11 9 28t-9 27q-8 11 -22 11t-22 -11z" />
    <glyph glyph-name="Atilde.smcp" 
d="M274 476h34l199 -442l45 -14v-20h-162v20l44 14l-55 122h-221l-54 -122l58 -14v-20h-130v20l43 14zM368 182l-99 221l-99 -221h198zM189 527l-14 14q59 58 86 58q16 0 38 -16t40 -16q26 0 57 31l14 -13q-59 -59 -90 -59q-14 0 -36 16t-40 16q-24 0 -55 -31z" />
    <glyph glyph-name="AE.smcp" horiz-adv-x="635" 
d="M290 17l45 12l-23 127h-154l-54 -122l58 -14v-20h-130v20l43 14l199 442h285l8 -90h-25l-26 64h-188l34 -193h110l13 48h24v-122h-24l-13 48h-107l37 -205h122l26 64h25l-8 -90h-277v17zM309 182l-40 221l-99 -221h139z" />
    <glyph glyph-name="AEacute.smcp" horiz-adv-x="635" 
d="M290 17l45 12l-23 127h-154l-54 -122l58 -14v-20h-130v20l43 14l199 442h285l8 -90h-25l-26 64h-188l34 -193h110l13 48h24v-122h-24l-13 48h-107l37 -205h122l26 64h25l-8 -90h-277v17zM309 182l-40 221l-99 -221h139zM296 515l-15 14l102 97l42 -42z" />
    <glyph glyph-name="B.smcp" horiz-adv-x="510" 
d="M49 459v17h213q75 0 121.5 -33t46.5 -87q0 -41 -26.5 -70t-72.5 -41q56 -12 87 -43t31 -76q0 -57 -51.5 -91.5t-135.5 -34.5h-213v17l46 12v418zM167 231v-205h85q57 0 89 26.5t32 76.5t-32 76t-89 26h-85zM252 450h-85v-193h85q47 0 74.5 25t27.5 71t-27.5 71.5
t-74.5 25.5z" />
    <glyph glyph-name="C.smcp" horiz-adv-x="547" 
d="M468 84l17 -17q-76 -71 -185 -71q-110 0 -175 65q-64 64 -64 176t65 177q66 66 175 66q81 0 137 -34l25 14l10 -9l10 -95h-26q-34 97 -144 97q-84 0 -130 -55t-46 -159q0 -98 47 -154t136 -56q93 0 148 55z" />
    <glyph glyph-name="Cacute.smcp" horiz-adv-x="547" 
d="M468 84l17 -17q-76 -71 -185 -71q-110 0 -175 65q-64 64 -64 176t65 177q66 66 175 66q81 0 137 -34l25 14l10 -9l10 -95h-26q-34 97 -144 97q-84 0 -130 -55t-46 -159q0 -98 47 -154t136 -56q93 0 148 55zM259 515l-14 14l102 97l41 -42z" />
    <glyph glyph-name="Ccaron.smcp" horiz-adv-x="547" 
d="M468 84l17 -17q-76 -71 -185 -71q-110 0 -175 65q-64 64 -64 176t65 177q66 66 175 66q81 0 137 -34l25 14l10 -9l10 -95h-26q-34 97 -144 97q-84 0 -130 -55t-46 -159q0 -98 47 -154t136 -56q93 0 148 55zM403 611l-99 -96h-9l-98 96l14 15l89 -54l88 54z" />
    <glyph glyph-name="Ccedilla.smcp" horiz-adv-x="547" 
d="M255 -66l34 62q-105 3 -166.5 67.5t-61.5 173.5q0 112 65 177q66 66 175 66q81 0 137 -34l25 14l10 -9l10 -95h-26q-34 97 -144 97q-84 0 -130 -55t-46 -159q0 -98 47 -154t136 -56q93 0 148 55l17 -17q-69 -66 -174 -71l-13 -25q55 0 55 -32q0 -22 -67 -89l-9 9
q34 34 34 54q0 21 -56 21z" />
    <glyph glyph-name="Ccircumflex.smcp" horiz-adv-x="547" 
d="M468 84l17 -17q-76 -71 -185 -71q-110 0 -175 65q-64 64 -64 176t65 177q66 66 175 66q81 0 137 -34l25 14l10 -9l10 -95h-26q-34 97 -144 97q-84 0 -130 -55t-46 -159q0 -98 47 -154t136 -56q93 0 148 55zM197 529l99 97h9l98 -97l-15 -14l-88 53l-88 -53z" />
    <glyph glyph-name="Cdotaccent.smcp" horiz-adv-x="547" 
d="M468 84l17 -17q-76 -71 -185 -71q-110 0 -175 65q-64 64 -64 176t65 177q66 66 175 66q81 0 137 -34l25 14l10 -9l10 -95h-26q-34 97 -144 97q-84 0 -130 -55t-46 -159q0 -98 47 -154t136 -56q93 0 148 55zM268 546q-12 12 -12 30t12 29q12 12 30 12t30 -12
q12 -11 12 -29t-12 -30t-30 -12t-30 12z" />
    <glyph glyph-name="D.smcp" horiz-adv-x="562" 
d="M49 459v17h214q108 0 172 -64q66 -63 66 -174q0 -110 -66 -175q-65 -63 -172 -63h-214v17l46 12v418zM263 450h-96v-424h95q74 0 118.5 55.5t44.5 155.5q0 101 -44 157t-118 56z" />
    <glyph glyph-name="Dcaron.smcp" horiz-adv-x="562" 
d="M49 459v17h214q108 0 172 -64q66 -63 66 -174q0 -110 -66 -175q-65 -63 -172 -63h-214v17l46 12v418zM263 450h-96v-424h95q74 0 118.5 55.5t44.5 155.5q0 101 -44 157t-118 56zM377 611l-99 -96h-8l-100 96l15 15l88 -54l89 54z" />
    <glyph glyph-name="Dcroat.smcp" horiz-adv-x="562" 
d="M95 227h-46v16l46 10v194l-46 12v17h214q108 0 172 -64q66 -63 66 -174q0 -110 -66 -175q-65 -63 -172 -63h-214v17l46 12v198zM263 450h-96v-197h114v-26h-114v-201h95q74 0 118.5 55.5t44.5 155.5q0 101 -44 157t-118 56z" />
    <glyph glyph-name="Eth.smcp" horiz-adv-x="562" 
d="M95 227h-46v16l46 10v194l-46 12v17h214q108 0 172 -64q66 -63 66 -174q0 -110 -66 -175q-65 -63 -172 -63h-214v17l46 12v198zM263 450h-96v-197h114v-26h-114v-201h95q74 0 118.5 55.5t44.5 155.5q0 101 -44 157t-118 56z" />
    <glyph glyph-name="Thorn.smcp" horiz-adv-x="483" 
d="M212 456l-45 -15v-60h78q81 0 129 -36.5t48 -99.5t-48 -100t-129 -37h-45l-10 10v16h45q51 0 81 29t30 82q0 52 -30 81t-81 29h-68v-318l66 -17v-20h-184v21l46 18v403l-46 14v20h163v-20z" />
    <glyph glyph-name="E.smcp" horiz-adv-x="488" 
d="M167 231v-205h210l26 64h25l-8 -90h-371v17l46 12v418l-46 12v17h364l8 -90h-25l-26 64h-203v-193h159l13 48h22v-122h-22l-13 48h-159z" />
    <glyph glyph-name="Eacute.smcp" horiz-adv-x="488" 
d="M167 231v-205h210l26 64h25l-8 -90h-371v17l46 12v418l-46 12v17h364l8 -90h-25l-26 64h-203v-193h159l13 48h22v-122h-22l-13 48h-159zM201 515l-15 14l102 97l41 -42z" />
    <glyph glyph-name="Ebreve.smcp" horiz-adv-x="488" 
d="M167 231v-205h210l26 64h25l-8 -90h-371v17l46 12v418l-46 12v17h364l8 -90h-25l-26 64h-203v-193h159l13 48h22v-122h-22l-13 48h-159zM289 590q0 13 9 22t22 9t21.5 -9t8.5 -24q0 -28 -31.5 -46t-75.5 -18t-75 18t-31 46q0 21 15 29t30.5 0t15.5 -27q0 -43 45 -43
q46 0 46 43z" />
    <glyph glyph-name="Ecaron.smcp" horiz-adv-x="488" 
d="M167 231v-205h210l26 64h25l-8 -90h-371v17l46 12v418l-46 12v17h364l8 -90h-25l-26 64h-203v-193h159l13 48h22v-122h-22l-13 48h-159zM347 611l-99 -96h-8l-100 96l15 15l88 -54l89 54z" />
    <glyph glyph-name="Ecircumflex.smcp" horiz-adv-x="488" 
d="M167 231v-205h210l26 64h25l-8 -90h-371v17l46 12v418l-46 12v17h364l8 -90h-25l-26 64h-203v-193h159l13 48h22v-122h-22l-13 48h-159zM140 529l100 97h8l99 -97l-15 -14l-89 53l-88 -53z" />
    <glyph glyph-name="Edieresis.smcp" horiz-adv-x="488" 
d="M167 231v-205h210l26 64h25l-8 -90h-371v17l46 12v418l-46 12v17h364l8 -90h-25l-26 64h-203v-193h159l13 48h22v-122h-22l-13 48h-159zM138 535q-11 12 -11 29t11 28q12 11 29 11t28 -11q12 -11 12 -28t-12 -29q-11 -11 -28 -11t-29 11zM360 564q2 -24 -18.5 -34.5
t-41 0t-19.5 34.5q0 17 11.5 28t28.5 11t28 -11.5t11 -27.5z" />
    <glyph glyph-name="Edotaccent.smcp" horiz-adv-x="488" 
d="M167 231v-205h210l26 64h25l-8 -90h-371v17l46 12v418l-46 12v17h364l8 -90h-25l-26 64h-203v-193h159l13 48h22v-122h-22l-13 48h-159zM244 617q26 2 36.5 -19.5t-0.5 -43.5t-36 -20q-18 0 -30 12t-12 30t12 29.5t30 11.5z" />
    <glyph glyph-name="Egrave.smcp" horiz-adv-x="488" 
d="M167 231v-205h210l26 64h25l-8 -90h-371v17l46 12v418l-46 12v17h364l8 -90h-25l-26 64h-203v-193h159l13 48h22v-122h-22l-13 48h-159zM158 584l42 42l101 -97l-14 -14z" />
    <glyph glyph-name="Emacron.smcp" horiz-adv-x="488" 
d="M167 231v-205h210l26 64h25l-8 -90h-371v17l46 12v418l-46 12v17h364l8 -90h-25l-26 64h-203v-193h159l13 48h22v-122h-22l-13 48h-159zM331 543h-175v31h175v-31z" />
    <glyph glyph-name="Eogonek.smcp" horiz-adv-x="488" 
d="M420 -111l8 -8q-32 -31 -66 -31q-43 0 -43 43q0 51 51 107h-321v17l46 12v418l-46 12v17h364l8 -90h-25l-26 64h-203v-193h159l13 48h22v-122h-22l-13 48h-159v-205h210l26 64h25l-8 -90h-29q-38 -53 -38 -98q0 -28 26 -28q23 0 41 15z" />
    <glyph glyph-name="F.smcp" horiz-adv-x="474" 
d="M331 182l-13 48h-151v-193l66 -17v-20h-184v21l46 18v408l-46 12v17h357l8 -90h-25l-26 64h-196v-194h151l13 48h22v-122h-22z" />
    <glyph glyph-name="G.smcp" horiz-adv-x="578" 
d="M529 210l-46 -15v-171l-9 -9l-33 19q-61 -38 -142 -38q-109 0 -174 65q-64 64 -64 176t65 177q66 66 175 66q81 0 137 -34l25 14l10 -9l10 -95h-26q-34 97 -144 97q-84 0 -130 -55t-46 -159q0 -98 45.5 -154t130.5 -56q59 0 99 27v140l-46 14v20h163v-20z" />
    <glyph glyph-name="Gbreve.smcp" horiz-adv-x="578" 
d="M529 210l-46 -15v-171l-9 -9l-33 19q-61 -38 -142 -38q-109 0 -174 65q-64 64 -64 176t65 177q66 66 175 66q81 0 137 -34l25 14l10 -9l10 -95h-26q-34 97 -144 97q-84 0 -130 -55t-46 -159q0 -98 45.5 -154t130.5 -56q59 0 99 27v140l-46 14v20h163v-20zM344 590
q0 13 9.5 22t22.5 9q12 0 21 -9t9 -24q0 -28 -31.5 -46t-75.5 -18t-75.5 18t-31.5 46q0 21 15.5 29t31 0t15.5 -27q0 -43 45 -43t45 43z" />
    <glyph glyph-name="Gcircumflex.smcp" horiz-adv-x="578" 
d="M529 210l-46 -15v-171l-9 -9l-33 19q-61 -38 -142 -38q-109 0 -174 65q-64 64 -64 176t65 177q66 66 175 66q81 0 137 -34l25 14l10 -9l10 -95h-26q-34 97 -144 97q-84 0 -130 -55t-46 -159q0 -98 45.5 -154t130.5 -56q59 0 99 27v140l-46 14v20h163v-20zM200 529l98 97
h8l100 -97l-15 -14l-88 53l-89 -53z" />
    <glyph glyph-name="Gcommaaccent.smcp" horiz-adv-x="578" 
d="M529 210l-46 -15v-171l-9 -9l-33 19q-61 -38 -142 -38q-109 0 -174 65q-64 64 -64 176t65 177q66 66 175 66q81 0 137 -34l25 14l10 -9l10 -95h-26q-34 97 -144 97q-84 0 -130 -55t-46 -159q0 -98 45.5 -154t130.5 -56q59 0 99 27v140l-46 14v20h163v-20zM283 -170
l-10 10q11 9 19.5 25t8.5 25q0 3 -2 5q-19 -1 -27.5 14.5t0 31.5t28.5 15q33 0 33 -37q0 -39 -50 -89z" />
    <glyph glyph-name="Gdotaccent.smcp" horiz-adv-x="578" 
d="M529 210l-46 -15v-171l-9 -9l-33 19q-61 -38 -142 -38q-109 0 -174 65q-64 64 -64 176t65 177q66 66 175 66q81 0 137 -34l25 14l10 -9l10 -95h-26q-34 97 -144 97q-84 0 -130 -55t-46 -159q0 -98 45.5 -154t130.5 -56q59 0 99 27v140l-46 14v20h163v-20zM299 617
q26 2 37 -19.5t0 -43.5t-37 -20q-18 0 -30 12t-12 30t12 29.5t30 11.5z" />
    <glyph glyph-name="H.smcp" horiz-adv-x="592" 
d="M49 0v21l46 18v403l-46 14v20h163v-20l-45 -15v-187h258v188l-45 14v20h163v-20l-46 -15v-407l46 -14v-20h-163v21l45 18v189h-258v-194l45 -14v-20h-163z" />
    <glyph glyph-name="Hbar.smcp" horiz-adv-x="580" 
d="M95 337h-43v17l43 9v79l-46 14v20h164v-20l-46 -15v-78h247v79l-45 14v20h162v-20l-45 -15v-78l45 -9v-17h-45v-303l45 -14v-20h-162v21l45 18v189h-247v-194l46 -14v-20h-164v21l46 18v298zM167 337v-83h247v83h-247z" />
    <glyph glyph-name="Hcircumflex.smcp" horiz-adv-x="592" 
d="M49 0v21l46 18v403l-46 14v20h163v-20l-45 -15v-187h258v188l-45 14v20h163v-20l-46 -15v-407l46 -14v-20h-163v21l45 18v189h-258v-194l45 -14v-20h-163zM193 529l98 97h9l99 -97l-15 -14l-88 53l-89 -53z" />
    <glyph glyph-name="I.smcp" horiz-adv-x="261" 
d="M211 456l-45 -15v-407l45 -14v-20h-161v21l46 18v403l-46 14v20h161v-20z" />
    <glyph glyph-name="Iacute.smcp" horiz-adv-x="261" 
d="M211 456l-45 -15v-407l45 -14v-20h-161v21l46 18v403l-46 14v20h161v-20zM88 515l-15 14l101 97l43 -42z" />
    <glyph glyph-name="Ibreve.smcp" horiz-adv-x="261" 
d="M211 456l-45 -15v-407l45 -14v-20h-162v21l46 18v403l-46 14v20h162v-20zM175 590q0 13 9.5 22t22.5 9q12 0 21 -9t9 -24q0 -28 -31.5 -46t-75.5 -18t-75.5 18t-31.5 46q0 21 15.5 29t31 0t15.5 -27q0 -43 45 -43t45 43z" />
    <glyph glyph-name="Icircumflex.smcp" horiz-adv-x="261" 
d="M211 456l-46 -15v-407l46 -14v-20h-162v21l46 18v403l-46 14v20h162v-20zM27 529l100 97h8l98 -97l-14 -14l-89 53l-88 -53z" />
    <glyph glyph-name="Idieresis.smcp" horiz-adv-x="260" 
d="M211 456l-46 -15v-407l46 -14v-20h-162v21l46 18v403l-46 14v20h162v-20zM26 564q0 16 11 27.5t28 11.5q24 2 34.5 -18.5t0 -41t-34.5 -19.5q-17 0 -28 11.5t-11 28.5zM166 535q-11 12 -11 29t11 28q12 11 29 11t28 -11q12 -11 12 -28t-12 -29q-11 -11 -28 -11t-29 11z
" />
    <glyph glyph-name="Idotaccent.smcp" horiz-adv-x="261" 
d="M211 456l-45 -15v-407l45 -14v-20h-161v21l46 18v403l-46 14v20h161v-20zM101 546q-12 12 -12 30t12 29q12 12 30 12t29 -12q12 -11 12 -29t-12 -30q-11 -12 -29 -12t-30 12z" />
    <glyph glyph-name="Igrave.smcp" horiz-adv-x="261" 
d="M211 456l-45 -15v-407l45 -14v-20h-161v21l45 18v403l-45 14v20h161v-20zM50 584l42 42l102 -97l-15 -14z" />
    <glyph glyph-name="Imacron.smcp" horiz-adv-x="261" 
d="M211 456l-45 -15v-407l45 -14v-20h-161v21l45 18v403l-45 14v20h161v-20zM218 543h-175v31h175v-31z" />
    <glyph glyph-name="Iogonek.smcp" horiz-adv-x="261" 
d="M203 -111l8 -8q-31 -31 -65 -31q-44 0 -44 43q0 51 52 107h-104v21l46 18v403l-46 14v20h161v-20l-45 -15v-407l45 -14v-20h-36q-37 -49 -37 -98q0 -28 24 -28t41 15z" />
    <glyph glyph-name="Itilde.smcp" horiz-adv-x="261" 
d="M211 456l-45 -15v-407l45 -14v-20h-161v21l45 18v403l-45 14v20h161v-20zM28 527l-14 14q59 58 87 58q16 0 38 -16t39 -16q27 0 58 31l13 -13q-57 -59 -89 -59q-15 0 -37 16t-40 16q-24 0 -55 -31z" />
    <glyph glyph-name="IJ.smcp" horiz-adv-x="473" 
d="M211 456l-45 -15v-407l45 -14v-20h-161v21l46 18v403l-46 14v20h161v-20zM307 0v442l-46 14v20h162v-20l-46 -15v-441q0 -53 -28.5 -99.5t-80.5 -75.5l-17 17q56 53 56 158z" />
    <glyph glyph-name="J.smcp" horiz-adv-x="261" 
d="M96 0v442l-46 14v20h161v-20l-45 -15v-441q0 -54 -28.5 -100t-81.5 -75l-16 17q56 53 56 158z" />
    <glyph glyph-name="Jcircumflex.smcp" horiz-adv-x="261" 
d="M95 0v442l-46 14v20h162v-20l-46 -15v-441q0 -53 -28.5 -99.5t-80.5 -75.5l-16 17q55 54 55 158zM27 529l100 97h8l98 -97l-14 -14l-89 53l-88 -53z" />
    <glyph glyph-name="K.smcp" horiz-adv-x="529" 
d="M210 456l-46 -15v-216l219 217l-59 14v20h142v-20l-44 -14l-149 -149l174 -259l46 -14v-20h-107l-164 244l-58 -58v-152l46 -14v-20h-163v21l46 18v403l-46 14v20h163v-20z" />
    <glyph glyph-name="Kcommaaccent.smcp" horiz-adv-x="529" 
d="M210 456l-46 -15v-216l219 217l-59 14v20h142v-20l-44 -14l-149 -149l174 -259l46 -14v-20h-107l-164 244l-58 -58v-152l46 -14v-20h-163v21l46 18v403l-46 14v20h163v-20zM246 -170l-9 10q11 9 19.5 25t8.5 25q0 2 -1 3v2q-20 0 -28.5 15t0 30.5t28.5 15.5q33 0 33 -37
q0 -38 -51 -89z" />
    <glyph glyph-name="L.smcp" horiz-adv-x="469" 
d="M167 441v-415h191l26 64h25l-8 -90h-352v17l46 12v413l-46 14v20h163v-20z" />
    <glyph glyph-name="Lacute.smcp" horiz-adv-x="469" 
d="M167 441v-415h191l26 64h25l-8 -90h-352v17l46 12v413l-46 14v20h163v-20zM88 515l-15 14l101 97l43 -42z" />
    <glyph glyph-name="Lcaron.smcp" horiz-adv-x="469" 
d="M167 441v-415h191l26 64h25l-8 -90h-352v17l46 12v413l-46 14v20h163v-20zM234 603l-99 -96h-8l-99 96l15 14l88 -53l88 53z" />
    <glyph glyph-name="Lcommaaccent.smcp" horiz-adv-x="469" 
d="M167 441v-415h191l26 64h25l-8 -90h-352v17l46 12v413l-46 14v20h163v-20zM217 -170l-10 10q11 9 19.5 25t8.5 25q0 2 -1 3v2q-20 0 -28.5 15t0 30.5t28.5 15.5q33 0 33 -37q0 -39 -50 -89z" />
    <glyph glyph-name="Ldot.smcp" horiz-adv-x="469" 
d="M167 441v-415h191l26 64h25l-8 -90h-352v17l46 12v413l-46 14v20h163v-20zM382 238q2 -24 -18.5 -34t-41 0t-19.5 34q0 17 11.5 28t28.5 11t28 -11.5t11 -27.5z" />
    <glyph glyph-name="Lslash.smcp" horiz-adv-x="469" 
d="M94 155l-38 -37l-18 19l56 55v250l-45 14v20h163v-20l-45 -15v-195l84 82l18 -18l-102 -100v-184h190l27 64h25l-9 -90h-351v17l45 12v126z" />
    <glyph glyph-name="M.smcp" horiz-adv-x="704" 
d="M632 456l-45 -15l32 -407l46 -14v-20h-163v21l45 18l-26 345l-174 -384h-34l-173 384l-29 -357l45 -14v-13h-117v14l46 18l32 410l-45 14v20h101l179 -403l180 403h100v-20z" />
    <glyph glyph-name="N.smcp" horiz-adv-x="555" 
d="M49 0v14l46 18v410l-46 14v20h117l268 -371v344l-45 14v13h117v-13l-46 -16v-447h-33l-306 424v-397l45 -14v-13h-117z" />
    <glyph glyph-name="Nacute.smcp" horiz-adv-x="555" 
d="M49 0v14l46 18v410l-46 14v20h117l268 -371v344l-45 14v13h117v-13l-46 -16v-447h-33l-306 424v-397l45 -14v-13h-117zM234 515l-15 14l103 97l41 -42z" />
    <glyph glyph-name="Ncaron.smcp" horiz-adv-x="555" 
d="M49 0v14l46 18v410l-46 14v20h117l268 -371v344l-45 14v13h117v-13l-46 -16v-447h-33l-306 424v-397l45 -14v-13h-117zM381 611l-100 -96h-8l-99 96l15 15l88 -54l89 54z" />
    <glyph glyph-name="Ncommaaccent.smcp" horiz-adv-x="555" 
d="M49 0v14l46 18v410l-46 14v20h117l268 -371v344l-45 14v13h117v-13l-46 -16v-447h-33l-306 424v-397l45 -14v-13h-117zM260 -170l-9 10q11 9 19.5 25t8.5 25q0 3 -2 5q-19 -1 -27.5 14.5t0 31.5t28.5 15q32 0 32 -37q0 -39 -50 -89z" />
    <glyph glyph-name="Ntilde.smcp" horiz-adv-x="555" 
d="M49 0v14l46 18v410l-46 14v20h117l268 -371v344l-45 14v13h117v-13l-46 -16v-447h-33l-306 424v-397l45 -14v-13h-117zM175 527l-14 14q59 58 86 58q16 0 38 -16t40 -16q29 0 57 31l14 -13q-57 -59 -89 -59q-15 0 -37 16t-40 16q-24 0 -55 -31z" />
    <glyph glyph-name="Eng.smcp" horiz-adv-x="555" 
d="M49 0v14l46 18v410l-46 14v20h119l266 -414v387l-45 14v13h117v-13l-46 -16v-447q0 -54 -28.5 -100t-81.5 -75l-16 17q55 54 55 158v9l-268 415v-397l45 -14v-13h-117z" />
    <glyph glyph-name="O.smcp" horiz-adv-x="592" 
d="M125 61q-64 65 -64 177t64 176q65 66 171 66t171 -66q65 -65 65 -176q0 -110 -65 -177q-65 -65 -171 -65t-171 65zM137 237q0 -101 43 -158t116 -57t116 57t43 158q0 103 -43 160t-116 57t-116 -57t-43 -160z" />
    <glyph glyph-name="Oacute.smcp" horiz-adv-x="592" 
d="M125 61q-64 65 -64 177t64 176q65 66 171 66t171 -66q65 -65 65 -176q0 -110 -65 -177q-65 -65 -171 -65t-171 65zM137 237q0 -101 43 -158t116 -57t116 57t43 158q0 103 -43 160t-116 57t-116 -57t-43 -160zM253 515l-15 14l101 97l43 -42z" />
    <glyph glyph-name="Obreve.smcp" horiz-adv-x="592" 
d="M125 61q-64 65 -64 177t64 176q65 66 171 66t171 -66q65 -65 65 -176q0 -110 -65 -177q-65 -65 -171 -65t-171 65zM137 237q0 -101 43 -158t116 -57t116 57t43 158q0 103 -43 160t-116 57t-116 -57t-43 -160zM341 590q0 13 9.5 22t22.5 9q12 0 21 -9t9 -24
q0 -28 -31.5 -46t-75.5 -18t-75.5 18t-31.5 46q0 21 15.5 29t31 0t15.5 -27q0 -43 45 -43t45 43z" />
    <glyph glyph-name="Ocircumflex.smcp" horiz-adv-x="592" 
d="M125 61q-64 65 -64 177t64 176q65 66 171 66t171 -66q65 -65 65 -176q0 -110 -65 -177q-65 -65 -171 -65t-171 65zM137 237q0 -101 43 -158t116 -57t116 57t43 158q0 103 -43 160t-116 57t-116 -57t-43 -160zM193 529l99 97h8l99 -97l-15 -14l-88 53l-88 -53z" />
    <glyph glyph-name="Odieresis.smcp" horiz-adv-x="592" 
d="M125 61q-64 65 -64 177t64 176q65 66 171 66t171 -66q65 -65 65 -176q0 -110 -65 -177q-65 -65 -171 -65t-171 65zM137 237q0 -101 43 -158t116 -57t116 57t43 158q0 103 -43 160t-116 57t-116 -57t-43 -160zM180 564q0 16 11 27.5t28 11.5t28 -11t11 -28
q2 -24 -18.5 -34.5t-41 0t-18.5 34.5zM345 535q-11 12 -11 29t11 28t28 11t28 -11t11 -28t-11 -29q-11 -11 -28 -11t-28 11z" />
    <glyph glyph-name="Ograve.smcp" horiz-adv-x="592" 
d="M125 61q-64 65 -64 177t64 176q65 66 171 66t171 -66q65 -65 65 -176q0 -110 -65 -177q-65 -65 -171 -65t-171 65zM137 237q0 -101 43 -158t116 -57t116 57t43 158q0 103 -43 160t-116 57t-116 -57t-43 -160zM210 584l42 42l102 -97l-15 -14z" />
    <glyph glyph-name="Ohungarumlaut.smcp" horiz-adv-x="592" 
d="M125 61q-64 65 -64 177t64 176q65 66 171 66t171 -66q65 -65 65 -176q0 -110 -65 -177q-65 -65 -171 -65t-171 65zM137 237q0 -101 43 -158t116 -57t116 57t43 158q0 103 -43 160t-116 57t-116 -57t-43 -160zM187 515l-14 14l93 97l42 -42zM313 515l-15 14l93 97l42 -42z
" />
    <glyph glyph-name="Omacron.smcp" horiz-adv-x="592" 
d="M125 61q-64 65 -64 177t64 176q65 66 171 66t171 -66q65 -65 65 -176q0 -110 -65 -177q-65 -65 -171 -65t-171 65zM137 237q0 -101 43 -158t116 -57t116 57t43 158q0 103 -43 160t-116 57t-116 -57t-43 -160zM384 543h-176v31h176v-31z" />
    <glyph glyph-name="Oslash.smcp" horiz-adv-x="592" 
d="M138 49l-45 -49h-32l60 65q-60 66 -60 173q0 112 64 176q65 66 171 66q95 0 157 -53l46 49h33l-61 -66q61 -64 61 -172q0 -110 -65 -177q-65 -65 -171 -65q-93 0 -158 53zM137 237q0 -77 24 -128l257 279q-45 66 -122 66q-73 0 -116 -57t-43 -160zM455 237q0 77 -25 128
l-257 -278q42 -65 123 -65q73 0 116 57t43 158z" />
    <glyph glyph-name="Oslashacute.smcp" horiz-adv-x="592" 
d="M138 49l-45 -49h-32l60 65q-60 66 -60 173q0 112 64 176q65 66 171 66q95 0 157 -53l46 49h33l-61 -66q61 -64 61 -172q0 -110 -65 -177q-65 -65 -171 -65q-93 0 -158 53zM137 237q0 -77 24 -128l257 279q-45 66 -122 66q-73 0 -116 -57t-43 -160zM455 237q0 77 -25 128
l-257 -278q42 -65 123 -65q73 0 116 57t43 158zM253 515l-15 14l101 97l43 -42z" />
    <glyph glyph-name="Otilde.smcp" horiz-adv-x="592" 
d="M125 61q-64 65 -64 177t64 176q65 66 171 66t171 -66q65 -65 65 -176q0 -110 -65 -177q-65 -65 -171 -65t-171 65zM137 237q0 -101 43 -158t116 -57t116 57t43 158q0 103 -43 160t-116 57t-116 -57t-43 -160zM194 527l-14 14q59 58 86 58q16 0 38 -16t40 -16q26 0 57 31
l14 -13q-57 -59 -89 -59q-16 0 -38 16q-20 16 -39 16q-24 0 -55 -31z" />
    <glyph glyph-name="OE.smcp" horiz-adv-x="736" 
d="M424 231v-205h201l26 64h26l-8 -90h-323q-27 -4 -50 -4q-106 0 -171 65q-64 65 -64 177t64 176q65 66 171 66q23 0 51 -4h315l8 -90h-26l-26 64h-194v-193h149l14 48h23v-122h-23l-14 48h-149zM296 22q30 0 57 12v408q-27 12 -57 12q-73 0 -116 -57t-43 -160
q0 -101 43 -158t116 -57z" />
    <glyph glyph-name="P.smcp" horiz-adv-x="483" 
d="M235 450h-68v-413l66 -17v-20h-184v21l46 18v408l-46 12v17h196q81 0 129 -37.5t48 -100.5t-48 -100t-129 -37h-45l-10 9v16h45q52 0 81.5 29t29.5 83t-29.5 83t-81.5 29z" />
    <glyph glyph-name="Q.smcp" horiz-adv-x="593" 
d="M558 -41l10 -9q-38 -38 -95 -38q-53 0 -96 21l-38 18q-9 4 -43 25l-37 23q-91 11 -144.5 75t-53.5 164q0 112 64 176q65 66 171 66t171 -66q65 -65 65 -176q0 -91 -46.5 -153t-125.5 -79q12 -8 54 -32q52 -31 101 -31q27 0 43 16zM137 237q0 -101 43 -158t116 -57t116 57
t43 158q0 103 -43 160t-116 57t-116 -57t-43 -160z" />
    <glyph glyph-name="R.smcp" horiz-adv-x="513" 
d="M428 346q0 -50 -33.5 -82.5t-91.5 -40.5q26 -14 57 -67l72 -122l45 -14v-20h-105l-126 218h-79v-184l45 -14v-20h-163v21l46 18v408l-46 12v17h210q76 0 122.5 -35t46.5 -95zM250 450h-83v-207h83q47 0 74.5 27t27.5 76t-27.5 76.5t-74.5 27.5z" />
    <glyph glyph-name="Racute.smcp" horiz-adv-x="513" 
d="M428 346q0 -50 -33.5 -82.5t-91.5 -40.5q26 -14 57 -67l72 -122l45 -14v-20h-105l-126 218h-79v-184l45 -14v-20h-163v21l46 18v408l-46 12v17h210q76 0 122.5 -35t46.5 -95zM250 450h-83v-207h83q47 0 74.5 27t27.5 76t-27.5 76.5t-74.5 27.5zM213 515l-14 14l102 97
l41 -42z" />
    <glyph glyph-name="Rcaron.smcp" horiz-adv-x="513" 
d="M428 346q0 -50 -33.5 -82.5t-91.5 -40.5q26 -14 57 -67l72 -122l45 -14v-20h-105l-126 218h-79v-184l45 -14v-20h-163v21l46 18v408l-46 12v17h210q76 0 122.5 -35t46.5 -95zM250 450h-83v-207h83q47 0 74.5 27t27.5 76t-27.5 76.5t-74.5 27.5zM352 611l-98 -96h-8
l-99 96l14 15l88 -54l89 54z" />
    <glyph glyph-name="Rcommaaccent.smcp" horiz-adv-x="513" 
d="M428 346q0 -50 -33.5 -82.5t-91.5 -40.5q26 -14 57 -67l72 -122l45 -14v-20h-105l-126 218h-79v-184l45 -14v-20h-163v21l46 18v408l-46 12v17h210q76 0 122.5 -35t46.5 -95zM250 450h-83v-207h83q47 0 74.5 27t27.5 76t-27.5 76.5t-74.5 27.5zM239 -170l-10 10
q11 10 20 25.5t9 24.5q0 3 -2 5q-14 0 -23 8.5t-9 21.5q0 14 9 22.5t23 8.5q33 0 33 -37q0 -39 -50 -89z" />
    <glyph glyph-name="S.smcp" horiz-adv-x="456" 
d="M76 7l-9 9l-10 97h25q11 -45 46.5 -68t85.5 -23q53 0 84.5 25t31.5 72q0 38 -25 54q-25 17 -94 40q-61 17 -100 40q-48 31 -48 98q0 60 40 94.5t119 34.5q68 0 117 -28l18 15l9 -9l11 -95h-26q-21 91 -117 91q-48 0 -76.5 -24.5t-28.5 -66.5q0 -35 23 -52q20 -15 84 -35
l62 -21q19 -6 48 -25q50 -32 50 -100q0 -64 -43.5 -99t-131.5 -35q-74 0 -126 28z" />
    <glyph glyph-name="Sacute.smcp" horiz-adv-x="456" 
d="M76 7l-9 9l-10 97h25q11 -45 46.5 -68t85.5 -23q53 0 84.5 25t31.5 72q0 38 -25 54q-25 17 -94 40q-61 17 -100 40q-48 31 -48 98q0 60 40 94.5t119 34.5q68 0 117 -28l18 15l9 -9l11 -95h-26q-21 91 -117 91q-48 0 -76.5 -24.5t-28.5 -66.5q0 -35 23 -52q20 -15 84 -35
l62 -21q19 -6 48 -25q50 -32 50 -100q0 -64 -43.5 -99t-131.5 -35q-74 0 -126 28zM178 515l-15 14l102 97l42 -42z" />
    <glyph glyph-name="Scaron.smcp" horiz-adv-x="456" 
d="M76 7l-9 9l-10 97h25q11 -45 46.5 -68t85.5 -23q53 0 84.5 25t31.5 72q0 38 -25 54q-25 17 -94 40q-61 17 -100 40q-48 31 -48 98q0 60 40 94.5t119 34.5q68 0 117 -28l18 15l9 -9l11 -95h-26q-21 91 -117 91q-48 0 -76.5 -24.5t-28.5 -66.5q0 -35 23 -52q20 -15 84 -35
l62 -21q19 -6 48 -25q50 -32 50 -100q0 -64 -43.5 -99t-131.5 -35q-74 0 -126 28zM325 611l-100 -96h-8l-99 96l15 15l89 -54l88 54z" />
    <glyph glyph-name="Scedilla.smcp" horiz-adv-x="456" 
d="M175 -66l35 62q-63 1 -115 28l-19 -17l-9 9l-10 97h25q11 -45 46.5 -68t85.5 -23q53 0 84.5 25t31.5 72q0 38 -25 54q-25 17 -94 40q-61 17 -100 40q-48 31 -48 98q0 60 40 94.5t119 34.5q68 0 117 -28l18 15l9 -9l11 -95h-26q-21 91 -117 91q-48 0 -76.5 -24.5
t-28.5 -66.5q0 -35 23 -52q20 -15 84 -35l62 -21q19 -6 48 -25q50 -32 50 -100q0 -62 -41 -97t-123 -37l-14 -25q55 0 55 -32q0 -23 -66 -89l-10 9q35 35 35 54q0 21 -57 21z" />
    <glyph glyph-name="Scircumflex.smcp" horiz-adv-x="456" 
d="M76 7l-9 9l-10 97h25q11 -45 46.5 -68t85.5 -23q53 0 84.5 25t31.5 72q0 38 -25 54q-25 17 -94 40q-61 17 -100 40q-48 31 -48 98q0 60 40 94.5t119 34.5q68 0 117 -28l18 15l9 -9l11 -95h-26q-21 91 -117 91q-48 0 -76.5 -24.5t-28.5 -66.5q0 -35 23 -52q20 -15 84 -35
l62 -21q19 -6 48 -25q50 -32 50 -100q0 -64 -43.5 -99t-131.5 -35q-74 0 -126 28zM118 529l99 97h8l100 -97l-15 -14l-89 53l-89 -53z" />
    <glyph glyph-name="Scommaaccent.smcp" horiz-adv-x="456" 
d="M76 7l-9 9l-10 97h25q11 -45 46.5 -68t85.5 -23q53 0 84.5 25t31.5 72q0 38 -25 54q-25 17 -94 40q-61 17 -100 40q-48 31 -48 98q0 60 40 94.5t119 34.5q68 0 117 -28l18 15l9 -9l11 -95h-26q-21 91 -117 91q-48 0 -76.5 -24.5t-28.5 -66.5q0 -35 23 -52q20 -15 84 -35
l62 -21q19 -6 48 -25q50 -32 50 -100q0 -64 -43.5 -99t-131.5 -35q-74 0 -126 28zM204 -170l-10 10q11 9 19.5 25t8.5 25q0 3 -2 5q-20 0 -28 15t0.5 30.5t28.5 15.5q32 0 32 -37t-49 -89z" />
    <glyph glyph-name="T.smcp" horiz-adv-x="518" 
d="M444 386l-27 64h-122v-416l46 -14v-20h-163v21l46 18v411h-123l-26 -66h-26l9 92h403l8 -90h-25z" />
    <glyph glyph-name="Tbar.smcp" horiz-adv-x="518" 
d="M224 224h-76v26h76v200h-123l-26 -66h-26l9 92h403l8 -90h-25l-27 64h-122v-200h76v-26h-76v-190l46 -14v-20h-163v21l46 18v185z" />
    <glyph glyph-name="Tcaron.smcp" horiz-adv-x="518" 
d="M444 386l-27 64h-122v-416l46 -14v-20h-163v21l46 18v411h-123l-26 -66h-26l9 92h403l8 -90h-25zM362 611l-99 -96h-8l-99 96l14 15l88 -54l89 54z" />
    <glyph glyph-name="Tcommaaccent.smcp" horiz-adv-x="518" 
d="M444 386l-27 64h-122v-416l46 -14v-20h-163v21l46 18v411h-123l-26 -66h-26l9 92h403l8 -90h-25zM241 -170l-9 10q11 9 19.5 25t8.5 25q0 3 -2 5q-19 -1 -27.5 14.5t0 31.5t28.5 15q33 0 33 -37q0 -38 -51 -89z" />
    <glyph glyph-name="uni021A.smcp" horiz-adv-x="518" 
d="M444 386l-27 64h-122v-416l46 -14v-20h-163v21l46 18v411h-123l-26 -66h-26l9 92h403l8 -90h-25zM241 -170l-9 10q11 9 19.5 25t8.5 25q0 3 -2 5q-19 -1 -27.5 14.5t0 31.5t28.5 15q33 0 33 -37q0 -38 -51 -89z" />
    <glyph glyph-name="U.smcp" horiz-adv-x="573" 
d="M524 463l-46 -16v-272q0 -81 -52.5 -129.5t-139.5 -48.5t-139 48.5t-52 129.5v267l-46 14v20h163v-20l-45 -15v-266q0 -67 39 -104.5t105 -37.5t105 37.5t39 104.5v274l-45 14v13h114v-13z" />
    <glyph glyph-name="Uacute.smcp" horiz-adv-x="573" 
d="M524 463l-46 -16v-272q0 -81 -52.5 -129.5t-139.5 -48.5t-139 48.5t-52 129.5v267l-46 14v20h163v-20l-45 -15v-266q0 -67 39 -104.5t105 -37.5t105 37.5t39 104.5v274l-45 14v13h114v-13zM248 515l-14 14l102 97l41 -42z" />
    <glyph glyph-name="Ubreve.smcp" horiz-adv-x="573" 
d="M524 463l-46 -16v-272q0 -81 -52.5 -129.5t-139.5 -48.5t-139 48.5t-52 129.5v267l-46 14v20h163v-20l-45 -15v-266q0 -67 39 -104.5t105 -37.5t105 37.5t39 104.5v274l-45 14v13h114v-13zM336 590q0 13 9.5 22t22.5 9t22 -9t9 -24q0 -28 -31.5 -46t-75.5 -18t-75.5 18
t-31.5 46q0 21 15.5 29t31 0t15.5 -27q0 -43 45 -43q44 0 44 43z" />
    <glyph glyph-name="Ucircumflex.smcp" horiz-adv-x="573" 
d="M524 463l-46 -16v-272q0 -81 -52.5 -129.5t-139.5 -48.5t-139 48.5t-52 129.5v267l-46 14v20h163v-20l-45 -15v-266q0 -67 39 -104.5t105 -37.5t105 37.5t39 104.5v274l-45 14v13h114v-13zM189 529l99 97h8l99 -97l-15 -14l-88 53l-89 -53z" />
    <glyph glyph-name="Udieresis.smcp" horiz-adv-x="573" 
d="M524 463l-46 -16v-272q0 -81 -52.5 -129.5t-139.5 -48.5t-139 48.5t-52 129.5v267l-46 14v20h163v-20l-45 -15v-266q0 -67 39 -104.5t105 -37.5t105 37.5t39 104.5v274l-45 14v13h114v-13zM175 564q0 16 11.5 27.5t28.5 11.5t28 -11t11 -28q2 -24 -18.5 -34.5t-41 0
t-19.5 34.5zM329 564q0 16 11.5 27.5t28.5 11.5t28 -11t11 -28q2 -24 -18.5 -34.5t-41 0t-19.5 34.5z" />
    <glyph glyph-name="Ugrave.smcp" horiz-adv-x="573" 
d="M524 463l-46 -16v-272q0 -81 -52.5 -129.5t-139.5 -48.5t-139 48.5t-52 129.5v267l-46 14v20h163v-20l-45 -15v-266q0 -67 39 -104.5t105 -37.5t105 37.5t39 104.5v274l-45 14v13h114v-13zM206 584l42 42l101 -97l-14 -14z" />
    <glyph glyph-name="Uhungarumlaut.smcp" horiz-adv-x="573" 
d="M524 463l-46 -16v-272q0 -81 -52.5 -129.5t-139.5 -48.5t-139 48.5t-52 129.5v267l-46 14v20h163v-20l-45 -15v-266q0 -67 39 -104.5t105 -37.5t105 37.5t39 104.5v274l-45 14v13h114v-13zM183 515l-15 14l94 97l42 -42zM308 515l-14 14l93 97l42 -42z" />
    <glyph glyph-name="Umacron.smcp" horiz-adv-x="573" 
d="M524 463l-46 -16v-272q0 -81 -52.5 -129.5t-139.5 -48.5t-139 48.5t-52 129.5v267l-46 14v20h163v-20l-45 -15v-266q0 -67 39 -104.5t105 -37.5t105 37.5t39 104.5v274l-45 14v13h114v-13zM380 543h-176v31h176v-31z" />
    <glyph glyph-name="Uogonek.smcp" horiz-adv-x="573" 
d="M353 -111l9 -8q-32 -31 -66 -31q-44 0 -44 43q0 49 48 105q-1 0 -6.5 -0.5t-7.5 -0.5q-87 0 -139 48.5t-52 129.5v267l-46 14v20h163v-20l-45 -15v-266q0 -67 39 -104.5t105 -37.5t105 37.5t39 104.5v274l-45 14v13h114v-13l-46 -16v-272q0 -72 -41.5 -118.5
t-111.5 -56.5q-38 -50 -38 -98q0 -28 26 -28q23 0 40 15z" />
    <glyph glyph-name="Uring.smcp" horiz-adv-x="573" 
d="M524 463l-46 -16v-272q0 -81 -52.5 -129.5t-139.5 -48.5t-139 48.5t-52 129.5v267l-46 14v20h163v-20l-45 -15v-266q0 -67 39 -104.5t105 -37.5t105 37.5t39 104.5v274l-45 14v13h114v-13zM238 561q0 25 16.5 40.5t42.5 15.5t42.5 -15.5t16.5 -40.5q0 -26 -16 -40.5
t-43 -14.5t-43 14.5t-16 40.5zM274 588q-8 -10 -8 -27t8 -28q9 -10 23 -10t22 10q8 11 8 28t-8 27q-8 11 -22 11t-23 -11z" />
    <glyph glyph-name="Utilde.smcp" horiz-adv-x="573" 
d="M524 463l-46 -16v-272q0 -81 -52.5 -129.5t-139.5 -48.5t-139 48.5t-52 129.5v267l-46 14v20h163v-20l-45 -15v-266q0 -67 39 -104.5t105 -37.5t105 37.5t39 104.5v274l-45 14v13h114v-13zM195 527l-14 14q58 58 86 58q16 0 38 -16t39 -16q29 0 57 31l14 -13
q-57 -59 -88 -59q-16 0 -38 16t-40 16q-23 0 -54 -31z" />
    <glyph glyph-name="V.smcp" 
d="M309 0h-34l-198 442l-45 14v20h163v-20l-45 -14l164 -369l165 369l-57 14v20h130v-20l-44 -14z" />
    <glyph glyph-name="W.smcp" horiz-adv-x="871" 
d="M604 0h-34l-136 319l-133 -319h-33l-191 442l-45 14v20h163v-20l-45 -14l156 -369l114 278l-41 91l-44 14v20h163v-20l-46 -14l158 -369l157 369l-57 14v20h129v-20l-43 -14z" />
    <glyph glyph-name="Wacute.smcp" horiz-adv-x="871" 
d="M604 0h-34l-136 319l-133 -319h-33l-191 442l-45 14v20h163v-20l-45 -14l156 -369l114 278l-41 91l-44 14v20h163v-20l-46 -14l158 -369l157 369l-57 14v20h129v-20l-43 -14zM392 515l-15 14l102 97l42 -42z" />
    <glyph glyph-name="Wcircumflex.smcp" horiz-adv-x="871" 
d="M604 0h-34l-136 319l-133 -319h-33l-191 442l-45 14v20h163v-20l-45 -14l156 -369l114 278l-41 91l-44 14v20h163v-20l-46 -14l158 -369l157 369l-57 14v20h129v-20l-43 -14zM334 529l99 97h8l100 -97l-15 -14l-89 53l-88 -53z" />
    <glyph glyph-name="Wdieresis.smcp" horiz-adv-x="871" 
d="M604 0h-34l-136 319l-133 -319h-33l-191 442l-45 14v20h163v-20l-45 -14l156 -369l114 278l-41 91l-44 14v20h163v-20l-46 -14l158 -369l157 369l-57 14v20h129v-20l-43 -14zM315 564q0 16 11.5 27.5t27.5 11.5q24 2 34.5 -18.5t0 -41t-34.5 -19.5q-17 0 -28 11.5
t-11 28.5zM548 564q2 -24 -18.5 -34.5t-41 0t-19.5 34.5q0 17 11.5 28t28.5 11t28 -11.5t11 -27.5z" />
    <glyph glyph-name="Wgrave.smcp" horiz-adv-x="871" 
d="M604 0h-34l-136 319l-133 -319h-33l-191 442l-45 14v20h163v-20l-45 -14l156 -369l114 278l-41 91l-44 14v20h163v-20l-46 -14l158 -369l157 369l-57 14v20h129v-20l-43 -14zM352 584l42 42l101 -97l-15 -14z" />
    <glyph glyph-name="X.smcp" horiz-adv-x="565" 
d="M361 20l43 13l-142 183l-148 -183l54 -13v-20h-131v20l45 13l166 203l-160 207l-44 13v20h168v-20l-44 -13l132 -172l139 172l-54 13v20h132v-20l-46 -13l-157 -191l170 -219l44 -13v-20h-167v20z" />
    <glyph glyph-name="Y.smcp" horiz-adv-x="537" 
d="M199 456l-44 -13l135 -214l139 214l-54 13v20h131v-20l-46 -13l-158 -243v-166l45 -14v-20h-163v21l46 18v161l-154 243l-44 13v20h167v-20z" />
    <glyph glyph-name="Yacute.smcp" horiz-adv-x="537" 
d="M199 456l-44 -13l135 -214l139 214l-54 13v20h131v-20l-46 -13l-158 -243v-166l45 -14v-20h-163v21l46 18v161l-154 243l-44 13v20h167v-20zM238 515l-14 14l101 97l41 -42z" />
    <glyph glyph-name="Ycircumflex.smcp" horiz-adv-x="537" 
d="M199 456l-44 -13l135 -214l139 214l-54 13v20h131v-20l-46 -13l-158 -243v-166l45 -14v-20h-163v21l46 18v161l-154 243l-44 13v20h167v-20zM167 529l99 97h8l100 -97l-15 -14l-89 53l-88 -53z" />
    <glyph glyph-name="Ydieresis.smcp" horiz-adv-x="537" 
d="M199 456l-44 -13l135 -214l139 214l-54 13v20h131v-20l-46 -13l-158 -243v-166l45 -14v-20h-163v21l46 18v161l-154 243l-44 13v20h167v-20zM152 564q0 16 11 27.5t28 11.5t28.5 -11t11.5 -28q1 -24 -19.5 -34.5t-41 0t-18.5 34.5zM306 564q0 16 11 27.5t28 11.5t28 -11
t11 -28q2 -24 -18.5 -34.5t-41 0t-18.5 34.5z" />
    <glyph glyph-name="Ygrave.smcp" horiz-adv-x="537" 
d="M199 456l-44 -13l135 -214l139 214l-54 13v20h131v-20l-46 -13l-158 -243v-166l45 -14v-20h-163v21l46 18v161l-154 243l-44 13v20h167v-20zM184 584l43 42l101 -97l-15 -14z" />
    <glyph glyph-name="Z.smcp" horiz-adv-x="492" 
d="M430 0h-369v19l287 431h-232l-26 -66h-26l9 92h356v-19l-289 -431h247l26 70h25z" />
    <glyph glyph-name="Zacute.smcp" horiz-adv-x="492" 
d="M430 0h-369v19l287 431h-232l-26 -66h-26l9 92h356v-19l-289 -431h247l26 70h25zM203 515l-15 14l102 97l41 -42z" />
    <glyph glyph-name="Zcaron.smcp" horiz-adv-x="492" 
d="M430 0h-369v19l287 431h-232l-26 -66h-26l9 92h356v-19l-289 -431h247l26 70h25zM349 611l-99 -96h-8l-100 96l15 15l89 -54l88 54z" />
    <glyph glyph-name="Zdotaccent.smcp" horiz-adv-x="492" 
d="M430 0h-369v19l287 431h-232l-26 -66h-26l9 92h356v-19l-289 -431h247l26 70h25zM246 617q26 2 36.5 -19.5t-0.5 -43.5t-36 -20q-18 0 -30 12t-12 30t12 29.5t30 11.5z" />
    <glyph glyph-name="uni018F.smcp" horiz-adv-x="567" 
d="M99 392l-17 17q76 71 185 71t174 -65t65 -175q0 -112 -66 -178q-64 -66 -172 -66q-95 0 -151 49q-56 50 -56 120q0 24 4 36l15 14h349q6 62 -10.5 113t-60.5 84.5t-111 34.5q-93 0 -148 -55zM263 23q64 0 109.5 44t54.5 122l-299 -13q0 -67 36 -110t99 -43z" />
    <glyph glyph-name="f_b" horiz-adv-x="886" 
d="M403 37v660q-34 28 -89 28q-63 0 -99.5 -34.5t-36.5 -94.5v-136h153v-30h-153v-386l92 -21v-23h-225v24l60 22v384h-60v24l60 11v130q0 73 56 116t152 43q41 0 81 -8l71 10l12 -12v-284l-2 -50l3 -3q25 27 70 42t92 15q91 0 141 -62t50 -168q0 -116 -63 -177t-181 -61
q-105 0 -184 41zM477 375v-319q44 -31 117 -31q76 0 118 53t42 151q0 94 -39 146.5t-109 52.5q-86 0 -129 -53z" />
    <glyph glyph-name="f_f_b" horiz-adv-x="1184" 
d="M702 37v660q-34 28 -89 28q-63 0 -99.5 -34.5t-36.5 -94.5v-136h153v-30h-153v-386l91 -21v-23h-225v24l60 22v384h-225v-386l92 -21v-23h-225v24l60 22v384h-60v24l60 11v85q0 84 63 134q64 50 164 50q73 0 122 -29q55 49 158 49q38 0 81 -8l71 10l12 -12v-284l-2 -50
l3 -3q24 27 69 42t92 15q91 0 141.5 -62t50.5 -168q0 -116 -63 -177t-181 -61q-105 0 -184 41zM379 460l24 5v130q0 51 27 87q-41 23 -100 23q-72 0 -112 -41t-40 -113v-91h201zM776 375v-319q44 -31 116 -31q76 0 118.5 53t42.5 151q0 94 -39 146.5t-109 52.5
q-86 0 -129 -53z" />
    <glyph glyph-name="f_h" horiz-adv-x="910" 
d="M477 367v-327l58 -17v-23h-192v24l60 22v651q-34 28 -89 28q-63 0 -99.5 -34.5t-36.5 -94.5v-136h153v-30h-153v-386l92 -21v-23h-225v24l60 22v384h-60v24l60 11v130q0 73 56 116t152 43q41 0 81 -8l71 10l12 -12v-284l-2 -57l3 -3q32 31 87 47q57 17 101 17
q68 0 104 -43.5t36 -118.5v-262l60 -17v-23h-192v24l58 22v251q0 62 -25.5 96.5t-72.5 34.5q-36 0 -81 -16q-46 -16 -76 -45z" />
    <glyph glyph-name="f_f_h" horiz-adv-x="1209" 
d="M776 367v-327l58 -17v-23h-192v24l60 22v651q-34 28 -89 28q-63 0 -99.5 -34.5t-36.5 -94.5v-136h153v-30h-153v-386l91 -21v-23h-225v24l60 22v384h-225v-386l92 -21v-23h-225v24l60 22v384h-60v24l60 11v85q0 84 63 134q64 50 164 50q73 0 122 -29q55 49 158 49
q38 0 81 -8l71 10l12 -12v-284l-2 -57l3 -3q32 31 87 47q57 17 100 17q68 0 104 -43.5t36 -118.5v-262l60 -17v-23h-191v24l58 22v251q0 61 -26 96t-73 35q-36 0 -81 -16q-47 -16 -75 -45zM379 460l24 5v130q0 51 27 87q-41 23 -100 23q-72 0 -112 -41t-40 -113v-91h201z
" />
    <glyph glyph-name="f_k" horiz-adv-x="845" 
d="M825 0h-116l-155 249l-77 -73v-136l60 -17v-23h-194v24l60 22v651q-34 28 -89 28q-63 0 -99.5 -34.5t-36.5 -94.5v-136h153v-30h-153v-386l92 -21v-23h-225v24l60 22v384h-60v24l60 11v130q0 73 56 116t152 43q41 0 81 -8l71 10l12 -12v-522l213 198l-80 17v23h183v-23
l-57 -17l-131 -122l160 -258l60 -17v-23z" />
    <glyph glyph-name="f_f_k" horiz-adv-x="1143" 
d="M1124 0h-116l-155 249l-77 -73v-136l60 -17v-23h-194v24l60 22v651q-34 28 -89 28q-63 0 -99.5 -34.5t-36.5 -94.5v-136h153v-30h-153v-386l91 -21v-23h-225v24l60 22v384h-225v-386l92 -21v-23h-225v24l60 22v384h-60v24l60 11v85q0 84 63 134q64 50 164 50
q73 0 122 -29q55 49 158 49q38 0 81 -8l71 10l12 -12v-522l213 198l-80 17v23h182v-23l-57 -17l-130 -122l159 -258l61 -17v-23zM379 460l24 5v130q0 51 27 87q-41 23 -100 23q-72 0 -112 -41t-40 -113v-91h201z" />
    <glyph glyph-name="f_t" horiz-adv-x="686" 
d="M403 128v569q-34 28 -91 28q-61 0 -97.5 -34.5t-36.5 -94.5v-136h153v-30h-153v-386l92 -21v-23h-225v24l60 22v384h-60v24l60 11v130q0 75 56.5 117t158.5 42q110 0 157 -57v-237h147v-30h-147v-302q0 -46 23 -71.5t64 -25.5q43 0 67 24l17 -17q-42 -42 -112 -42
q-62 0 -97.5 35.5t-35.5 96.5z" />
    <glyph glyph-name="f_f_t" horiz-adv-x="984" 
d="M702 128v569q-34 28 -92 28q-60 0 -96.5 -34.5t-36.5 -94.5v-136h153v-30h-153v-386l91 -19v-27h-225v29l60 19v384h-225v-386l92 -19v-27h-225v29l60 19v384h-60v24l60 11v85q0 84 63 134q64 50 164 50q72 0 121 -29q58 49 166 49q107 0 157 -57v-237h147v-30h-147v-302
q0 -46 23 -72t63 -26q43 0 68 25l17 -17q-41 -41 -113 -41q-61 0 -96.5 35t-35.5 96zM379 460l24 5v130q0 51 27 87q-41 23 -100 23q-72 0 -112 -41t-40 -113v-91h201z" />
    <glyph glyph-name="germandbls.smcp" horiz-adv-x="513" 
d="M252 15h-16v71h25q17 -63 72 -63q30 0 47.5 14t17.5 40q0 21 -14 32.5t-54 24.5q-41 15 -65 31q-30 21 -30 65q0 35 35 79q36 43 36 79q0 30 -18 48t-53 18q-74 0 -74 -84v-337l42 -13v-20h-154v21l42 16v250h-42v21l42 8v53q0 110 149 110q124 0 124 -77q0 -33 -37 -76
q-36 -44 -36 -75q0 -21 13 -32.5t49 -23.5q45 -16 70 -34q34 -22 34 -72q0 -92 -118 -92q-49 0 -87 18z" />
    <glyph glyph-name="zero.fitted" horiz-adv-x="561" 
d="M281 706q113 0 183 -97q70 -95 70 -259q0 -163 -70 -260q-70 -96 -183 -96t-184 96q-69 97 -69 260t69 259q70 97 184 97zM107 349q0 -151 48 -238q48 -86 126 -86t125 86q48 87 48 238q0 152 -48 239q-47 87 -125 87t-126 -87t-48 -239z" />
    <glyph glyph-name="one.fitted" horiz-adv-x="561" 
d="M415 0h-261v24l93 22v601h-112v25l173 34l13 -12v-654l94 -17v-23z" />
    <glyph glyph-name="two.fitted" horiz-adv-x="561" 
d="M498 0h-446v35l97 84l83 78q54 53 76 82q30 38 54 77q51 79 51 169q0 74 -40.5 111.5t-115.5 37.5q-77 0 -129 -50v-62q0 -15 -10.5 -26t-26.5 -11q-36 0 -36 44q0 56 57 95q56 40 153 40q103 0 161.5 -48.5t58.5 -140.5q0 -130 -142 -272q-51 -53 -215 -184h321l25 82
h28z" />
    <glyph glyph-name="three.fitted" horiz-adv-x="561" 
d="M143 632v-53q0 -15 -10.5 -25.5t-26.5 -10.5q-35 0 -35 43q0 56 60 87q61 32 142 32q96 0 152 -46.5t56 -127.5q0 -61 -34.5 -102.5t-93.5 -57.5q73 -18 115 -66t42 -116q0 -89 -66 -142q-65 -52 -172 -52q-86 0 -147 31t-61 88q0 21 10 32t25 11q16 0 27 -10.5t11 -25.5
v-56q46 -38 130 -38q76 0 121 43.5t45 120.5q0 78 -51.5 120.5t-143.5 42.5h-48v31h48q167 0 167 142q0 69 -37 107.5t-103 38.5q-76 0 -122 -41z" />
    <glyph glyph-name="four.fitted" horiz-adv-x="561" 
d="M499 0h-190v24l59 22v104h-321v25q88 144 134 263q47 123 47 262h74q0 -140 -58 -262q-58 -123 -157 -258h281v227l59 59l12 -12v-274h76v-30h-76v-110l60 -17v-23z" />
    <glyph glyph-name="five.fitted" horiz-adv-x="561" 
d="M138 110v-52q44 -32 115 -32q79 0 123.5 49t44.5 135q0 92 -48 142t-135 50q-72 0 -118 -33l-21 21l27 310q198 0 316 12v-67h-278l-36 -242q56 31 133 31q110 0 173.5 -58.5t63.5 -161.5q0 -101 -64.5 -159.5t-177.5 -58.5q-80 0 -136 29q-55 28 -55 79q0 21 10 32
t26 11t26.5 -10.5t10.5 -26.5z" />
    <glyph glyph-name="six.fitted" horiz-adv-x="561" 
d="M130 366q55 61 158 61q102 0 161 -58q61 -58 61 -156q0 -100 -62 -159q-61 -58 -161 -58q-113 0 -174 80.5t-61 223.5q0 204 117 305q108 93 272 101l18 -18q-149 -16 -235 -103q-87 -87 -94 -219zM128 310q0 -283 157 -283q67 0 107.5 49t40.5 132q0 87 -45.5 134.5
t-117.5 47.5q-48 0 -86.5 -22t-55.5 -58z" />
    <glyph glyph-name="seven.fitted" horiz-adv-x="561" 
d="M296 0h-74q0 85 25 172q27 95 53 150q28 62 81 162q40 77 77 157h-344l-29 -79h-27l11 138h440v-25q-27 -69 -68 -164q-43 -98 -73 -172q-28 -72 -49 -161q-23 -97 -23 -178z" />
    <glyph glyph-name="eight.fitted" horiz-adv-x="561" 
d="M483 538q0 -62 -31 -101t-91 -68q77 -32 113.5 -74.5t36.5 -112.5q0 -89 -59 -138.5t-176 -49.5q-111 0 -168.5 47t-57.5 129q0 70 37.5 113t111.5 76q-62 26 -92 65t-30 103q0 82 51.5 130.5t154.5 48.5q98 0 149 -45t51 -123zM271 333l-39 13q-110 -62 -110 -171
q0 -74 40.5 -112t115.5 -38q78 0 122 39.5t44 110.5q0 65 -39 95q-39 31 -134 63zM291 395l37 -13q85 58 85 153q0 68 -35 104t-98 36q-64 0 -100.5 -36.5t-36.5 -100.5q0 -60 33 -89q33 -27 115 -54z" />
    <glyph glyph-name="nine.fitted" horiz-adv-x="561" 
d="M428 334q-58 -60 -158 -60t-159 56t-59 154q0 103 64 161q65 60 166 60q111 0 168.5 -76.5t57.5 -223.5q0 -199 -104 -298q-103 -98 -285 -112l-18 18q152 18 233.5 100.5t93.5 220.5zM431 391q0 283 -149 283q-69 0 -111.5 -51.5t-42.5 -136.5q0 -84 44 -130t116 -46
q48 0 86.5 22.5t56.5 58.5z" />
    </font>
</defs>
</svg>
