<?xml version="1.0" standalone="no"?>
<!DOCTYPE svg PUBLIC "-//W3C//DTD SVG 1.1//EN" "http://www.w3.org/Graphics/SVG/1.1/DTD/svg11.dtd" >
<svg xmlns="http://www.w3.org/2000/svg" xmlns:xlink="http://www.w3.org/1999/xlink" version="1.1">
<metadata>
Created by FontForge 20150318 at Mon Jul 20 20:51:11 2015
 By uniteet7
Copyright (c) 2014 by Andriy Konstantynov. All rights reserved.
</metadata>
<defs>
<font id="AngleciaProTextSemiBold" horiz-adv-x="557" >
  <font-face 
    font-family="AngleciaProTextSemiBold"
    font-weight="600"
    font-stretch="normal"
    units-per-em="1000"
    panose-1="2 5 0 3 6 0 0 0 0 0"
    ascent="746"
    descent="-254"
    x-height="460"
    cap-height="700"
    bbox="-150.815 -258 1267 1014"
    underline-thickness="50"
    underline-position="-50"
    unicode-range="U+000D-FB04"
  />
<missing-glyph horiz-adv-x="208" 
 />
    <glyph glyph-name="ff" unicode="ff" horiz-adv-x="741" 
d="M29 452l60 15v67q0 92 79 146q79 55 199 55q69 0 116 -24q47 44 133 44q69 0 112 -31.5t43 -79.5q0 -29 -15.5 -44.5t-37.5 -15.5t-38.5 16t-16.5 38v60q-17 13 -42 13q-68 0 -68 -136v-115h163v-46h-163v-354l93 -25v-35h-284v38l60 26v350h-202v-354l93 -25v-35h-284
v38l60 26v350h-60v38zM395 460l27 7v106q0 55 25 98q-35 20 -88 20q-139 0 -139 -154v-77h175z" />
    <glyph glyph-name="fi" unicode="fi" horiz-adv-x="642" 
d="M613 0h-251v38l60 26v324l-48 26h-154v-354l93 -25v-35h-284v38l60 26v350h-60v38l60 15v106q0 83 69 132q71 50 183 50q97 0 155.5 -37.5t58.5 -97.5q0 -35 -21.5 -54t-51.5 -19q-31 0 -52.5 22t-21.5 52v71q-28 19 -73 19q-115 0 -115 -136v-115h150l168 8l15 -16v-396
l60 -21v-35z" />
    <glyph glyph-name="fl" unicode="fl" horiz-adv-x="642" 
d="M613 0h-253v38l62 26v615q-29 32 -79 32q-58 0 -90.5 -35.5t-32.5 -100.5v-115h143v-46h-143v-354l93 -25v-35h-284v38l60 26v350h-60v38l60 15v106q0 84 69.5 133t189.5 49q51 0 95 -10l95 13l15 -16v-686l60 -21v-35z" />
    <glyph glyph-name="ffi" unicode="ffi" horiz-adv-x="976" 
d="M947 0h-251v38l60 26v324l-49 26h-154v-354l93 -25v-35h-284v38l60 26v350h-202v-354l93 -25v-35h-284v38l60 26v350h-60v38l60 15v67q0 93 77 147q78 54 201 54q81 0 134 -25q63 45 174 45q96 0 155 -38q58 -37 58 -97q0 -35 -21.5 -54t-51.5 -19t-52 22t-22 52v71
q-28 19 -73 19q-115 0 -115 -136v-115h151l167 8l16 -16v-396l60 -21v-35zM395 460l31 7v106q0 51 29 97q-36 21 -93 21q-142 0 -142 -154v-77h175z" />
    <glyph glyph-name="ffl" unicode="ffl" horiz-adv-x="976" 
d="M947 0h-253v38l62 26v615q-30 32 -80 32q-58 0 -90.5 -35.5t-32.5 -100.5v-115h143v-46h-143v-354l93 -25v-35h-284v38l60 26v350h-202v-354l93 -25v-35h-284v38l60 26v350h-60v38l60 15v67q0 92 76 146q76 55 196 55q80 0 132 -31q71 51 188 51q51 0 95 -10l95 13
l16 -16v-686l60 -21v-35zM395 460l27 7v106q0 54 31 95q-35 23 -94 23q-139 0 -139 -154v-77h175z" />
    <glyph glyph-name="f_f_j" unicode="ffj" horiz-adv-x="967" 
d="M747 0v388l-48 26h-146v-354l93 -25v-35h-284v38l60 26v350h-202v-354l93 -25v-35h-284v38l60 26v350h-60v38l60 15v67q0 93 77 147q78 54 201 54q81 0 134 -25q61 45 169 45q95 0 152.5 -37.5t57.5 -97.5q0 -35 -21.5 -54t-51.5 -19q-31 0 -52.5 22t-21.5 52v71
q-26 19 -70 19q-110 0 -110 -136v-115h142l168 8l15 -16v-452q0 -78 -45.5 -145.5t-127.5 -112.5l-29 29q34 37 52.5 99t18.5 130zM395 460l31 7v106q0 51 29 97q-36 21 -92 21q-143 0 -143 -154v-77h175z" />
    <glyph glyph-name="f_j" unicode="fj" horiz-adv-x="642" 
d="M422 0v388l-48 26h-154v-354l93 -25v-35h-284v38l60 26v350h-60v38l60 15v106q0 83 69 132q71 50 183 50q97 0 155.5 -37.5t58.5 -97.5q0 -35 -21.5 -54t-51.5 -19q-31 0 -52.5 22t-21.5 52v71q-28 19 -73 19q-115 0 -115 -136v-115h150l168 8l15 -16v-452
q0 -78 -45.5 -145.5t-127.5 -112.5l-29 29q34 37 52.5 99t18.5 130z" />
    <glyph glyph-name=".notdef" horiz-adv-x="208" 
 />
    <glyph glyph-name=".null" horiz-adv-x="0" 
 />
    <glyph glyph-name="nonmarkingreturn" horiz-adv-x="333" 
 />
    <glyph glyph-name="NULL" horiz-adv-x="0" 
 />
    <glyph glyph-name="NULL" horiz-adv-x="0" 
 />
    <glyph glyph-name="CR.001" unicode="&#xd;" horiz-adv-x="208" 
 />
    <glyph glyph-name="space" unicode=" " horiz-adv-x="208" 
 />
    <glyph glyph-name="exclam" unicode="!" horiz-adv-x="217" 
d="M132 201h-47q-13 177 -25 268q-12 101 -18 130q-5 32 -5 35q0 31 20.5 51t50.5 20q32 0 52 -20t20 -51q0 -6 -6 -35q-22 -114 -42 -398zM108 124q28 0 46.5 -18t18.5 -47q0 -28 -18.5 -46t-46.5 -18q-27 0 -45.5 18t-18.5 46t18.5 46.5t45.5 18.5z" />
    <glyph glyph-name="quotedbl" unicode="&#x22;" horiz-adv-x="309" 
d="M104 487h-34q-8 69 -20 109q-13 46 -13 58q-3 31 23.5 43.5t53 0t23.5 -43.5q0 -12 -13 -58q-12 -42 -20 -109zM239 487h-34q-8 69 -20 109q-13 46 -13 58q-3 31 23.5 43.5t53 0t24.5 -43.5q0 -8 -14 -58q-12 -42 -20 -109z" />
    <glyph glyph-name="numbersign" unicode="#" horiz-adv-x="619" 
d="M199 450h-99v48h113l60 202h52l-60 -202h173l60 202h52l-60 -202h85v-48h-99l-60 -200h103v-48h-117l-60 -202h-52l61 202h-174l-60 -202h-52l60 202h-80v48h94zM424 450h-174l-59 -200h173z" />
    <glyph glyph-name="dollar" unicode="$" horiz-adv-x="592" 
d="M282 -7l-4 -43h-49l4 46q-75 6 -135 35h-38l-16 142h47q12 -57 51 -91t95 -41l24 257l-1 1l-45 15q-53 18 -82 37q-46 32 -61 61q-23 46 -23 98q0 93 59 145t178 52h13l4 43h49l-5 -47q64 -9 113 -34h40l16 -142h-48q-26 114 -125 131l-22 -242q42 -14 53 -19
q25 -9 46 -19q32 -14 43 -22q46 -32 61 -61q22 -44 22 -97q0 -98 -65 -151.5t-198 -53.5h-1zM419 174q0 42 -23 63q-22 23 -87 45l-23 -243q61 4 97 38t36 97zM176 535q0 -40 21 -61.5t76 -40.5l21 227q-55 -5 -86.5 -38t-31.5 -87z" />
    <glyph glyph-name="percent" unicode="%" horiz-adv-x="750" 
d="M86 392q-41 50 -41 133t41 133q42 49 109 49q68 0 108 -49q42 -49 42 -133q0 -83 -42 -133q-40 -49 -108 -49q-67 0 -109 49zM147 625q-17 -36 -17 -100q0 -67 18 -101t47 -34t47 34t18 101q0 65 -18 100q-17 35 -47 35t-48 -35zM611 700l-413 -700h-59l413 700h59z
M446 42q-41 50 -41 133t41 133q42 49 109 49q68 0 108 -49q42 -50 42 -133t-42 -133q-40 -49 -108 -49q-67 0 -109 49zM507 275q-17 -36 -17 -100q0 -67 18 -101t47 -34t47 34t18 101q0 65 -18 100q-17 35 -47 35t-48 -35z" />
    <glyph glyph-name="ampersand" unicode="&#x26;" horiz-adv-x="722" 
d="M688 371l-62 -27q0 -116 -46 -201l71 -87l60 -21v-35h-186l-45 55q-69 -60 -184 -60q-116 0 -186 53q-69 54 -69 141q0 62 37 106q15 18 42 36q40 26 104 53q-72 98 -72 173q0 68 48 108t137 40q78 0 119 -33.5t41 -93.5q0 -39 -21 -72q-19 -31 -43.5 -50t-69.5 -42
l181 -225q29 67 29 158l-63 24v21h178v-21zM320 43q80 0 128 52l-192 244q-83 -56 -83 -145q0 -72 38.5 -111.5t108.5 -39.5zM277 585q0 -59 63 -140q48 29 70 58t22 69q0 42 -21.5 64.5t-58.5 22.5q-34 0 -54.5 -19.5t-20.5 -54.5z" />
    <glyph glyph-name="quotesingle" unicode="'" horiz-adv-x="174" 
d="M104 487h-34q-8 69 -20 109q-13 46 -13 58q-3 31 23.5 43.5t53 0t23.5 -43.5q0 -12 -13 -58q-12 -42 -20 -109z" />
    <glyph glyph-name="parenleft" unicode="(" horiz-adv-x="291" 
d="M228 758l29 -29q-48 -74 -74 -201q-25 -122 -25 -253t25 -253q26 -127 74 -201l-29 -29q-89 84 -137.5 210t-48.5 273t48.5 273t137.5 210z" />
    <glyph glyph-name="parenright" unicode=")" horiz-adv-x="291" 
d="M63 -208l-29 29q48 74 74 201q25 122 25 253t-25 253q-26 127 -74 201l29 29q89 -84 137.5 -210t48.5 -273t-48.5 -273t-137.5 -210z" />
    <glyph glyph-name="asterisk" unicode="*" horiz-adv-x="436" 
d="M223 490q-17 -31 -30.5 -60.5t-20 -45t-9.5 -19.5q-21 -31 -53 -9q-13 10 -15.5 25t7.5 28q2 3 17 16t39 35.5t44 44.5q-29 6 -62.5 9.5t-53 5.5t-22.5 3q-16 5 -22.5 18.5t-1.5 29.5q4 16 18 22.5t30 1.5q5 -1 19 -10.5t42 -25t60 -29.5q-3 35 -9.5 66t-11 48.5
t-4.5 21.5q-2 23 18 32.5t40 0t18 -32.5q0 -4 -4 -21t-10.5 -48.5t-9.5 -66.5q32 15 60 31t42.5 25t19.5 10q35 11 48 -25q5 -15 -2 -28.5t-23 -18.5q-3 -1 -23.5 -2.5t-53 -5.5t-60.5 -11q24 -26 47 -47.5t37 -33t16 -14.5q22 -31 -8 -53q-27 -21 -53 8q-4 5 -19 43t-41 82
z" />
    <glyph glyph-name="plus" unicode="+" horiz-adv-x="454" 
d="M202 276h-164v48h164v164h49v-164h165v-48h-165v-165h-49v165z" />
    <glyph glyph-name="comma" unicode="," horiz-adv-x="199" 
d="M70 -115l-22 22q19 19 34 45q18 29 18 41q0 5 -2 7q-27 0 -45 17.5t-18 44.5q0 28 17.5 45t46.5 17t47 -18.5t18 -52.5q0 -71 -94 -168z" />
    <glyph glyph-name="hyphen" unicode="-" horiz-adv-x="308" 
d="M270 235h-232v48h232v-48z" />
    <glyph glyph-name="period" unicode="." horiz-adv-x="199" 
d="M98 124q29 0 47.5 -18t18.5 -47q0 -28 -18.5 -46t-47.5 -18q-27 0 -45 18t-18 46t18 46.5t45 18.5z" />
    <glyph glyph-name="slash" unicode="/" horiz-adv-x="364" 
d="M362 750l-308 -850h-52l308 850h52z" />
    <glyph glyph-name="zero" unicode="0" horiz-adv-x="648" 
d="M123 89q-76 97 -76 261q0 165 76 260q76 97 201 97t201 -97q77 -97 77 -260t-77 -261q-77 -96 -201 -96t-201 96zM185 350q0 -148 37.5 -229t102.5 -81q63 0 100.5 81t37.5 229q0 149 -37 229.5t-101 80.5q-65 0 -102.5 -80t-37.5 -230z" />
    <glyph glyph-name="one" unicode="1" horiz-adv-x="400" 
d="M355 0h-302v38l85 26v556h-94v41l210 47l15 -16v-636l86 -21v-35z" />
    <glyph glyph-name="two" unicode="2" horiz-adv-x="544" 
d="M494 0h-458v58q71 61 108 97q38 36 88 92q45 49 71 94q59 96 59 197q0 120 -114 120q-62 0 -102 -40v-64q0 -22 -16.5 -38t-38.5 -16q-23 0 -38 15.5t-15 46.5q0 62 59.5 102.5t159.5 40.5q106 0 166 -47.5t60 -137.5t-66 -183q-26 -36 -74 -84q-50 -48 -81 -74l-87 -71
l-19 -15h268l32 86h47z" />
    <glyph glyph-name="three" unicode="3" horiz-adv-x="585" 
d="M170 627v-58q0 -22 -16 -38t-38 -16t-38 16t-16 45q0 60 62 95q64 35 155 35q106 0 169 -48t63 -129q0 -59 -35.5 -100t-96.5 -59q75 -20 117 -67t42 -113q0 -90 -72 -143q-73 -53 -188 -53q-94 0 -158 35q-63 35 -63 95q0 29 15.5 45t37.5 16t38.5 -16t16.5 -38v-59
q37 -29 96 -29q65 0 104.5 40t39.5 113q0 74 -44 111.5t-124 37.5h-50v47h44q74 0 110.5 30.5t36.5 97.5q0 66 -32 101.5t-86 35.5q-56 0 -90 -30z" />
    <glyph glyph-name="four" unicode="4" horiz-adv-x="596" 
d="M538 0h-245v38l60 26v86h-307v32q90 152 134 265q45 117 45 253h131q0 -145 -77 -276q-36 -62 -75 -115q-40 -53 -93 -113h242v162l109 110l16 -16v-256h73v-46h-73v-94l60 -21v-35z" />
    <glyph glyph-name="five" unicode="5" horiz-adv-x="533" 
d="M150 120v-57q34 -21 80 -21q131 0 131 166q0 179 -149 179q-60 0 -104 -30l-30 29l30 314q213 0 328 16v-110h-278l-38 -202q56 31 128 31q112 0 179 -59.5t67 -161.5q0 -101 -68 -160t-186 -59q-88 0 -143 32.5t-55 86.5q0 28 16 44t38 16t38 -16t16 -38z" />
    <glyph glyph-name="six" unicode="6" horiz-adv-x="576" 
d="M173 387q52 43 138 43q103 0 164 -58q62 -59 62 -156q0 -104 -69 -162q-68 -59 -171 -59q-124 0 -192 86q-66 87 -66 232q0 199 121 295q113 89 287 100l30 -30q-293 -45 -304 -291zM172 322q0 -148 29 -214t90 -66q52 0 82.5 44t30.5 123q0 81 -34.5 123t-93.5 42
q-33 0 -61 -14t-43 -38z" />
    <glyph glyph-name="seven" unicode="7" horiz-adv-x="562" 
d="M325 0h-131q0 83 25 164q26 83 56 139q66 116 85 149q52 89 84 152h-318l-33 -84h-47l13 180h463v-32q-16 -45 -80 -203q-58 -143 -89 -257q-28 -102 -28 -208z" />
    <glyph glyph-name="eight" unicode="8" horiz-adv-x="608" 
d="M532 545q0 -108 -121 -166q77 -35 113 -75q37 -40 37 -112q0 -199 -268 -199q-246 0 -246 172q0 66 36.5 107.5t110.5 72.5q-61 31 -91 71.5t-30 102.5q0 82 56 135q58 53 183 53q109 0 164.5 -43.5t55.5 -118.5zM278 310l-30 11q-74 -65 -74 -156q0 -64 33 -95t90 -31
q64 0 100.5 32.5t36.5 96.5q0 52 -33 79q-31 29 -123 63zM195 546q0 -56 31 -81q29 -24 111 -56l17 -7q56 64 56 140q0 119 -104 119q-52 0 -81.5 -30.5t-29.5 -84.5z" />
    <glyph glyph-name="nine" unicode="9" horiz-adv-x="576" 
d="M401 314q-56 -44 -137 -44q-102 0 -164 57q-61 57 -61 155q0 103 69 163q71 60 176 60q121 0 186.5 -84t65.5 -233q0 -373 -415 -395l-31 30q298 41 311 291zM403 378q0 150 -28 215t-88 65q-52 0 -83.5 -45.5t-31.5 -124.5q0 -80 33 -121t92 -41q70 0 106 52z" />
    <glyph glyph-name="colon" unicode=":" horiz-adv-x="199" 
d="M98 124q29 0 47.5 -18t18.5 -47q0 -28 -18.5 -46t-47.5 -18q-27 0 -45 18t-18 46t18 46.5t45 18.5zM98 465q29 0 47.5 -18t18.5 -47q0 -28 -18.5 -46t-47.5 -18q-27 0 -45 18t-18 46t18 46.5t45 18.5z" />
    <glyph glyph-name="semicolon" unicode=";" horiz-adv-x="199" 
d="M70 -115l-22 22q19 19 34 45q18 29 18 41q0 5 -2 7q-27 0 -45 17.5t-18 44.5q0 28 17.5 45t46.5 17t47 -18.5t18 -52.5q0 -71 -94 -168zM98 465q29 0 47.5 -18t18.5 -47q0 -28 -18.5 -46t-47.5 -18q-27 0 -45 18t-18 46t18 46.5t45 18.5z" />
    <glyph glyph-name="less" unicode="&#x3c;" horiz-adv-x="454" 
d="M46 293l342 159l20 -44l-285 -133l285 -132l-20 -44l-342 159v35z" />
    <glyph glyph-name="equal" unicode="=" horiz-adv-x="454" 
d="M416 356h-378v48h378v-48zM416 195h-378v49h378v-49z" />
    <glyph glyph-name="greater" unicode="&#x3e;" horiz-adv-x="454" 
d="M331 275l-285 133l20 44l342 -159v-35l-342 -159l-20 44z" />
    <glyph glyph-name="question" unicode="?" horiz-adv-x="482" 
d="M251 201h-48q-9 67 -3 102.5t28 72.5q20 36 41 58q54 60 54 129q0 95 -96 95q-51 0 -81 -30v-62q0 -22 -16.5 -38t-38.5 -16q-23 0 -38 16t-15 47q0 58 53 94t141 36q98 0 155.5 -44t57.5 -120q0 -77 -69 -139q-1 0 -23 -20.5t-26 -25t-22 -23t-23 -29t-15 -29t-13 -36.5
t-3 -38zM165 59q-4 43 40 60t71 -14q18 -21 18.5 -46t-18.5 -45.5t-46 -18.5q-29 0 -47 18t-18 46z" />
    <glyph glyph-name="at" unicode="@" horiz-adv-x="899" 
d="M768 -34l19 -19q-50 -51 -134.5 -82t-189.5 -31q-183 0 -289 95q-104 95 -104 264q0 167 102.5 260.5t294.5 93.5q178 0 270 -82.5t92 -236.5q0 -114 -51.5 -173.5t-150.5 -59.5q-84 0 -98 47l-3 2q-46 -49 -125 -49q-71 0 -111 53t-40 142q0 206 217 206q66 0 114 -19
l47 19l14 -13v-313q0 -34 30 -34q35 0 54.5 48t19.5 130q0 149 -65.5 220.5t-213.5 71.5q-307 0 -307 -310q0 -70 17.5 -126t56 -100.5t105.5 -69t159 -24.5q182 0 270 90zM527 79v258q-28 19 -66 19q-92 0 -92 -158q0 -153 83 -153q47 0 75 34z" />
    <glyph glyph-name="A" unicode="A" horiz-adv-x="771" 
d="M355 700h62l281 -641l65 -24v-35h-266v35l63 24l-69 162h-298l-71 -162l82 -24v-35h-196v35l63 24zM471 267l-128 298l-130 -298h258z" />
    <glyph glyph-name="B" unicode="B" horiz-adv-x="676" 
d="M29 668v32h320q113 0 182 -48q70 -46 70 -129q0 -60 -37.5 -102.5t-103.5 -60.5q80 -19 124.5 -64t44.5 -110q0 -85 -78 -136q-77 -50 -202 -50h-320v32l65 19v598zM231 335v-289h102q71 0 111 37t40 108t-40 107.5t-111 36.5h-102zM333 654h-102v-272h102q58 0 91 34
t33 101q0 68 -33 102.5t-91 34.5z" />
    <glyph glyph-name="C" unicode="C" horiz-adv-x="707" 
d="M633 132l29 -30q-106 -109 -269 -109q-158 0 -253 95q-93 96 -93 259q0 164 95 262t253 98q107 0 187 -44l44 20l16 -16l16 -146h-47q-52 136 -196 136q-109 0 -166.5 -76t-57.5 -227q0 -137 58 -219q59 -81 183 -81t201 78z" />
    <glyph glyph-name="D" unicode="D" horiz-adv-x="744" 
d="M29 668v32h322q157 0 251 -94q95 -93 95 -256q0 -162 -95 -257q-94 -93 -251 -93h-322v32l65 19v598zM351 654h-120v-608h120q94 0 148 78.5t54 225.5q0 148 -54 226t-148 78z" />
    <glyph glyph-name="E" unicode="E" horiz-adv-x="632" 
d="M231 335v-289h269l42 96h47l-13 -142h-547v32l65 19v598l-65 19v32h537l13 -142h-47l-42 96h-259v-272h197l21 73h43v-193h-43l-21 73h-197z" />
    <glyph glyph-name="F" unicode="F" horiz-adv-x="612" 
d="M440 259l-21 74h-188v-269l95 -29v-35h-297v38l65 29v582l-65 19v32h527l13 -142h-47l-42 96h-249v-275h188l21 73h43v-193h-43z" />
    <glyph glyph-name="G" unicode="G" horiz-adv-x="752" 
d="M723 306l-65 -26v-249l-16 -16l-57 30q-82 -52 -194 -52q-158 0 -251 95q-93 96 -93 259q0 164 95 262t253 98q107 0 187 -44l44 20l16 -16l16 -146h-47q-52 136 -196 136q-109 0 -166.5 -76t-57.5 -227q0 -137 55 -219q56 -81 171 -81q60 0 104 29v200l-65 23v36h267
v-36z" />
    <glyph glyph-name="H" unicode="H" horiz-adv-x="784" 
d="M29 0v38l65 29v574l-65 24v35h267v-35l-65 -27v-261h323v264l-65 24v35h267v-35l-65 -27v-579l65 -24v-35h-267v38l65 29v263h-323v-271l65 -24v-35h-267z" />
    <glyph glyph-name="I" unicode="I" horiz-adv-x="325" 
d="M295 665l-65 -27v-579l65 -24v-35h-265v38l65 29v574l-65 24v35h265v-35z" />
    <glyph glyph-name="J" unicode="J" horiz-adv-x="325" 
d="M96 0v641l-65 24v35h263v-35l-65 -27v-638q0 -78 -46.5 -145.5t-131.5 -112.5l-28 29q36 37 54 102q19 61 19 127z" />
    <glyph glyph-name="K" unicode="K" horiz-adv-x="706" 
d="M294 665l-65 -27v-293l288 296l-82 24v35h216v-35l-66 -24l-193 -200l236 -383l65 -23v-35h-185l-212 347l-67 -69v-219l65 -24v-35h-267v38l65 29v574l-65 24v35h267v-35z" />
    <glyph glyph-name="L" unicode="L" horiz-adv-x="605" 
d="M231 638v-592h241l42 96h47l-13 -142h-519v32l65 19v590l-65 24v35h267v-35z" />
    <glyph glyph-name="M" unicode="M" horiz-adv-x="955" 
d="M893 665l-65 -27l44 -579l65 -24v-35h-266v38l65 29l-35 471l-236 -538h-62l-237 538l-37 -494l65 -23v-21h-176v24l65 28l44 589l-65 24v35h172l243 -565l246 565h170v-35z" />
    <glyph glyph-name="N" unicode="N" horiz-adv-x="719" 
d="M29 0v24l65 28v589l-65 24v35h196l354 -504v459l-65 24v21h176v-21l-65 -26v-653h-64l-421 602v-558l65 -23v-21h-176z" />
    <glyph glyph-name="O" unicode="O" horiz-adv-x="775" 
d="M388 707q152 0 246 -97q94 -95 94 -260q0 -164 -94 -261q-94 -96 -246 -96t-247 96q-94 97 -94 261q0 165 94 260q94 97 247 97zM191 350q0 -148 53 -229t144 -81t143.5 81t52.5 229q0 150 -52.5 230t-143.5 80q-92 0 -144.5 -80t-52.5 -230z" />
    <glyph glyph-name="P" unicode="P" horiz-adv-x="639" 
d="M312 654h-81v-590l95 -29v-35h-297v38l65 29v582l-65 19v32h299q117 0 191 -56t74 -149q0 -94 -74 -150q-73 -55 -191 -55h-49l-16 16v31h49q64 0 100 40.5t36 117.5q0 79 -36 119t-100 40z" />
    <glyph glyph-name="Q" unicode="Q" horiz-adv-x="775" 
d="M768 -54l16 -16q-62 -60 -154 -60q-34 0 -67 6q-63 12 -107 37l-45 25l-47 32q-12 9 -26.5 18.5t-16.5 10.5q-125 20 -200 113q-74 94 -74 238q0 165 94 260q94 97 247 97q152 0 246 -97q94 -95 94 -260q0 -129 -60.5 -217.5t-166.5 -118.5q52 -35 72 -47q71 -43 136 -43
q37 0 59 22zM191 350q0 -148 53 -229t144 -81t143.5 81t52.5 229q0 150 -52.5 230t-143.5 80q-92 0 -144.5 -80t-52.5 -230z" />
    <glyph glyph-name="R" unicode="R" horiz-adv-x="683" 
d="M600 507q0 -69 -45 -116.5t-124 -63.5q39 -19 82 -98l92 -171l65 -23v-35h-182l-170 315h-87v-256l65 -24v-35h-267v38l65 29v582l-65 19v32h314q115 0 186 -53t71 -140zM327 654h-96v-292h96q60 0 94 37t34 108q0 72 -34 109.5t-94 37.5z" />
    <glyph glyph-name="S" unicode="S" horiz-adv-x="592" 
d="M75 8l-15 16l-16 149h47q14 -66 63 -100t116 -34t108 34t41 101q0 48 -31 70q-35 25 -128 55l-45 15q-53 18 -82 37q-46 32 -61 61q-23 46 -23 98q0 93 59 145t178 52q93 0 172 -38l26 22l16 -16l16 -148h-48q-14 68 -56.5 101t-100.5 33q-61 0 -98 -34.5t-37 -91.5
q0 -48 29 -69q29 -20 115 -49q38 -13 52 -19q25 -9 46 -19q32 -13 44 -22q48 -33 62 -61q22 -44 22 -98q0 -98 -65 -151.5t-198 -53.5q-103 0 -181 38z" />
    <glyph glyph-name="T" unicode="T" horiz-adv-x="676" 
d="M601 558l-42 96h-152v-595l65 -24v-35h-267v38l65 29v587h-153l-41 -102h-47l13 148h593l13 -142h-47z" />
    <glyph glyph-name="U" unicode="U" horiz-adv-x="747" 
d="M718 679l-65 -26v-391q0 -122 -77 -196q-76 -72 -203 -72q-125 0 -202 72q-77 74 -77 196v379l-65 24v35h267v-35l-65 -27v-376q0 -97 51 -149t140 -52t140 52t51 149v393l-64 24v21h169v-21z" />
    <glyph glyph-name="V" unicode="V" horiz-adv-x="771" 
d="M417 0h-62l-282 641l-65 24v35h268v-35l-65 -24l218 -506l220 506l-82 24v35h196v-35l-63 -24z" />
    <glyph glyph-name="W" unicode="W" horiz-adv-x="1188" 
d="M842 0h-62l-189 451l-184 -451h-62l-272 641l-65 24v35h268v-35l-65 -24l208 -506l147 373l-58 133l-65 24v35h268v-35l-65 -24l208 -506l211 506l-81 24v35h195v-35l-63 -24z" />
    <glyph glyph-name="X" unicode="X" horiz-adv-x="744" 
d="M453 35l64 21l-185 251l-192 -251l74 -21v-35h-198v35l67 21l224 286l-221 302l-62 21v35h276v-35l-64 -21l171 -235l179 235l-74 21v35h199v-35l-68 -21l-211 -269l234 -319l62 -21v-35h-275v35z" />
    <glyph glyph-name="Y" unicode="Y" horiz-adv-x="702" 
d="M283 665l-64 -21l175 -299l177 299l-74 21v35h197v-35l-69 -21l-210 -353v-232l65 -24v-35h-267v38l65 29v223l-207 354l-63 21v35h275v-35z" />
    <glyph glyph-name="Z" unicode="Z" horiz-adv-x="636" 
d="M586 0h-539v32l387 622h-295l-41 -102h-47l13 148h524v-32l-389 -622h311l42 106h46z" />
    <glyph glyph-name="bracketleft" unicode="[" horiz-adv-x="317" 
d="M283 715l-95 -24v-832l95 -24v-35h-212v950h212v-35z" />
    <glyph glyph-name="backslash" unicode="\" horiz-adv-x="364" 
d="M54 750l308 -850h-52l-308 850h52z" />
    <glyph glyph-name="bracketright" unicode="]" horiz-adv-x="317" 
d="M35 -165l95 24v832l-95 24v35h211v-950h-211v35z" />
    <glyph glyph-name="asciicircum" unicode="^" horiz-adv-x="454" 
d="M35 481l185 224h15l185 -224l-25 -25l-168 147l-168 -147z" />
    <glyph glyph-name="underscore" unicode="_" horiz-adv-x="632" 
d="M629 -98h-627v48h627v-48z" />
    <glyph glyph-name="grave" unicode="`" horiz-adv-x="295" 
d="M35 611l77 78l149 -156l-25 -25z" />
    <glyph glyph-name="a" unicode="a" horiz-adv-x="539" 
d="M321 47l-3 4q-66 -56 -163 -56q-113 0 -113 106q0 69 53 96q50 27 223 67v78q0 36 -21 56t-59 20q-35 0 -73 -20v-51q0 -23 -15.5 -38.5t-38.5 -15.5q-22 0 -38 15.5t-16 41.5q0 52 55 83q56 32 141 32q90 0 143.5 -35.5t53.5 -92.5v-269q0 -22 18 -22q15 0 27 12l14 -15
q-47 -46 -124 -46q-59 0 -64 50zM318 92v127l-51 -13q-51 -11 -69 -24q-40 -27 -35 -68q0 -63 59 -63q58 0 96 41z" />
    <glyph glyph-name="b" unicode="b" horiz-adv-x="588" 
d="M89 34v644l-60 22v34l175 24l16 -16v-282l-3 -48l3 -3q56 56 148 56q87 0 133 -64q48 -64 48 -166q0 -119 -67 -179.5t-197 -60.5q-114 0 -196 39zM220 367v-306q34 -22 81 -22q116 0 116 188q0 89 -27 135.5t-78 46.5q-58 0 -92 -42z" />
    <glyph glyph-name="c" unicode="c" horiz-adv-x="521" 
d="M366 343v57q-28 18 -73 18q-121 0 -121 -176q0 -191 146 -191q82 0 126 45l29 -29q-72 -72 -193 -72q-111 0 -176 63t-65 173q0 109 65 171.5t181 62.5q84 0 136.5 -31.5t52.5 -84.5q0 -29 -15.5 -44.5t-37.5 -15.5q-23 0 -39 16t-16 38z" />
    <glyph glyph-name="d" unicode="d" horiz-adv-x="588" 
d="M499 742v-665l53 -27v-39l-168 -19l-16 16l3 39l-3 4q-56 -56 -148 -56q-86 0 -134 63q-47 65 -47 165q0 116 61.5 179t172.5 63q57 0 95 -21v234l-60 22v34l176 24zM368 93v300q-31 25 -82 25q-55 0 -84.5 -47.5t-29.5 -139.5q0 -180 104 -180q59 0 92 42z" />
    <glyph glyph-name="e" unicode="e" horiz-adv-x="523" 
d="M475 253l-16 -16h-287q1 -98 36 -142t108 -44q84 0 128 45l29 -29q-71 -72 -192 -72q-112 0 -177 64q-65 65 -65 171q0 109 67 172q68 63 169 63q91 0 147 -50q57 -49 57 -124q0 -25 -4 -38zM281 418q-43 0 -74 -40q-31 -41 -35 -99l197 9q0 60 -24 95t-64 35z" />
    <glyph glyph-name="f" unicode="f" horiz-adv-x="407" 
d="M29 452l60 15v106q0 82 51.5 132t140.5 50q70 0 113.5 -31t43.5 -80q0 -28 -16 -44t-38 -16t-38 16t-16 38v60q-17 13 -42 13q-68 0 -68 -136v-115h163v-46h-163v-354l93 -25v-35h-284v38l60 26v350h-60v38z" />
    <glyph glyph-name="g" unicode="g" horiz-adv-x="574" 
d="M530 425l-56 -21h-32q38 -41 38 -96q0 -71 -58.5 -112.5t-154.5 -41.5q-62 0 -113 20q-17 -23 -17 -47q0 -44 61 -44h138q194 0 194 -152q0 -185 -291 -185q-211 0 -211 96q0 37 28 70.5t76 53.5q-75 22 -75 101q0 60 62 125q-64 40 -64 116q0 71 58 113.5t154 42.5
q23 0 54 -4h209v-35zM355 -42h-160q-13 0 -17 1q-32 -40 -32 -85q0 -44 29.5 -63t90.5 -19q78 0 123 26t45 72q0 31 -19.5 49.5t-59.5 18.5zM206 394q-22 -28 -22 -85t22 -85t61 -28q38 0 61 29t23 84t-23 84q-23 30 -61 30t-61 -29z" />
    <glyph glyph-name="h" unicode="h" horiz-adv-x="629" 
d="M220 362v-306l54 -21v-35h-245v38l60 26v614l-60 22v34l175 24l16 -16v-282l-3 -51l3 -3q30 27 76 43t89 16q73 0 114 -48q41 -49 41 -119v-242l60 -21v-35h-245v38l54 26v225q0 57 -20.5 88.5t-58.5 31.5q-26 0 -58 -13t-52 -34z" />
    <glyph glyph-name="i" unicode="i" horiz-adv-x="309" 
d="M280 0h-251v38l60 26v316l-52 22v42l167 24l16 -16v-396l60 -21v-35zM69 606q0 35 22 57t57 22t56.5 -22t21.5 -57q0 -34 -22 -56t-56 -22q-35 0 -57 22t-22 56z" />
    <glyph glyph-name="j" unicode="j" horiz-adv-x="309" 
d="M89 0v380l-52 22v42l167 24l16 -16v-452q0 -78 -45.5 -145.5t-128.5 -112.5l-28 29q34 37 52.5 99t18.5 130zM69 606q0 35 22 57t57 22t56.5 -22t21.5 -57q0 -34 -22 -56t-56 -22q-35 0 -57 22t-22 56z" />
    <glyph glyph-name="k" unicode="k" horiz-adv-x="576" 
d="M565 0h-163l-130 217l-52 -49v-112l60 -21v-35h-251v38l60 26v614l-60 22v34l175 24l16 -16v-508l185 170l-78 21v35h205v-35l-59 -21l-111 -101l143 -247l60 -21v-35z" />
    <glyph glyph-name="l" unicode="l" horiz-adv-x="309" 
d="M280 0h-251v38l60 26v614l-60 22v34l175 24l16 -16v-686l60 -21v-35z" />
    <glyph glyph-name="m" unicode="m" horiz-adv-x="892" 
d="M220 362v-306l48 -21v-35h-239v38l60 26v316l-52 22v42l167 24l16 -16l-3 -43l3 -3q27 27 70.5 43t83.5 16q77 0 113 -66q31 30 83 48q51 18 93 18q67 0 103.5 -46t36.5 -121v-242l60 -21v-35h-239v38l48 26v225q0 57 -18.5 88.5t-52.5 31.5q-52 0 -100 -41
q11 -36 11 -70v-242l48 -21v-35h-228v38l49 26v225q0 57 -18.5 88.5t-50.5 31.5q-22 0 -48.5 -13t-43.5 -34z" />
    <glyph glyph-name="n" unicode="n" horiz-adv-x="629" 
d="M220 362v-306l54 -21v-35h-245v38l60 26v316l-52 22v42l167 24l16 -16l-3 -43l3 -3q31 28 79 43q48 16 90 16q73 0 112 -48t39 -119v-242l60 -21v-35h-245v38l54 26v225q0 57 -21.5 88.5t-59.5 31.5q-26 0 -57 -13t-51 -34z" />
    <glyph glyph-name="o" unicode="o" 
d="M105 58q-66 64 -66 172t66 171q65 64 174 64t174 -64q66 -63 66 -171t-66 -172q-66 -63 -174 -63t-174 63zM172 230q0 -91 28.5 -139.5t78.5 -48.5q49 0 78 49t29 139q0 91 -28.5 139.5t-78.5 48.5t-78.5 -48.5t-28.5 -139.5z" />
    <glyph glyph-name="p" unicode="p" horiz-adv-x="588" 
d="M313 -250h-284v38l60 26v566l-52 22v42l167 24l16 -16l-3 -40l3 -3q56 56 148 56q87 0 133 -64q48 -65 48 -165q0 -115 -61.5 -178t-171.5 -63q-54 0 -96 20v-205l93 -25v-35zM220 367v-303q31 -25 82 -25q55 0 85 47.5t30 141.5q0 89 -27 135t-78 46q-58 0 -92 -42z" />
    <glyph glyph-name="q" unicode="q" horiz-adv-x="573" 
d="M499 452v-638l60 -26v-38h-251v35l60 21v194l3 48l-3 3q-56 -56 -148 -56q-86 0 -134 64q-47 65 -47 166q0 240 263 240q62 0 127 -20l55 23zM368 93v303q-31 22 -81 22q-115 0 -115 -186q0 -181 104 -181q59 0 92 42z" />
    <glyph glyph-name="r" unicode="r" horiz-adv-x="475" 
d="M29 38l60 26v316l-52 22v42l167 24l16 -18l-3 -72l3 -3q11 19 21 31q48 59 106 59q43 0 72.5 -30t29.5 -74q0 -31 -15 -46.5t-38 -15.5t-39 15.5t-16 38.5v59q-7 6 -21 6q-24 0 -50 -27q-23 -25 -38 -54l-12 -27v-250l93 -25v-35h-284v38z" />
    <glyph glyph-name="s" unicode="s" horiz-adv-x="444" 
d="M56 4l-13 13v115h47q26 -90 111 -90q41 0 66 18t25 54q0 28 -20 40t-76 27l-47 13q-13 4 -40 17q-25 12 -37 25q-31 35 -31 89q0 139 176 139q73 0 131 -27l16 16l13 -13v-112h-47q-24 90 -97 90q-36 0 -58 -19t-22 -49q0 -26 17 -38t69 -27l50 -16q17 -5 42 -18
q27 -13 39 -27q34 -38 34 -90q0 -139 -199 -139q-76 0 -133 25z" />
    <glyph glyph-name="t" unicode="t" horiz-adv-x="397" 
d="M89 414h-60v24q105 42 175 136l16 -16v-98h130v-46h-130v-280q0 -85 71 -85q37 0 58 21l23 -23q-52 -52 -134 -52q-68 0 -108.5 38t-40.5 101v280z" />
    <glyph glyph-name="u" unicode="u" horiz-adv-x="627" 
d="M537 452v-375l52 -27v-39l-167 -19l-16 16l3 49l-3 3q-29 -29 -79 -47t-96 -18q-67 0 -104.5 39.5t-37.5 101.5v244l-52 22v42l167 24l16 -16v-313q0 -41 20 -64.5t55 -23.5q28 0 59.5 15t51.5 40v274l-52 22v42l167 24z" />
    <glyph glyph-name="v" unicode="v" horiz-adv-x="574" 
d="M316 0h-56l-190 404l-59 21v35h250v-35l-58 -21l125 -269l127 269l-77 21v35h186v-35l-58 -21z" />
    <glyph glyph-name="w" unicode="w" horiz-adv-x="871" 
d="M621 0h-56l-122 281l-130 -281h-56l-187 404l-59 21v35h244v-35l-58 -21l126 -278l97 210l-30 68l-60 21v35h244v-35l-58 -21l114 -278l121 278l-76 21v35h186v-35l-58 -21z" />
    <glyph glyph-name="x" unicode="x" horiz-adv-x="574" 
d="M300 35l58 21l-107 131l-110 -131l70 -21v-35h-189v35l62 21l140 165l-149 183l-50 21v35h252v-35l-58 -21l101 -125l106 125l-70 21v35h189v-35l-61 -21l-137 -158l154 -190l50 -21v-35h-251v35z" />
    <glyph glyph-name="y" unicode="y" horiz-adv-x="577" 
d="M262 -5l-192 409l-59 21v35h250v-35l-58 -21l125 -269l127 269l-77 21v35h188v-35l-58 -21l-189 -404q-78 -163 -109 -207q-32 -47 -85 -47q-40 0 -65.5 20.5t-25.5 58.5q-3 47 40 59q36 10 62 -13q17 -15 15 -37v-25q4 -2 8 -2q14 0 36 40q21 37 67 148z" />
    <glyph glyph-name="z" unicode="z" horiz-adv-x="496" 
d="M448 0h-401v32l257 382h-173l-29 -86h-47v132h391v-32l-259 -382h186l29 86h46v-132z" />
    <glyph glyph-name="braceleft" unicode="{" horiz-adv-x="357" 
d="M135 278q49 -27 76.5 -86.5t27.5 -141.5q0 -98 22.5 -150.5t61.5 -52.5v-46q-92 0 -149 68q-56 68 -56 184q0 98 -22 150.5t-61 52.5v44q39 0 61 52t22 150q0 116 56 184q57 69 149 69v-47q-39 0 -61.5 -52t-22.5 -150q0 -82 -27.5 -141.5t-76.5 -86.5z" />
    <glyph glyph-name="bar" unicode="|" horiz-adv-x="226" 
d="M137 750v-1000h-48v1000h48z" />
    <glyph glyph-name="braceright" unicode="}" horiz-adv-x="357" 
d="M223 278q-50 27 -77.5 86t-27.5 142q0 98 -22 150t-61 52v47q91 0 147 -69q57 -68 57 -184q0 -97 22.5 -149.5t61.5 -52.5v-44q-39 0 -61.5 -52.5t-22.5 -150.5q0 -117 -57 -184q-56 -68 -147 -68v46q39 0 61 52.5t22 150.5q0 83 27.5 142t77.5 86z" />
    <glyph glyph-name="asciitilde" unicode="~" horiz-adv-x="506" 
d="M65 232l-26 24q112 115 163 115q23 0 66 -28q43 -27 70 -27q23 0 52 15t51 38l26 -25q-116 -116 -168 -116q-22 0 -66 28q-43 28 -70 28q-49 0 -98 -52z" />
    <glyph glyph-name="exclamdown" unicode="&#xa1;" horiz-adv-x="217" 
d="M85 460h47q16 -236 29 -351q3 -26 6.5 -50t5.5 -37t4 -24.5t2.5 -18t0.5 -10.5q0 -31 -20 -51.5t-52 -20.5q-30 0 -50.5 20.5t-20.5 51.5q0 4 5 39q22 117 43 452zM108 661q28 0 46.5 -18t18.5 -46q0 -29 -18.5 -47t-46.5 -18q-27 0 -45.5 18.5t-18.5 46.5t18.5 46
t45.5 18z" />
    <glyph glyph-name="cent" unicode="&#xa2;" horiz-adv-x="521" 
d="M304 -4v-46h-39v45q-105 5 -165.5 68t-60.5 168q0 103 59.5 165.5t166.5 67.5v46h39v-46q76 -3 123 -34t47 -81q0 -29 -15.5 -44.5t-37.5 -15.5q-23 0 -39 16t-16 38v57q-23 14 -62 18v-367h14q82 0 126 45l29 -29q-65 -65 -169 -71zM172 242q0 -152 93 -183v356
q-93 -19 -93 -173z" />
    <glyph glyph-name="sterling" unicode="&#xa3;" horiz-adv-x="584" 
d="M89 327h-60v30l60 16v113q0 102 62.5 160.5t172.5 58.5q81 0 132 -31t51 -84q0 -29 -16 -45t-38 -16q-23 0 -38.5 15.5t-15.5 38.5v57q-25 18 -67 18q-112 0 -112 -161v-124h190v-46h-190q0 -105 -51 -220q36 17 60 17q29 0 83 -27q56 -27 87 -27q62 0 128 54l25 -26
q-146 -114 -205 -114q-27 0 -82 27q-53 28 -87 28q-57 0 -121 -53l-26 25l58 45v271z" />
    <glyph glyph-name="currency" unicode="&#xa4;" horiz-adv-x="509" 
d="M80 300q0 64 32 108l-62 64l33 33l62 -63q47 35 109 35q67 0 111 -34l61 62l33 -33l-62 -62q34 -44 34 -110q0 -64 -34 -110l63 -62l-33 -33l-64 63q-44 -34 -109 -34q-63 0 -107 35l-64 -64l-34 33l64 64q-33 46 -33 108zM128 300q0 -59 34.5 -95t92.5 -36
q57 0 92.5 36.5t35.5 94.5q0 60 -35.5 97t-92.5 37q-58 0 -92.5 -36.5t-34.5 -97.5z" />
    <glyph glyph-name="yen" unicode="&#xa5;" horiz-adv-x="702" 
d="M278 231h-121v48h121v11l-207 354l-63 21v35h275v-35l-64 -21l175 -299l177 299l-74 21v35h197v-35l-69 -21l-210 -353v-12h120v-48h-120v-67h120v-48h-120v-57l65 -24v-35h-267v38l65 29v49h-121v48h121v67z" />
    <glyph glyph-name="brokenbar" unicode="&#xa6;" horiz-adv-x="226" 
d="M89 750h48v-450h-48v450zM137 200v-450h-48v450h48z" />
    <glyph glyph-name="section" unicode="&#xa7;" horiz-adv-x="482" 
d="M104 432q-61 40 -61 112q0 73 56 117t152 44q87 0 138 -36t51 -94q1 -41 -26.5 -56t-55 0.5t-26.5 46.5v62q-32 30 -76 30t-68 -23t-24 -65q0 -81 96 -123q8 -3 29.5 -11.5t31 -12.5t28 -12.5t28 -15.5t23 -18t19.5 -21.5t11 -25.5t5 -31q0 -65 -56 -130q66 -42 66 -113
q0 -73 -58 -117t-155 -44q-88 0 -141 36t-53 94q0 31 15 47t38 16t39 -16t16 -39v-62q32 -30 81 -30q45 0 70.5 24t25.5 66q0 83 -98 119q-9 3 -34 12.5t-36 14.5t-32 15t-31.5 19t-22.5 22t-17 29t-5 35q0 67 57 135zM317 198q24 40 24 67q0 29 -18 52.5t-43 34.5
q-19 9 -61 24q-39 15 -55 25q-24 -41 -24 -69q0 -51 45 -77q21 -12 42 -21q87 -34 90 -36z" />
    <glyph glyph-name="dieresis" unicode="&#xa8;" horiz-adv-x="354" 
d="M-1 594q0 29 19 48t48 19t48 -19t19 -48q0 -30 -19 -49t-48 -19t-48 19t-19 49zM220 594q0 29 19.5 48t48.5 19t48 -19t19 -48q0 -30 -19 -49t-48 -19t-48.5 19t-19.5 49z" />
    <glyph glyph-name="copyright" unicode="&#xa9;" horiz-adv-x="787" 
d="M142 99q-104 104 -104 251t104 251t251 104t251 -104t104 -251t-104 -251t-251 -104t-251 104zM393 659q-127 0 -218 -91q-91 -90 -91 -218t90 -219q92 -90 219 -90q128 0 218 90q91 91 91 219t-91 218q-90 91 -218 91zM517 246l17 -17q-59 -56 -137 -56q-81 0 -128 48
t-47 129q0 83 48 131.5t129 48.5q51 0 90 -19l25 10l8 -8l9 -77h-28q-29 66 -94 66q-100 0 -100 -147q0 -146 113 -146q58 0 95 37z" />
    <glyph glyph-name="ordfeminine" unicode="&#xaa;" horiz-adv-x="283" 
d="M159 493l-1 2q-31 -27 -80 -27q-55 0 -55 52q0 36 25 49q28 15 110 34v37q0 35 -35 35q-17 0 -30 -7v-26q0 -19 -15.5 -27t-31 0t-15.5 29q0 26 28 42.5t74 16.5q48 0 76 -18t28 -48v-130q0 -10 8 -10q7 0 14 6l7 -8q-26 -26 -71 -26q-31 0 -36 24zM158 518v58
q-39 -9 -51 -18t-12 -30q0 -28 24 -28q23 0 39 18z" />
    <glyph glyph-name="guillemotleft" unicode="&#xab;" horiz-adv-x="434" 
d="M205 87l-176 165v15l176 166l25 -25l-99 -149l99 -148zM371 87l-176 165v15l176 166l24 -25l-98 -149l98 -148z" />
    <glyph glyph-name="logicalnot" unicode="&#xac;" horiz-adv-x="504" 
d="M418 325h-380v49h428v-148h-48v99z" />
    <glyph glyph-name="uni00AD" unicode="&#xad;" horiz-adv-x="308" 
d="M270 276h-232v48h232v-48z" />
    <glyph glyph-name="registered" unicode="&#xae;" horiz-adv-x="787" 
d="M142 99q-104 104 -104 251t104 251t251 104t251 -104t104 -251t-104 -251t-251 -104t-251 104zM393 659q-127 0 -218 -91q-91 -90 -91 -218t90 -219q92 -90 219 -90q128 0 218 90q91 91 91 219t-91 218q-90 91 -218 91zM534 435q0 -34 -21.5 -57.5t-59.5 -32.5
q22 -10 41 -49l42 -81l33 -13v-20h-104l-81 156h-33v-123l33 -13v-20h-148v22l33 16v283l-33 11v18h163q61 0 98 -26t37 -71zM390 505h-39v-141h39q57 0 57 71q0 70 -57 70z" />
    <glyph glyph-name="overscore" unicode="&#xaf;" horiz-adv-x="308" 
d="M287 554h-266v54h266v-54z" />
    <glyph glyph-name="degree" unicode="&#xb0;" horiz-adv-x="265" 
d="M35 607q0 44 27 71t70 27q44 0 71 -27t27 -71q0 -43 -27 -70t-71 -27q-43 0 -70 27t-27 70zM95 649q-14 -16 -14 -42t14 -42t37 -16t37 16q15 16 15 42t-15 42q-14 17 -37 17t-37 -17z" />
    <glyph glyph-name="plusminus" unicode="&#xb1;" horiz-adv-x="454" 
d="M202 326h-164v48h164v164h49v-164h165v-48h-165v-165h-49v165zM416 53h-378v48h378v-48z" />
    <glyph glyph-name="twosuperior" unicode="&#xb2;" horiz-adv-x="282" 
d="M253 350h-232v34q79 70 117 123t38 115q0 53 -47 53q-27 0 -45 -18v-32q0 -13 -9.5 -22t-22.5 -9t-22 9.5t-9 26.5q0 32 30.5 52.5t82.5 20.5q54 0 84.5 -24t30.5 -68t-35 -94q-12 -17 -41 -44l-39 -35q-19 -14 -43 -33h123l17 43h28z" />
    <glyph glyph-name="threesuperior" unicode="&#xb3;" horiz-adv-x="302" 
d="M94 662v-30q0 -13 -9 -22t-22 -9t-22 9t-9 25q0 32 30.5 50t79.5 18q55 0 88.5 -24.5t33.5 -64.5q0 -59 -66 -80q79 -21 79 -89q0 -45 -37.5 -71.5t-97.5 -26.5q-51 0 -82 18t-31 50q0 16 9 25t23 9q12 0 21 -9.5t9 -21.5v-31q17 -12 40 -12q30 0 48.5 19t18.5 55
q0 72 -78 72h-25v26h21q68 0 68 61q0 67 -53 67q-24 0 -37 -13z" />
    <glyph glyph-name="acute" unicode="&#xb4;" horiz-adv-x="295" 
d="M59 508l-24 25l148 156l78 -78z" />
    <glyph glyph-name="mu" unicode="&#xb5;" horiz-adv-x="627" 
d="M89 -96v476l-52 22v42l167 24l16 -16v-313q0 -41 20 -64.5t55 -23.5q28 0 59.5 15t51.5 40v274l-52 22v42l167 24l16 -16v-375l52 -27v-39l-167 -19l-16 16l3 49l-3 3q-27 -29 -73 -47t-89 -18q-38 0 -66 19q6 -27 14.5 -54t12.5 -39.5t3 -16.5q0 -26 -17 -43t-43 -17
q-25 0 -42 17t-17 43z" />
    <glyph glyph-name="paragraph" unicode="&#xb6;" horiz-adv-x="524" 
d="M333 17v193q-127 0 -207 66q-79 67 -79 179t79 178q79 67 207 67h162v-35l-60 -24v-624q0 -84 -45.5 -155.5t-128.5 -119.5l-28 29q49 41 74.5 107t25.5 139z" />
    <glyph glyph-name="middot" unicode="&#xb7;" horiz-adv-x="199" 
d="M98 345q29 0 47.5 -18t18.5 -47q0 -28 -18.5 -46t-47.5 -18q-27 0 -45 18t-18 46t18 46.5t45 18.5z" />
    <glyph glyph-name="cedilla" unicode="&#xb8;" horiz-adv-x="185" 
d="M22 -107l57 107h35l-21 -41q35 0 57 -12.5t22 -36.5q0 -16 -18 -42q-20 -30 -34 -44l-51 -53l-14 14q48 53 48 76q0 32 -81 32z" />
    <glyph glyph-name="onesuperior" unicode="&#xb9;" horiz-adv-x="215" 
d="M193 350h-166v22l44 14v268h-47v23l117 27l9 -8v-314l43 -12v-20z" />
    <glyph glyph-name="ordmasculine" unicode="&#xba;" horiz-adv-x="286" 
d="M54 499q-33 31 -33 86t33 86q35 32 89 32t88 -32q34 -31 34 -86t-34 -86q-34 -32 -88 -32t-89 32zM143 495q43 0 43 90t-43 90q-42 0 -42 -90t42 -90z" />
    <glyph glyph-name="guillemotright" unicode="&#xbb;" horiz-adv-x="434" 
d="M229 433l176 -166v-15l-176 -165l-24 24l98 149l-98 148zM63 433l177 -166v-15l-177 -165l-24 24l99 149l-99 148z" />
    <glyph glyph-name="onequarter" unicode="&#xbc;" horiz-adv-x="599" 
d="M571 0h-135v22l30 14v39h-145v17q43 74 64 133q22 57 22 125h79q0 -64 -30.5 -120t-95.5 -128h106v66l66 66l9 -8v-124h34v-27h-34v-43l30 -12v-20zM473 700l-299 -700h-52l300 700h51zM190 350h-165v22l43 14v268h-46v23l116 27l9 -8v-314l43 -12v-20z" />
    <glyph glyph-name="onehalf" unicode="&#xbd;" horiz-adv-x="637" 
d="M190 350h-165v22l43 14v268h-46v23l116 27l9 -8v-314l43 -12v-20zM473 700l-299 -700h-52l300 700h51zM609 0h-227v34q82 75 116 126.5t34 111.5q0 28 -10.5 40.5t-34.5 12.5q-27 0 -43 -18v-32q0 -13 -9 -22t-22 -9t-22 9t-9 27q0 31 30 52t80 21q52 0 82 -24t30 -68
t-35 -94q-11 -18 -39 -44l-38 -35l-41 -33h118l18 43h27z" />
    <glyph glyph-name="threequarters" unicode="&#xbe;" horiz-adv-x="648" 
d="M91 662v-30q0 -13 -9 -22t-22 -9q-12 0 -21.5 9.5t-9.5 24.5q0 32 30 50t79 18q54 0 86.5 -24.5t32.5 -64.5q0 -59 -65 -80q78 -21 78 -89q0 -45 -36.5 -71.5t-96.5 -26.5q-49 0 -79.5 18t-30.5 50q0 16 9 25t22 9t22 -9.5t9 -21.5v-31q15 -12 38 -12q28 0 45.5 19
t17.5 55q0 72 -74 72h-25v26h20q66 0 66 61q0 32 -14 49.5t-37 17.5q-22 0 -35 -13zM617 0h-134v22l30 14v39h-145v17q42 74 63 132q22 57 22 126h79q0 -64 -30.5 -120t-95.5 -128h107v66l66 66l9 -8v-124h34v-27h-34v-43l29 -12v-20zM520 700l-298 -700h-52l300 700h50z
" />
    <glyph glyph-name="questiondown" unicode="&#xbf;" horiz-adv-x="482" 
d="M231 460h47q11 -72 3 -116q-7 -39 -28 -83q-19 -37 -41 -66q-53 -66 -53 -145q0 -51 25 -78.5t71 -27.5q49 0 82 30v62q0 22 15.5 38t38.5 16t38.5 -15.5t15.5 -46.5q0 -58 -53.5 -94t-141.5 -36q-98 0 -155 49t-57 134q0 83 68 155q3 3 23 23.5t26 27t22 26t22.5 32
t15.5 32.5t12.5 40t3.5 43zM253 661q28 0 46.5 -18.5t18.5 -46.5t-18.5 -46t-46.5 -18t-46.5 18t-18.5 46t18 46.5t47 18.5z" />
    <glyph glyph-name="Agrave" unicode="&#xc0;" horiz-adv-x="771" 
d="M355 700h62l281 -641l65 -24v-35h-266v35l63 24l-69 162h-298l-71 -162l82 -24v-35h-196v35l63 24zM471 267l-128 298l-130 -298h258zM252 851l78 78l149 -156l-25 -25z" />
    <glyph glyph-name="Aacute" unicode="&#xc1;" horiz-adv-x="771" 
d="M355 700h62l281 -641l65 -24v-35h-266v35l63 24l-69 162h-298l-71 -162l82 -24v-35h-196v35l63 24zM471 267l-128 298l-130 -298h258zM317 748l-25 25l149 156l78 -78z" />
    <glyph glyph-name="Acircumflex" unicode="&#xc2;" horiz-adv-x="771" 
d="M355 700h62l281 -641l65 -24v-35h-266v35l63 24l-69 162h-298l-71 -162l82 -24v-35h-196v35l63 24zM471 267l-128 298l-130 -298h258zM232 773l146 156h15l146 -156l-25 -25l-129 79l-128 -79z" />
    <glyph glyph-name="Atilde" unicode="&#xc3;" horiz-adv-x="771" 
d="M355 700h62l281 -641l65 -24v-35h-266v35l63 24l-69 162h-298l-71 -162l82 -24v-35h-196v35l63 24zM471 267l-128 298l-130 -298h258zM230 772l-22 22q94 96 136 96q22 0 55 -24t59 -24q42 0 85 46l23 -23q-98 -97 -141 -97q-22 0 -55 24q-31 24 -58 24q-38 0 -82 -44z
" />
    <glyph glyph-name="Adieresis" unicode="&#xc4;" horiz-adv-x="771" 
d="M355 700h62l281 -641l65 -24v-35h-266v35l63 24l-69 162h-298l-71 -162l82 -24v-35h-196v35l63 24zM471 267l-128 298l-130 -298h258zM207 834q0 29 19 48t48 19t48 -19t19 -48q0 -30 -19 -49t-48 -19t-48 19t-19 49zM428 834q0 29 19.5 48t48.5 19t48 -19t19 -48
q0 -30 -19 -49t-48 -19t-48.5 19t-19.5 49z" />
    <glyph glyph-name="Aring" unicode="&#xc5;" horiz-adv-x="771" 
d="M355 700h62l281 -641l65 -24v-35h-266v35l63 24l-69 162h-298l-71 -162l82 -24v-35h-196v35l63 24zM471 267l-128 298l-130 -298h258zM385 908q39 0 63 -22.5t24 -60.5q0 -39 -24 -61t-63 -22t-62.5 22.5t-23.5 60.5t23.5 60.5t62.5 22.5zM357 862q-10 -14 -10 -37
t10 -37q11 -14 28 -14t27 14q11 14 11 37t-11 37q-10 14 -27 14t-28 -14z" />
    <glyph glyph-name="AE" unicode="&#xc6;" horiz-adv-x="842" 
d="M357 32l65 19l-27 170h-202l-71 -162l82 -24v-35h-196v35l63 24l284 641h420l13 -142h-47l-42 96h-243l42 -272h139l21 73h43v-193h-43l-21 73h-133l44 -289h162l41 96h47l-13 -142h-428v32zM389 267l-46 298l-130 -298h176z" />
    <glyph glyph-name="Ccedilla" unicode="&#xc7;" horiz-adv-x="707" 
d="M323 -107l52 101q-151 4 -240 100q-88 94 -88 253q0 164 95 262t253 98q107 0 187 -44l44 20l16 -16l16 -146h-47q-52 136 -196 136q-109 0 -166.5 -76t-57.5 -227q0 -137 58 -219q59 -81 183 -81t201 78l29 -30q-104 -104 -251 -108l-17 -35q35 0 56.5 -12.5t21.5 -36.5
q0 -16 -17 -42q-21 -32 -86 -97l-14 14q49 50 49 76q0 32 -81 32z" />
    <glyph glyph-name="Egrave" unicode="&#xc8;" horiz-adv-x="632" 
d="M231 335v-289h269l42 96h47l-13 -142h-547v32l65 19v598l-65 19v32h537l13 -142h-47l-42 96h-259v-272h197l21 73h43v-193h-43l-21 73h-197zM183 851l78 78l148 -156l-24 -25z" />
    <glyph glyph-name="Eacute" unicode="&#xc9;" horiz-adv-x="632" 
d="M231 335v-289h269l42 96h47l-13 -142h-547v32l65 19v598l-65 19v32h537l13 -142h-47l-42 96h-259v-272h197l21 73h43v-193h-43l-21 73h-197zM247 748l-24 25l148 156l78 -78z" />
    <glyph glyph-name="Ecircumflex" unicode="&#xca;" horiz-adv-x="632" 
d="M231 335v-289h269l42 96h47l-13 -142h-547v32l65 19v598l-65 19v32h537l13 -142h-47l-42 96h-259v-272h197l21 73h43v-193h-43l-21 73h-197zM163 773l146 156h14l146 -156l-24 -25l-129 79l-129 -79z" />
    <glyph glyph-name="Edieresis" unicode="&#xcb;" horiz-adv-x="632" 
d="M231 335v-289h269l42 96h47l-13 -142h-547v32l65 19v598l-65 19v32h537l13 -142h-47l-42 96h-259v-272h197l21 73h43v-193h-43l-21 73h-197zM138 834q0 29 19 48t48 19q30 0 48.5 -19t18.5 -48q0 -30 -18.5 -49t-48.5 -19q-29 0 -48 19t-19 49zM360 834q0 29 19 48t48 19
q30 0 48.5 -19t18.5 -48q0 -30 -18.5 -49t-48.5 -19q-29 0 -48 19t-19 49z" />
    <glyph glyph-name="Igrave" unicode="&#xcc;" horiz-adv-x="325" 
d="M295 665l-65 -27v-579l65 -24v-35h-265v38l65 29v574l-65 24v35h265v-35zM41 851l77 78l149 -156l-25 -25z" />
    <glyph glyph-name="Iacute" unicode="&#xcd;" horiz-adv-x="325" 
d="M295 665l-65 -27v-579l65 -24v-35h-265v38l65 29v574l-65 24v35h265v-35zM93 748l-24 25l148 156l78 -78z" />
    <glyph glyph-name="Icircumflex" unicode="&#xce;" horiz-adv-x="325" 
d="M295 665l-65 -27v-579l65 -24v-35h-265v38l65 29v574l-65 24v35h265v-35zM10 773l145 156h15l146 -156l-25 -25l-129 79l-128 -79z" />
    <glyph glyph-name="Idieresis" unicode="&#xcf;" horiz-adv-x="325" 
d="M295 665l-65 -27v-579l65 -24v-35h-265v38l65 29v574l-65 24v35h265v-35zM-2 834q0 29 19 48t48 19q30 0 48.5 -19t18.5 -48q0 -30 -18.5 -49t-48.5 -19q-29 0 -48 19t-19 49zM193 834q0 29 19 48t48 19q30 0 48.5 -19t18.5 -48q0 -30 -18.5 -49t-48.5 -19q-29 0 -48 19
t-19 49z" />
    <glyph glyph-name="Eth" unicode="&#xd0;" horiz-adv-x="744" 
d="M94 331h-65v31l65 15v272l-65 19v32h322q157 0 251 -94q95 -93 95 -256q0 -162 -95 -257q-94 -93 -251 -93h-322v32l65 19v280zM351 654h-120v-277h144v-46h-144v-285h120q94 0 148 78.5t54 225.5q0 148 -54 226t-148 78z" />
    <glyph glyph-name="Ntilde" unicode="&#xd1;" horiz-adv-x="719" 
d="M29 0v24l65 28v589l-65 24v35h196l354 -504v459l-65 24v21h176v-21l-65 -26v-653h-64l-421 602v-558l65 -23v-21h-176zM204 772l-22 22q95 96 136 96q22 0 55 -24t59 -24q42 0 85 46l23 -23q-98 -97 -141 -97q-22 0 -55 24q-32 24 -58 24q-38 0 -82 -44z" />
    <glyph glyph-name="Ograve" unicode="&#xd2;" horiz-adv-x="775" 
d="M388 707q152 0 246 -97q94 -95 94 -260q0 -164 -94 -261q-94 -96 -246 -96t-247 96q-94 97 -94 261q0 165 94 260q94 97 247 97zM191 350q0 -148 53 -229t144 -81t143.5 81t52.5 229q0 150 -52.5 230t-143.5 80q-92 0 -144.5 -80t-52.5 -230zM254 851l78 78l148 -156
l-24 -25z" />
    <glyph glyph-name="Oacute" unicode="&#xd3;" horiz-adv-x="775" 
d="M388 707q152 0 246 -97q94 -95 94 -260q0 -164 -94 -261q-94 -96 -246 -96t-247 96q-94 97 -94 261q0 165 94 260q94 97 247 97zM191 350q0 -148 53 -229t144 -81t143.5 81t52.5 229q0 150 -52.5 230t-143.5 80q-92 0 -144.5 -80t-52.5 -230zM319 748l-25 25l149 156
l77 -78z" />
    <glyph glyph-name="Ocircumflex" unicode="&#xd4;" horiz-adv-x="775" 
d="M388 707q152 0 246 -97q94 -95 94 -260q0 -164 -94 -261q-94 -96 -246 -96t-247 96q-94 97 -94 261q0 165 94 260q94 97 247 97zM191 350q0 -148 53 -229t144 -81t143.5 81t52.5 229q0 150 -52.5 230t-143.5 80q-92 0 -144.5 -80t-52.5 -230zM234 773l146 156h15
l145 -156l-24 -25l-129 79l-128 -79z" />
    <glyph glyph-name="Otilde" unicode="&#xd5;" horiz-adv-x="775" 
d="M388 707q152 0 246 -97q94 -95 94 -260q0 -164 -94 -261q-94 -96 -246 -96t-247 96q-94 97 -94 261q0 165 94 260q94 97 247 97zM191 350q0 -148 53 -229t144 -81t143.5 81t52.5 229q0 150 -52.5 230t-143.5 80q-92 0 -144.5 -80t-52.5 -230zM233 772l-23 22
q94 96 137 96q23 0 55 -24q31 -24 58 -24q42 0 85 46l23 -23q-97 -97 -140 -97q-22 0 -55 24t-59 24q-39 0 -81 -44z" />
    <glyph glyph-name="Odieresis" unicode="&#xd6;" horiz-adv-x="775" 
d="M388 707q152 0 246 -97q94 -95 94 -260q0 -164 -94 -261q-94 -96 -246 -96t-247 96q-94 97 -94 261q0 165 94 260q94 97 247 97zM191 350q0 -148 53 -229t144 -81t143.5 81t52.5 229q0 150 -52.5 230t-143.5 80q-92 0 -144.5 -80t-52.5 -230zM209 834q0 29 19 48t49 19
q29 0 48 -19t19 -48q0 -30 -19 -49t-48 -19q-30 0 -49 19t-19 49zM431 834q0 29 19 48t48 19q30 0 48.5 -19t18.5 -48q0 -30 -18.5 -49t-48.5 -19q-29 0 -48 19t-19 49z" />
    <glyph glyph-name="multiply" unicode="&#xd7;" horiz-adv-x="454" 
d="M192 300l-145 146l34 34l146 -145l146 145l35 -34l-146 -146l146 -146l-34 -35l-147 147l-147 -147l-34 35z" />
    <glyph glyph-name="Oslash" unicode="&#xd8;" horiz-adv-x="775" 
d="M163 69l-62 -69h-54l87 97q-87 96 -87 253q0 165 94 260q94 97 247 97q135 0 224 -76l62 69h54l-87 -97q87 -96 87 -253q0 -164 -94 -261q-94 -96 -246 -96q-136 0 -225 76zM191 350q0 -97 22 -164l332 370q-53 104 -157 104q-92 0 -144.5 -80t-52.5 -230zM584 350
q0 93 -23 164l-331 -370q53 -104 158 -104q91 0 143.5 81t52.5 229z" />
    <glyph glyph-name="Ugrave" unicode="&#xd9;" horiz-adv-x="747" 
d="M718 679l-65 -26v-391q0 -122 -77 -196q-76 -72 -203 -72q-125 0 -202 72q-77 74 -77 196v379l-65 24v35h267v-35l-65 -27v-376q0 -97 51 -149t140 -52t140 52t51 149v393l-64 24v21h169v-21zM252 851l78 78l148 -156l-24 -25z" />
    <glyph glyph-name="Uacute" unicode="&#xda;" horiz-adv-x="747" 
d="M718 679l-65 -26v-391q0 -122 -77 -196q-76 -72 -203 -72q-125 0 -202 72q-77 74 -77 196v379l-65 24v35h267v-35l-65 -27v-376q0 -97 51 -149t140 -52t140 52t51 149v393l-64 24v21h169v-21zM317 748l-25 25l148 156l78 -78z" />
    <glyph glyph-name="Ucircumflex" unicode="&#xdb;" horiz-adv-x="747" 
d="M718 679l-65 -26v-391q0 -122 -77 -196q-76 -72 -203 -72q-125 0 -202 72q-77 74 -77 196v379l-65 24v35h267v-35l-65 -27v-376q0 -97 51 -149t140 -52t140 52t51 149v393l-64 24v21h169v-21zM232 773l146 156h15l145 -156l-24 -25l-129 79l-128 -79z" />
    <glyph glyph-name="Udieresis" unicode="&#xdc;" horiz-adv-x="747" 
d="M718 679l-65 -26v-391q0 -122 -77 -196q-76 -72 -203 -72q-125 0 -202 72q-77 74 -77 196v379l-65 24v35h267v-35l-65 -27v-376q0 -97 51 -149t140 -52t140 52t51 149v393l-64 24v21h169v-21zM207 834q0 29 19 48t49 19q29 0 47.5 -19t18.5 -48q0 -30 -18.5 -49
t-47.5 -19q-30 0 -49 19t-19 49zM429 834q0 29 19 48t48 19q30 0 48.5 -19t18.5 -48q0 -30 -18.5 -49t-48.5 -19q-29 0 -48 19t-19 49z" />
    <glyph glyph-name="Yacute" unicode="&#xdd;" horiz-adv-x="702" 
d="M283 665l-64 -21l175 -299l177 299l-74 21v35h197v-35l-69 -21l-210 -353v-232l65 -24v-35h-267v38l65 29v223l-207 354l-63 21v35h275v-35zM310 748l-25 25l148 156l78 -78z" />
    <glyph glyph-name="Thorn" unicode="&#xde;" horiz-adv-x="639" 
d="M296 665l-65 -27v-78h97q118 0 191 -55q74 -54 74 -147q0 -92 -74 -148q-73 -54 -191 -54h-49l-16 16v30h49q64 0 100 39.5t36 116.5t-36 116.5t-100 39.5h-81v-450l95 -29v-35h-297v38l65 29v574l-65 24v35h267v-35z" />
    <glyph glyph-name="germandbls" unicode="&#xdf;" horiz-adv-x="692" 
d="M332 4l-13 13v115h47q22 -90 97 -90q35 0 56 17t21 51q0 27 -17 42t-68 36q-30 12 -56 24q-21 12 -42 28q-41 34 -41 101q0 73 47 134q47 63 47 133q0 103 -95 103q-49 0 -72 -31.5t-23 -104.5v-519l60 -21v-35h-251v38l60 26v350h-60v38l60 15v106q0 182 236 182
q193 0 193 -121q2 -40 -48.5 -124t-48.5 -126q0 -32 16 -48.5t63 -34.5q31 -13 60 -26q18 -8 45 -29q48 -34 48 -109q0 -142 -183 -142q-72 0 -122 25z" />
    <glyph glyph-name="agrave" unicode="&#xe0;" horiz-adv-x="539" 
d="M321 47l-3 4q-66 -56 -163 -56q-113 0 -113 106q0 69 53 96q50 27 223 67v78q0 36 -21 56t-59 20q-35 0 -73 -20v-51q0 -23 -15.5 -38.5t-38.5 -15.5q-22 0 -38 15.5t-16 41.5q0 52 55 83q56 32 141 32q90 0 143.5 -35.5t53.5 -92.5v-269q0 -22 18 -22q15 0 27 12l14 -15
q-47 -46 -124 -46q-59 0 -64 50zM318 92v127l-51 -13q-51 -11 -69 -24q-40 -27 -35 -68q0 -63 59 -63q58 0 96 41zM121 611l77 78l149 -156l-25 -25z" />
    <glyph glyph-name="aacute" unicode="&#xe1;" horiz-adv-x="539" 
d="M321 47l-3 4q-66 -56 -163 -56q-113 0 -113 106q0 69 53 96q50 27 223 67v78q0 36 -21 56t-59 20q-35 0 -73 -20v-51q0 -23 -15.5 -38.5t-38.5 -15.5q-22 0 -38 15.5t-16 41.5q0 52 55 83q56 32 141 32q90 0 143.5 -35.5t53.5 -92.5v-269q0 -22 18 -22q15 0 27 12l14 -15
q-47 -46 -124 -46q-59 0 -64 50zM318 92v127l-51 -13q-51 -11 -69 -24q-40 -27 -35 -68q0 -63 59 -63q58 0 96 41zM185 508l-25 25l148 156l78 -78z" />
    <glyph glyph-name="acircumflex" unicode="&#xe2;" horiz-adv-x="539" 
d="M321 47l-3 4q-66 -56 -163 -56q-113 0 -113 106q0 69 53 96q50 27 223 67v78q0 36 -21 56t-59 20q-35 0 -73 -20v-51q0 -23 -15.5 -38.5t-38.5 -15.5q-22 0 -38 15.5t-16 41.5q0 52 55 83q56 32 141 32q90 0 143.5 -35.5t53.5 -92.5v-269q0 -22 18 -22q15 0 27 12l14 -15
q-47 -46 -124 -46q-59 0 -64 50zM318 92v127l-51 -13q-51 -11 -69 -24q-40 -27 -35 -68q0 -63 59 -63q58 0 96 41zM101 533l145 156h15l146 -156l-25 -25l-129 79l-128 -79z" />
    <glyph glyph-name="atilde" unicode="&#xe3;" horiz-adv-x="539" 
d="M321 47l-3 4q-66 -56 -163 -56q-113 0 -113 106q0 69 53 96q50 27 223 67v78q0 36 -21 56t-59 20q-35 0 -73 -20v-51q0 -23 -15.5 -38.5t-38.5 -15.5q-22 0 -38 15.5t-16 41.5q0 52 55 83q56 32 141 32q90 0 143.5 -35.5t53.5 -92.5v-269q0 -22 18 -22q15 0 27 12l14 -15
q-47 -46 -124 -46q-59 0 -64 50zM318 92v127l-51 -13q-51 -11 -69 -24q-40 -27 -35 -68q0 -63 59 -63q58 0 96 41zM98 532l-23 22q96 96 137 96q22 0 55 -24t58 -24q40 0 86 46l22 -23q-97 -97 -140 -97q-22 0 -55 24q-32 24 -58 24q-40 0 -82 -44z" />
    <glyph glyph-name="adieresis" unicode="&#xe4;" horiz-adv-x="539" 
d="M322 47l-3 4q-66 -56 -163 -56q-113 0 -113 106q0 64 52 95q44 27 197 61l28 7v78q0 35 -21.5 55.5t-59.5 20.5q-35 0 -73 -20v-51q0 -23 -16 -38.5t-38 -15.5t-38 15.5t-16 41.5q0 52 55 83q56 32 141 32q90 0 143.5 -35.5t53.5 -92.5v-269q0 -22 18 -22q15 0 27 12
l14 -15q-47 -46 -124 -46q-59 0 -64 50zM320 92v127q-43 -10 -51 -13q-50 -10 -70 -24q-40 -27 -35 -68q0 -63 59 -63q58 0 97 41zM75 594q0 29 19 48t49 19q29 0 47.5 -19t18.5 -48q0 -30 -18.5 -49t-47.5 -19q-30 0 -49 19t-19 49zM297 594q0 29 19 48t48 19
q30 0 48.5 -19t18.5 -48q0 -30 -18.5 -49t-48.5 -19q-29 0 -48 19t-19 49z" />
    <glyph glyph-name="aring" unicode="&#xe5;" horiz-adv-x="539" 
d="M321 47l-3 4q-66 -56 -163 -56q-113 0 -113 106q0 69 53 96q50 27 223 67v78q0 36 -21 56t-59 20q-35 0 -73 -20v-51q0 -23 -15.5 -38.5t-38.5 -15.5q-22 0 -38 15.5t-16 41.5q0 52 55 83q56 32 141 32q90 0 143.5 -35.5t53.5 -92.5v-269q0 -22 18 -22q15 0 27 12l14 -15
q-47 -46 -124 -46q-59 0 -64 50zM318 92v127l-51 -13q-51 -11 -69 -24q-40 -27 -35 -68q0 -63 59 -63q58 0 96 41zM167 585q0 38 23.5 60.5t62.5 22.5t63 -22.5t24 -60.5t-24 -60.5t-63 -22.5t-62.5 22t-23.5 61zM225 622q-10 -14 -10 -37t10 -37q11 -14 28 -14t27 14t10 37
t-10 37t-27 14t-28 -14z" />
    <glyph glyph-name="ae" unicode="&#xe6;" horiz-adv-x="750" 
d="M316 51q-27 -25 -71.5 -40.5t-89.5 -15.5q-113 0 -113 106q0 40 15 61q19 25 34 34q6 3 13 6l36 16q16 6 49 15q43 11 57 14q31 8 71 17v78q0 35 -21 55.5t-58 20.5q-35 0 -73 -20v-51q0 -23 -15.5 -38.5t-38.5 -15.5q-22 0 -38 15.5t-16 41.5q0 52 55 83q56 32 141 32
q75 0 125 -33q56 33 124 33q92 0 148 -50q57 -49 57 -124q0 -23 -5 -38l-16 -16l-248 -10v-133q34 -43 105 -43q86 0 128 45l29 -29q-70 -72 -188 -72q-125 0 -196 56zM318 92v127l-51 -13q-51 -11 -69 -24q-40 -27 -35 -68q0 -63 59 -63q58 0 96 41zM438 337v-67l159 18
q0 60 -24.5 95t-64.5 35q-45 0 -77 -45q7 -15 7 -36z" />
    <glyph glyph-name="ccedilla" unicode="&#xe7;" horiz-adv-x="521" 
d="M209 -107l53 103q-103 5 -163 68t-60 167q0 109 65 171.5t181 62.5q84 0 136.5 -31.5t52.5 -84.5q0 -29 -15.5 -44.5t-37.5 -15.5q-23 0 -39 16t-16 38v57q-28 18 -73 18q-121 0 -121 -176q0 -191 146 -191q82 0 126 45l29 -29q-67 -66 -176 -71l-17 -37q35 0 56.5 -12.5
t21.5 -36.5q0 -16 -17 -42q-21 -32 -86 -97l-14 14q49 50 49 76q0 32 -81 32z" />
    <glyph glyph-name="egrave" unicode="&#xe8;" horiz-adv-x="523" 
d="M475 253l-16 -16h-287q1 -98 36 -142t108 -44q84 0 128 45l29 -29q-71 -72 -192 -72q-112 0 -177 64q-65 65 -65 171q0 109 67 172q68 63 169 63q91 0 147 -50q57 -49 57 -124q0 -25 -4 -38zM281 418q-43 0 -74 -40q-31 -41 -35 -99l197 9q0 60 -24 95t-64 35zM144 611
l77 78l149 -156l-25 -25z" />
    <glyph glyph-name="eacute" unicode="&#xe9;" horiz-adv-x="523" 
d="M475 253l-16 -16h-287q1 -98 36 -142t108 -44q84 0 128 45l29 -29q-71 -72 -192 -72q-112 0 -177 64q-65 65 -65 171q0 109 67 172q68 63 169 63q91 0 147 -50q57 -49 57 -124q0 -25 -4 -38zM281 418q-43 0 -74 -40q-31 -41 -35 -99l197 9q0 60 -24 95t-64 35zM207 508
l-25 25l148 156l78 -78z" />
    <glyph glyph-name="ecircumflex" unicode="&#xea;" horiz-adv-x="523" 
d="M475 253l-16 -16h-287q1 -98 36 -142t108 -44q84 0 128 45l29 -29q-71 -72 -192 -72q-112 0 -177 64q-65 65 -65 171q0 109 67 172q68 63 169 63q91 0 147 -50q57 -49 57 -124q0 -25 -4 -38zM281 418q-43 0 -74 -40q-31 -41 -35 -99l197 9q0 60 -24 95t-64 35zM122 533
l146 156h15l146 -156l-25 -25l-129 79l-128 -79z" />
    <glyph glyph-name="edieresis" unicode="&#xeb;" horiz-adv-x="523" 
d="M474 253l-16 -16h-287q1 -98 36 -142t108 -44q85 0 128 45l29 -29q-70 -72 -191 -72q-112 0 -177 64q-66 65 -66 171q0 109 67 172t169 63q91 0 147 -50q57 -49 57 -124q0 -25 -4 -38zM280 418q-43 0 -74 -40q-31 -41 -35 -99l198 9q0 60 -24.5 95t-64.5 35zM88 594
q0 29 19 48t48 19t48 -19t19 -48q0 -30 -19 -49t-48 -19t-48 19t-19 49zM309 594q0 29 19.5 48t48.5 19t48 -19t19 -48q0 -30 -19 -49t-48 -19t-48.5 19t-19.5 49z" />
    <glyph glyph-name="igrave" unicode="&#xec;" horiz-adv-x="309" 
d="M21 611l78 78l148 -156l-24 -25zM280 0h-251v38l60 26v316l-52 22v42l167 24l16 -16v-396l60 -21v-35z" />
    <glyph glyph-name="iacute" unicode="&#xed;" horiz-adv-x="309" 
d="M86 508l-25 25l148 156l78 -78zM280 0h-251v38l60 26v316l-52 22v42l167 24l16 -16v-396l60 -21v-35z" />
    <glyph glyph-name="icircumflex" unicode="&#xee;" horiz-adv-x="309" 
d="M280 0h-251v38l60 26v316l-52 22v42l167 24l16 -16v-396l60 -21v-35zM2 533l145 156h15l146 -156l-25 -25l-129 79l-128 -79z" />
    <glyph glyph-name="idieresis" unicode="&#xef;" horiz-adv-x="309" 
d="M280 0h-251v38l60 26v316l-52 22v42l167 24l16 -16v-396l60 -21v-35zM-4 594q0 29 19 48t49 19q29 0 48 -19t19 -48q0 -30 -19 -49t-48 -19q-30 0 -49 19t-19 49zM170 594q0 29 19 48t49 19q29 0 48 -19t19 -48q0 -30 -19 -49t-48 -19q-30 0 -49 19t-19 49z" />
    <glyph glyph-name="eth" unicode="&#xf0;" 
d="M273 532l-34 35l71 71q-87 65 -223 92l27 27q146 -18 238 -77l77 77l35 -34l-72 -72q127 -109 127 -340q0 -316 -236 -316q-111 0 -175.5 63t-64.5 173q0 108 63 171t169 63q98 0 146 -63h4q0 123 -78 204zM386 230q0 91 -28 139.5t-77 48.5t-77 -48.5t-28 -139.5
t28 -139.5t77 -48.5t77 48.5t28 139.5z" />
    <glyph glyph-name="ntilde" unicode="&#xf1;" horiz-adv-x="629" 
d="M220 362v-306l54 -21v-35h-245v38l60 26v316l-52 22v42l167 24l16 -16l-3 -43l3 -3q31 28 79 43q48 16 90 16q73 0 112 -48t39 -119v-242l60 -21v-35h-245v38l54 26v225q0 57 -21.5 88.5t-59.5 31.5q-26 0 -57 -13t-51 -34zM160 532l-23 22q94 96 136 96q23 0 55 -24
q33 -24 59 -24q42 0 85 46l23 -23q-97 -97 -140 -97q-22 0 -55 24t-59 24q-39 0 -81 -44z" />
    <glyph glyph-name="ograve" unicode="&#xf2;" 
d="M105 58q-66 64 -66 172t66 171q65 64 174 64t174 -64q66 -63 66 -171t-66 -172q-66 -63 -174 -63t-174 63zM172 230q0 -91 28.5 -139.5t78.5 -48.5q49 0 78 49t29 139q0 91 -28.5 139.5t-78.5 48.5t-78.5 -48.5t-28.5 -139.5zM145 611l78 78l148 -156l-24 -25z" />
    <glyph glyph-name="oacute" unicode="&#xf3;" 
d="M105 58q-66 64 -66 172t66 171q65 64 174 64t174 -64q66 -63 66 -171t-66 -172q-66 -63 -174 -63t-174 63zM172 230q0 -91 28.5 -139.5t78.5 -48.5q49 0 78 49t29 139q0 91 -28.5 139.5t-78.5 48.5t-78.5 -48.5t-28.5 -139.5zM210 508l-25 25l149 156l77 -78z" />
    <glyph glyph-name="ocircumflex" unicode="&#xf4;" 
d="M105 58q-66 64 -66 172t66 171q65 64 174 64t174 -64q66 -63 66 -171t-66 -172q-66 -63 -174 -63t-174 63zM172 230q0 -91 28.5 -139.5t78.5 -48.5q49 0 78 49t29 139q0 91 -28.5 139.5t-78.5 48.5t-78.5 -48.5t-28.5 -139.5zM125 533l146 156h15l146 -156l-25 -25
l-129 79l-128 -79z" />
    <glyph glyph-name="otilde" unicode="&#xf5;" 
d="M105 58q-66 64 -66 172t66 171q65 64 174 64t174 -64q66 -63 66 -171t-66 -172q-66 -63 -174 -63t-174 63zM172 230q0 -91 28.5 -139.5t78.5 -48.5q49 0 78 49t29 139q0 91 -28.5 139.5t-78.5 48.5t-78.5 -48.5t-28.5 -139.5zM124 532l-23 22q96 96 137 96q22 0 55 -24
t58 -24q40 0 86 46l22 -23q-97 -97 -140 -97q-22 0 -55 24q-32 24 -58 24q-38 0 -82 -44z" />
    <glyph glyph-name="odieresis" unicode="&#xf6;" 
d="M105 58q-66 64 -66 172t66 171q65 64 174 64t174 -64q66 -63 66 -171t-66 -172q-66 -63 -174 -63t-174 63zM172 230q0 -91 28.5 -139.5t78.5 -48.5q49 0 78 49t29 139q0 91 -28.5 139.5t-78.5 48.5t-78.5 -48.5t-28.5 -139.5zM100 594q0 29 19.5 48t48.5 19t48 -19
t19 -48q0 -30 -19 -49t-48 -19t-48.5 19t-19.5 49zM322 594q0 29 19 48t49 19q29 0 48 -19t19 -48q0 -30 -19 -49t-48 -19q-30 0 -49 19t-19 49z" />
    <glyph glyph-name="divide" unicode="&#xf7;" horiz-adv-x="454" 
d="M416 246h-378v48h378v-48zM186 91q-16 16 -16 41t16 41q16 17 41 17t41 -17q17 -16 17 -41t-17 -41q-16 -16 -41 -16t-41 16zM186 367q-16 16 -16 41t16 41t41 16t41 -16q17 -16 17 -41t-17 -41q-16 -16 -41 -16t-41 16z" />
    <glyph glyph-name="oslash" unicode="&#xf8;" 
d="M128 39l-36 -39h-53l60 64q-60 63 -60 166q0 108 66 171q65 64 174 64q88 0 150 -44l36 39h54l-60 -65q60 -63 60 -165q0 -108 -66 -172q-66 -63 -174 -63q-89 0 -151 44zM386 230q0 41 -7 79l-187 -202q29 -65 87 -65q49 0 78 49t29 139zM172 230q0 -50 7 -79l186 201
q-29 66 -86 66q-50 0 -78.5 -48.5t-28.5 -139.5z" />
    <glyph glyph-name="ugrave" unicode="&#xf9;" horiz-adv-x="627" 
d="M537 452v-375l52 -27v-39l-167 -19l-16 16l3 49l-3 3q-29 -29 -79 -47t-96 -18q-67 0 -104.5 39.5t-37.5 101.5v244l-52 22v42l167 24l16 -16v-313q0 -41 20 -64.5t55 -23.5q28 0 59.5 15t51.5 40v274l-52 22v42l167 24zM180 611l77 78l149 -156l-25 -25z" />
    <glyph glyph-name="uacute" unicode="&#xfa;" horiz-adv-x="627" 
d="M537 452v-375l52 -27v-39l-167 -19l-16 16l3 49l-3 3q-29 -29 -79 -47t-96 -18q-67 0 -104.5 39.5t-37.5 101.5v244l-52 22v42l167 24l16 -16v-313q0 -41 20 -64.5t55 -23.5q28 0 59.5 15t51.5 40v274l-52 22v42l167 24zM241 508l-24 25l148 156l78 -78z" />
    <glyph glyph-name="ucircumflex" unicode="&#xfb;" horiz-adv-x="627" 
d="M537 452v-375l52 -27v-39l-167 -19l-16 16l3 49l-3 3q-29 -29 -79 -47t-96 -18q-67 0 -104.5 39.5t-37.5 101.5v244l-52 22v42l167 24l16 -16v-313q0 -41 20 -64.5t55 -23.5q28 0 59.5 15t51.5 40v274l-52 22v42l167 24zM160 533l145 156h15l146 -156l-25 -25l-129 79
l-128 -79z" />
    <glyph glyph-name="udieresis" unicode="&#xfc;" horiz-adv-x="627" 
d="M537 452v-375l52 -27v-39l-167 -19l-16 16l3 49l-3 3q-29 -29 -79 -47t-96 -18q-67 0 -104.5 39.5t-37.5 101.5v244l-52 22v42l167 24l16 -16v-313q0 -41 20 -64.5t55 -23.5q28 0 59.5 15t51.5 40v274l-52 22v42l167 24zM126 594q0 29 19 48t49 19q29 0 48 -19t19 -48
q0 -30 -19 -49t-48 -19q-30 0 -49 19t-19 49zM348 594q0 29 19 48t48 19q30 0 48.5 -19t18.5 -48q0 -30 -18.5 -49t-48.5 -19q-29 0 -48 19t-19 49z" />
    <glyph glyph-name="yacute" unicode="&#xfd;" horiz-adv-x="577" 
d="M262 -5l-192 409l-59 21v35h250v-35l-58 -21l125 -269l127 269l-77 21v35h188v-35l-58 -21l-189 -404q-78 -163 -109 -207q-32 -47 -85 -47q-40 0 -65.5 20.5t-25.5 58.5q-3 47 40 59q36 10 62 -13q17 -15 15 -37v-25q4 -2 8 -2q14 0 36 40q21 37 67 148zM233 508l-25 25
l149 156l77 -78z" />
    <glyph glyph-name="thorn" unicode="&#xfe;" horiz-adv-x="588" 
d="M313 -250h-284v38l60 26v855l-52 23v42l167 23l16 -15v-282l-3 -48l3 -3q56 56 148 56q87 0 133 -64q48 -65 48 -165q0 -115 -61.5 -178t-171.5 -63q-54 0 -96 20v-205l93 -25v-35zM220 367v-303q31 -25 82 -25q55 0 85 47.5t30 141.5q0 89 -27 135t-78 46q-58 0 -92 -42
z" />
    <glyph glyph-name="ydieresis" unicode="&#xff;" horiz-adv-x="577" 
d="M262 -5l-192 409l-59 21v35h250v-35l-58 -21l125 -269l127 269l-77 21v35h188v-35l-58 -21l-189 -404q-78 -163 -109 -207q-32 -47 -85 -47q-40 0 -65.5 20.5t-25.5 58.5q-3 47 40 59q36 10 62 -13q17 -15 15 -37v-25q4 -2 8 -2q14 0 36 40q21 37 67 148zM112 594
q0 29 19 48t49 19q29 0 47.5 -19t18.5 -48q0 -30 -18.5 -49t-47.5 -19q-30 0 -49 19t-19 49zM334 594q0 29 19 48t48 19q30 0 48.5 -19t18.5 -48q0 -30 -18.5 -49t-48.5 -19q-29 0 -48 19t-19 49z" />
    <glyph glyph-name="Amacron" unicode="&#x100;" horiz-adv-x="771" 
d="M355 700h62l281 -641l65 -24v-35h-266v35l63 24l-69 162h-298l-71 -162l82 -24v-35h-196v35l63 24zM471 267l-128 298l-130 -298h258zM518 794h-266v54h266v-54z" />
    <glyph glyph-name="amacron" unicode="&#x101;" horiz-adv-x="539" 
d="M321 47l-3 4q-66 -56 -163 -56q-113 0 -113 106q0 69 53 96q50 27 223 67v78q0 36 -21 56t-59 20q-35 0 -73 -20v-51q0 -23 -15.5 -38.5t-38.5 -15.5q-22 0 -38 15.5t-16 41.5q0 52 55 83q56 32 141 32q90 0 143.5 -35.5t53.5 -92.5v-269q0 -22 18 -22q15 0 27 12l14 -15
q-47 -46 -124 -46q-59 0 -64 50zM318 92v127l-51 -13q-51 -11 -69 -24q-40 -27 -35 -68q0 -63 59 -63q58 0 96 41zM384 554h-266v54h266v-54z" />
    <glyph glyph-name="Abreve" unicode="&#x102;" horiz-adv-x="771" 
d="M355 700h62l281 -641l65 -24v-35h-266v35l63 24l-69 162h-298l-71 -162l82 -24v-35h-196v35l63 24zM471 267l-128 298l-130 -298h258zM441 869q0 22 16 38t38 16t38 -15.5t16 -41.5q0 -46 -49 -73q-48 -27 -116 -27t-116 27q-48 29 -48 73q0 26 16 41.5t38 15.5t38 -16
t16 -38q0 -21 5.5 -34.5t15.5 -18.5t17.5 -6.5t17.5 -1.5t17.5 1.5t17.5 6.5t16 18.5t6 34.5z" />
    <glyph glyph-name="abreve" unicode="&#x103;" horiz-adv-x="539" 
d="M322 47l-3 4q-66 -56 -163 -56q-113 0 -113 106q0 64 52 95q44 27 197 61l28 7v78q0 35 -21.5 55.5t-59.5 20.5q-35 0 -73 -20v-51q0 -23 -16 -38.5t-38 -15.5t-38 15.5t-16 41.5q0 52 55 83q56 32 141 32q90 0 143.5 -35.5t53.5 -92.5v-269q0 -22 18 -22q15 0 27 12
l14 -15q-47 -46 -124 -46q-59 0 -64 50zM320 92v127q-43 -10 -51 -13q-50 -10 -70 -24q-40 -27 -35 -68q0 -63 59 -63q58 0 97 41zM313 629q0 22 16 38t38 16t38 -15.5t16 -41.5q0 -44 -48 -73q-48 -27 -116 -27t-116 27q-48 29 -48 73q0 26 16 41.5t38 15.5t38 -16t16 -38
q0 -21 5.5 -34.5t15.5 -18.5t17.5 -6.5t17.5 -1.5t17.5 1.5t17.5 6.5t15.5 18.5t5.5 34.5z" />
    <glyph glyph-name="Aogonek" unicode="&#x104;" horiz-adv-x="771" 
d="M749 -167l14 -14q-47 -48 -98 -48q-64 0 -64 64q0 76 77 165h-181v35l63 24l-69 162h-298l-71 -162l82 -24v-35h-196v35l63 24l284 641h62l281 -641l65 -24v-35h-49q-24 -35 -40 -78t-16 -71q0 -39 35 -39t56 21zM471 267l-128 298l-130 -298h258z" />
    <glyph glyph-name="aogonek" unicode="&#x105;" horiz-adv-x="539" 
d="M495 -150l14 -14q-48 -48 -98 -48q-64 0 -64 64q0 69 61 146q-5 -1 -23 -1q-59 0 -64 50l-3 4q-66 -56 -163 -56q-113 0 -113 106q0 69 53 96q50 27 223 67v78q0 36 -21 56t-59 20q-35 0 -73 -20v-51q0 -23 -15.5 -38.5t-38.5 -15.5q-22 0 -38 15.5t-16 41.5q0 52 55 83
q56 32 141 32q90 0 143.5 -35.5t53.5 -92.5v-269q0 -22 18 -22q15 0 27 12l14 -15q-25 -25 -55 -35q-50 -81 -50 -140q0 -39 35 -39t56 21zM318 92v127l-51 -13q-51 -11 -69 -24q-40 -27 -35 -68q0 -63 59 -63q58 0 96 41z" />
    <glyph glyph-name="Cacute" unicode="&#x106;" horiz-adv-x="707" 
d="M633 132l29 -30q-106 -109 -269 -109q-158 0 -253 95q-93 96 -93 259q0 164 95 262t253 98q107 0 187 -44l44 20l16 -16l16 -146h-47q-52 136 -196 136q-109 0 -166.5 -76t-57.5 -227q0 -137 58 -219q59 -81 183 -81t201 78zM330 748l-25 25l149 156l77 -78z" />
    <glyph glyph-name="cacute" unicode="&#x107;" horiz-adv-x="521" 
d="M366 343v57q-28 18 -73 18q-121 0 -121 -176q0 -191 146 -191q82 0 126 45l29 -29q-72 -72 -193 -72q-111 0 -176 63t-65 173q0 109 65 171.5t181 62.5q84 0 136.5 -31.5t52.5 -84.5q0 -29 -15.5 -44.5t-37.5 -15.5q-23 0 -39 16t-16 38zM217 508l-24 25l148 156l78 -78z
" />
    <glyph glyph-name="Ccircumflex" unicode="&#x108;" horiz-adv-x="707" 
d="M633 132l29 -30q-106 -109 -269 -109q-158 0 -253 95q-93 96 -93 259q0 164 95 262t253 98q107 0 187 -44l44 20l16 -16l16 -146h-47q-52 136 -196 136q-109 0 -166.5 -76t-57.5 -227q0 -137 58 -219q59 -81 183 -81t201 78zM241 773l146 156h15l145 -156l-24 -25
l-129 79l-129 -79z" />
    <glyph glyph-name="ccircumflex" unicode="&#x109;" horiz-adv-x="521" 
d="M366 343v57q-28 18 -73 18q-121 0 -121 -176q0 -191 146 -191q82 0 126 45l29 -29q-72 -72 -193 -72q-111 0 -176 63t-65 173q0 109 65 171.5t181 62.5q84 0 136.5 -31.5t52.5 -84.5q0 -29 -15.5 -44.5t-37.5 -15.5q-23 0 -39 16t-16 38zM133 533l145 156h15l146 -156
l-25 -25l-129 79l-128 -79z" />
    <glyph glyph-name="Cdotaccent" unicode="&#x10a;" horiz-adv-x="707" 
d="M633 132l29 -30q-106 -109 -269 -109q-158 0 -253 95q-93 96 -93 259q0 164 95 262t253 98q107 0 187 -44l44 20l16 -16l16 -146h-47q-52 136 -196 136q-109 0 -166.5 -76t-57.5 -227q0 -137 58 -219q59 -81 183 -81t201 78zM339 794q-20 21 -20 53t20 52q21 20 53 20
t52 -20q21 -20 21 -52t-21 -53q-20 -20 -52 -20t-53 20z" />
    <glyph glyph-name="cdotaccent" unicode="&#x10b;" horiz-adv-x="521" 
d="M366 343v57q-28 18 -73 18q-121 0 -121 -176q0 -191 146 -191q82 0 126 45l29 -29q-72 -72 -193 -72q-111 0 -176 63t-65 173q0 109 65 171.5t181 62.5q84 0 136.5 -31.5t52.5 -84.5q0 -29 -15.5 -44.5t-37.5 -15.5q-23 0 -39 16t-16 38zM230 554q-20 21 -20 53t20 52
q21 20 53 20t52 -20q21 -20 21 -52t-21 -53q-20 -20 -52 -20t-53 20z" />
    <glyph glyph-name="Ccaron" unicode="&#x10c;" horiz-adv-x="707" 
d="M633 132l29 -30q-106 -109 -269 -109q-158 0 -253 95q-93 96 -93 259q0 164 95 262t253 98q107 0 187 -44l44 20l16 -16l16 -146h-47q-52 136 -196 136q-109 0 -166.5 -76t-57.5 -227q0 -137 58 -219q59 -81 183 -81t201 78zM547 905l-146 -157h-15l-146 157l25 24
l128 -79l129 79z" />
    <glyph glyph-name="ccaron" unicode="&#x10d;" horiz-adv-x="521" 
d="M366 343v57q-28 18 -73 18q-121 0 -121 -176q0 -191 146 -191q82 0 126 45l29 -29q-72 -72 -193 -72q-111 0 -176 63t-65 173q0 109 65 171.5t181 62.5q84 0 136.5 -31.5t52.5 -84.5q0 -29 -15.5 -44.5t-37.5 -15.5q-23 0 -39 16t-16 38zM438 665l-145 -157h-15l-146 157
l25 24l128 -79l129 79z" />
    <glyph glyph-name="Dcaron" unicode="&#x10e;" horiz-adv-x="744" 
d="M29 668v32h322q157 0 251 -94q95 -93 95 -256q0 -162 -95 -257q-94 -93 -251 -93h-322v32l65 19v598zM351 654h-120v-608h120q94 0 148 78.5t54 225.5q0 148 -54 226t-148 78zM515 905l-146 -157h-15l-145 157l24 24l128 -79l129 79z" />
    <glyph glyph-name="dcaron" unicode="&#x10f;" horiz-adv-x="682" 
d="M499 742v-665l53 -27v-39l-168 -19l-16 16l3 39l-3 4q-56 -56 -148 -56q-86 0 -134 63q-47 65 -47 165q0 116 61.5 179t172.5 63q57 0 95 -21v234l-60 22v34l176 24zM368 93v300q-31 25 -82 25q-55 0 -84.5 -47.5t-29.5 -139.5q0 -180 104 -180q59 0 92 42zM589 566
l-16 16q15 16 28 37.5t13 32.5q0 5 -2 7q-21 0 -35 13t-14 34q0 22 14 35.5t36 13.5t36 -14.5t14 -41.5q0 -59 -74 -133z" />
    <glyph glyph-name="Dcroat" unicode="&#x110;" horiz-adv-x="744" 
d="M94 331h-65v31l65 15v272l-65 19v32h322q157 0 251 -94q95 -93 95 -256q0 -162 -95 -257q-94 -93 -251 -93h-322v32l65 19v280zM351 654h-120v-277h144v-46h-144v-285h120q94 0 148 78.5t54 225.5q0 148 -54 226t-148 78z" />
    <glyph glyph-name="dslash" unicode="&#x111;" horiz-adv-x="588" 
d="M368 562h-168v46h168v70l-60 22v34l176 24l15 -16v-134l53 -15v-31h-53v-485l53 -27v-39l-168 -19l-16 16l3 39l-3 4q-56 -56 -148 -56q-86 0 -134 63q-47 65 -47 165q0 116 61.5 179t172.5 63q57 0 95 -21v118zM368 93v300q-31 25 -82 25q-55 0 -84.5 -47.5
t-29.5 -139.5q0 -180 104 -180q59 0 92 42z" />
    <glyph glyph-name="Emacron" unicode="&#x112;" horiz-adv-x="632" 
d="M231 335v-289h269l42 96h47l-13 -142h-547v32l65 19v598l-65 19v32h537l13 -142h-47l-42 96h-259v-272h197l21 73h43v-193h-43l-21 73h-197zM449 794h-266v54h266v-54z" />
    <glyph glyph-name="emacron" unicode="&#x113;" horiz-adv-x="523" 
d="M475 253l-16 -16h-287q1 -98 36 -142t108 -44q84 0 128 45l29 -29q-71 -72 -192 -72q-112 0 -177 64q-65 65 -65 171q0 109 67 172q68 63 169 63q91 0 147 -50q57 -49 57 -124q0 -25 -4 -38zM281 418q-43 0 -74 -40q-31 -41 -35 -99l197 9q0 60 -24 95t-64 35zM407 554
h-266v54h266v-54z" />
    <glyph glyph-name="Ebreve" unicode="&#x114;" horiz-adv-x="632" 
d="M231 335v-289h269l42 96h47l-13 -142h-547v32l65 19v598l-65 19v32h537l13 -142h-47l-42 96h-259v-272h197l21 73h43v-193h-43l-21 73h-197zM372 869q0 22 16 38t38 16t38 -15.5t16 -41.5q0 -44 -48 -73q-48 -27 -116 -27t-116 27q-48 29 -48 73q0 26 16 41.5t38 15.5
t38 -16t16 -38q0 -21 5.5 -34.5t15.5 -18.5t17.5 -6.5t17.5 -1.5t17.5 1.5t17.5 6.5t15.5 18.5t5.5 34.5z" />
    <glyph glyph-name="ebreve" unicode="&#x115;" horiz-adv-x="523" 
d="M474 253l-16 -16h-287q1 -98 36 -142t108 -44q85 0 128 45l29 -29q-70 -72 -191 -72q-112 0 -177 64q-66 65 -66 171q0 109 67 172t169 63q91 0 147 -50q57 -49 57 -124q0 -25 -4 -38zM280 418q-43 0 -74 -40q-31 -41 -35 -99l198 9q0 60 -24.5 95t-64.5 35zM331 629
q0 22 16 38t38 16t38 -15.5t16 -41.5q0 -44 -48 -73q-48 -27 -116 -27q-67 0 -117 27q-48 27 -48 73q0 26 16 41.5t39 15.5q22 0 37.5 -16t15.5 -38q0 -21 6 -34.5t16 -18.5t17.5 -6.5t17.5 -1.5t17.5 1.5t17.5 6.5t15.5 18.5t5.5 34.5z" />
    <glyph glyph-name="Edotaccent" unicode="&#x116;" horiz-adv-x="632" 
d="M231 335v-289h269l42 96h47l-13 -142h-547v32l65 19v598l-65 19v32h537l13 -142h-47l-42 96h-259v-272h197l21 73h43v-193h-43l-21 73h-197zM263 794q-20 21 -20 53t20 52q21 20 53 20t52 -20q21 -20 21 -52t-21 -53q-20 -20 -52 -20t-53 20z" />
    <glyph glyph-name="edotaccent" unicode="&#x117;" horiz-adv-x="523" 
d="M474 253l-16 -16h-287q1 -98 36 -142t108 -44q85 0 128 45l29 -29q-70 -72 -191 -72q-112 0 -177 64q-66 65 -66 171q0 109 67 172t169 63q91 0 147 -50q57 -49 57 -124q0 -25 -4 -38zM280 418q-43 0 -74 -40q-31 -41 -35 -99l198 9q0 60 -24.5 95t-64.5 35zM220 554
q-20 21 -20 53t20 52q21 20 53 20t52 -20q21 -20 21 -52t-21 -53q-20 -20 -52 -20t-53 20z" />
    <glyph glyph-name="Eogonek" unicode="&#x118;" horiz-adv-x="632" 
d="M575 -167l14 -14q-48 -48 -99 -48q-63 0 -63 64q0 76 77 165h-475v32l65 19v598l-65 19v32h537l13 -142h-47l-42 96h-259v-272h197l21 73h43v-193h-43l-21 73h-197v-289h269l42 96h47l-13 -142h-37q-24 -35 -39.5 -77.5t-15.5 -71.5q0 -39 35 -39q33 0 56 21z" />
    <glyph glyph-name="eogonek" unicode="&#x119;" horiz-adv-x="523" 
d="M460 -134l14 -14q-50 -48 -98 -48q-64 0 -64 64q0 65 55 138q-42 -11 -86 -11q-112 0 -177 64q-65 65 -65 171q0 109 67 172q68 63 169 63q91 0 147 -50q57 -49 57 -124q0 -25 -4 -38l-16 -16h-287q1 -98 36 -142t108 -44q84 0 128 45l29 -29q-23 -23 -51 -39
q-23 -34 -38 -75t-15 -69q0 -39 35 -39q34 0 56 21zM281 418q-43 0 -74 -40q-31 -41 -35 -99l197 9q0 60 -24 95t-64 35z" />
    <glyph glyph-name="Ecaron" unicode="&#x11a;" horiz-adv-x="632" 
d="M231 335v-289h269l42 96h47l-13 -142h-547v32l65 19v598l-65 19v32h537l13 -142h-47l-42 96h-259v-272h197l21 73h43v-193h-43l-21 73h-197zM469 905l-146 -157h-14l-146 157l24 24l129 -79l129 79z" />
    <glyph glyph-name="ecaron" unicode="&#x11b;" horiz-adv-x="523" 
d="M475 253l-16 -16h-287q1 -98 36 -142t108 -44q84 0 128 45l29 -29q-71 -72 -192 -72q-112 0 -177 64q-65 65 -65 171q0 109 67 172q68 63 169 63q91 0 147 -50q57 -49 57 -124q0 -25 -4 -38zM281 418q-43 0 -74 -40q-31 -41 -35 -99l197 9q0 60 -24 95t-64 35zM429 665
l-145 -157h-15l-146 157l24 24l129 -79l129 79z" />
    <glyph glyph-name="Gcircumflex" unicode="&#x11c;" horiz-adv-x="752" 
d="M723 306l-65 -26v-249l-16 -16l-57 30q-82 -52 -194 -52q-158 0 -251 95q-93 96 -93 259q0 164 95 262t253 98q107 0 187 -44l44 20l16 -16l16 -146h-47q-52 136 -196 136q-109 0 -166.5 -76t-57.5 -227q0 -137 55 -219q56 -81 171 -81q60 0 104 29v200l-65 23v36h267
v-36zM244 773l146 156h15l146 -156l-25 -25l-129 79l-128 -79z" />
    <glyph glyph-name="gcircumflex" unicode="&#x11d;" horiz-adv-x="574" 
d="M530 425l-56 -21h-32q38 -41 38 -96q0 -71 -58.5 -112.5t-154.5 -41.5q-62 0 -113 20q-17 -23 -17 -47q0 -44 61 -44h138q194 0 194 -152q0 -185 -291 -185q-211 0 -211 96q0 37 28 70.5t76 53.5q-75 22 -75 101q0 60 62 125q-64 40 -64 116q0 71 58 113.5t154 42.5
q23 0 54 -4h209v-35zM355 -42h-160q-13 0 -17 1q-32 -40 -32 -85q0 -44 29.5 -63t90.5 -19q78 0 123 26t45 72q0 31 -19.5 49.5t-59.5 18.5zM206 394q-22 -28 -22 -85t22 -85t61 -28q38 0 61 29t23 84t-23 84q-23 30 -61 30t-61 -29zM114 533l146 156h15l146 -156l-25 -25
l-129 79l-128 -79z" />
    <glyph glyph-name="Gbreve" unicode="&#x11e;" horiz-adv-x="752" 
d="M723 306l-65 -26v-249l-16 -16l-57 30q-82 -52 -194 -52q-158 0 -251 95q-93 96 -93 259q0 164 95 262t253 98q107 0 187 -44l44 20l16 -16l16 -146h-47q-52 136 -196 136q-109 0 -166.5 -76t-57.5 -227q0 -137 55 -219q56 -81 171 -81q60 0 104 29v200l-65 23v36h267
v-36zM449 869q0 22 16.5 38t38.5 16t37.5 -15.5t15.5 -41.5q0 -44 -48 -73q-48 -27 -116 -27t-116 27q-48 29 -48 73q0 26 16 41.5t38 15.5t38 -16t16 -38q0 -21 5.5 -34.5t15.5 -18.5t17.5 -6.5t17.5 -1.5t17.5 1.5t17.5 6.5t15.5 18.5t5.5 34.5z" />
    <glyph glyph-name="gbreve" unicode="&#x11f;" horiz-adv-x="574" 
d="M530 425l-56 -21h-32q38 -41 38 -96q0 -71 -58.5 -112.5t-154.5 -41.5q-62 0 -113 20q-17 -23 -17 -47q0 -44 61 -44h138q194 0 194 -152q0 -185 -291 -185q-211 0 -211 96q0 37 28 70.5t76 53.5q-75 22 -75 101q0 60 62 125q-64 40 -64 116q0 71 58 113.5t154 42.5
q23 0 54 -4h209v-35zM355 -42h-160q-13 0 -17 1q-32 -40 -32 -85q0 -44 29.5 -63t90.5 -19q78 0 123 26t45 72q0 31 -19.5 49.5t-59.5 18.5zM206 394q-22 -28 -22 -85t22 -85t61 -28q38 0 61 29t23 84t-23 84q-23 30 -61 30t-61 -29zM324 629q0 22 16 38t38 16t38 -15.5
t16 -41.5q0 -44 -48 -73q-48 -27 -116 -27t-117 27q-48 27 -48 73q0 26 16 41.5t39 15.5q22 0 37.5 -16t15.5 -38q0 -21 6 -34.5t16 -18.5t17.5 -6.5t17.5 -1.5t17.5 1.5t17.5 6.5t15.5 18.5t5.5 34.5z" />
    <glyph glyph-name="Gdotaccent" unicode="&#x120;" horiz-adv-x="752" 
d="M723 306l-65 -26v-249l-16 -16l-57 30q-82 -52 -194 -52q-158 0 -251 95q-93 96 -93 259q0 164 95 262t253 98q107 0 187 -44l44 20l16 -16l16 -146h-47q-52 136 -196 136q-109 0 -166.5 -76t-57.5 -227q0 -137 55 -219q56 -81 171 -81q60 0 104 29v200l-65 23v36h267
v-36zM341 794q-21 21 -21 53t21 52t53 20t52 -20t20 -52t-20 -53q-20 -20 -52 -20t-53 20z" />
    <glyph glyph-name="gdotaccent" unicode="&#x121;" horiz-adv-x="574" 
d="M530 425l-56 -21h-32q38 -41 38 -96q0 -71 -58.5 -112.5t-154.5 -41.5q-62 0 -113 20q-17 -23 -17 -47q0 -44 61 -44h138q194 0 194 -152q0 -185 -291 -185q-211 0 -211 96q0 37 28 70.5t76 53.5q-75 22 -75 101q0 60 62 125q-64 40 -64 116q0 71 58 113.5t154 42.5
q23 0 54 -4h209v-35zM355 -42h-160q-13 0 -17 1q-32 -40 -32 -85q0 -44 29.5 -63t90.5 -19q78 0 123 26t45 72q0 31 -19.5 49.5t-59.5 18.5zM206 394q-22 -28 -22 -85t22 -85t61 -28q38 0 61 29t23 84t-23 84q-23 30 -61 30t-61 -29zM215 554q-21 21 -21 53t21 52t53 20
t52 -20t20 -52t-20 -53q-20 -20 -52 -20t-53 20z" />
    <glyph glyph-name="Gcommaaccent" unicode="&#x122;" horiz-adv-x="752" 
d="M723 306l-65 -26v-249l-16 -16l-57 30q-82 -52 -194 -52q-158 0 -251 95q-93 96 -93 259q0 164 95 262t253 98q107 0 187 -44l44 20l16 -16l16 -146h-47q-52 136 -196 136q-109 0 -166.5 -76t-57.5 -227q0 -137 55 -219q56 -81 171 -81q60 0 104 29v200l-65 23v36h267
v-36zM368 -250l-17 16q15 15 28.5 37.5t13.5 33.5q0 4 -2 6q-21 0 -35 13.5t-14 34.5q0 22 14 35.5t35 13.5q23 0 37 -14.5t14 -42.5q0 -59 -74 -133z" />
    <glyph glyph-name="gcommaaccent" unicode="&#x123;" horiz-adv-x="574" 
d="M530 425l-56 -21h-32q38 -41 38 -96q0 -71 -58.5 -112.5t-154.5 -41.5q-62 0 -113 20q-17 -23 -17 -47q0 -44 61 -44h138q194 0 194 -152q0 -185 -291 -185q-211 0 -211 96q0 37 28 70.5t76 53.5q-75 22 -75 101q0 60 62 125q-64 40 -64 116q0 71 58 113.5t154 42.5
q23 0 54 -4h209v-35zM355 -42h-160q-13 0 -17 1q-32 -40 -32 -85q0 -44 29.5 -63t90.5 -19q78 0 123 26t45 72q0 31 -19.5 49.5t-59.5 18.5zM206 394q-22 -28 -22 -85t22 -85t61 -28q38 0 61 29t23 84t-23 84q-23 30 -61 30t-61 -29zM289 699l16 -16q-15 -16 -28 -37.5
t-13 -32.5q0 -6 1 -7q22 0 36 -13t14 -34q0 -22 -14 -35.5t-36 -13.5t-36 14.5t-14 41.5q0 59 74 133z" />
    <glyph glyph-name="Hcircumflex" unicode="&#x124;" horiz-adv-x="784" 
d="M29 0v38l65 29v574l-65 24v35h267v-35l-65 -27v-261h323v264l-65 24v35h267v-35l-65 -27v-579l65 -24v-35h-267v38l65 29v263h-323v-271l65 -24v-35h-267zM239 773l145 156h15l146 -156l-25 -25l-129 79l-128 -79z" />
    <glyph glyph-name="hcircumflex" unicode="&#x125;" horiz-adv-x="629" 
d="M220 362v-306l54 -21v-35h-245v38l60 26v614l-60 22v34l175 24l16 -16v-282l-3 -51l3 -3q30 27 76 43t89 16q73 0 114 -48q41 -49 41 -119v-242l60 -21v-35h-245v38l54 26v225q0 57 -20.5 88.5t-58.5 31.5q-26 0 -58 -13t-52 -34zM161 802l146 156h15l145 -156l-24 -25
l-129 79l-128 -79z" />
    <glyph glyph-name="Hbar" unicode="&#x126;" horiz-adv-x="770" 
d="M94 490h-63v30l63 16v105l-65 24v35h267v-35l-65 -27v-102h308v105l-65 24v35h267v-35l-65 -27v-102l65 -16v-30h-65v-431l65 -24v-35h-267v38l65 29v263h-308v-271l65 -24v-35h-267v38l65 29v423zM231 490v-113h308v113h-308z" />
    <glyph glyph-name="hbar" unicode="&#x127;" horiz-adv-x="629" 
d="M29 588l60 16v74l-60 22v34l175 24l16 -16v-138h188v-46h-188v-98l-3 -51l3 -3q30 27 76 43t89 16q73 0 114 -48q41 -49 41 -119v-242l60 -21v-35h-245v38l54 26v225q0 57 -20.5 88.5t-58.5 31.5q-26 0 -58 -13t-52 -34v-306l54 -21v-35h-245v38l60 26v494h-60v30z" />
    <glyph glyph-name="Itilde" unicode="&#x128;" horiz-adv-x="325" 
d="M295 665l-65 -27v-579l65 -24v-35h-265v38l65 29v574l-65 24v35h265v-35zM7 772l-22 22q95 96 136 96q23 0 56 -24t58 -24q42 0 85 46l23 -23q-98 -97 -140 -97q-22 0 -55 24t-59 24q-38 0 -82 -44z" />
    <glyph glyph-name="itilde" unicode="&#x129;" horiz-adv-x="309" 
d="M0 532l-23 22q94 96 136 96q23 0 56 -24t58 -24q42 0 85 46l23 -23q-97 -97 -140 -97q-22 0 -55 24t-59 24q-39 0 -81 -44zM280 0h-251v38l60 26v316l-52 22v42l167 24l16 -16v-396l60 -21v-35z" />
    <glyph glyph-name="Imacron" unicode="&#x12a;" horiz-adv-x="325" 
d="M295 665l-65 -27v-579l65 -24v-35h-265v38l65 29v574l-65 24v35h265v-35zM296 794h-267v54h267v-54z" />
    <glyph glyph-name="imacron" unicode="&#x12b;" horiz-adv-x="309" 
d="M288 554h-267v54h267v-54zM280 0h-251v38l60 26v316l-52 22v42l167 24l16 -16v-396l60 -21v-35z" />
    <glyph glyph-name="Ibreve" unicode="&#x12c;" horiz-adv-x="325" 
d="M295 665l-65 -27v-579l65 -24v-35h-265v38l65 29v574l-65 24v35h265v-35zM219 869q0 22 16 38t38 16t38 -15.5t16 -41.5q0 -46 -49 -73q-48 -27 -116 -27t-116 27q-48 29 -48 73q0 26 16 41.5t38 15.5t38 -16t16 -38q0 -21 5.5 -34.5t15.5 -18.5t17.5 -6.5t17.5 -1.5
t17.5 1.5t17.5 6.5t16 18.5t6 34.5z" />
    <glyph glyph-name="ibreve" unicode="&#x12d;" horiz-adv-x="309" 
d="M197 629q0 22 16.5 38t38.5 16t37.5 -15.5t15.5 -41.5q0 -44 -48 -73q-48 -27 -116 -27t-116 27q-48 29 -48 73q0 26 16 41.5t38 15.5t38 -16t16 -38q0 -21 5.5 -34.5t15.5 -18.5t17.5 -6.5t17.5 -1.5t17.5 1.5t17.5 6.5t15.5 18.5t5.5 34.5zM280 0h-251v38l60 26v316
l-52 22v42l167 24l16 -16v-396l60 -21v-35z" />
    <glyph glyph-name="Iogonek" unicode="&#x12e;" horiz-adv-x="325" 
d="M281 -167l14 -14q-48 -48 -99 -48q-63 0 -63 64q0 76 77 165h-180v38l65 29v574l-65 24v35h265v-35l-65 -27v-579l65 -24v-35h-49q-24 -35 -40 -78t-16 -71q0 -39 35 -39q33 0 56 21z" />
    <glyph glyph-name="iogonek" unicode="&#x12f;" horiz-adv-x="309" 
d="M195 0h-166v38l60 26v316l-52 22v42l167 24l16 -16v-396l60 -21v-35h-49q-24 -35 -40 -78t-16 -71q0 -39 35 -39t56 21l14 -14q-47 -48 -98 -48q-64 0 -64 64q0 76 77 165zM69 606q0 35 22 57t57 22t56.5 -22t21.5 -57q0 -34 -22 -56t-56 -22q-35 0 -57 22t-22 56z" />
    <glyph glyph-name="Idot" unicode="&#x130;" horiz-adv-x="325" 
d="M295 665l-65 -27v-579l65 -24v-35h-265v38l65 29v574l-65 24v35h265v-35zM109 794q-20 21 -20 53t20 52q21 20 53 20t52 -20q21 -20 21 -52t-21 -53q-20 -20 -52 -20t-53 20z" />
    <glyph glyph-name="dotlessi" unicode="&#x131;" horiz-adv-x="309" 
d="M280 0h-251v38l60 26v316l-52 22v42l167 24l16 -16v-396l60 -21v-35z" />
    <glyph glyph-name="IJ" unicode="&#x132;" horiz-adv-x="645" 
d="M295 665l-65 -27v-579l65 -24v-35h-265v38l65 29v574l-65 24v35h265v-35zM416 0v641l-65 24v35h264v-35l-65 -27v-638q0 -78 -46.5 -145.5t-131.5 -112.5l-29 29q36 37 54 102q19 61 19 127z" />
    <glyph glyph-name="ij" unicode="&#x133;" horiz-adv-x="614" 
d="M280 0h-251v38l60 26v316l-52 22v42l167 24l16 -16v-396l60 -21v-35zM69 606q0 35 22 57t57 22t56.5 -22t21.5 -57q0 -34 -22 -56t-56 -22q-35 0 -57 22t-22 56zM394 0v380l-52 22v42l167 24l16 -16v-452q0 -78 -45.5 -145.5t-128.5 -112.5l-29 29q35 37 53.5 99
t18.5 130zM374 606q0 34 21 57q22 22 57 22t57 -22t22 -57t-22 -56.5t-57 -21.5q-34 0 -56 22t-22 56z" />
    <glyph glyph-name="Jcircumflex" unicode="&#x134;" horiz-adv-x="325" 
d="M96 0v641l-65 24v35h263v-35l-65 -27v-638q0 -78 -46.5 -145.5t-131.5 -112.5l-28 29q36 37 54 102q19 61 19 127zM10 773l145 156h15l146 -156l-25 -25l-129 79l-128 -79z" />
    <glyph glyph-name="jcircumflex" unicode="&#x135;" horiz-adv-x="309" 
d="M89 0v380l-52 22v42l167 24l16 -16v-452q0 -78 -45.5 -145.5t-128.5 -112.5l-28 29q34 37 52.5 99t18.5 130zM2 533l145 156h15l146 -156l-25 -25l-129 79l-128 -79z" />
    <glyph glyph-name="Kcommaaccent" unicode="&#x136;" horiz-adv-x="706" 
d="M294 665l-65 -27v-293l288 296l-82 24v35h216v-35l-66 -24l-193 -200l236 -383l65 -23v-35h-185l-212 347l-67 -69v-219l65 -24v-35h-267v38l65 29v574l-65 24v35h267v-35zM329 -250l-16 16q15 16 28 38t13 33q0 4 -2 6q-21 0 -35 13.5t-14 34.5q0 22 14 35.5t35 13.5
q23 0 37 -14.5t14 -42.5q0 -59 -74 -133z" />
    <glyph glyph-name="kcommaaccent" unicode="&#x137;" horiz-adv-x="576" 
d="M565 0h-163l-130 217l-52 -49v-112l60 -21v-35h-251v38l60 26v614l-60 22v34l175 24l16 -16v-508l185 170l-78 21v35h205v-35l-59 -21l-111 -101l143 -247l60 -21v-35zM264 -250l-17 16q15 15 28.5 37.5t13.5 33.5q0 4 -2 6q-21 0 -35 13.5t-14 34.5q0 22 14 35.5
t35 13.5q23 0 37 -14.5t14 -42.5q0 -59 -74 -133z" />
    <glyph glyph-name="Lacute" unicode="&#x139;" horiz-adv-x="605" 
d="M231 638v-592h241l42 96h47l-13 -142h-519v32l65 19v590l-65 24v35h267v-35zM93 748l-24 25l148 156l78 -78z" />
    <glyph glyph-name="lacute" unicode="&#x13a;" horiz-adv-x="309" 
d="M280 0h-251v38l60 26v614l-60 22v34l175 24l16 -16v-686l60 -21v-35zM86 772l-25 24l148 156l78 -78z" />
    <glyph glyph-name="Lcommaaccent" unicode="&#x13b;" horiz-adv-x="605" 
d="M231 638v-592h241l42 96h47l-13 -142h-519v32l65 19v590l-65 24v35h267v-35zM278 -250l-16 16q15 16 28 38t13 33q0 4 -2 6q-21 0 -35 13.5t-14 34.5q0 22 14 35.5t35 13.5q23 0 37 -14.5t14 -42.5q0 -59 -74 -133z" />
    <glyph glyph-name="lcommaaccent" unicode="&#x13c;" horiz-adv-x="309" 
d="M280 0h-251v38l60 26v614l-60 22v34l175 24l16 -16v-686l60 -21v-35zM130 -250l-16 16q15 16 28 38t13 33q0 4 -2 6q-21 0 -35 13.5t-14 34.5q0 22 14 35.5t36 13.5t36 -14.5t14 -42.5q0 -59 -74 -133z" />
    <glyph glyph-name="Lcaron" unicode="&#x13d;" horiz-adv-x="605" 
d="M231 638v-592h241l42 96h47l-13 -142h-519v32l65 19v590l-65 24v35h267v-35zM316 896l-145 -156h-15l-146 156l25 25l128 -79l129 79z" />
    <glyph glyph-name="lcaron" unicode="&#x13e;" horiz-adv-x="399" 
d="M280 0h-251v38l60 26v614l-60 22v34l175 24l16 -16v-686l60 -21v-35zM306 566l-17 16q15 15 28.5 37t13.5 33q0 1 -2 7q-22 0 -36 13t-14 34q-3 34 31 45.5t57 -11.5q15 -15 13 -41q0 -56 -74 -133z" />
    <glyph glyph-name="Ldot" unicode="&#x13f;" horiz-adv-x="605" 
d="M231 638v-592h241l42 96h47l-13 -142h-519v32l65 19v590l-65 24v35h267v-35zM464 414q29 0 47.5 -18.5t18.5 -46.5t-18.5 -46t-47.5 -18q-27 0 -45.5 18t-18.5 46t18.5 46.5t45.5 18.5z" />
    <glyph glyph-name="ldot" unicode="&#x140;" horiz-adv-x="462" 
d="M280 0h-251v38l60 26v614l-60 22v34l175 24l16 -16v-686l60 -21v-35zM379 364q29 0 47 -18t18 -47q2 -27 -18.5 -46t-46.5 -18t-46 18q-17 20 -18 46t18 46.5t46 18.5z" />
    <glyph glyph-name="Lslash" unicode="&#x141;" horiz-adv-x="605" 
d="M94 216l-47 -47l-32 33l79 79v360l-65 24v35h267v-35l-65 -27v-253l106 107l33 -33l-139 -139v-274h241l42 96h47l-13 -142h-519v32l65 19v165z" />
    <glyph glyph-name="lslash" unicode="&#x142;" horiz-adv-x="309" 
d="M89 234l-42 -42l-32 33l74 74v379l-60 22v34l175 24l16 -16v-339l42 42l32 -33l-74 -74v-282l60 -21v-35h-251v38l60 26v170z" />
    <glyph glyph-name="Nacute" unicode="&#x143;" horiz-adv-x="719" 
d="M29 0v24l65 28v589l-65 24v35h196l354 -504v459l-65 24v21h176v-21l-65 -26v-653h-64l-421 602v-558l65 -23v-21h-176zM290 748l-24 25l148 156l78 -78z" />
    <glyph glyph-name="nacute" unicode="&#x144;" horiz-adv-x="629" 
d="M220 362v-306l54 -21v-35h-245v38l60 26v316l-52 22v42l167 24l16 -16l-3 -43l3 -3q31 28 79 43q48 16 90 16q73 0 112 -48t39 -119v-242l60 -21v-35h-245v38l54 26v225q0 57 -21.5 88.5t-59.5 31.5q-26 0 -57 -13t-51 -34zM246 508l-25 25l148 156l78 -78z" />
    <glyph glyph-name="Ncommaaccent" unicode="&#x145;" horiz-adv-x="719" 
d="M29 0v24l65 28v589l-65 24v35h196l354 -504v459l-65 24v21h176v-21l-65 -26v-653h-64l-421 602v-558l65 -23v-21h-176zM336 -250l-17 16q15 16 28 38t13 33q0 5 -1 6q-21 0 -35.5 13.5t-14.5 34.5q-3 33 31 45t57 -11q15 -15 13 -42q0 -56 -74 -133z" />
    <glyph glyph-name="ncommaaccent" unicode="&#x146;" horiz-adv-x="629" 
d="M220 362v-306l54 -21v-35h-245v38l60 26v316l-52 22v42l167 24l16 -16l-3 -43l3 -3q31 28 79 43q48 16 90 16q73 0 112 -48t39 -119v-242l60 -21v-35h-245v38l54 26v225q0 57 -21.5 88.5t-59.5 31.5q-26 0 -57 -13t-51 -34zM291 -250l-17 16q15 15 28.5 37.5t13.5 33.5
q0 4 -2 6q-21 0 -35 13.5t-14 34.5q0 22 14 35.5t35 13.5q23 0 37 -14.5t14 -42.5q0 -59 -74 -133z" />
    <glyph glyph-name="Ncaron" unicode="&#x147;" horiz-adv-x="719" 
d="M29 0v24l65 28v589l-65 24v35h196l354 -504v459l-65 24v21h176v-21l-65 -26v-653h-64l-421 602v-558l65 -23v-21h-176zM512 905l-146 -157h-14l-146 157l24 24l129 -79l129 79z" />
    <glyph glyph-name="ncaron" unicode="&#x148;" horiz-adv-x="629" 
d="M220 362v-306l54 -21v-35h-245v38l60 26v316l-52 22v42l167 24l16 -16l-3 -43l3 -3q31 28 79 43q48 16 90 16q73 0 112 -48t39 -119v-242l60 -21v-35h-245v38l54 26v225q0 57 -21.5 88.5t-59.5 31.5q-26 0 -57 -13t-51 -34zM467 665l-145 -157h-15l-146 157l25 24
l128 -79l129 79z" />
    <glyph glyph-name="Eng" unicode="&#x14a;" horiz-adv-x="719" 
d="M29 0v24l65 28v589l-65 24v35h201l349 -592v547l-65 24v21h176v-21l-65 -26v-653q0 -78 -47 -145.5t-133 -112.5l-28 29q34 37 52.5 99t18.5 130v13l-348 589v-558l65 -23v-21h-176z" />
    <glyph glyph-name="eng" unicode="&#x14b;" horiz-adv-x="629" 
d="M409 0v289q0 57 -21.5 88.5t-59.5 31.5q-26 0 -57 -13t-51 -34v-306l60 -21v-35h-251v38l60 26v316l-52 22v42l167 24l16 -16l-3 -43l3 -3q31 28 79 43q48 16 90 16q73 0 112 -48t39 -119v-298q0 -78 -45.5 -145.5t-128.5 -112.5l-28 29q34 37 52.5 99t18.5 130z" />
    <glyph glyph-name="Omacron" unicode="&#x14c;" horiz-adv-x="775" 
d="M388 707q152 0 246 -97q94 -95 94 -260q0 -164 -94 -261q-94 -96 -246 -96t-247 96q-94 97 -94 261q0 165 94 260q94 97 247 97zM191 350q0 -148 53 -229t144 -81t143.5 81t52.5 229q0 150 -52.5 230t-143.5 80q-92 0 -144.5 -80t-52.5 -230zM521 794h-267v54h267v-54z
" />
    <glyph glyph-name="omacron" unicode="&#x14d;" 
d="M105 58q-66 64 -66 172t66 171q65 64 174 64t174 -64q66 -63 66 -171t-66 -172q-66 -63 -174 -63t-174 63zM172 230q0 -91 28.5 -139.5t78.5 -48.5q49 0 78 49t29 139q0 91 -28.5 139.5t-78.5 48.5t-78.5 -48.5t-28.5 -139.5zM412 554h-266v54h266v-54z" />
    <glyph glyph-name="Obreve" unicode="&#x14e;" horiz-adv-x="775" 
d="M388 707q152 0 246 -97q94 -95 94 -260q0 -164 -94 -261q-94 -96 -246 -96t-247 96q-94 97 -94 261q0 165 94 260q94 97 247 97zM191 350q0 -148 53 -229t144 -81t143.5 81t52.5 229q0 150 -52.5 230t-143.5 80q-92 0 -144.5 -80t-52.5 -230zM444 869q0 22 16 38t38 16
t38 -15.5t16 -41.5q0 -44 -48 -73q-48 -27 -116 -27t-117 27q-48 27 -48 73q0 26 16 41.5t38 15.5t38 -16t16 -38q0 -21 6 -34.5t16 -18.5t17.5 -6.5t17.5 -1.5t17.5 1.5t17.5 6.5t15.5 18.5t5.5 34.5z" />
    <glyph glyph-name="obreve" unicode="&#x14f;" 
d="M105 58q-66 64 -66 172t66 171q65 64 174 64t174 -64q66 -63 66 -171t-66 -172q-66 -63 -174 -63t-174 63zM172 230q0 -91 28.5 -139.5t78.5 -48.5q49 0 78 49t29 139q0 91 -28.5 139.5t-78.5 48.5t-78.5 -48.5t-28.5 -139.5zM335 629q0 22 16 38t38 16t38 -15.5
t16 -41.5q0 -44 -48 -73q-48 -27 -116 -27q-67 0 -117 27q-48 29 -48 73q0 26 16.5 41.5t38.5 15.5t37.5 -16t15.5 -38q0 -21 6 -34.5t16 -18.5t17.5 -6.5t17.5 -1.5t17.5 1.5t17.5 6.5t15.5 18.5t5.5 34.5z" />
    <glyph glyph-name="Ohungarumlaut" unicode="&#x150;" horiz-adv-x="775" 
d="M388 707q152 0 246 -97q94 -95 94 -260q0 -164 -94 -261q-94 -96 -246 -96t-247 96q-94 97 -94 261q0 165 94 260q94 97 247 97zM191 350q0 -148 53 -229t144 -81t143.5 81t52.5 229q0 150 -52.5 230t-143.5 80q-92 0 -144.5 -80t-52.5 -230zM223 748l-25 25l131 156
l78 -78zM412 748l-24 25l131 156l77 -78z" />
    <glyph glyph-name="ohungarumlaut" unicode="&#x151;" 
d="M105 58q-66 64 -66 172t66 171q65 64 174 64t174 -64q66 -63 66 -171t-66 -172q-66 -63 -174 -63t-174 63zM172 230q0 -91 28.5 -139.5t78.5 -48.5q49 0 78 49t29 139q0 91 -28.5 139.5t-78.5 48.5t-78.5 -48.5t-28.5 -139.5zM114 508l-25 25l131 156l78 -78zM303 508
l-24 25l131 156l78 -78z" />
    <glyph glyph-name="OE" unicode="&#x152;" horiz-adv-x="989" 
d="M600 335v-289h257l41 96h47l-13 -142h-469q-38 -7 -75 -7q-152 0 -247 96q-94 97 -94 261q0 165 94 260q94 97 247 97q36 0 75 -7h459l13 -142h-47l-41 96h-247v-272h185l21 73h43v-193h-43l-21 73h-185zM388 40q41 0 75 19v581q-35 20 -75 20q-92 0 -144.5 -80
t-52.5 -230q0 -148 53 -229t144 -81z" />
    <glyph glyph-name="oe" unicode="&#x153;" horiz-adv-x="858" 
d="M810 253l-16 -16h-288q1 -98 36.5 -142t108.5 -44q85 0 128 45l28 -29q-71 -72 -191 -72q-110 0 -170 68q-62 -68 -167 -68q-108 0 -174 63q-66 64 -66 172t66 171q65 64 174 64q105 0 167 -69q62 69 164 69q91 0 147 -50q57 -49 57 -124q0 -25 -4 -38zM279 42
q82 0 102 121q-16 68 0 133q-20 122 -102 122q-50 0 -78.5 -48.5t-28.5 -139.5t28.5 -139.5t78.5 -48.5zM615 418q-43 0 -73 -40q-31 -41 -35 -99l197 9q0 60 -24.5 95t-64.5 35z" />
    <glyph glyph-name="Racute" unicode="&#x154;" horiz-adv-x="683" 
d="M600 507q0 -69 -45 -116.5t-124 -63.5q39 -19 82 -98l92 -171l65 -23v-35h-182l-170 315h-87v-256l65 -24v-35h-267v38l65 29v582l-65 19v32h314q115 0 186 -53t71 -140zM327 654h-96v-292h96q60 0 94 37t34 108q0 72 -34 109.5t-94 37.5zM273 748l-25 25l149 156l77 -78
z" />
    <glyph glyph-name="racute" unicode="&#x155;" horiz-adv-x="475" 
d="M29 38l60 26v316l-52 22v42l167 24l16 -18l-3 -72l3 -3q11 19 21 31q48 59 106 59q43 0 72.5 -30t29.5 -74q0 -31 -15 -46.5t-38 -15.5t-39 15.5t-16 38.5v59q-7 6 -21 6q-24 0 -50 -27q-23 -25 -38 -54l-12 -27v-250l93 -25v-35h-284v38zM188 508l-25 25l149 156l77 -78
z" />
    <glyph glyph-name="Rcommaaccent" unicode="&#x156;" horiz-adv-x="683" 
d="M600 507q0 -69 -45 -116.5t-124 -63.5q39 -19 82 -98l92 -171l65 -23v-35h-182l-170 315h-87v-256l65 -24v-35h-267v38l65 29v582l-65 19v32h314q115 0 186 -53t71 -140zM327 654h-96v-292h96q60 0 94 37t34 108q0 72 -34 109.5t-94 37.5zM317 -250l-16 16q15 16 28 38
t13 33q0 4 -2 6q-21 0 -35 13.5t-14 34.5q0 22 14 35.5t35 13.5q23 0 37 -14.5t14 -42.5q0 -59 -74 -133z" />
    <glyph glyph-name="rcommaaccent" unicode="&#x157;" horiz-adv-x="475" 
d="M29 38l60 26v316l-52 22v42l167 24l16 -18l-3 -72l3 -3q11 19 21 31q48 59 106 59q43 0 72.5 -30t29.5 -74q0 -31 -15 -46.5t-38 -15.5t-39 15.5t-16 38.5v59q-7 6 -21 6q-24 0 -50 -27q-23 -25 -38 -54l-12 -27v-250l93 -25v-35h-284v38zM138 -250l-17 16
q15 15 28.5 37.5t13.5 33.5q0 4 -2 6q-21 0 -35 13.5t-14 34.5q-4 33 29 45q34 12 57 -10q16 -15 14 -43q0 -56 -74 -133z" />
    <glyph glyph-name="Rcaron" unicode="&#x158;" horiz-adv-x="683" 
d="M600 507q0 -69 -45 -116.5t-124 -63.5q39 -19 82 -98l92 -171l65 -23v-35h-182l-170 315h-87v-256l65 -24v-35h-267v38l65 29v582l-65 19v32h314q115 0 186 -53t71 -140zM327 654h-96v-292h96q60 0 94 37t34 108q0 72 -34 109.5t-94 37.5zM484 905l-145 -157h-15
l-146 157l25 24l128 -79l129 79z" />
    <glyph glyph-name="rcaron" unicode="&#x159;" horiz-adv-x="475" 
d="M29 38l60 26v316l-52 22v42l167 24l16 -18l-3 -72l3 -3q11 19 21 31q48 59 106 59q43 0 72.5 -30t29.5 -74q0 -31 -15 -46.5t-38 -15.5t-39 15.5t-16 38.5v59q-7 6 -21 6q-24 0 -50 -27q-23 -25 -38 -54l-12 -27v-250l93 -25v-35h-284v38zM395 665l-145 -157h-15
l-146 157l25 24l128 -79l129 79z" />
    <glyph glyph-name="Sacute" unicode="&#x15a;" horiz-adv-x="592" 
d="M75 8l-15 16l-16 149h47q14 -66 63 -100t116 -34t108 34t41 101q0 48 -31 70q-35 25 -128 55l-45 15q-53 18 -82 37q-46 32 -61 61q-23 46 -23 98q0 93 59 145t178 52q93 0 172 -38l26 22l16 -16l16 -148h-48q-14 68 -56.5 101t-100.5 33q-61 0 -98 -34.5t-37 -91.5
q0 -48 29 -69q29 -20 115 -49q38 -13 52 -19q25 -9 46 -19q32 -13 44 -22q48 -33 62 -61q22 -44 22 -98q0 -98 -65 -151.5t-198 -53.5q-103 0 -181 38zM218 748l-25 25l148 156l78 -78z" />
    <glyph glyph-name="sacute" unicode="&#x15b;" horiz-adv-x="444" 
d="M56 4l-13 13v115h47q26 -90 111 -90q41 0 66 18t25 54q0 28 -20 40t-76 27l-47 13q-13 4 -40 17q-25 12 -37 25q-31 35 -31 89q0 139 176 139q73 0 131 -27l16 16l13 -13v-112h-47q-24 90 -97 90q-36 0 -58 -19t-22 -49q0 -26 17 -38t69 -27l50 -16q17 -5 42 -18
q27 -13 39 -27q34 -38 34 -90q0 -139 -199 -139q-76 0 -133 25zM150 508l-24 25l148 156l78 -78z" />
    <glyph glyph-name="Scircumflex" unicode="&#x15c;" horiz-adv-x="592" 
d="M75 8l-15 16l-16 149h47q14 -66 63 -100t116 -34t108 34t41 101q0 48 -31 70q-35 25 -128 55l-45 15q-53 18 -82 37q-46 32 -61 61q-23 46 -23 98q0 93 59 145t178 52q93 0 172 -38l26 22l16 -16l16 -148h-48q-14 68 -56.5 101t-100.5 33q-61 0 -98 -34.5t-37 -91.5
q0 -48 29 -69q29 -20 115 -49q38 -13 52 -19q25 -9 46 -19q32 -13 44 -22q48 -33 62 -61q22 -44 22 -98q0 -98 -65 -151.5t-198 -53.5q-103 0 -181 38zM132 773l146 156h15l146 -156l-25 -25l-129 79l-128 -79z" />
    <glyph glyph-name="scircumflex" unicode="&#x15d;" horiz-adv-x="444" 
d="M56 4l-13 13v115h47q26 -90 111 -90q41 0 66 18t25 54q0 28 -20 40t-76 27l-47 13q-13 4 -40 17q-25 12 -37 25q-31 35 -31 89q0 139 176 139q73 0 131 -27l16 16l13 -13v-112h-47q-24 90 -97 90q-36 0 -58 -19t-22 -49q0 -26 17 -38t69 -27l50 -16q17 -5 42 -18
q27 -13 39 -27q34 -38 34 -90q0 -139 -199 -139q-76 0 -133 25zM65 533l146 156h14l146 -156l-24 -25l-129 79l-129 -79z" />
    <glyph glyph-name="Scedilla" unicode="&#x15e;" horiz-adv-x="592" 
d="M211 -107l53 100q-90 3 -162 38l-27 -23l-15 16l-16 149h47q14 -66 63 -100t116 -34t108 34t41 101q0 48 -31 70q-35 25 -128 55l-45 15q-53 18 -82 37q-46 32 -61 61q-23 46 -23 98q0 93 59 145t178 52q93 0 172 -38l26 22l16 -16l16 -148h-48q-14 68 -56.5 101
t-100.5 33q-61 0 -98 -34.5t-37 -91.5q0 -48 29 -69q29 -20 115 -49q38 -13 52 -19q25 -9 46 -19q32 -13 44 -22q48 -33 62 -61q22 -44 22 -98q0 -198 -247 -205l-17 -34q35 0 57 -12.5t22 -36.5q0 -16 -18 -42q-18 -25 -35 -44q-11 -13 -51 -53l-13 14q48 53 48 76
q0 32 -81 32z" />
    <glyph glyph-name="scedilla" unicode="&#x15f;" horiz-adv-x="444" 
d="M133 -107l53 102q-63 3 -114 25l-16 -16l-13 13v115h47q26 -90 111 -90q41 0 66 18t25 54q0 28 -20 40t-76 27l-47 13q-13 4 -40 17q-25 12 -37 25q-31 35 -31 89q0 139 176 139q73 0 131 -27l16 16l13 -13v-112h-47q-24 90 -97 90q-36 0 -58 -19t-22 -49q0 -26 17 -38
t69 -27l50 -16q17 -5 42 -18q27 -13 39 -27q34 -38 34 -90q0 -132 -183 -138l-17 -37q35 0 56.5 -12.5t21.5 -36.5q0 -16 -17 -42q-21 -32 -86 -97l-14 14q49 50 49 76q0 32 -81 32z" />
    <glyph glyph-name="Scaron" unicode="&#x160;" horiz-adv-x="592" 
d="M75 8l-15 16l-16 149h47q14 -66 63 -100t116 -34t108 34t41 101q0 48 -31 70q-35 25 -128 55l-45 15q-53 18 -82 37q-46 32 -61 61q-23 46 -23 98q0 93 59 145t178 52q93 0 172 -38l26 22l16 -16l16 -148h-48q-14 68 -56.5 101t-100.5 33q-61 0 -98 -34.5t-37 -91.5
q0 -48 29 -69q29 -20 115 -49q38 -13 52 -19q25 -9 46 -19q32 -13 44 -22q48 -33 62 -61q22 -44 22 -98q0 -98 -65 -151.5t-198 -53.5q-103 0 -181 38zM439 905l-146 -157h-14l-146 157l24 24l129 -79l129 79z" />
    <glyph glyph-name="scaron" unicode="&#x161;" horiz-adv-x="444" 
d="M56 4l-13 13v115h47q26 -90 111 -90q41 0 66 18t25 54q0 28 -20 40t-76 27l-47 13q-13 4 -40 17q-25 12 -37 25q-31 35 -31 89q0 139 176 139q73 0 131 -27l16 16l13 -13v-112h-47q-24 90 -97 90q-36 0 -58 -19t-22 -49q0 -26 17 -38t69 -27l50 -16q17 -5 42 -18
q27 -13 39 -27q34 -38 34 -90q0 -139 -199 -139q-76 0 -133 25zM371 665l-146 -157h-14l-146 157l24 24l129 -79l129 79z" />
    <glyph glyph-name="Tcommaaccent" unicode="&#x162;" horiz-adv-x="676" 
d="M601 558l-42 96h-152v-595l65 -24v-35h-267v38l65 29v587h-153l-41 -102h-47l13 148h593l13 -142h-47zM314 -250l-17 16q15 16 28.5 38t13.5 33q0 4 -2 6q-21 0 -35.5 13.5t-14.5 34.5q-3 33 31 45t57 -11q15 -15 13 -42q0 -56 -74 -133z" />
    <glyph glyph-name="tcommaaccent" unicode="&#x163;" horiz-adv-x="397" 
d="M89 414h-60v24q105 42 175 136l16 -16v-98h130v-46h-130v-280q0 -85 71 -85q37 0 58 21l23 -23q-52 -52 -134 -52q-68 0 -108.5 38t-40.5 101v280zM194 -250l-17 16q15 15 28.5 37.5t13.5 33.5q0 4 -2 6q-21 0 -35 13.5t-14 34.5q0 22 14 35.5t35 13.5q23 0 37 -14.5
t14 -42.5q0 -56 -74 -133z" />
    <glyph glyph-name="Tcaron" unicode="&#x164;" horiz-adv-x="676" 
d="M601 558l-42 96h-152v-595l65 -24v-35h-267v38l65 29v587h-153l-41 -102h-47l13 148h593l13 -142h-47zM491 905l-146 -157h-15l-146 157l25 24l128 -79l129 79z" />
    <glyph glyph-name="tcaron" unicode="&#x165;" horiz-adv-x="397" 
d="M89 414h-60v24q105 42 175 136l16 -16v-98h130v-46h-130v-280q0 -85 71 -85q37 0 58 21l23 -23q-52 -52 -134 -52q-68 0 -108.5 38t-40.5 101v280zM293 566l-17 16q15 15 28.5 37t13.5 33q0 1 -2 7q-22 0 -36 13t-14 34q-3 34 31 45.5t57 -11.5q15 -15 13 -41
q0 -56 -74 -133z" />
    <glyph glyph-name="Tbar" unicode="&#x166;" horiz-adv-x="676" 
d="M270 325h-102v47h102v282h-153l-41 -102h-47l13 148h593l13 -142h-47l-42 96h-152v-282h102v-47h-102v-266l65 -24v-35h-267v38l65 29v258z" />
    <glyph glyph-name="tbar" unicode="&#x167;" horiz-adv-x="397" 
d="M89 254h-60v30l60 16v114h-60v24q105 42 175 136l16 -16v-98h130v-46h-130v-114h130v-46h-130v-120q0 -85 71 -85q37 0 58 21l23 -23q-52 -52 -134 -52q-68 0 -108.5 38t-40.5 101v120z" />
    <glyph glyph-name="Utilde" unicode="&#x168;" horiz-adv-x="747" 
d="M718 679l-65 -26v-391q0 -122 -77 -196q-76 -72 -203 -72q-125 0 -202 72q-77 74 -77 196v379l-65 24v35h267v-35l-65 -27v-376q0 -97 51 -149t140 -52t140 52t51 149v393l-64 24v21h169v-21zM242 772l-23 22q95 96 136 96q23 0 56 -24t58 -24q42 0 85 46l23 -23
q-97 -97 -140 -97q-22 0 -55 24t-59 24q-39 0 -81 -44z" />
    <glyph glyph-name="utilde" unicode="&#x169;" horiz-adv-x="627" 
d="M537 452v-375l52 -27v-39l-167 -19l-16 16l3 49l-3 3q-29 -29 -79 -47t-96 -18q-67 0 -104.5 39.5t-37.5 101.5v244l-52 22v42l167 24l16 -16v-313q0 -41 20 -64.5t55 -23.5q28 0 59.5 15t51.5 40v274l-52 22v42l167 24zM156 532l-23 22q96 96 137 96q22 0 55 -24t58 -24
q40 0 86 46l22 -23q-97 -97 -140 -97q-22 0 -55 24q-32 24 -58 24q-38 0 -82 -44z" />
    <glyph glyph-name="Umacron" unicode="&#x16a;" horiz-adv-x="747" 
d="M718 679l-65 -26v-391q0 -122 -77 -196q-76 -72 -203 -72q-125 0 -202 72q-77 74 -77 196v379l-65 24v35h267v-35l-65 -27v-376q0 -97 51 -149t140 -52t140 52t51 149v393l-64 24v21h169v-21zM518 794h-266v54h266v-54z" />
    <glyph glyph-name="umacron" unicode="&#x16b;" horiz-adv-x="627" 
d="M537 452v-375l52 -27v-39l-167 -19l-16 16l3 49l-3 3q-29 -29 -79 -47t-96 -18q-67 0 -104.5 39.5t-37.5 101.5v244l-52 22v42l167 24l16 -16v-313q0 -41 20 -64.5t55 -23.5q28 0 59.5 15t51.5 40v274l-52 22v42l167 24zM444 554h-267v54h267v-54z" />
    <glyph glyph-name="Ubreve" unicode="&#x16c;" horiz-adv-x="747" 
d="M718 679l-65 -26v-391q0 -122 -77 -196q-76 -72 -203 -72q-125 0 -202 72q-77 74 -77 196v379l-65 24v35h267v-35l-65 -27v-376q0 -97 51 -149t140 -52t140 52t51 149v393l-64 24v21h169v-21zM441 869q0 22 16 38t39 16q22 0 37.5 -15.5t15.5 -41.5q0 -44 -48 -73
q-48 -27 -116 -27t-116 27q-48 29 -48 73q0 26 16 41.5t38 15.5t38 -16t16 -38q0 -21 5.5 -34.5t15.5 -18.5t17.5 -6.5t17.5 -1.5t17.5 1.5t17.5 6.5t15.5 18.5t5.5 34.5z" />
    <glyph glyph-name="ubreve" unicode="&#x16d;" horiz-adv-x="627" 
d="M537 452v-375l52 -27v-39l-167 -19l-16 16l3 49l-3 3q-29 -29 -79 -47t-96 -18q-67 0 -104.5 39.5t-37.5 101.5v244l-52 22v42l167 24l16 -16v-313q0 -41 20 -64.5t55 -23.5q28 0 59.5 15t51.5 40v274l-52 22v42l167 24zM364 629q0 22 16 38t38 16t38 -15.5t16 -41.5
q0 -44 -48 -73q-48 -27 -116 -27t-116 27q-48 29 -48 73q0 26 16 41.5t38 15.5t38 -16t16 -38q0 -21 5.5 -34.5t15.5 -18.5t17.5 -6.5t17.5 -1.5t17.5 1.5t17.5 6.5t15.5 18.5t5.5 34.5z" />
    <glyph glyph-name="Uring" unicode="&#x16e;" horiz-adv-x="747" 
d="M718 679l-65 -26v-391q0 -122 -77 -196q-76 -72 -203 -72q-125 0 -202 72q-77 74 -77 196v379l-65 24v35h267v-35l-65 -27v-376q0 -97 51 -149t140 -52t140 52t51 149v393l-64 24v21h169v-21zM310 825q0 38 23.5 60.5t62.5 22.5t63 -22.5t24 -60.5q0 -39 -24 -61t-63 -22
t-62.5 22t-23.5 61zM368 862q-10 -14 -10 -37t10 -37q11 -14 28 -14t27 14q11 14 11 37t-11 37q-10 14 -27 14t-28 -14z" />
    <glyph glyph-name="uring" unicode="&#x16f;" horiz-adv-x="627" 
d="M537 452v-375l52 -27v-39l-167 -19l-16 16l3 49l-3 3q-29 -29 -79 -47t-96 -18q-67 0 -104.5 39.5t-37.5 101.5v244l-52 22v42l167 24l16 -16v-313q0 -41 20 -64.5t55 -23.5q28 0 59.5 15t51.5 40v274l-52 22v42l167 24zM224 585q0 38 23.5 60.5t62.5 22.5t63 -22.5
t24 -60.5t-24 -60.5t-63 -22.5t-62.5 22t-23.5 61zM282 622q-10 -14 -10 -37t10 -37q11 -14 28 -14t27 14t10 37t-10 37t-27 14t-28 -14z" />
    <glyph glyph-name="Uhungarumlaut" unicode="&#x170;" horiz-adv-x="747" 
d="M718 679l-65 -26v-391q0 -122 -77 -196q-76 -72 -203 -72q-125 0 -202 72q-77 74 -77 196v379l-65 24v35h267v-35l-65 -27v-376q0 -97 51 -149t140 -52t140 52t51 149v393l-64 24v21h169v-21zM220 748l-24 25l130 156l78 -78zM410 748l-25 25l131 156l78 -78z" />
    <glyph glyph-name="uhungarumlaut" unicode="&#x171;" horiz-adv-x="627" 
d="M537 452v-375l52 -27v-39l-167 -19l-16 16l3 49l-3 3q-29 -29 -79 -47t-96 -18q-67 0 -104.5 39.5t-37.5 101.5v244l-52 22v42l167 24l16 -16v-313q0 -41 20 -64.5t55 -23.5q28 0 59.5 15t51.5 40v274l-52 22v42l167 24zM143 508l-25 25l131 156l78 -78zM332 508l-24 25
l130 156l78 -78z" />
    <glyph glyph-name="Uogonek" unicode="&#x172;" horiz-adv-x="747" 
d="M469 -167l14 -14q-48 -48 -99 -48q-63 0 -63 64q0 76 72 160q-5 -1 -20 -1q-125 0 -202 72q-77 74 -77 196v379l-65 24v35h267v-35l-65 -27v-376q0 -97 51 -149t140 -52t140 52t51 149v393l-64 24v21h169v-21l-65 -26v-391q0 -107 -59 -177t-161 -86q-24 -35 -39.5 -77.5
t-15.5 -70.5q0 -39 35 -39q33 0 56 21z" />
    <glyph glyph-name="uogonek" unicode="&#x173;" horiz-adv-x="627" 
d="M577 -161l14 -14q-49 -48 -99 -48q-63 0 -63 64q0 76 72 160l-79 -9l-16 16l3 49l-3 3q-29 -29 -79 -47t-96 -18q-67 0 -104.5 39.5t-37.5 101.5v244l-52 22v42l167 24l16 -16v-313q0 -41 20 -64.5t55 -23.5q28 0 59.5 15t51.5 40v274l-52 22v42l167 24l16 -16v-375
l52 -27v-39l-49 -6q-23 -33 -38.5 -76t-15.5 -72q0 -39 35 -39q33 0 56 21z" />
    <glyph glyph-name="Wcircumflex" unicode="&#x174;" horiz-adv-x="1188" 
d="M842 0h-62l-189 451l-184 -451h-62l-272 641l-65 24v35h268v-35l-65 -24l208 -506l147 373l-58 133l-65 24v35h268v-35l-65 -24l208 -506l211 506l-81 24v35h195v-35l-63 -24zM444 773l146 156h15l145 -156l-24 -25l-129 79l-128 -79z" />
    <glyph glyph-name="wcircumflex" unicode="&#x175;" horiz-adv-x="871" 
d="M621 0h-56l-122 281l-130 -281h-56l-187 404l-59 21v35h244v-35l-58 -21l126 -278l97 210l-30 68l-60 21v35h244v-35l-58 -21l114 -278l121 278l-76 21v35h186v-35l-58 -21zM290 533l146 156h14l146 -156l-24 -25l-129 79l-129 -79z" />
    <glyph glyph-name="Ycircumflex" unicode="&#x176;" horiz-adv-x="702" 
d="M283 665l-64 -21l175 -299l177 299l-74 21v35h197v-35l-69 -21l-210 -353v-232l65 -24v-35h-267v38l65 29v223l-207 354l-63 21v35h275v-35zM203 773l145 156h15l146 -156l-25 -25l-129 79l-128 -79z" />
    <glyph glyph-name="ycircumflex" unicode="&#x177;" horiz-adv-x="577" 
d="M262 -5l-192 409l-59 21v35h250v-35l-58 -21l125 -269l127 269l-77 21v35h188v-35l-58 -21l-189 -404q-78 -163 -109 -207q-32 -47 -85 -47q-40 0 -65.5 20.5t-25.5 58.5q-3 47 40 59q36 10 62 -13q17 -15 15 -37v-25q4 -2 8 -2q14 0 36 40q21 37 67 148zM140 533
l146 156h14l146 -156l-24 -25l-129 79l-129 -79z" />
    <glyph glyph-name="Ydieresis" unicode="&#x178;" horiz-adv-x="702" 
d="M283 665l-64 -21l175 -299l177 299l-74 21v35h197v-35l-69 -21l-210 -353v-232l65 -24v-35h-267v38l65 29v223l-207 354l-63 21v35h275v-35zM172 834q0 29 19 48t49 19q29 0 48 -19t19 -48q0 -30 -19 -49t-48 -19q-30 0 -49 19t-19 49zM394 834q0 29 19 48t48 19
q30 0 48.5 -19t18.5 -48q0 -30 -18.5 -49t-48.5 -19q-29 0 -48 19t-19 49z" />
    <glyph glyph-name="Zacute" unicode="&#x179;" horiz-adv-x="636" 
d="M586 0h-539v32l387 622h-295l-41 -102h-47l13 148h524v-32l-389 -622h311l42 106h46zM249 748l-24 25l148 156l78 -78z" />
    <glyph glyph-name="zacute" unicode="&#x17a;" horiz-adv-x="496" 
d="M448 0h-401v32l257 382h-173l-29 -86h-47v132h391v-32l-259 -382h186l29 86h46v-132zM179 508l-24 25l148 156l78 -78z" />
    <glyph glyph-name="Zdotaccent" unicode="&#x17b;" horiz-adv-x="636" 
d="M586 0h-539v32l387 622h-295l-41 -102h-47l13 148h524v-32l-389 -622h311l42 106h46zM265 794q-20 21 -20 53t20 52q21 20 53 20t52 -20q21 -20 21 -52t-21 -53q-20 -20 -52 -20t-53 20z" />
    <glyph glyph-name="zdotaccent" unicode="&#x17c;" horiz-adv-x="496" 
d="M448 0h-401v32l257 382h-173l-29 -86h-47v132h391v-32l-259 -382h186l29 86h46v-132zM195 554q-20 21 -20 53t20 52q21 20 53 20t52 -20q21 -20 21 -52t-21 -53q-20 -20 -52 -20t-53 20z" />
    <glyph glyph-name="Zcaron" unicode="&#x17d;" horiz-adv-x="636" 
d="M586 0h-539v32l387 622h-295l-41 -102h-47l13 148h524v-32l-389 -622h311l42 106h46zM471 905l-146 -157h-15l-145 157l24 24l128 -79l129 79z" />
    <glyph glyph-name="zcaron" unicode="&#x17e;" horiz-adv-x="496" 
d="M448 0h-401v32l257 382h-173l-29 -86h-47v132h391v-32l-259 -382h186l29 86h46v-132zM401 665l-146 -157h-15l-145 157l24 24l128 -79l129 79z" />
    <glyph glyph-name="longs" unicode="&#x17f;" horiz-adv-x="459" 
d="M29 452l60 15v106q0 82 51.5 132t140.5 50q70 0 113.5 -31t43.5 -80q0 -28 -16 -44t-38 -16t-38 16t-16 38v60q-17 13 -42 13q-68 0 -68 -136v-515l93 -25v-35h-284v38l60 26v350h-60v38z" />
    <glyph glyph-name="uni018F" unicode="&#x18f;" horiz-adv-x="740" 
d="M108 568l-30 30q109 109 269 109q159 0 252 -96q94 -94 94 -258q0 -165 -95 -263q-94 -97 -250 -97q-135 0 -218 71q-83 72 -83 179q0 36 7 58l23 23h471q6 132 -45 221q-56 101 -196 101q-124 0 -199 -78zM338 43q82 0 138.5 61t68.5 174l-373 -23q0 -97 43.5 -154.5
t122.5 -57.5z" />
    <glyph glyph-name="florin" unicode="&#x192;" horiz-adv-x="428" 
d="M55 0l88 414h-75l8 38l78 15l23 106q16 82 79 132q64 50 152 50q70 0 107 -31t26 -80q-6 -28 -24.5 -44t-41.5 -16t-35.5 16t-7.5 38l13 60q-16 13 -40 13q-69 0 -97 -136l-24 -115h163l-10 -46h-163l-88 -414q-26 -120 -96 -187q-71 -68 -157 -68q-49 0 -69 20t-13 52
q6 27 25.5 43t43.5 16q23 0 36 -15.5t7 -39.5l-6 -29q29 0 52 48.5t46 159.5z" />
    <glyph glyph-name="uni01DD" unicode="&#x1dd;" horiz-adv-x="523" 
d="M48 212l16 16h287q-1 181 -140 181q-79 0 -124 -45l-29 29q74 72 187 72q108 0 173 -65q66 -64 66 -171q0 -108 -67 -171t-169 -63q-92 0 -148 50q-56 51 -56 128q0 24 4 39zM242 42q42 0 73 41.5t36 102.5l-197 -9q0 -63 24 -99t64 -36z" />
    <glyph glyph-name="Aringacute" unicode="&#x1fa;" horiz-adv-x="771" 
d="M299 773q0 38 23.5 60t62.5 22t63 -22t24 -60q0 -60 -53 -78l279 -636l65 -24v-35h-266v35l63 24l-69 162h-298l-71 -162l82 -24v-35h-196v35l63 24l281 636q-53 17 -53 78zM471 267l-128 298l-130 -298h258zM296 833l-24 24l148 157l78 -79zM347 773q0 -32 19 -45.5
t38 0t19 45.5q2 31 -18 44.5t-40 0t-18 -44.5z" />
    <glyph glyph-name="aringacute" unicode="&#x1fb;" horiz-adv-x="539" 
d="M321 47l-3 4q-66 -56 -163 -56q-113 0 -113 106q0 69 53 96q50 27 223 67v78q0 36 -21 56t-59 20q-35 0 -73 -20v-51q0 -23 -15.5 -38.5t-38.5 -15.5q-22 0 -38 15.5t-16 41.5q0 52 55 83q56 32 141 32q90 0 143.5 -35.5t53.5 -92.5v-269q0 -22 18 -22q15 0 27 12l14 -15
q-47 -46 -124 -46q-59 0 -64 50zM318 92v127l-51 -13q-51 -11 -69 -24q-40 -27 -35 -68q0 -63 59 -63q58 0 96 41zM165 565q0 38 23.5 60.5t62.5 22.5t63 -22.5t24 -60.5q0 -39 -24 -61t-63 -22t-62.5 22t-23.5 61zM223 602q-10 -14 -10 -37t10 -37q11 -14 28 -14t27 14
q11 14 11 37t-11 37q-10 14 -27 14t-28 -14zM163 634l-25 24l148 156l78 -78z" />
    <glyph glyph-name="AEacute" unicode="&#x1fc;" horiz-adv-x="842" 
d="M357 32l65 19l-27 170h-202l-71 -162l82 -24v-35h-196v35l63 24l284 641h420l13 -142h-47l-42 96h-243l42 -272h139l21 73h43v-193h-43l-21 73h-133l44 -289h162l41 96h47l-13 -142h-428v32zM389 267l-46 298l-130 -298h176zM390 748l-25 25l149 156l77 -78z" />
    <glyph glyph-name="aeacute" unicode="&#x1fd;" horiz-adv-x="750" 
d="M316 51q-27 -25 -71.5 -40.5t-89.5 -15.5q-113 0 -113 106q0 40 15 61q19 25 34 34q6 3 13 6l36 16q16 6 49 15q43 11 57 14q31 8 71 17v78q0 35 -21 55.5t-58 20.5q-35 0 -73 -20v-51q0 -23 -15.5 -38.5t-38.5 -15.5q-22 0 -38 15.5t-16 41.5q0 52 55 83q56 32 141 32
q75 0 125 -33q56 33 124 33q92 0 148 -50q57 -49 57 -124q0 -23 -5 -38l-16 -16l-248 -10v-133q34 -43 105 -43q86 0 128 45l29 -29q-70 -72 -188 -72q-125 0 -196 56zM318 92v127l-51 -13q-51 -11 -69 -24q-40 -27 -35 -68q0 -63 59 -63q58 0 96 41zM438 337v-67l159 18
q0 60 -24.5 95t-64.5 35q-45 0 -77 -45q7 -15 7 -36zM306 508l-24 25l148 156l78 -78z" />
    <glyph glyph-name="Oslashacute" unicode="&#x1fe;" horiz-adv-x="775" 
d="M163 69l-62 -69h-54l87 97q-87 96 -87 253q0 165 94 260q94 97 247 97q135 0 224 -76l62 69h54l-87 -97q87 -96 87 -253q0 -164 -94 -261q-94 -96 -246 -96q-136 0 -225 76zM191 350q0 -97 22 -164l332 370q-53 104 -157 104q-92 0 -144.5 -80t-52.5 -230zM584 350
q0 93 -23 164l-331 -370q53 -104 158 -104q91 0 143.5 81t52.5 229zM319 748l-25 25l149 156l77 -78z" />
    <glyph glyph-name="oslashacute" unicode="&#x1ff;" 
d="M128 39l-36 -39h-53l60 64q-60 63 -60 166q0 108 66 171q65 64 174 64q88 0 150 -44l36 39h54l-60 -65q60 -63 60 -165q0 -108 -66 -172q-66 -63 -174 -63q-89 0 -151 44zM386 230q0 41 -7 79l-187 -202q29 -65 87 -65q49 0 78 49t29 139zM172 230q0 -50 7 -79l186 201
q-29 66 -86 66q-50 0 -78.5 -48.5t-28.5 -139.5zM210 508l-24 25l148 156l78 -78z" />
    <glyph glyph-name="Scommaaccent" unicode="&#x218;" horiz-adv-x="592" 
d="M75 8l-15 16l-16 149h47q14 -66 63 -100t116 -34t108 34t41 101q0 48 -31 70q-35 25 -128 55l-45 15q-53 18 -82 37q-46 32 -61 61q-23 46 -23 98q0 93 59 145t178 52q93 0 172 -38l26 22l16 -16l16 -148h-48q-14 68 -56.5 101t-100.5 33q-61 0 -98 -34.5t-37 -91.5
q0 -48 29 -69q29 -20 115 -49q38 -13 52 -19q25 -9 46 -19q32 -13 44 -22q48 -33 62 -61q22 -44 22 -98q0 -98 -65 -151.5t-198 -53.5q-103 0 -181 38zM259 -250l-17 16q15 16 28.5 38t13.5 33q0 4 -2 6q-21 0 -35.5 13.5t-14.5 34.5q-3 33 31 45t57 -11q15 -15 13 -42
q0 -56 -74 -133z" />
    <glyph glyph-name="scommaaccent" unicode="&#x219;" horiz-adv-x="444" 
d="M56 4l-13 13v115h47q26 -90 111 -90q41 0 66 18t25 54q0 28 -20 40t-76 27l-47 13q-13 4 -40 17q-25 12 -37 25q-31 35 -31 89q0 139 176 139q73 0 131 -27l16 16l13 -13v-112h-47q-24 90 -97 90q-36 0 -58 -19t-22 -49q0 -26 17 -38t69 -27l50 -16q17 -5 42 -18
q27 -13 39 -27q34 -38 34 -90q0 -139 -199 -139q-76 0 -133 25zM181 -250l-16 16q15 16 28 38t13 33q0 4 -2 6q-21 0 -35 13.5t-14 34.5q0 22 14 35.5t36 13.5t36 -14.5t14 -42.5q0 -59 -74 -133z" />
    <glyph glyph-name="uni021A" unicode="&#x21a;" horiz-adv-x="676" 
d="M601 558l-42 96h-152v-595l65 -24v-35h-267v38l65 29v587h-153l-41 -102h-47l13 148h593l13 -142h-47zM314 -250l-17 16q15 16 28.5 38t13.5 33q0 4 -2 6q-21 0 -35.5 13.5t-14.5 34.5q-3 33 31 45t57 -11q15 -15 13 -42q0 -56 -74 -133z" />
    <glyph glyph-name="uni021B" unicode="&#x21b;" horiz-adv-x="397" 
d="M89 414h-60v24q105 42 175 136l16 -16v-98h130v-46h-130v-280q0 -85 71 -85q37 0 58 21l23 -23q-52 -52 -134 -52q-68 0 -108.5 38t-40.5 101v280zM194 -250l-17 16q15 15 28.5 37.5t13.5 33.5q0 4 -2 6q-21 0 -35 13.5t-14 34.5q0 22 14 35.5t35 13.5q23 0 37 -14.5
t14 -42.5q0 -56 -74 -133z" />
    <glyph glyph-name="dotlessj" unicode="&#x237;" horiz-adv-x="309" 
d="M89 0v380l-52 22v42l167 24l16 -16v-452q0 -78 -45.5 -145.5t-128.5 -112.5l-28 29q34 37 52.5 99t18.5 130z" />
    <glyph glyph-name="circumflex" unicode="&#x2c6;" horiz-adv-x="376" 
d="M35 533l145 156h15l146 -156l-25 -25l-128 79l-129 -79z" />
    <glyph glyph-name="caron" unicode="&#x2c7;" horiz-adv-x="376" 
d="M341 665l-146 -157h-15l-145 157l24 24l129 -79l128 79z" />
    <glyph glyph-name="breve" unicode="&#x2d8;" horiz-adv-x="453" 
d="M282 629q0 22 16 38t38 16t38 -15.5t16 -41.5q0 -44 -48 -73q-48 -27 -116 -27t-117 27q-48 29 -48 73q0 26 16 41.5t39 15.5q22 0 37.5 -16t15.5 -38q0 -21 6 -34.5t16 -18.5t17.5 -6.5t17.5 -1.5t17.5 1.5t17.5 6.5t15.5 18.5t5.5 34.5z" />
    <glyph glyph-name="dotaccent" unicode="&#x2d9;" horiz-adv-x="296" 
d="M95 554q-21 21 -21 53t21 52t53 20t52 -20t20 -52t-20 -53q-20 -20 -52 -20t-53 20z" />
    <glyph glyph-name="ring" unicode="&#x2da;" horiz-adv-x="245" 
d="M36 585q0 38 23.5 60.5t62.5 22.5t63 -22.5t24 -60.5q0 -39 -24 -61t-63 -22t-62.5 22t-23.5 61zM94 622q-10 -14 -10 -37t10 -37q11 -14 28 -14t27 14q11 14 11 37t-11 37q-10 14 -27 14t-28 -14z" />
    <glyph glyph-name="ogonek" unicode="&#x2db;" horiz-adv-x="185" 
d="M155 -167l14 -14q-48 -48 -99 -48q-63 0 -63 64q0 76 77 165h35q-24 -35 -39.5 -77.5t-15.5 -71.5q0 -39 35 -39q33 0 56 21z" />
    <glyph glyph-name="tilde" unicode="&#x2dc;" horiz-adv-x="432" 
d="M61 532l-23 22q96 96 137 96q23 0 56 -24t58 -24q39 0 85 46l23 -23q-98 -97 -141 -97q-22 0 -55 24q-32 24 -58 24q-38 0 -82 -44z" />
    <glyph glyph-name="hungarumlaut" unicode="&#x2dd;" horiz-adv-x="468" 
d="M59 508l-24 25l131 156l77 -78zM249 508l-25 25l131 156l78 -78z" />
    <glyph glyph-name="uni0400" unicode="&#x400;" horiz-adv-x="632" 
d="M231 335v-289h269l42 96h47l-13 -142h-547v32l65 19v598l-65 19v32h537l13 -142h-47l-42 96h-259v-272h197l21 73h43v-193h-43l-21 73h-197zM183 851l78 78l148 -156l-24 -25z" />
    <glyph glyph-name="afii10023" unicode="&#x401;" horiz-adv-x="632" 
d="M231 335v-289h269l42 96h47l-13 -142h-547v32l65 19v598l-65 19v32h537l13 -142h-47l-42 96h-259v-272h197l21 73h43v-193h-43l-21 73h-197zM205 888q30 0 48.5 -19t18.5 -48t-18.5 -48t-48.5 -19q-29 0 -48 19t-19 48t19 48t48 19zM427 888q30 0 48.5 -19t18.5 -48
t-18.5 -48t-48.5 -19q-29 0 -48 19t-19 48t19 48t48 19z" />
    <glyph glyph-name="afii10051" unicode="&#x402;" horiz-adv-x="807" 
d="M627 68v170q0 124 -95 124q-31 0 -66.5 -12.5t-58.5 -33.5v-257l65 -24v-35h-267v38l65 29v587h-153l-41 -102h-47l13 148h593l13 -142h-47l-42 96h-152v-248l-3 -42l3 -5q35 28 91 43q54 16 103 16q79 0 121 -47t42 -126v-177q0 -118 -58 -185q-57 -67 -146 -67
q-50 0 -74.5 20t-24.5 52q0 27 16 43t40 16q22 0 38.5 -15.5t16.5 -39.5v-29q30 0 42.5 47t12.5 158z" />
    <glyph glyph-name="afii10052" unicode="&#x403;" horiz-adv-x="585" 
d="M229 748l-25 25l148 156l78 -78zM462 654h-231v-590l95 -29v-35h-297v38l65 29v582l-65 19v32h509l13 -142h-47z" />
    <glyph glyph-name="afii10053" unicode="&#x404;" horiz-adv-x="707" 
d="M633 132l29 -30q-106 -109 -269 -109q-158 0 -253 95q-93 96 -93 259q0 164 95 262t253 98q106 0 189 -44l42 18l16 -16l16 -144h-47q-20 54 -56 84q-58 52 -145 52q-207 0 -219 -278h321v-46h-321q4 -133 64 -206t177 -73q124 0 201 78z" />
    <glyph glyph-name="afii10054" unicode="&#x405;" horiz-adv-x="592" 
d="M75 8l-15 16l-16 149h47q14 -66 63 -100t116 -34t108 34t41 101q0 48 -31 70q-35 25 -128 55l-45 15q-53 18 -82 37q-46 32 -61 61q-23 46 -23 98q0 93 59 145t178 52q93 0 172 -38l26 22l16 -16l16 -148h-48q-14 68 -56.5 101t-100.5 33q-61 0 -98 -34.5t-37 -91.5
q0 -48 29 -69q29 -20 115 -49q38 -13 52 -19q25 -9 46 -19q32 -13 44 -22q48 -33 62 -61q22 -44 22 -98q0 -98 -65 -151.5t-198 -53.5q-103 0 -181 38z" />
    <glyph glyph-name="afii10055" unicode="&#x406;" horiz-adv-x="325" 
d="M295 665l-65 -27v-579l65 -24v-35h-265v38l65 29v574l-65 24v35h265v-35z" />
    <glyph glyph-name="afii10056" unicode="&#x407;" horiz-adv-x="325" 
d="M295 665l-65 -27v-579l65 -24v-35h-265v38l65 29v574l-65 24v35h265v-35zM-2 834q0 29 19 48t48 19q30 0 48.5 -19t18.5 -48q0 -30 -18.5 -49t-48.5 -19q-29 0 -48 19t-19 49zM193 834q0 29 19 48t48 19q30 0 48.5 -19t18.5 -48q0 -30 -18.5 -49t-48.5 -19q-29 0 -48 19
t-19 49z" />
    <glyph glyph-name="afii10057" unicode="&#x408;" horiz-adv-x="325" 
d="M96 0v641l-65 24v35h263v-35l-65 -27v-638q0 -78 -46.5 -145.5t-131.5 -112.5l-28 29q36 37 54 102q19 61 19 127z" />
    <glyph glyph-name="afii10058" unicode="&#x409;" horiz-adv-x="1070" 
d="M187 173l53 476l-65 19v32h537v-32l-65 -22v-252h112q117 0 191 -54q74 -53 74 -143t-74 -144q-74 -53 -191 -53h-314v32l65 19v603h-221l-51 -476q-10 -106 -42 -145q-32 -38 -77 -38q-39 0 -64 19t-25 54q0 27 14.5 43.5t40.5 16.5q24 0 39 -13.5t15 -35.5v-19
q4 -2 7 -2q29 0 41 115zM647 348v-302h96q64 0 100 38.5t36 112.5t-36 112.5t-100 38.5h-96z" />
    <glyph glyph-name="afii10059" unicode="&#x40a;" horiz-adv-x="1099" 
d="M29 0v38l65 29v574l-65 24v35h267v-35l-65 -27v-251h307v254l-65 24v35h267v-35l-65 -27v-251h112q119 0 192 -52t73 -142q0 -88 -74 -141q-73 -52 -191 -52h-314v32l65 19v289h-307v-281l65 -24v-35h-267zM675 340v-294h96q64 0 100 37.5t36 109.5q0 73 -36 110t-100 37
h-96z" />
    <glyph glyph-name="afii10060" unicode="&#x40b;" horiz-adv-x="859" 
d="M407 316v-257l65 -24v-35h-267v38l65 29v587h-153l-41 -102h-47l13 148h593l13 -142h-47l-42 96h-152v-248l-3 -42l3 -5q35 28 91 43q54 16 103 16q78 0 120.5 -46t42.5 -120v-193l65 -24v-35h-268v38l66 29v176q0 57 -25.5 88t-70.5 31q-31 0 -66 -12.5t-58 -33.5z" />
    <glyph glyph-name="afii10061" unicode="&#x40c;" horiz-adv-x="730" 
d="M698 71l13 -15q-32 -35 -59 -49t-70 -14q-55 0 -87.5 27.5t-49.5 89.5l-33 130q-14 55 -48.5 77.5t-99.5 22.5h-35v-281l65 -24v-35h-267v38l65 29v574l-65 24v35h267v-35l-65 -27v-254q71 0 106.5 24t51.5 79l31 100q19 61 52 90.5t85 29.5q45 0 71 -20.5t26 -56.5
q0 -28 -15 -46t-42 -18q-25 0 -42 15.5t-17 40.5v19q-3 3 -9 3q-45 0 -69 -86l-27 -91q-18 -63 -57 -91q80 -7 121.5 -35.5t55.5 -85.5l33 -128q11 -42 25.5 -58.5t38.5 -16.5q31 0 50 19zM297 748l-24 25l148 156l78 -78z" />
    <glyph glyph-name="uni040D" unicode="&#x40d;" horiz-adv-x="771" 
d="M252 851l78 78l148 -156l-24 -25zM29 0v38l65 29v574l-65 24v35h267v-35l-65 -27v-467l309 450v20l-65 24v35h267v-35l-65 -27v-579l65 -24v-35h-267v38l65 29v462l-309 -450v-20l65 -24v-35h-267z" />
    <glyph glyph-name="afii10062" unicode="&#x40e;" horiz-adv-x="704" 
d="M414 811v45q0 22 16 38t39 16q22 0 37.5 -15.5t15.5 -41.5q0 -45 -48 -72t-116 -27t-116 27q-48 29 -48 73q0 26 15.5 41t38.5 15q22 0 38 -16t16 -38v-45q22 -15 56 -15t56 15zM328 204l-251 440l-64 21v35h268v-35l-63 -21l177 -321l179 321l-81 21v35h198v-35l-62 -21
l-228 -404q-89 -156 -127 -200q-41 -47 -97 -47q-44 0 -72 21.5t-28 60.5q0 29 17.5 46t42.5 17q27 0 43.5 -17t16.5 -42v-31q2 -2 8 -2q35 0 123 158z" />
    <glyph glyph-name="afii10145" unicode="&#x40f;" horiz-adv-x="759" 
d="M355 -138l-16 138h-310v32l65 19v590l-65 24v35h267v-35l-65 -27v-592h298v595l-65 24v35h267v-35l-65 -27v-587l65 -19v-32h-311l-16 -138h-49z" />
    <glyph glyph-name="afii10017" unicode="&#x410;" horiz-adv-x="771" 
d="M355 700h62l281 -641l65 -24v-35h-266v35l63 24l-69 162h-298l-71 -162l82 -24v-35h-196v35l63 24zM471 267l-128 298l-130 -298h258z" />
    <glyph glyph-name="afii10018" unicode="&#x411;" horiz-adv-x="667" 
d="M480 654h-249v-255h124q119 0 192 -54q73 -52 73 -145q0 -92 -73 -146t-192 -54h-326v32l65 19v598l-65 19v32h526l13 -142h-47zM231 353v-307h109q64 0 100 39t36 115t-36 114.5t-100 38.5h-109z" />
    <glyph glyph-name="afii10019" unicode="&#x412;" horiz-adv-x="676" 
d="M29 668v32h320q113 0 182 -48q70 -46 70 -129q0 -60 -37.5 -102.5t-103.5 -60.5q80 -19 124.5 -64t44.5 -110q0 -85 -78 -136q-77 -50 -202 -50h-320v32l65 19v598zM231 335v-289h102q71 0 111 37t40 108t-40 107.5t-111 36.5h-102zM333 654h-102v-272h102q58 0 91 34
t33 101q0 68 -33 102.5t-91 34.5z" />
    <glyph glyph-name="afii10020" unicode="&#x413;" horiz-adv-x="585" 
d="M462 654h-231v-590l95 -29v-35h-297v38l65 29v582l-65 19v32h509l13 -142h-47z" />
    <glyph glyph-name="afii10021" unicode="&#x414;" horiz-adv-x="760" 
d="M678 -138l-31 138h-536l-32 -138h-49v184h88q33 23 43 127l53 476l-65 19v32h567v-32l-65 -22v-600h77v-184h-50zM514 654h-243l-52 -476q-7 -86 -35 -132h330v608z" />
    <glyph glyph-name="afii10022" unicode="&#x415;" horiz-adv-x="632" 
d="M231 335v-289h269l42 96h47l-13 -142h-547v32l65 19v598l-65 19v32h537l13 -142h-47l-42 96h-259v-272h197l21 73h43v-193h-43l-21 73h-197z" />
    <glyph glyph-name="afii10024" unicode="&#x416;" horiz-adv-x="1087" 
d="M185 641v-19q0 -26 -17 -41t-42 -15q-27 0 -42 18t-15 46q0 36 26.5 56.5t69.5 20.5q48 0 78 -28t52 -92l35 -98q21 -58 51.5 -81.5t93.5 -23.5v257l-65 24v35h267v-35l-65 -27v-254q67 0 96 25q30 25 49 80l36 98q22 64 52 92t78 28q43 0 69 -20.5t26 -56.5
q0 -28 -14.5 -46t-41.5 -18q-25 0 -42 15t-17 41v19q-5 3 -9 3q-33 0 -65 -86l-32 -89q-22 -64 -56 -92q81 -6 120 -32t56 -85l37 -133q12 -44 24.5 -59.5t34.5 -15.5q28 0 47 19l14 -15q-32 -35 -57 -49t-66 -14q-52 0 -81.5 26.5t-46.5 90.5l-37 136q-15 53 -46 73.5
t-93 20.5h-35v-281l65 -24v-35h-267v38l65 29v273h-34q-62 0 -93.5 -20t-46.5 -74l-37 -136q-17 -64 -46.5 -90.5t-81.5 -26.5q-40 0 -65.5 14t-57.5 49l14 15q19 -19 47 -19q22 0 35 16t25 59l36 133q16 58 55.5 84.5t120.5 32.5q-34 28 -56 92l-32 89q-30 86 -64 86
q-6 0 -9 -3z" />
    <glyph glyph-name="afii10025" unicode="&#x417;" horiz-adv-x="635" 
d="M103 525h-47l16 145l16 15l41 -18q79 40 179 40q112 0 183 -50q70 -49 70 -133q0 -61 -38 -103.5t-103 -60.5q80 -19 124.5 -64.5t44.5 -110.5q0 -87 -78 -140q-77 -52 -203 -52q-105 0 -185 40l-42 -18l-15 15l-16 145h47q43 -132 187 -132q76 0 118 38.5t42 112.5
q0 141 -167 141q-52 0 -95 -4v55q41 -4 90 -4q76 0 110.5 30.5t34.5 99.5q0 145 -134 145q-33 0 -68 -11q-35 -10 -66.5 -42.5t-45.5 -78.5z" />
    <glyph glyph-name="afii10026" unicode="&#x418;" horiz-adv-x="771" 
d="M29 0v38l65 29v574l-65 24v35h267v-35l-65 -27v-467l309 450v20l-65 24v35h267v-35l-65 -27v-579l65 -24v-35h-267v38l65 29v462l-309 -450v-20l65 -24v-35h-267z" />
    <glyph glyph-name="afii10027" unicode="&#x419;" horiz-adv-x="771" 
d="M442 811v45q0 22 16 38t38 16t38 -15.5t16 -41.5q0 -45 -49 -72q-48 -27 -116 -27t-116 27q-48 29 -48 73q0 26 16 41t38 15q23 0 38.5 -16t15.5 -38v-45q22 -15 56 -15q35 0 57 15zM29 0v38l65 29v574l-65 24v35h267v-35l-65 -27v-467l309 450v20l-65 24v35h267v-35
l-65 -27v-579l65 -24v-35h-267v38l65 29v462l-309 -450v-20l65 -24v-35h-267z" />
    <glyph glyph-name="afii10028" unicode="&#x41a;" horiz-adv-x="727" 
d="M698 71l13 -15q-32 -35 -59 -49t-70 -14q-55 0 -87.5 27.5t-49.5 89.5l-33 130q-14 55 -48.5 77.5t-99.5 22.5h-35v-281l65 -24v-35h-267v38l65 29v574l-65 24v35h267v-35l-65 -27v-254q71 0 106.5 24t51.5 79l31 100q19 61 52 90.5t85 29.5q45 0 71 -20.5t26 -56.5
q0 -28 -15 -46t-42 -18q-25 0 -42 15.5t-17 40.5v19q-3 3 -9 3q-45 0 -69 -86l-27 -91q-18 -63 -57 -91q80 -7 121.5 -35.5t55.5 -85.5l33 -128q11 -42 25.5 -58.5t38.5 -16.5q31 0 50 19z" />
    <glyph glyph-name="afii10029" unicode="&#x41b;" horiz-adv-x="759" 
d="M187 173l53 476l-65 19v32h555v-32l-65 -22v-587l65 -24v-35h-267v38l65 29v587h-231l-51 -476q-18 -183 -127 -183q-39 0 -64 19t-25 54q0 27 14.5 43.5t40.5 16.5q24 0 39 -13.5t15 -35.5v-19q4 -2 7 -2q29 0 41 115z" />
    <glyph glyph-name="afii10030" unicode="&#x41c;" horiz-adv-x="955" 
d="M893 665l-65 -27l44 -579l65 -24v-35h-266v38l65 29l-35 471l-236 -538h-62l-237 538l-37 -494l65 -23v-21h-176v24l65 28l44 589l-65 24v35h172l243 -565l246 565h170v-35z" />
    <glyph glyph-name="afii10031" unicode="&#x41d;" horiz-adv-x="784" 
d="M29 0v38l65 29v574l-65 24v35h267v-35l-65 -27v-261h323v264l-65 24v35h267v-35l-65 -27v-579l65 -24v-35h-267v38l65 29v263h-323v-271l65 -24v-35h-267z" />
    <glyph glyph-name="afii10032" unicode="&#x41e;" horiz-adv-x="775" 
d="M388 707q152 0 246 -97q94 -95 94 -260q0 -164 -94 -261q-94 -96 -246 -96t-247 96q-94 97 -94 261q0 165 94 260q94 97 247 97zM191 350q0 -148 53 -229t144 -81t143.5 81t52.5 229q0 150 -52.5 230t-143.5 80q-92 0 -144.5 -80t-52.5 -230z" />
    <glyph glyph-name="afii10033" unicode="&#x41f;" horiz-adv-x="760" 
d="M29 0v38l65 29v582l-65 19v32h702v-32l-65 -22v-587l65 -24v-35h-267v38l65 29v587h-298v-595l65 -24v-35h-267z" />
    <glyph glyph-name="afii10034" unicode="&#x420;" horiz-adv-x="644" 
d="M312 654h-81v-590l95 -29v-35h-297v38l65 29v582l-65 19v32h299q117 0 191 -56t74 -149q0 -94 -74 -150q-73 -55 -191 -55h-49l-16 16v31h49q64 0 100 40.5t36 117.5q0 79 -36 119t-100 40z" />
    <glyph glyph-name="afii10035" unicode="&#x421;" horiz-adv-x="707" 
d="M633 132l29 -30q-106 -109 -269 -109q-158 0 -253 95q-93 96 -93 259q0 164 95 262t253 98q107 0 187 -44l44 20l16 -16l16 -146h-47q-52 136 -196 136q-109 0 -166.5 -76t-57.5 -227q0 -137 58 -219q59 -81 183 -81t201 78z" />
    <glyph glyph-name="afii10036" unicode="&#x422;" horiz-adv-x="676" 
d="M601 558l-42 96h-152v-595l65 -24v-35h-267v38l65 29v587h-153l-41 -102h-47l13 148h593l13 -142h-47z" />
    <glyph glyph-name="afii10037" unicode="&#x423;" horiz-adv-x="704" 
d="M328 204l-251 440l-64 21v35h268v-35l-63 -21l177 -321l179 321l-81 21v35h198v-35l-62 -21l-228 -404q-89 -156 -127 -200q-41 -47 -97 -47q-44 0 -72 21.5t-28 60.5q0 29 17.5 46t42.5 17q27 0 43.5 -17t16.5 -42v-31q2 -2 8 -2q35 0 123 158z" />
    <glyph glyph-name="afii10038" unicode="&#x424;" horiz-adv-x="906" 
d="M587 665l-65 -27v-30q153 0 245 -68t92 -188t-92 -188q-91 -67 -245 -67v-38l65 -24v-35h-267v38l65 29v30q-154 0 -246 68t-92 188q0 119 92 187t246 68v33l-65 24v35h267v-35zM385 142v421q-92 0 -143 -53.5t-51 -157.5q0 -103 51 -156.5t143 -53.5zM522 563v-421
q90 0 141.5 54t51.5 156q0 104 -51 157.5t-142 53.5z" />
    <glyph glyph-name="afii10039" unicode="&#x425;" horiz-adv-x="744" 
d="M453 35l64 21l-185 251l-192 -251l74 -21v-35h-198v35l67 21l224 286l-221 302l-62 21v35h276v-35l-64 -21l171 -235l179 235l-74 21v35h199v-35l-68 -21l-211 -269l234 -319l62 -21v-35h-275v35z" />
    <glyph glyph-name="afii10040" unicode="&#x426;" horiz-adv-x="766" 
d="M691 -138l-32 138h-630v32l65 19v590l-65 24v35h267v-35l-65 -27v-592h296v595l-65 24v35h266v-35l-65 -27v-592h78v-184h-50z" />
    <glyph glyph-name="afii10041" unicode="&#x427;" horiz-adv-x="734" 
d="M295 665l-64 -27v-177q0 -125 114 -125q33 0 82 11q48 11 76 30v264l-65 24v35h267v-35l-65 -27v-579l65 -24v-35h-267v38l65 29v265q-38 -23 -103 -38q-67 -14 -116 -14q-93 0 -141.5 48.5t-48.5 130.5v182l-65 24v35h266v-35z" />
    <glyph glyph-name="afii10042" unicode="&#x428;" horiz-adv-x="1097" 
d="M29 0v32l65 19v590l-65 24v35h267v-35l-65 -27v-592h249v595l-65 24v35h267v-35l-65 -27v-592h250v595l-65 24v35h267v-35l-65 -27v-587l65 -19v-32h-1040z" />
    <glyph glyph-name="afii10043" unicode="&#x429;" horiz-adv-x="1106" 
d="M1031 -138l-32 138h-970v32l65 19v590l-65 24v35h267v-35l-65 -27v-592h249v595l-65 24v35h267v-35l-65 -27v-592h250v595l-65 24v35h267v-35l-65 -27v-592h77v-184h-50z" />
    <glyph glyph-name="afii10044" unicode="&#x42a;" horiz-adv-x="808" 
d="M449 668l-65 -22v-252h112q118 0 192 -53q73 -52 73 -144t-73 -144q-74 -53 -192 -53h-314v32l65 19v603h-130l-41 -102h-47l13 148h407v-32zM384 348v-302h96q64 0 100 38.5t36 112.5t-36 112.5t-100 38.5h-96z" />
    <glyph glyph-name="afii10045" unicode="&#x42b;" horiz-adv-x="937" 
d="M296 665l-65 -27v-244h112q118 0 191 -54q74 -53 74 -143t-74 -144q-74 -53 -191 -53h-314v32l65 19v590l-65 24v35h267v-35zM231 348v-302h96q64 0 100 38.5t36 112.5t-36 112.5t-100 38.5h-96zM908 665l-65 -27v-579l65 -24v-35h-267v38l65 29v574l-65 24v35h267v-35z
" />
    <glyph glyph-name="afii10046" unicode="&#x42c;" horiz-adv-x="654" 
d="M296 665l-65 -27v-244h112q118 0 191 -54q74 -53 74 -143t-74 -144q-74 -53 -191 -53h-314v32l65 19v590l-65 24v35h267v-35zM231 348v-302h96q64 0 100 38.5t36 112.5t-36 112.5t-100 38.5h-96z" />
    <glyph glyph-name="afii10047" unicode="&#x42d;" horiz-adv-x="707" 
d="M524 333h-307v46h307q-5 138 -60.5 208t-156.5 70q-41 0 -74 -10q-39 -11 -75 -44t-53 -82h-47l16 144l15 16l42 -18q83 44 189 44q159 0 253 -97q96 -98 96 -261q0 -164 -96 -260t-256 -96q-109 0 -192 44l-42 -18l-16 16l-16 144h47q26 -70 80.5 -103t124.5 -33
q213 0 221 290z" />
    <glyph glyph-name="afii10048" unicode="&#x42e;" horiz-adv-x="1042" 
d="M29 0v38l65 29v574l-65 24v35h267v-35l-65 -27v-261h131q8 153 94 241q87 89 222 89q142 0 229 -97q88 -95 88 -260q0 -164 -88 -261q-87 -96 -229 -96q-137 0 -224 91q-86 92 -92 246h-131v-271l65 -24v-35h-267zM506 350q0 -148 46.5 -229t126.5 -81q79 0 125 81
t46 229q0 149 -46 229.5t-125 80.5q-80 0 -126.5 -80t-46.5 -230z" />
    <glyph glyph-name="afii10049" unicode="&#x42f;" horiz-adv-x="696" 
d="M14 56l14 15q16 -19 48 -19q18 0 30 14.5t26 53.5l44 124q23 67 78 89q-77 19 -120 66t-43 113q0 86 70 137q71 51 184 51h322v-32l-65 -22v-587l65 -24v-35h-267v38l65 29v250h-33q-51 0 -79.5 -20.5t-45.5 -70.5l-40 -126q-19 -59 -48 -83t-78 -24q-42 0 -68.5 14
t-58.5 49zM465 364v290h-95q-64 0 -99.5 -37.5t-35.5 -108.5t35.5 -107.5t99.5 -36.5h95z" />
    <glyph glyph-name="afii10065" unicode="&#x430;" horiz-adv-x="539" 
d="M322 47l-3 4q-66 -56 -163 -56q-113 0 -113 106q0 64 52 95q44 27 197 61l28 7v78q0 35 -21.5 55.5t-59.5 20.5q-35 0 -73 -20v-51q0 -23 -16 -38.5t-38 -15.5t-38 15.5t-16 41.5q0 52 55 83q56 32 141 32q90 0 143.5 -35.5t53.5 -92.5v-269q0 -22 18 -22q15 0 27 12
l14 -15q-47 -46 -124 -46q-59 0 -64 50zM320 92v127q-43 -10 -51 -13q-50 -10 -70 -24q-40 -27 -35 -68q0 -63 59 -63q58 0 97 41z" />
    <glyph glyph-name="afii10066" unicode="&#x431;" horiz-adv-x="567" 
d="M145 407h4q48 58 145 58q109 0 172 -63t63 -172t-64.5 -172t-176.5 -63q-117 0 -176 75t-59 237q0 108 27 186t68 118q40 41 93 66q56 27 97 34q120 24 143 47l16 -16q-9 -37 -25.5 -62t-40.5 -39t-45 -20.5t-53 -11.5q-29 -4 -40.5 -6t-36.5 -8.5t-36.5 -14t-29 -22.5
t-25 -35t-14 -49.5t-6.5 -66.5zM186 230q0 -91 28 -139.5t77 -48.5t77 48.5t28 139.5t-28 139.5t-77 48.5t-77 -48.5t-28 -139.5z" />
    <glyph glyph-name="afii10067" unicode="&#x432;" horiz-adv-x="547" 
d="M29 426v34h291q79 0 127.5 -31.5t48.5 -85.5q0 -76 -88 -104q107 -29 107 -114q0 -57 -53.5 -91t-141.5 -34h-291v34l60 22v348zM294 215h-74v-169h74q41 0 65 22.5t24 62.5t-24 62t-65 22zM220 414v-152h74q31 0 50 20t19 56t-19 56t-50 20h-74z" />
    <glyph glyph-name="afii10068" unicode="&#x433;" horiz-adv-x="471" 
d="M392 328l-28 86h-144v-354l93 -25v-35h-284v38l60 26v348l-60 16v32h410v-132h-47z" />
    <glyph glyph-name="afii10069" unicode="&#x434;" horiz-adv-x="582" 
d="M505 -123l-31 123h-365l-32 -123h-47v169h69q32 27 42 127l27 239l-60 16v32h442v-32l-60 -19v-363h62v-169h-47zM359 414h-141l-27 -236q-8 -87 -35 -132h203v368z" />
    <glyph glyph-name="afii10070" unicode="&#x435;" horiz-adv-x="523" 
d="M474 253l-16 -16h-287q1 -98 36 -142t108 -44q85 0 128 45l29 -29q-70 -72 -191 -72q-112 0 -177 64q-66 65 -66 171q0 109 67 172t169 63q91 0 147 -50q57 -49 57 -124q0 -25 -4 -38zM280 418q-43 0 -74 -40q-31 -41 -35 -99l198 9q0 60 -24.5 95t-64.5 35z" />
    <glyph glyph-name="afii10072" unicode="&#x436;" horiz-adv-x="865" 
d="M704 381v18q-4 2 -9 2q-19 0 -39 -48l-21 -51q-16 -33 -24 -44q59 -5 89.5 -23.5t42.5 -58.5l27 -93q6 -22 13.5 -30t20.5 -8q19 0 30 11l14 -14q-39 -47 -107 -47q-80 0 -101 78l-23 87q-9 31 -33 42.5t-68 11.5h-18v-158l60 -21v-35h-251v38l60 26v150h-19
q-44 0 -67.5 -11.5t-32.5 -42.5l-24 -87q-21 -78 -101 -78q-67 0 -106 47l14 14q11 -11 30 -11q13 0 20.5 8t13.5 30l27 93q12 39 43 58t88 24q-14 19 -23 44l-21 51q-21 48 -40 48q-4 0 -8 -2v-18q0 -20 -15 -32.5t-36 -12.5q-24 0 -38.5 16t-14.5 43q0 33 23 50.5t63 17.5
q37 0 61 -18.5t42 -60.5l26 -64q13 -32 33.5 -45t61.5 -13v142l-60 21v35h251v-35l-60 -24v-139q40 0 60.5 13.5t33.5 44.5l27 64q18 42 42 60.5t62 18.5q39 0 62 -17.5t23 -50.5q0 -27 -14.5 -43t-38.5 -16q-21 0 -36 12.5t-15 32.5z" />
    <glyph glyph-name="afii10073" unicode="&#x437;" horiz-adv-x="477" 
d="M165 213v54q33 -4 53 -4q77 0 77 77q0 78 -75 78q-40 0 -70 -24.5t-39 -73.5h-47v121l13 13l17 -17q60 28 135 28q90 0 144.5 -32.5t54.5 -88.5q0 -74 -89 -103q51 -14 79 -44t28 -71q0 -59 -58.5 -95t-152.5 -36q-86 0 -138.5 27.5t-52.5 74.5q0 25 15 39.5t36 14.5
q22 0 37 -15.5t15 -36.5v-39q29 -18 75 -18q91 0 91 88q0 42 -24 64.5t-69 22.5q-22 0 -55 -4z" />
    <glyph glyph-name="afii10074" unicode="&#x438;" horiz-adv-x="627" 
d="M29 0v38l60 26v340l-60 21v35h245v-35l-54 -21v-216l-3 -44l3 -3l186 248v15l-54 21v35h246v-35l-60 -24v-345l60 -21v-35h-246v35l54 26v211l3 44l-3 3l-186 -248v-15l54 -21v-35h-245z" />
    <glyph glyph-name="afii10075" unicode="&#x439;" horiz-adv-x="627" 
d="M369 583v46q0 22 16.5 38t38.5 16t37.5 -15.5t15.5 -41.5q0 -44 -48 -73q-48 -27 -116 -27t-116 27q-48 29 -48 73q0 26 16 41.5t38 15.5t38 -16t16 -38v-46q26 -15 56 -15q32 0 56 15zM29 0v38l60 26v340l-60 21v35h245v-35l-54 -21v-216l-3 -44l3 -3l186 248v15l-54 21
v35h246v-35l-60 -24v-345l60 -21v-35h-246v35l54 26v211l3 44l-3 3l-186 -248v-15l54 -21v-35h-245z" />
    <glyph glyph-name="afii10076" unicode="&#x43a;" horiz-adv-x="601" 
d="M441 381v18q-4 2 -10 2q-19 0 -41 -48l-23 -51q-15 -31 -25 -44q59 -5 91 -24t44 -58l25 -86q7 -27 14.5 -36t22.5 -9q20 0 31 11l14 -14q-41 -47 -111 -47q-83 0 -102 78l-25 87q-9 31 -34 42.5t-72 11.5h-20v-158l60 -21v-35h-251v38l60 26v340l-60 21v35h251v-35
l-60 -24v-139q43 0 64.5 13.5t36.5 44.5l28 64q20 41 44 60t64 19q41 0 64.5 -17.5t23.5 -50.5q0 -27 -14.5 -43t-38.5 -16q-22 0 -36.5 12.5t-14.5 32.5z" />
    <glyph glyph-name="afii10077" unicode="&#x43b;" horiz-adv-x="601" 
d="M179 173l27 239l-59 16v32h425v-32l-60 -19v-353l60 -21v-35h-242v35l51 26v353h-125l-26 -236q-9 -100 -39.5 -141.5t-79.5 -41.5q-37 0 -60 18t-23 52q0 25 14 41t38 16q22 0 36.5 -12t14.5 -32v-18q4 -2 7 -2q7 -2 14 7t15 37t12 71z" />
    <glyph glyph-name="afii10078" unicode="&#x43c;" horiz-adv-x="714" 
d="M672 425l-60 -24l22 -345l60 -21v-35h-251v38l60 26l-17 257l-141 -321h-57l-143 321l-18 -277l60 -20v-24h-167v27l60 25l22 352l-60 21v35h174l138 -326l145 326h173v-35z" />
    <glyph glyph-name="afii10079" unicode="&#x43d;" horiz-adv-x="624" 
d="M29 0v38l60 26v340l-60 21v35h242v-35l-51 -21v-147h183v147l-51 21v35h242v-35l-60 -24v-345l60 -21v-35h-242v35l51 26v149h-183v-154l51 -21v-35h-242z" />
    <glyph glyph-name="afii10080" unicode="&#x43e;" 
d="M105 58q-66 64 -66 172t66 171q65 64 174 64t174 -64q66 -63 66 -171t-66 -172q-66 -63 -174 -63t-174 63zM172 230q0 -91 28.5 -139.5t78.5 -48.5q49 0 78 49t29 139q0 91 -28.5 139.5t-78.5 48.5t-78.5 -48.5t-28.5 -139.5z" />
    <glyph glyph-name="afii10081" unicode="&#x43f;" horiz-adv-x="624" 
d="M29 0v38l60 26v348l-60 16v32h565v-32l-60 -19v-353l60 -21v-35h-242v35l51 26v353h-183v-358l51 -21v-35h-242z" />
    <glyph glyph-name="afii10082" unicode="&#x440;" horiz-adv-x="588" 
d="M313 -250h-284v38l60 26v566l-52 22v42l167 24l16 -16l-3 -40l3 -3q56 56 148 56q87 0 133 -64q48 -65 48 -165q0 -115 -61.5 -178t-171.5 -63q-54 0 -96 20v-205l93 -25v-35zM220 367v-303q31 -25 82 -25q55 0 85 47.5t30 141.5q0 89 -27 135t-78 46q-58 0 -92 -42z" />
    <glyph glyph-name="afii10083" unicode="&#x441;" horiz-adv-x="521" 
d="M366 343v57q-28 18 -73 18q-121 0 -121 -176q0 -191 146 -191q82 0 126 45l29 -29q-72 -72 -193 -72q-111 0 -176 63t-65 173q0 109 65 171.5t181 62.5q84 0 136.5 -31.5t52.5 -84.5q0 -29 -15.5 -44.5t-37.5 -15.5q-23 0 -39 16t-16 38z" />
    <glyph glyph-name="afii10084" unicode="&#x442;" horiz-adv-x="537" 
d="M458 328l-29 86h-95v-358l60 -21v-35h-251v38l60 26v350h-96l-28 -86h-47v132h473v-132h-47z" />
    <glyph glyph-name="afii10085" unicode="&#x443;" horiz-adv-x="577" 
d="M262 -5l-192 409l-59 21v35h250v-35l-58 -21l125 -269l127 269l-77 21v35h188v-35l-58 -21l-189 -404q-78 -163 -109 -207q-32 -47 -85 -47q-40 0 -65.5 20.5t-25.5 58.5q-3 47 40 59q36 10 62 -13q17 -15 15 -37v-25q4 -2 8 -2q14 0 36 40q21 37 67 148z" />
    <glyph glyph-name="afii10086" unicode="&#x444;" horiz-adv-x="796" 
d="M460 434l3 -3q49 34 116 34q85 0 131 -64q47 -65 47 -164q0 -115 -59.5 -178.5t-164.5 -63.5q-31 0 -70 11v-200l60 -21v-35h-251v38l60 26v186l3 26l-3 3q-47 -34 -117 -34q-85 0 -131 63q-45 64 -45 165q0 114 60 178t163 64q31 0 70 -11v215l-52 23v42l168 23l15 -15
v-282zM271 51q35 0 61 18v338q-24 11 -53 11q-107 0 -107 -188q0 -179 99 -179zM525 409q-36 0 -62 -19v-340q27 -11 54 -11q107 0 107 190q0 180 -99 180z" />
    <glyph glyph-name="afii10087" unicode="&#x445;" horiz-adv-x="574" 
d="M300 35l58 21l-107 131l-110 -131l70 -21v-35h-189v35l62 21l140 165l-149 183l-50 21v35h252v-35l-58 -21l101 -125l106 125l-70 21v35h189v-35l-61 -21l-137 -158l154 -190l50 -21v-35h-251v35z" />
    <glyph glyph-name="afii10088" unicode="&#x446;" horiz-adv-x="622" 
d="M545 -123l-31 123h-485v34l60 22v348l-60 21v35h242v-35l-51 -24v-355h179v358l-51 21v35h242v-35l-60 -24v-355h62v-169h-47z" />
    <glyph glyph-name="afii10089" unicode="&#x447;" horiz-adv-x="610" 
d="M267 425l-47 -21v-96q0 -42 18 -64.5t51 -22.5q26 0 54.5 11t45.5 30v142l-47 21v35h238v-35l-60 -24v-345l60 -21v-35h-242v35l51 26v156q-29 -25 -75 -38q-48 -14 -88 -14q-66 0 -101.5 39t-35.5 102v98l-60 21v35h238v-35z" />
    <glyph glyph-name="afii10090" unicode="&#x448;" horiz-adv-x="880" 
d="M374 46v358l-48 21v35h228v-35l-49 -24v-355h155v358l-49 21v35h240v-35l-60 -24v-353l60 -16v-32h-822v34l60 22v348l-60 21v35h239v-35l-48 -24v-355h154z" />
    <glyph glyph-name="afii10091" unicode="&#x449;" horiz-adv-x="883" 
d="M806 -123l-32 123h-745v34l60 22v348l-60 21v35h239v-35l-48 -24v-355h154v358l-48 21v35h228v-35l-49 -24v-355h155v358l-49 21v35h240v-35l-60 -24v-355h62v-169h-47z" />
    <glyph glyph-name="afii10092" unicode="&#x44a;" horiz-adv-x="630" 
d="M31 460h349v-35l-60 -24v-127h90q85 0 136.5 -37t51.5 -100t-51.5 -100t-136.5 -37h-281v34l60 22v358h-82l-29 -86h-47v132zM384 228h-64v-182h64q37 0 59 23.5t22 67.5t-22 67.5t-59 23.5z" />
    <glyph glyph-name="afii10093" unicode="&#x44b;" horiz-adv-x="793" 
d="M309 0h-280v34l60 22v348l-60 21v35h251v-35l-60 -24v-127h89q86 0 137.5 -37t51.5 -100t-52 -100t-137 -37zM283 228h-63v-182h63q38 0 60 24t22 67t-22 67t-60 24zM764 425l-60 -24v-345l60 -21v-35h-251v38l60 26v340l-60 21v35h251v-35z" />
    <glyph glyph-name="afii10094" unicode="&#x44c;" horiz-adv-x="528" 
d="M309 0h-280v34l60 22v348l-60 21v35h251v-35l-60 -24v-127h89q86 0 137.5 -37t51.5 -100t-52 -100t-137 -37zM283 228h-63v-182h63q38 0 60 24t22 67t-22 67t-60 24z" />
    <glyph glyph-name="afii10095" unicode="&#x44d;" horiz-adv-x="516" 
d="M344 213h-174v46h173q-7 159 -125 159q-90 0 -110 -98h-46v121l12 13l17 -17q57 28 133 28q117 0 185 -62.5t68 -172.5q0 -109 -65.5 -172t-179.5 -63q-82 0 -135 28q-53 29 -53 76q0 25 15 39.5t36 14.5q22 0 37 -15.5t15 -36.5v-40q31 -19 76 -19q118 0 121 171z" />
    <glyph glyph-name="afii10096" unicode="&#x44e;" horiz-adv-x="805" 
d="M29 0v38l60 26v340l-60 21v35h242v-35l-51 -21v-147h86q7 96 70 152q64 56 160 56q103 0 166 -64q64 -63 64 -171t-64 -172q-63 -63 -166 -63q-99 0 -161.5 58t-68.5 157h-86v-154l51 -21v-35h-242zM438 230q0 -91 26 -139.5t72 -48.5q45 0 71 48.5t26 139.5t-26 139.5
t-71 48.5q-46 0 -72 -48.5t-26 -139.5z" />
    <glyph glyph-name="afii10097" unicode="&#x44f;" horiz-adv-x="579" 
d="M13 42l14 14q11 -11 32 -11q13 0 19 7.5t14 31.5l23 65q18 53 86 70q-60 11 -93.5 42t-33.5 76q0 56 52.5 89.5t138.5 33.5h285v-32l-60 -19v-353l60 -21v-35h-251v35l60 26v137h-20q-45 0 -68.5 -11t-32.5 -40l-25 -79q-21 -73 -97 -73q-62 0 -103 47zM291 244h68v170
h-68q-39 0 -61.5 -21.5t-22.5 -62.5t22.5 -63.5t61.5 -22.5z" />
    <glyph glyph-name="uni0450" unicode="&#x450;" horiz-adv-x="523" 
d="M474 253l-16 -16h-287q1 -98 36 -142t108 -44q85 0 128 45l29 -29q-70 -72 -191 -72q-112 0 -177 64q-66 65 -66 171q0 109 67 172t169 63q91 0 147 -50q57 -49 57 -124q0 -25 -4 -38zM280 418q-43 0 -74 -40q-31 -41 -35 -99l198 9q0 60 -24.5 95t-64.5 35zM142 611
l78 78l148 -156l-24 -25z" />
    <glyph glyph-name="afii10071" unicode="&#x451;" horiz-adv-x="523" 
d="M474 253l-16 -16h-287q1 -98 36 -142t108 -44q85 0 128 45l29 -29q-70 -72 -191 -72q-112 0 -177 64q-66 65 -66 171q0 109 67 172t169 63q91 0 147 -50q57 -49 57 -124q0 -25 -4 -38zM280 418q-43 0 -74 -40q-31 -41 -35 -99l198 9q0 60 -24.5 95t-64.5 35zM107 526
q-19 20 -19 49t19 48t48 19t48 -19t19 -48t-19 -49q-19 -19 -48 -19t-48 19zM328 526q-19 20 -19 49t19 48q20 19 49 19t48 -19t19 -48t-19 -49q-19 -19 -48 -19t-49 19z" />
    <glyph glyph-name="afii10099" unicode="&#x452;" horiz-adv-x="629" 
d="M29 0v38l60 26v494h-60v30l60 16v74l-60 22v34l175 24l16 -16v-138h188v-46h-188v-98l-3 -51l3 -3q30 27 76 43t89 16q73 0 114 -48q41 -49 41 -119v-298q0 -78 -45.5 -145.5t-128.5 -112.5l-28 29q34 37 52.5 99t18.5 130v289q0 57 -20.5 88.5t-58.5 31.5q-26 0 -58 -13
t-52 -34v-306l60 -21v-35h-251z" />
    <glyph glyph-name="afii10100" unicode="&#x453;" horiz-adv-x="471" 
d="M392 328l-28 86h-144v-354l93 -25v-35h-284v38l60 26v348l-60 16v32h410v-132h-47zM171 508l-24 25l148 156l78 -78z" />
    <glyph glyph-name="afii10101" unicode="&#x454;" horiz-adv-x="516" 
d="M39 230q0 110 68 172.5t186 62.5q75 0 132 -28l17 17l12 -13v-121h-46q-27 98 -110 98q-118 0 -125 -159h207v-46h-208q9 -162 144 -162q82 0 125 45l28 -29q-71 -72 -190 -72q-111 0 -175 63q-65 63 -65 172z" />
    <glyph glyph-name="afii10102" unicode="&#x455;" horiz-adv-x="444" 
d="M56 4l-13 13v115h47q26 -90 111 -90q41 0 66 18t25 54q0 28 -20 40t-76 27l-47 13q-13 4 -40 17q-25 12 -37 25q-31 35 -31 89q0 139 176 139q73 0 131 -27l16 16l13 -13v-112h-47q-24 90 -97 90q-36 0 -58 -19t-22 -49q0 -26 17 -38t69 -27l50 -16q17 -5 42 -18
q27 -13 39 -27q34 -38 34 -90q0 -139 -199 -139q-76 0 -133 25z" />
    <glyph glyph-name="afii10103" unicode="&#x456;" horiz-adv-x="309" 
d="M280 0h-251v38l60 26v316l-52 22v42l167 24l16 -16v-396l60 -21v-35zM69 606q0 35 22 57t57 22t56.5 -22t21.5 -57q0 -34 -22 -56t-56 -22q-35 0 -57 22t-22 56z" />
    <glyph glyph-name="afii10104" unicode="&#x457;" horiz-adv-x="309" 
d="M280 0h-251v38l60 26v316l-52 22v42l167 24l16 -16v-396l60 -21v-35zM-4 594q0 29 19 48t49 19q29 0 48 -19t19 -48q0 -30 -19 -49t-48 -19q-30 0 -49 19t-19 49zM170 594q0 29 19 48t49 19q29 0 48 -19t19 -48q0 -30 -19 -49t-48 -19q-30 0 -49 19t-19 49z" />
    <glyph glyph-name="afii10105" unicode="&#x458;" horiz-adv-x="309" 
d="M89 0v380l-52 22v42l167 24l16 -16v-452q0 -78 -45.5 -145.5t-128.5 -112.5l-28 29q34 37 52.5 99t18.5 130zM69 606q0 35 22 57t57 22t56.5 -22t21.5 -57q0 -34 -22 -56t-56 -22q-35 0 -57 22t-22 56z" />
    <glyph glyph-name="afii10106" unicode="&#x459;" horiz-adv-x="822" 
d="M604 0h-283v34l60 22v358h-125l-26 -236q-9 -100 -39.5 -141.5t-79.5 -41.5q-37 0 -60 18t-23 52q0 25 14 41t38 16q22 0 36.5 -12t14.5 -32v-18q4 -2 7 -2q7 -2 14 7t15 37t12 71l27 239l-59 16v32h425v-32l-60 -19v-135h92q85 0 136.5 -37t51.5 -100t-51.5 -100
t-136.5 -37zM577 228h-65v-182h65q38 0 60 24t22 67t-22 67t-60 24z" />
    <glyph glyph-name="afii10107" unicode="&#x45a;" horiz-adv-x="844" 
d="M626 0h-274v35l51 26v149h-183v-154l51 -21v-35h-242v38l60 26v340l-60 21v35h242v-35l-51 -21v-147h183v147l-51 21v35h242v-35l-60 -24v-144h92q85 0 136.5 -35t51.5 -94t-51.5 -93.5t-136.5 -34.5zM600 210h-66v-164h66q37 0 59 21.5t22 60.5t-22 60.5t-59 21.5z" />
    <glyph glyph-name="afii10108" unicode="&#x45b;" horiz-adv-x="629" 
d="M29 588l60 16v74l-60 22v34l175 24l16 -16v-138h188v-46h-188v-98l-3 -51l3 -3q30 27 76 43t89 16q73 0 114 -48q41 -49 41 -119v-242l60 -21v-35h-245v38l54 26v225q0 57 -20.5 88.5t-58.5 31.5q-26 0 -58 -13t-52 -34v-306l54 -21v-35h-245v38l60 26v494h-60v30z" />
    <glyph glyph-name="afii10109" unicode="&#x45c;" horiz-adv-x="601" 
d="M441 381v18q-4 2 -10 2q-19 0 -41 -48l-23 -51q-15 -31 -25 -44q59 -5 91 -24t44 -58l25 -86q7 -27 14.5 -36t22.5 -9q20 0 31 11l14 -14q-41 -47 -111 -47q-83 0 -102 78l-25 87q-9 31 -34 42.5t-72 11.5h-20v-158l60 -21v-35h-251v38l60 26v340l-60 21v35h251v-35
l-60 -24v-139q43 0 64.5 13.5t36.5 44.5l28 64q20 41 44 60t64 19q41 0 64.5 -17.5t23.5 -50.5q0 -27 -14.5 -43t-38.5 -16q-22 0 -36.5 12.5t-14.5 32.5zM231 508l-24 25l148 156l78 -78z" />
    <glyph glyph-name="uni045D" unicode="&#x45d;" horiz-adv-x="627" 
d="M180 611l78 78l148 -156l-24 -25zM29 0v38l60 26v340l-60 21v35h245v-35l-54 -21v-216l-3 -44l3 -3l186 248v15l-54 21v35h246v-35l-60 -24v-345l60 -21v-35h-246v35l54 26v211l3 44l-3 3l-186 -248v-15l54 -21v-35h-245z" />
    <glyph glyph-name="afii10110" unicode="&#x45e;" horiz-adv-x="577" 
d="M354 583v46q0 22 16 38t39 16q22 0 37.5 -15.5t15.5 -41.5q0 -44 -48 -73q-48 -27 -116 -27t-116 27q-48 29 -48 73q0 26 16 41.5t38 15.5t38 -16t16 -38v-46q24 -15 56 -15q30 0 56 15zM262 -5l-192 409l-59 21v35h250v-35l-58 -21l125 -269l127 269l-77 21v35h188v-35
l-58 -21l-189 -404q-78 -163 -109 -207q-32 -47 -85 -47q-40 0 -65.5 20.5t-25.5 58.5q-3 47 40 59q36 10 62 -13q17 -15 15 -37v-25q4 -2 8 -2q14 0 36 40q21 37 67 148z" />
    <glyph glyph-name="afii10193" unicode="&#x45f;" horiz-adv-x="623" 
d="M288 -123l-16 123h-243v34l60 22v348l-60 21v35h242v-35l-51 -24v-355h183v358l-51 21v35h242v-35l-60 -24v-353l60 -16v-32h-243l-16 -123h-47z" />
    <glyph glyph-name="afii10050" unicode="&#x490;" horiz-adv-x="551" 
d="M29 668v32h403l42 96h47l-13 -142h-277v-590l95 -29v-35h-297v38l65 29v582z" />
    <glyph glyph-name="afii10098" unicode="&#x491;" horiz-adv-x="441" 
d="M409 546v-132h-189v-354l93 -25v-35h-284v38l60 26v348l-60 16v32h305l28 86h47z" />
    <glyph glyph-name="uni04D8" unicode="&#x4d8;" horiz-adv-x="740" 
d="M108 568l-30 30q109 109 269 109q159 0 252 -96q94 -94 94 -258q0 -165 -95 -263q-94 -97 -250 -97q-135 0 -218 71q-83 72 -83 179q0 36 7 58l23 23h471q6 132 -45 221q-56 101 -196 101q-124 0 -199 -78zM338 43q82 0 138.5 61t68.5 174l-373 -23q0 -97 43.5 -154.5
t122.5 -57.5z" />
    <glyph glyph-name="afii10846" unicode="&#x4d9;" horiz-adv-x="523" 
d="M48 212l16 16h287q-1 181 -140 181q-79 0 -124 -45l-29 29q74 72 187 72q108 0 173 -65q66 -64 66 -171q0 -108 -67 -171t-169 -63q-92 0 -148 50q-56 51 -56 128q0 24 4 39zM242 42q42 0 73 41.5t36 102.5l-197 -9q0 -63 24 -99t64 -36z" />
    <glyph glyph-name="Wgrave" unicode="&#x1e80;" horiz-adv-x="1188" 
d="M842 0h-62l-189 451l-184 -451h-62l-272 641l-65 24v35h268v-35l-65 -24l208 -506l147 373l-58 133l-65 24v35h268v-35l-65 -24l208 -506l211 506l-81 24v35h195v-35l-63 -24zM464 851l78 78l148 -156l-24 -25z" />
    <glyph glyph-name="wgrave" unicode="&#x1e81;" horiz-adv-x="871" 
d="M621 0h-56l-122 281l-130 -281h-56l-187 404l-59 21v35h244v-35l-58 -21l126 -278l97 210l-30 68l-60 21v35h244v-35l-58 -21l114 -278l121 278l-76 21v35h186v-35l-58 -21zM310 611l78 78l148 -156l-24 -25z" />
    <glyph glyph-name="Wacute" unicode="&#x1e82;" horiz-adv-x="1188" 
d="M842 0h-62l-189 451l-184 -451h-62l-272 641l-65 24v35h268v-35l-65 -24l208 -506l147 373l-58 133l-65 24v35h268v-35l-65 -24l208 -506l211 506l-81 24v35h195v-35l-63 -24zM525 748l-24 25l148 156l78 -78z" />
    <glyph glyph-name="wacute" unicode="&#x1e83;" horiz-adv-x="871" 
d="M621 0h-56l-122 281l-130 -281h-56l-187 404l-59 21v35h244v-35l-58 -21l126 -278l97 210l-30 68l-60 21v35h244v-35l-58 -21l114 -278l121 278l-76 21v35h186v-35l-58 -21zM374 508l-25 25l149 156l77 -78z" />
    <glyph glyph-name="Wdieresis" unicode="&#x1e84;" horiz-adv-x="1188" 
d="M842 0h-62l-189 451l-184 -451h-62l-272 641l-65 24v35h268v-35l-65 -24l208 -506l147 373l-58 133l-65 24v35h268v-35l-65 -24l208 -506l211 506l-81 24v35h195v-35l-63 -24zM415 834q0 29 19 48t49 19q29 0 47.5 -19t18.5 -48q0 -30 -18.5 -49t-47.5 -19q-30 0 -49 19
t-19 49zM637 834q0 29 19 48t48 19q30 0 48.5 -19t18.5 -48q0 -30 -18.5 -49t-48.5 -19q-29 0 -48 19t-19 49z" />
    <glyph glyph-name="wdieresis" unicode="&#x1e85;" horiz-adv-x="871" 
d="M621 0h-56l-122 281l-130 -281h-56l-187 404l-59 21v35h244v-35l-58 -21l126 -278l97 210l-30 68l-60 21v35h244v-35l-58 -21l114 -278l121 278l-76 21v35h186v-35l-58 -21zM259 594q0 29 19 48t48 19q30 0 48.5 -19t18.5 -48q0 -30 -18.5 -49t-48.5 -19q-29 0 -48 19
t-19 49zM481 594q0 29 19 48t48 19q30 0 48.5 -19t18.5 -48q0 -30 -18.5 -49t-48.5 -19q-29 0 -48 19t-19 49z" />
    <glyph glyph-name="Ygrave" unicode="&#x1ef2;" horiz-adv-x="702" 
d="M283 665l-64 -21l175 -299l177 299l-74 21v35h197v-35l-69 -21l-210 -353v-232l65 -24v-35h-267v38l65 29v223l-207 354l-63 21v35h275v-35zM223 851l77 78l149 -156l-25 -25z" />
    <glyph glyph-name="ygrave" unicode="&#x1ef3;" horiz-adv-x="577" 
d="M262 -5l-192 409l-59 21v35h250v-35l-58 -21l125 -269l127 269l-77 21v35h188v-35l-58 -21l-189 -404q-78 -163 -109 -207q-32 -47 -85 -47q-40 0 -65.5 20.5t-25.5 58.5q-3 47 40 59q36 10 62 -13q17 -15 15 -37v-25q4 -2 8 -2q14 0 36 40q21 37 67 148zM159 611l78 78
l148 -156l-24 -25z" />
    <glyph glyph-name="figuredash" unicode="&#x2012;" horiz-adv-x="504" 
d="M466 325h-428v49h428v-49z" />
    <glyph glyph-name="endash" unicode="&#x2013;" horiz-adv-x="504" 
d="M466 235h-428v48h428v-48z" />
    <glyph glyph-name="emdash" unicode="&#x2014;" horiz-adv-x="704" 
d="M666 235h-628v48h628v-48z" />
    <glyph glyph-name="quoteleft" unicode="&#x2018;" horiz-adv-x="199" 
d="M129 705l22 -22q-18 -17 -36 -45q-17 -29 -17 -40q0 -2 2 -8q27 0 46 -17q18 -16 18 -44t-18 -45q-13 -13 -33 -16t-38 3t-30 24t-10 43q0 70 94 167z" />
    <glyph glyph-name="quoteright" unicode="&#x2019;" horiz-adv-x="199" 
d="M70 467l-22 21q19 19 35.5 46.5t16.5 39.5q0 5 -2 7q-27 0 -45 17.5t-18 44.5q0 28 17.5 45t46.5 17t47 -18.5t18 -52.5q0 -73 -94 -167z" />
    <glyph glyph-name="quotesinglbase" unicode="&#x201a;" horiz-adv-x="199" 
d="M70 -115l-22 22q19 19 34 45q18 29 18 41q0 5 -2 7q-27 0 -45 17.5t-18 44.5q0 28 17.5 45t46.5 17t47 -18.5t18 -52.5q0 -71 -94 -168z" />
    <glyph glyph-name="quotedblleft" unicode="&#x201c;" horiz-adv-x="361" 
d="M291 705l21 -22q-18 -18 -35 -45q-17 -29 -17 -40q0 -6 2 -8q28 0 46 -17t18 -44q0 -28 -18 -45t-47 -17t-47 18.5t-18 52.5q0 72 95 167zM129 705l22 -22q-18 -17 -36 -45q-17 -29 -17 -40q0 -2 2 -8q27 0 46 -17q18 -16 18 -44t-18 -45q-13 -13 -33 -16t-38 3t-30 24
t-10 43q0 70 94 167z" />
    <glyph glyph-name="quotedblright" unicode="&#x201d;" horiz-adv-x="361" 
d="M70 467l-22 21q19 19 35.5 46.5t16.5 39.5q0 5 -2 7q-27 0 -45 17.5t-18 44.5q0 28 17.5 45t46.5 17t47 -18.5t18 -52.5q0 -73 -94 -167zM231 467l-21 21q19 19 35.5 46.5t16.5 39.5q0 5 -2 7q-28 0 -46 17t-18 45t18 45t47 17t47 -18.5t18 -52.5q0 -75 -95 -167z" />
    <glyph glyph-name="quotedblbase" unicode="&#x201e;" horiz-adv-x="360" 
d="M70 -115l-22 22q19 19 34 45q18 29 18 41q0 5 -2 7q-27 0 -45 17.5t-18 44.5q0 28 17.5 45t46.5 17t47 -18.5t18 -52.5q0 -71 -94 -168zM231 -115l-21 22q19 19 34 45q18 28 18 41q0 5 -2 7q-28 0 -46 17t-18 45t18 45t47 17t47 -18.5t18 -52.5q0 -73 -95 -168z" />
    <glyph glyph-name="dagger" unicode="&#x2020;" horiz-adv-x="543" 
d="M254 487q-8 69 -20 109q-13 46 -13 58q-3 31 23.5 43.5t53 0t24.5 -43.5q0 -8 -14 -58q-12 -42 -20 -109q67 8 109 20q50 14 58 14q31 2 43.5 -24.5t0 -53t-43.5 -23.5q-11 0 -57 13q-41 12 -110 20q8 -209 20 -336q14 -151 14 -171q2 -31 -24.5 -43.5t-53 0t-23.5 43.5
q0 31 13 171q12 127 20 336q-67 -8 -109 -20q-46 -13 -57 -13q-31 -3 -43.5 23.5t0 53t43.5 24.5q7 0 57 -14q42 -12 109 -20z" />
    <glyph glyph-name="daggerdbl" unicode="&#x2021;" horiz-adv-x="543" 
d="M254 487q-8 69 -20 109q-13 46 -13 58q-3 31 23.5 43.5t53 0t24.5 -43.5q0 -8 -14 -58q-12 -42 -20 -109q67 8 109 20q50 14 58 14q31 2 43.5 -24.5t0 -53t-43.5 -23.5q-11 0 -57 13q-41 12 -110 20v-215q69 8 110 20q46 13 57 13q31 3 43.5 -23.5t0 -53t-43.5 -23.5
q-12 0 -58 13q-42 12 -109 20q5 -62 14 -130q20 -127 20 -128q2 -31 -24.5 -43.5t-53 0t-23.5 43.5q-1 8 5 39.5t15 92t13 126.5q-67 -8 -109 -20q-45 -13 -57 -13q-31 -3 -43.5 23.5t0 53t43.5 23.5q11 0 57 -13q42 -12 109 -20v215q-67 -8 -109 -20q-46 -13 -57 -13
q-31 -3 -43.5 23.5t0 53t43.5 24.5q7 0 57 -14q42 -12 109 -20z" />
    <glyph glyph-name="bullet" unicode="&#x2022;" horiz-adv-x="239" 
d="M30 300q0 39 25 64t63 25q40 0 65 -25t25 -64q0 -38 -25 -63t-65 -25q-38 0 -63 25t-25 63z" />
    <glyph glyph-name="ellipsis" unicode="&#x2026;" horiz-adv-x="587" 
d="M98 124q29 0 47.5 -18t18.5 -47q0 -28 -18.5 -46t-47.5 -18q-27 0 -45 18t-18 46t18 46.5t45 18.5zM293 124q29 0 47 -18t18 -47q2 -27 -18.5 -46t-46.5 -18t-46 18q-17 20 -18 46t18 46.5t46 18.5zM487 124q29 0 47.5 -18.5t18.5 -46.5t-18.5 -46t-47.5 -18
q-28 0 -46 18t-18 46t18 46.5t46 18.5z" />
    <glyph glyph-name="perthousand" unicode="&#x2030;" horiz-adv-x="1093" 
d="M86 392q-41 50 -41 133t41 133q42 49 109 49q68 0 108 -49q42 -49 42 -133q0 -83 -42 -133q-40 -49 -108 -49q-67 0 -109 49zM147 625q-17 -36 -17 -100q0 -67 18 -101t47 -34t47 34t18 101q0 65 -18 100q-17 35 -47 35t-48 -35zM611 700l-413 -700h-59l413 700h59z
M446 42q-41 50 -41 133t41 133q42 49 109 49q68 0 108 -49q42 -50 42 -133t-42 -133q-40 -49 -108 -49q-67 0 -109 49zM507 275q-17 -36 -17 -100q0 -67 18 -101t47 -34t47 34t18 101q0 65 -18 100q-17 35 -47 35t-48 -35zM789 42q-41 50 -41 133t41 133q42 49 109 49
q68 0 108 -49q42 -50 42 -133t-42 -133q-40 -49 -108 -49q-67 0 -109 49zM850 275q-17 -36 -17 -100q0 -65 17 -101q18 -34 48 -34q31 0 47 34q18 34 18 101q0 65 -18 100q-17 35 -47 35t-48 -35z" />
    <glyph glyph-name="guilsinglleft" unicode="&#x2039;" horiz-adv-x="269" 
d="M205 87l-176 165v15l176 166l25 -25l-99 -149l99 -148z" />
    <glyph glyph-name="guilsinglright" unicode="&#x203a;" horiz-adv-x="269" 
d="M63 433l177 -166v-15l-177 -165l-24 24l99 149l-99 148z" />
    <glyph glyph-name="fraction" unicode="&#x2044;" horiz-adv-x="364" 
d="M362 700l-308 -700h-52l308 700h52z" />
    <glyph glyph-name="Euro" unicode="&#x20ac;" horiz-adv-x="707" 
d="M49 391h-19v48h25q26 125 116 196q90 72 224 72q108 0 194 -44h53l16 -142h-47q-52 136 -196 136q-187 0 -219 -218h301v-48h-305q-1 -8 -1 -37q0 -28 2 -48h304v-48h-298q39 -204 233 -204q124 0 201 78l29 -30q-106 -109 -269 -109q-135 0 -224.5 70.5t-113.5 194.5
h-25v48h18q-1 9 -1 41q0 24 2 44z" />
    <glyph glyph-name="uni20B4" unicode="&#x20b4;" horiz-adv-x="528" 
d="M91 263h-50v49h435v-49h-261q-43 -44 -43 -102q0 -110 137 -110q94 0 148 51l28 -29q-81 -78 -212 -78q-105 0 -169 43q-65 44 -65 117q0 59 52 108zM476 388h-435v49h259q45 49 45 106q0 106 -133 106q-91 0 -140 -49l-28 29q77 76 205 76q104 0 166.5 -42.5
t62.5 -115.5q0 -60 -53 -110h51v-49z" />
    <glyph glyph-name="uni20BD" unicode="&#x20bd;" horiz-adv-x="644" 
d="M94 167h-65v27l65 19v77h-65v28l65 19v312l-65 19v32h299q117 0 191 -56t74 -149q0 -94 -74 -150q-73 -55 -191 -55h-97v-77h190v-46h-190v-103l95 -29v-35h-297v38l65 29v100zM312 654h-81v-317h81q64 0 100 40.5t36 117.5q0 79 -36 119t-100 40z" />
    <glyph glyph-name="afii61352" unicode="&#x2116;" horiz-adv-x="1085" 
d="M29 0v24l65 28v589l-65 24v35h196l354 -504v459l-65 24v21h176v-21l-65 -26v-653h-64l-421 602v-558l65 -23v-21h-176zM769 392q-41 50 -41 133t41 133q42 49 109 49q68 0 108 -49q42 -49 42 -133q0 -83 -42 -133q-40 -49 -108 -49q-67 0 -109 49zM830 625
q-17 -36 -17 -100q0 -65 17 -101q18 -34 48 -34q31 0 47 34q18 34 18 101q0 65 -18 100q-17 35 -47 35t-48 -35zM1023 235h-290v48h290v-48z" />
    <glyph glyph-name="trademark" unicode="&#x2122;" horiz-adv-x="812" 
d="M297 624l-21 49h-64v-290l31 -13v-20h-146v22l32 16v285h-64l-22 -52h-28l7 79h297l6 -76h-28zM778 680l-32 -16l21 -281l31 -13v-20h-146v22l31 16l-15 218l-110 -256h-36l-110 256l-17 -232l32 -13v-11h-90v13l32 16l21 288l-32 13v20h97l112 -270l114 270h97v-20z" />
    <glyph glyph-name="arrowleft" unicode="&#x2190;" horiz-adv-x="697" 
d="M212 85l-174 166v15l174 166l24 -25l-81 -124h503v-48h-503l81 -125z" />
    <glyph glyph-name="arrowup" unicode="&#x2191;" horiz-adv-x="697" 
d="M175 394l165 174h15l166 -174l-25 -24l-124 81v-503h-48v503l-125 -81z" />
    <glyph glyph-name="arrowright" unicode="&#x2192;" horiz-adv-x="697" 
d="M485 432l173 -166v-15l-173 -166l-24 25l81 125h-504v48h503l-80 124z" />
    <glyph glyph-name="arrowdown" unicode="&#x2193;" horiz-adv-x="697" 
d="M521 122l-166 -174h-15l-165 174l24 24l125 -81v503h48v-503l124 81z" />
    <glyph glyph-name="uni2196" unicode="&#x2196;" horiz-adv-x="697" 
d="M130 232l-6 240l10 11l240 -5v-35l-145 -30l356 -357l-35 -34l-355 357l-31 -146z" />
    <glyph glyph-name="uni2197" unicode="&#x2197;" horiz-adv-x="697" 
d="M322 477l240 6l10 -11l-5 -240h-35l-30 145l-356 -355l-35 34l357 356l-146 31v34z" />
    <glyph glyph-name="uni2198" unicode="&#x2198;" horiz-adv-x="697" 
d="M567 285l6 -240l-10 -11l-240 5v35l145 31l-356 356l34 34l356 -356l31 145z" />
    <glyph glyph-name="uni2199" unicode="&#x2199;" horiz-adv-x="697" 
d="M374 39l-240 -6l-11 11l6 240h34l31 -146l356 356l35 -34l-356 -355l145 -32v-34z" />
    <glyph glyph-name="minus" unicode="&#x2212;" horiz-adv-x="454" 
d="M416 325h-378v49h378v-49z" />
    <glyph glyph-name="commaaccent" unicode="&#xf6c3;" horiz-adv-x="199" 
d="M75 -250l-16 16q15 16 28 38t13 33q0 4 -2 6q-21 0 -35 13.5t-14 34.5q0 22 14 35.5t36 13.5t36 -14.5t14 -42.5q0 -59 -74 -133z" />
    <glyph glyph-name="dollaroldstyle" unicode="&#xf724;" horiz-adv-x="444" 
d="M210 -5l-6 -45h-43l6 47q-53 4 -95 23l-16 -16l-13 13v115h47q19 -74 83 -88l18 138q-58 16 -84 29q-61 30 -66 114q0 139 176 139h12l6 46h43l-7 -50q45 -8 77 -23l16 16l13 -13v-112h-47q-20 69 -65 85l-17 -131q65 -19 106 -46q50 -30 50 -102q0 -136 -194 -139z
M292 114q0 22 -13.5 34.5t-45.5 22.5l-17 -129q76 7 76 72zM153 350q0 -22 12 -34t41 -22l17 123q-32 -2 -51 -20.5t-19 -46.5z" />
    <glyph glyph-name="zerooldstyle" unicode="&#xf730;" horiz-adv-x="623" 
d="M311 467q119 0 192 -64t73 -173t-73 -173t-192 -64q-118 0 -191 64t-73 173t73 173t191 64zM312 40q57 0 91 49.5t34 140.5t-34 140.5t-91 49.5q-59 0 -93 -49.5t-34 -140.5t34 -140.5t93 -49.5z" />
    <glyph glyph-name="oneoldstyle" unicode="&#xf731;" horiz-adv-x="400" 
d="M355 0h-302v38l85 26v316h-94v41l210 47l15 -16v-396l86 -21v-35z" />
    <glyph glyph-name="twooldstyle" unicode="&#xf732;" horiz-adv-x="497" 
d="M440 0h-397v58q132 90 189 152q61 64 61 139q0 69 -75 69q-44 0 -72 -27v-64q0 -22 -16 -38t-39 -16t-38 16t-15 47q0 58 51 93t140 35q86 0 136 -33t50 -90q0 -55 -51 -114q-20 -23 -58 -52q-46 -35 -63 -46l-71 -44h199l31 86h47z" />
    <glyph glyph-name="threeoldstyle" unicode="&#xf733;" horiz-adv-x="548" 
d="M368 7q0 70 -38 100t-113 30h-41v46h36q129 0 129 113q0 58 -29 89.5t-77 31.5q-46 0 -75 -29v-59q1 -31 -26.5 -46.5t-55 -0.5t-26.5 55q0 59 59 94t147 35q95 0 156 -44q60 -44 60 -117q0 -53 -33 -90.5t-89 -53.5q76 -24 112.5 -63.5t36.5 -104.5q0 -117 -112 -181
q-111 -64 -303 -69l-30 30q312 31 312 234z" />
    <glyph glyph-name="fouroldstyle" unicode="&#xf734;" horiz-adv-x="586" 
d="M468 0v-250h-125v250h-297v32q163 226 163 428h131q0 -198 -229 -414h232v152l109 110l16 -16v-246h73v-46h-73z" />
    <glyph glyph-name="fiveoldstyle" unicode="&#xf735;" horiz-adv-x="507" 
d="M335 11q0 136 -138 136q-59 0 -103 -30l-29 29l32 314q204 0 316 16v-110h-266l-41 -202q55 31 126 31q108 0 172 -53t64 -145q0 -116 -105.5 -182t-295.5 -72l-30 30q146 16 222 76.5t76 161.5z" />
    <glyph glyph-name="sixoldstyle" unicode="&#xf736;" horiz-adv-x="567" 
d="M173 387q52 43 134 43q100 0 160.5 -58t60.5 -154q0 -104 -67 -162q-68 -59 -170 -59q-122 0 -187 85t-65 239q0 216 121 324q113 102 287 113l30 -30q-293 -54 -304 -341zM172 322q0 -148 28.5 -214t86.5 -66q51 0 79.5 43.5t28.5 123.5q0 81 -32.5 123t-90.5 42
q-69 0 -100 -52z" />
    <glyph glyph-name="sevenoldstyle" unicode="&#xf737;" horiz-adv-x="537" 
d="M307 -250h-131q0 82 24 167q26 88 53 140q36 71 83 154q51 91 82 153h-292l-33 -84h-47l13 180h437v-32q-20 -58 -60 -164q-45 -117 -65 -176q-24 -69 -44 -161q-20 -97 -20 -177z" />
    <glyph glyph-name="eightoldstyle" unicode="&#xf738;" horiz-adv-x="598" 
d="M519 590q0 -65 -35 -106t-102 -73q89 -41 128 -85q41 -44 41 -124q0 -101 -65.5 -155t-198.5 -54q-120 0 -180 46t-60 130q0 77 42 119q43 41 120 73q-70 36 -104.5 81t-34.5 115q0 87 56 143q56 57 180 57q105 0 159 -45t54 -122zM272 331l-21 9q-77 -71 -77 -168
q0 -68 32 -100.5t87 -32.5q62 0 96.5 35.5t34.5 105.5q0 56 -30 83q-31 28 -122 68zM333 434q2 -2 4 -2q60 64 60 153q0 126 -99 126q-49 0 -77.5 -34t-28.5 -93q0 -58 29 -87q28 -26 112 -63z" />
    <glyph glyph-name="nineoldstyle" unicode="&#xf739;" horiz-adv-x="567" 
d="M392 74q-53 -44 -134 -44q-100 0 -159.5 57t-59.5 155q0 103 68 163q69 60 172 60q120 0 184 -84t64 -233q0 -376 -415 -400l-31 31q296 41 311 295zM394 138q0 150 -27 215t-84 65q-51 0 -81 -45t-30 -125t32.5 -121t88.5 -41q67 0 101 52z" />
    <glyph glyph-name="CR" horiz-adv-x="333" 
 />
    <glyph glyph-name="T_h" horiz-adv-x="1185" 
d="M776 362v-306l54 -21v-35h-245v38l60 26v590h-238v-595l65 -24v-35h-267v38l65 29v587h-153l-41 -102h-47l13 148h543l175 44l16 -15v-269l-2 -51l3 -3q29 27 75 43t89 16q73 0 114 -48q41 -49 41 -119v-242l60 -21v-35h-245v38l54 26v225q0 57 -20.5 88.5t-58.5 31.5
q-26 0 -58 -13t-52 -34z" />
    <glyph glyph-name="T_h.caron" horiz-adv-x="1185" 
d="M776 362v-306l54 -21v-35h-245v38l60 26v590h-238v-595l65 -24v-35h-267v38l65 29v587h-153l-41 -102h-47l13 148h543l175 44l16 -15v-269l-2 -51l3 -3q29 27 75 43t89 16q73 0 114 -48q41 -49 41 -119v-242l60 -21v-35h-245v38l54 26v225q0 57 -20.5 88.5t-58.5 31.5
q-26 0 -58 -13t-52 -34zM491 905l-146 -157h-14l-146 157l24 24l129 -79l129 79z" />
    <glyph glyph-name="T_h.commaaccent" horiz-adv-x="1185" 
d="M776 362v-306l54 -21v-35h-245v38l60 26v590h-238v-595l65 -24v-35h-267v38l65 29v587h-153l-41 -102h-47l13 148h543l175 44l16 -15v-269l-2 -51l3 -3q29 27 75 43t89 16q73 0 114 -48q41 -49 41 -119v-242l60 -21v-35h-245v38l54 26v225q0 57 -20.5 88.5t-58.5 31.5
q-26 0 -58 -13t-52 -34zM314 -250l-17 16q15 16 28.5 38t13.5 33q0 4 -2 6q-21 0 -35.5 13.5t-14.5 34.5q-3 33 31 45t57 -11q15 -15 13 -42q0 -56 -74 -133z" />
    <glyph glyph-name="A.smcp" horiz-adv-x="582" 
d="M264 476h55l196 -426l45 -20v-30h-217v30l46 20l-42 91h-194l-42 -91l56 -20v-30h-145v30l45 20zM330 181l-78 175l-81 -175h159z" />
    <glyph glyph-name="Aacute.smcp" horiz-adv-x="582" 
d="M264 476h55l196 -426l45 -20v-30h-217v30l46 20l-42 91h-194l-42 -91l56 -20v-30h-145v30l45 20zM330 181l-78 175l-81 -175h159zM237 500l-20 20l106 122l70 -71z" />
    <glyph glyph-name="Abreve.smcp" horiz-adv-x="582" 
d="M264 476h55l196 -426l45 -20v-30h-217v30l46 20l-42 91h-194l-42 -91l56 -20v-30h-145v30l45 20zM330 181l-78 175l-81 -175h159zM323 591q0 19 13.5 32.5t32.5 13.5t33 -13t14 -34q0 -33 -35.5 -53t-90.5 -20t-90 20t-35 53q0 21 14 34t33 13t32.5 -13.5t13.5 -32.5
q0 -39 32 -39q33 0 33 39z" />
    <glyph glyph-name="Acircumflex.smcp" horiz-adv-x="582" 
d="M264 476h55l196 -426l45 -20v-30h-217v30l46 20l-42 91h-194l-42 -91l56 -20v-30h-145v30l45 20zM330 181l-78 175l-81 -175h159zM179 520l105 122h13l106 -122l-20 -20l-93 54l-91 -54z" />
    <glyph glyph-name="Agrave.smcp" horiz-adv-x="582" 
d="M264 476h55l196 -426l45 -20v-30h-217v30l46 20l-42 91h-194l-42 -91l56 -20v-30h-145v30l45 20zM330 181l-78 175l-81 -175h159zM189 571l69 71l107 -122l-20 -20z" />
    <glyph glyph-name="Adieresis.smcp" horiz-adv-x="582" 
d="M264 476h55l196 -426l45 -20v-30h-217v30l46 20l-42 91h-194l-42 -91l56 -20v-30h-145v30l45 20zM330 181l-78 175l-81 -175h159zM171 531q-15 16 -15 41t15 40q16 16 41 16t41 -16q16 -15 16 -40t-16 -41t-41 -16t-41 16zM328 531q-16 16 -16 41t16 40q16 16 41 16
t41 -16q16 -15 16 -40t-16 -41t-41 -16t-41 16z" />
    <glyph glyph-name="Amacron.smcp" horiz-adv-x="582" 
d="M264 476h55l196 -426l45 -20v-30h-217v30l46 20l-42 91h-194l-42 -91l56 -20v-30h-145v30l45 20zM330 181l-78 175l-81 -175h159zM391 535h-200v46h200v-46z" />
    <glyph glyph-name="Aogonek.smcp" horiz-adv-x="582" 
d="M550 -119l11 -11q-35 -35 -72 -35q-46 0 -46 45q0 56 58 120h-158v30l46 20l-42 91h-194l-42 -91l56 -20v-30h-145v30l45 20l197 426h55l196 -426l45 -20v-30h-30q-18 -24 -29.5 -55.5t-11.5 -52.5q0 -25 23 -25q21 0 38 14zM330 181l-78 175l-81 -175h159z" />
    <glyph glyph-name="Aring.smcp" horiz-adv-x="582" 
d="M264 476h55l196 -426l45 -20v-30h-217v30l46 20l-42 91h-194l-42 -91l56 -20v-30h-145v30l45 20zM330 181l-78 175l-81 -175h159zM290 619q29 0 46.5 -16t17.5 -42q0 -27 -17 -42t-47 -15q-28 0 -45 15.5t-17 41.5t17.5 42t44.5 16zM290 592q-21 0 -21 -31t21 -31t21 31
t-21 31z" />
    <glyph glyph-name="Atilde.smcp" horiz-adv-x="582" 
d="M264 476h55l196 -426l45 -20v-30h-217v30l46 20l-42 91h-194l-42 -91l56 -20v-30h-145v30l45 20zM330 181l-78 175l-81 -175h159zM175 520l-19 19q79 76 108 76q15 0 40 -17q23 -16 42 -16q32 0 62 30l19 -17q-77 -77 -110 -77q-16 0 -39 16q-25 17 -43 17q-32 0 -60 -31
z" />
    <glyph glyph-name="AE.smcp" horiz-adv-x="629" 
d="M249 27l45 16l-13 98h-128l-42 -91l56 -20v-30h-145v30l45 20l197 426h305l10 -107h-42l-33 67h-148l24 -173h82l16 53h39v-145h-39l-16 52h-78l25 -183h103l32 67h42l-10 -107h-327v27zM276 181l-24 175l-81 -175h105z" />
    <glyph glyph-name="AEacute.smcp" horiz-adv-x="629" 
d="M249 27l45 16l-13 98h-128l-42 -91l56 -20v-30h-145v30l45 20l197 426h305l10 -107h-42l-33 67h-148l24 -173h82l16 53h39v-145h-39l-16 52h-78l25 -183h103l32 67h42l-10 -107h-327v27zM276 181l-24 175l-81 -175h105zM291 500l-20 20l107 122l70 -71z" />
    <glyph glyph-name="B.smcp" horiz-adv-x="521" 
d="M32 449v27h238q85 0 136.5 -33t51.5 -89q0 -39 -26 -67.5t-74 -42.5q57 -14 87.5 -44.5t30.5 -72.5q0 -58 -56.5 -92.5t-149.5 -34.5h-238v27l46 16v390zM203 223v-183h54q87 0 87 92q0 91 -87 91h-54zM257 436h-54v-173h54q70 0 70 87q0 86 -70 86z" />
    <glyph glyph-name="C.smcp" horiz-adv-x="526" 
d="M458 98l26 -26q-82 -77 -194 -77t-179 65q-66 64 -66 175q0 113 68 179q67 67 180 67q67 0 124 -23l37 13l13 -12l13 -108h-43q-41 87 -129 87q-66 0 -98.5 -47t-32.5 -148q0 -194 151 -194q78 0 130 49z" />
    <glyph glyph-name="Cacute.smcp" horiz-adv-x="526" 
d="M458 98l26 -26q-82 -77 -194 -77t-179 65q-66 64 -66 175q0 113 68 179q67 67 180 67q67 0 124 -23l37 13l13 -12l13 -108h-43q-41 87 -129 87q-66 0 -98.5 -47t-32.5 -148q0 -194 151 -194q78 0 130 49zM241 500l-19 20l106 122l70 -71z" />
    <glyph glyph-name="Ccaron.smcp" horiz-adv-x="526" 
d="M458 98l26 -26q-82 -77 -194 -77t-179 65q-66 64 -66 175q0 113 68 179q67 67 180 67q67 0 124 -23l37 13l13 -12l13 -108h-43q-41 87 -129 87q-66 0 -98.5 -47t-32.5 -148q0 -194 151 -194q78 0 130 49zM404 621l-105 -121h-14l-105 121l20 21l92 -54l92 54z" />
    <glyph glyph-name="Ccedilla.smcp" horiz-adv-x="526" 
d="M236 -83l41 78q-107 4 -169.5 68.5t-62.5 171.5q0 113 68 179q67 67 180 67q67 0 124 -23l37 13l13 -12l13 -108h-43q-41 87 -129 87q-66 0 -98.5 -47t-32.5 -148q0 -194 151 -194q78 0 130 49l26 -26q-76 -72 -179 -76l-10 -22q25 0 40.5 -9.5t15.5 -26.5q0 -19 -26 -46
l-24 -26q-5 -6 -30 -31l-11 11q33 32 33 48q0 23 -57 23z" />
    <glyph glyph-name="Ccircumflex.smcp" horiz-adv-x="526" 
d="M458 98l26 -26q-82 -77 -194 -77t-179 65q-66 64 -66 175q0 113 68 179q67 67 180 67q67 0 124 -23l37 13l13 -12l13 -108h-43q-41 87 -129 87q-66 0 -98.5 -47t-32.5 -148q0 -194 151 -194q78 0 130 49zM180 520l106 122h13l105 -122l-19 -20l-93 54l-92 -54z" />
    <glyph glyph-name="Cdotaccent.smcp" horiz-adv-x="526" 
d="M458 98l26 -26q-82 -77 -194 -77t-179 65q-66 64 -66 175q0 113 68 179q67 67 180 67q67 0 124 -23l37 13l13 -12l13 -108h-43q-41 87 -129 87q-66 0 -98.5 -47t-32.5 -148q0 -194 151 -194q78 0 130 49zM229 575q0 28 17.5 44.5t45.5 16.5t45 -16.5t17 -44.5
q0 -27 -17 -44.5t-45 -17.5t-45.5 17.5t-17.5 44.5z" />
    <glyph glyph-name="D.smcp" horiz-adv-x="565" 
d="M32 449v27h241q113 0 180 -63.5t67 -174.5t-67 -174.5t-180 -63.5h-241v27l46 16v390zM273 436h-70v-396h69q56 0 86.5 49.5t30.5 148.5q0 198 -116 198z" />
    <glyph glyph-name="Dcaron.smcp" horiz-adv-x="565" 
d="M32 449v27h241q113 0 180 -63.5t67 -174.5t-67 -174.5t-180 -63.5h-241v27l46 16v390zM273 436h-70v-396h69q56 0 86.5 49.5t30.5 148.5q0 198 -116 198zM388 621l-106 -121h-13l-106 121l21 21l91 -54l93 54z" />
    <glyph glyph-name="Dcroat.smcp" horiz-adv-x="565" 
d="M78 222h-46v27l46 13v171l-46 16v27h241q113 0 180 -63.5t67 -174.5t-67 -174.5t-180 -63.5h-241v27l46 16v179zM273 436h-70v-174h85v-40h-85v-182h69q56 0 86.5 49.5t30.5 148.5q0 198 -116 198z" />
    <glyph glyph-name="Eth.smcp" horiz-adv-x="565" 
d="M78 222h-46v27l46 13v171l-46 16v27h241q113 0 180 -63.5t67 -174.5t-67 -174.5t-180 -63.5h-241v27l46 16v179zM273 436h-70v-174h85v-40h-85v-182h69q56 0 86.5 49.5t30.5 148.5q0 198 -116 198z" />
    <glyph glyph-name="Thorn.smcp" horiz-adv-x="499" 
d="M248 446l-45 -22v-43h55q88 0 142 -37.5t54 -100.5t-54 -101.5t-142 -38.5h-21l-13 13v27h21q77 0 77 100q0 98 -77 98h-42v-288l66 -23v-30h-237v33l46 23v370l-46 20v30h216v-30z" />
    <glyph glyph-name="E.smcp" horiz-adv-x="482" 
d="M203 223v-183h162l33 67h42l-10 -107h-398v27l46 16v390l-46 16v27h391l10 -107h-42l-33 67h-155v-173h113l16 53h39v-145h-39l-16 52h-113z" />
    <glyph glyph-name="Eacute.smcp" horiz-adv-x="482" 
d="M203 223v-183h162l33 67h42l-10 -107h-398v27l46 16v390l-46 16v27h391l10 -107h-42l-33 67h-155v-173h113l16 53h39v-145h-39l-16 52h-113zM187 500l-20 20l107 122l69 -71z" />
    <glyph glyph-name="Ebreve.smcp" horiz-adv-x="482" 
d="M203 223v-183h162l33 67h42l-10 -107h-398v27l46 16v390l-46 16v27h391l10 -107h-42l-33 67h-155v-173h113l16 53h39v-145h-39l-16 52h-113zM273 591q0 19 13.5 32.5t32.5 13.5t33 -13t14 -34q0 -33 -35 -53t-90 -20t-90 20t-35 53q0 21 14 34t33 13t32 -13.5t13 -32.5
q0 -39 33 -39q32 0 32 39z" />
    <glyph glyph-name="Ecaron.smcp" horiz-adv-x="482" 
d="M203 223v-183h162l33 67h42l-10 -107h-398v27l46 16v390l-46 16v27h391l10 -107h-42l-33 67h-155v-173h113l16 53h39v-145h-39l-16 52h-113zM353 621l-106 -121h-12l-106 121l20 21l92 -54l92 54z" />
    <glyph glyph-name="Ecircumflex.smcp" horiz-adv-x="482" 
d="M203 223v-183h162l33 67h42l-10 -107h-398v27l46 16v390l-46 16v27h391l10 -107h-42l-33 67h-155v-173h113l16 53h39v-145h-39l-16 52h-113zM129 520l106 122h12l106 -122l-20 -20l-92 54l-92 -54z" />
    <glyph glyph-name="Edieresis.smcp" horiz-adv-x="482" 
d="M203 223v-183h162l33 67h42l-10 -107h-398v27l46 16v390l-46 16v27h391l10 -107h-42l-33 67h-155v-173h113l16 53h39v-145h-39l-16 52h-113zM122 531q-16 16 -16 41t16 40q16 16 41 16t40 -16q16 -15 16 -40t-16 -41q-15 -16 -40 -16t-41 16zM279 531q-16 16 -16 41
t16 40q16 16 41 16t40 -16q16 -15 16 -40t-16 -41q-15 -16 -40 -16t-41 16z" />
    <glyph glyph-name="Edotaccent.smcp" horiz-adv-x="482" 
d="M203 223v-183h162l33 67h42l-10 -107h-398v27l46 16v390l-46 16v27h391l10 -107h-42l-33 67h-155v-173h113l16 53h39v-145h-39l-16 52h-113zM179 575q0 28 17.5 44.5t45.5 16.5t44.5 -16.5t16.5 -44.5q0 -27 -17 -44.5t-44 -17.5q-28 0 -45.5 17.5t-17.5 44.5z" />
    <glyph glyph-name="Egrave.smcp" horiz-adv-x="482" 
d="M203 223v-183h162l33 67h42l-10 -107h-398v27l46 16v390l-46 16v27h391l10 -107h-42l-33 67h-155v-173h113l16 53h39v-145h-39l-16 52h-113zM139 571l70 71l106 -122l-20 -20z" />
    <glyph glyph-name="Emacron.smcp" horiz-adv-x="482" 
d="M203 223v-183h162l33 67h42l-10 -107h-398v27l46 16v390l-46 16v27h391l10 -107h-42l-33 67h-155v-173h113l16 53h39v-145h-39l-16 52h-113zM341 535h-200v46h200v-46z" />
    <glyph glyph-name="Eogonek.smcp" horiz-adv-x="482" 
d="M428 -119l12 -11q-35 -35 -72 -35q-46 0 -46 45q0 56 58 120h-348v27l46 16v390l-46 16v27h391l10 -107h-42l-33 67h-155v-173h113l16 53h39v-145h-39l-16 52h-113v-183h162l33 67h42l-10 -107h-22q-17 -24 -28.5 -55.5t-11.5 -52.5q0 -25 23 -25t37 14z" />
    <glyph glyph-name="F.smcp" horiz-adv-x="468" 
d="M327 168l-16 53h-108v-168l66 -23v-30h-237v33l46 23v377l-46 16v27h384l10 -107h-42l-33 67h-148v-175h108l16 52h39v-145h-39z" />
    <glyph glyph-name="G.smcp" 
d="M525 205l-46 -21v-168l-12 -13l-49 22q-57 -30 -130 -30q-111 0 -178 65q-65 65 -65 175q0 113 68 179q67 67 180 67q67 0 124 -23l37 13l13 -12l13 -108h-43q-41 87 -129 87q-66 0 -98.5 -47t-32.5 -148q0 -194 135 -194q27 0 42 7v131l-46 18v31h217v-31z" />
    <glyph glyph-name="Gbreve.smcp" 
d="M525 205l-46 -21v-168l-12 -13l-49 22q-57 -30 -130 -30q-111 0 -178 65q-65 65 -65 175q0 113 68 179q67 67 180 67q67 0 124 -23l37 13l13 -12l13 -108h-43q-41 87 -129 87q-66 0 -98.5 -47t-32.5 -148q0 -194 135 -194q27 0 42 7v131l-46 18v31h217v-31zM325 591
q0 19 13.5 32.5t32.5 13.5t32.5 -13t13.5 -34q0 -33 -35 -53t-90 -20t-90 20t-35 53q0 21 14 34t33 13t32.5 -13.5t13.5 -32.5q0 -39 32 -39q33 0 33 39z" />
    <glyph glyph-name="Gcircumflex.smcp" 
d="M525 205l-46 -21v-168l-12 -13l-49 22q-57 -30 -130 -30q-111 0 -178 65q-65 65 -65 175q0 113 68 179q67 67 180 67q67 0 124 -23l37 13l13 -12l13 -108h-43q-41 87 -129 87q-66 0 -98.5 -47t-32.5 -148q0 -194 135 -194q27 0 42 7v131l-46 18v31h217v-31zM183 520
l105 122h13l106 -122l-20 -20l-92 54l-92 -54z" />
    <glyph glyph-name="Gcommaaccent.smcp" 
d="M525 205l-46 -21v-168l-12 -13l-49 22q-57 -30 -130 -30q-111 0 -178 65q-65 65 -65 175q0 113 68 179q67 67 180 67q67 0 124 -23l37 13l13 -12l13 -108h-43q-41 87 -129 87q-66 0 -98.5 -47t-32.5 -148q0 -194 135 -194q27 0 42 7v131l-46 18v31h217v-31zM273 -170
l-13 13q29 29 29 45q0 2 -1 3q-17 0 -27 9.5t-10 25.5q0 17 10.5 26.5t26.5 9.5q18 0 28.5 -10.5t10.5 -28.5q0 -36 -54 -93z" />
    <glyph glyph-name="Gdotaccent.smcp" 
d="M525 205l-46 -21v-168l-12 -13l-49 22q-57 -30 -130 -30q-111 0 -178 65q-65 65 -65 175q0 113 68 179q67 67 180 67q67 0 124 -23l37 13l13 -12l13 -108h-43q-41 87 -129 87q-66 0 -98.5 -47t-32.5 -148q0 -194 135 -194q27 0 42 7v131l-46 18v31h217v-31zM292 636
q28 0 45 -16.5t17 -44.5q0 -27 -17 -44.5t-45 -17.5q-27 0 -44.5 17.5t-17.5 44.5t17.5 44t44.5 17z" />
    <glyph glyph-name="H.smcp" horiz-adv-x="593" 
d="M32 0v33l46 23v370l-46 20v30h216v-30l-45 -22v-164h186v166l-45 20v30h217v-30l-46 -22v-374l46 -20v-30h-217v33l45 23v164h-186v-170l45 -20v-30h-216z" />
    <glyph glyph-name="Hbar.smcp" horiz-adv-x="584" 
d="M78 327h-45v27l45 12v60l-46 20v30h217v-30l-46 -22v-58h178v60l-45 20v30h216v-30l-45 -22v-58l45 -12v-27h-45v-277l45 -20v-30h-216v33l45 23v164h-178v-170l46 -20v-30h-217v33l46 23v271zM203 327v-67h178v67h-178z" />
    <glyph glyph-name="Hcircumflex.smcp" horiz-adv-x="593" 
d="M32 0v33l46 23v370l-46 20v30h216v-30l-45 -22v-164h186v166l-45 20v30h217v-30l-46 -22v-374l46 -20v-30h-217v33l45 23v164h-186v-170l45 -20v-30h-216zM183 520l106 122h13l105 -122l-19 -20l-93 54l-91 -54z" />
    <glyph glyph-name="I.smcp" horiz-adv-x="280" 
d="M247 446l-45 -22v-374l45 -20v-30h-214v33l46 23v370l-46 20v30h214v-30z" />
    <glyph glyph-name="Iacute.smcp" horiz-adv-x="280" 
d="M247 446l-45 -22v-374l45 -20v-30h-214v33l46 23v370l-46 20v30h214v-30zM86 500l-20 20l106 122l70 -71z" />
    <glyph glyph-name="Ibreve.smcp" horiz-adv-x="280" 
d="M247 446l-45 -22v-374l45 -20v-30h-214v33l46 23v370l-46 20v30h214v-30zM172 591q0 19 13.5 32.5t33.5 13.5q19 0 32.5 -13t13.5 -34q0 -33 -35 -53t-90 -20t-90 20t-35 53q0 21 14 34t33 13t32.5 -13.5t13.5 -32.5q0 -39 32 -39t32 39z" />
    <glyph glyph-name="Icircumflex.smcp" horiz-adv-x="280" 
d="M247 446l-46 -22v-374l46 -20v-30h-214v33l46 23v370l-46 20v30h214v-30zM28 520l106 122h13l105 -122l-20 -20l-92 54l-92 -54z" />
    <glyph glyph-name="Idieresis.smcp" horiz-adv-x="279" 
d="M247 446l-46 -22v-374l46 -20v-30h-214v33l45 23v370l-45 20v30h214v-30zM26 531q-15 16 -15 41t15 40q16 16 41 16t41 -16q16 -15 16 -40t-16 -41t-41 -16t-41 16zM172 531q-16 16 -16 41t16 40q16 16 41 16t40 -16q16 -15 16 -40t-16 -41q-15 -16 -40 -16t-41 16z" />
    <glyph glyph-name="Idotaccent.smcp" horiz-adv-x="280" 
d="M247 446l-45 -22v-374l45 -20v-30h-214v33l46 23v370l-46 20v30h214v-30zM78 575q0 28 17 44.5t45 16.5t45 -16.5t17 -44.5q0 -27 -17 -44.5t-45 -17.5t-45 17.5t-17 44.5z" />
    <glyph glyph-name="Igrave.smcp" horiz-adv-x="280" 
d="M247 446l-45 -22v-374l45 -20v-30h-214v33l46 23v370l-46 20v30h214v-30zM49 571l70 71l107 -122l-21 -20z" />
    <glyph glyph-name="Imacron.smcp" horiz-adv-x="280" 
d="M247 446l-45 -22v-374l45 -20v-30h-214v33l46 23v370l-46 20v30h214v-30zM240 535h-200v46h200v-46z" />
    <glyph glyph-name="Iogonek.smcp" horiz-adv-x="280" 
d="M236 -119l11 -11q-33 -35 -72 -35q-46 0 -46 45q0 56 58 120h-154v33l46 23v370l-46 20v30h214v-30l-45 -22v-374l45 -20v-30h-32q-17 -24 -28.5 -55.5t-11.5 -52.5q0 -25 23 -25q21 0 38 14z" />
    <glyph glyph-name="Itilde.smcp" horiz-adv-x="280" 
d="M247 446l-45 -22v-374l45 -20v-30h-214v33l46 23v370l-46 20v30h214v-30zM25 520l-19 19q79 76 107 76q14 0 40 -17q25 -16 43 -16q32 0 62 30l18 -17q-75 -77 -110 -77q-16 0 -39 16q-25 17 -43 17q-31 0 -59 -31z" />
    <glyph glyph-name="IJ.smcp" horiz-adv-x="521" 
d="M247 446l-45 -22v-374l45 -20v-30h-214v33l46 23v370l-46 20v30h214v-30zM319 0v426l-45 20v30h213v-30l-46 -22v-424q0 -110 -143 -176l-24 24q45 56 45 152z" />
    <glyph glyph-name="J.smcp" horiz-adv-x="280" 
d="M80 0v426l-46 20v30h213v-30l-46 -22v-424q0 -110 -144 -176l-24 24q47 56 47 152z" />
    <glyph glyph-name="Jcircumflex.smcp" horiz-adv-x="280" 
d="M79 0v426l-46 20v30h214v-30l-46 -22v-424q0 -110 -144 -176l-24 24q46 55 46 152zM28 520l106 122h13l105 -122l-20 -20l-92 54l-92 -54z" />
    <glyph glyph-name="K.smcp" horiz-adv-x="545" 
d="M247 446l-45 -22v-174l181 176l-57 20v30h163v-30l-48 -20l-119 -116l155 -261l45 -19v-30h-158l-129 225l-33 -32v-143l45 -20v-30h-216v33l46 23v370l-46 20v30h216v-30z" />
    <glyph glyph-name="Kcommaaccent.smcp" horiz-adv-x="545" 
d="M247 446l-45 -22v-174l181 176l-57 20v30h163v-30l-48 -20l-119 -116l155 -261l45 -19v-30h-158l-129 225l-33 -32v-143l45 -20v-30h-216v33l46 23v370l-46 20v30h216v-30zM256 -170l-13 13q30 30 30 45l-1 1v2q-16 0 -26.5 9.5t-10.5 25.5q-3 27 25.5 34t43.5 -13
q7 -10 6 -24q0 -39 -54 -93z" />
    <glyph glyph-name="L.smcp" horiz-adv-x="462" 
d="M203 424v-384h142l33 67h41l-10 -107h-377v27l46 16v383l-46 20v30h216v-30z" />
    <glyph glyph-name="Lacute.smcp" horiz-adv-x="462" 
d="M203 424v-384h142l33 67h41l-10 -107h-377v27l46 16v383l-46 20v30h216v-30zM86 500l-20 20l106 122l70 -71z" />
    <glyph glyph-name="Lcaron.smcp" horiz-adv-x="462" 
d="M203 424v-384h142l33 67h41l-10 -107h-377v27l46 16v383l-46 20v30h216v-30zM253 619l-105 -120h-13l-106 120l21 21l91 -54l92 54z" />
    <glyph glyph-name="Lcommaaccent.smcp" horiz-adv-x="462" 
d="M203 424v-384h142l33 67h41l-10 -107h-377v27l46 16v383l-46 20v30h216v-30zM215 -170l-13 13q29 32 29 45q0 2 -1 3q-16 0 -26.5 9.5t-10.5 25.5q0 36 37 36q38 0 38 -39q0 -37 -53 -93z" />
    <glyph glyph-name="Ldot.smcp" horiz-adv-x="462" 
d="M203 424v-384h142l33 67h41l-10 -107h-377v27l46 16v383l-46 20v30h216v-30zM404 237q0 -22 -15 -36.5t-38 -14.5t-37 14t-14 37t14 37.5t37 14.5t38 -14.5t15 -37.5z" />
    <glyph glyph-name="Lslash.smcp" horiz-adv-x="462" 
d="M77 134l-26 -23l-28 28l54 52v235l-45 20v30h216v-30l-45 -22v-138l62 59l28 -28l-90 -88v-189h141l33 67h42l-10 -107h-377v27l45 16v91z" />
    <glyph glyph-name="M.smcp" horiz-adv-x="720" 
d="M664 446l-45 -22l29 -374l46 -20v-30h-217v33l45 23l-20 281l-156 -337h-55l-156 337l-23 -302l45 -19v-16h-130v19l46 22l28 385l-45 20v30h145l157 -356l163 356h143v-30z" />
    <glyph glyph-name="N.smcp" horiz-adv-x="534" 
d="M32 0v19l46 22v385l-46 20v30h163l222 -300v265l-45 19v16h130v-16l-45 -22v-438h-57l-283 388v-353l46 -19v-16h-131z" />
    <glyph glyph-name="Nacute.smcp" horiz-adv-x="534" 
d="M32 0v19l46 22v385l-46 20v30h163l222 -300v265l-45 19v16h130v-16l-45 -22v-438h-57l-283 388v-353l46 -19v-16h-131zM213 500l-21 20l107 122l70 -71z" />
    <glyph glyph-name="Ncaron.smcp" horiz-adv-x="534" 
d="M32 0v19l46 22v385l-46 20v30h163l222 -300v265l-45 19v16h130v-16l-45 -22v-438h-57l-283 388v-353l46 -19v-16h-131zM379 621l-106 -121h-12l-106 121l20 21l92 -54l92 54z" />
    <glyph glyph-name="Ncommaaccent.smcp" horiz-adv-x="534" 
d="M32 0v19l46 22v385l-46 20v30h163l222 -300v265l-45 19v16h130v-16l-45 -22v-438h-57l-283 388v-353l46 -19v-16h-131zM251 -170l-13 13q29 29 29 45v3q-17 0 -27.5 9.5t-10.5 25.5q0 17 10.5 26.5t26.5 9.5q18 0 28.5 -10.5t10.5 -28.5q0 -36 -54 -93z" />
    <glyph glyph-name="Ntilde.smcp" horiz-adv-x="534" 
d="M32 0v19l46 22v385l-46 20v30h163l222 -300v265l-45 19v16h130v-16l-45 -22v-438h-57l-283 388v-353l46 -19v-16h-131zM152 520l-19 19q79 76 107 76q15 0 40 -17q25 -16 43 -16q32 0 62 30l18 -17q-75 -77 -110 -77q-16 0 -39 16q-25 17 -43 17q-31 0 -59 -31z" />
    <glyph glyph-name="Eng.smcp" horiz-adv-x="534" 
d="M32 0v19l46 22v385l-46 20v30h168l217 -385v350l-45 19v16h130v-16l-45 -22v-438q0 -109 -145 -176l-25 24q44 53 44 152v9l-214 379v-353l46 -19v-16h-131z" />
    <glyph glyph-name="O.smcp" horiz-adv-x="574" 
d="M111 60q-66 66 -66 178t66 177q67 66 176 66t176 -66q67 -64 67 -177q0 -112 -67 -178q-68 -65 -176 -65t-176 65zM206 391q-29 -50 -29 -153t29 -153q30 -50 81 -50t81 50q30 49 30 153t-30 153q-30 50 -81 50t-81 -50z" />
    <glyph glyph-name="Oacute.smcp" horiz-adv-x="574" 
d="M111 60q-66 66 -66 178t66 177q67 66 176 66t176 -66q67 -64 67 -177q0 -112 -67 -178q-68 -65 -176 -65t-176 65zM206 391q-29 -50 -29 -153t29 -153q30 -50 81 -50t81 50q30 49 30 153t-30 153q-30 50 -81 50t-81 -50zM233 500l-20 20l106 122l70 -71z" />
    <glyph glyph-name="Obreve.smcp" horiz-adv-x="574" 
d="M111 60q-66 66 -66 178t66 177q67 66 176 66t176 -66q67 -64 67 -177q0 -112 -67 -178q-68 -65 -176 -65t-176 65zM206 391q-29 -50 -29 -153t29 -153q30 -50 81 -50t81 50q30 49 30 153t-30 153q-30 50 -81 50t-81 -50zM320 591q0 19 13.5 32.5t32.5 13.5t32.5 -13
t13.5 -34q0 -33 -35 -53t-90 -20t-90 20t-35 53q0 21 14 34t33 13t32.5 -13.5t13.5 -32.5q0 -39 32 -39q33 0 33 39z" />
    <glyph glyph-name="Ocircumflex.smcp" horiz-adv-x="574" 
d="M111 60q-66 66 -66 178t66 177q67 66 176 66t176 -66q67 -64 67 -177q0 -112 -67 -178q-68 -65 -176 -65t-176 65zM206 391q-29 -50 -29 -153t29 -153q30 -50 81 -50t81 50q30 49 30 153t-30 153q-30 50 -81 50t-81 -50zM175 520l105 122h13l106 -122l-20 -20l-93 54
l-91 -54z" />
    <glyph glyph-name="Odieresis.smcp" horiz-adv-x="574" 
d="M111 60q-66 66 -66 178t66 177q67 66 176 66t176 -66q67 -64 67 -177q0 -112 -67 -178q-68 -65 -176 -65t-176 65zM206 391q-29 -50 -29 -153t29 -153q30 -50 81 -50t81 50q30 49 30 153t-30 153q-30 50 -81 50t-81 -50zM168 531q-16 16 -16 41t16 40q16 16 41 16t40 -16
q15 -15 15 -40t-15 -41t-40 -16t-41 16zM325 531q-16 16 -16 41t16 40q16 16 41 16t40 -16q16 -15 16 -40t-16 -41q-15 -16 -40 -16t-41 16z" />
    <glyph glyph-name="Ograve.smcp" horiz-adv-x="574" 
d="M111 60q-66 66 -66 178t66 177q67 66 176 66t176 -66q67 -64 67 -177q0 -112 -67 -178q-68 -65 -176 -65t-176 65zM206 391q-29 -50 -29 -153t29 -153q30 -50 81 -50t81 50q30 49 30 153t-30 153q-30 50 -81 50t-81 -50zM185 571l69 71l107 -122l-20 -20z" />
    <glyph glyph-name="Ohungarumlaut.smcp" horiz-adv-x="574" 
d="M111 60q-66 66 -66 178t66 177q67 66 176 66t176 -66q67 -64 67 -177q0 -112 -67 -178q-68 -65 -176 -65t-176 65zM206 391q-29 -50 -29 -153t29 -153q30 -50 81 -50t81 50q30 49 30 153t-30 153q-30 50 -81 50t-81 -50zM164 500l-21 20l89 122l71 -71zM306 500l-20 20
l89 122l70 -71z" />
    <glyph glyph-name="Omacron.smcp" horiz-adv-x="574" 
d="M111 60q-66 66 -66 178t66 177q67 66 176 66t176 -66q67 -64 67 -177q0 -112 -67 -178q-68 -65 -176 -65t-176 65zM206 391q-29 -50 -29 -153t29 -153q30 -50 81 -50t81 50q30 49 30 153t-30 153q-30 50 -81 50t-81 -50zM387 535h-200v46h200v-46z" />
    <glyph glyph-name="Oslash.smcp" horiz-adv-x="574" 
d="M130 44l-41 -44h-44l61 66q-61 65 -61 172q0 112 66 177q67 66 176 66q92 0 157 -50l41 45h45l-62 -67q62 -65 62 -171q0 -112 -67 -178q-68 -65 -176 -65q-95 0 -157 49zM398 238q0 47 -8 87l-196 -212q27 -78 93 -78q52 0 81.5 51.5t29.5 151.5zM177 238q0 -55 7 -87
l196 212q-27 78 -93 78q-52 0 -81 -51t-29 -152z" />
    <glyph glyph-name="Oslashacute.smcp" horiz-adv-x="574" 
d="M130 44l-41 -44h-44l61 66q-61 65 -61 172q0 112 66 177q67 66 176 66q92 0 157 -50l41 45h45l-62 -67q62 -65 62 -171q0 -112 -67 -178q-68 -65 -176 -65q-95 0 -157 49zM398 238q0 47 -8 87l-196 -212q27 -78 93 -78q52 0 81.5 51.5t29.5 151.5zM177 238q0 -55 7 -87
l196 212q-27 78 -93 78q-52 0 -81 -51t-29 -152zM233 500l-20 20l106 122l70 -71z" />
    <glyph glyph-name="Otilde.smcp" horiz-adv-x="574" 
d="M111 60q-66 66 -66 178t66 177q67 66 176 66t176 -66q67 -64 67 -177q0 -112 -67 -178q-68 -65 -176 -65t-176 65zM206 391q-29 -50 -29 -153t29 -153q30 -50 81 -50t81 50q30 49 30 153t-30 153q-30 50 -81 50t-81 -50zM171 520l-18 19q79 76 107 76q15 0 40 -17
q23 -16 43 -16q32 0 62 30l18 -17q-75 -77 -109 -77q-17 0 -40 16q-25 17 -42 17q-30 0 -61 -31z" />
    <glyph glyph-name="OE.smcp" horiz-adv-x="733" 
d="M460 223v-183h155l33 67h42l-10 -107h-337q-32 -5 -56 -5q-108 0 -176 65q-66 66 -66 178t66 177q67 66 176 66q23 0 56 -5h330l10 -107h-42l-33 67h-148v-173h105l17 53h39v-145h-39l-17 52h-105zM287 35q29 0 48 15v376q-21 15 -48 15q-52 0 -81 -51t-29 -152t29 -152
t81 -51z" />
    <glyph glyph-name="P.smcp" horiz-adv-x="499" 
d="M245 436h-42v-383l66 -23v-30h-237v33l46 23v377l-46 16v27h226q87 0 141.5 -39t54.5 -102q0 -65 -54 -103.5t-142 -38.5h-21l-13 12v27h21q77 0 77 103q0 101 -77 101z" />
    <glyph glyph-name="Q.smcp" horiz-adv-x="575" 
d="M559 -31l12 -12q-47 -47 -123 -47q-24 0 -52 5q-47 7 -78 24l-29 18l-31 23l-28 21q-85 16 -135 79t-50 158q0 112 66 177q67 66 176 66t176 -66q67 -64 67 -177q0 -81 -38.5 -140t-105.5 -84q13 -11 44 -32q42 -26 90 -26q23 0 39 13zM206 391q-29 -50 -29 -153t29 -153
q30 -50 81 -50t81 50q30 49 30 153t-30 153q-30 50 -81 50t-81 -50z" />
    <glyph glyph-name="R.smcp" horiz-adv-x="530" 
d="M457 342q0 -44 -29 -75.5t-81 -44.5q33 -15 58 -67l56 -106l46 -19v-30h-155l-111 210h-38v-160l45 -20v-30h-216v33l46 23v377l-46 16v27h232q87 0 140 -36.5t53 -97.5zM252 436h-49v-187h49q74 0 74 94q0 93 -74 93z" />
    <glyph glyph-name="Racute.smcp" horiz-adv-x="530" 
d="M457 342q0 -44 -29 -75.5t-81 -44.5q33 -15 58 -67l56 -106l46 -19v-30h-155l-111 210h-38v-160l45 -20v-30h-216v33l46 23v377l-46 16v27h232q87 0 140 -36.5t53 -97.5zM252 436h-49v-187h49q74 0 74 94q0 93 -74 93zM211 500l-20 20l106 122l70 -71z" />
    <glyph glyph-name="Rcaron.smcp" horiz-adv-x="530" 
d="M457 342q0 -44 -29 -75.5t-81 -44.5q33 -15 58 -67l56 -106l46 -19v-30h-155l-111 210h-38v-160l45 -20v-30h-216v33l46 23v377l-46 16v27h232q87 0 140 -36.5t53 -97.5zM252 436h-49v-187h49q74 0 74 94q0 93 -74 93zM370 621l-106 -121h-13l-105 121l20 21l91 -54
l93 54z" />
    <glyph glyph-name="Rcommaaccent.smcp" horiz-adv-x="530" 
d="M457 342q0 -44 -29 -75.5t-81 -44.5q33 -15 58 -67l56 -106l46 -19v-30h-155l-111 210h-38v-160l45 -20v-30h-216v33l46 23v377l-46 16v27h232q87 0 140 -36.5t53 -97.5zM252 436h-49v-187h49q74 0 74 94q0 93 -74 93zM249 -170l-14 13q30 30 30 45q0 2 -1 3
q-17 0 -27 9.5t-10 25.5q0 36 37 36q38 0 38 -39q0 -37 -53 -93z" />
    <glyph glyph-name="S.smcp" horiz-adv-x="457" 
d="M70 3l-12 12l-13 108h42q9 -42 42.5 -65.5t76.5 -23.5q39 0 63.5 20t24.5 63q0 25 -18 37q-16 13 -82 36l-44 16q-20 9 -38 19q-33 19 -48 45t-18 71q0 65 43.5 102.5t131.5 37.5q69 0 123 -22l20 14l12 -13l13 -107h-43q-9 44 -37 66.5t-65 22.5q-36 0 -58 -21t-22 -55
q0 -26 18 -40q16 -11 74 -31q50 -19 64 -26q20 -8 47 -27q45 -31 45 -100q0 -147 -196 -147q-74 0 -127 22z" />
    <glyph glyph-name="Sacute.smcp" horiz-adv-x="457" 
d="M70 3l-12 12l-13 108h42q9 -42 42.5 -65.5t76.5 -23.5q39 0 63.5 20t24.5 63q0 25 -18 37q-16 13 -82 36l-44 16q-20 9 -38 19q-33 19 -48 45t-18 71q0 65 43.5 102.5t131.5 37.5q69 0 123 -22l20 14l12 -13l13 -107h-43q-9 44 -37 66.5t-65 22.5q-36 0 -58 -21t-22 -55
q0 -26 18 -40q16 -11 74 -31q50 -19 64 -26q20 -8 47 -27q45 -31 45 -100q0 -147 -196 -147q-74 0 -127 22zM168 500l-21 20l107 122l70 -71z" />
    <glyph glyph-name="Scaron.smcp" horiz-adv-x="457" 
d="M70 3l-12 12l-13 108h42q9 -42 42.5 -65.5t76.5 -23.5q39 0 63.5 20t24.5 63q0 25 -18 37q-16 13 -82 36l-44 16q-20 9 -38 19q-33 19 -48 45t-18 71q0 65 43.5 102.5t131.5 37.5q69 0 123 -22l20 14l12 -13l13 -107h-43q-9 44 -37 66.5t-65 22.5q-36 0 -58 -21t-22 -55
q0 -26 18 -40q16 -11 74 -31q50 -19 64 -26q20 -8 47 -27q45 -31 45 -100q0 -147 -196 -147q-74 0 -127 22zM333 621l-106 -121h-12l-106 121l20 21l92 -54l92 54z" />
    <glyph glyph-name="Scedilla.smcp" horiz-adv-x="457" 
d="M161 -83l40 78q-70 3 -112 22l-19 -14l-12 12l-13 108h42q9 -42 42.5 -65.5t76.5 -23.5q39 0 63.5 20t24.5 63q0 25 -18 37q-16 13 -82 36l-44 16q-20 9 -38 19q-33 19 -48 45t-18 71q0 65 43.5 102.5t131.5 37.5q69 0 123 -22l20 14l12 -13l13 -107h-43q-9 44 -37 66.5
t-65 22.5q-36 0 -58 -21t-22 -55q0 -26 18 -40q16 -11 74 -31q50 -19 64 -26q20 -8 47 -27q45 -31 45 -100q0 -141 -183 -147l-10 -21q25 0 40.5 -9.5t15.5 -26.5q0 -25 -80 -103l-10 11q33 34 33 48q0 23 -57 23z" />
    <glyph glyph-name="Scircumflex.smcp" horiz-adv-x="457" 
d="M70 3l-12 12l-13 108h42q9 -42 42.5 -65.5t76.5 -23.5q39 0 63.5 20t24.5 63q0 25 -18 37q-16 13 -82 36l-44 16q-20 9 -38 19q-33 19 -48 45t-18 71q0 65 43.5 102.5t131.5 37.5q69 0 123 -22l20 14l12 -13l13 -107h-43q-9 44 -37 66.5t-65 22.5q-36 0 -58 -21t-22 -55
q0 -26 18 -40q16 -11 74 -31q50 -19 64 -26q20 -8 47 -27q45 -31 45 -100q0 -147 -196 -147q-74 0 -127 22zM108 520l106 122h13l106 -122l-20 -20l-93 54l-91 -54z" />
    <glyph glyph-name="Scommaaccent.smcp" horiz-adv-x="457" 
d="M70 3l-12 12l-13 108h42q9 -42 42.5 -65.5t76.5 -23.5q39 0 63.5 20t24.5 63q0 25 -18 37q-16 13 -82 36l-44 16q-20 9 -38 19q-33 19 -48 45t-18 71q0 65 43.5 102.5t131.5 37.5q69 0 123 -22l20 14l12 -13l13 -107h-43q-9 44 -37 66.5t-65 22.5q-36 0 -58 -21t-22 -55
q0 -26 18 -40q16 -11 74 -31q50 -19 64 -26q20 -8 47 -27q45 -31 45 -100q0 -147 -196 -147q-74 0 -127 22zM201 -170l-14 13q29 29 29 45q0 2 -1 3q-16 0 -26.5 9.5t-10.5 25.5q0 36 38 36t38 -39q0 -34 -53 -93z" />
    <glyph glyph-name="T.smcp" horiz-adv-x="513" 
d="M439 369l-32 67h-87v-386l45 -20v-30h-216v33l45 23v380h-88l-32 -72h-42l10 112h430l10 -107h-43z" />
    <glyph glyph-name="Tbar.smcp" horiz-adv-x="513" 
d="M194 216h-67v40h67v180h-88l-32 -72h-42l10 112h430l10 -107h-43l-32 67h-87v-180h67v-40h-67v-166l45 -20v-30h-216v33l45 23v160z" />
    <glyph glyph-name="Tcaron.smcp" horiz-adv-x="513" 
d="M439 369l-32 67h-87v-386l45 -20v-30h-216v33l45 23v380h-88l-32 -72h-42l10 112h430l10 -107h-43zM369 621l-106 -121h-13l-106 121l20 21l92 -54l92 54z" />
    <glyph glyph-name="Tcommaaccent.smcp" horiz-adv-x="513" 
d="M439 369l-32 67h-87v-386l45 -20v-30h-216v33l45 23v380h-88l-32 -72h-42l10 112h430l10 -107h-43zM240 -170l-13 13q30 30 30 45q0 1 -2 3q-16 0 -26.5 9.5t-10.5 25.5q0 22 19 31.5t38 -0.5t19 -34q0 -39 -54 -93z" />
    <glyph glyph-name="uni021A.smcp" horiz-adv-x="513" 
d="M439 369l-32 67h-87v-386l45 -20v-30h-216v33l45 23v380h-88l-32 -72h-42l10 112h430l10 -107h-43zM240 -170l-13 13q30 30 30 45q0 1 -2 3q-16 0 -26.5 9.5t-10.5 25.5q0 22 19 31.5t38 -0.5t19 -34q0 -39 -54 -93z" />
    <glyph glyph-name="U.smcp" 
d="M525 460l-46 -22v-257q0 -84 -55.5 -135t-146.5 -51q-88 0 -144 50q-55 51 -55 136v245l-46 20v30h216v-30l-45 -22v-243q0 -63 32 -95t89 -32q56 0 88.5 32.5t32.5 94.5v260l-45 19v16h125v-16z" />
    <glyph glyph-name="Uacute.smcp" 
d="M525 460l-46 -22v-257q0 -84 -55.5 -135t-146.5 -51q-88 0 -144 50q-55 51 -55 136v245l-46 20v30h216v-30l-45 -22v-243q0 -63 32 -95t89 -32q56 0 88.5 32.5t32.5 94.5v260l-45 19v16h125v-16zM236 500l-20 20l106 122l70 -71z" />
    <glyph glyph-name="Ubreve.smcp" 
d="M525 460l-46 -22v-257q0 -84 -55.5 -135t-146.5 -51q-88 0 -144 50q-55 51 -55 136v245l-46 20v30h216v-30l-45 -22v-243q0 -63 32 -95t89 -32q56 0 88.5 32.5t32.5 94.5v260l-45 19v16h125v-16zM322 591q0 19 13.5 32.5t33.5 13.5q19 0 32.5 -13t13.5 -34q0 -33 -35 -53
t-90 -20t-90.5 20t-35.5 53q0 21 14 34t33 13t32.5 -13.5t13.5 -32.5q0 -39 33 -39q32 0 32 39z" />
    <glyph glyph-name="Ucircumflex.smcp" 
d="M525 460l-46 -22v-257q0 -84 -55.5 -135t-146.5 -51q-88 0 -144 50q-55 51 -55 136v245l-46 20v30h216v-30l-45 -22v-243q0 -63 32 -95t89 -32q56 0 88.5 32.5t32.5 94.5v260l-45 19v16h125v-16zM178 520l105 122h14l105 -122l-20 -20l-92 54l-92 -54z" />
    <glyph glyph-name="Udieresis.smcp" 
d="M525 460l-46 -22v-257q0 -84 -55.5 -135t-146.5 -51q-88 0 -144 50q-55 51 -55 136v245l-46 20v30h216v-30l-45 -22v-243q0 -63 32 -95t89 -32q56 0 88.5 32.5t32.5 94.5v260l-45 19v16h125v-16zM171 531q-16 16 -16 41t16 40q16 16 41 16t40 -16q16 -15 16 -40t-16 -41
q-15 -16 -40 -16t-41 16zM327 531q-15 16 -15 41t15 40q16 16 41 16t41 -16q16 -15 16 -40t-16 -41t-41 -16t-41 16z" />
    <glyph glyph-name="Ugrave.smcp" 
d="M525 460l-46 -22v-257q0 -84 -55.5 -135t-146.5 -51q-88 0 -144 50q-55 51 -55 136v245l-46 20v30h216v-30l-45 -22v-243q0 -63 32 -95t89 -32q56 0 88.5 32.5t32.5 94.5v260l-45 19v16h125v-16zM188 571l70 71l106 -122l-20 -20z" />
    <glyph glyph-name="Uhungarumlaut.smcp" 
d="M525 460l-46 -22v-257q0 -84 -55.5 -135t-146.5 -51q-88 0 -144 50q-55 51 -55 136v245l-46 20v30h216v-30l-45 -22v-243q0 -63 32 -95t89 -32q56 0 88.5 32.5t32.5 94.5v260l-45 19v16h125v-16zM166 500l-20 20l89 122l70 -71zM309 500l-21 20l89 122l70 -71z" />
    <glyph glyph-name="Umacron.smcp" 
d="M525 460l-46 -22v-257q0 -84 -55.5 -135t-146.5 -51q-88 0 -144 50q-55 51 -55 136v245l-46 20v30h216v-30l-45 -22v-243q0 -63 32 -95t89 -32q56 0 88.5 32.5t32.5 94.5v260l-45 19v16h125v-16zM390 535h-200v46h200v-46z" />
    <glyph glyph-name="Uogonek.smcp" 
d="M345 -119l12 -11q-35 -35 -73 -35q-46 0 -46 45q0 54 53 116q-1 0 -6.5 -0.5t-7.5 -0.5q-88 0 -144 50q-55 51 -55 136v245l-46 20v30h216v-30l-45 -22v-243q0 -63 32 -95t89 -32q56 0 88.5 32.5t32.5 94.5v260l-45 19v16h125v-16l-46 -22v-257q0 -74 -41.5 -122
t-113.5 -60q-40 -56 -40 -107q0 -25 24 -25q20 0 37 14z" />
    <glyph glyph-name="Uring.smcp" 
d="M525 460l-46 -22v-257q0 -84 -55.5 -135t-146.5 -51q-88 0 -144 50q-55 51 -55 136v245l-46 20v30h216v-30l-45 -22v-243q0 -63 32 -95t89 -32q56 0 88.5 32.5t32.5 94.5v260l-45 19v16h125v-16zM239 561q0 26 17 42t45 16q29 0 46 -16t17 -42q0 -27 -17 -42t-46 -15
q-28 0 -45 15t-17 42zM301 592q-21 0 -21 -31t21 -31t21 31t-21 31z" />
    <glyph glyph-name="Utilde.smcp" 
d="M525 460l-46 -22v-257q0 -84 -55.5 -135t-146.5 -51q-88 0 -144 50q-55 51 -55 136v245l-46 20v30h216v-30l-45 -22v-243q0 -63 32 -95t89 -32q56 0 88.5 32.5t32.5 94.5v260l-45 19v16h125v-16zM185 520l-18 19q79 76 108 76q16 0 39 -17q23 -16 42 -16q33 0 63 30
l19 -17q-77 -77 -110 -77q-17 0 -40 16q-25 17 -42 17q-30 0 -61 -31z" />
    <glyph glyph-name="V.smcp" horiz-adv-x="582" 
d="M317 0h-54l-196 426l-45 20v30h216v-30l-45 -20l137 -306l140 306l-56 20v30h146v-30l-45 -20z" />
    <glyph glyph-name="W.smcp" horiz-adv-x="878" 
d="M618 0h-55l-128 288l-122 -288h-55l-191 426l-45 20v30h216v-30l-45 -20l132 -306l89 216l-42 90l-44 20v30h217v-30l-46 -20l132 -306l136 306l-56 20v30h145v-30l-45 -20z" />
    <glyph glyph-name="Wacute.smcp" horiz-adv-x="878" 
d="M618 0h-55l-128 288l-122 -288h-55l-191 426l-45 20v30h216v-30l-45 -20l132 -306l89 216l-42 90l-44 20v30h217v-30l-46 -20l132 -306l136 306l-56 20v30h145v-30l-45 -20zM385 500l-20 20l106 122l70 -71z" />
    <glyph glyph-name="Wcircumflex.smcp" horiz-adv-x="878" 
d="M618 0h-55l-128 288l-122 -288h-55l-191 426l-45 20v30h216v-30l-45 -20l132 -306l89 216l-42 90l-44 20v30h217v-30l-46 -20l132 -306l136 306l-56 20v30h145v-30l-45 -20zM329 520l106 122h13l106 -122l-20 -20l-92 54l-92 -54z" />
    <glyph glyph-name="Wdieresis.smcp" horiz-adv-x="878" 
d="M618 0h-55l-128 288l-122 -288h-55l-191 426l-45 20v30h216v-30l-45 -20l132 -306l89 216l-42 90l-44 20v30h217v-30l-46 -20l132 -306l136 306l-56 20v30h145v-30l-45 -20zM323 531q-15 16 -15 41t15 40q16 16 41 16t41 -16q16 -15 16 -40t-16 -41t-41 -16t-41 16z
M480 531q-15 16 -15 41t15 40q16 16 41 16t40 -16q16 -15 16 -40t-16 -41q-15 -16 -40 -16t-41 16z" />
    <glyph glyph-name="Wgrave.smcp" horiz-adv-x="878" 
d="M618 0h-55l-128 288l-122 -288h-55l-191 426l-45 20v30h216v-30l-45 -20l132 -306l89 216l-42 90l-44 20v30h217v-30l-46 -20l132 -306l136 306l-56 20v30h145v-30l-45 -20zM340 571l70 71l106 -122l-20 -20z" />
    <glyph glyph-name="X.smcp" horiz-adv-x="559" 
d="M310 30l45 17l-112 151l-119 -151l50 -17v-30h-149v30l50 17l146 182l-149 200l-42 17v30h224v-30l-46 -17l104 -141l109 141l-50 17v30h149v-30l-50 -17l-137 -170l157 -212l43 -17v-30h-223v30z" />
    <glyph glyph-name="Y.smcp" horiz-adv-x="530" 
d="M244 446l-46 -17l107 -187l106 187l-49 17v30h146v-30l-50 -17l-135 -234v-145l46 -20v-30h-217v33l46 23v138l-133 235l-43 17v30h222v-30z" />
    <glyph glyph-name="Yacute.smcp" horiz-adv-x="530" 
d="M244 446l-46 -17l107 -187l106 187l-49 17v30h146v-30l-50 -17l-135 -234v-145l46 -20v-30h-217v33l46 23v138l-133 235l-43 17v30h222v-30zM239 500l-21 20l106 122l70 -71z" />
    <glyph glyph-name="Ycircumflex.smcp" horiz-adv-x="530" 
d="M244 446l-46 -17l107 -187l106 187l-49 17v30h146v-30l-50 -17l-135 -234v-145l46 -20v-30h-217v33l46 23v138l-133 235l-43 17v30h222v-30zM158 520l106 122h12l106 -122l-20 -20l-92 54l-92 -54z" />
    <glyph glyph-name="Ydieresis.smcp" horiz-adv-x="530" 
d="M244 446l-46 -17l107 -187l106 187l-49 17v30h146v-30l-50 -17l-135 -234v-145l46 -20v-30h-217v33l46 23v138l-133 235l-43 17v30h222v-30zM145 531q-16 16 -16 41t16 40q16 16 41 16t41 -16q16 -15 16 -40t-16 -41t-41 -16t-41 16zM302 531q-15 16 -15 41t15 40
q16 16 41 16t41 -16q16 -15 16 -40t-16 -41t-41 -16t-41 16z" />
    <glyph glyph-name="Ygrave.smcp" horiz-adv-x="530" 
d="M244 446l-46 -17l107 -187l106 187l-49 17v30h146v-30l-50 -17l-135 -234v-145l46 -20v-30h-217v33l46 23v138l-133 235l-43 17v30h222v-30zM168 571l70 71l106 -122l-20 -20z" />
    <glyph glyph-name="Z.smcp" horiz-adv-x="480" 
d="M432 0h-387v25l251 411h-175l-32 -72h-42l10 112h380v-25l-254 -411h185l32 73h42z" />
    <glyph glyph-name="Zacute.smcp" horiz-adv-x="480" 
d="M432 0h-387v25l251 411h-175l-32 -72h-42l10 112h380v-25l-254 -411h185l32 73h42zM186 500l-20 20l107 122l69 -71z" />
    <glyph glyph-name="Zcaron.smcp" horiz-adv-x="480" 
d="M432 0h-387v25l251 411h-175l-32 -72h-42l10 112h380v-25l-254 -411h185l32 73h42zM352 621l-106 -121h-12l-106 121l20 21l92 -54l92 54z" />
    <glyph glyph-name="Zdotaccent.smcp" horiz-adv-x="480" 
d="M432 0h-387v25l251 411h-175l-32 -72h-42l10 112h380v-25l-254 -411h185l32 73h42zM178 575q0 28 17.5 44.5t45.5 16.5t44.5 -16.5t16.5 -44.5q0 -27 -17 -44.5t-44 -17.5q-28 0 -45.5 17.5t-17.5 44.5z" />
    <glyph glyph-name="uni018F.smcp" horiz-adv-x="551" 
d="M93 378l-25 26q82 77 193 77q112 0 179 -65q66 -64 66 -175q0 -112 -68 -180q-68 -66 -179 -66q-95 0 -155 48q-59 48 -59 124q0 24 5 42l19 19h306q1 199 -152 199q-80 0 -130 -49zM372 188l-214 -19q0 -63 24 -97t69 -34q47 0 80 38t41 112z" />
    <glyph glyph-name="f_b" horiz-adv-x="922" 
d="M422 34v645q-29 32 -79 32q-58 0 -90.5 -35.5t-32.5 -100.5v-115h143v-46h-143v-354l93 -25v-35h-284v38l60 26v350h-60v38l60 15v106q0 84 69.5 133t189.5 49q51 0 95 -10l95 13l15 -16v-282l-2 -48l3 -3q24 26 64.5 41t83.5 15q87 0 133 -64q48 -65 48 -166
q0 -119 -67 -179.5t-197 -60.5q-115 0 -197 39zM553 367v-306q34 -22 81 -22q116 0 116 188q0 182 -104 182q-58 0 -93 -42z" />
    <glyph glyph-name="f_f_b" horiz-adv-x="1255" 
d="M756 34v645q-30 32 -80 32q-58 0 -90.5 -35.5t-32.5 -100.5v-115h143v-46h-143v-354l93 -25v-35h-284v38l60 26v350h-202v-354l93 -25v-35h-284v38l60 26v350h-60v38l60 15v67q0 92 76 146q76 55 196 55q80 0 132 -31q71 51 188 51q51 0 95 -10l95 13l16 -16v-282l-3 -48
l3 -3q56 56 148 56q87 0 133 -64q48 -65 48 -166q0 -119 -67 -179.5t-197 -60.5q-114 0 -196 39zM395 460l27 7v106q0 54 31 95q-35 23 -94 23q-139 0 -139 -154v-77h175zM887 367v-306q31 -22 81 -22q115 0 115 188q0 182 -104 182q-59 0 -92 -42z" />
    <glyph glyph-name="f_h" horiz-adv-x="962" 
d="M553 362v-306l55 -21v-35h-246v38l60 26v615q-29 32 -79 32q-58 0 -90.5 -35.5t-32.5 -100.5v-115h143v-46h-143v-354l93 -25v-35h-284v38l60 26v350h-60v38l60 15v106q0 84 69.5 133t189.5 49q51 0 95 -10l95 13l15 -16v-282l-2 -51l3 -3q29 27 75 43t90 16
q73 0 114 -48q41 -49 41 -119v-242l60 -21v-35h-246v38l54 26v225q0 57 -20.5 88.5t-58.5 31.5q-26 0 -58 -13t-52 -34z" />
    <glyph glyph-name="f_f_h" horiz-adv-x="1296" 
d="M887 362v-306l54 -21v-35h-245v38l60 26v615q-30 32 -80 32q-58 0 -90.5 -35.5t-32.5 -100.5v-115h143v-46h-143v-354l93 -25v-35h-284v38l60 26v350h-202v-354l93 -25v-35h-284v38l60 26v350h-60v38l60 15v67q0 92 76 146q76 55 196 55q80 0 132 -31q71 51 188 51
q51 0 95 -10l95 13l16 -16v-282l-3 -51l3 -3q29 27 75 43t90 16q74 0 114 -48q41 -49 41 -119v-242l60 -21v-35h-245v38l54 26v225q0 57 -20.5 88.5t-58.5 31.5q-26 0 -58.5 -13t-51.5 -34zM395 460l27 7v106q0 54 31 95q-35 23 -94 23q-139 0 -139 -154v-77h175z" />
    <glyph glyph-name="f_k" horiz-adv-x="909" 
d="M899 0h-164l-130 217l-52 -49v-112l60 -21v-35h-251v38l60 26v615q-29 32 -79 32q-58 0 -90.5 -35.5t-32.5 -100.5v-115h143v-46h-143v-354l93 -25v-35h-284v38l60 26v350h-60v38l60 15v106q0 84 69.5 133t189.5 49q51 0 95 -10l95 13l15 -16v-508l185 170l-77 21v35h204
v-35l-58 -21l-111 -101l142 -247l61 -21v-35z" />
    <glyph glyph-name="f_f_k" horiz-adv-x="1243" 
d="M1232 0h-163l-130 217l-52 -49v-112l60 -21v-35h-251v38l60 26v615q-30 32 -80 32q-58 0 -90.5 -35.5t-32.5 -100.5v-115h143v-46h-143v-354l93 -25v-35h-284v38l60 26v350h-202v-354l93 -25v-35h-284v38l60 26v350h-60v38l60 15v67q0 92 76 146q76 55 196 55
q80 0 132 -31q71 51 188 51q51 0 95 -10l95 13l16 -16v-508l184 170l-77 21v35h204v-35l-58 -21l-111 -101l143 -247l60 -21v-35zM395 460l27 7v106q0 54 31 95q-35 23 -94 23q-139 0 -139 -154v-77h175z" />
    <glyph glyph-name="f_t" horiz-adv-x="731" 
d="M422 134v545q-29 32 -81 32q-57 0 -89 -35t-32 -101v-115h143v-46h-143v-354l93 -25v-35h-284v38l60 26v350h-60v38l60 15v106q0 84 70 133t196 49q75 0 121 -19t77 -62v-214h131v-46h-131v-280q0 -85 71 -85q38 0 58 21l23 -23q-52 -52 -133 -52q-69 0 -109.5 38
t-40.5 101z" />
    <glyph glyph-name="f_f_t" horiz-adv-x="1064" 
d="M756 134v545q-30 32 -81 32q-58 0 -90 -35.5t-32 -100.5v-115h143v-46h-143v-354l93 -23v-38h-284v40l60 25v350h-202v-354l93 -23v-38h-284v40l60 25v350h-60v38l60 15v67q0 92 76 146q76 55 196 55q80 0 132 -31q71 51 195 51q76 0 121 -19t78 -62v-214h130v-46h-130
v-280q0 -85 70 -85q38 0 59 21l22 -23q-49 -51 -133 -51q-69 0 -109 37.5t-40 100.5zM395 460l27 7v106q0 54 31 95q-35 23 -94 23q-139 0 -139 -154v-77h175z" />
    <glyph glyph-name="germandbls.smcp" horiz-adv-x="545" 
d="M275 12h-20v84h42q17 -59 63 -59q42 0 42 37q0 12 -11 22t-40 22q-46 22 -71 41q-28 25 -28 70q0 39 29 80q30 41 30 74q0 59 -60 59q-31 0 -44 -18.5t-13 -65.5v-311l42 -17v-30h-204v33l42 20v220h-42v34l42 11v37q0 125 188 125q145 0 145 -71q0 -25 -30 -67
q-29 -43 -29 -72q0 -20 9.5 -29t37.5 -21q54 -26 76 -43q33 -25 33 -76q0 -105 -139 -105q-49 0 -90 16z" />
    <glyph glyph-name="zero.fitted" horiz-adv-x="579" 
d="M94 89q-74 98 -74 261t74 260q73 97 195 97t195 -97q75 -96 75 -260t-75 -261q-74 -96 -195 -96t-195 96zM159 350q0 -149 35 -229.5t96 -80.5q60 0 95 81t35 229q0 150 -35 230t-95 80q-61 0 -96 -80t-35 -230z" />
    <glyph glyph-name="one.fitted" horiz-adv-x="579" 
d="M455 0h-324v38l97 26v556h-108v41l222 47l17 -16v-636l96 -21v-35z" />
    <glyph glyph-name="two.fitted" horiz-adv-x="579" 
d="M515 0h-465v58q69 59 110 98q47 43 90 91q49 54 73 93q60 98 60 198q0 120 -118 120q-62 0 -105 -40v-64q0 -22 -16.5 -38t-38.5 -16q-23 0 -38 15.5t-15 46.5q0 61 59 102q61 41 164 41q107 0 168 -48t61 -137q0 -118 -108 -232q-57 -59 -98 -94q-28 -24 -116 -92
l-12 -9h276l31 86h47z" />
    <glyph glyph-name="three.fitted" horiz-adv-x="579" 
d="M168 627v-58q0 -22 -16 -38t-38 -16t-38 16t-16 45q0 60 62 95t154 35q105 0 168 -48t63 -129q0 -60 -35 -100.5t-96 -58.5q75 -20 117 -67t42 -113q0 -90 -72 -143q-73 -53 -188 -53q-93 0 -158 35q-63 35 -63 95q0 29 15.5 45t37.5 16q23 0 39 -16t16 -38v-59
q37 -29 96 -29q65 0 104.5 40t39.5 113q0 74 -44 111.5t-124 37.5h-50v47h44q74 0 110.5 30.5t36.5 97.5q0 66 -32 101.5t-86 35.5q-55 0 -89 -30z" />
    <glyph glyph-name="four.fitted" horiz-adv-x="579" 
d="M528 0h-244v38l59 26v86h-304v32q89 146 132 264q45 118 45 254h131q0 -136 -64 -254q-65 -120 -179 -250h239v162l110 110l16 -16v-256h72v-46h-72v-94l59 -21v-35z" />
    <glyph glyph-name="five.fitted" horiz-adv-x="579" 
d="M169 120v-57q36 -21 83 -21q67 0 102.5 42.5t35.5 123.5q0 179 -155 179q-65 0 -108 -30l-30 29l30 314q217 0 336 16v-110h-285l-39 -202q58 31 132 31q115 0 183 -59.5t68 -161.5q0 -101 -69 -160t-190 -59q-88 0 -146 32q-57 31 -57 87q0 28 16 44t38 16
q23 0 39 -15.5t16 -38.5z" />
    <glyph glyph-name="six.fitted" horiz-adv-x="579" 
d="M174 387q52 43 138 43q104 0 165 -58q62 -59 62 -156q0 -104 -69 -162q-68 -59 -171 -59q-125 0 -193 86q-66 87 -66 232q0 199 121 295q113 89 288 100l30 -30q-295 -45 -305 -291zM173 322q0 -148 29.5 -214t90.5 -66q52 0 82.5 44t30.5 123q0 81 -34.5 123t-93.5 42
q-72 0 -105 -52z" />
    <glyph glyph-name="seven.fitted" horiz-adv-x="579" 
d="M334 0h-131q0 83 25 164q25 80 56 138q60 106 86 150q56 95 85 152h-322l-34 -84h-47l13 180h467v-32q-24 -67 -63 -163q-10 -25 -24.5 -62t-24.5 -63t-18 -46q-23 -61 -47 -160q-21 -93 -21 -174z" />
    <glyph glyph-name="eight.fitted" horiz-adv-x="579" 
d="M515 545q0 -107 -120 -166q76 -34 112 -75q37 -40 37 -112q0 -199 -265 -199q-244 0 -244 172q0 66 36 107.5t110 72.5q-60 29 -90 70t-30 104q0 82 56 135t180 53q108 0 163 -43.5t55 -118.5zM263 310l-30 11q-71 -65 -71 -156q0 -64 32.5 -95t88.5 -31q62 0 98 33
t36 96q0 52 -32 79q-31 28 -122 63zM183 546q0 -56 30 -81q30 -24 110 -56q10 -5 16 -7q54 62 54 140q0 59 -26.5 89t-74.5 30q-51 0 -80 -31t-29 -84z" />
    <glyph glyph-name="nine.fitted" horiz-adv-x="579" 
d="M403 314q-56 -44 -138 -44q-103 0 -164 57t-61 155q0 103 69 163q71 60 176 60q122 0 187 -83t65 -234q0 -373 -415 -395l-31 30q299 41 312 291zM404 378q0 149 -28 214.5t-87 65.5q-54 0 -85 -45t-31 -125t33.5 -121t92.5 -41q71 0 105 52z" />
    <glyph glyph-name="zero.taboldstyle" horiz-adv-x="569" 
d="M284 467q117 0 187 -64q72 -64 72 -173q0 -108 -72 -173q-70 -64 -187 -64q-116 0 -187 64q-71 65 -71 173t71 173q71 64 187 64zM285 40q55 0 87 49.5t32 140.5t-32 140.5t-87 49.5q-56 0 -88 -49.5t-32 -140.5t32 -140.5t88 -49.5z" />
    <glyph glyph-name="one.taboldstyle" horiz-adv-x="569" 
d="M450 0h-323v38l96 26v316h-107v41l221 47l17 -16v-396l96 -21v-35z" />
    </font>
</defs>
</svg>
