<?xml version="1.0" standalone="no"?>
<!DOCTYPE svg PUBLIC "-//W3C//DTD SVG 1.1//EN" "http://www.w3.org/Graphics/SVG/1.1/DTD/svg11.dtd" >
<svg xmlns="http://www.w3.org/2000/svg" xmlns:xlink="http://www.w3.org/1999/xlink" version="1.1">
<metadata>
Created by FontForge 20150318 at Mon Jul 20 20:57:58 2015
 By uniteet7
Copyright (c) 2014 by Andriy Konstantynov. All rights reserved.
</metadata>
<defs>
<font id="AngleciaProTextLightItalic" horiz-adv-x="574" >
  <font-face 
    font-family="AngleciaProTextLightItalic"
    font-weight="300"
    font-style="italic"
    font-stretch="normal"
    units-per-em="1000"
    panose-1="2 5 0 3 6 0 0 0 0 0"
    ascent="748"
    descent="-252"
    x-height="464"
    cap-height="700"
    bbox="-90.8889 -256 1262 980"
    underline-thickness="50"
    underline-position="-50"
    slope="-12"
    unicode-range="U+000D-FB04"
  />
<missing-glyph horiz-adv-x="199" 
 />
    <glyph glyph-name="ff" unicode="ff" horiz-adv-x="658" 
d="M-11 -200l-4 -24q69 0 116 224l89 430h-58l5 24l60 11l19 85q16 84 89 134q74 50 172 50q67 0 104 -24q50 44 124 44q57 0 89 -29q31 -28 23 -70q-7 -42 -44 -42q-16 0 -24.5 10.5t-5.5 26.5l12 57q-18 18 -52 18q-41 0 -71.5 -34t-43.5 -95l-29 -136h167l-6 -30h-167
l-89 -430q-22 -108 -101 -171q-77 -64 -184 -64q-67 0 -107 25q-48 -45 -104 -45q-34 0 -48 14t-10 37q4 19 18 31t31 12q15 0 24.5 -11.5t5.5 -27.5zM390 0l89 430h-215l-89 -430q-25 -118 -78 -186q38 -20 93 -20q75 0 127.5 54.5t72.5 151.5zM462 460l25 5l27 130
q11 54 41 90q-35 20 -89 20q-69 0 -115.5 -41t-60.5 -113l-20 -91h192z" />
    <glyph glyph-name="fi" unicode="fi" horiz-adv-x="557" 
d="M-11 -200l-4 -24q69 0 116 224l89 430h-58l5 24l60 11l28 130q15 71 78 115q65 44 151 44q76 0 115.5 -33t29.5 -82q-5 -25 -21 -38.5t-36 -13.5q-19 0 -30.5 14t-7.5 33l15 70q-25 21 -74 21q-56 0 -95 -34.5t-52 -94.5l-28 -136h164l115 6l9 -12l-77 -370
q-10 -49 16 -49q18 0 46 23l10 -12q-23 -20 -55.5 -35t-56.5 -15q-52 0 -37 76l72 339l-42 19h-170l-89 -430q-24 -113 -80 -185q-55 -70 -127 -70q-34 0 -48 14t-10 37q4 19 18 31t31 12q15 0 24.5 -11.5t5.5 -27.5z" />
    <glyph glyph-name="fl" unicode="fl" horiz-adv-x="557" 
d="M-11 -200l-4 -24q69 0 116 224l89 430h-58l5 24l60 11l28 130q15 73 78.5 116t157.5 43q39 0 76 -8l72 10l9 -12l-137 -660q-10 -49 16 -49q18 0 46 23l10 -12q-23 -20 -55.5 -35t-56.5 -15q-52 0 -37 76l131 625q-28 28 -80 28q-60 0 -102 -34.5t-55 -94.5l-28 -136h147
l-6 -30h-147l-89 -430q-24 -113 -80 -185q-55 -70 -127 -70q-34 0 -48 14t-10 37q4 19 18 31t31 12q15 0 24.5 -11.5t5.5 -27.5z" />
    <glyph glyph-name="ffi" unicode="ffi" horiz-adv-x="847" 
d="M-11 -200l-4 -24q69 0 116 224l89 430h-58l5 24l60 11l19 85q16 84 89 134t172 50q69 0 113 -26q61 46 153 46q76 0 116 -33t30 -82q-5 -25 -21 -38.5t-36 -13.5q-19 0 -30.5 14t-7.5 33l15 70q-29 21 -74 21q-56 0 -95.5 -34.5t-51.5 -94.5l-29 -136h164l116 6l9 -12
l-78 -370q-10 -49 16 -49q19 0 47 23l9 -12q-61 -50 -112 -50t-36 76l71 339l-41 19h-171l-89 -430q-22 -108 -101 -171q-77 -64 -184 -64q-67 0 -107 25q-48 -45 -104 -45q-34 0 -48 14t-10 37q4 19 18 31t31 12q15 0 24.5 -11.5t5.5 -27.5zM390 0l89 430h-215l-89 -430
q-25 -118 -78 -186q38 -20 93 -20q75 0 127.5 54.5t72.5 151.5zM462 460l26 5l27 130q10 47 45 88q-37 22 -93 22q-69 0 -116 -41t-61 -113l-20 -91h192z" />
    <glyph glyph-name="ffl" unicode="ffl" horiz-adv-x="847" 
d="M-11 -200l-4 -24q69 0 116 224l89 430h-58l5 24l60 11l19 85q16 84 88 134q73 50 171 50q69 0 112 -29q62 49 164 49q39 0 76 -8l72 10l9 -12l-138 -660q-10 -49 16 -49q19 0 47 23l9 -12q-61 -50 -112 -50t-36 76l131 625q-28 28 -80 28q-60 0 -102.5 -34.5t-54.5 -94.5
l-29 -136h148l-6 -30h-148l-89 -430q-22 -108 -101 -171q-77 -64 -184 -64q-67 0 -107 25q-48 -45 -104 -45q-34 0 -48 14t-10 37q4 19 18 31t31 12q15 0 24.5 -11.5t5.5 -27.5zM390 0l89 430h-215l-89 -430q-25 -118 -78 -186q38 -20 93 -20q75 0 127.5 54.5t72.5 151.5z
M462 460l25 5l27 130q11 51 44 87q-35 23 -92 23q-69 0 -115.5 -41t-60.5 -113l-20 -91h192z" />
    <glyph glyph-name="f_f_j" unicode="ffj" horiz-adv-x="832" 
d="M-11 -200l-4 -24q69 0 116 224l89 430h-58l5 24l60 11l19 85q16 84 89 134t172 50q69 0 113 -26q56 46 145 46q72 0 110.5 -33t29.5 -82q-5 -25 -21.5 -38.5t-35.5 -13.5t-30.5 14t-7.5 33l14 70q-24 21 -67 21q-53 0 -90 -34.5t-49 -94.5l-29 -136h150l115 6l9 -12
l-88 -424q-23 -109 -101 -171q-79 -64 -185 -64q-66 0 -106 25q-74 -55 -174 -55q-67 0 -107 25q-48 -45 -104 -45q-34 0 -48 14t-10 37q4 19 18 31t31 12q15 0 24.5 -11.5t5.5 -27.5zM390 0l89 430h-215l-89 -430q-25 -118 -78 -186q38 -20 93 -20q75 0 127.5 54.5
t72.5 151.5zM671 30l80 381l-41 19h-157l-89 -430q-21 -95 -83 -157q37 -19 89 -19q75 0 128 54.5t73 151.5zM462 460l26 5l27 130q10 47 45 88q-37 22 -92 22q-70 0 -117 -41t-61 -113l-20 -91h192z" />
    <glyph glyph-name="f_j" unicode="fj" horiz-adv-x="556" 
d="M270 460h164l115 6l9 -12l-94 -454q-22 -108 -101 -171q-77 -64 -184 -64q-67 0 -107 25q-48 -45 -104 -45q-34 0 -48 14t-10 37q4 19 18 31t31 12q15 0 24.5 -11.5t5.5 -27.5l-4 -24q69 0 116 224l89 430h-58l5 24l60 11l28 130q15 71 78 115q65 44 151 44
q76 0 115.5 -33t29.5 -82q-5 -25 -21 -38.5t-36 -13.5q-19 0 -30.5 14t-7.5 33l15 70q-25 21 -74 21q-56 0 -95 -34.5t-52 -94.5zM390 0l86 411l-42 19h-170l-89 -430q-25 -118 -78 -186q38 -20 93 -20q75 0 127.5 54.5t72.5 151.5z" />
    <glyph glyph-name=".notdef" horiz-adv-x="199" 
 />
    <glyph glyph-name=".null" horiz-adv-x="0" 
 />
    <glyph glyph-name="nonmarkingreturn" horiz-adv-x="333" 
 />
    <glyph glyph-name="NULL" horiz-adv-x="0" 
 />
    <glyph glyph-name="NULL" horiz-adv-x="0" 
 />
    <glyph glyph-name="CR" unicode="&#xd;" horiz-adv-x="199" 
 />
    <glyph glyph-name="space" unicode=" " horiz-adv-x="199" 
 />
    <glyph glyph-name="exclam" unicode="!" horiz-adv-x="189" 
d="M153 185h-33q41 245 53 345q5 40 8 69.5t3.5 40.5t1.5 14q4 21 21.5 35.5t37.5 14.5t31 -14.5t7 -35.5q0 -1 -17 -53l-22 -72q-35 -122 -91 -344zM118 96q20 0 31 -14.5t7 -35.5t-21 -35.5t-38 -14.5q-20 0 -31 14.5t-7 35.5t21 35.5t38 14.5z" />
    <glyph glyph-name="quotedbl" unicode="&#x22;" horiz-adv-x="267" 
d="M196 510h-25q7 43 9.5 80t3 57t0.5 23q6 27 34 31q26 5 32 -16q2 -6 0 -15q0 -4 -7.5 -22.5t-21 -56.5t-25.5 -81zM308 510h-26q7 43 9.5 80t3 57t0.5 23q3 14 14.5 23.5t25.5 9.5q15 0 22.5 -9.5t3.5 -23.5q0 -4 -7 -22.5t-20.5 -57t-25.5 -80.5z" />
    <glyph glyph-name="numbersign" unicode="#" horiz-adv-x="598" 
d="M292 450h-98l7 34h108l107 216h36l-107 -216h178l107 216h36l-107 -216h89l-7 -34h-99l-98 -200h105l-8 -34h-114l-106 -216h-37l107 216h-179l-106 -216h-36l105 216h-80l7 34h91zM507 450h-179l-98 -200h178z" />
    <glyph glyph-name="dollar" unicode="$" horiz-adv-x="557" 
d="M275 -6l-11 -44h-35l11 45q-87 6 -142 43h-30l13 123h27q3 -127 139 -136l74 301q-23 7 -68 25q-27 12 -55 34q-51 40 -32 137q19 87 81 135t168 49l11 44h35l-11 -46q69 -6 120 -42h32l-13 -123h-28q1 123 -119 135l-69 -282q40 -14 72 -28q30 -13 60 -38
q54 -44 35 -142q-18 -89 -85.5 -139t-179.5 -51zM470 176q12 58 -15 86t-101 54l-71 -291q74 4 123 43t64 108zM237 532q-8 -57 14 -81.5t89 -47.5l67 271q-66 -4 -111.5 -41.5t-58.5 -100.5z" />
    <glyph glyph-name="percent" unicode="%" horiz-adv-x="726" 
d="M163 525q18 83 66 132t111 49t90.5 -49t10.5 -132q-18 -83 -66.5 -132t-109.5 -49q-63 0 -91 49t-11 132zM221 525q-14 -71 -0.5 -110.5t50.5 -39.5q36 0 67 40.5t46 109.5q14 71 0 110.5t-50 39.5q-37 0 -67.5 -40.5t-45.5 -109.5zM730 700l-539 -700h-41l539 700h41z
M439 175q17 83 65 132t110 49q63 0 91 -49t11 -132t-65.5 -132t-111.5 -49t-90.5 49t-9.5 132zM496 175q-14 -71 -0.5 -110.5t50.5 -39.5t67.5 40.5t45.5 109.5q14 69 0 109.5t-51 40.5t-67.5 -40.5t-44.5 -109.5z" />
    <glyph glyph-name="ampersand" unicode="&#x26;" horiz-adv-x="678" 
d="M514 73q-89 -78 -211 -78q-110 0 -160.5 55t-32.5 147q18 88 85 134q33 23 61 37q33 17 73 32q-50 93 -34 172q12 61 59.5 97t120.5 36q69 0 99.5 -35t18.5 -94q-12 -57 -55 -93.5t-126 -72.5l35 -60q65 52 110 52q25 0 58 -24q34 -23 60 -23q46 0 97 45l14 -17
q-69 -60 -121 -73q-29 -111 -87 -184q37 -63 47 -75q13 -16 24 -16q20 0 48 23l10 -12q-61 -50 -109 -50q-24 0 -40.5 15t-43.5 62zM322 29q102 0 173 74l-152 269q-66 -30 -104 -70t-52 -105q-16 -81 19 -124.5t116 -43.5zM369 584q-14 -68 32 -151q71 32 105 62.5t43 77.5
q10 47 -10.5 74.5t-63.5 27.5q-40 0 -68 -24t-38 -67zM460 327l98 -167q46 69 65 149q-10 2 -43 23q-30 21 -57 21q-31 0 -63 -26z" />
    <glyph glyph-name="quotesingle" unicode="'" horiz-adv-x="155" 
d="M196 510h-25q7 43 9.5 80t3 57t0.5 23q6 27 34 31q26 5 32 -16q2 -6 0 -15q0 -4 -7.5 -22.5t-21 -56.5t-25.5 -81z" />
    <glyph glyph-name="parenleft" unicode="(" horiz-adv-x="265" 
d="M120 275q30 148 97 275q67 129 159 206l16 -20q-70 -74 -123 -200q-53 -128 -81 -261q-28 -116 -28 -254q2 -133 39 -207l-23 -20q-60 78 -73 208q-14 135 17 273z" />
    <glyph glyph-name="parenright" unicode=")" horiz-adv-x="266" 
d="M273 275q-32 -146 -99 -275t-157 -206l-16 20q69 75 122 200q55 125 82 261q29 119 27 253q0 134 -38 208l23 20q60 -78 73 -209q14 -135 -17 -272z" />
    <glyph glyph-name="asterisk" unicode="*" horiz-adv-x="431" 
d="M321 493q-27 -34 -50.5 -65.5t-34 -47t-12.5 -17.5q-13 -15 -28.5 -12t-18.5 16.5t9 29.5q2 2 17 14.5t43 38t59 56.5q-35 9 -67 15.5t-48 9.5t-19 4q-25 8 -11 36q6 11 17.5 16.5t22.5 1.5q3 -1 16 -9t40 -23t60 -30q5 32 8.5 60.5t4 44.5t1 28t0.5 14q2 13 12 21t23 8
q12 0 18 -8t4 -21q0 -2 -7 -19t-19 -52.5t-23 -75.5q40 15 73.5 29.5t51 23.5t18.5 9q27 8 32 -19q5 -25 -25 -34q-4 -2 -21 -4.5t-52 -9t-74 -16.5q18 -31 36.5 -57t28 -38t10.5 -14q12 -22 -15 -41q-10 -7 -21 -5t-16 12q-2 3 -6 19t-14 46.5t-23 64.5z" />
    <glyph glyph-name="plus" unicode="+" horiz-adv-x="434" 
d="M258 283h-160l7 34h160l35 166h34l-35 -166h161l-7 -34h-161l-35 -167h-34z" />
    <glyph glyph-name="comma" unicode="," horiz-adv-x="180" 
d="M41 -106l-12 15q20 17 39 42.5t22 39.5q2 6 0 9q-21 0 -32 13.5t-7 34.5q4 20 20.5 34t38.5 14q21 0 31.5 -14.5t4.5 -44.5q-13 -63 -105 -143z" />
    <glyph glyph-name="hyphen" unicode="-" horiz-adv-x="296" 
d="M308 247h-217l7 34h217z" />
    <glyph glyph-name="period" unicode="." horiz-adv-x="180" 
d="M113 96q21 0 32.5 -14.5t6.5 -35.5q-4 -32 -39.5 -45.5t-50.5 9.5q-18 24 0.5 55t50.5 31z" />
    <glyph glyph-name="slash" unicode="/" horiz-adv-x="333" 
d="M489 750l-474 -850h-36l474 850h36z" />
    <glyph glyph-name="zero" unicode="0" horiz-adv-x="616" 
d="M488 706q114 0 164 -96q50 -97 17 -260q-35 -164 -125 -260t-204 -96t-163 96q-50 99 -16 260q35 164 124 259q90 97 203 97zM240 349q-30 -154 -1 -239t108 -85t145 86q67 88 98 238q30 155 1 240.5t-108 85.5t-145 -87q-67 -88 -98 -239z" />
    <glyph glyph-name="one" unicode="1" horiz-adv-x="357" 
d="M298 0h-233l4 24l84 22l126 601h-94l5 25l162 34l10 -12l-136 -654l76 -17z" />
    <glyph glyph-name="two" unicode="2" horiz-adv-x="517" 
d="M467 0h-428l7 35l131 101q49 38 111 93q67 60 97 97q85 100 106 199q30 149 -115 149q-73 0 -132 -50l-13 -62q-3 -15 -16 -26t-29 -11q-34 0 -25 44q12 56 74 95q62 40 155 40q99 0 145 -48.5t26 -140.5q-18 -91 -101 -185q-29 -34 -93 -89q-70 -58 -100 -80l-116 -84
l-25 -18h304l41 82h28z" />
    <glyph glyph-name="three" unicode="3" horiz-adv-x="558" 
d="M287 632l-11 -53q-3 -15 -15.5 -25.5t-28.5 -10.5q-33 0 -26 43q10 55 76 87q67 32 146 32q94 0 139 -46.5t29 -127.5q-14 -62 -56 -103t-103 -57q69 -18 100 -66t16 -116q-18 -90 -94 -142t-180 -52q-84 0 -137 31q-53 32 -42 88q10 43 44 43q16 0 24.5 -10.5t5.5 -25.5
l-12 -56q38 -38 119 -38q74 0 127 44t68 120q17 78 -24.5 120.5t-130.5 42.5h-47l6 31h46q163 0 193 142q14 69 -14 107.5t-91 38.5q-74 0 -127 -41z" />
    <glyph glyph-name="four" unicode="4" horiz-adv-x="561" 
d="M494 0h-188l5 24l62 22l22 104h-313l5 25q114 141 186 263q72 124 100 262h74q-30 -148 -127 -286q-53 -74 -91 -119q-33 -40 -101 -115h273l48 227l71 59l10 -12l-58 -274h74l-5 -30h-75l-23 -110l55 -17z" />
    <glyph glyph-name="five" unicode="5" horiz-adv-x="512" 
d="M155 110l-11 -52q35 -32 101 -32q74 0 126 49t70 135q19 92 -15.5 142t-115.5 50q-70 0 -119 -33l-16 21l90 310q187 0 303 12l-13 -67h-264l-86 -242q61 31 134 31q104 0 152.5 -58.5t27.5 -161.5q-22 -102 -95.5 -160t-181.5 -58q-78 0 -125 29q-46 28 -35 79
q4 21 16.5 32t27.5 11q16 0 24 -10.5t5 -26.5z" />
    <glyph glyph-name="six" unicode="6" horiz-adv-x="542" 
d="M233 366q65 61 165 61q99 0 145 -58t24 -156q-21 -101 -93 -159q-71 -58 -167 -58q-111 0 -154 80.5t-13 223.5q42 204 177 305q126 94 286 101l14 -18q-148 -16 -249 -104q-100 -85 -135 -218zM219 310q-58 -283 91 -283q64 0 113.5 49t67.5 132q18 87 -15.5 134.5
t-103.5 47.5q-46 0 -87.5 -22t-65.5 -58z" />
    <glyph glyph-name="seven" unicode="7" horiz-adv-x="533" 
d="M282 0h-73q16 82 59 172q46 95 83 150q41 62 111 162q76 108 108 157h-330l-44 -79h-28l39 138h425l-5 -25q-18 -32 -125 -203q-101 -161 -148 -260q-49 -103 -72 -212z" />
    <glyph glyph-name="eight" unicode="8" horiz-adv-x="561" 
d="M608 538q-24 -110 -155 -169q69 -32 95.5 -74.5t12.5 -112.5q-18 -88 -86.5 -138t-183.5 -50q-109 0 -156 47t-29 129q15 70 61 113t125 76q-56 28 -77.5 66t-7.5 102q16 82 77 130.5t162 48.5q97 0 137.5 -45t24.5 -123zM357 333l-35 13q-117 -61 -143 -171
q-15 -74 17 -112t104 -38q75 0 126 39.5t66 110.5q13 65 -18.5 95.5t-116.5 62.5zM390 395q21 -9 33 -13q95 58 114 153q14 67 -12.5 103.5t-87.5 36.5q-63 0 -105.5 -36.5t-56.5 -100.5q-4 -19 -4 -34.5t3 -27t11.5 -22t16.5 -17.5t24 -15t29 -13.5t35 -13.5z" />
    <glyph glyph-name="nine" unicode="9" horiz-adv-x="543" 
d="M482 334q-69 -60 -166 -60t-142 56t-25 154q21 101 96 161t173 60q109 0 149 -76.5t9 -223.5q-40 -199 -162 -298q-121 -98 -301 -112l-14 18q150 18 246.5 100.5t136.5 220.5zM496 391q60 283 -83 283q-67 0 -119 -52t-68 -136q-17 -84 15.5 -130t100.5 -46
q47 0 88 22.5t66 58.5z" />
    <glyph glyph-name="colon" unicode=":" horiz-adv-x="180" 
d="M113 96q21 0 32.5 -14.5t6.5 -35.5q-4 -32 -39.5 -45.5t-50.5 9.5q-18 24 0.5 55t50.5 31zM190 464q21 0 32 -14.5t6 -35.5q-4 -21 -21 -35.5t-38 -14.5q-20 0 -31 14.5t-7 35.5t21.5 35.5t37.5 14.5z" />
    <glyph glyph-name="semicolon" unicode=";" horiz-adv-x="180" 
d="M41 -106l-12 15q20 17 39 42.5t22 39.5q2 6 0 9q-21 0 -32 13.5t-7 34.5q4 20 20.5 34t38.5 14q21 0 31.5 -14.5t4.5 -44.5q-13 -63 -105 -143zM186 464q21 0 32 -14.5t6 -35.5q-4 -21 -21 -35.5t-38 -14.5q-20 0 -31 14.5t-7 35.5t21.5 35.5t37.5 14.5z" />
    <glyph glyph-name="less" unicode="&#x3c;" horiz-adv-x="435" 
d="M110 288l352 155l8 -31l-310 -137l253 -136l-20 -31l-289 155z" />
    <glyph glyph-name="equal" unicode="=" horiz-adv-x="434" 
d="M469 362h-354l6 34h355zM436 204h-354l7 34h354z" />
    <glyph glyph-name="greater" unicode="&#x3e;" horiz-adv-x="435" 
d="M389 275l-254 137l20 31l289 -155l-5 -25l-353 -155l-7 31z" />
    <glyph glyph-name="question" unicode="?" horiz-adv-x="453" 
d="M276 185h-33q12 108 79 182q7 8 39.5 40.5t45 47t29.5 43t23 56.5q12 57 -15 88.5t-84 31.5q-65 0 -109 -40l-12 -58q-3 -15 -15.5 -26t-28.5 -11q-36 0 -26 46q10 50 66 85q55 34 134 34q88 0 131.5 -43t27.5 -118q-16 -76 -92 -138q-72 -60 -99 -93q-47 -57 -61 -127z
M185 47q4 20 21.5 34.5t37.5 14.5t31.5 -14.5t7.5 -34.5q-4 -22 -21.5 -36.5t-38.5 -14.5t-32 15t-6 36z" />
    <glyph glyph-name="at" unicode="@" horiz-adv-x="816" 
d="M722 -50l12 -15q-125 -104 -307 -104q-169 0 -247 95q-77 95 -41 265q34 163 146 257t284 94q166 0 230 -87q66 -87 37 -227q-22 -107 -81.5 -170t-138.5 -63q-33 0 -48.5 11.5t-13.5 34.5l-3 2q-24 -21 -62.5 -34.5t-74.5 -13.5q-72 0 -101 52t-11 140q20 96 80.5 147.5
t153.5 51.5q55 0 106 -20l37 20l8 -10l-67 -314q-6 -36 26 -36q44 0 78 55q36 56 54 139q28 142 -24 217.5t-189 75.5q-143 0 -239 -84.5t-128 -238.5q-33 -156 31.5 -243t221.5 -87q167 0 271 90zM557 69l55 265q-25 25 -82 25q-59 0 -99.5 -43t-57.5 -125
q-16 -79 4 -121.5t74 -42.5q65 0 106 42z" />
    <glyph glyph-name="A" unicode="A" horiz-adv-x="739" 
d="M494 700h38l138 -659l59 -18l-5 -23h-199l5 23l62 18l-40 197h-315l-122 -197l76 -18l-4 -23h-172l4 23l63 18zM546 269l-71 350l-219 -350h290z" />
    <glyph glyph-name="B" unicode="B" horiz-adv-x="633" 
d="M184 680l3 20h283q100 0 151 -47.5t34 -127.5q-13 -62 -57 -104.5t-112 -59.5q73 -17 107 -63.5t20 -112.5q-18 -87 -97 -136t-192 -49h-282l3 20l66 15l132 630zM252 344l-66 -314h132q82 0 140.5 42t73.5 115q16 74 -24.5 115.5t-123.5 41.5h-132zM451 670h-131
l-62 -295h131q70 0 120 39t65 108t-19 108.5t-104 39.5z" />
    <glyph glyph-name="C" unicode="C" horiz-adv-x="697" 
d="M675 116l15 -19q-118 -103 -272 -103q-150 0 -219 95q-69 97 -35 260q35 165 143 260q109 97 259 97q112 0 183 -56l34 21l9 -12l-14 -131h-28q-13 145 -174 145q-125 0 -211.5 -84.5t-118.5 -237.5q-31 -149 20.5 -234.5t178.5 -85.5q136 0 230 85z" />
    <glyph glyph-name="D" unicode="D" horiz-adv-x="706" 
d="M184 680l3 20h282q146 0 215 -94q70 -93 36 -256t-143 -257q-108 -93 -253 -93h-282l3 20l66 15l132 630zM463 670h-143l-134 -640h144q108 0 192 84q86 86 117 235q31 151 -18 236t-158 85z" />
    <glyph glyph-name="E" unicode="E" horiz-adv-x="608" 
d="M252 344l-66 -314h310l53 93h27l-36 -123h-498l3 20l66 15l132 630l-59 15l3 20h489l-15 -123h-27l-15 93h-299l-62 -295h238l31 68h25l-35 -167h-25l-2 68h-238z" />
    <glyph glyph-name="F" unicode="F" horiz-adv-x="588" 
d="M480 275l-2 68h-226l-62 -297l87 -23l-4 -23h-231l5 24l67 24l129 617l-59 15l3 20h479l-15 -123h-26l-15 93h-290l-62 -297h226l31 69h25l-35 -167h-25z" />
    <glyph glyph-name="G" unicode="G" horiz-adv-x="739" 
d="M795 312l-66 -20l-53 -252l-14 -12l-32 27q-97 -61 -212 -61q-150 0 -219 95q-69 97 -35 260q35 165 143 260q109 97 259 97q112 0 183 -56l34 21l9 -12l-14 -131h-28q-13 145 -174 145q-125 0 -211.5 -84.5t-118.5 -237.5q-31 -149 19 -234.5t174 -85.5q95 0 171 52
l43 210l-59 19l5 23h202z" />
    <glyph glyph-name="H" unicode="H" horiz-adv-x="748" 
d="M42 0l5 24l67 24l128 610l-59 19l4 23h202l-5 -23l-67 -20l-60 -287h387l60 288l-59 19l5 23h202l-5 -23l-67 -20l-129 -616l60 -18l-5 -23h-201l4 24l68 24l61 291h-387l-62 -298l59 -18l-4 -23h-202z" />
    <glyph glyph-name="I" unicode="I" horiz-adv-x="286" 
d="M384 677l-67 -20l-129 -616l60 -18l-5 -23h-200l4 24l67 24l128 610l-59 19l5 23h200z" />
    <glyph glyph-name="J" unicode="J" horiz-adv-x="286" 
d="M106 0l137 658l-59 19l5 23h200l-5 -23l-67 -20l-136 -657q-17 -79 -67 -147t-122 -109l-15 20q44 35 80 103q36 67 49 133z" />
    <glyph glyph-name="K" unicode="K" horiz-adv-x="657" 
d="M381 677l-67 -20l-71 -341l390 342l-78 19l5 23h187l-5 -23l-65 -19l-267 -236l170 -381l60 -18l-5 -23h-126l-163 369l-113 -99l-47 -229l59 -18l-4 -23h-202l5 24l67 24l127 610l-58 19l4 23h202z" />
    <glyph glyph-name="L" unicode="L" horiz-adv-x="583" 
d="M317 657l-131 -627h284l54 93h27l-36 -123h-473l3 20l66 15l131 623l-59 19l4 23h202l-5 -23z" />
    <glyph glyph-name="M" unicode="M" horiz-adv-x="897" 
d="M965 677l-67 -20l-83 -616l60 -18l-5 -23h-201l4 24l67 24l75 544l-370 -592h-37l-124 592l-158 -556l59 -19l-4 -17h-155l4 18l67 24l175 616l-58 19l4 23h120l127 -619l386 619h119z" />
    <glyph glyph-name="N" unicode="N" horiz-adv-x="707" 
d="M42 0l4 18l67 24l129 616l-59 19l4 23h141l268 -584l115 548l-59 19l3 17h155l-3 -17l-66 -20l-138 -663h-37l-297 643l-127 -607l58 -19l-3 -17h-155z" />
    <glyph glyph-name="O" unicode="O" horiz-adv-x="759" 
d="M165 350q33 163 142 259q109 97 253 97t213 -97q69 -96 35 -259t-143 -260q-110 -96 -253 -96q-144 0 -213 96q-68 98 -34 260zM246 349q-32 -152 16 -238q50 -86 157 -86t191 86q85 88 116 238q32 153 -17 239q-48 87 -155 87q-108 0 -192 -87q-85 -88 -116 -239z" />
    <glyph glyph-name="P" unicode="P" horiz-adv-x="593" 
d="M426 670h-106l-130 -624l87 -23l-4 -23h-231l5 24l67 24l129 617l-59 15l3 20h257q106 0 160 -54t35 -147q-20 -92 -96 -146q-77 -54 -183 -54h-73l-9 13l4 18h73q76 0 131 45t71 124q18 79 -18.5 125t-112.5 46z" />
    <glyph glyph-name="Q" unicode="Q" horiz-adv-x="759" 
d="M756 -66l10 -12q-56 -49 -130 -49q-38 0 -80 15q-38 13 -61 25q-19 11 -69 45l-57 39q-125 14 -182 108q-56 95 -23 245q33 163 142 259q109 97 253 97t213 -97q69 -96 35 -259q-30 -142 -117 -234q-85 -91 -204 -112l28 -19l30 -20l27 -17q25 -16 57 -27q31 -12 60 -12
q40 0 68 25zM245 349q-32 -152 16 -238q50 -86 157 -86t191 86q85 88 116 238q32 153 -17 239q-48 87 -155 87q-108 0 -192 -87q-85 -88 -116 -239z" />
    <glyph glyph-name="R" unicode="R" horiz-adv-x="634" 
d="M650 512q-17 -77 -74.5 -125.5t-141.5 -57.5q32 -20 56 -99l66 -189l60 -18l-4 -23h-124l-113 324h-127l-59 -283l59 -18l-4 -23h-202l5 24l67 24l129 617l-59 15l3 20h280q100 0 150.5 -51t32.5 -137zM449 670h-129l-66 -315h129q69 0 119.5 42t65.5 115
q15 74 -17.5 116t-101.5 42z" />
    <glyph glyph-name="S" unicode="S" horiz-adv-x="563" 
d="M77 13l-9 12l16 136h27q4 -72 47.5 -105t110.5 -31q80 0 134.5 39t69.5 112q13 61 -19 90q-33 30 -121 58l-33 10l-30 11q-20 8 -30 14l-24 15q-19 12 -39 42q-24 36 -8 106q19 87 81.5 135.5t168.5 48.5q89 0 150 -44l29 23l9 -12l-15 -134h-28q1 70 -36.5 103
t-101.5 33q-72 0 -122 -38t-64 -105q-12 -59 16 -84q27 -24 110 -52q49 -17 68 -25q32 -12 59 -32q22 -14 41 -45q25 -39 9 -110q-18 -90 -86.5 -140t-183.5 -50q-100 0 -165 44z" />
    <glyph glyph-name="T" unicode="T" horiz-adv-x="648" 
d="M699 577l-13 93h-184l-131 -629l59 -18l-4 -23h-202l5 24l67 24l130 622h-183l-54 -95h-27l37 125h543l-15 -123h-28z" />
    <glyph glyph-name="U" unicode="U" horiz-adv-x="729" 
d="M853 683l-66 -20l-86 -408q-24 -119 -111 -189q-85 -70 -203 -70q-116 0 -173 70t-33 189l85 403l-59 19l4 23h202l-5 -23l-67 -20l-84 -402q-21 -102 23.5 -160.5t139.5 -58.5q94 0 162 58q70 58 92 161l85 409l-59 19l4 17h152z" />
    <glyph glyph-name="V" unicode="V" horiz-adv-x="739" 
d="M390 0h-38l-139 658l-58 19l5 23h202l-4 -23l-67 -19l118 -577l359 577l-76 19l5 23h172l-4 -23l-63 -19z" />
    <glyph glyph-name="W" unicode="W" horiz-adv-x="1131" 
d="M794 0h-38l-89 487l-290 -487h-37l-127 658l-58 19l5 23h202l-4 -23l-67 -19l106 -577l260 444l-27 133l-58 19l5 23h202l-4 -23l-67 -19l105 -577l348 577l-76 19l4 23h173l-5 -23l-63 -19z" />
    <glyph glyph-name="X" unicode="X" horiz-adv-x="717" 
d="M490 23l64 17l-149 288l-276 -288l72 -17l-4 -23h-174l5 23l64 17l301 310l-160 310l-57 17l4 23h208l-5 -23l-63 -17l138 -270l259 270l-72 17l5 23h174l-5 -23l-65 -17l-285 -292l172 -328l57 -17l-4 -23h-208z" />
    <glyph glyph-name="Y" unicode="Y" horiz-adv-x="677" 
d="M362 677l-63 -17l131 -330l273 330l-72 17l4 23h173l-5 -23l-64 -17l-304 -363l-53 -256l58 -18l-4 -23h-201l5 24l67 24l52 248l-146 364l-58 17l5 23h207z" />
    <glyph glyph-name="Z" unicode="Z" horiz-adv-x="618" 
d="M558 0h-500l5 25l547 645h-346l-53 -95h-27l35 125h481l-5 -25l-546 -645h365l55 103h27z" />
    <glyph glyph-name="bracketleft" unicode="[" horiz-adv-x="282" 
d="M392 727l-95 -19l-182 -867l88 -18l-5 -23h-159l198 950h159z" />
    <glyph glyph-name="backslash" unicode="\" horiz-adv-x="333" 
d="M192 750l120 -850h-36l-120 850h36z" />
    <glyph glyph-name="bracketright" unicode="]" horiz-adv-x="282" 
d="M4 -177l95 18l181 867l-87 19l4 23h160l-198 -950h-160z" />
    <glyph glyph-name="asciicircum" unicode="^" horiz-adv-x="480" 
d="M140 475l242 229h9l146 -229l-21 -18l-143 180l-219 -180z" />
    <glyph glyph-name="underscore" unicode="_" horiz-adv-x="596" 
d="M578 -84h-595l7 34h595z" />
    <glyph glyph-name="grave" unicode="`" horiz-adv-x="266" 
d="M171 625l56 46l110 -128l-21 -19z" />
    <glyph glyph-name="a" unicode="a" horiz-adv-x="559" 
d="M562 58l9 -12q-23 -20 -55 -35t-57 -15q-50 0 -35 76l5 12l-2 3q-35 -43 -87.5 -66.5t-102.5 -23.5q-78 0 -110.5 62t-11.5 164q25 117 98.5 179t184.5 62q67 0 127 -23l43 25l9 -12l-77 -370q-10 -49 16 -49q17 0 46 23zM435 125l58 278q-35 31 -104 31
q-73 0 -124 -53.5t-72 -153.5q-19 -91 3 -143.5t79 -52.5q39 0 83.5 24.5t76.5 69.5z" />
    <glyph glyph-name="b" unicode="b" horiz-adv-x="559" 
d="M184 207l104 496l-56 14l4 21l124 18l10 -12l-60 -284l-19 -83l2 -3q35 42 87 66t102 24q78 0 110.5 -62t11.5 -163q-24 -116 -96.5 -179.5t-175.5 -63.5q-191 0 -148 211zM339 26q65 0 116 55t71 153q19 90 -3 142t-80 52q-39 0 -82 -24t-77 -69l-28 -136
q-35 -173 83 -173z" />
    <glyph glyph-name="c" unicode="c" horiz-adv-x="498" 
d="M466 354l11 51q-29 29 -91 29q-70 0 -120 -52t-69 -144q-21 -99 14 -152.5t117 -53.5q89 0 141 46l15 -20q-74 -62 -186 -62q-105 0 -153.5 63t-25.5 173q23 109 94.5 170.5t176.5 61.5q72 0 115 -28q45 -27 35 -75q-9 -44 -45 -44q-15 0 -23.5 11t-5.5 26z" />
    <glyph glyph-name="d" unicode="d" horiz-adv-x="559" 
d="M562 58l9 -12q-23 -20 -55 -35t-57 -15q-50 0 -35 76l5 12l-2 3q-36 -42 -88.5 -66.5t-102.5 -24.5q-78 0 -110 62t-11 165q24 115 95.5 178t176.5 63q75 0 113 -32l56 271l-56 14l5 21l123 18l10 -12l-138 -660q-10 -49 16 -49q17 0 46 23zM435 125l57 273
q-36 36 -104 36q-72 0 -123 -54t-72 -153q-19 -91 3 -143t80 -52q39 0 83 24t76 69z" />
    <glyph glyph-name="e" unicode="e" horiz-adv-x="485" 
d="M192 212q-18 -89 16 -134.5t116 -45.5q91 0 143 46l16 -20q-71 -62 -185 -62q-106 0 -154 63.5t-25 172.5q23 108 97.5 170t180.5 62q74 0 109 -30.5t24 -84.5q-12 -60 -86 -93q-75 -34 -252 -44zM386 434q-63 0 -116 -52q-53 -51 -72 -142q128 10 191 35t75 76
q6 37 -14 60t-64 23z" />
    <glyph glyph-name="f" unicode="f" horiz-adv-x="383" 
d="M116 0l89 430h-72l5 24l75 11l27 130q15 73 66.5 116t123.5 43q59 0 90 -28.5t22 -70.5q-8 -42 -43 -42q-16 0 -25 10.5t-5 26.5l12 57q-18 18 -53 18q-41 0 -71 -34t-43 -95l-29 -136h166l-6 -30h-166l-89 -430q-24 -113 -80 -185q-55 -70 -127 -70q-34 0 -48.5 14.5
t-8.5 36.5q4 19 17.5 31t30.5 12q15 0 24.5 -11.5t5.5 -27.5l-4 -24q69 0 116 224z" />
    <glyph glyph-name="g" unicode="g" horiz-adv-x="542" 
d="M589 437l-62 -17h-41q42 -42 27 -114q-15 -71 -76 -113q-62 -42 -145 -42q-64 0 -104 24q-30 -33 -36 -65q-7 -28 9.5 -41.5t57.5 -13.5h137q154 0 125 -134q-35 -174 -295 -174q-96 0 -140.5 26t-34.5 78q18 79 119 141q-55 19 -40 85q11 53 79 111q-49 43 -33 118
q15 71 76 114t146 43q21 0 39 -3h197zM349 -17h-156q-19 0 -36 3q-58 -53 -71 -114q-11 -52 18 -73.5t100 -21.5q91 0 147 31t69 90q15 85 -71 85zM210 306q-12 -59 12 -93t76 -34t90 34t50 93q13 59 -11.5 94t-75.5 35t-89.5 -35t-51.5 -94z" />
    <glyph glyph-name="h" unicode="h" horiz-adv-x="575" 
d="M556 58l10 -12q-23 -20 -55.5 -35t-56.5 -15q-52 0 -37 76l48 225q13 61 -2.5 96t-55.5 35q-38 0 -85.5 -27.5t-82.5 -73.5l-68 -327h-62l-10 12l145 691l-56 14l4 21l124 18l10 -12l-60 -284l-21 -90l2 -3q41 45 100 71q60 26 104 26q59 0 81.5 -44t6.5 -118l-45 -218
q-10 -49 16 -49q18 0 46 23z" />
    <glyph glyph-name="i" unicode="i" horiz-adv-x="267" 
d="M120 403l-10 12q23 20 55.5 35t57.5 15q51 0 36 -76l-65 -305q-10 -49 16 -49q18 0 47 23l9 -12q-61 -50 -112 -50t-36 76l65 305q10 49 -16 49q-19 0 -47 -23zM214 569q-11 15 -6 38t22 38t39 15t34 -15q13 -15 8 -38t-23 -38q-18 -14 -40 -14t-34 14z" />
    <glyph glyph-name="j" unicode="j" horiz-adv-x="267" 
d="M-11 -200l-4 -24q69 0 116 224l79 377q10 49 -17 49q-18 0 -46 -23l-10 12q23 20 55.5 35t57.5 15q51 0 36 -76l-81 -389q-24 -113 -80 -185q-55 -70 -127 -70q-34 0 -48 14t-10 37q4 19 18 31t31 12q15 0 24.5 -11.5t5.5 -27.5zM211 569q-11 15 -6 38t22 38t39 15
t34 -15q13 -15 8 -38t-23 -38q-18 -14 -40 -14t-34 14z" />
    <glyph glyph-name="k" unicode="k" horiz-adv-x="499" 
d="M316 756l10 -12l-155 -744h-62l-10 12l145 691l-56 14l4 21zM450 410l4 20q-35 -4 -83 -52q-43 -45 -79 -96l119 -212q20 -35 39 -35q20 0 48 23l10 -12q-59 -50 -103 -50q-23 0 -38 12.5t-32 46.5l-98 186q139 223 246 223q28 0 41 -14.5t8 -36.5q-4 -18 -18.5 -30.5
t-30.5 -12.5t-26 12t-7 28z" />
    <glyph glyph-name="l" unicode="l" horiz-adv-x="267" 
d="M264 58l10 -12q-23 -20 -55.5 -35t-56.5 -15q-51 0 -36 76l132 629l-53 14l5 23l121 18l10 -12l-138 -660q-10 -49 15 -49q18 0 46 23z" />
    <glyph glyph-name="m" unicode="m" horiz-adv-x="816" 
d="M113 403l-10 12q23 20 55.5 35t57.5 15q51 0 36 -76l-7 -19l2 -3q36 45 90 71t90 26q38 0 60 -27.5t25 -77.5q39 47 93 76t98 29q53 0 73 -44t5 -118l-46 -218q-10 -49 16 -49q18 0 46 23l10 -12q-23 -20 -55.5 -35t-56.5 -15q-51 0 -36 76l47 225q13 60 -0.5 95.5
t-48.5 35.5q-29 0 -69 -25.5t-77 -71.5q0 -12 -4 -29l-63 -302h-61l-10 12l59 285q13 60 -0.5 95.5t-47.5 35.5q-32 0 -72.5 -27t-72.5 -74l-68 -327h-62l-10 12l77 365q10 49 -16 49q-19 0 -47 -23z" />
    <glyph glyph-name="n" unicode="n" horiz-adv-x="575" 
d="M113 403l-10 12q23 20 55.5 35t57.5 15q51 0 36 -76l-7 -19l2 -3q42 47 99 72t103 25q59 0 82.5 -44.5t7.5 -117.5l-45 -218q-10 -49 16 -49q18 0 46 23l10 -12q-23 -20 -55.5 -35t-57.5 -15q-51 0 -36 76l48 225q13 59 -4.5 95t-56.5 36q-36 0 -82 -26.5t-83 -74.5
l-68 -327h-62l-10 12l77 365q10 49 -16 49q-19 0 -47 -23z" />
    <glyph glyph-name="o" unicode="o" horiz-adv-x="541" 
d="M117 230q22 107 97 171q75 63 174 63q100 0 148 -63q48 -64 26 -171q-23 -107 -97 -171q-73 -63 -174 -63q-100 0 -148 63q-48 64 -26 171zM194 230q-19 -95 9 -149t94 -54t117 54.5t71 148.5q20 95 -8 149.5t-95 54.5t-117.5 -54.5t-70.5 -149.5z" />
    <glyph glyph-name="p" unicode="p" horiz-adv-x="559" 
d="M206 -250h-219l6 24l61 22l122 581q10 49 -16 49q-19 0 -47 -23l-10 12q23 20 55.5 35t57.5 15q51 0 36 -76l-6 -13l3 -3q35 42 87 66.5t102 24.5q80 0 111 -63q32 -64 11 -164q-25 -116 -95.5 -178.5t-175.5 -62.5q-75 0 -113 32l-49 -235l84 -20zM240 335l-57 -274
q35 -36 103 -36q72 0 123.5 54.5t72.5 153.5q19 91 -4 143t-81 52q-40 0 -82.5 -24t-74.5 -69z" />
    <glyph glyph-name="q" unicode="q" horiz-adv-x="544" 
d="M577 454l-137 -658l54 -22l-6 -24h-189l5 23l62 17l44 210l19 84l-2 3q-35 -43 -87.5 -66.5t-102.5 -23.5q-78 0 -110.5 62t-11.5 164q25 117 98.5 179t184.5 62q67 0 127 -23l43 25zM435 125l58 278q-35 31 -104 31q-73 0 -124 -53.5t-72 -153.5q-19 -91 3 -143.5
t79 -52.5q39 0 83.5 24.5t76.5 69.5z" />
    <glyph glyph-name="r" unicode="r" horiz-adv-x="422" 
d="M113 403l-10 12q23 20 55.5 35t57.5 15q51 0 36 -76l-11 -39l2 -3q5 9 30 41q65 76 123 76q36 0 56.5 -25.5t13.5 -63.5q-9 -43 -44 -43q-16 0 -24 10.5t-5 25.5l11 55q-10 10 -29 10q-30 0 -66 -37q-37 -37 -57 -73l-22 -37l-59 -286h-62l-10 12l77 365q10 49 -16 49
q-19 0 -47 -23z" />
    <glyph glyph-name="s" unicode="s" horiz-adv-x="422" 
d="M380 362l9 43q-25 28 -76 28q-46 0 -78 -21t-39 -58q-8 -34 12 -53.5t73 -35.5q66 -20 86 -35q36 -25 40 -43q14 -44 6 -67q-12 -58 -62 -91t-130 -33q-73 0 -112.5 25.5t-30.5 69.5q5 35 34 40q24 4 33 -14q4 -9 2 -19l-10 -41q28 -31 85 -31q114 0 133 85q6 28 -14 55
q-7 8 -27 17q-6 4 -18 8q-9 4 -20.5 7.5t-20.5 7.5q-61 22 -92 44q-38 28 -26 93q25 120 175 120q69 0 107 -25t29 -69q-9 -41 -41 -41q-14 0 -22 10t-5 24z" />
    <glyph glyph-name="t" unicode="t" horiz-adv-x="367" 
d="M199 430h-58l4 18q83 28 145 120l9 -12l-20 -96h141l-6 -30h-141l-63 -302q-10 -46 6.5 -71.5t56.5 -25.5q41 0 68 24l14 -17q-49 -42 -118 -42q-59 0 -86.5 35.5t-14.5 96.5z" />
    <glyph glyph-name="u" unicode="u" horiz-adv-x="570" 
d="M113 403l-10 12q23 20 55.5 35t57.5 15q51 0 36 -76l-53 -251q-10 -48 7 -77t55 -29t84.5 27.5t81.5 76.5l67 324h62l10 -12l-77 -364q-10 -49 16 -49q18 0 46 23l10 -12q-61 -50 -113 -50q-50 0 -35 76l7 21l-2 3q-41 -48 -98 -74q-58 -26 -105 -26q-57 0 -80 37.5
t-10 101.5l51 242q10 49 -16 49q-19 0 -47 -23z" />
    <glyph glyph-name="v" unicode="v" horiz-adv-x="531" 
d="M285 0h-25l-71 391q-8 35 -33 35q-22 0 -50 -23l-10 12q59 50 112 50q24 0 36.5 -13.5t17.5 -46.5l55 -343q18 18 66 78q27 31 61 79q23 30 53 85q25 46 33 81h-21q-14 0 -23.5 12t-5.5 28q9 40 51 40q47 0 33 -71q-15 -74 -85 -172q-73 -101 -132 -160z" />
    <glyph glyph-name="w" unicode="w" horiz-adv-x="817" 
d="M580 0h-26l-49 274q-42 -69 -92 -131q-58 -71 -91 -105l-37 -38h-25l-71 391q-8 35 -33 35q-22 0 -50 -23l-10 12q59 50 112 50q24 0 36.5 -13.5t17.5 -46.5l55 -340q121 131 180 247l-14 79q-8 35 -33 35q-22 0 -50 -23l-10 12q59 50 113 50q24 0 36.5 -13.5t17.5 -46.5
l55 -341q2 3 10 11.5t21.5 25t32.5 40.5q36 44 59 78q23 33 51 85q24 43 32 81h-22q-14 0 -23.5 12.5t-6.5 28.5q4 16 17.5 27.5t34.5 11.5q46 0 33 -72q-20 -94 -111 -210q-84 -107 -136 -159z" />
    <glyph glyph-name="x" unicode="x" horiz-adv-x="513" 
d="M132 50l-4 -19q30 5 65 47q50 59 89 149l-59 150q-19 49 -42 49q-16 0 -42 -23l-10 12q56 50 89 50q42 0 73 -76l44 -111q29 58 77 119q54 67 113 67q27 0 39.5 -14.5t8.5 -36.5q-4 -18 -18.5 -30.5t-30.5 -12.5t-25.5 12t-6.5 28l4 19q-67 -10 -148 -184l65 -161
q19 -49 43 -49q16 0 42 23l10 -12q-56 -50 -91 -50q-42 0 -73 76l-49 122q-32 -67 -78 -126q-55 -73 -117 -73q-27 0 -39.5 15t-8.5 37q4 18 18.5 30t30.5 12t25 -12t6 -27z" />
    <glyph glyph-name="y" unicode="y" horiz-adv-x="531" 
d="M43 -187l-5 -27q4 -3 9 -3q26 0 89.5 56t137.5 151l-80 401q-8 35 -32 35q-22 0 -50 -23l-10 12q59 50 113 50q24 0 36 -13t18 -47l61 -352q6 8 14 18t19 24.5t19 24.5q33 44 89 131q57 90 66 134h-21q-15 0 -24 12t-6 29q4 17 18.5 28t32.5 11q20 0 31 -16t5 -46
q-10 -55 -81 -166q-73 -113 -157 -219q-83 -105 -178 -189q-91 -82 -141 -82q-24 0 -41 16.5t-11 43.5q6 34 38 41q28 6 39 -14q5 -9 2 -21z" />
    <glyph glyph-name="z" unicode="z" horiz-adv-x="454" 
d="M123 350l-14 18q77 66 105 84t56 18q23 0 60 -17q35 -16 68 -16q57 0 89 26l14 -17l-354 -362v-3q22 7 44 7q24 0 61 -17q36 -16 64 -16q57 0 123 57l14 -19q-115 -99 -182 -99q-21 0 -66 17t-73 17q-52 0 -89 -31l-13 17l361 370v3q-24 -8 -47 -8q-27 0 -60 15t-58 15
q-21 0 -41 -11q-17 -9 -62 -48z" />
    <glyph glyph-name="braceleft" unicode="{" horiz-adv-x="349" 
d="M168 276q87 -52 51 -232q-14 -70 -12 -118t18 -73t45 -25l-5 -31q-76 0 -109 67.5t-9 180.5q14 69 12 117t-18.5 73.5t-45.5 25.5l6 31q45 0 83.5 57.5t59.5 157.5q22 113 83 181q61 67 137 67l-6 -31q-44 0 -83 -58.5t-59 -157.5q-18 -86 -57 -147t-91 -85z" />
    <glyph glyph-name="bar" unicode="|" horiz-adv-x="226" 
d="M286 750l-209 -1000h-33l208 1000h34z" />
    <glyph glyph-name="braceright" unicode="}" horiz-adv-x="349" 
d="M294 276q-42 24 -55 83.5t5 148.5q20 104 6.5 160t-58.5 56l6 31q76 0 108.5 -67.5t8.5 -180.5q-20 -103 -5.5 -159t57.5 -56l-6 -31q-44 0 -83 -58.5t-59 -157.5q-24 -114 -85 -181q-60 -67 -135 -67l6 31q43 0 82 58t60 158q18 86 57 147t90 85z" />
    <glyph glyph-name="asciitilde" unicode="~" horiz-adv-x="449" 
d="M110 248l-14 17q104 90 148 90q23 0 56 -27t57 -27q48 0 106 52l14 -17q-104 -91 -153 -91q-20 0 -55 27t-59 27q-41 0 -100 -51z" />
    <glyph glyph-name="exclamdown" unicode="&#xa1;" horiz-adv-x="189" 
d="M177 460h33q-45 -267 -60 -377q-5 -44 -8 -77t-4 -45t-2 -15q-5 -21 -22 -35t-37 -14t-31.5 14.5t-7.5 34.5l11 34q32 84 128 480zM212 544q-21 0 -32.5 14.5t-7.5 35.5t21.5 35.5t38.5 14.5q20 0 31 -14.5t7 -35.5t-21 -35.5t-37 -14.5z" />
    <glyph glyph-name="cent" unicode="&#xa2;" horiz-adv-x="507" 
d="M308 -4l-9 -46h-30l9 47q-96 5 -139 67.5t-21 167.5q21 103 88.5 164.5t168.5 66.5l10 47h30l-10 -46q71 -2 111 -29.5t31 -73.5q-4 -21 -16 -32.5t-28 -11.5t-24.5 11t-5.5 26l11 51q-26 24 -85 29l-83 -402h11q89 0 141 46l15 -20q-68 -57 -175 -62zM196 238
q-18 -86 5.5 -138t84.5 -64l83 397q-64 -8 -110 -59.5t-63 -135.5z" />
    <glyph glyph-name="sterling" unicode="&#xa3;" horiz-adv-x="550" 
d="M167 335h-59l4 18l61 12l28 133q20 97 85.5 151.5t163.5 54.5q72 0 113 -28t30 -75q-4 -21 -16.5 -32.5t-27.5 -11.5q-16 0 -24.5 11t-5.5 26l11 51q-26 29 -84 29q-63 0 -108.5 -45t-61.5 -124l-29 -140h209l-6 -30h-210q-25 -130 -89 -264q42 20 71 20q30 0 77 -26
q46 -25 78 -25q59 0 135 52l12 -17q-127 -88 -191 -88q-30 0 -74 25q-46 26 -78 26q-53 0 -127 -51l-14 17q38 26 66 43z" />
    <glyph glyph-name="currency" unicode="&#xa4;" horiz-adv-x="507" 
d="M148 300q15 70 59 114l-50 68l26 22l50 -67q53 39 119 39q68 0 104 -38l77 66l17 -22l-77 -66q27 -47 12 -116q-14 -69 -61 -116l50 -66l-26 -22l-51 67q-55 -38 -118 -38q-66 0 -102 39l-79 -68l-17 22l79 68q-26 46 -12 114zM179 300q-14 -64 15.5 -104t90.5 -40
q62 0 108.5 40t60.5 104q14 66 -15.5 107t-91.5 41q-61 0 -107.5 -41t-60.5 -107z" />
    <glyph glyph-name="yen" unicode="&#xa5;" horiz-adv-x="670" 
d="M340 227h-139l8 34h138l8 35l-146 364l-58 17l5 23h207l-5 -23l-63 -17l131 -330l273 330l-72 17l5 23h172l-4 -23l-65 -17l-304 -363l-8 -36h140l-7 -34h-140l-17 -81h140l-7 -34h-140l-14 -71l58 -18l-4 -23h-201l5 24l67 24l13 64h-139l7 34h139z" />
    <glyph glyph-name="brokenbar" unicode="&#xa6;" horiz-adv-x="226" 
d="M252 750h34l-94 -450h-34zM171 200l-94 -450h-33l94 450h33z" />
    <glyph glyph-name="section" unicode="&#xa7;" horiz-adv-x="453" 
d="M199 439q-40 40 -27 106q15 74 74 116.5t147 42.5q78 0 117 -33.5t28 -85.5q-10 -46 -44 -46q-16 0 -24.5 11t-5.5 26l12 58q-25 40 -84 40q-57 0 -96 -30.5t-50 -83.5q-7 -31 -1 -54.5t27.5 -40t38 -25t49.5 -21.5l20 -7.5t18.5 -7.5t19 -9t16 -9t15.5 -10.5t11.5 -12
t10 -15t5.5 -17t2.5 -20t-3.5 -22.5q-14 -61 -74 -127q45 -39 32 -108q-16 -73 -77.5 -116t-149.5 -43q-78 0 -119.5 34t-30.5 86q10 46 45 46q16 0 24 -11t5 -27l-13 -58q28 -40 92 -40q57 0 97.5 31t51.5 84q8 41 -7.5 69t-45 40.5t-64.5 26t-64.5 25t-45.5 38t-8 65.5
q12 64 76 135zM367 182q42 52 48 84q8 35 -9.5 60.5t-47.5 36.5l-67 26q-38 15 -59 29q-45 -60 -49 -89q-8 -37 9 -62.5t48 -36.5l68 -22q41 -14 59 -26z" />
    <glyph glyph-name="dieresis" unicode="&#xa8;" horiz-adv-x="286" 
d="M115 584q5 21 21.5 34.5t36.5 13.5t30 -13.5t6 -34.5q-4 -20 -20 -34t-36 -14t-31 14t-7 34zM333 550q-11 14 -7 34t21 34t37 14t30 -14t6 -34t-20 -34t-36 -14t-31 14z" />
    <glyph glyph-name="copyright" unicode="&#xa9;" horiz-adv-x="801" 
d="M200 99q-83 104 -51 251q32 148 156 251q127 104 273 104t229 -104q83 -105 52 -251q-32 -148 -157 -251q-125 -104 -272 -104t-230 104zM179 350q-28 -133 47 -230q77 -95 210 -95t249 95q115 96 144 230t-48 229q-75 96 -209 96t-250 -95q-114 -95 -143 -230zM604 238
l9 -13q-65 -53 -143 -53q-79 0 -115.5 48t-19.5 129q17 83 74 131.5t136 48.5q57 0 92 -25l20 10l6 -7l-7 -69h-20q-9 70 -87 70q-60 0 -99.5 -39.5t-55.5 -116.5q-15 -73 9 -113.5t88 -40.5t113 40z" />
    <glyph glyph-name="ordfeminine" unicode="&#xaa;" horiz-adv-x="292" 
d="M390 503l5 -7q-12 -10 -33 -19t-36 -9q-28 0 -21 36l2 7l-1 2q-39 -45 -93 -45q-38 0 -52.5 31t-3.5 82q25 121 147 121q34 0 62 -11l26 12l6 -6l-38 -181q-4 -24 8 -24q8 0 22 11zM312 535l27 134q-13 13 -42 13q-65 0 -85 -98q-9 -45 -0.5 -69t31.5 -24q36 0 69 44z
" />
    <glyph glyph-name="guillemotleft" unicode="&#xab;" horiz-adv-x="399" 
d="M204 97l-112 158l1 10l178 158l14 -18l-126 -145l66 -145zM353 97l-113 158l2 10l178 158l14 -18l-126 -145l66 -145z" />
    <glyph glyph-name="logicalnot" unicode="&#xac;" horiz-adv-x="482" 
d="M479 334h-370l7 34h403l-29 -136h-34z" />
    <glyph glyph-name="uni00AD" unicode="&#xad;" horiz-adv-x="296" 
d="M315 283h-217l7 34h217z" />
    <glyph glyph-name="registered" unicode="&#xae;" horiz-adv-x="801" 
d="M200 99q-83 104 -51 251q32 148 156 251q127 104 273 104t229 -104q83 -105 52 -251q-32 -148 -157 -251q-125 -104 -272 -104t-230 104zM179 350q-28 -133 47 -230q77 -95 210 -95t249 95q115 96 144 230t-48 229q-75 96 -209 96t-250 -95q-114 -95 -143 -230zM651 437
q-7 -36 -36.5 -60.5t-71.5 -30.5q18 -11 31 -49l30 -90l32 -10l-3 -15h-79l-55 159h-54l-28 -134l30 -10l-3 -15h-120l3 16l36 14l62 298l-31 9l3 13h152q55 0 83 -25.5t19 -69.5zM537 512h-57l-31 -151h57q33 0 56 20t30 56t-7.5 55.5t-47.5 19.5z" />
    <glyph glyph-name="overscore" unicode="&#xaf;" horiz-adv-x="297" 
d="M382 564h-232l7 36h232z" />
    <glyph glyph-name="degree" unicode="&#xb0;" horiz-adv-x="259" 
d="M175 610q8 42 38.5 68.5t69.5 26.5q42 0 62 -26t11 -69q-9 -42 -39.5 -68t-72.5 -26q-39 0 -58.5 26.5t-10.5 67.5zM277 676q-26 0 -45.5 -18.5t-25.5 -47.5t6 -46.5t39 -17.5t47 17.5t26 46.5t-6.5 47.5t-40.5 18.5z" />
    <glyph glyph-name="plusminus" unicode="&#xb1;" horiz-adv-x="434" 
d="M268 333h-160l8 34h160l34 166h34l-34 -166h161l-8 -34h-161l-34 -167h-34zM404 51h-354l7 34h354z" />
    <glyph glyph-name="twosuperior" unicode="&#xb2;" horiz-adv-x="271" 
d="M315 350h-219l5 24q104 79 151 129q50 53 63 113q13 66 -49 66q-34 0 -59 -22l-6 -31q-2 -10 -10 -16.5t-18 -6.5q-23 0 -18 27q7 30 39.5 49.5t79.5 19.5q51 0 74.5 -24t14.5 -69q-13 -61 -80 -121q-33 -29 -59 -48q-42 -31 -71 -51h140l23 42h19z" />
    <glyph glyph-name="threesuperior" unicode="&#xb3;" horiz-adv-x="290" 
d="M227 664l-6 -27q-2 -10 -10 -16.5t-18 -6.5q-23 0 -18 26q6 28 39 45t77 17q50 0 74 -23t16 -64q-14 -64 -80 -80q34 -9 50 -32.5t9 -58.5q-10 -44 -49.5 -70t-94.5 -26q-46 0 -72 16.5t-20 45.5q5 26 28 26q10 0 15.5 -6.5t3.5 -16.5l-6 -29q16 -16 50 -16t58.5 21
t31.5 58q9 38 -9.5 57.5t-60.5 19.5h-23l4 20h22q74 0 88 68q7 33 -5.5 51.5t-40.5 18.5q-32 0 -53 -18z" />
    <glyph glyph-name="acute" unicode="&#xb4;" horiz-adv-x="266" 
d="M168 524l-14 19l165 128l35 -46z" />
    <glyph glyph-name="mu" unicode="&#xb5;" horiz-adv-x="582" 
d="M77 -109l108 516l-49 14l5 27l117 18l10 -12l-65 -316q-11 -49 8.5 -77.5t63.5 -28.5q37 0 82.5 17.5t77.5 46.5l65 311l-49 14l5 27l117 18l10 -12l-84 -402l48 -19l-5 -26l-116 -13l-10 12l13 53l-2 3q-35 -31 -90 -49q-54 -17 -96 -17q-53 0 -75 28q-4 -53 -3 -78
t2 -38t0 -17q-3 -19 -19 -32t-34 -13t-28.5 13t-6.5 32z" />
    <glyph glyph-name="paragraph" unicode="&#xb6;" horiz-adv-x="486" 
d="M353 7l44 212q-124 0 -185 64t-37 176q22 111 111 176t211 65h120l-5 -23l-62 -19l-136 -651q-16 -81 -66 -151t-123 -112l-15 20q52 38 89.5 103t53.5 140z" />
    <glyph glyph-name="middot" unicode="&#xb7;" horiz-adv-x="180" 
d="M162 330q21 0 32 -14.5t7 -35.5q-5 -21 -22 -35.5t-38 -14.5q-20 0 -31 14.5t-7 35.5t21.5 35.5t37.5 14.5z" />
    <glyph glyph-name="cedilla" unicode="&#xb8;" horiz-adv-x="175" 
d="M12 -88l66 88h29l-34 -45q35 0 53.5 -10.5t13.5 -33.5q-8 -37 -113 -123l-9 13q61 53 65 81q4 16 -13 23t-58 7z" />
    <glyph glyph-name="onesuperior" unicode="&#xb9;" horiz-adv-x="197" 
d="M240 350h-135l2 16l45 12l60 288h-46l3 17l97 20l5 -6l-67 -322l39 -10z" />
    <glyph glyph-name="ordmasculine" unicode="&#xba;" horiz-adv-x="279" 
d="M159 585q10 53 48.5 85t90.5 32q51 0 75 -32q25 -30 14 -85q-10 -54 -49 -86q-37 -31 -90 -31q-52 0 -76.5 31.5t-12.5 85.5zM294 682q-28 0 -49.5 -25t-31.5 -72q-20 -97 39 -97q28 0 49.5 25t31.5 72t-1 72t-38 25z" />
    <glyph glyph-name="guillemotright" unicode="&#xbb;" horiz-adv-x="399" 
d="M154 423l111 -158l-2 -10l-176 -158l-15 18l126 145l-66 145zM302 423l112 -158l-2 -10l-177 -158l-14 18l126 145l-66 145z" />
    <glyph glyph-name="onequarter" unicode="&#xbc;" horiz-adv-x="572" 
d="M535 0h-109l3 16l31 12l10 47h-152l3 14q62 79 95.5 137.5t46.5 123.5h53q-13 -65 -53.5 -124.5t-112.5 -130.5h124l20 95l53 43l6 -6l-28 -132h36l-4 -20h-36l-10 -50l27 -10zM590 700l-442 -700h-36l443 700h35zM240 350h-135l2 16l45 12l60 288h-46l3 17l97 20l5 -6
l-67 -322l39 -10z" />
    <glyph glyph-name="onehalf" unicode="&#xbd;" horiz-adv-x="616" 
d="M240 350h-135l2 16l45 12l60 288h-46l3 17l97 20l5 -6l-67 -322l39 -10zM590 700l-442 -700h-36l443 700h35zM585 0h-219l4 24q104 79 151 129q50 53 63 113q14 66 -49 66q-33 0 -58 -22l-7 -31q-2 -10 -10 -16.5t-18 -6.5q-22 0 -17 27q7 30 39.5 49.5t78.5 19.5
q51 0 74.5 -24t14.5 -69q-9 -44 -54 -95q-15 -18 -50 -46l-20 -16t-18.5 -14t-10.5 -8l-56 -41h139l23 42h19z" />
    <glyph glyph-name="threequarters" unicode="&#xbe;" horiz-adv-x="636" 
d="M227 664l-6 -27q-2 -10 -10 -16.5t-18 -6.5q-23 0 -18 26q6 28 39 45t77 17q50 0 74 -23t16 -64q-14 -64 -80 -80q34 -9 50 -32.5t9 -58.5q-10 -44 -49.5 -70t-94.5 -26q-46 0 -72 16.5t-20 45.5q5 26 28 26q10 0 15.5 -6.5t3.5 -16.5l-6 -29q16 -16 50 -16t58.5 21
t31.5 58q9 38 -9.5 57.5t-60.5 19.5h-23l4 20h22q74 0 88 68q7 33 -5.5 51.5t-40.5 18.5q-32 0 -53 -18zM603 0h-110l3 16l31 12l10 47h-152l3 14q62 77 95.5 136t47.5 125h53q-14 -65 -55 -124.5t-112 -130.5h124l21 95l52 43l6 -6l-28 -132h37l-5 -20h-36l-10 -50l27 -10z
M659 700l-443 -700h-36l443 700h36z" />
    <glyph glyph-name="questiondown" unicode="&#xbf;" horiz-adv-x="453" 
d="M332 460h34q-18 -124 -84 -199q-11 -13 -40.5 -45t-43.5 -50t-31 -48.5t-24 -60.5q-13 -62 13.5 -96t84.5 -34q64 0 107 40l12 58q3 15 16 26t29 11q34 0 25 -46q-10 -50 -66 -85q-55 -34 -134 -34q-88 0 -130.5 47.5t-25.5 128.5q18 83 94 149q35 30 50 44.5t43.5 47
t45 68t25.5 78.5zM415 629q12 -14 8 -35t-22 -36q-17 -14 -37 -14t-32 14q-12 15 -8 36t22 35q18 15 38 15t31 -15z" />
    <glyph glyph-name="Agrave" unicode="&#xc0;" horiz-adv-x="739" 
d="M494 700h38l138 -659l59 -18l-5 -23h-199l5 23l62 18l-40 197h-315l-122 -197l76 -18l-4 -23h-172l4 23l63 18zM546 269l-71 350l-219 -350h290zM437 865l56 46l111 -128l-22 -19z" />
    <glyph glyph-name="Aacute" unicode="&#xc1;" horiz-adv-x="739" 
d="M494 700h38l138 -659l59 -18l-5 -23h-199l5 23l62 18l-40 197h-315l-122 -197l76 -18l-4 -23h-172l4 23l63 18zM546 269l-71 350l-219 -350h290zM473 764l-14 19l164 128l36 -46z" />
    <glyph glyph-name="Acircumflex" unicode="&#xc2;" horiz-adv-x="739" 
d="M494 700h38l138 -659l59 -18l-5 -23h-199l5 23l62 18l-40 197h-315l-122 -197l76 -18l-4 -23h-172l4 23l63 18zM546 269l-71 350l-219 -350h290zM393 783l161 128h9l107 -128l-22 -19l-104 80l-137 -80z" />
    <glyph glyph-name="Atilde" unicode="&#xc3;" horiz-adv-x="739" 
d="M494 700h38l138 -659l59 -18l-5 -23h-199l5 23l62 18l-40 197h-315l-122 -197l76 -18l-4 -23h-172l4 23l63 18zM546 269l-71 350l-219 -350h290zM395 780l-14 17q89 75 126 75q21 0 47 -23t48 -23q34 0 86 45l13 -17q-88 -77 -129 -77q-19 0 -45 23q-25 24 -49 24
q-28 0 -83 -44z" />
    <glyph glyph-name="Adieresis" unicode="&#xc4;" horiz-adv-x="739" 
d="M494 700h38l138 -659l59 -18l-5 -23h-199l5 23l62 18l-40 197h-315l-122 -197l76 -18l-4 -23h-172l4 23l63 18zM546 269l-71 350l-219 -350h290zM480 824q-5 -21 -21 -34.5t-36 -13.5t-30.5 14t-6.5 34t20.5 34t36.5 14t30.5 -14t6.5 -34zM654 872q19 0 30 -14t7 -34
q-5 -20 -21 -34t-35 -14q-20 0 -31 14t-7 34t20.5 34t36.5 14z" />
    <glyph glyph-name="Aring" unicode="&#xc5;" horiz-adv-x="739" 
d="M494 700h38l138 -659l59 -18l-5 -23h-199l5 23l62 18l-40 197h-315l-122 -197l76 -18l-4 -23h-172l4 23l63 18zM546 269l-71 350l-219 -350h290zM461 825q7 36 33.5 58t62.5 22t53 -22t10 -58q-8 -37 -34.5 -59t-62.5 -22t-53 22.5t-9 58.5zM493 825q-5 -27 4.5 -43
t30.5 -16t37 16t22 43q5 27 -4.5 43t-30.5 16q-20 0 -36.5 -16t-22.5 -43z" />
    <glyph glyph-name="AE" unicode="&#xc6;" horiz-adv-x="812" 
d="M387 20l66 15l7 203h-223l-122 -197l76 -18l-4 -23h-172l4 23l63 18l412 659h385l-15 -123h-27l-15 93h-276l-11 -295h164l31 68h25l-35 -167h-25l-2 68h-159l-11 -314h177l53 93h27l-36 -123h-361zM461 269l14 350l-219 -350h205z" />
    <glyph glyph-name="Ccedilla" unicode="&#xc7;" horiz-adv-x="697" 
d="M341 -88l63 83q-145 5 -209 98q-65 95 -32 256q35 165 143 260q109 97 259 97q112 0 183 -56l34 21l9 -12l-14 -131h-28q-13 145 -174 145q-125 0 -211.5 -84.5t-118.5 -237.5q-31 -149 20.5 -234.5t178.5 -85.5q136 0 230 85l15 -19q-112 -98 -259 -103l-28 -39
q35 0 53 -10.5t13 -33.5q-3 -17 -25 -40q-21 -25 -37 -40l-49 -43l-9 13q58 52 64 81q4 16 -13 23t-58 7z" />
    <glyph glyph-name="Egrave" unicode="&#xc8;" horiz-adv-x="608" 
d="M252 344l-66 -314h310l53 93h27l-36 -123h-498l3 20l66 15l132 630l-59 15l3 20h489l-15 -123h-27l-15 93h-299l-62 -295h238l31 68h25l-35 -167h-25l-2 68h-238zM372 865l55 46l111 -128l-21 -19z" />
    <glyph glyph-name="Eacute" unicode="&#xc9;" horiz-adv-x="608" 
d="M252 344l-66 -314h310l53 93h27l-36 -123h-498l3 20l66 15l132 630l-59 15l3 20h489l-15 -123h-27l-15 93h-299l-62 -295h238l31 68h25l-35 -167h-25l-2 68h-238zM408 764l-15 19l165 128l36 -46z" />
    <glyph glyph-name="Ecircumflex" unicode="&#xca;" horiz-adv-x="608" 
d="M252 344l-66 -314h310l53 93h27l-36 -123h-498l3 20l66 15l132 630l-59 15l3 20h489l-15 -123h-27l-15 93h-299l-62 -295h238l31 68h25l-35 -167h-25l-2 68h-238zM328 783l160 128h10l106 -128l-22 -19l-103 80l-137 -80z" />
    <glyph glyph-name="Edieresis" unicode="&#xcb;" horiz-adv-x="608" 
d="M252 344l-66 -314h310l53 93h27l-36 -123h-498l3 20l66 15l132 630l-59 15l3 20h489l-15 -123h-27l-15 93h-299l-62 -295h238l31 68h25l-35 -167h-25l-2 68h-238zM416 824q-5 -21 -21 -34.5t-36 -13.5t-30.5 14t-6.5 34t20.5 34t36.5 14t30.5 -14t6.5 -34zM533 824
q4 20 20.5 34t36.5 14q19 0 30 -14t7 -34q-5 -20 -21 -34t-35 -14q-21 0 -32 14t-6 34z" />
    <glyph glyph-name="Igrave" unicode="&#xcc;" horiz-adv-x="286" 
d="M384 677l-67 -20l-129 -616l60 -18l-5 -23h-200l4 24l67 24l128 610l-59 19l5 23h200zM211 865l56 46l110 -128l-21 -19z" />
    <glyph glyph-name="Iacute" unicode="&#xcd;" horiz-adv-x="286" 
d="M384 677l-67 -20l-129 -616l60 -18l-5 -23h-200l4 24l67 24l128 610l-59 19l5 23h200zM247 764l-15 19l165 128l37 -46z" />
    <glyph glyph-name="Icircumflex" unicode="&#xce;" horiz-adv-x="286" 
d="M384 677l-66 -20l-129 -616l59 -18l-5 -23h-200l4 24l68 24l128 610l-60 19l5 23h200zM167 783l161 128h10l106 -128l-22 -19l-103 80l-137 -80z" />
    <glyph glyph-name="Idieresis" unicode="&#xcf;" horiz-adv-x="286" 
d="M384 677l-67 -20l-128 -616l59 -18l-5 -23h-200l5 24l67 24l128 610l-59 19l4 23h200zM275 824q-5 -21 -20.5 -34.5t-35.5 -13.5t-31 14t-7 34t20.5 34t36.5 14t30.5 -14t6.5 -34zM447 824q-4 -20 -20 -34t-36 -14t-31 14t-7 34t20.5 34t36.5 14t31 -14t6 -34z" />
    <glyph glyph-name="Eth" unicode="&#xd0;" horiz-adv-x="706" 
d="M174 337h-62l3 18l65 12l63 298l-59 15l3 20h282q146 0 215 -94q70 -93 36 -256t-143 -257q-108 -93 -253 -93h-282l3 20l66 15zM463 670h-143l-64 -303h170l-6 -30h-169l-65 -307h144q108 0 192 84q86 86 117 235q31 151 -18 236t-158 85z" />
    <glyph glyph-name="Ntilde" unicode="&#xd1;" horiz-adv-x="707" 
d="M42 0l4 18l67 24l129 616l-59 19l4 23h141l268 -584l115 548l-59 19l3 17h155l-3 -17l-66 -20l-138 -663h-37l-297 643l-127 -607l58 -19l-3 -17h-155zM379 780l-13 17q88 75 126 75q21 0 46 -23q26 -23 48 -23q34 0 87 45l13 -17q-89 -77 -129 -77q-20 0 -46 23
q-24 24 -48 24q-29 0 -84 -44z" />
    <glyph glyph-name="Ograve" unicode="&#xd2;" horiz-adv-x="759" 
d="M165 350q33 163 142 259q109 97 253 97t213 -97q69 -96 35 -259t-143 -260q-110 -96 -253 -96q-144 0 -213 96q-68 98 -34 260zM246 349q-32 -152 16 -238q50 -86 157 -86t191 86q85 88 116 238q32 153 -17 239q-48 87 -155 87q-108 0 -192 -87q-85 -88 -116 -239z
M482 865l55 46l112 -128l-22 -19z" />
    <glyph glyph-name="Oacute" unicode="&#xd3;" horiz-adv-x="759" 
d="M165 350q33 163 142 259q109 97 253 97t213 -97q69 -96 35 -259t-143 -260q-110 -96 -253 -96q-144 0 -213 96q-68 98 -34 260zM246 349q-32 -152 16 -238q50 -86 157 -86t191 86q85 88 116 238q32 153 -17 239q-48 87 -155 87q-108 0 -192 -87q-85 -88 -116 -239z
M518 764l-15 19l166 128l35 -46z" />
    <glyph glyph-name="Ocircumflex" unicode="&#xd4;" horiz-adv-x="759" 
d="M165 350q33 163 142 259q109 97 253 97t213 -97q69 -96 35 -259t-143 -260q-110 -96 -253 -96q-144 0 -213 96q-68 98 -34 260zM246 349q-32 -152 16 -238q50 -86 157 -86t191 86q85 88 116 238q32 153 -17 239q-48 87 -155 87q-108 0 -192 -87q-85 -88 -116 -239z
M438 783l160 128h10l106 -128l-22 -19l-103 80l-137 -80z" />
    <glyph glyph-name="Otilde" unicode="&#xd5;" horiz-adv-x="759" 
d="M165 350q33 163 142 259q109 97 253 97t213 -97q69 -96 35 -259t-143 -260q-110 -96 -253 -96q-144 0 -213 96q-68 98 -34 260zM246 349q-32 -152 16 -238q50 -86 157 -86t191 86q85 88 116 238q32 153 -17 239q-48 87 -155 87q-108 0 -192 -87q-85 -88 -116 -239z
M440 780l-14 17q88 75 126 75q21 0 46 -23q26 -23 49 -23q32 0 86 45l13 -17q-89 -77 -129 -77q-20 0 -46 23q-24 24 -48 24q-30 0 -83 -44z" />
    <glyph glyph-name="Odieresis" unicode="&#xd6;" horiz-adv-x="759" 
d="M165 350q33 163 142 259q109 97 253 97t213 -97q69 -96 35 -259t-143 -260q-110 -96 -253 -96q-144 0 -213 96q-68 98 -34 260zM246 349q-32 -152 16 -238q50 -86 157 -86t191 86q85 88 116 238q32 153 -17 239q-48 87 -155 87q-108 0 -192 -87q-85 -88 -116 -239z
M526 824q-5 -21 -21 -34.5t-36 -13.5t-30.5 14t-6.5 34t20.5 34t36.5 14t30.5 -14t6.5 -34zM643 824q5 21 21 34.5t36 13.5q19 0 30 -14t7 -34q-5 -21 -21 -34.5t-36 -13.5q-19 0 -30 14t-7 34z" />
    <glyph glyph-name="multiply" unicode="&#xd7;" horiz-adv-x="434" 
d="M254 301l-110 147l29 24l111 -147l173 147l19 -24l-173 -147l112 -148l-29 -25l-111 148l-174 -148l-19 25z" />
    <glyph glyph-name="Oslash" unicode="&#xd8;" horiz-adv-x="759" 
d="M178 74l-80 -74h-40l103 96q-63 96 -30 254q33 163 142 259q109 97 253 97q130 0 201 -81l80 75h39l-103 -97q63 -97 31 -253q-34 -163 -143 -260q-109 -96 -253 -96q-132 0 -200 80zM692 349q25 120 -2 205l-466 -436q46 -93 161 -93q107 0 191 86q85 88 116 238z
M212 349q-26 -123 2 -203l465 434q-47 95 -159 95q-108 0 -192 -87q-85 -88 -116 -239z" />
    <glyph glyph-name="Ugrave" unicode="&#xd9;" horiz-adv-x="729" 
d="M853 683l-66 -20l-86 -408q-24 -119 -111 -189q-85 -70 -203 -70q-116 0 -173 70t-33 189l85 403l-59 19l4 23h202l-5 -23l-67 -20l-84 -402q-21 -102 23.5 -160.5t139.5 -58.5q94 0 162 58q70 58 92 161l85 409l-59 19l4 17h152zM462 865l56 46l110 -128l-21 -19z" />
    <glyph glyph-name="Uacute" unicode="&#xda;" horiz-adv-x="729" 
d="M853 683l-66 -20l-86 -408q-24 -119 -111 -189q-85 -70 -203 -70q-116 0 -173 70t-33 189l85 403l-59 19l4 23h202l-5 -23l-67 -20l-84 -402q-21 -102 23.5 -160.5t139.5 -58.5q94 0 162 58q70 58 92 161l85 409l-59 19l4 17h152zM497 764l-14 19l165 128l37 -46z" />
    <glyph glyph-name="Ucircumflex" unicode="&#xdb;" horiz-adv-x="729" 
d="M853 683l-66 -20l-86 -408q-24 -119 -111 -189q-85 -70 -203 -70q-116 0 -173 70t-33 189l85 403l-59 19l4 23h202l-5 -23l-67 -20l-84 -402q-21 -102 23.5 -160.5t139.5 -58.5q94 0 162 58q70 58 92 161l85 409l-59 19l4 17h152zM418 783l160 128h9l107 -128l-21 -19
l-105 80l-136 -80z" />
    <glyph glyph-name="Udieresis" unicode="&#xdc;" horiz-adv-x="729" 
d="M853 683l-66 -20l-86 -408q-24 -119 -111 -189q-85 -70 -203 -70q-116 0 -173 70t-33 189l85 403l-59 19l4 23h202l-5 -23l-67 -20l-84 -402q-21 -102 23.5 -160.5t139.5 -58.5q94 0 162 58q70 58 92 161l85 409l-59 19l4 17h152zM412 824q5 21 21.5 34.5t36.5 13.5
t30 -13.5t6 -34.5q-4 -20 -20 -34t-36 -14t-31 14t-7 34zM717 824q-5 -21 -21 -34.5t-36 -13.5t-30.5 14t-6.5 34t20.5 34t36.5 14t30.5 -14t6.5 -34z" />
    <glyph glyph-name="Yacute" unicode="&#xdd;" horiz-adv-x="677" 
d="M362 677l-63 -17l131 -330l273 330l-72 17l4 23h173l-5 -23l-64 -17l-304 -363l-53 -256l58 -18l-4 -23h-201l5 24l67 24l52 248l-146 364l-58 17l5 23h207zM453 764l-14 19l165 128l36 -46z" />
    <glyph glyph-name="Thorn" unicode="&#xde;" horiz-adv-x="593" 
d="M384 677l-67 -20l-20 -97h118q106 0 160 -54q55 -54 35 -146q-20 -93 -96 -145q-77 -53 -182 -53h-73l-9 12l3 18h73q76 0 131.5 44.5t70.5 123.5q17 79 -19.5 124.5t-112.5 45.5h-106l-100 -484l87 -23l-4 -23h-231l5 24l67 24l128 610l-59 19l4 23h202z" />
    <glyph glyph-name="germandbls" unicode="&#xdf;" horiz-adv-x="620" 
d="M420 26q46 0 77.5 23t40.5 66q8 37 -9.5 54.5t-73.5 36.5q-31 12 -45 19q-20 9 -36 24q-31 28 -19 93q15 71 79 135q65 65 82 139q21 109 -80 109q-111 0 -138 -129l-123 -596q-24 -113 -80 -185q-55 -70 -127 -70q-34 0 -48 14t-10 37q4 19 18 31t31 12q15 0 24.5 -11.5
t5.5 -27.5l-4 -24q69 0 116 224l124 595q33 159 220 159q82 0 116 -33t22 -91q-15 -67 -83 -135q-67 -63 -83 -133q-7 -35 8.5 -53t66.5 -36l21 -9q9 -3 20 -8q13 -5 37 -23q14 -9 27 -31q16 -24 6 -77q-27 -129 -182 -129q-72 0 -111.5 25.5t-30.5 69.5q8 41 42 41
q14 0 22 -10t5 -24l-10 -41q25 -31 82 -31z" />
    <glyph glyph-name="agrave" unicode="&#xe0;" horiz-adv-x="559" 
d="M562 58l9 -12q-23 -20 -55 -35t-57 -15q-50 0 -35 76l5 12l-2 3q-35 -43 -87.5 -66.5t-102.5 -23.5q-78 0 -110.5 62t-11.5 164q25 117 98.5 179t184.5 62q67 0 127 -23l43 25l9 -12l-77 -370q-10 -49 16 -49q17 0 46 23zM435 125l58 278q-35 31 -104 31
q-73 0 -124 -53.5t-72 -153.5q-19 -91 3 -143.5t79 -52.5q39 0 83.5 24.5t76.5 69.5zM319 625l56 46l110 -128l-21 -19z" />
    <glyph glyph-name="aacute" unicode="&#xe1;" horiz-adv-x="559" 
d="M562 58l9 -12q-23 -20 -55 -35t-57 -15q-50 0 -35 76l5 12l-2 3q-35 -43 -87.5 -66.5t-102.5 -23.5q-78 0 -110.5 62t-11.5 164q25 117 98.5 179t184.5 62q67 0 127 -23l43 25l9 -12l-77 -370q-10 -49 16 -49q17 0 46 23zM435 125l58 278q-35 31 -104 31
q-73 0 -124 -53.5t-72 -153.5q-19 -91 3 -143.5t79 -52.5q39 0 83.5 24.5t76.5 69.5zM354 524l-14 19l165 128l36 -46z" />
    <glyph glyph-name="acircumflex" unicode="&#xe2;" horiz-adv-x="559" 
d="M562 58l9 -12q-23 -20 -55 -35t-57 -15q-50 0 -35 76l5 12l-2 3q-35 -43 -87.5 -66.5t-102.5 -23.5q-78 0 -110.5 62t-11.5 164q25 117 98.5 179t184.5 62q67 0 127 -23l43 25l9 -12l-77 -370q-10 -49 16 -49q17 0 46 23zM435 125l58 278q-35 31 -104 31
q-73 0 -124 -53.5t-72 -153.5q-19 -91 3 -143.5t79 -52.5q39 0 83.5 24.5t76.5 69.5zM274 543l161 128h9l107 -128l-21 -19l-105 80l-136 -80z" />
    <glyph glyph-name="atilde" unicode="&#xe3;" horiz-adv-x="559" 
d="M562 58l9 -12q-23 -20 -55 -35t-57 -15q-50 0 -35 76l5 12l-2 3q-35 -43 -87.5 -66.5t-102.5 -23.5q-78 0 -110.5 62t-11.5 164q25 117 98.5 179t184.5 62q67 0 127 -23l43 25l9 -12l-77 -370q-10 -49 16 -49q17 0 46 23zM435 125l58 278q-35 31 -104 31
q-73 0 -124 -53.5t-72 -153.5q-19 -91 3 -143.5t79 -52.5q39 0 83.5 24.5t76.5 69.5zM274 540l-13 17q88 75 125 75q21 0 47 -23t48 -23q33 0 86 45l14 -17q-89 -77 -129 -77q-20 0 -46 23q-24 24 -48 24q-29 0 -84 -44z" />
    <glyph glyph-name="adieresis" unicode="&#xe4;" horiz-adv-x="559" 
d="M562 58l9 -12q-23 -20 -55 -35t-57 -15q-50 0 -35 76l5 12l-2 3q-35 -43 -87.5 -66.5t-102.5 -23.5q-78 0 -110.5 62t-11.5 164q25 117 98.5 179t184.5 62q67 0 127 -23l43 25l9 -12l-77 -370q-10 -49 16 -49q17 0 46 23zM435 125l58 278q-35 31 -104 31
q-73 0 -124 -53.5t-72 -153.5q-19 -91 3 -143.5t79 -52.5q39 0 83.5 24.5t76.5 69.5zM268 584q5 21 21.5 34.5t37.5 13.5q19 0 29.5 -14t6.5 -34q-5 -20 -21 -34t-35 -14q-20 0 -31.5 14t-7.5 34zM480 584q4 20 20.5 34t36.5 14t30.5 -14t5.5 -34q-4 -20 -20 -34t-36 -14
t-31 14t-6 34z" />
    <glyph glyph-name="aring" unicode="&#xe5;" horiz-adv-x="559" 
d="M562 58l9 -12q-23 -20 -55 -35t-57 -15q-50 0 -35 76l5 12l-2 3q-35 -43 -87.5 -66.5t-102.5 -23.5q-78 0 -110.5 62t-11.5 164q25 117 98.5 179t184.5 62q67 0 127 -23l43 25l9 -12l-77 -370q-10 -49 16 -49q17 0 46 23zM435 125l58 278q-35 31 -104 31
q-73 0 -124 -53.5t-72 -153.5q-19 -91 3 -143.5t79 -52.5q39 0 83.5 24.5t76.5 69.5zM341 585q8 36 34.5 58t61.5 22q36 0 53.5 -21.5t10.5 -58.5q-8 -37 -34.5 -59t-62.5 -22q-35 0 -52.5 22t-10.5 59zM374 585q-5 -27 4.5 -43t29.5 -16q22 0 38 16t21 43q6 27 -3.5 43
t-30.5 16t-37 -16t-22 -43z" />
    <glyph glyph-name="ae" unicode="&#xe6;" horiz-adv-x="705" 
d="M352 464q84 0 115 -40q65 40 149 40q74 0 108.5 -30.5t23.5 -84.5q-9 -49 -70 -74q-65 -27 -211 -40l-35 -165q32 -38 110 -38q92 0 144 46l15 -20q-71 -62 -185 -62q-102 0 -150 59q-34 -26 -84.5 -43t-98.5 -17q-113 0 -92 107q13 68 81 97q52 24 223 62q6 0 7 1l18 84
q8 39 -14 63.5t-66 24.5q-52 0 -101 -31l-11 -50q-3 -15 -15 -25.5t-28 -10.5q-34 0 -27 40q11 47 65 76q55 31 129 31zM365 84l31 146q-6 -1 -70 -16l-52 -13q-35 -9 -46 -16l-29 -19q-27 -19 -35 -59q-17 -77 62 -77q35 0 73.5 15t65.5 39zM489 344l-16 -79
q109 12 155 29.5t54 56.5q7 35 -13.5 59t-63.5 24q-65 0 -115 -50q3 -22 -1 -40z" />
    <glyph glyph-name="ccedilla" unicode="&#xe7;" horiz-adv-x="500" 
d="M219 -88l63 84q-98 5 -142 67.5t-22 168.5q23 109 94.5 170.5t176.5 61.5q72 0 115 -28q45 -27 35 -75q-9 -44 -45 -44q-15 0 -23.5 11t-5.5 26l11 51q-29 29 -91 29q-70 0 -120 -52t-69 -144q-21 -99 14 -152.5t117 -53.5q89 0 141 46l15 -20q-67 -58 -173 -62l-30 -41
q35 0 53.5 -10.5t13.5 -33.5q-3 -17 -25 -40q-18 -22 -38 -40l-50 -43l-9 13q60 53 65 81q4 16 -13 23t-58 7z" />
    <glyph glyph-name="egrave" unicode="&#xe8;" horiz-adv-x="485" 
d="M192 212q-18 -89 16 -134.5t116 -45.5q91 0 143 46l16 -20q-71 -62 -185 -62q-106 0 -154 63.5t-25 172.5q23 108 97.5 170t180.5 62q74 0 109 -30.5t24 -84.5q-12 -60 -86 -93q-75 -34 -252 -44zM386 434q-63 0 -116 -52q-53 -51 -72 -142q128 10 191 35t75 76
q6 37 -14 60t-64 23zM310 625l55 46l111 -128l-21 -19z" />
    <glyph glyph-name="eacute" unicode="&#xe9;" horiz-adv-x="485" 
d="M192 212q-18 -89 16 -134.5t116 -45.5q91 0 143 46l16 -20q-71 -62 -185 -62q-106 0 -154 63.5t-25 172.5q23 108 97.5 170t180.5 62q74 0 109 -30.5t24 -84.5q-12 -60 -86 -93q-75 -34 -252 -44zM386 434q-63 0 -116 -52q-53 -51 -72 -142q128 10 191 35t75 76
q6 37 -14 60t-64 23zM345 524l-14 19l165 128l36 -46z" />
    <glyph glyph-name="ecircumflex" unicode="&#xea;" horiz-adv-x="485" 
d="M192 212q-18 -89 16 -134.5t116 -45.5q91 0 143 46l16 -20q-71 -62 -185 -62q-106 0 -154 63.5t-25 172.5q23 108 97.5 170t180.5 62q74 0 109 -30.5t24 -84.5q-12 -60 -86 -93q-75 -34 -252 -44zM386 434q-63 0 -116 -52q-53 -51 -72 -142q128 10 191 35t75 76
q6 37 -14 60t-64 23zM266 543l160 128h9l107 -128l-21 -19l-105 80l-137 -80z" />
    <glyph glyph-name="edieresis" unicode="&#xeb;" horiz-adv-x="485" 
d="M192 212q-18 -89 16 -134.5t116 -45.5q91 0 143 46l16 -20q-71 -62 -185 -62q-106 0 -154 63.5t-25 172.5q23 108 97.5 170t180.5 62q74 0 109 -30.5t24 -84.5q-12 -60 -86 -93q-75 -34 -252 -44zM386 434q-63 0 -116 -52q-53 -51 -72 -142q128 10 191 35t75 76
q6 37 -14 60t-64 23zM260 584q5 21 21 34.5t36 13.5t30.5 -14t6.5 -34q-5 -20 -21 -34t-35 -14q-20 0 -31 14t-7 34zM564 584q-4 -20 -20 -34t-36 -14t-31 14t-7 34t21 34t37 14t30.5 -14t5.5 -34z" />
    <glyph glyph-name="igrave" unicode="&#xec;" horiz-adv-x="267" 
d="M160 625l56 46l110 -128l-21 -19zM121 403l-10 12q23 20 55.5 35t57.5 15q50 0 35 -76l-64 -305q-10 -49 16 -49q18 0 46 23l10 -12q-23 -20 -55.5 -35t-56.5 -15q-52 0 -37 76l65 305q10 49 -16 49q-18 0 -46 -23z" />
    <glyph glyph-name="iacute" unicode="&#xed;" horiz-adv-x="267" 
d="M194 524l-13 19l164 128l36 -46zM120 403l-10 12q23 20 55.5 35t57.5 15q51 0 36 -76l-65 -305q-10 -49 16 -49q18 0 47 23l9 -12q-61 -50 -112 -50t-36 76l65 305q10 49 -16 49q-19 0 -47 -23z" />
    <glyph glyph-name="icircumflex" unicode="&#xee;" horiz-adv-x="266" 
d="M121 403l-10 12q23 20 55.5 35t56.5 15q51 0 36 -76l-64 -305q-10 -49 15 -49q18 0 47 23l9 -12q-61 -50 -111 -50q-52 0 -37 76l65 305q10 49 -16 49q-18 0 -46 -23zM116 543l160 128h9l107 -128l-22 -19l-103 80l-137 -80z" />
    <glyph glyph-name="idieresis" unicode="&#xef;" horiz-adv-x="267" 
d="M231 584q-5 -20 -21 -34t-35 -14q-31 0 -37.5 30t19.5 52q28 22 54 10t20 -44zM280 584q5 21 21.5 34.5t36.5 13.5q19 0 30 -14t7 -34q-5 -21 -21 -34.5t-36 -13.5t-31 14t-7 34zM121 403l-10 12q23 20 55.5 35t57.5 15q50 0 35 -76l-64 -305q-10 -49 16 -49q18 0 46 23
l10 -12q-23 -20 -55.5 -35t-56.5 -15q-52 0 -37 76l65 305q10 49 -16 49q-18 0 -46 -23z" />
    <glyph glyph-name="eth" unicode="&#xf0;" horiz-adv-x="541" 
d="M386 542l-18 24l92 78q-76 71 -197 95l20 17q135 -21 211 -82l96 82l19 -24l-92 -79q109 -114 60 -349q-65 -308 -284 -308q-102 0 -147.5 62.5t-23.5 171.5q23 109 94.5 171.5t170.5 62.5q110 0 140 -86h4q31 147 -51 244zM482 230q20 95 -7 149.5t-91 54.5
t-114.5 -54.5t-70.5 -149.5q-19 -96 8 -149.5t92 -53.5t114.5 54.5t68.5 148.5z" />
    <glyph glyph-name="ntilde" unicode="&#xf1;" horiz-adv-x="575" 
d="M113 403l-10 12q23 20 55.5 35t57.5 15q51 0 36 -76l-7 -19l2 -3q42 47 99 72t103 25q59 0 82.5 -44.5t7.5 -117.5l-45 -218q-10 -49 16 -49q18 0 46 23l10 -12q-23 -20 -55.5 -35t-57.5 -15q-51 0 -36 76l48 225q13 59 -4.5 95t-56.5 36q-36 0 -82 -26.5t-83 -74.5
l-68 -327h-62l-10 12l77 365q10 49 -16 49q-19 0 -47 -23zM262 540l-14 17q88 75 125 75q21 0 47 -23t49 -23q32 0 86 45l14 -17q-92 -77 -130 -77q-19 0 -45 23q-26 24 -49 24q-28 0 -83 -44z" />
    <glyph glyph-name="ograve" unicode="&#xf2;" horiz-adv-x="541" 
d="M117 230q22 107 97 171q75 63 174 63q100 0 148 -63q48 -64 26 -171q-23 -107 -97 -171q-73 -63 -174 -63q-100 0 -148 63q-48 64 -26 171zM194 230q-19 -95 9 -149t94 -54t117 54.5t71 148.5q20 95 -8 149.5t-95 54.5t-117.5 -54.5t-70.5 -149.5zM311 625l55 46
l111 -128l-21 -19z" />
    <glyph glyph-name="oacute" unicode="&#xf3;" horiz-adv-x="541" 
d="M117 230q22 107 97 171q75 63 174 63q100 0 148 -63q48 -64 26 -171q-23 -107 -97 -171q-73 -63 -174 -63q-100 0 -148 63q-48 64 -26 171zM194 230q-19 -95 9 -149t94 -54t117 54.5t71 148.5q20 95 -8 149.5t-95 54.5t-117.5 -54.5t-70.5 -149.5zM346 524l-14 19
l165 128l36 -46z" />
    <glyph glyph-name="ocircumflex" unicode="&#xf4;" horiz-adv-x="541" 
d="M117 230q22 107 97 171q75 63 174 63q100 0 148 -63q48 -64 26 -171q-23 -107 -97 -171q-73 -63 -174 -63q-100 0 -148 63q-48 64 -26 171zM194 230q-19 -95 9 -149t94 -54t117 54.5t71 148.5q20 95 -8 149.5t-95 54.5t-117.5 -54.5t-70.5 -149.5zM267 543l160 128h9
l107 -128l-21 -19l-105 80l-137 -80z" />
    <glyph glyph-name="otilde" unicode="&#xf5;" horiz-adv-x="541" 
d="M117 230q22 107 97 171q75 63 174 63q100 0 148 -63q48 -64 26 -171q-23 -107 -97 -171q-73 -63 -174 -63q-100 0 -148 63q-48 64 -26 171zM194 230q-19 -95 9 -149t94 -54t117 54.5t71 148.5q20 95 -8 149.5t-95 54.5t-117.5 -54.5t-70.5 -149.5zM268 540l-13 17
q89 75 124 75q21 0 47 -23t49 -23q33 0 86 45l14 -17q-89 -77 -129 -77q-20 0 -46 23q-24 24 -49 24q-28 0 -83 -44z" />
    <glyph glyph-name="odieresis" unicode="&#xf6;" horiz-adv-x="541" 
d="M117 230q22 107 97 171q75 63 174 63q100 0 148 -63q48 -64 26 -171q-23 -107 -97 -171q-73 -63 -174 -63q-100 0 -148 63q-48 64 -26 171zM194 230q-19 -95 9 -149t94 -54t117 54.5t71 148.5q20 95 -8 149.5t-95 54.5t-117.5 -54.5t-70.5 -149.5zM261 584q5 21 21 34.5
t36 13.5t30.5 -14t6.5 -34q-5 -20 -21 -34t-35 -14q-20 0 -31 14t-7 34zM565 584q-4 -20 -20 -34t-36 -14t-31 14t-7 34t21 34t37 14t30.5 -14t5.5 -34z" />
    <glyph glyph-name="divide" unicode="&#xf7;" horiz-adv-x="434" 
d="M449 263h-355l7 35h355zM201 145q4 19 20.5 33t35.5 14t29.5 -13.5t7.5 -33.5q-4 -20 -20.5 -34t-36.5 -14q-19 0 -29.5 14t-6.5 34zM257 417q5 20 21 33.5t35 13.5q20 0 30.5 -14t6.5 -33q-4 -20 -20.5 -33.5t-35.5 -13.5t-29.5 13.5t-7.5 33.5z" />
    <glyph glyph-name="oslash" unicode="&#xf8;" horiz-adv-x="541" 
d="M134 43l-47 -43h-39l69 64q-43 62 -22 166q22 107 97 171q75 63 174 63q86 0 135 -48l48 44h39l-70 -65q43 -62 22 -165q-23 -107 -97 -171q-73 -63 -174 -63q-88 0 -135 47zM172 230q-15 -70 -2 -118l286 263q-29 59 -96 59t-117.5 -54.5t-70.5 -149.5zM463 230
q13 70 3 117l-287 -263q29 -57 96 -57q66 0 117 54.5t71 148.5z" />
    <glyph glyph-name="ugrave" unicode="&#xf9;" horiz-adv-x="570" 
d="M113 403l-10 12q23 20 55.5 35t57.5 15q51 0 36 -76l-53 -251q-10 -48 7 -77t55 -29t84.5 27.5t81.5 76.5l67 324h62l10 -12l-77 -364q-10 -49 16 -49q18 0 46 23l10 -12q-61 -50 -113 -50q-50 0 -35 76l7 21l-2 3q-41 -48 -98 -74q-58 -26 -105 -26q-57 0 -80 37.5
t-10 101.5l51 242q10 49 -16 49q-19 0 -47 -23zM304 625l56 46l110 -128l-21 -19z" />
    <glyph glyph-name="uacute" unicode="&#xfa;" horiz-adv-x="570" 
d="M113 403l-10 12q23 20 55.5 35t57.5 15q51 0 36 -76l-53 -251q-10 -48 7 -77t55 -29t84.5 27.5t81.5 76.5l67 324h62l10 -12l-77 -364q-10 -49 16 -49q18 0 46 23l10 -12q-61 -50 -113 -50q-50 0 -35 76l7 21l-2 3q-41 -48 -98 -74q-58 -26 -105 -26q-57 0 -80 37.5
t-10 101.5l51 242q10 49 -16 49q-19 0 -47 -23zM339 524l-14 19l165 128l36 -46z" />
    <glyph glyph-name="ucircumflex" unicode="&#xfb;" horiz-adv-x="570" 
d="M113 403l-10 12q23 20 55.5 35t57.5 15q51 0 36 -76l-53 -251q-10 -48 7 -77t55 -29t84.5 27.5t81.5 76.5l67 324h62l10 -12l-77 -364q-10 -49 16 -49q18 0 46 23l10 -12q-61 -50 -113 -50q-50 0 -35 76l7 21l-2 3q-41 -48 -98 -74q-58 -26 -105 -26q-57 0 -80 37.5
t-10 101.5l51 242q10 49 -16 49q-19 0 -47 -23zM259 543l161 128h9l107 -128l-22 -19l-104 80l-137 -80z" />
    <glyph glyph-name="udieresis" unicode="&#xfc;" horiz-adv-x="570" 
d="M113 403l-10 12q23 20 55.5 35t57.5 15q51 0 36 -76l-53 -251q-10 -48 7 -77t55 -29t84.5 27.5t81.5 76.5l67 324h62l10 -12l-77 -364q-10 -49 16 -49q18 0 46 23l10 -12q-61 -50 -113 -50q-50 0 -35 76l7 21l-2 3q-41 -48 -98 -74q-58 -26 -105 -26q-57 0 -80 37.5
t-10 101.5l51 242q10 49 -16 49q-19 0 -47 -23zM253 584q5 21 21.5 34.5t36.5 13.5t31 -14t6 -34q-4 -20 -20.5 -34t-36.5 -14t-31 14t-7 34zM464 584q5 21 21.5 34.5t36.5 13.5t30 -13.5t6 -34.5q-4 -20 -20 -34t-36 -14t-31 14t-7 34z" />
    <glyph glyph-name="yacute" unicode="&#xfd;" horiz-adv-x="531" 
d="M43 -187l-5 -27q4 -3 9 -3q26 0 89.5 56t137.5 151l-80 401q-8 35 -32 35q-22 0 -50 -23l-10 12q59 50 113 50q24 0 36 -13t18 -47l61 -352q6 8 14 18t19 24.5t19 24.5q33 44 89 131q57 90 66 134h-21q-15 0 -24 12t-6 29q4 17 18.5 28t32.5 11q20 0 31 -16t5 -46
q-10 -55 -81 -166q-73 -113 -157 -219q-83 -105 -178 -189q-91 -82 -141 -82q-24 0 -41 16.5t-11 43.5q6 34 38 41q28 6 39 -14q5 -9 2 -21zM335 524l-14 19l165 128l36 -46z" />
    <glyph glyph-name="thorn" unicode="&#xfe;" horiz-adv-x="559" 
d="M206 -250h-219l6 24l61 22l188 900l-49 14l6 27l117 18l10 -12l-60 -283l-13 -50l3 -3q29 27 75.5 42t91.5 15q87 0 122.5 -62.5t13.5 -166.5q-24 -113 -95.5 -176t-174.5 -63q-75 0 -113 32l-49 -235l84 -20zM248 375l-65 -314q35 -36 104 -36q70 0 122 54t73 151
q19 94 -7 146t-93 52q-81 0 -134 -53z" />
    <glyph glyph-name="ydieresis" unicode="&#xff;" horiz-adv-x="531" 
d="M43 -187l-5 -27q4 -3 9 -3q26 0 89.5 56t137.5 151l-80 401q-8 35 -32 35q-22 0 -50 -23l-10 12q59 50 113 50q24 0 36 -13t18 -47l61 -352q6 8 14 18t19 24.5t19 24.5q33 44 89 131q57 90 66 134h-21q-15 0 -24 12t-6 29q4 17 18.5 28t32.5 11q20 0 31 -16t5 -46
q-10 -55 -81 -166q-73 -113 -157 -219q-83 -105 -178 -189q-91 -82 -141 -82q-24 0 -41 16.5t-11 43.5q6 34 38 41q28 6 39 -14q5 -9 2 -21zM250 584q4 20 20.5 34t36.5 14t30.5 -14t5.5 -34q-4 -20 -20 -34t-36 -14t-31 14t-6 34zM554 584q-4 -20 -20.5 -34t-36.5 -14
q-31 0 -37 30t20 52q27 22 54.5 9.5t19.5 -43.5z" />
    <glyph glyph-name="Amacron" unicode="&#x100;" horiz-adv-x="739" 
d="M494 700h38l138 -659l59 -18l-5 -23h-199l5 23l62 18l-40 197h-315l-122 -197l76 -18l-4 -23h-172l4 23l63 18zM546 269l-71 350l-219 -350h290zM652 804h-231l7 36h231z" />
    <glyph glyph-name="amacron" unicode="&#x101;" horiz-adv-x="559" 
d="M562 58l9 -12q-23 -20 -55 -35t-57 -15q-50 0 -35 76l5 12l-2 3q-35 -43 -87.5 -66.5t-102.5 -23.5q-78 0 -110.5 62t-11.5 164q25 117 98.5 179t184.5 62q67 0 127 -23l43 25l9 -12l-77 -370q-10 -49 16 -49q17 0 46 23zM435 125l58 278q-35 31 -104 31
q-73 0 -124 -53.5t-72 -153.5q-19 -91 3 -143.5t79 -52.5q39 0 83.5 24.5t76.5 69.5zM533 564h-231l7 36h231z" />
    <glyph glyph-name="Abreve" unicode="&#x102;" horiz-adv-x="739" 
d="M494 700h38l138 -659l59 -18l-5 -23h-199l5 23l62 18l-40 197h-315l-122 -197l76 -18l-4 -23h-172l4 23l63 18zM546 269l-71 350l-219 -350h290zM615 868q3 15 15.5 25.5t28.5 10.5q15 0 23 -11t4 -29q-9 -40 -57 -65q-47 -25 -101 -25t-91 25q-38 26 -29 65q7 40 43 40
q16 0 24.5 -10.5t5.5 -25.5q-14 -65 53 -65t81 65z" />
    <glyph glyph-name="abreve" unicode="&#x103;" horiz-adv-x="559" 
d="M562 58l9 -12q-23 -20 -55 -35t-57 -15q-50 0 -35 76l5 12l-2 3q-35 -43 -87.5 -66.5t-102.5 -23.5q-78 0 -110.5 62t-11.5 164q25 117 98.5 179t184.5 62q67 0 127 -23l43 25l9 -12l-77 -370q-10 -49 16 -49q17 0 46 23zM435 125l58 278q-35 31 -104 31
q-73 0 -124 -53.5t-72 -153.5q-19 -91 3 -143.5t79 -52.5q39 0 83.5 24.5t76.5 69.5zM498 628q5 26 33 34q29 8 38 -14q4 -10 1 -24q-9 -40 -57 -65q-47 -25 -102 -25q-54 0 -91 25q-38 26 -29 65q3 19 15.5 29.5t27.5 10.5q16 0 24.5 -10.5t4.5 -25.5q-14 -65 54 -65
q67 0 81 65z" />
    <glyph glyph-name="Aogonek" unicode="&#x104;" horiz-adv-x="739" 
d="M678 -157l9 -11q-55 -44 -98 -44q-60 0 -46 62q17 74 100 150h-118l5 23l62 18l-40 197h-315l-122 -197l76 -18l-4 -23h-172l4 23l63 18l412 659h38l138 -659l59 -18l-5 -23h-56q-67 -74 -79 -138q-9 -42 27 -42t62 23zM546 269l-71 350l-219 -350h290z" />
    <glyph glyph-name="aogonek" unicode="&#x105;" horiz-adv-x="559" 
d="M520 -149l9 -10q-53 -44 -98 -44q-59 0 -45 62q13 65 87 139l-14 -2q-50 0 -35 76l5 12l-2 3q-35 -43 -87.5 -66.5t-102.5 -23.5q-78 0 -110.5 62t-11.5 164q25 117 98.5 179t184.5 62q67 0 127 -23l43 25l9 -12l-77 -370q-10 -49 16 -49q17 0 46 23l9 -12
q-29 -24 -60 -37h1q-65 -70 -80 -138q-9 -43 26 -43q33 0 62 23zM435 125l58 278q-35 31 -104 31q-73 0 -124 -53.5t-72 -153.5q-19 -91 3 -143.5t79 -52.5q39 0 83.5 24.5t76.5 69.5z" />
    <glyph glyph-name="Cacute" unicode="&#x106;" horiz-adv-x="697" 
d="M675 116l15 -19q-118 -103 -272 -103q-150 0 -219 95q-69 97 -35 260q35 165 143 260q109 97 259 97q112 0 183 -56l34 21l9 -12l-14 -131h-28q-13 145 -174 145q-125 0 -211.5 -84.5t-118.5 -237.5q-31 -149 20.5 -234.5t178.5 -85.5q136 0 230 85zM526 764l-14 19
l164 128l37 -46z" />
    <glyph glyph-name="cacute" unicode="&#x107;" horiz-adv-x="500" 
d="M466 354l11 51q-29 29 -91 29q-70 0 -120 -52t-69 -144q-21 -99 14 -152.5t117 -53.5q89 0 141 46l15 -20q-74 -62 -186 -62q-105 0 -153.5 63t-25.5 173q23 109 94.5 170.5t176.5 61.5q72 0 115 -28q45 -27 35 -75q-9 -44 -45 -44q-15 0 -23.5 11t-5.5 26zM347 524
l-14 19l165 128l36 -46z" />
    <glyph glyph-name="Ccircumflex" unicode="&#x108;" horiz-adv-x="697" 
d="M675 116l15 -19q-118 -103 -272 -103q-150 0 -219 95q-69 97 -35 260q35 165 143 260q109 97 259 97q112 0 183 -56l34 21l9 -12l-14 -131h-28q-13 145 -174 145q-125 0 -211.5 -84.5t-118.5 -237.5q-31 -149 20.5 -234.5t178.5 -85.5q136 0 230 85zM443 783l160 128h10
l106 -128l-21 -19l-104 80l-137 -80z" />
    <glyph glyph-name="ccircumflex" unicode="&#x109;" horiz-adv-x="500" 
d="M466 354l11 51q-29 29 -91 29q-70 0 -120 -52t-69 -144q-21 -99 14 -152.5t117 -53.5q89 0 141 46l15 -20q-74 -62 -186 -62q-105 0 -153.5 63t-25.5 173q23 109 94.5 170.5t176.5 61.5q72 0 115 -28q45 -27 35 -75q-9 -44 -45 -44q-15 0 -23.5 11t-5.5 26zM268 543
l160 128h9l107 -128l-21 -19l-105 80l-137 -80z" />
    <glyph glyph-name="Cdotaccent" unicode="&#x10a;" horiz-adv-x="697" 
d="M675 116l15 -19q-118 -103 -272 -103q-150 0 -219 95q-69 97 -35 260q35 165 143 260q109 97 259 97q112 0 183 -56l34 21l9 -12l-14 -131h-28q-13 145 -174 145q-125 0 -211.5 -84.5t-118.5 -237.5q-31 -149 20.5 -234.5t178.5 -85.5q136 0 230 85zM542 848
q5 21 21.5 35t37.5 14t32 -14t7 -35q-5 -22 -21.5 -36.5t-37.5 -14.5t-32 14.5t-7 36.5z" />
    <glyph glyph-name="cdotaccent" unicode="&#x10b;" horiz-adv-x="500" 
d="M466 354l11 51q-29 29 -91 29q-70 0 -120 -52t-69 -144q-21 -99 14 -152.5t117 -53.5q89 0 141 46l15 -20q-74 -62 -186 -62q-105 0 -153.5 63t-25.5 173q23 109 94.5 170.5t176.5 61.5q72 0 115 -28q45 -27 35 -75q-9 -44 -45 -44q-15 0 -23.5 11t-5.5 26zM369 608
q4 21 21 35t38 14q22 0 33.5 -14t6.5 -35q-4 -22 -21.5 -36.5t-38.5 -14.5t-32 14.5t-7 36.5z" />
    <glyph glyph-name="Ccaron" unicode="&#x10c;" horiz-adv-x="697" 
d="M675 116l15 -19q-118 -103 -272 -103q-150 0 -219 95q-69 97 -35 260q35 165 143 260q109 97 259 97q112 0 183 -56l34 21l9 -12l-14 -131h-28q-13 145 -174 145q-125 0 -211.5 -84.5t-118.5 -237.5q-31 -149 20.5 -234.5t178.5 -85.5q136 0 230 85zM742 893l-160 -129
h-10l-106 129l22 18l103 -80l137 80z" />
    <glyph glyph-name="ccaron" unicode="&#x10d;" horiz-adv-x="500" 
d="M466 354l11 51q-29 29 -91 29q-70 0 -120 -52t-69 -144q-21 -99 14 -152.5t117 -53.5q89 0 141 46l15 -20q-74 -62 -186 -62q-105 0 -153.5 63t-25.5 173q23 109 94.5 170.5t176.5 61.5q72 0 115 -28q45 -27 35 -75q-9 -44 -45 -44q-15 0 -23.5 11t-5.5 26zM567 653
l-161 -129h-8l-107 129l21 18l104 -80l137 80z" />
    <glyph glyph-name="Dcaron" unicode="&#x10e;" horiz-adv-x="706" 
d="M184 680l3 20h282q146 0 215 -94q70 -93 36 -256t-143 -257q-108 -93 -253 -93h-282l3 20l66 15l132 630zM463 670h-143l-134 -640h144q108 0 192 84q86 86 117 235q31 151 -18 236t-158 85zM667 893l-161 -129h-9l-107 129l21 18l105 -80l137 80z" />
    <glyph glyph-name="dcaron" unicode="&#x10f;" horiz-adv-x="654" 
d="M562 58l9 -12q-23 -20 -55 -35t-57 -15q-50 0 -35 76l5 12l-2 3q-36 -42 -88.5 -66.5t-102.5 -24.5q-78 0 -110 62t-11 165q24 115 95.5 178t176.5 63q75 0 113 -32l56 271l-56 14l5 21l123 18l10 -12l-138 -660q-10 -49 16 -49q17 0 46 23zM435 125l57 273
q-36 36 -104 36q-72 0 -123 -54t-72 -153q-19 -91 3 -143t80 -52q39 0 83 24t76 69zM708 571l-10 13q18 15 35 39t19 37q2 6 0 9q-18 0 -28 12t-6 30t19 30.5t33 12.5q42 0 32 -54q-14 -62 -94 -129z" />
    <glyph glyph-name="Dcroat" unicode="&#x110;" horiz-adv-x="706" 
d="M174 337h-62l3 18l65 12l63 298l-59 15l3 20h282q146 0 215 -94q70 -93 36 -256t-143 -257q-108 -93 -253 -93h-282l3 20l66 15zM463 670h-143l-64 -303h170l-6 -30h-169l-65 -307h144q108 0 192 84q86 86 117 235q31 151 -18 236t-158 85z" />
    <glyph glyph-name="dslash" unicode="&#x111;" horiz-adv-x="559" 
d="M562 58l9 -12q-23 -20 -55 -35t-57 -15q-50 0 -35 76l5 12l-2 3q-36 -42 -88.5 -66.5t-102.5 -24.5q-78 0 -110 62t-11 165q24 115 95.5 178t176.5 63q75 0 113 -32l31 153h-176l6 30h176l19 88l-56 14l5 21l123 18l10 -12l-27 -129l49 -12l-4 -18h-51l-105 -501
q-10 -49 16 -49q17 0 46 23zM435 125l57 273q-36 36 -104 36q-72 0 -123 -54t-72 -153q-19 -91 3 -143t80 -52q39 0 83 24t76 69z" />
    <glyph glyph-name="Emacron" unicode="&#x112;" horiz-adv-x="608" 
d="M252 344l-66 -314h310l53 93h27l-36 -123h-498l3 20l66 15l132 630l-59 15l3 20h489l-15 -123h-27l-15 93h-299l-62 -295h238l31 68h25l-35 -167h-25l-2 68h-238zM586 804h-231l7 36h231z" />
    <glyph glyph-name="emacron" unicode="&#x113;" horiz-adv-x="485" 
d="M192 212q-18 -89 16 -134.5t116 -45.5q91 0 143 46l16 -20q-71 -62 -185 -62q-106 0 -154 63.5t-25 172.5q23 108 97.5 170t180.5 62q74 0 109 -30.5t24 -84.5q-12 -60 -86 -93q-75 -34 -252 -44zM386 434q-63 0 -116 -52q-53 -51 -72 -142q128 10 191 35t75 76
q6 37 -14 60t-64 23zM524 564h-231l7 36h231z" />
    <glyph glyph-name="Ebreve" unicode="&#x114;" horiz-adv-x="608" 
d="M252 344l-66 -314h310l53 93h27l-36 -123h-498l3 20l66 15l132 630l-59 15l3 20h489l-15 -123h-27l-15 93h-299l-62 -295h238l31 68h25l-35 -167h-25l-2 68h-238zM552 868q3 15 15 25.5t28 10.5q15 0 23 -11t4 -29q-9 -40 -57 -65q-47 -25 -101 -25t-91 25q-38 26 -29 65
q3 19 15.5 29.5t27.5 10.5q16 0 24.5 -10.5t5.5 -25.5q-14 -65 53 -65t82 65z" />
    <glyph glyph-name="ebreve" unicode="&#x115;" horiz-adv-x="485" 
d="M192 212q-18 -89 16 -134.5t116 -45.5q91 0 143 46l16 -20q-71 -62 -185 -62q-106 0 -154 63.5t-25 172.5q23 108 97.5 170t180.5 62q74 0 109 -30.5t24 -84.5q-12 -60 -86 -93q-75 -34 -252 -44zM386 434q-63 0 -116 -52q-53 -51 -72 -142q128 10 191 35t75 76
q6 37 -14 60t-64 23zM489 628q6 27 35 34q28 7 36 -15q3 -10 1 -23q-9 -40 -57 -65q-47 -25 -102 -25q-54 0 -91 25q-38 26 -29 65q7 40 44 40q15 0 23 -10.5t5 -25.5q-14 -65 53 -65q68 0 82 65z" />
    <glyph glyph-name="Edotaccent" unicode="&#x116;" horiz-adv-x="608" 
d="M252 344l-66 -314h310l53 93h27l-36 -123h-498l3 20l66 15l132 630l-59 15l3 20h489l-15 -123h-27l-15 93h-299l-62 -295h238l31 68h25l-35 -167h-25l-2 68h-238zM430 848q5 21 22 35t38 14t32 -14t7 -35q-5 -22 -22 -36.5t-38 -14.5t-32 14.5t-7 36.5z" />
    <glyph glyph-name="edotaccent" unicode="&#x117;" horiz-adv-x="485" 
d="M192 212q-18 -89 16 -134.5t116 -45.5q91 0 143 46l16 -20q-71 -62 -185 -62q-106 0 -154 63.5t-25 172.5q23 108 97.5 170t180.5 62q74 0 109 -30.5t24 -84.5q-12 -60 -86 -93q-75 -34 -252 -44zM386 434q-63 0 -116 -52q-53 -51 -72 -142q128 10 191 35t75 76
q6 37 -14 60t-64 23zM368 608q4 21 21 35t38 14q22 0 33.5 -14t6.5 -35q-4 -22 -21.5 -36.5t-38.5 -14.5t-32 14.5t-7 36.5z" />
    <glyph glyph-name="Eogonek" unicode="&#x118;" horiz-adv-x="608" 
d="M507 -157l9 -11q-53 -44 -97 -44q-60 0 -46 62q13 70 99 150h-430l3 20l66 15l132 630l-59 15l3 20h489l-15 -123h-27l-15 93h-299l-62 -295h238l31 68h25l-35 -167h-25l-2 68h-238l-66 -314h310l53 93h27l-36 -123h-42q-66 -72 -79 -138q-9 -42 26 -42q36 0 62 23z" />
    <glyph glyph-name="eogonek" unicode="&#x119;" horiz-adv-x="485" 
d="M432 -134l8 -10q-52 -44 -96 -44q-59 0 -47 62q14 64 82 132q-43 -10 -81 -10q-106 0 -154 63.5t-25 172.5q23 108 97.5 170t180.5 62q74 0 109 -30.5t24 -84.5q-12 -60 -86 -93q-75 -34 -252 -44q-18 -89 16 -134.5t116 -45.5q91 0 143 46l16 -20q-26 -23 -65 -39
q-59 -63 -75 -133q-7 -43 27 -43q36 0 62 23zM386 434q-63 0 -116 -52q-53 -51 -72 -142q128 10 191 35t75 76q6 37 -14 60t-64 23z" />
    <glyph glyph-name="Ecaron" unicode="&#x11a;" horiz-adv-x="608" 
d="M252 344l-66 -314h310l53 93h27l-36 -123h-498l3 20l66 15l132 630l-59 15l3 20h489l-15 -123h-27l-15 93h-299l-62 -295h238l31 68h25l-35 -167h-25l-2 68h-238zM627 893l-160 -129h-10l-106 129l21 18l104 -80l137 80z" />
    <glyph glyph-name="ecaron" unicode="&#x11b;" horiz-adv-x="485" 
d="M192 212q-18 -89 16 -134.5t116 -45.5q91 0 143 46l16 -20q-71 -62 -185 -62q-106 0 -154 63.5t-25 172.5q23 108 97.5 170t180.5 62q74 0 109 -30.5t24 -84.5q-12 -60 -86 -93q-75 -34 -252 -44zM386 434q-63 0 -116 -52q-53 -51 -72 -142q128 10 191 35t75 76
q6 37 -14 60t-64 23zM565 653l-160 -129h-10l-106 129l21 18l104 -80l137 80z" />
    <glyph glyph-name="Gcircumflex" unicode="&#x11c;" horiz-adv-x="739" 
d="M795 312l-66 -20l-53 -252l-14 -12l-32 27q-97 -61 -212 -61q-150 0 -219 95q-69 97 -35 260q35 165 143 260q109 97 259 97q112 0 183 -56l34 21l9 -12l-14 -131h-28q-13 145 -174 145q-125 0 -211.5 -84.5t-118.5 -237.5q-31 -149 19 -234.5t174 -85.5q95 0 171 52
l43 210l-59 19l5 23h202zM446 783l161 128h9l107 -128l-22 -19l-104 80l-136 -80z" />
    <glyph glyph-name="gcircumflex" unicode="&#x11d;" horiz-adv-x="542" 
d="M589 437l-62 -17h-41q42 -42 27 -114q-15 -71 -76 -113q-62 -42 -145 -42q-64 0 -104 24q-30 -33 -36 -65q-7 -28 9.5 -41.5t57.5 -13.5h137q154 0 125 -134q-35 -174 -295 -174q-96 0 -140.5 26t-34.5 78q18 79 119 141q-55 19 -40 85q11 53 79 111q-49 43 -33 118
q15 71 76 114t146 43q21 0 39 -3h197zM349 -17h-156q-19 0 -36 3q-58 -53 -71 -114q-11 -52 18 -73.5t100 -21.5q91 0 147 31t69 90q15 85 -71 85zM210 306q-12 -59 12 -93t76 -34t90 34t50 93q13 59 -11.5 94t-75.5 35t-89.5 -35t-51.5 -94zM236 543l160 128h10l106 -128
l-22 -19l-103 80l-138 -80z" />
    <glyph glyph-name="Gbreve" unicode="&#x11e;" horiz-adv-x="739" 
d="M795 312l-66 -20l-53 -252l-14 -12l-32 27q-97 -61 -212 -61q-150 0 -219 95q-69 97 -35 260q35 165 143 260q109 97 259 97q112 0 183 -56l34 21l9 -12l-14 -131h-28q-13 145 -174 145q-125 0 -211.5 -84.5t-118.5 -237.5q-31 -149 19 -234.5t174 -85.5q95 0 171 52
l43 210l-59 19l5 23h202zM665 868q3 15 15.5 25.5t28.5 10.5q15 0 23 -11t4 -29q-9 -40 -57 -65q-47 -25 -101 -25t-91 25q-38 26 -30 65q9 40 44 40q15 0 24 -10.5t5 -25.5q-14 -65 54 -65q66 0 81 65z" />
    <glyph glyph-name="gbreve" unicode="&#x11f;" horiz-adv-x="542" 
d="M589 437l-62 -17h-41q42 -42 27 -114q-15 -71 -76 -113q-62 -42 -145 -42q-64 0 -104 24q-30 -33 -36 -65q-7 -28 9.5 -41.5t57.5 -13.5h137q154 0 125 -134q-35 -174 -295 -174q-96 0 -140.5 26t-34.5 78q18 79 119 141q-55 19 -40 85q11 53 79 111q-49 43 -33 118
q15 71 76 114t146 43q21 0 39 -3h197zM349 -17h-156q-19 0 -36 3q-58 -53 -71 -114q-11 -52 18 -73.5t100 -21.5q91 0 147 31t69 90q15 85 -71 85zM210 306q-12 -59 12 -93t76 -34t90 34t50 93q13 59 -11.5 94t-75.5 35t-89.5 -35t-51.5 -94zM460 628q5 26 33 34
q29 7 37 -15q4 -9 1 -23q-9 -40 -57 -65q-47 -25 -101 -25q-55 0 -92 25q-38 26 -29 65q4 33 35 39q27 5 37 -15q4 -9 1 -20q-15 -65 54 -65q66 0 81 65z" />
    <glyph glyph-name="Gdotaccent" unicode="&#x120;" horiz-adv-x="739" 
d="M795 312l-66 -20l-53 -252l-14 -12l-32 27q-97 -61 -212 -61q-150 0 -219 95q-69 97 -35 260q35 165 143 260q109 97 259 97q112 0 183 -56l34 21l9 -12l-14 -131h-28q-13 145 -174 145q-125 0 -211.5 -84.5t-118.5 -237.5q-31 -149 19 -234.5t174 -85.5q95 0 171 52
l43 210l-59 19l5 23h202zM544 848q5 21 21.5 35t37.5 14q22 0 33 -14t7 -35q-4 -22 -21.5 -36.5t-38.5 -14.5q-22 0 -33 14.5t-6 36.5z" />
    <glyph glyph-name="gdotaccent" unicode="&#x121;" horiz-adv-x="542" 
d="M589 437l-62 -17h-41q42 -42 27 -114q-15 -71 -76 -113q-62 -42 -145 -42q-64 0 -104 24q-30 -33 -36 -65q-7 -28 9.5 -41.5t57.5 -13.5h137q154 0 125 -134q-35 -174 -295 -174q-96 0 -140.5 26t-34.5 78q18 79 119 141q-55 19 -40 85q11 53 79 111q-49 43 -33 118
q15 71 76 114t146 43q21 0 39 -3h197zM349 -17h-156q-19 0 -36 3q-58 -53 -71 -114q-11 -52 18 -73.5t100 -21.5q91 0 147 31t69 90q15 85 -71 85zM210 306q-12 -59 12 -93t76 -34t90 34t50 93q13 59 -11.5 94t-75.5 35t-89.5 -35t-51.5 -94zM338 608q4 21 21.5 35t38.5 14
t32 -14t7 -35q-4 -22 -21 -36.5t-38 -14.5q-22 0 -33 14.5t-7 36.5z" />
    <glyph glyph-name="Gcommaaccent" unicode="&#x122;" horiz-adv-x="739" 
d="M795 312l-66 -20l-53 -252l-14 -12l-32 27q-97 -61 -212 -61q-150 0 -219 95q-69 97 -35 260q35 165 143 260q109 97 259 97q112 0 183 -56l34 21l9 -12l-14 -131h-28q-13 145 -174 145q-125 0 -211.5 -84.5t-118.5 -237.5q-31 -149 19 -234.5t174 -85.5q95 0 171 52
l43 210l-59 19l5 23h202zM343 -250l-10 13q18 15 35 38t20 38q2 5 0 8q-18 0 -28 12.5t-6 30.5q3 18 18 30.5t34 12.5q18 0 27.5 -13t3.5 -41q-12 -61 -94 -129z" />
    <glyph glyph-name="gcommaaccent" unicode="&#x123;" horiz-adv-x="542" 
d="M589 437l-62 -17h-41q42 -42 27 -114q-15 -71 -76 -113q-62 -42 -145 -42q-64 0 -104 24q-30 -33 -36 -65q-7 -28 9.5 -41.5t57.5 -13.5h137q154 0 125 -134q-35 -174 -295 -174q-96 0 -140.5 26t-34.5 78q18 79 119 141q-55 19 -40 85q11 53 79 111q-49 43 -33 118
q15 71 76 114t146 43q21 0 39 -3h197zM349 -17h-156q-19 0 -36 3q-58 -53 -71 -114q-11 -52 18 -73.5t100 -21.5q91 0 147 31t69 90q15 85 -71 85zM210 306q-12 -59 12 -93t76 -34t90 34t50 93q13 59 -11.5 94t-75.5 35t-89.5 -35t-51.5 -94zM432 700l10 -13
q-18 -16 -34.5 -39t-19.5 -37q0 -7 1 -8q17 0 27 -12t7 -31q-5 -18 -20 -30.5t-33 -12.5q-42 0 -31 54q13 59 93 129z" />
    <glyph glyph-name="Hcircumflex" unicode="&#x124;" horiz-adv-x="748" 
d="M42 0l5 24l67 24l128 610l-59 19l4 23h202l-5 -23l-67 -20l-60 -287h387l60 288l-59 19l5 23h202l-5 -23l-67 -20l-129 -616l60 -18l-5 -23h-201l4 24l68 24l61 291h-387l-62 -298l59 -18l-4 -23h-202zM398 783l160 128h10l106 -128l-21 -19l-104 80l-137 -80z" />
    <glyph glyph-name="hcircumflex" unicode="&#x125;" horiz-adv-x="575" 
d="M556 58l10 -12q-23 -20 -55.5 -35t-56.5 -15q-52 0 -37 76l48 225q13 61 -2.5 96t-55.5 35q-38 0 -85.5 -27.5t-82.5 -73.5l-68 -327h-62l-10 12l145 691l-56 14l4 21l124 18l10 -12l-60 -284l-21 -90l2 -3q41 45 100 71q60 26 104 26q59 0 81.5 -44t6.5 -118l-45 -218
q-10 -49 16 -49q18 0 46 23zM318 794l161 128h9l107 -128l-22 -18l-104 79l-136 -79z" />
    <glyph glyph-name="Hbar" unicode="&#x126;" horiz-adv-x="731" 
d="M209 502h-59l4 18l61 12l27 126l-59 19l4 23h202l-5 -23l-67 -20l-26 -125h370l26 126l-58 19l4 23h201l-5 -23l-66 -20l-26 -125l60 -12l-4 -18h-62l-97 -461l59 -18l-4 -23h-201l5 24l67 24l61 291h-370l-62 -298l59 -18l-4 -23h-202l5 24l67 24zM285 502l-28 -132h370
l28 132h-370z" />
    <glyph glyph-name="hbar" unicode="&#x127;" horiz-adv-x="575" 
d="M556 58l10 -12q-23 -20 -55.5 -35t-56.5 -15q-52 0 -37 76l48 225q13 61 -2.5 96t-55.5 35q-38 0 -85.5 -27.5t-82.5 -73.5l-68 -327h-62l-10 12l118 565h-58l4 18l60 13l21 95l-56 14l4 21l124 18l10 -12l-29 -136h198l-6 -31h-198l-25 -117l-21 -90l2 -3q41 45 100 71
q60 26 104 26q59 0 81.5 -44t6.5 -118l-45 -218q-10 -49 16 -49q18 0 46 23z" />
    <glyph glyph-name="Itilde" unicode="&#x128;" horiz-adv-x="286" 
d="M384 677l-67 -20l-128 -616l59 -18l-5 -23h-200l4 24l68 24l128 610l-60 19l5 23h200zM170 780l-14 17q87 75 125 75q21 0 47 -23t48 -23q34 0 86 45l13 -17q-88 -77 -128 -77q-20 0 -46 23q-26 24 -49 24q-30 0 -82 -44z" />
    <glyph glyph-name="itilde" unicode="&#x129;" horiz-adv-x="266" 
d="M111 540l-14 17q89 75 124 75q21 0 47 -23t49 -23q33 0 86 45l13 -17q-88 -77 -128 -77q-20 0 -46 23q-24 24 -49 24q-30 0 -82 -44zM114 403l-10 12q23 20 55.5 35t56.5 15q51 0 36 -76l-64 -305q-10 -49 15 -49q18 0 47 23l9 -12q-61 -50 -112 -50t-36 76l65 305
q10 49 -16 49q-18 0 -46 -23z" />
    <glyph glyph-name="Imacron" unicode="&#x12a;" horiz-adv-x="286" 
d="M384 677l-66 -20l-129 -616l59 -18l-5 -23h-200l5 24l67 24l128 610l-59 19l5 23h199zM426 804h-231l7 36h231z" />
    <glyph glyph-name="imacron" unicode="&#x12b;" horiz-adv-x="266" 
d="M374 564h-231l7 36h231zM121 403l-10 12q23 20 55.5 35t56.5 15q51 0 36 -76l-64 -305q-10 -49 15 -49q18 0 47 23l10 -12q-62 -50 -112 -50q-52 0 -37 76l65 305q10 49 -16 49q-18 0 -46 -23z" />
    <glyph glyph-name="Ibreve" unicode="&#x12c;" horiz-adv-x="287" 
d="M385 677l-67 -20l-129 -616l59 -18l-4 -23h-201l5 24l67 24l128 610l-59 19l5 23h200zM392 868q5 26 33 34q29 7 37 -15q4 -9 1 -23q-9 -40 -57 -65q-47 -25 -102 -25q-54 0 -91 25q-38 26 -29 65q3 19 15.5 29.5t27.5 10.5q16 0 24.5 -10.5t5.5 -25.5q-15 -65 53 -65
q67 0 82 65z" />
    <glyph glyph-name="ibreve" unicode="&#x12d;" horiz-adv-x="266" 
d="M326 628q3 15 15.5 25.5t28.5 10.5q15 0 23 -11t4 -29q-9 -40 -57 -65q-47 -25 -102 -25q-54 0 -91 25q-38 26 -29 65q3 19 15.5 29.5t27.5 10.5q16 0 24.5 -10.5t5.5 -25.5q-15 -65 53 -65t82 65zM121 403l-10 12q23 20 55.5 35t56.5 15q51 0 36 -76l-64 -305
q-10 -49 15 -49q18 0 47 23l9 -12q-61 -50 -112 -50t-36 76l65 305q10 49 -16 49q-18 0 -46 -23z" />
    <glyph glyph-name="Iogonek" unicode="&#x12e;" horiz-adv-x="286" 
d="M200 -157l8 -11q-53 -44 -97 -44q-60 0 -46 62q13 70 99 150h-121l4 24l67 24l128 610l-59 19l5 23h200l-4 -23l-67 -20l-129 -616l60 -18l-5 -23h-53q-66 -72 -79 -138q-9 -42 27 -42t62 23z" />
    <glyph glyph-name="iogonek" unicode="&#x12f;" horiz-adv-x="267" 
d="M215 -150l8 -11q-49 -43 -97 -43q-58 0 -46 61q13 65 88 140q-2 -1 -9 -1q-51 0 -36 76l65 305q10 49 -16 49q-19 0 -47 -23l-10 12q23 20 55.5 35t57.5 15q51 0 36 -76l-65 -305q-10 -49 16 -49q18 0 47 23l9 -12q-31 -25 -65 -39q-65 -72 -80 -137q-7 -43 27 -43
q36 0 62 23zM219 569q-11 15 -6 38t22 38t39 15t34 -15q13 -15 8 -38t-23 -38q-18 -14 -40 -14t-34 14z" />
    <glyph glyph-name="Idot" unicode="&#x130;" horiz-adv-x="286" 
d="M384 677l-67 -20l-129 -616l60 -18l-5 -23h-200l4 24l67 24l128 610l-59 19l5 23h200zM269 848q4 21 21.5 35t38.5 14t32.5 -14t7.5 -35q-5 -22 -22 -36.5t-39 -14.5q-21 0 -32 14.5t-7 36.5z" />
    <glyph glyph-name="dotlessi" unicode="&#x131;" horiz-adv-x="267" 
d="M120 403l-10 12q23 20 55.5 35t57.5 15q51 0 36 -76l-65 -305q-10 -49 16 -49q18 0 47 23l9 -12q-61 -50 -112 -50t-36 76l65 305q10 49 -16 49q-19 0 -47 -23z" />
    <glyph glyph-name="IJ" unicode="&#x132;" horiz-adv-x="565" 
d="M384 677l-67 -20l-129 -616l60 -18l-5 -23h-200l4 24l67 24l128 610l-59 19l5 23h200zM385 0l137 658l-60 19l5 23h200l-4 -23l-67 -20l-137 -657q-16 -79 -66 -147t-124 -109l-14 20q46 37 80.5 101.5t49.5 134.5z" />
    <glyph glyph-name="ij" unicode="&#x133;" horiz-adv-x="534" 
d="M120 403l-10 12q23 20 55.5 35t57.5 15q51 0 36 -76l-65 -305q-10 -49 16 -49q18 0 47 23l9 -12q-61 -50 -112 -50t-36 76l65 305q10 49 -16 49q-19 0 -47 -23zM214 569q-11 15 -6 38t22 38t39 15t34 -15q13 -15 8 -38t-23 -38q-18 -14 -40 -14t-34 14zM259 -200l-5 -24
q70 0 117 224l78 377q10 49 -15 49q-18 0 -47 -23l-10 12q62 50 112 50q52 0 36 -76l-81 -389q-24 -113 -80 -185q-55 -70 -128 -70q-34 0 -48 14.5t-8 36.5q4 19 17.5 31t30.5 12q15 0 24.5 -11.5t6.5 -27.5zM474 607q8 35 43 49t53 -12q20 -23 0 -57t-54 -32
q-23 0 -34.5 15t-7.5 37z" />
    <glyph glyph-name="Jcircumflex" unicode="&#x134;" horiz-adv-x="286" 
d="M106 0l137 658l-60 19l5 23h200l-4 -23l-67 -20l-136 -657q-18 -79 -67.5 -147t-122.5 -109l-14 20q44 35 80 103q36 67 49 133zM167 783l161 128h10l106 -128l-22 -19l-103 80l-137 -80z" />
    <glyph glyph-name="jcircumflex" unicode="&#x135;" horiz-adv-x="266" 
d="M-11 -200l-4 -24q69 0 116 224l79 377q10 49 -17 49q-18 0 -46 -23l-10 12q23 20 55.5 35t57.5 15q51 0 36 -76l-81 -389q-24 -113 -80 -185q-55 -70 -127 -70q-34 0 -48 14t-10 37q4 19 18 31t31 12q15 0 24.5 -11.5t5.5 -27.5zM112 543l161 128h9l106 -128l-21 -19
l-104 80l-137 -80z" />
    <glyph glyph-name="Kcommaaccent" unicode="&#x136;" horiz-adv-x="657" 
d="M381 677l-67 -20l-71 -341l390 342l-78 19l5 23h187l-5 -23l-65 -19l-267 -236l170 -381l60 -18l-5 -23h-126l-163 369l-113 -99l-47 -229l59 -18l-4 -23h-202l5 24l67 24l127 610l-58 19l4 23h202zM251 -250l-10 13q19 15 35.5 38.5t18.5 37.5q1 4 0 8q-18 0 -27.5 12.5
t-5.5 30.5q3 18 18 30.5t33 12.5q44 0 32 -54q-14 -63 -94 -129z" />
    <glyph glyph-name="kcommaaccent" unicode="&#x137;" horiz-adv-x="499" 
d="M316 756l10 -12l-155 -744h-62l-10 12l145 691l-56 14l4 21zM450 410l4 20q-35 -4 -83 -52q-43 -45 -79 -96l119 -212q20 -35 39 -35q20 0 48 23l10 -12q-59 -50 -103 -50q-23 0 -38 12.5t-32 46.5l-98 186q139 223 246 223q28 0 41 -14.5t8 -36.5q-4 -18 -18.5 -30.5
t-30.5 -12.5t-26 12t-7 28zM177 -250l-10 13q19 15 35.5 38.5t18.5 37.5q1 4 0 8q-17 0 -27.5 12.5t-6.5 30.5t19 30.5t33 12.5q43 0 32 -54q-12 -61 -94 -129z" />
    <glyph glyph-name="Lacute" unicode="&#x139;" horiz-adv-x="583" 
d="M317 657l-131 -627h284l54 93h27l-36 -123h-473l3 20l66 15l131 623l-59 19l4 23h202l-5 -23zM247 764l-15 19l165 128l37 -46z" />
    <glyph glyph-name="lacute" unicode="&#x13a;" horiz-adv-x="267" 
d="M264 58l10 -12q-23 -20 -55.5 -35t-56.5 -15q-51 0 -36 76l132 629l-53 14l5 23l121 18l10 -12l-138 -660q-10 -49 15 -49q18 0 46 23zM254 774l-13 18l164 128l36 -46z" />
    <glyph glyph-name="Lcommaaccent" unicode="&#x13b;" horiz-adv-x="583" 
d="M317 657l-131 -627h284l54 93h27l-36 -123h-473l3 20l66 15l131 623l-59 19l4 23h202l-5 -23zM214 -250l-10 13q18 15 34.5 38t19.5 38q2 5 0 8q-31 -2 -34 28t22 49q13 10 30 9q43 0 32 -54q-12 -61 -94 -129z" />
    <glyph glyph-name="lcommaaccent" unicode="&#x13c;" horiz-adv-x="267" 
d="M249 58l10 -12q-23 -20 -55.5 -35t-56.5 -15q-51 0 -36 76l132 629l-53 14l5 23l121 18l10 -12l-138 -660q-10 -49 15 -49q18 0 46 23zM56 -250l-10 13q19 15 35.5 38.5t18.5 37.5q1 1 1 8q-18 0 -28 12t-6 31q4 18 18.5 30.5t33.5 12.5q43 0 31 -54q-14 -63 -94 -129z
" />
    <glyph glyph-name="Lcaron" unicode="&#x13d;" horiz-adv-x="583" 
d="M318 657l-131 -627h283l54 93h27l-36 -123h-473l3 20l67 15l130 623l-59 19l4 23h202l-5 -23zM463 877l-159 -128h-10l-107 128l21 19l104 -80l137 80z" />
    <glyph glyph-name="lcaron" unicode="&#x13e;" horiz-adv-x="354" 
d="M264 58l10 -12q-23 -20 -55.5 -35t-56.5 -15q-51 0 -36 76l132 629l-53 14l5 23l121 18l10 -12l-138 -660q-10 -49 15 -49q18 0 46 23zM403 571l-10 13q18 15 35 39t19 37q2 6 -1 9q-30 -2 -33 26q-3 30 21 49q15 10 31 10q43 0 32 -54q-14 -62 -94 -129z" />
    <glyph glyph-name="Ldot" unicode="&#x13f;" horiz-adv-x="583" 
d="M317 657l-131 -627h284l54 93h27l-36 -123h-473l3 20l66 15l131 623l-59 19l4 23h202l-5 -23zM459 350q4 20 21 35t37 15q21 0 32.5 -15t7.5 -35q-5 -21 -22 -35.5t-38 -14.5q-20 0 -31 14.5t-7 35.5z" />
    <glyph glyph-name="ldot" unicode="&#x140;" horiz-adv-x="403" 
d="M264 58l10 -12q-23 -20 -55.5 -35t-56.5 -15q-51 0 -36 76l132 629l-53 14l5 23l121 18l10 -12l-138 -660q-10 -49 15 -49q18 0 46 23zM359 300q5 21 22 35.5t37 14.5t31.5 -15t6.5 -35q-4 -21 -21 -35.5t-38 -14.5q-20 0 -31 14.5t-7 35.5z" />
    <glyph glyph-name="Lslash" unicode="&#x141;" horiz-adv-x="583" 
d="M154 239l-71 -62l-17 22l97 83l79 376l-59 19l4 23h202l-5 -23l-66 -20l-67 -317l154 133l17 -22l-179 -153l-56 -268h283l53 93h28l-36 -123h-473l3 20l67 15z" />
    <glyph glyph-name="lslash" unicode="&#x142;" horiz-adv-x="267" 
d="M250 58l9 -12q-61 -50 -112 -50t-36 76l43 202l-66 -57l-17 22l92 77l80 385l-53 14l5 23l121 18l9 -12l-77 -369l66 57l16 -22l-91 -77l-52 -249q-10 -49 16 -49q18 0 47 23z" />
    <glyph glyph-name="Nacute" unicode="&#x143;" horiz-adv-x="707" 
d="M42 0l4 18l67 24l129 616l-59 19l4 23h141l268 -584l115 548l-59 19l3 17h155l-3 -17l-66 -20l-138 -663h-37l-297 643l-127 -607l58 -19l-3 -17h-155zM457 764l-13 19l164 128l36 -46z" />
    <glyph glyph-name="nacute" unicode="&#x144;" horiz-adv-x="575" 
d="M113 403l-10 12q23 20 55.5 35t57.5 15q51 0 36 -76l-7 -19l2 -3q42 47 99 72t103 25q59 0 82.5 -44.5t7.5 -117.5l-45 -218q-10 -49 16 -49q18 0 46 23l10 -12q-23 -20 -55.5 -35t-57.5 -15q-51 0 -36 76l48 225q13 59 -4.5 95t-56.5 36q-36 0 -82 -26.5t-83 -74.5
l-68 -327h-62l-10 12l77 365q10 49 -16 49q-19 0 -47 -23zM336 524l-14 19l165 128l36 -46z" />
    <glyph glyph-name="Ncommaaccent" unicode="&#x145;" horiz-adv-x="707" 
d="M42 0l4 18l67 24l129 616l-59 19l4 23h141l268 -584l115 548l-59 19l3 17h155l-3 -17l-66 -20l-138 -663h-37l-297 643l-127 -607l58 -19l-3 -17h-155zM277 -250l-10 13q18 15 34.5 38t19.5 38q1 1 1 8q-18 0 -28.5 12t-6.5 31q4 18 18.5 30.5t33.5 12.5q43 0 32 -54
q-12 -61 -94 -129z" />
    <glyph glyph-name="ncommaaccent" unicode="&#x146;" horiz-adv-x="575" 
d="M113 403l-10 12q23 20 55.5 35t57.5 15q51 0 36 -76l-7 -19l2 -3q42 47 99 72t103 25q59 0 82.5 -44.5t7.5 -117.5l-45 -218q-10 -49 16 -49q18 0 46 23l10 -12q-23 -20 -55.5 -35t-57.5 -15q-51 0 -36 76l48 225q13 59 -4.5 95t-56.5 36q-36 0 -82 -26.5t-83 -74.5
l-68 -327h-62l-10 12l77 365q10 49 -16 49q-19 0 -47 -23zM210 -250l-10 13q18 15 35 38t20 38q1 4 0 8q-18 0 -27.5 12.5t-5.5 30.5q3 18 17.5 30.5t33.5 12.5q43 0 32 -54q-12 -61 -95 -129z" />
    <glyph glyph-name="Ncaron" unicode="&#x147;" horiz-adv-x="707" 
d="M42 0l4 18l67 24l129 616l-59 19l4 23h141l268 -584l115 548l-59 19l3 17h155l-3 -17l-66 -20l-138 -663h-37l-297 643l-127 -607l58 -19l-3 -17h-155zM677 893l-161 -129h-8l-107 129l21 18l104 -80l137 80z" />
    <glyph glyph-name="ncaron" unicode="&#x148;" horiz-adv-x="575" 
d="M113 403l-10 12q23 20 55.5 35t57.5 15q51 0 36 -76l-7 -19l2 -3q42 47 99 72t103 25q59 0 82.5 -44.5t7.5 -117.5l-45 -218q-10 -49 16 -49q18 0 46 23l10 -12q-23 -20 -55.5 -35t-57.5 -15q-51 0 -36 76l48 225q13 59 -4.5 95t-56.5 36q-36 0 -82 -26.5t-83 -74.5
l-68 -327h-62l-10 12l77 365q10 49 -16 49q-19 0 -47 -23zM561 653l-160 -129h-10l-107 129l22 18l104 -80l137 80z" />
    <glyph glyph-name="Eng" unicode="&#x14a;" horiz-adv-x="707" 
d="M42 0l4 18l67 24l129 616l-59 19l4 23h143l258 -625l123 589l-59 19l3 17h155l-3 -17l-66 -20l-138 -663q-16 -79 -66.5 -147t-124.5 -109l-15 20q46 37 80 100.5t50 135.5l2 13l-260 630l-127 -607l58 -19l-3 -17h-155z" />
    <glyph glyph-name="eng" unicode="&#x14b;" 
d="M292 -200l-5 -24q69 0 116 224l62 297q13 59 -4.5 95t-56.5 36q-36 0 -82 -26.5t-83 -74.5l-68 -327h-62l-10 12l77 365q10 49 -16 49q-19 0 -47 -23l-10 12q23 20 55.5 35t57.5 15q51 0 36 -76l-7 -19l2 -3q42 47 99 72t103 25q59 0 82.5 -44.5t7.5 -117.5l-62 -302
q-24 -113 -80 -185q-55 -70 -127 -70q-34 0 -48 14t-10 37q4 19 18 31t31 12q15 0 24.5 -11.5t6.5 -27.5z" />
    <glyph glyph-name="Omacron" unicode="&#x14c;" horiz-adv-x="759" 
d="M165 350q33 163 142 259q109 97 253 97t213 -97q69 -96 35 -259t-143 -260q-110 -96 -253 -96q-144 0 -213 96q-68 98 -34 260zM246 349q-32 -152 16 -238q50 -86 157 -86t191 86q85 88 116 238q32 153 -17 239q-48 87 -155 87q-108 0 -192 -87q-85 -88 -116 -239z
M697 804h-232l8 36h231z" />
    <glyph glyph-name="omacron" unicode="&#x14d;" horiz-adv-x="541" 
d="M117 230q22 107 97 171q75 63 174 63q100 0 148 -63q48 -64 26 -171q-23 -107 -97 -171q-73 -63 -174 -63q-100 0 -148 63q-48 64 -26 171zM194 230q-19 -95 9 -149t94 -54t117 54.5t71 148.5q20 95 -8 149.5t-95 54.5t-117.5 -54.5t-70.5 -149.5zM525 564h-231l7 36h231
z" />
    <glyph glyph-name="Obreve" unicode="&#x14e;" horiz-adv-x="759" 
d="M165 350q33 163 142 259q109 97 253 97t213 -97q69 -96 35 -259t-143 -260q-110 -96 -253 -96q-144 0 -213 96q-68 98 -34 260zM246 349q-32 -152 16 -238q50 -86 157 -86t191 86q85 88 116 238q32 153 -17 239q-48 87 -155 87q-108 0 -192 -87q-85 -88 -116 -239z
M662 868q6 27 33.5 34t35.5 -15q4 -10 1 -23q-8 -39 -56 -65q-47 -25 -101 -25q-55 0 -92 25q-38 26 -29 65q3 19 15.5 29.5t27.5 10.5q16 0 24.5 -10.5t5.5 -25.5q-14 -65 53 -65q68 0 82 65z" />
    <glyph glyph-name="obreve" unicode="&#x14f;" horiz-adv-x="541" 
d="M117 230q22 107 97 171q75 63 174 63q100 0 148 -63q48 -64 26 -171q-23 -107 -97 -171q-73 -63 -174 -63q-100 0 -148 63q-48 64 -26 171zM194 230q-19 -95 9 -149t94 -54t117 54.5t71 148.5q20 95 -8 149.5t-95 54.5t-117.5 -54.5t-70.5 -149.5zM490 628q6 27 35 34
q28 7 36 -15q3 -10 1 -23q-9 -40 -57 -65q-47 -25 -102 -25q-54 0 -91 25q-38 26 -29 65q7 40 44 40q15 0 23 -10.5t5 -25.5q-14 -65 53 -65q68 0 82 65z" />
    <glyph glyph-name="Ohungarumlaut" unicode="&#x150;" horiz-adv-x="759" 
d="M165 350q33 163 142 259q109 97 253 97t213 -97q69 -96 35 -259t-143 -260q-110 -96 -253 -96q-144 0 -213 96q-68 98 -34 260zM246 349q-32 -152 16 -238q50 -86 157 -86t191 86q85 88 116 238q32 153 -17 239q-48 87 -155 87q-108 0 -192 -87q-85 -88 -116 -239z
M429 764l-14 19l157 128l37 -46zM593 764l-13 19l157 128l36 -46z" />
    <glyph glyph-name="ohungarumlaut" unicode="&#x151;" horiz-adv-x="541" 
d="M117 230q22 107 97 171q75 63 174 63q100 0 148 -63q48 -64 26 -171q-23 -107 -97 -171q-73 -63 -174 -63q-100 0 -148 63q-48 64 -26 171zM194 230q-19 -95 9 -149t94 -54t117 54.5t71 148.5q20 95 -8 149.5t-95 54.5t-117.5 -54.5t-70.5 -149.5zM257 524l-13 19
l157 128l36 -46zM423 524l-15 19l158 128l36 -46z" />
    <glyph glyph-name="OE" unicode="&#x152;" horiz-adv-x="951" 
d="M643 344l-66 -314h296l53 93h28l-37 -123h-437q-43 -6 -68 -6q-144 0 -213 96q-68 98 -34 260q33 163 142 259q109 97 253 97q24 0 66 -6h427l-15 -123h-26l-15 93h-286l-62 -295h224l32 68h25l-35 -167h-25l-3 68h-224zM419 25q46 0 85 16l128 617q-37 17 -78 17
q-108 0 -192 -87q-85 -88 -116 -239q-32 -152 16 -238q50 -86 157 -86z" />
    <glyph glyph-name="oe" unicode="&#x153;" horiz-adv-x="838" 
d="M544 212q-18 -89 16 -134.5t116 -45.5q94 0 143 46l16 -20q-71 -62 -185 -62q-127 0 -163 93q-77 -93 -196 -93q-100 0 -148 63q-48 64 -26 171t97 171q75 63 174 63q58 0 99 -24.5t58 -68.5q77 93 205 93q74 0 108.5 -30.5t23.5 -84.5q-12 -60 -86 -93q-75 -34 -252 -44
zM297 27q53 0 97 35t71 99q-2 37 7 71q9 41 20 68q0 64 -29 99t-81 35q-67 0 -117.5 -54.5t-70.5 -149.5q-19 -95 9 -149t94 -54zM739 434q-64 0 -117 -52q-53 -51 -72 -142q128 10 191 35t75 76q6 36 -14 59.5t-63 23.5z" />
    <glyph glyph-name="Racute" unicode="&#x154;" horiz-adv-x="634" 
d="M650 512q-17 -77 -74.5 -125.5t-141.5 -57.5q32 -20 56 -99l66 -189l60 -18l-4 -23h-124l-113 324h-127l-59 -283l59 -18l-4 -23h-202l5 24l67 24l129 617l-59 15l3 20h280q100 0 150.5 -51t32.5 -137zM449 670h-129l-66 -315h129q69 0 119.5 42t65.5 115
q15 74 -17.5 116t-101.5 42zM421 764l-15 19l165 128l37 -46z" />
    <glyph glyph-name="racute" unicode="&#x155;" horiz-adv-x="434" 
d="M113 403l-10 12q23 20 55.5 35t57.5 15q51 0 36 -76l-11 -39l2 -3q5 9 30 41q65 76 123 76q36 0 56.5 -25.5t13.5 -63.5q-9 -43 -44 -43q-16 0 -24 10.5t-5 25.5l11 55q-10 10 -29 10q-30 0 -66 -37q-37 -37 -57 -73l-22 -37l-59 -286h-62l-10 12l77 365q10 49 -16 49
q-19 0 -47 -23zM287 524l-14 19l165 128l36 -46z" />
    <glyph glyph-name="Rcommaaccent" unicode="&#x156;" horiz-adv-x="634" 
d="M650 512q-17 -77 -74.5 -125.5t-141.5 -57.5q32 -20 56 -99l66 -189l60 -18l-4 -23h-124l-113 324h-127l-59 -283l59 -18l-4 -23h-202l5 24l67 24l129 617l-59 15l3 20h280q100 0 150.5 -51t32.5 -137zM449 670h-129l-66 -315h129q69 0 119.5 42t65.5 115
q15 74 -17.5 116t-101.5 42zM239 -250l-10 13q19 15 35.5 38.5t18.5 37.5q1 4 0 8q-17 0 -27 12t-6 31q4 18 18.5 30.5t32.5 12.5q44 0 32 -54q-14 -63 -94 -129z" />
    <glyph glyph-name="rcommaaccent" unicode="&#x157;" horiz-adv-x="434" 
d="M113 403l-10 12q23 20 55.5 35t57.5 15q51 0 36 -76l-11 -39l2 -3q5 9 30 41q65 76 123 76q36 0 56.5 -25.5t13.5 -63.5q-9 -43 -44 -43q-16 0 -24 10.5t-5 25.5l11 55q-10 10 -29 10q-30 0 -66 -37q-37 -37 -57 -73l-22 -37l-59 -286h-62l-10 12l77 365q10 49 -16 49
q-19 0 -47 -23zM70 -250l-10 13q18 15 35 38t20 38q2 5 0 8q-18 0 -28 12.5t-6 30.5q3 18 18 30.5t33 12.5q43 0 32 -54q-14 -62 -94 -129z" />
    <glyph glyph-name="Rcaron" unicode="&#x158;" horiz-adv-x="634" 
d="M650 512q-17 -77 -74.5 -125.5t-141.5 -57.5q32 -20 56 -99l66 -189l60 -18l-4 -23h-124l-113 324h-127l-59 -283l59 -18l-4 -23h-202l5 24l67 24l129 617l-59 15l3 20h280q100 0 150.5 -51t32.5 -137zM449 670h-129l-66 -315h129q69 0 119.5 42t65.5 115
q15 74 -17.5 116t-101.5 42zM631 893l-160 -129h-10l-106 129l21 18l104 -80l137 80z" />
    <glyph glyph-name="rcaron" unicode="&#x159;" horiz-adv-x="434" 
d="M113 403l-10 12q23 20 55.5 35t57.5 15q51 0 36 -76l-11 -39l2 -3q5 9 30 41q65 76 123 76q36 0 56.5 -25.5t13.5 -63.5q-9 -43 -44 -43q-16 0 -24 10.5t-5 25.5l11 55q-10 10 -29 10q-30 0 -66 -37q-37 -37 -57 -73l-22 -37l-59 -286h-62l-10 12l77 365q10 49 -16 49
q-19 0 -47 -23zM496 653l-160 -129h-10l-107 129l22 18l104 -80l137 80z" />
    <glyph glyph-name="Sacute" unicode="&#x15a;" horiz-adv-x="563" 
d="M77 13l-9 12l16 136h27q4 -72 47.5 -105t110.5 -31q80 0 134.5 39t69.5 112q13 61 -19 90q-33 30 -121 58l-33 10l-30 11q-20 8 -30 14l-24 15q-19 12 -39 42q-24 36 -8 106q19 87 81.5 135.5t168.5 48.5q89 0 150 -44l29 23l9 -12l-15 -134h-28q1 70 -36.5 103
t-101.5 33q-72 0 -122 -38t-64 -105q-12 -59 16 -84q27 -24 110 -52q49 -17 68 -25q32 -12 59 -32q22 -14 41 -45q25 -39 9 -110q-18 -90 -86.5 -140t-183.5 -50q-100 0 -165 44zM376 764l-14 19l164 128l36 -46z" />
    <glyph glyph-name="sacute" unicode="&#x15b;" horiz-adv-x="422" 
d="M380 362l9 43q-25 28 -76 28q-46 0 -78 -21t-39 -58q-8 -34 12 -53.5t73 -35.5q66 -20 86 -35q36 -25 40 -43q14 -44 6 -67q-12 -58 -62 -91t-130 -33q-73 0 -112.5 25.5t-30.5 69.5q5 35 34 40q24 4 33 -14q4 -9 2 -19l-10 -41q28 -31 85 -31q114 0 133 85q6 28 -14 55
q-7 8 -27 17q-6 4 -18 8q-9 4 -20.5 7.5t-20.5 7.5q-61 22 -92 44q-38 28 -26 93q25 120 175 120q69 0 107 -25t29 -69q-9 -41 -41 -41q-14 0 -22 10t-5 24zM270 524l-14 19l165 128l36 -46z" />
    <glyph glyph-name="Scircumflex" unicode="&#x15c;" horiz-adv-x="563" 
d="M77 13l-9 12l16 136h27q4 -72 47.5 -105t110.5 -31q80 0 134.5 39t69.5 112q13 61 -19 90q-33 30 -121 58l-33 10l-30 11q-20 8 -30 14l-24 15q-19 12 -39 42q-24 36 -8 106q19 87 81.5 135.5t168.5 48.5q89 0 150 -44l29 23l9 -12l-15 -134h-28q1 70 -36.5 103
t-101.5 33q-72 0 -122 -38t-64 -105q-12 -59 16 -84q27 -24 110 -52q49 -17 68 -25q32 -12 59 -32q22 -14 41 -45q25 -39 9 -110q-18 -90 -86.5 -140t-183.5 -50q-100 0 -165 44zM296 783l161 128h9l106 -128l-21 -19l-104 80l-137 -80z" />
    <glyph glyph-name="scircumflex" unicode="&#x15d;" horiz-adv-x="422" 
d="M380 362l9 43q-25 28 -76 28q-46 0 -78 -21t-39 -58q-8 -34 12 -53.5t73 -35.5q66 -20 86 -35q36 -25 40 -43q14 -44 6 -67q-12 -58 -62 -91t-130 -33q-73 0 -112.5 25.5t-30.5 69.5q5 35 34 40q24 4 33 -14q4 -9 2 -19l-10 -41q28 -31 85 -31q114 0 133 85q6 28 -14 55
q-7 8 -27 17q-6 4 -18 8q-9 4 -20.5 7.5t-20.5 7.5q-61 22 -92 44q-38 28 -26 93q25 120 175 120q69 0 107 -25t29 -69q-9 -41 -41 -41q-14 0 -22 10t-5 24zM190 543l161 128h9l106 -128l-21 -19l-103 80l-138 -80z" />
    <glyph glyph-name="Scedilla" unicode="&#x15e;" horiz-adv-x="563" 
d="M196 -88l61 82q-90 3 -149 44l-31 -25l-9 12l16 136h27q4 -72 47.5 -105t110.5 -31q80 0 134.5 39t69.5 112q13 61 -19 90q-33 30 -121 58l-33 10l-30 11q-20 8 -30 14l-24 15q-19 12 -39 42q-24 36 -8 106q19 87 81.5 135.5t168.5 48.5q89 0 150 -44l29 23l9 -12
l-15 -134h-28q1 70 -36.5 103t-101.5 33q-72 0 -122 -38t-64 -105q-12 -59 16 -84q27 -24 110 -52q49 -17 68 -25q32 -12 59 -32q22 -14 41 -45q25 -39 9 -110q-18 -87 -83 -136.5t-174 -53.5l-29 -39q35 0 53.5 -10.5t13.5 -33.5q-5 -24 -44 -61l-31 -29q-12 -12 -37 -33
l-10 13q59 50 65 81q4 16 -13 23t-58 7z" />
    <glyph glyph-name="scedilla" unicode="&#x15f;" horiz-adv-x="422" 
d="M145 -88l63 84q-68 2 -103.5 27.5t-26.5 67.5q5 35 34 40q24 4 33 -14q4 -9 2 -19l-10 -41q28 -31 85 -31q114 0 133 85q6 28 -14 55q-7 8 -27 17q-6 4 -18 8q-9 4 -20.5 7.5t-20.5 7.5q-61 22 -92 44q-38 28 -26 93q25 120 175 120q69 0 107 -25t29 -69q-9 -41 -41 -41
q-14 0 -22 10t-5 24l9 43q-25 28 -76 28q-46 0 -78 -21t-39 -58q-8 -34 12 -53.5t73 -35.5q66 -20 86 -35q36 -25 40 -43q14 -44 6 -67q-12 -56 -57 -88t-120 -35l-30 -42q35 0 53 -10.5t13 -33.5q-8 -35 -112 -123l-10 13q61 53 65 81q4 16 -13 23t-57 7z" />
    <glyph glyph-name="Scaron" unicode="&#x160;" horiz-adv-x="563" 
d="M77 13l-9 12l16 136h27q4 -72 47.5 -105t110.5 -31q80 0 134.5 39t69.5 112q13 61 -19 90q-33 30 -121 58l-33 10l-30 11q-20 8 -30 14l-24 15q-19 12 -39 42q-24 36 -8 106q19 87 81.5 135.5t168.5 48.5q89 0 150 -44l29 23l9 -12l-15 -134h-28q1 70 -36.5 103
t-101.5 33q-72 0 -122 -38t-64 -105q-12 -59 16 -84q27 -24 110 -52q49 -17 68 -25q32 -12 59 -32q22 -14 41 -45q25 -39 9 -110q-18 -90 -86.5 -140t-183.5 -50q-100 0 -165 44zM596 893l-161 -129h-8l-107 129l21 18l104 -80l137 80z" />
    <glyph glyph-name="scaron" unicode="&#x161;" horiz-adv-x="422" 
d="M380 362l9 43q-25 28 -76 28q-46 0 -78 -21t-39 -58q-8 -34 12 -53.5t73 -35.5q66 -20 86 -35q36 -25 40 -43q14 -44 6 -67q-12 -58 -62 -91t-130 -33q-73 0 -112.5 25.5t-30.5 69.5q5 35 34 40q24 4 33 -14q4 -9 2 -19l-10 -41q28 -31 85 -31q114 0 133 85q6 28 -14 55
q-7 8 -27 17q-6 4 -18 8q-9 4 -20.5 7.5t-20.5 7.5q-61 22 -92 44q-38 28 -26 93q25 120 175 120q69 0 107 -25t29 -69q-9 -41 -41 -41q-14 0 -22 10t-5 24zM489 653l-160 -129h-9l-107 129l22 18l104 -80l137 80z" />
    <glyph glyph-name="Tcommaaccent" unicode="&#x162;" horiz-adv-x="648" 
d="M699 577l-13 93h-184l-131 -629l59 -18l-4 -23h-202l5 24l67 24l130 622h-183l-54 -95h-27l37 125h543l-15 -123h-28zM247 -250l-10 13q18 15 35 38t20 38q2 5 0 8q-18 0 -28 12.5t-6 30.5t18.5 30.5t32.5 12.5q44 0 33 -54q-13 -63 -95 -129z" />
    <glyph glyph-name="tcommaaccent" unicode="&#x163;" horiz-adv-x="367" 
d="M193 430h-58l4 18q83 28 145 120l9 -12l-20 -96h141l-6 -30h-141l-63 -302q-10 -46 6.5 -71.5t56.5 -25.5q41 0 68 24l14 -17q-49 -42 -118 -42q-59 0 -86.5 35.5t-14.5 96.5zM135 -250l-11 13q19 15 36 38.5t19 37.5q1 4 0 8q-17 0 -27 12t-6 31q3 18 18 30.5t33 12.5
q44 0 32 -54q-12 -61 -94 -129z" />
    <glyph glyph-name="Tcaron" unicode="&#x164;" horiz-adv-x="648" 
d="M699 577l-13 93h-184l-131 -629l59 -18l-4 -23h-202l5 24l67 24l130 622h-183l-54 -95h-27l37 125h543l-15 -123h-28zM648 893l-161 -129h-9l-107 129l22 18l104 -80l136 80z" />
    <glyph glyph-name="tcaron" unicode="&#x165;" horiz-adv-x="367" 
d="M199 430h-58l4 18q83 28 145 120l9 -12l-20 -96h141l-6 -30h-141l-63 -302q-10 -46 6.5 -71.5t56.5 -25.5q41 0 68 24l14 -17q-49 -42 -118 -42q-59 0 -86.5 35.5t-14.5 96.5zM395 571l-10 13q18 15 34.5 39t19.5 37q2 6 -1 9q-29 -2 -33 26q-3 30 21 49q14 11 31 10
q43 0 32 -54q-12 -59 -94 -129z" />
    <glyph glyph-name="Tbar" unicode="&#x166;" horiz-adv-x="648" 
d="M356 334h-108l6 31h108l64 305h-183l-54 -95h-27l37 125h543l-15 -123h-28l-13 93h-184l-64 -305h108l-6 -31h-108l-61 -293l59 -18l-4 -23h-202l5 24l67 24z" />
    <glyph glyph-name="tbar" unicode="&#x167;" horiz-adv-x="367" 
d="M153 270h-58l3 18l61 12l27 130h-58l4 18q83 28 145 120l9 -12l-20 -96h141l-6 -30h-141l-27 -130h140l-6 -30h-140l-30 -142q-10 -46 6.5 -71.5t56.5 -25.5q41 0 68 24l14 -17q-50 -42 -118 -42q-59 0 -86.5 35.5t-14.5 96.5z" />
    <glyph glyph-name="Utilde" unicode="&#x168;" horiz-adv-x="729" 
d="M853 683l-66 -20l-86 -408q-24 -119 -111 -189q-85 -70 -203 -70q-116 0 -173 70t-33 189l85 403l-59 19l4 23h202l-5 -23l-67 -20l-84 -402q-21 -102 23.5 -160.5t139.5 -58.5q94 0 162 58q70 58 92 161l85 409l-59 19l4 17h152zM424 780l-13 17q89 75 126 75
q21 0 46 -23t48 -23q33 0 87 45l13 -17q-89 -77 -129 -77q-20 0 -46 23q-24 24 -48 24q-29 0 -84 -44z" />
    <glyph glyph-name="utilde" unicode="&#x169;" horiz-adv-x="570" 
d="M113 403l-10 12q23 20 55.5 35t57.5 15q51 0 36 -76l-53 -251q-10 -48 7 -77t55 -29t84.5 27.5t81.5 76.5l67 324h62l10 -12l-77 -364q-10 -49 16 -49q18 0 46 23l10 -12q-61 -50 -113 -50q-50 0 -35 76l7 21l-2 3q-41 -48 -98 -74q-58 -26 -105 -26q-57 0 -80 37.5
t-10 101.5l51 242q10 49 -16 49q-19 0 -47 -23zM259 540l-13 17q88 75 124 75q21 0 47 -23t49 -23q34 0 86 45l14 -17q-89 -77 -129 -77q-20 0 -46 23q-24 24 -49 24q-28 0 -83 -44z" />
    <glyph glyph-name="Umacron" unicode="&#x16a;" horiz-adv-x="729" 
d="M853 683l-66 -20l-86 -408q-24 -119 -111 -189q-85 -70 -203 -70q-116 0 -173 70t-33 189l85 403l-59 19l4 23h202l-5 -23l-67 -20l-84 -402q-21 -102 23.5 -160.5t139.5 -58.5q94 0 162 58q70 58 92 161l85 409l-59 19l4 17h152zM676 804h-231l7 36h231z" />
    <glyph glyph-name="umacron" unicode="&#x16b;" horiz-adv-x="570" 
d="M113 403l-10 12q23 20 55.5 35t57.5 15q51 0 36 -76l-53 -251q-10 -48 7 -77t55 -29t84.5 27.5t81.5 76.5l67 324h62l10 -12l-77 -364q-10 -49 16 -49q18 0 46 23l10 -12q-61 -50 -113 -50q-50 0 -35 76l7 21l-2 3q-41 -48 -98 -74q-58 -26 -105 -26q-57 0 -80 37.5
t-10 101.5l51 242q10 49 -16 49q-19 0 -47 -23zM518 564h-232l8 36h231z" />
    <glyph glyph-name="Ubreve" unicode="&#x16c;" horiz-adv-x="729" 
d="M853 683l-66 -20l-86 -408q-24 -119 -111 -189q-85 -70 -203 -70q-116 0 -173 70t-33 189l85 403l-59 19l4 23h202l-5 -23l-67 -20l-84 -402q-21 -102 23.5 -160.5t139.5 -58.5q94 0 162 58q70 58 92 161l85 409l-59 19l4 17h152zM642 868q5 26 33 34q29 7 37 -15
q4 -9 1 -23q-9 -40 -57 -65q-47 -25 -102 -25q-54 0 -91 25q-38 26 -29 65q7 40 44 40q15 0 23.5 -10.5t5.5 -25.5q-15 -65 53 -65q67 0 82 65z" />
    <glyph glyph-name="ubreve" unicode="&#x16d;" horiz-adv-x="570" 
d="M113 403l-10 12q23 20 55.5 35t57.5 15q51 0 36 -76l-53 -251q-10 -48 7 -77t55 -29t84.5 27.5t81.5 76.5l67 324h62l10 -12l-77 -364q-10 -49 16 -49q18 0 46 23l10 -12q-61 -50 -113 -50q-50 0 -35 76l7 21l-2 3q-41 -48 -98 -74q-58 -26 -105 -26q-57 0 -80 37.5
t-10 101.5l51 242q10 49 -16 49q-19 0 -47 -23zM483 628q3 15 15.5 25.5t28.5 10.5q15 0 23 -11t4 -29q-9 -40 -57 -65q-47 -25 -101 -25t-91 25q-38 26 -30 65q9 40 44 40q15 0 23.5 -10.5t5.5 -25.5q-14 -65 53 -65q68 0 82 65z" />
    <glyph glyph-name="Uring" unicode="&#x16e;" horiz-adv-x="729" 
d="M853 683l-66 -20l-86 -408q-24 -119 -111 -189q-85 -70 -203 -70q-116 0 -173 70t-33 189l85 403l-59 19l4 23h202l-5 -23l-67 -20l-84 -402q-21 -102 23.5 -160.5t139.5 -58.5q94 0 162 58q70 58 92 161l85 409l-59 19l4 17h152zM490 825q7 36 33.5 58t62.5 22t53 -22
t10 -58q-8 -37 -34.5 -59t-62.5 -22t-53 22.5t-9 58.5zM522 825q-5 -27 4.5 -43t30.5 -16t37 16t21 43q6 27 -3.5 43t-30.5 16q-20 0 -36.5 -16t-22.5 -43z" />
    <glyph glyph-name="uring" unicode="&#x16f;" horiz-adv-x="570" 
d="M113 403l-10 12q23 20 55.5 35t57.5 15q51 0 36 -76l-53 -251q-10 -48 7 -77t55 -29t84.5 27.5t81.5 76.5l67 324h62l10 -12l-77 -364q-10 -49 16 -49q18 0 46 23l10 -12q-61 -50 -113 -50q-50 0 -35 76l7 21l-2 3q-41 -48 -98 -74q-58 -26 -105 -26q-57 0 -80 37.5
t-10 101.5l51 242q10 49 -16 49q-19 0 -47 -23zM327 585q7 36 33.5 58t61.5 22q36 0 53.5 -22t10.5 -58q-8 -37 -34.5 -59t-62.5 -22t-53 22t-9 59zM359 585q-5 -27 4.5 -43t29.5 -16q22 0 38 16t21 43q6 27 -3.5 43t-31.5 16q-20 0 -36.5 -16.5t-21.5 -42.5z" />
    <glyph glyph-name="Uhungarumlaut" unicode="&#x170;" horiz-adv-x="729" 
d="M853 683l-66 -20l-86 -408q-24 -119 -111 -189q-85 -70 -203 -70q-116 0 -173 70t-33 189l85 403l-59 19l4 23h202l-5 -23l-67 -20l-84 -402q-21 -102 23.5 -160.5t139.5 -58.5q94 0 162 58q70 58 92 161l85 409l-59 19l4 17h152zM408 764l-13 19l157 128l36 -46z
M574 764l-15 19l158 128l36 -46z" />
    <glyph glyph-name="uhungarumlaut" unicode="&#x171;" horiz-adv-x="570" 
d="M113 403l-10 12q23 20 55.5 35t57.5 15q51 0 36 -76l-53 -251q-10 -48 7 -77t55 -29t84.5 27.5t81.5 76.5l67 324h62l10 -12l-77 -364q-10 -49 16 -49q18 0 46 23l10 -12q-61 -50 -113 -50q-50 0 -35 76l7 21l-2 3q-41 -48 -98 -74q-58 -26 -105 -26q-57 0 -80 37.5
t-10 101.5l51 242q10 49 -16 49q-19 0 -47 -23zM260 524l-14 19l158 128l35 -46zM425 524l-15 19l159 128l36 -46z" />
    <glyph glyph-name="Uogonek" unicode="&#x172;" horiz-adv-x="729" 
d="M447 -157l8 -11q-53 -44 -97 -44q-59 0 -45 62q12 68 94 147q-5 -1 -20 -1q-116 0 -173 70t-33 189l85 403l-59 19l4 23h202l-5 -23l-67 -20l-84 -402q-21 -102 23.5 -160.5t139.5 -58.5q94 0 162 58q70 58 92 161l85 409l-59 19l4 17h152l-3 -17l-66 -20l-86 -408
q-23 -107 -94 -174q-70 -67 -170 -81q-65 -75 -78 -138q-9 -42 26 -42q36 0 62 23z" />
    <glyph glyph-name="uogonek" unicode="&#x173;" horiz-adv-x="570" 
d="M511 -148l7 -10q-50 -44 -96 -44q-59 0 -47 62q13 63 86 137q-2 0 -7 -0.5t-6 -0.5q-50 0 -35 76l7 21l-2 3q-41 -48 -98 -74q-58 -26 -105 -26q-57 0 -80 37.5t-10 101.5l51 242q10 49 -16 49q-19 0 -47 -23l-10 12q23 20 55.5 35t57.5 15q51 0 36 -76l-53 -251
q-10 -48 7 -77t55 -29t84.5 27.5t81.5 76.5l67 324h62l10 -12l-77 -364q-10 -49 16 -49q18 0 46 23l10 -12q-28 -23 -62 -38q-63 -69 -78 -136q-9 -43 28 -43q31 0 62 23z" />
    <glyph glyph-name="Wcircumflex" unicode="&#x174;" horiz-adv-x="1131" 
d="M794 0h-38l-89 487l-290 -487h-37l-127 658l-58 19l5 23h202l-4 -23l-67 -19l106 -577l260 444l-27 133l-58 19l5 23h202l-4 -23l-67 -19l105 -577l348 577l-76 19l4 23h173l-5 -23l-63 -19zM592 783l161 128h9l106 -128l-21 -19l-104 80l-137 -80z" />
    <glyph glyph-name="wcircumflex" unicode="&#x175;" horiz-adv-x="817" 
d="M580 0h-26l-49 274q-42 -69 -92 -131q-58 -71 -91 -105l-37 -38h-25l-71 391q-8 35 -33 35q-22 0 -50 -23l-10 12q59 50 112 50q24 0 36.5 -13.5t17.5 -46.5l55 -340q121 131 180 247l-14 79q-8 35 -33 35q-22 0 -50 -23l-10 12q59 50 113 50q24 0 36.5 -13.5t17.5 -46.5
l55 -341q2 3 10 11.5t21.5 25t32.5 40.5q36 44 59 78q23 33 51 85q24 43 32 81h-22q-14 0 -23.5 12.5t-6.5 28.5q4 16 17.5 27.5t34.5 11.5q46 0 33 -72q-20 -94 -111 -210q-84 -107 -136 -159zM384 543l161 128h9l106 -128l-21 -19l-104 80l-137 -80z" />
    <glyph glyph-name="Ycircumflex" unicode="&#x176;" horiz-adv-x="677" 
d="M362 677l-63 -17l131 -330l273 330l-72 17l4 23h173l-5 -23l-64 -17l-304 -363l-53 -256l58 -18l-4 -23h-201l5 24l67 24l52 248l-146 364l-58 17l5 23h207zM363 783l161 128h10l106 -128l-22 -19l-103 80l-137 -80z" />
    <glyph glyph-name="ycircumflex" unicode="&#x177;" horiz-adv-x="531" 
d="M43 -187l-5 -27q4 -3 9 -3q26 0 89.5 56t137.5 151l-80 401q-8 35 -32 35q-22 0 -50 -23l-10 12q59 50 113 50q24 0 36 -13t18 -47l61 -352q6 8 14 18t19 24.5t19 24.5q33 44 89 131q57 90 66 134h-21q-15 0 -24 12t-6 29q4 17 18.5 28t32.5 11q20 0 31 -16t5 -46
q-10 -55 -81 -166q-73 -113 -157 -219q-83 -105 -178 -189q-91 -82 -141 -82q-24 0 -41 16.5t-11 43.5q6 34 38 41q28 6 39 -14q5 -9 2 -21zM255 543l161 128h9l107 -128l-22 -19l-104 80l-136 -80z" />
    <glyph glyph-name="Ydieresis" unicode="&#x178;" horiz-adv-x="677" 
d="M362 677l-63 -17l131 -330l273 330l-72 17l4 23h173l-5 -23l-64 -17l-304 -363l-53 -256l58 -18l-4 -23h-201l5 24l67 24l52 248l-146 364l-58 17l5 23h207zM450 824q-5 -21 -20.5 -34.5t-35.5 -13.5t-31 14t-7 34t20.5 34t36.5 14t30.5 -14t6.5 -34zM661 824
q-4 -20 -20 -34t-36 -14t-31 14t-7 34t20.5 34t36.5 14t31 -14t6 -34z" />
    <glyph glyph-name="Zacute" unicode="&#x179;" horiz-adv-x="618" 
d="M558 0h-500l5 25l547 645h-346l-53 -95h-27l35 125h481l-5 -25l-546 -645h365l55 103h27zM413 764l-14 19l165 128l36 -46z" />
    <glyph glyph-name="zacute" unicode="&#x17a;" horiz-adv-x="454" 
d="M123 350l-14 18q77 66 105 84t56 18q23 0 60 -17q35 -16 68 -16q57 0 89 26l14 -17l-354 -362v-3q22 7 44 7q24 0 61 -17q36 -16 64 -16q57 0 123 57l14 -19q-115 -99 -182 -99q-21 0 -66 17t-73 17q-52 0 -89 -31l-13 17l361 370v3q-24 -8 -47 -8q-27 0 -60 15t-58 15
q-21 0 -41 -11q-17 -9 -62 -48zM281 524l-15 19l166 128l36 -46z" />
    <glyph glyph-name="Zdotaccent" unicode="&#x17b;" horiz-adv-x="618" 
d="M558 0h-500l5 25l547 645h-346l-53 -95h-27l35 125h481l-5 -25l-546 -645h365l55 103h27zM436 848q5 21 21.5 35t37.5 14t32 -14t7 -35q-5 -22 -22 -36.5t-38 -14.5q-20 0 -31 14.5t-7 36.5z" />
    <glyph glyph-name="zdotaccent" unicode="&#x17c;" horiz-adv-x="454" 
d="M123 350l-14 18q77 66 105 84t56 18q23 0 60 -17q35 -16 68 -16q57 0 89 26l14 -17l-354 -362v-3q22 7 44 7q24 0 61 -17q36 -16 64 -16q57 0 123 57l14 -19q-115 -99 -182 -99q-21 0 -66 17t-73 17q-52 0 -89 -31l-13 17l361 370v3q-24 -8 -47 -8q-27 0 -60 15t-58 15
q-21 0 -41 -11q-17 -9 -62 -48zM304 608q4 21 21 35t38 14t32.5 -14t7.5 -35q-5 -22 -22 -36.5t-39 -14.5q-20 0 -31 14.5t-7 36.5z" />
    <glyph glyph-name="Zcaron" unicode="&#x17d;" horiz-adv-x="618" 
d="M558 0h-500l5 25l547 645h-346l-53 -95h-27l35 125h481l-5 -25l-546 -645h365l55 103h27zM633 893l-161 -129h-9l-107 129l22 18l103 -80l137 80z" />
    <glyph glyph-name="zcaron" unicode="&#x17e;" horiz-adv-x="454" 
d="M123 350l-14 18q77 66 105 84t56 18q23 0 60 -17q35 -16 68 -16q57 0 89 26l14 -17l-354 -362v-3q22 7 44 7q24 0 61 -17q36 -16 64 -16q57 0 123 57l14 -19q-115 -99 -182 -99q-21 0 -66 17t-73 17q-52 0 -89 -31l-13 17l361 370v3q-24 -8 -47 -8q-27 0 -60 15t-58 15
q-21 0 -41 -11q-17 -9 -62 -48zM501 653l-161 -129h-9l-106 129l21 18l103 -80l138 80z" />
    <glyph glyph-name="longs" unicode="&#x17f;" horiz-adv-x="414" 
d="M-11 -200l-4 -24q69 0 116 224l124 595q15 73 66.5 116t123.5 43q59 0 90 -28.5t22 -70.5q-7 -42 -44 -42q-16 0 -24.5 10.5t-5.5 26.5l12 57q-17 18 -52 18q-41 0 -71.5 -34.5t-43.5 -94.5l-123 -596q-24 -113 -80 -185q-55 -70 -127 -70q-34 0 -48 14t-10 37
q4 19 18 31t31 12q15 0 24.5 -11.5t5.5 -27.5z" />
    <glyph glyph-name="uni018F" unicode="&#x18f;" horiz-adv-x="724" 
d="M248 584l-14 19q115 103 271 103q150 0 219 -96q69 -95 35 -258q-35 -164 -144 -261t-255 -97q-128 0 -190 72t-41 175q5 27 16 51l22 17h500q19 70 19.5 132.5t-18.5 114.5t-67.5 82.5t-122.5 30.5q-133 0 -230 -85zM361 27q93 0 176 66q83 67 122 186l-453 -16
q-20 -98 18 -167q39 -69 137 -69z" />
    <glyph glyph-name="florin" unicode="&#x192;" horiz-adv-x="393" 
d="M116 0l89 430h-72l5 24l75 11l27 130q15 73 66.5 116t123.5 43q59 0 90 -28.5t22 -70.5q-8 -42 -43 -42q-16 0 -25 10.5t-5 26.5l12 57q-18 18 -53 18q-41 0 -71 -34t-43 -95l-29 -136h166l-6 -30h-166l-89 -430q-24 -113 -80 -185q-55 -70 -127 -70q-34 0 -48.5 14.5
t-8.5 36.5q4 19 17.5 31t30.5 12q15 0 24.5 -11.5t5.5 -27.5l-4 -24q69 0 116 224z" />
    <glyph glyph-name="uni01DD" unicode="&#x1dd;" horiz-adv-x="511" 
d="M114 208l16 12h316q43 208 -123 208q-88 0 -140 -46l-16 20q74 62 181 62q104 0 152 -64t25 -172q-22 -108 -97 -170q-74 -62 -168 -62q-87 0 -129 51t-27 127zM260 26q58 0 108 49q52 49 72 117l-267 -7q-14 -70 9.5 -114.5t77.5 -44.5z" />
    <glyph glyph-name="Aringacute" unicode="&#x1fa;" horiz-adv-x="739" 
d="M450 774q7 36 33.5 58t62.5 22t53.5 -22t9.5 -58q-7 -32 -27.5 -53t-48.5 -26l137 -654l59 -18l-5 -23h-199l5 23l62 18l-40 197h-315l-122 -197l76 -18l-4 -23h-172l4 23l63 18l409 654q-25 7 -36.5 28t-4.5 51zM546 269l-71 350l-219 -350h290zM482 774q-5 -27 5 -43
t31 -16q20 0 36 16t22 43t-4 43q-7 12 -21 15t-28.5 -3t-26.5 -20.5t-14 -34.5zM466 834l-13 18l164 128l37 -46z" />
    <glyph glyph-name="aringacute" unicode="&#x1fb;" horiz-adv-x="560" 
d="M562 58l9 -12q-23 -20 -55 -35t-57 -15q-50 0 -35 76l5 12l-2 3q-35 -43 -87.5 -66.5t-102.5 -23.5q-78 0 -110.5 62t-11.5 164q25 117 98.5 179t184.5 62q67 0 127 -23l43 25l9 -12l-77 -370q-10 -49 16 -49q17 0 46 23zM435 125l58 278q-35 31 -104 31
q-73 0 -124 -53.5t-72 -153.5q-19 -91 3 -143.5t79 -52.5q39 0 83.5 24.5t76.5 69.5zM334 565q7 36 33.5 58t61.5 22q36 0 53.5 -21.5t10.5 -58.5q-8 -37 -34.5 -59t-62.5 -22t-53 22.5t-9 58.5zM400 506q22 0 37.5 16t21.5 43t-3.5 43t-30.5 16t-37 -16t-22 -43t3.5 -43
t30.5 -16zM354 636l-14 18l164 128l37 -46z" />
    <glyph glyph-name="AEacute" unicode="&#x1fc;" horiz-adv-x="812" 
d="M387 20l66 15l7 203h-223l-122 -197l76 -18l-4 -23h-172l4 23l63 18l412 659h385l-15 -123h-27l-15 93h-276l-11 -295h164l31 68h25l-35 -167h-25l-2 68h-159l-11 -314h177l53 93h27l-36 -123h-361zM461 269l14 350l-219 -350h205zM536 764l-14 19l165 128l36 -46z" />
    <glyph glyph-name="aeacute" unicode="&#x1fd;" horiz-adv-x="705" 
d="M352 464q84 0 115 -40q65 40 149 40q74 0 108.5 -30.5t23.5 -84.5q-9 -49 -70 -74q-65 -27 -211 -40l-35 -165q32 -38 110 -38q92 0 144 46l15 -20q-71 -62 -185 -62q-102 0 -150 59q-34 -26 -84.5 -43t-98.5 -17q-113 0 -92 107q13 68 81 97q52 24 223 62q6 0 7 1l18 84
q8 39 -14 63.5t-66 24.5q-52 0 -101 -31l-11 -50q-3 -15 -15 -25.5t-28 -10.5q-34 0 -27 40q11 47 65 76q55 31 129 31zM365 84l31 146q-6 -1 -70 -16l-52 -13q-35 -9 -46 -16l-29 -19q-27 -19 -35 -59q-17 -77 62 -77q35 0 73.5 15t65.5 39zM489 344l-16 -79
q109 12 155 29.5t54 56.5q7 35 -13.5 59t-63.5 24q-65 0 -115 -50q3 -22 -1 -40zM428 524l-15 19l165 128l36 -46z" />
    <glyph glyph-name="Oslashacute" unicode="&#x1fe;" horiz-adv-x="759" 
d="M178 74l-80 -74h-40l103 96q-63 96 -30 254q33 163 142 259q109 97 253 97q130 0 201 -81l80 75h39l-103 -97q63 -97 31 -253q-34 -163 -143 -260q-109 -96 -253 -96q-132 0 -200 80zM692 349q25 120 -2 205l-466 -436q46 -93 161 -93q107 0 191 86q85 88 116 238z
M212 349q-26 -123 2 -203l465 434q-47 95 -159 95q-108 0 -192 -87q-85 -88 -116 -239zM484 764l-15 19l166 128l35 -46z" />
    <glyph glyph-name="oslashacute" unicode="&#x1ff;" horiz-adv-x="541" 
d="M134 43l-47 -43h-39l69 64q-43 62 -22 166q22 107 97 171q75 63 174 63q86 0 135 -48l48 44h39l-70 -65q43 -62 22 -165q-23 -107 -97 -171q-73 -63 -174 -63q-88 0 -135 47zM172 230q-15 -70 -2 -118l286 263q-29 59 -96 59t-117.5 -54.5t-70.5 -149.5zM463 230
q13 70 3 117l-287 -263q29 -57 96 -57q66 0 117 54.5t71 148.5zM324 524l-15 19l166 128l36 -46z" />
    <glyph glyph-name="Scommaaccent" unicode="&#x218;" horiz-adv-x="563" 
d="M77 13l-9 12l16 136h27q4 -72 47.5 -105t110.5 -31q80 0 134.5 39t69.5 112q13 61 -19 90q-33 30 -121 58l-33 10l-30 11q-20 8 -30 14l-24 15q-19 12 -39 42q-24 36 -8 106q19 87 81.5 135.5t168.5 48.5q89 0 150 -44l29 23l9 -12l-15 -134h-28q1 70 -36.5 103
t-101.5 33q-72 0 -122 -38t-64 -105q-12 -59 16 -84q27 -24 110 -52q49 -17 68 -25q32 -12 59 -32q22 -14 41 -45q25 -39 9 -110q-18 -90 -86.5 -140t-183.5 -50q-100 0 -165 44zM196 -250l-10 13q19 15 35.5 38.5t18.5 37.5q1 4 0 8q-17 0 -27 12t-6 31q4 18 18.5 30.5
t32.5 12.5q44 0 33 -54q-13 -63 -95 -129z" />
    <glyph glyph-name="scommaaccent" unicode="&#x219;" horiz-adv-x="422" 
d="M380 362l9 43q-25 28 -76 28q-46 0 -78 -21t-39 -58q-8 -34 12 -53.5t73 -35.5q66 -20 86 -35q36 -25 40 -43q14 -44 6 -67q-12 -58 -62 -91t-130 -33q-73 0 -112.5 25.5t-30.5 69.5q5 35 34 40q24 4 33 -14q4 -9 2 -19l-10 -41q28 -31 85 -31q114 0 133 85q6 28 -14 55
q-7 8 -27 17q-6 4 -18 8q-9 4 -20.5 7.5t-20.5 7.5q-61 22 -92 44q-38 28 -26 93q25 120 175 120q69 0 107 -25t29 -69q-9 -41 -41 -41q-14 0 -22 10t-5 24zM142 -250l-9 13q18 15 34.5 38t19.5 38q1 4 0 8q-18 0 -27.5 12.5t-5.5 30.5q3 18 17.5 30.5t33.5 12.5
q43 0 32 -54q-12 -61 -95 -129z" />
    <glyph glyph-name="uni021A" unicode="&#x21a;" horiz-adv-x="648" 
d="M699 577l-13 93h-184l-131 -629l59 -18l-4 -23h-202l5 24l67 24l130 622h-183l-54 -95h-27l37 125h543l-15 -123h-28zM247 -250l-10 13q18 15 35 38t20 38q2 5 0 8q-18 0 -28 12.5t-6 30.5t18.5 30.5t32.5 12.5q44 0 33 -54q-13 -63 -95 -129z" />
    <glyph glyph-name="uni021B" unicode="&#x21b;" horiz-adv-x="367" 
d="M193 430h-58l4 18q83 28 145 120l9 -12l-20 -96h141l-6 -30h-141l-63 -302q-10 -46 6.5 -71.5t56.5 -25.5q41 0 68 24l14 -17q-49 -42 -118 -42q-59 0 -86.5 35.5t-14.5 96.5zM135 -250l-11 13q19 15 36 38.5t19 37.5q1 4 0 8q-17 0 -27 12t-6 31q3 18 18 30.5t33 12.5
q44 0 32 -54q-12 -61 -94 -129z" />
    <glyph glyph-name="dotlessj" unicode="&#x237;" horiz-adv-x="267" 
d="M-11 -200l-4 -24q69 0 116 224l79 377q10 49 -17 49q-18 0 -46 -23l-10 12q23 20 55.5 35t57.5 15q51 0 36 -76l-81 -389q-24 -113 -80 -185q-55 -70 -127 -70q-34 0 -48 14t-10 37q4 19 18 31t31 12q15 0 24.5 -11.5t5.5 -27.5z" />
    <glyph glyph-name="circumflex" unicode="&#x2c6;" horiz-adv-x="359" 
d="M154 543l160 128h10l107 -128l-22 -19l-104 80l-137 -80z" />
    <glyph glyph-name="caron" unicode="&#x2c7;" horiz-adv-x="359" 
d="M454 653l-161 -129h-9l-107 129l22 18l103 -80l137 80z" />
    <glyph glyph-name="breve" unicode="&#x2d8;" horiz-adv-x="401" 
d="M405 628q5 26 33 34q29 7 37 -15q4 -9 1 -23q-8 -39 -56 -65q-47 -25 -102 -25q-54 0 -91 25q-38 26 -30 65q9 40 44 40q15 0 23.5 -10.5t5.5 -25.5q-14 -65 53 -65q68 0 82 65z" />
    <glyph glyph-name="dotaccent" unicode="&#x2d9;" horiz-adv-x="250" 
d="M206 608q4 21 21 35t38 14q22 0 33 -14t6 -35q-4 -22 -21 -36.5t-38 -14.5t-32 14.5t-7 36.5z" />
    <glyph glyph-name="ring" unicode="&#x2da;" horiz-adv-x="232" 
d="M166 585q7 36 33.5 58t61.5 22q36 0 53.5 -22t10.5 -58q-8 -37 -34.5 -59t-62.5 -22t-53 22.5t-9 58.5zM232 526q21 0 37.5 16t21.5 43t-4 43t-30 16t-37.5 -16t-21.5 -43t4.5 -43t29.5 -16z" />
    <glyph glyph-name="ogonek" unicode="&#x2db;" horiz-adv-x="174" 
d="M124 -157l8 -11q-53 -44 -97 -44q-59 0 -45 62q16 74 99 150h26q-31 -32 -52.5 -71t-27.5 -67q-9 -42 27 -42t62 23z" />
    <glyph glyph-name="tilde" unicode="&#x2dc;" horiz-adv-x="385" 
d="M169 540l-14 17q88 75 125 75q21 0 47 -23t49 -23q32 0 86 45l13 -17q-89 -77 -129 -77q-20 0 -46 23q-24 24 -48 24q-30 0 -83 -44z" />
    <glyph glyph-name="hungarumlaut" unicode="&#x2dd;" horiz-adv-x="424" 
d="M168 524l-14 19l157 128l36 -46zM333 524l-15 19l159 128l35 -46z" />
    <glyph glyph-name="uni0400" unicode="&#x400;" horiz-adv-x="608" 
d="M252 344l-66 -314h310l53 93h27l-36 -123h-498l3 20l66 15l132 630l-59 15l3 20h489l-15 -123h-27l-15 93h-299l-62 -295h238l31 68h25l-35 -167h-25l-2 68h-238zM372 865l55 46l111 -128l-21 -19z" />
    <glyph glyph-name="afii10023" unicode="&#x401;" horiz-adv-x="608" 
d="M252 344l-66 -314h310l53 93h27l-36 -123h-498l3 20l66 15l132 630l-59 15l3 20h489l-15 -123h-27l-15 93h-299l-62 -295h238l31 68h25l-35 -167h-25l-2 68h-238zM317 801q5 21 21 34.5t36 13.5t30.5 -14t6.5 -34q-5 -21 -20.5 -34.5t-35.5 -13.5t-31 14t-7 34zM528 801
q5 21 21 34.5t36 13.5q19 0 30 -14t7 -34q-5 -20 -21 -34t-35 -14q-20 0 -31 14t-7 34z" />
    <glyph glyph-name="afii10051" unicode="&#x402;" horiz-adv-x="756" 
d="M646 84l33 158q15 66 -5.5 100.5t-72.5 34.5q-39 0 -88.5 -16.5t-84.5 -45.5l-57 -274l59 -18l-4 -23h-202l5 24l67 24l130 622h-183l-54 -95h-27l37 125h543l-15 -123h-28l-13 93h-184l-56 -268l-12 -50l2 -3q42 31 102 47q63 17 107 17q71 0 99 -44.5t12 -124.5
l-34 -160q-23 -115 -78 -182q-56 -69 -128 -69q-35 -2 -50 14.5t-10.5 36.5t18.5 32q23 17 46 7.5t16 -35.5l-5 -24q70 0 115 220z" />
    <glyph glyph-name="afii10052" unicode="&#x403;" horiz-adv-x="561" 
d="M388 764l-13 19l164 128l36 -46zM594 670h-274l-130 -624l87 -23l-4 -23h-231l5 24l67 24l129 617l-59 15l3 20h463l-14 -123h-28z" />
    <glyph glyph-name="afii10053" unicode="&#x404;" horiz-adv-x="697" 
d="M675 116l15 -19q-118 -103 -272 -103q-150 0 -219 95q-69 97 -35 260q35 165 143 260q109 97 259 97q114 0 187 -56l29 17l10 -12l-14 -127h-28q-5 92 -70 120q-53 25 -111 25q-118 0 -200 -78.5t-119 -223.5h349l-6 -31h-349q-28 -145 23.5 -227t176.5 -82q134 0 231 85
z" />
    <glyph glyph-name="afii10054" unicode="&#x405;" horiz-adv-x="563" 
d="M77 13l-9 12l16 136h27q4 -72 47.5 -105t110.5 -31q80 0 134.5 39t69.5 112q13 61 -19 90q-33 30 -121 58l-33 10l-30 11q-20 8 -30 14l-24 15q-19 12 -39 42q-24 36 -8 106q19 87 81.5 135.5t168.5 48.5q89 0 150 -44l29 23l9 -12l-15 -134h-28q1 70 -36.5 103
t-101.5 33q-72 0 -122 -38t-64 -105q-12 -59 16 -84q27 -24 110 -52q49 -17 68 -25q32 -12 59 -32q22 -14 41 -45q25 -39 9 -110q-18 -90 -86.5 -140t-183.5 -50q-100 0 -165 44z" />
    <glyph glyph-name="afii10055" unicode="&#x406;" horiz-adv-x="286" 
d="M384 677l-67 -20l-129 -616l60 -18l-5 -23h-200l4 24l67 24l128 610l-59 19l5 23h200z" />
    <glyph glyph-name="afii10056" unicode="&#x407;" horiz-adv-x="286" 
d="M384 677l-67 -20l-128 -616l59 -18l-5 -23h-200l5 24l67 24l128 610l-59 19l4 23h200zM275 824q-5 -21 -20.5 -34.5t-35.5 -13.5t-31 14t-7 34t20.5 34t36.5 14t30.5 -14t6.5 -34zM447 824q-4 -20 -20 -34t-36 -14t-31 14t-7 34t20.5 34t36.5 14t31 -14t6 -34z" />
    <glyph glyph-name="afii10057" unicode="&#x408;" horiz-adv-x="286" 
d="M106 0l137 658l-59 19l5 23h200l-5 -23l-67 -20l-136 -657q-17 -79 -67 -147t-122 -109l-15 20q44 35 80 103q36 67 49 133z" />
    <glyph glyph-name="afii10058" unicode="&#x409;" horiz-adv-x="1031" 
d="M212 141l174 524l-60 15l3 20h489l-3 -20l-67 -17l-58 -275h133q107 0 160 -52q54 -52 36 -141q-18 -90 -95 -143q-76 -52 -181 -52h-271l3 20l66 15l132 635h-254l-174 -527q-47 -147 -125 -147q-31 0 -49.5 17t-12.5 46q11 44 49 44q18 0 27.5 -10.5t5.5 -27.5l-6 -30
q4 -2 8 -2q7 -2 17 7t24.5 35t28.5 66zM684 358l-68 -328h121q76 0 130.5 44t70.5 121q15 77 -21 120t-112 43h-121z" />
    <glyph glyph-name="afii10059" unicode="&#x40a;" horiz-adv-x="1047" 
d="M42 0l5 24l67 24l128 610l-59 19l4 23h202l-5 -23l-67 -20l-58 -277h364l59 278l-60 19l5 23h201l-4 -23l-67 -20l-58 -277h132q107 0 161 -51.5t36 -138.5q-19 -88 -94 -139t-181 -51h-271l3 20l66 15l66 314h-364l-64 -308l59 -18l-4 -23h-202zM693 349l-67 -319h121
q76 0 130 42.5t69 117.5q16 74 -20.5 116.5t-112.5 42.5h-120z" />
    <glyph glyph-name="afii10060" unicode="&#x40b;" horiz-adv-x="812" 
d="M428 315l-57 -274l59 -18l-4 -23h-202l5 24l67 24l130 622h-183l-54 -95h-27l37 125h543l-15 -123h-28l-13 93h-184l-56 -268l-12 -50l2 -3q42 31 102 47q63 17 107 17q71 0 99.5 -43.5t13.5 -118.5l-44 -210l59 -18l-4 -23h-205l5 24l70 24l41 197q13 62 -8 97t-72 35
q-39 0 -88 -17t-84 -45z" />
    <glyph glyph-name="afii10061" unicode="&#x40c;" horiz-adv-x="670" 
d="M644 51l8 -12q-50 -45 -104 -45q-45 0 -64.5 25.5t-22.5 89.5l-7 130q-3 59 -41.5 84t-118.5 25h-44v2l-64 -309l59 -18l-4 -23h-202l5 24l67 24l127 610l-58 19l4 23h202l-5 -23l-67 -20l-59 -281q83 0 127 26q43 27 73 84l55 104q62 116 147 116q37 0 54.5 -18
t10.5 -47q-3 -20 -16.5 -33t-32.5 -13t-29 11t-6 31l6 29q-3 3 -9 3q-53 0 -100 -93l-51 -98q-44 -82 -102 -108q83 -7 116 -35t36 -94l6 -130q2 -44 14 -61.5t38 -17.5q32 0 52 19zM441 764l-15 19l165 128l37 -46z" />
    <glyph glyph-name="uni040D" unicode="&#x40d;" horiz-adv-x="737" 
d="M436 865l56 46l111 -128l-22 -19zM42 0l5 24l67 24l128 610l-59 19l4 23h202l-5 -23l-67 -20l-113 -539l485 520l4 20l-59 19l4 23h202l-5 -23l-66 -20l-129 -616l59 -18l-4 -23h-202l5 24l67 24l113 534l-485 -521l-4 -20l59 -18l-4 -23h-202z" />
    <glyph glyph-name="afii10062" unicode="&#x40e;" horiz-adv-x="690" 
d="M588 801l10 44q3 15 16 25.5t29 10.5q15 0 22.5 -11t3.5 -29q-7 -39 -56 -65q-47 -25 -102 -25q-54 0 -91 25q-38 26 -29 65q9 40 43 40q16 0 24.5 -10.5t4.5 -25.5l-9 -44q21 -21 63 -21q44 0 71 21zM381 211l-152 449l-58 17l4 23h200l-4 -23l-63 -17l126 -381l284 381
l-76 17l4 23h175l-5 -23l-62 -17l-316 -420q-112 -149 -162 -199q-47 -47 -93 -47q-35 0 -55 17.5t-12 49.5q8 45 51 45q21 0 30 -11.5t5 -29.5l-8 -35q6 -3 11 -3q41 0 176 184z" />
    <glyph glyph-name="afii10145" unicode="&#x40f;" horiz-adv-x="724" 
d="M319 -136l17 136h-294l3 20l66 15l131 623l-59 19l4 23h202l-5 -23l-67 -20l-131 -627h363l131 628l-59 19l5 23h202l-5 -23l-67 -20l-130 -622l60 -13l-4 -22h-294l-40 -136h-29z" />
    <glyph glyph-name="afii10017" unicode="&#x410;" horiz-adv-x="739" 
d="M494 700h38l138 -659l59 -18l-5 -23h-199l5 23l62 18l-40 197h-315l-122 -197l76 -18l-4 -23h-172l4 23l63 18zM546 269l-71 350l-219 -350h290z" />
    <glyph glyph-name="afii10018" unicode="&#x411;" horiz-adv-x="629" 
d="M601 670h-281l-59 -279h155q105 0 160 -53q54 -53 35 -142q-18 -92 -94 -144t-182 -52h-293l3 20l66 15l132 630l-59 15l3 20h471l-15 -123h-28zM255 360l-69 -330h143q76 0 130.5 44.5t70.5 121.5t-20 120.5t-112 43.5h-143z" />
    <glyph glyph-name="afii10019" unicode="&#x412;" horiz-adv-x="633" 
d="M184 680l3 20h283q100 0 151 -47.5t34 -127.5q-13 -62 -57 -104.5t-112 -59.5q73 -17 107 -63.5t20 -112.5q-18 -87 -97 -136t-192 -49h-282l3 20l66 15l132 630zM252 344l-66 -314h132q82 0 140.5 42t73.5 115q16 74 -24.5 115.5t-123.5 41.5h-132zM451 670h-131
l-62 -295h131q70 0 120 39t65 108t-19 108.5t-104 39.5z" />
    <glyph glyph-name="afii10020" unicode="&#x413;" horiz-adv-x="561" 
d="M594 670h-274l-130 -624l87 -23l-4 -23h-231l5 24l67 24l129 617l-59 15l3 20h463l-14 -123h-28z" />
    <glyph glyph-name="afii10021" unicode="&#x414;" horiz-adv-x="731" 
d="M630 -136l5 136h-542l-53 -136h-28l34 166h76q37 20 65 111l174 524l-60 15l4 20h514l-3 -20l-66 -17l-132 -633h76l-35 -166h-29zM675 670h-275l-174 -527q-24 -78 -57 -113h373z" />
    <glyph glyph-name="afii10022" unicode="&#x415;" horiz-adv-x="608" 
d="M252 344l-66 -314h310l53 93h27l-36 -123h-498l3 20l66 15l132 630l-59 15l3 20h489l-15 -123h-27l-15 93h-299l-62 -295h238l31 68h25l-35 -167h-25l-2 68h-238z" />
    <glyph glyph-name="afii10024" unicode="&#x416;" horiz-adv-x="1015" 
d="M298 666l-6 -29q-4 -20 -18.5 -31t-33.5 -11q-38 0 -31 46q6 29 31 47t60 18q39 0 60.5 -26.5t32.5 -89.5l18 -100q10 -54 32 -82q26 -32 104 -32l-1 -3h1l59 285l-58 19l4 23h202l-5 -23l-67 -20l-59 -281q73 0 111 27q38 29 74 87l58 100q37 63 69 89.5t72 26.5
q36 0 54 -18t11 -47q-3 -20 -16.5 -33t-32.5 -13t-29 11t-6 31l6 29q-3 3 -9 3q-38 0 -95 -93l-56 -94q-53 -86 -101 -111q85 -5 116 -30q33 -25 39 -90l11 -140q4 -47 13.5 -63t33.5 -16q29 0 49 19l7 -12q-46 -45 -99 -45q-41 0 -57.5 24t-21.5 91l-12 140q-5 57 -39 78
t-113 21h-42v2l-64 -309l59 -18l-5 -23h-201l5 24l67 24l62 300h-41q-78 0 -121 -21.5t-72 -77.5l-71 -140q-34 -66 -61 -91q-25 -24 -67 -24q-33 2 -48.5 11.5t-33.5 33.5l13 12q13 -19 43 -19q23 0 39.5 16t39.5 63l71 140q33 65 75 91q43 26 129 30q-22 14 -33.5 38.5
t-20.5 71.5l-18 94q-18 93 -56 93q-4 0 -10 -3z" />
    <glyph glyph-name="afii10025" unicode="&#x417;" horiz-adv-x="605" 
d="M204 535h-27l37 128l15 12l23 -17q82 48 187 48q102 0 154 -48.5t36 -131.5q-14 -63 -58.5 -105t-111.5 -60q73 -18 107 -64t19 -113q-18 -86 -99 -139q-81 -51 -194 -51q-109 0 -176 48l-31 -17l-9 12l15 128h27q1 -82 62 -114q52 -24 107 -24q85 0 143.5 42.5
t74.5 118.5q16 75 -26.5 115.5t-135.5 40.5q-39 0 -91 -3l8 37q49 -3 88 -3q166 0 198 144q16 73 -17.5 113.5t-106.5 40.5q-55 0 -112 -25q-72 -32 -106 -113z" />
    <glyph glyph-name="afii10026" unicode="&#x418;" horiz-adv-x="737" 
d="M42 0l5 24l67 24l128 610l-59 19l4 23h202l-5 -23l-67 -20l-113 -539l485 520l4 20l-59 19l4 23h202l-5 -23l-66 -20l-129 -616l59 -18l-4 -23h-202l5 24l67 24l113 534l-485 -521l-4 -20l59 -18l-4 -23h-202z" />
    <glyph glyph-name="afii10027" unicode="&#x419;" horiz-adv-x="737" 
d="M601 801l10 44q5 26 33 34q29 7 37 -15q4 -9 1 -23q-7 -39 -56 -65q-47 -25 -101 -25q-55 0 -92 25t-30 65q7 33 36 38q26 6 35 -15q4 -8 2 -19l-10 -44q21 -21 64 -21q42 0 71 21zM42 0l5 24l67 24l128 610l-59 19l4 23h202l-5 -23l-67 -20l-113 -539l485 520l4 20
l-59 19l4 23h202l-5 -23l-66 -20l-129 -616l59 -18l-4 -23h-202l5 24l67 24l113 534l-485 -521l-4 -20l59 -18l-4 -23h-202z" />
    <glyph glyph-name="afii10028" unicode="&#x41a;" horiz-adv-x="669" 
d="M644 51l8 -12q-50 -45 -104 -45q-45 0 -64.5 25.5t-22.5 89.5l-7 130q-3 59 -41.5 84t-118.5 25h-44v2l-64 -309l59 -18l-4 -23h-202l5 24l67 24l127 610l-58 19l4 23h202l-5 -23l-67 -20l-59 -281q83 0 127 26q43 27 73 84l55 104q62 116 147 116q37 0 54.5 -18
t10.5 -47q-3 -20 -16.5 -33t-32.5 -13t-29 11t-6 31l6 29q-3 3 -9 3q-53 0 -100 -93l-51 -98q-44 -82 -102 -108q83 -7 116 -35t36 -94l6 -130q2 -44 14 -61.5t38 -17.5q32 0 52 19z" />
    <glyph glyph-name="afii10029" unicode="&#x41b;" horiz-adv-x="725" 
d="M212 141l174 524l-60 15l3 20h505l-4 -20l-66 -17l-130 -622l59 -18l-4 -23h-202l5 24l67 24l130 622h-264l-173 -527q-46 -147 -132 -147q-31 0 -49.5 17t-12.5 46q11 44 49 44q18 0 27.5 -10.5t5.5 -27.5l-6 -30q4 -2 8 -2q7 -2 17 7t24.5 35t28.5 66z" />
    <glyph glyph-name="afii10030" unicode="&#x41c;" horiz-adv-x="897" 
d="M965 677l-67 -20l-83 -616l60 -18l-5 -23h-201l4 24l67 24l75 544l-370 -592h-37l-124 592l-158 -556l59 -19l-4 -17h-155l4 18l67 24l175 616l-58 19l4 23h120l127 -619l386 619h119z" />
    <glyph glyph-name="afii10031" unicode="&#x41d;" horiz-adv-x="748" 
d="M42 0l5 24l67 24l128 610l-59 19l4 23h202l-5 -23l-67 -20l-60 -287h387l60 288l-59 19l5 23h202l-5 -23l-67 -20l-129 -616l60 -18l-5 -23h-201l4 24l68 24l61 291h-387l-62 -298l59 -18l-4 -23h-202z" />
    <glyph glyph-name="afii10032" unicode="&#x41e;" horiz-adv-x="759" 
d="M165 350q33 163 142 259q109 97 253 97t213 -97q69 -96 35 -259t-143 -260q-110 -96 -253 -96q-144 0 -213 96q-68 98 -34 260zM246 349q-32 -152 16 -238q50 -86 157 -86t191 86q85 88 116 238q32 153 -17 239q-48 87 -155 87q-108 0 -192 -87q-85 -88 -116 -239z" />
    <glyph glyph-name="afii10033" unicode="&#x41f;" horiz-adv-x="722" 
d="M42 0l5 24l67 24l129 617l-59 15l3 20h638l-4 -20l-67 -17l-130 -622l60 -18l-4 -23h-202l5 24l67 24l130 622h-360l-131 -629l59 -18l-4 -23h-202z" />
    <glyph glyph-name="afii10034" unicode="&#x420;" horiz-adv-x="600" 
d="M426 670h-106l-130 -624l87 -23l-4 -23h-231l5 24l67 24l129 617l-59 15l3 20h257q106 0 160 -54t35 -147q-20 -92 -96 -146q-77 -54 -183 -54h-73l-9 13l4 18h73q76 0 131 45t71 124q18 79 -18.5 125t-112.5 46z" />
    <glyph glyph-name="afii10035" unicode="&#x421;" horiz-adv-x="697" 
d="M675 116l15 -19q-118 -103 -272 -103q-150 0 -219 95q-69 97 -35 260q35 165 143 260q109 97 259 97q112 0 183 -56l34 21l9 -12l-14 -131h-28q-13 145 -174 145q-125 0 -211.5 -84.5t-118.5 -237.5q-31 -149 20.5 -234.5t178.5 -85.5q136 0 230 85z" />
    <glyph glyph-name="afii10036" unicode="&#x422;" horiz-adv-x="648" 
d="M699 577l-13 93h-184l-131 -629l59 -18l-4 -23h-202l5 24l67 24l130 622h-183l-54 -95h-27l37 125h543l-15 -123h-28z" />
    <glyph glyph-name="afii10037" unicode="&#x423;" horiz-adv-x="690" 
d="M381 211l-152 449l-58 17l4 23h200l-4 -23l-63 -17l126 -381l284 381l-76 17l4 23h175l-5 -23l-62 -17l-316 -420q-112 -149 -162 -199q-47 -47 -93 -47q-35 0 -55 17.5t-12 49.5q8 45 51 45q21 0 30 -11.5t5 -29.5l-8 -35q6 -3 11 -3q41 0 176 184z" />
    <glyph glyph-name="afii10038" unicode="&#x424;" horiz-adv-x="833" 
d="M684 677l-67 -20l-9 -42q143 0 217 -71t48 -193q-26 -123 -128 -193q-104 -71 -247 -71l-9 -46l59 -18l-4 -23h-202l5 24l67 24l8 39q-144 0 -218 71q-73 70 -47 193t128 193q104 71 247 71l9 43l-58 19l4 23h202zM428 117l98 469q-108 0 -187 -63q-78 -62 -101 -173
q-24 -109 28.5 -171t161.5 -62zM602 586l-98 -469q109 0 186 61q78 61 102 172q23 110 -29 173t-161 63z" />
    <glyph glyph-name="afii10039" unicode="&#x425;" horiz-adv-x="717" 
d="M490 23l64 17l-149 288l-276 -288l72 -17l-4 -23h-174l5 23l64 17l301 310l-160 310l-57 17l4 23h208l-5 -23l-63 -17l138 -270l259 270l-72 17l5 23h174l-5 -23l-65 -17l-285 -292l172 -328l57 -17l-4 -23h-208z" />
    <glyph glyph-name="afii10040" unicode="&#x426;" horiz-adv-x="724" 
d="M634 -136l5 136h-597l3 20l66 15l131 623l-59 19l4 23h202l-5 -23l-67 -20l-131 -627h359l131 628l-59 19l5 23h202l-5 -23l-67 -20l-131 -627h76l-34 -166h-29z" />
    <glyph glyph-name="afii10041" unicode="&#x427;" horiz-adv-x="690" 
d="M383 677l-66 -20l-38 -182q-31 -151 104 -151q48 0 104 13q59 13 100 39l60 282l-59 19l5 23h201l-5 -23l-66 -20l-129 -616l59 -18l-5 -23h-201l5 24l67 24l62 294q-50 -27 -116 -40q-73 -14 -123 -14q-90 0 -124 48t-15 136l39 186l-59 19l4 23h201z" />
    <glyph glyph-name="afii10042" unicode="&#x428;" horiz-adv-x="1056" 
d="M42 0l3 20l66 15l131 623l-59 19l4 23h202l-5 -23l-67 -20l-131 -627h310l131 628l-59 19l4 23h202l-5 -23l-66 -20l-131 -627h309l131 628l-59 19l5 23h201l-5 -23l-66 -20l-130 -622l60 -13l-4 -22h-972z" />
    <glyph glyph-name="afii10043" unicode="&#x429;" horiz-adv-x="1060" 
d="M970 -136l5 136h-933l3 20l66 15l131 623l-59 19l4 23h202l-5 -23l-67 -20l-131 -627h310l131 628l-59 19l4 23h202l-5 -23l-66 -20l-131 -627h309l131 628l-59 19l5 23h201l-5 -23l-66 -20l-131 -627h76l-34 -166h-29z" />
    <glyph glyph-name="afii10044" unicode="&#x42a;" horiz-adv-x="758" 
d="M535 680l-66 -17l-57 -275h132q107 0 161 -52t36 -141q-20 -91 -95 -143q-76 -52 -182 -52h-271l3 20l66 15l133 635h-152l-54 -95h-27l37 125h340zM406 358l-69 -328h121q76 0 130.5 44t70.5 121q16 76 -20.5 119.5t-112.5 43.5h-120z" />
    <glyph glyph-name="afii10045" unicode="&#x42b;" horiz-adv-x="851" 
d="M384 677l-67 -20l-56 -269h133q107 0 160 -52q54 -52 36 -141q-18 -91 -94 -143t-182 -52h-272l3 20l66 15l131 623l-59 19l4 23h202zM255 358l-69 -328h121q76 0 130.5 44t70.5 121q16 76 -20 119.5t-112 43.5h-121zM950 677l-67 -20l-129 -616l59 -18l-4 -23h-201l4 24
l67 24l128 610l-59 19l5 23h201z" />
    <glyph glyph-name="afii10046" unicode="&#x42c;" horiz-adv-x="608" 
d="M384 677l-67 -20l-56 -269h133q107 0 160 -52q54 -52 36 -141q-18 -91 -94 -143t-182 -52h-272l3 20l66 15l131 623l-59 19l4 23h202zM255 358l-69 -328h121q76 0 130.5 44t70.5 121q16 76 -20 119.5t-112 43.5h-121z" />
    <glyph glyph-name="afii10047" unicode="&#x42d;" horiz-adv-x="697" 
d="M632 340h-333l6 31h333q23 145 -25.5 223.5t-164.5 78.5q-60 0 -124 -25q-37 -13 -68.5 -44.5t-51.5 -75.5h-28l38 127l15 12l22 -17q95 56 210 56q149 0 218 -96q71 -96 36 -260q-35 -165 -144 -261q-110 -95 -262 -95q-118 0 -189 56l-30 -17l-8 12l13 127h28
q2 -86 68 -119q55 -26 119 -26q121 0 204.5 81.5t117.5 231.5z" />
    <glyph glyph-name="afii10048" unicode="&#x42e;" horiz-adv-x="982" 
d="M42 0l5 24l67 24l128 610l-59 19l4 23h202l-5 -23l-67 -20l-60 -287h154q38 156 136 245q100 91 228 91q132 0 193 -97q62 -97 28 -259q-34 -163 -136 -260q-100 -96 -233 -96q-129 0 -191 93q-61 92 -31 252h-154l-62 -298l59 -18l-4 -23h-202zM488 349q-31 -151 9 -238
q41 -86 137 -86q95 0 172 86q78 89 109 238q31 150 -10 239q-41 87 -136 87t-172 -87q-78 -88 -109 -239z" />
    <glyph glyph-name="afii10049" unicode="&#x42f;" horiz-adv-x="636" 
d="M27 39l13 12q12 -19 43 -19q17 0 31 14.5t39 57.5l76 132q24 41 47 63t55 34q-79 12 -115 60t-21 122q18 86 88 135q71 50 168 50h288l-4 -20l-66 -17l-130 -622l59 -18l-4 -23h-201l4 24l68 24l59 282h-1v-3h-42q-67 0 -108 -21.5t-71 -74.5l-74 -132q-33 -60 -60 -83
q-23 -22 -60 -22q-29 0 -46 10t-35 35zM529 358l65 312h-133q-70 0 -120 -41.5t-65 -114.5t17.5 -114.5t102.5 -41.5h133z" />
    <glyph glyph-name="afii10065" unicode="&#x430;" horiz-adv-x="559" 
d="M562 58l9 -12q-23 -20 -55 -35t-57 -15q-50 0 -35 76l5 12l-2 3q-35 -43 -87.5 -66.5t-102.5 -23.5q-78 0 -110.5 62t-11.5 164q25 117 98.5 179t184.5 62q67 0 127 -23l43 25l9 -12l-77 -370q-10 -49 16 -49q17 0 46 23zM435 125l58 278q-35 31 -104 31
q-73 0 -124 -53.5t-72 -153.5q-19 -91 3 -143.5t79 -52.5q39 0 83.5 24.5t76.5 69.5z" />
    <glyph glyph-name="afii10066" unicode="&#x431;" horiz-adv-x="551" 
d="M215 380h4q65 84 178 84q101 0 146 -63t23 -172q-23 -109 -95 -171t-175 -62q-67 0 -107 28q-43 32 -56 99.5t11 189.5q22 106 64 186q41 78 86 116t99 64q49 24 97 32q115 21 143 45l10 -12q-64 -81 -191 -105q-48 -8 -94 -27q-104 -42 -143 -232zM206 230
q-19 -95 8 -149t91 -54q65 0 115.5 54.5t68.5 148.5q20 95 -7.5 149.5t-91.5 54.5t-114 -54.5t-70 -149.5z" />
    <glyph glyph-name="afii10067" unicode="&#x432;" horiz-adv-x="479" 
d="M486 123q-12 -59 -70 -93q-56 -34 -135 -34q-102 0 -144 61t-20 172q24 112 91.5 173.5t166.5 61.5q73 0 110.5 -32t25.5 -86q-17 -81 -110 -106q49 -11 72 -41.5t13 -75.5zM284 27q48 0 82.5 26.5t44.5 72.5q10 47 -15 73t-78 26h-127q-39 -198 93 -198zM365 434
q-58 0 -101.5 -46.5t-65.5 -132.5h117q104 0 121 89q9 43 -10 66.5t-61 23.5z" />
    <glyph glyph-name="afii10068" unicode="&#x433;" horiz-adv-x="418" 
d="M451 356q-15 -69 -109 -111q-8 -4 -37.5 -16t-41 -17.5t-34 -17.5t-33.5 -21.5t-21.5 -24t-14.5 -29.5q-7 -37 16 -62t73 -25q81 0 133 46l15 -20q-74 -62 -178 -62q-73 0 -110 33t-26 84q13 67 105 105q7 3 32 13t35 14.5t31 14.5t31.5 18t24 19.5t20.5 24.5t10 28
q7 36 -15.5 57.5t-70.5 21.5q-75 0 -127 -46l-16 20q74 62 173 62q73 0 109 -29t26 -80z" />
    <glyph glyph-name="afii10069" unicode="&#x434;" horiz-adv-x="541" 
d="M517 380h4q10 62 7.5 110t-23.5 86.5t-47 66t-61.5 47.5t-67.5 31t-66 18l20 17q69 -11 121.5 -31t95.5 -55t64 -85t27 -120t-15 -160q-63 -309 -284 -309q-101 0 -146.5 62.5t-23.5 171.5q23 108 93.5 171t168.5 63q108 0 133 -84zM482 230q20 95 -7 149.5t-91 54.5
t-114.5 -54.5t-70.5 -149.5q-19 -96 8 -149.5t92 -53.5t114.5 54.5t68.5 148.5z" />
    <glyph glyph-name="afii10070" unicode="&#x435;" horiz-adv-x="485" 
d="M192 212q-18 -89 16 -134.5t116 -45.5q91 0 143 46l16 -20q-71 -62 -185 -62q-106 0 -154 63.5t-25 172.5q23 108 97.5 170t180.5 62q74 0 109 -30.5t24 -84.5q-12 -60 -86 -93q-75 -34 -252 -44zM386 434q-63 0 -116 -52q-53 -51 -72 -142q128 10 191 35t75 76
q6 37 -14 60t-64 23z" />
    <glyph glyph-name="afii10072" unicode="&#x436;" horiz-adv-x="795" 
d="M771 410l5 24q-36 0 -72 -60q-35 -57 -55 -152q-8 -38 -8.5 -69t3.5 -50t13.5 -33t18.5 -20.5t20 -10.5t16.5 -4.5t11.5 -0.5q25 0 53 23l10 -12q-59 -50 -112 -50q-10 0 -20 2.5t-25 9t-26 22t-19.5 38.5t-8.5 61t10 87q6 30 15 59l-139 -149l-25 -125h-60l-9 12l58 281
l-154 -165q-64 -133 -168 -133q-34 0 -48 14t-10 37q5 20 19 31.5t30 11.5q15 0 25 -12t6 -27l-4 -24q35 0 71 59q35 59 55 153q8 38 8.5 69t-4 50t-13.5 33t-18 20.5t-20.5 10.5t-17 4.5t-11.5 0.5q-25 0 -53 -23l-9 12q58 50 111 50q25 0 55 -19q20 -12 29 -36
q29 -70 6 -165q-4 -18 -16 -59l140 149l26 126h59l10 -12l-59 -282l154 167q65 131 167 131q34 0 48.5 -14.5t8.5 -36.5q-4 -20 -17.5 -31.5t-29.5 -11.5q-15 0 -24.5 11.5t-6.5 27.5z" />
    <glyph glyph-name="afii10073" unicode="&#x437;" horiz-adv-x="454" 
d="M334 464q75 0 113 -31.5t26 -85.5q-17 -82 -111 -107q49 -11 72.5 -42t13.5 -75q-12 -59 -69.5 -93t-141.5 -34q-77 0 -121 26.5t-35 71.5q4 18 15.5 28.5t26.5 10.5q16 0 24 -10.5t5 -24.5l-9 -44q28 -28 95 -28q52 0 88 26.5t46 73.5t-15 73t-78 26q-25 0 -62 -4l7 38
q33 -4 52 -4q102 0 120 88q9 44 -10 67.5t-62 23.5q-61 0 -99 -28l-9 -44q-3 -15 -16 -25.5t-28 -10.5t-22 10.5t-3 30.5q9 46 63 71q55 26 124 26z" />
    <glyph glyph-name="afii10074" unicode="&#x438;" horiz-adv-x="570" 
d="M113 403l-10 12q23 20 55.5 35t57.5 15q51 0 36 -76l-53 -251q-10 -48 7 -77t55 -29t84.5 27.5t81.5 76.5l67 324h62l10 -12l-77 -364q-10 -49 16 -49q18 0 46 23l10 -12q-61 -50 -113 -50q-50 0 -35 76l7 21l-2 3q-41 -48 -98 -74q-58 -26 -105 -26q-57 0 -80 37.5
t-10 101.5l51 242q10 49 -16 49q-19 0 -47 -23z" />
    <glyph glyph-name="afii10075" unicode="&#x439;" horiz-adv-x="570" 
d="M471 584l9 44q3 15 15.5 25.5t28.5 10.5q15 0 23 -11t4 -29q-8 -40 -57 -65q-47 -25 -102 -25q-54 0 -91 25q-38 26 -29 65q9 40 44 40q15 0 23.5 -10.5t5.5 -25.5l-9 -44q20 -21 62 -21q44 0 73 21zM113 403l-10 12q23 20 55.5 35t57.5 15q51 0 36 -76l-53 -251
q-10 -48 7 -77t55 -29t84.5 27.5t81.5 76.5l67 324h62l10 -12l-77 -364q-10 -49 16 -49q18 0 46 23l10 -12q-61 -50 -113 -50q-50 0 -35 76l7 21l-2 3q-41 -48 -98 -74q-58 -26 -105 -26q-57 0 -80 37.5t-10 101.5l51 242q10 49 -16 49q-19 0 -47 -23z" />
    <glyph glyph-name="afii10076" unicode="&#x43a;" horiz-adv-x="499" 
d="M113 403l-10 12q23 20 55.5 35t57.5 15q51 0 36 -76l-81 -389h-62l-10 12l77 365q10 49 -16 49q-19 0 -47 -23zM447 410l4 19q-43 -6 -96 -68q-51 -60 -80 -110q48 -14 73 -53q14 -20 21 -37q5 -11 20.5 -45t21.5 -46q12 -20 20 -27.5t19 -7.5q20 0 48 23l10 -12
q-121 -102 -173 9q-7 14 -24 62q-30 89 -76 116q0 1 5.5 9.5t14.5 22t13 20.5q25 39 56 77q85 102 155 102q28 0 41 -14.5t9 -36.5q-4 -18 -19 -30.5t-31 -12.5t-25.5 12t-6.5 28z" />
    <glyph glyph-name="afii10077" unicode="&#x43b;" horiz-adv-x="518" 
d="M130 49l-3 -14q25 0 55 66.5t72 202.5q26 84 81 120t189 36l-79 -376q-5 -24 1 -36.5t19 -12.5q18 0 47 23l9 -12q-61 -50 -111 -50q-55 0 -40 76l74 350q-65 0 -103 -28.5t-56 -89.5q-23 -76 -34 -108q-14 -39 -39 -95q-49 -106 -115 -106q-25 0 -36 13.5t-6 34.5
q3 18 17 29.5t29 11.5q14 0 23 -10.5t6 -24.5z" />
    <glyph glyph-name="afii10078" unicode="&#x43c;" horiz-adv-x="708" 
d="M132 49l-2 -13q30 0 89 225l50 199h59l70 -381l237 381h58l-56 -376q-7 -49 20 -49q18 0 47 23l10 -12q-62 -50 -112 -50t-40 76l44 292l-228 -364h-37l-65 364l-25 -103q-28 -112 -61 -186q-35 -80 -91 -80q-24 0 -35 13.5t-7 34.5q8 35 40 40q27 4 34 -16q4 -8 1 -18z
" />
    <glyph glyph-name="afii10079" unicode="&#x43d;" 
d="M216 219l-45 -219h-62l-10 12l77 365q10 49 -16 49q-19 0 -47 -23l-10 12q23 20 55.5 35t57.5 15q51 0 36 -76l-29 -139h231l43 210h63l9 -12l-76 -364q-10 -49 16 -49q17 0 46 23l9 -12q-23 -20 -55 -35t-57 -15q-51 0 -36 76l31 147h-231z" />
    <glyph glyph-name="afii10080" unicode="&#x43e;" horiz-adv-x="541" 
d="M117 230q22 107 97 171q75 63 174 63q100 0 148 -63q48 -64 26 -171q-23 -107 -97 -171q-73 -63 -174 -63q-100 0 -148 63q-48 64 -26 171zM194 230q-19 -95 9 -149t94 -54t117 54.5t71 148.5q20 95 -8 149.5t-95 54.5t-117.5 -54.5t-70.5 -149.5z" />
    <glyph glyph-name="afii10081" unicode="&#x43f;" horiz-adv-x="575" 
d="M113 403l-10 12q23 20 55.5 35t57.5 15q51 0 36 -76l-7 -19l2 -3q42 47 99 72t103 25q59 0 82.5 -44.5t7.5 -117.5l-45 -218q-10 -49 16 -49q18 0 46 23l10 -12q-23 -20 -55.5 -35t-57.5 -15q-51 0 -36 76l48 225q13 59 -4.5 95t-56.5 36q-36 0 -82 -26.5t-83 -74.5
l-68 -327h-62l-10 12l77 365q10 49 -16 49q-19 0 -47 -23z" />
    <glyph glyph-name="afii10082" unicode="&#x440;" horiz-adv-x="559" 
d="M206 -250h-219l6 24l61 22l122 581q10 49 -16 49q-19 0 -47 -23l-10 12q23 20 55.5 35t57.5 15q51 0 36 -76l-6 -13l3 -3q35 42 87 66.5t102 24.5q80 0 111 -63q32 -64 11 -164q-25 -116 -95.5 -178.5t-175.5 -62.5q-75 0 -113 32l-49 -235l84 -20zM240 335l-57 -274
q35 -36 103 -36q72 0 123.5 54.5t72.5 153.5q19 91 -4 143t-81 52q-40 0 -82.5 -24t-74.5 -69z" />
    <glyph glyph-name="afii10083" unicode="&#x441;" horiz-adv-x="498" 
d="M466 354l11 51q-29 29 -91 29q-70 0 -120 -52t-69 -144q-21 -99 14 -152.5t117 -53.5q89 0 141 46l15 -20q-74 -62 -186 -62q-105 0 -153.5 63t-25.5 173q23 109 94.5 170.5t176.5 61.5q72 0 115 -28q45 -27 35 -75q-9 -44 -45 -44q-15 0 -23.5 11t-5.5 26z" />
    <glyph glyph-name="afii10084" unicode="&#x442;" horiz-adv-x="816" 
d="M113 403l-10 12q23 20 55.5 35t57.5 15q51 0 36 -76l-7 -19l2 -3q36 45 90 71t90 26q38 0 60 -27.5t25 -77.5q39 47 93 76t98 29q53 0 73 -44t5 -118l-46 -218q-10 -49 16 -49q18 0 46 23l10 -12q-23 -20 -55.5 -35t-56.5 -15q-51 0 -36 76l47 225q13 60 -0.5 95.5
t-48.5 35.5q-29 0 -69 -25.5t-77 -71.5q0 -12 -4 -29l-63 -302h-61l-10 12l59 285q13 60 -0.5 95.5t-47.5 35.5q-32 0 -72.5 -27t-72.5 -74l-68 -327h-62l-10 12l77 365q10 49 -16 49q-19 0 -47 -23z" />
    <glyph glyph-name="afii10085" unicode="&#x443;" horiz-adv-x="531" 
d="M43 -187l-5 -27q4 -3 9 -3q26 0 89.5 56t137.5 151l-80 401q-8 35 -32 35q-22 0 -50 -23l-10 12q59 50 113 50q24 0 36 -13t18 -47l61 -352q6 8 14 18t19 24.5t19 24.5q33 44 89 131q57 90 66 134h-21q-15 0 -24 12t-6 29q4 17 18.5 28t32.5 11q20 0 31 -16t5 -46
q-10 -55 -81 -166q-73 -113 -157 -219q-83 -105 -178 -189q-91 -82 -141 -82q-24 0 -41 16.5t-11 43.5q6 34 38 41q28 6 39 -14q5 -9 2 -21z" />
    <glyph glyph-name="afii10086" unicode="&#x444;" horiz-adv-x="750" 
d="M521 435l3 -3q56 32 122 32q82 0 114.5 -62t10.5 -166q-24 -114 -92 -177t-164 -63q-48 0 -79 16l-46 -222l54 -17l-6 -23h-189l6 24l62 22l43 204l8 25l-3 3q-58 -32 -122 -32q-83 0 -116 62t-11 166q24 114 92 177t165 63q47 0 80 -16l52 248l-49 14l5 27l117 18
l10 -12l-59 -283zM282 32q48 0 89 24l76 361q-39 17 -71 17q-66 0 -114 -53.5t-68 -151.5q-19 -93 4 -145t84 -52zM606 428q-48 0 -89 -25l-75 -361q29 -17 69 -17q66 0 114 54t69 152q19 93 -4 145t-84 52z" />
    <glyph glyph-name="afii10087" unicode="&#x445;" horiz-adv-x="513" 
d="M132 50l-4 -19q30 5 65 47q50 59 89 149l-59 150q-19 49 -42 49q-16 0 -42 -23l-10 12q56 50 89 50q42 0 73 -76l44 -111q29 58 77 119q54 67 113 67q27 0 39.5 -14.5t8.5 -36.5q-4 -18 -18.5 -30.5t-30.5 -12.5t-25.5 12t-6.5 28l4 19q-67 -10 -148 -184l65 -161
q19 -49 43 -49q16 0 42 23l10 -12q-56 -50 -91 -50q-42 0 -73 76l-49 122q-32 -67 -78 -126q-55 -73 -117 -73q-27 0 -39.5 15t-8.5 37q4 18 18.5 30t30.5 12t25 -12t6 -27z" />
    <glyph glyph-name="afii10088" unicode="&#x446;" horiz-adv-x="570" 
d="M544 52l7 6l10 -12l-6 -5q-29 -25 -34 -51q-5 -22 7 -42q13 -21 10 -38q-9 -36 -75 -92l-9 12q29 26 35 53q5 24 -7 44q-12 21 -9 37q5 23 26 44q-25 -12 -51 -12q-50 0 -35 76l7 21l-2 3q-41 -48 -98 -74q-58 -26 -105 -26q-57 0 -80 37.5t-10 101.5l51 242
q10 49 -16 49q-19 0 -47 -23l-10 12q23 20 55.5 35t57.5 15q51 0 36 -76l-53 -251q-10 -48 7 -77t55 -29t84.5 27.5t81.5 76.5l67 324h62l10 -12l-77 -364q-10 -49 16 -49q13 0 39 17z" />
    <glyph glyph-name="afii10089" unicode="&#x447;" horiz-adv-x="554" 
d="M436 261l42 199h62l9 -12l-76 -364q-10 -49 15 -49q18 0 47 23l9 -12q-23 -20 -55 -35t-57 -15q-50 0 -35 76l32 155q-35 -27 -83 -40q-51 -14 -89 -14q-61 0 -84.5 37t-10.5 102l14 65q10 49 -16 49q-19 0 -47 -23l-10 12q23 20 55.5 35t57.5 15q51 0 36 -76l-16 -74
q-11 -50 5 -78t57 -28q32 0 72 14t66 38z" />
    <glyph glyph-name="afii10090" unicode="&#x448;" horiz-adv-x="816" 
d="M797 58l10 -12q-23 -20 -55.5 -35t-56.5 -15q-51 0 -36 76l7 19l-2 3q-38 -46 -90 -72q-51 -25 -90 -25q-38 0 -60.5 27.5t-25.5 76.5q-40 -49 -95 -77q-54 -27 -92 -27q-56 0 -76.5 44t-4.5 118l46 218q10 49 -16 49q-19 0 -47 -23l-10 12q23 20 55.5 35t57.5 15
q51 0 36 -76l-48 -225q-13 -60 1 -95.5t51 -35.5q28 0 68.5 26t74.5 71q0 12 4 29l63 302h62l9 -13l-59 -284q-13 -61 0.5 -96t50.5 -35q29 0 70.5 27.5t72.5 73.5l68 327h61l10 -13l-76 -364q-10 -49 16 -49q18 0 46 23z" />
    <glyph glyph-name="afii10091" unicode="&#x449;" horiz-adv-x="816" 
d="M790 52l7 6l10 -12l-4 -4q-32 -29 -36 -52q-5 -22 7 -42q13 -21 10 -38q-9 -36 -75 -92l-10 12q30 25 36 53q5 24 -7 44q-12 21 -9 37q5 21 25 44q-28 -12 -49 -12q-51 0 -36 76l7 19l-2 3q-38 -46 -90 -72q-51 -25 -90 -25q-38 0 -60.5 27.5t-25.5 76.5q-40 -49 -95 -77
q-54 -27 -92 -27q-56 0 -76.5 44t-4.5 118l46 218q10 49 -16 49q-19 0 -47 -23l-10 12q23 20 55.5 35t57.5 15q51 0 36 -76l-48 -225q-13 -60 1 -95.5t51 -35.5q28 0 68.5 26t74.5 71q0 12 4 29l63 302h62l9 -13l-59 -284q-13 -61 0.5 -96t50.5 -35q29 0 70.5 27.5
t72.5 73.5l68 327h61l10 -13l-76 -364q-10 -49 16 -49q16 0 39 17z" />
    <glyph glyph-name="afii10092" unicode="&#x44a;" horiz-adv-x="531" 
d="M370 466l10 -12q-66 -86 -110 -205q53 31 114 31q75 0 113.5 -39t25.5 -104t-72 -103.5t-145 -38.5q-169 0 -135 163q26 128 108 238q-10 -2 -19 -2q-18 0 -38 15t-45 15q-36 0 -65 -25l-9 12q67 57 116 57q20 0 39 -16t43 -16q35 0 69 30zM363 249q-52 0 -104 -34
q-7 -24 -14 -53q-27 -137 72 -137q48 0 83.5 30.5t46.5 81.5t-12.5 81.5t-71.5 30.5z" />
    <glyph glyph-name="afii10093" unicode="&#x44b;" horiz-adv-x="707" 
d="M552 403l-10 12q62 50 113 50t36 -76l-65 -305q-10 -49 16 -49q18 0 46 23l10 -12q-61 -50 -112 -50t-36 76l65 305q10 49 -16 49q-19 0 -47 -23zM113 403l-10 12q23 20 55.5 35t57.5 15q51 0 36 -76l-31 -144q59 35 121 35q74 0 113.5 -39.5t26.5 -103.5
q-13 -65 -72 -103.5t-144 -38.5q-80 0 -118 34.5t-25 97.5l53 250q10 49 -16 49q-19 0 -47 -23zM321 249q-51 0 -106 -36l-19 -90q-9 -45 13.5 -71.5t67.5 -26.5q46 0 81.5 30.5t46.5 81.5t-12.5 81.5t-71.5 30.5z" />
    <glyph glyph-name="afii10094" unicode="&#x44c;" horiz-adv-x="490" 
d="M113 403l-10 12q23 20 55.5 35t57.5 15q51 0 36 -76l-31 -144q59 35 121 35q74 0 113.5 -39.5t26.5 -103.5q-13 -65 -72 -103.5t-144 -38.5q-80 0 -118 34.5t-25 97.5l53 250q10 49 -16 49q-19 0 -47 -23zM321 249q-51 0 -106 -36l-19 -90q-9 -45 13.5 -71.5t67.5 -26.5
q46 0 81.5 30.5t46.5 81.5t-12.5 81.5t-71.5 30.5z" />
    <glyph glyph-name="afii10095" unicode="&#x44d;" horiz-adv-x="502" 
d="M334 464q106 0 153 -61.5t24 -171.5t-95.5 -172.5t-178.5 -62.5q-73 0 -119 28q-45 28 -36 73q4 19 16 29.5t26 10.5q15 0 23.5 -10.5t5.5 -24.5l-9 -46q33 -30 97 -30q69 0 120 51.5t71 142.5h-200l7 31h199q14 86 -17 134.5t-98 48.5q-61 0 -99 -28l-9 -44
q-3 -14 -16 -25t-28 -11q-33 0 -26 40q9 46 63 72q55 26 126 26z" />
    <glyph glyph-name="afii10096" unicode="&#x44e;" horiz-adv-x="745" 
d="M216 219l-45 -219h-62l-10 12l77 365q10 49 -16 49q-19 0 -47 -23l-10 12q23 20 55.5 35t57.5 15q51 0 36 -76l-29 -139h106q25 98 95 156q68 58 159 58q94 0 138.5 -63.5t22.5 -170.5q-22 -108 -93 -171t-165 -63q-93 0 -137.5 60.5t-26.5 162.5h-106zM401 230
q-19 -95 6 -149t85 -54q61 0 108.5 54.5t66.5 148.5q21 95 -4 149.5t-86 54.5t-108.5 -54.5t-67.5 -149.5z" />
    <glyph glyph-name="afii10097" unicode="&#x44f;" horiz-adv-x="520" 
d="M339 460h176l-79 -376q-10 -49 16 -49q19 0 47 23l9 -12q-23 -20 -55 -35t-57 -15q-51 0 -36 76l30 141h-1l-1 -8h-28q-48 0 -75.5 -11.5t-45.5 -43.5l-47 -84q-19 -39 -38.5 -54.5t-51.5 -15.5q-51 0 -72 33l13 11q9 -11 31 -11q15 0 23.5 7.5t23.5 34.5l46 79
q27 49 77 66q-58 8 -85.5 40t-16.5 80q11 57 65 90.5t132 33.5zM302 236h92l41 194h-92q-48 0 -81.5 -26t-43.5 -71t13 -71t71 -26z" />
    <glyph glyph-name="uni0450" unicode="&#x450;" horiz-adv-x="485" 
d="M192 212q-18 -89 16 -134.5t116 -45.5q91 0 143 46l16 -20q-71 -62 -185 -62q-106 0 -154 63.5t-25 172.5q23 108 97.5 170t180.5 62q74 0 109 -30.5t24 -84.5q-12 -60 -86 -93q-75 -34 -252 -44zM386 434q-63 0 -116 -52q-53 -51 -72 -142q128 10 191 35t75 76
q6 37 -14 60t-64 23zM317 625l56 46l110 -128l-21 -19z" />
    <glyph glyph-name="afii10071" unicode="&#x451;" horiz-adv-x="485" 
d="M192 212q-18 -89 16 -134.5t116 -45.5q91 0 143 46l16 -20q-71 -62 -185 -62q-106 0 -154 63.5t-25 172.5q23 108 97.5 170t180.5 62q74 0 109 -30.5t24 -84.5q-12 -60 -86 -93q-75 -34 -252 -44zM386 434q-63 0 -116 -52q-53 -51 -72 -142q128 10 191 35t75 76
q6 37 -14 60t-64 23zM259 580q5 20 21 33.5t36 13.5t30.5 -13.5t6.5 -33.5q-5 -20 -21 -34t-35 -14q-20 0 -31 14t-7 34zM563 580q-4 -20 -20 -34t-36 -14t-30.5 14t-6.5 34t20.5 33.5t36.5 13.5t30.5 -13.5t5.5 -33.5z" />
    <glyph glyph-name="afii10099" unicode="&#x452;" 
d="M239 327l-68 -327h-62l-10 12l118 565h-58l4 18l60 13l21 95l-56 14l4 21l124 18l10 -12l-29 -136h198l-6 -31h-198l-25 -117l-21 -90l2 -3q41 45 100 71q60 26 104 26q59 0 81.5 -44t6.5 -118l-62 -302q-24 -115 -80 -185q-55 -70 -127 -70q-34 0 -48 14t-10 37
q5 20 19 31.5t30 11.5q15 0 24.5 -11.5t6.5 -27.5l-5 -24q69 0 116 224l62 297q13 61 -2.5 96t-55.5 35q-37 0 -84 -27t-84 -74z" />
    <glyph glyph-name="afii10100" unicode="&#x453;" horiz-adv-x="418" 
d="M274 524l-14 19l165 128l36 -46zM451 356q-15 -69 -109 -111q-8 -4 -37.5 -16t-41 -17.5t-34 -17.5t-33.5 -21.5t-21.5 -24t-14.5 -29.5q-7 -37 16 -62t73 -25q81 0 133 46l15 -20q-74 -62 -178 -62q-73 0 -110 33t-26 84q13 67 105 105q7 3 32 13t35 14.5t31 14.5
t31.5 18t24 19.5t20.5 24.5t10 28q7 36 -15.5 57.5t-70.5 21.5q-75 0 -127 -46l-16 20q74 62 173 62q73 0 109 -29t26 -80z" />
    <glyph glyph-name="afii10101" unicode="&#x454;" horiz-adv-x="503" 
d="M392 434q-69 0 -119.5 -48t-72.5 -135h236l-7 -31h-237q-16 -90 18.5 -139t112.5 -49q87 0 139 46l16 -20q-74 -62 -185 -62q-104 0 -150.5 62.5t-24.5 171.5q23 110 95.5 172t179.5 62q73 0 115 -26.5t33 -71.5q-9 -40 -43 -40q-15 0 -23 11t-5 25l10 44q-28 28 -88 28z
" />
    <glyph glyph-name="afii10102" unicode="&#x455;" horiz-adv-x="422" 
d="M380 362l9 43q-25 28 -76 28q-46 0 -78 -21t-39 -58q-8 -34 12 -53.5t73 -35.5q66 -20 86 -35q36 -25 40 -43q14 -44 6 -67q-12 -58 -62 -91t-130 -33q-73 0 -112.5 25.5t-30.5 69.5q5 35 34 40q24 4 33 -14q4 -9 2 -19l-10 -41q28 -31 85 -31q114 0 133 85q6 28 -14 55
q-7 8 -27 17q-6 4 -18 8q-9 4 -20.5 7.5t-20.5 7.5q-61 22 -92 44q-38 28 -26 93q25 120 175 120q69 0 107 -25t29 -69q-9 -41 -41 -41q-14 0 -22 10t-5 24z" />
    <glyph glyph-name="afii10103" unicode="&#x456;" horiz-adv-x="267" 
d="M120 403l-10 12q23 20 55.5 35t57.5 15q51 0 36 -76l-65 -305q-10 -49 16 -49q18 0 47 23l9 -12q-61 -50 -112 -50t-36 76l65 305q10 49 -16 49q-19 0 -47 -23zM214 569q-11 15 -6 38t22 38t39 15t34 -15q13 -15 8 -38t-23 -38q-18 -14 -40 -14t-34 14z" />
    <glyph glyph-name="afii10104" unicode="&#x457;" horiz-adv-x="267" 
d="M231 584q-5 -20 -21 -34t-35 -14q-31 0 -37.5 30t19.5 52q28 22 54 10t20 -44zM280 584q5 21 21.5 34.5t36.5 13.5q19 0 30 -14t7 -34q-5 -21 -21 -34.5t-36 -13.5t-31 14t-7 34zM121 403l-10 12q23 20 55.5 35t57.5 15q50 0 35 -76l-64 -305q-10 -49 16 -49q18 0 46 23
l10 -12q-23 -20 -55.5 -35t-56.5 -15q-52 0 -37 76l65 305q10 49 -16 49q-18 0 -46 -23z" />
    <glyph glyph-name="afii10105" unicode="&#x458;" horiz-adv-x="267" 
d="M-11 -200l-4 -24q69 0 116 224l79 377q10 49 -17 49q-18 0 -46 -23l-10 12q23 20 55.5 35t57.5 15q51 0 36 -76l-81 -389q-24 -113 -80 -185q-55 -70 -127 -70q-34 0 -48 14t-10 37q4 19 18 31t31 12q15 0 24.5 -11.5t5.5 -27.5zM211 569q-11 15 -6 38t22 38t39 15
t34 -15q13 -15 8 -38t-23 -38q-18 -14 -40 -14t-34 14z" />
    <glyph glyph-name="afii10106" unicode="&#x459;" horiz-adv-x="744" 
d="M382 127l62 295q-65 0 -103 -28.5t-56 -89.5q-23 -76 -34 -108q-14 -39 -39 -95q-49 -106 -115 -106q-25 0 -36 13.5t-6 34.5q3 18 17 29.5t29 11.5q14 0 23 -10.5t6 -24.5l-3 -14q25 0 55 66.5t72 202.5q16 56 42 87q59 69 229 69l-45 -215q59 35 122 35q74 0 113 -39.5
t26 -103.5q-13 -65 -72 -103.5t-144 -38.5q-80 0 -118 34t-25 98zM580 249q-50 0 -106 -36l-19 -90q-9 -45 13.5 -71.5t67.5 -26.5q46 0 81.5 30.5t46.5 81.5t-12.5 81.5t-71.5 30.5z" />
    <glyph glyph-name="afii10107" unicode="&#x45a;" horiz-adv-x="779" 
d="M216 219l-45 -219h-62l-10 12l77 365q10 49 -16 49q-19 0 -47 -23l-10 12q23 20 55.5 35t57.5 15q51 0 36 -76l-29 -139h214l43 210h63l9 -12l-43 -203q59 35 122 35q74 0 113 -40q40 -38 26 -103t-73 -104q-59 -38 -142 -38q-79 0 -117.5 33.5t-26.5 96.5l19 94h-214z
M610 249q-52 0 -107 -36l-19 -90q-9 -44 14 -71t68 -27q46 0 81 30.5t46 81.5t-12 81.5t-71 30.5z" />
    <glyph glyph-name="afii10108" unicode="&#x45b;" horiz-adv-x="584" 
d="M556 58l10 -12q-23 -20 -55.5 -35t-56.5 -15q-52 0 -37 76l48 225q13 61 -2.5 96t-55.5 35q-38 0 -85.5 -27.5t-82.5 -73.5l-68 -327h-62l-10 12l118 565h-58l4 18l60 13l21 95l-56 14l4 21l124 18l10 -12l-29 -136h198l-6 -31h-198l-25 -117l-21 -90l2 -3q41 45 100 71
q60 26 104 26q59 0 81.5 -44t6.5 -118l-45 -218q-10 -49 16 -49q18 0 46 23z" />
    <glyph glyph-name="afii10109" unicode="&#x45c;" horiz-adv-x="499" 
d="M113 403l-10 12q23 20 55.5 35t57.5 15q51 0 36 -76l-81 -389h-62l-10 12l77 365q10 49 -16 49q-19 0 -47 -23zM447 410l4 19q-43 -6 -96 -68q-51 -60 -80 -110q48 -14 73 -53q14 -20 21 -37q5 -11 20.5 -45t21.5 -46q12 -20 20 -27.5t19 -7.5q20 0 48 23l10 -12
q-121 -102 -173 9q-7 14 -24 62q-30 89 -76 116q0 1 5.5 9.5t14.5 22t13 20.5q25 39 56 77q85 102 155 102q28 0 41 -14.5t9 -36.5q-4 -18 -19 -30.5t-31 -12.5t-25.5 12t-6.5 28zM309 524l-14 19l165 128l35 -46z" />
    <glyph glyph-name="uni045D" unicode="&#x45d;" horiz-adv-x="570" 
d="M113 403l-10 12q23 20 55.5 35t57.5 15q51 0 36 -76l-53 -251q-10 -48 7 -77t55 -29t84.5 27.5t81.5 76.5l67 324h62l10 -12l-77 -364q-10 -49 16 -49q18 0 46 23l10 -12q-61 -50 -113 -50q-50 0 -35 76l7 21l-2 3q-41 -48 -98 -74q-58 -26 -105 -26q-57 0 -80 37.5
t-10 101.5l51 242q10 49 -16 49q-19 0 -47 -23zM304 625l56 46l110 -128l-21 -19z" />
    <glyph glyph-name="afii10110" unicode="&#x45e;" horiz-adv-x="531" 
d="M467 584l9 44q3 15 16 25.5t29 10.5q15 0 22.5 -11t3.5 -29q-8 -39 -56 -65q-47 -25 -102 -25q-54 0 -91 25q-38 26 -30 65q9 40 44 40q16 0 24 -10.5t5 -25.5l-9 -44q21 -21 63 -21q43 0 72 21zM43 -187l-5 -27q4 -3 9 -3q26 0 89.5 56t137.5 151l-80 401q-8 35 -32 35
q-22 0 -50 -23l-10 12q59 50 113 50q24 0 36 -13t18 -47l61 -352q6 8 14 18t19 24.5t19 24.5q33 44 89 131q57 90 66 134h-21q-15 0 -24 12t-6 29q4 17 18.5 28t32.5 11q20 0 31 -16t5 -46q-10 -55 -81 -166q-73 -113 -157 -219q-83 -105 -178 -189q-91 -82 -141 -82
q-24 0 -41 16.5t-11 43.5q6 34 38 41q28 6 39 -14q5 -9 2 -21z" />
    <glyph glyph-name="afii10193" unicode="&#x45f;" horiz-adv-x="570" 
d="M113 403l-10 12q23 20 55.5 35t57.5 15q51 0 36 -76l-53 -251q-10 -48 7 -77t55 -29t84.5 27.5t81.5 76.5l67 324h62l10 -12l-77 -364q-10 -49 16 -49q18 0 46 23l10 -12q-61 -50 -113 -50q-50 0 -35 76l7 21l-2 3q-44 -50 -105 -77q-26 -26 -30 -47q-5 -22 7 -42
q13 -21 10 -38q-9 -36 -75 -92l-10 12q30 25 36 53q5 23 -8 44q-12 21 -8 37q5 26 41 59q-33 -9 -61 -9q-57 0 -80 37.5t-10 101.5l51 242q10 49 -16 49q-19 0 -47 -23z" />
    <glyph glyph-name="afii10050" unicode="&#x490;" horiz-adv-x="525" 
d="M184 680l3 20h384l53 92h27l-35 -122h-296l-130 -624l87 -23l-4 -23h-231l5 24l67 24l129 617z" />
    <glyph glyph-name="afii10098" unicode="&#x491;" horiz-adv-x="403" 
d="M114 84l78 376h208l40 82h27l-23 -112h-184l-75 -358q-15 -76 -66 -76q-25 0 -51 15t-42 35l15 12q17 -23 38 -23q25 0 35 49z" />
    <glyph glyph-name="uni04D8" unicode="&#x4d8;" horiz-adv-x="724" 
d="M248 584l-14 19q115 103 271 103q150 0 219 -96q69 -95 35 -258q-35 -164 -144 -261t-255 -97q-128 0 -190 72t-41 175q5 27 16 51l22 17h500q19 70 19.5 132.5t-18.5 114.5t-67.5 82.5t-122.5 30.5q-133 0 -230 -85zM361 27q93 0 176 66q83 67 122 186l-453 -16
q-20 -98 18 -167q39 -69 137 -69z" />
    <glyph glyph-name="afii10846" unicode="&#x4d9;" horiz-adv-x="511" 
d="M114 208l16 12h316q43 208 -123 208q-88 0 -140 -46l-16 20q74 62 181 62q104 0 152 -64t25 -172q-22 -108 -97 -170q-74 -62 -168 -62q-87 0 -129 51t-27 127zM260 26q58 0 108 49q52 49 72 117l-267 -7q-14 -70 9.5 -114.5t77.5 -44.5z" />
    <glyph glyph-name="Wgrave" unicode="&#x1e80;" horiz-adv-x="1131" 
d="M794 0h-38l-89 487l-290 -487h-37l-127 658l-58 19l5 23h202l-4 -23l-67 -19l106 -577l260 444l-27 133l-58 19l5 23h202l-4 -23l-67 -19l105 -577l348 577l-76 19l4 23h173l-5 -23l-63 -19zM637 865l55 46l111 -128l-22 -19z" />
    <glyph glyph-name="wgrave" unicode="&#x1e81;" horiz-adv-x="817" 
d="M580 0h-26l-49 274q-42 -69 -92 -131q-58 -71 -91 -105l-37 -38h-25l-71 391q-8 35 -33 35q-22 0 -50 -23l-10 12q59 50 112 50q24 0 36.5 -13.5t17.5 -46.5l55 -340q121 131 180 247l-14 79q-8 35 -33 35q-22 0 -50 -23l-10 12q59 50 113 50q24 0 36.5 -13.5t17.5 -46.5
l55 -341q2 3 10 11.5t21.5 25t32.5 40.5q36 44 59 78q23 33 51 85q24 43 32 81h-22q-14 0 -23.5 12.5t-6.5 28.5q4 16 17.5 27.5t34.5 11.5q46 0 33 -72q-20 -94 -111 -210q-84 -107 -136 -159zM428 625l56 46l111 -128l-21 -19z" />
    <glyph glyph-name="Wacute" unicode="&#x1e82;" horiz-adv-x="1131" 
d="M794 0h-38l-89 487l-290 -487h-37l-127 658l-58 19l5 23h202l-4 -23l-67 -19l106 -577l260 444l-27 133l-58 19l5 23h202l-4 -23l-67 -19l105 -577l348 577l-76 19l4 23h173l-5 -23l-63 -19zM669 764l-14 19l165 128l36 -46z" />
    <glyph glyph-name="wacute" unicode="&#x1e83;" horiz-adv-x="817" 
d="M580 0h-26l-49 274q-42 -69 -92 -131q-58 -71 -91 -105l-37 -38h-25l-71 391q-8 35 -33 35q-22 0 -50 -23l-10 12q59 50 112 50q24 0 36.5 -13.5t17.5 -46.5l55 -340q121 131 180 247l-14 79q-8 35 -33 35q-22 0 -50 -23l-10 12q59 50 113 50q24 0 36.5 -13.5t17.5 -46.5
l55 -341q2 3 10 11.5t21.5 25t32.5 40.5q36 44 59 78q23 33 51 85q24 43 32 81h-22q-14 0 -23.5 12.5t-6.5 28.5q4 16 17.5 27.5t34.5 11.5q46 0 33 -72q-20 -94 -111 -210q-84 -107 -136 -159zM464 524l-14 19l165 128l36 -46z" />
    <glyph glyph-name="Wdieresis" unicode="&#x1e84;" horiz-adv-x="1131" 
d="M794 0h-38l-89 487l-290 -487h-37l-127 658l-58 19l5 23h202l-4 -23l-67 -19l106 -577l260 444l-27 133l-58 19l5 23h202l-4 -23l-67 -19l105 -577l348 577l-76 19l4 23h173l-5 -23l-63 -19zM669 824q-5 -21 -20.5 -34.5t-35.5 -13.5t-31 14t-7 34t20.5 34t36.5 14
t30.5 -14t6.5 -34zM880 824q-4 -20 -20 -34t-36 -14t-31 14t-7 34t20.5 34t36.5 14t31 -14t6 -34z" />
    <glyph glyph-name="wdieresis" unicode="&#x1e85;" horiz-adv-x="817" 
d="M580 0h-26l-49 274q-42 -69 -92 -131q-58 -71 -91 -105l-37 -38h-25l-71 391q-8 35 -33 35q-22 0 -50 -23l-10 12q59 50 112 50q24 0 36.5 -13.5t17.5 -46.5l55 -340q121 131 180 247l-14 79q-8 35 -33 35q-22 0 -50 -23l-10 12q59 50 113 50q24 0 36.5 -13.5t17.5 -46.5
l55 -341q2 3 10 11.5t21.5 25t32.5 40.5q36 44 59 78q23 33 51 85q24 43 32 81h-22q-14 0 -23.5 12.5t-6.5 28.5q4 16 17.5 27.5t34.5 11.5q46 0 33 -72q-20 -94 -111 -210q-84 -107 -136 -159zM379 584q4 20 20.5 34t36.5 14t30.5 -14t5.5 -34q-4 -20 -20 -34t-36 -14
t-31 14t-6 34zM683 584q-5 -21 -21 -34.5t-36 -13.5q-31 0 -37 30t20 52q28 22 54 10t20 -44z" />
    <glyph glyph-name="Ygrave" unicode="&#x1ef2;" horiz-adv-x="677" 
d="M362 677l-63 -17l131 -330l273 330l-72 17l4 23h173l-5 -23l-64 -17l-304 -363l-53 -256l58 -18l-4 -23h-201l5 24l67 24l52 248l-146 364l-58 17l5 23h207zM408 865l56 46l110 -128l-21 -19z" />
    <glyph glyph-name="ygrave" unicode="&#x1ef3;" horiz-adv-x="531" 
d="M43 -187l-5 -27q4 -3 9 -3q26 0 89.5 56t137.5 151l-80 401q-8 35 -32 35q-22 0 -50 -23l-10 12q59 50 113 50q24 0 36 -13t18 -47l61 -352q6 8 14 18t19 24.5t19 24.5q33 44 89 131q57 90 66 134h-21q-15 0 -24 12t-6 29q4 17 18.5 28t32.5 11q20 0 31 -16t5 -46
q-10 -55 -81 -166q-73 -113 -157 -219q-83 -105 -178 -189q-91 -82 -141 -82q-24 0 -41 16.5t-11 43.5q6 34 38 41q28 6 39 -14q5 -9 2 -21zM299 625l56 46l111 -128l-21 -19z" />
    <glyph glyph-name="figuredash" unicode="&#x2012;" horiz-adv-x="482" 
d="M512 334h-403l7 34h403z" />
    <glyph glyph-name="endash" unicode="&#x2013;" horiz-adv-x="482" 
d="M494 247h-403l7 34h403z" />
    <glyph glyph-name="emdash" unicode="&#x2014;" horiz-adv-x="675" 
d="M687 247h-596l7 34h596z" />
    <glyph glyph-name="quoteleft" unicode="&#x2018;" horiz-adv-x="180" 
d="M271 705l11 -15q-20 -17 -38.5 -42t-21.5 -40q-2 -6 0 -9q20 0 31.5 -13.5t7.5 -34.5q-5 -21 -21.5 -34.5t-37.5 -13.5t-31.5 15t-4.5 45q13 68 105 142z" />
    <glyph glyph-name="quoteright" unicode="&#x2019;" horiz-adv-x="180" 
d="M169 503l-12 15q21 18 39.5 43t20.5 39q1 6 0 9q-21 0 -32 13.5t-7 34.5q5 21 21.5 34.5t37.5 13.5t31.5 -15t4.5 -45q-14 -65 -104 -142z" />
    <glyph glyph-name="quotesinglbase" unicode="&#x201a;" horiz-adv-x="180" 
d="M41 -106l-12 15q20 17 39 42.5t22 39.5q2 6 0 9q-21 0 -32 13.5t-7 34.5q4 20 20.5 34t38.5 14q21 0 31.5 -14.5t4.5 -44.5q-13 -63 -105 -143z" />
    <glyph glyph-name="quotedblleft" unicode="&#x201c;" horiz-adv-x="320" 
d="M409 705l12 -15q-20 -17 -39 -42.5t-22 -39.5q0 -8 1 -9q20 0 31.5 -13.5t7.5 -34.5q-5 -21 -21.5 -34.5t-37.5 -13.5q-22 0 -32.5 15t-4.5 45q13 67 105 142zM271 705l11 -15q-20 -17 -38.5 -42t-21.5 -40q-2 -6 0 -9q20 0 31.5 -13.5t7.5 -34.5q-5 -21 -21.5 -34.5
t-37.5 -13.5t-31.5 15t-4.5 45q13 68 105 142z" />
    <glyph glyph-name="quotedblright" unicode="&#x201d;" horiz-adv-x="320" 
d="M169 503l-12 15q21 18 39.5 43t20.5 39q1 6 0 9q-21 0 -32 13.5t-7 34.5q5 21 21.5 34.5t37.5 13.5t31.5 -15t4.5 -45q-14 -65 -104 -142zM307 503l-11 15q20 17 38.5 42.5t21.5 39.5q1 3 -1 9q-20 0 -31 13.5t-7 34.5q5 21 21.5 34.5t37.5 13.5t31.5 -15t4.5 -45
q-13 -68 -105 -142z" />
    <glyph glyph-name="quotedblbase" unicode="&#x201e;" horiz-adv-x="320" 
d="M180 -106l-12 15q20 17 39 42.5t22 39.5v9q-21 0 -32 13.5t-7 34.5q4 20 21 34t38 14t31.5 -14.5t4.5 -44.5q-13 -66 -105 -143zM41 -106l-12 15q20 17 39 42.5t22 39.5q2 6 0 9q-21 0 -32 13.5t-7 34.5q4 20 20.5 34t38.5 14q21 0 31.5 -14.5t4.5 -44.5
q-13 -63 -105 -143z" />
    <glyph glyph-name="dagger" unicode="&#x2020;" horiz-adv-x="485" 
d="M339 510q7 43 9.5 80t3 57t0.5 23q3 14 14 23.5t26 9.5q14 0 21.5 -9.5t4.5 -23.5q0 -4 -7.5 -22.5t-21 -56.5t-25.5 -81q42 3 79 8t57 9t23 4q14 0 21.5 -9.5t4.5 -24.5q-3 -14 -14.5 -24t-25.5 -10q-4 0 -22 4t-52.5 9.5t-75.5 8.5q-28 -150 -52 -290l-30 -183
q-6 -47 -13 -82q-3 -14 -14.5 -23.5t-25.5 -9.5q-32 0 -27 33q3 15 20 82q7 24 47 183q42 169 70 290q-42 -3 -79.5 -8.5t-57 -9.5t-22.5 -4q-14 0 -21.5 10t-4.5 24q3 15 14.5 24.5t25.5 9.5q3 0 20.5 -4t53 -9t76.5 -8z" />
    <glyph glyph-name="daggerdbl" unicode="&#x2021;" horiz-adv-x="485" 
d="M339 510q7 43 9.5 80t3 57t0.5 23q3 14 14 23.5t26 9.5q14 0 21.5 -9.5t4.5 -23.5q0 -4 -7.5 -22.5t-21 -56.5t-25.5 -81q42 3 79 8t57 9t23 4q14 0 21.5 -9.5t4.5 -24.5q-3 -14 -14.5 -24t-25.5 -10q-4 0 -22 4t-52.5 9.5t-75.5 8.5l-49 -234q42 3 79.5 8t57 9t22.5 4
q14 0 21.5 -9.5t4.5 -24.5q-3 -14 -14 -23.5t-26 -9.5q-3 0 -21 4t-53.5 9t-75.5 8q-16 -92 -24 -155l-8 -70t-5.5 -49.5t-3.5 -21.5q-3 -14 -14.5 -23.5t-25.5 -9.5q-32 0 -27 33q5 20 13 44q37 117 70 252q-43 -3 -80 -8t-56 -9t-23 -4q-14 0 -21.5 9.5t-4.5 23.5
q2 15 13.5 24.5t26.5 9.5q4 0 22 -4t52.5 -9t75.5 -8l49 234q-42 -3 -79.5 -8.5t-57 -9.5t-22.5 -4q-14 0 -21.5 10t-4.5 24q3 15 14.5 24.5t25.5 9.5q3 0 20.5 -4t53 -9t76.5 -8z" />
    <glyph glyph-name="bullet" unicode="&#x2022;" horiz-adv-x="218" 
d="M101 300q7 33 33.5 55.5t57.5 22.5q33 0 50 -22.5t10 -55.5q-6 -32 -33 -55t-59 -23q-31 0 -48 23t-11 55z" />
    <glyph glyph-name="ellipsis" unicode="&#x2026;" horiz-adv-x="540" 
d="M113 96q21 0 32.5 -14.5t6.5 -35.5q-4 -32 -39.5 -45.5t-50.5 9.5q-18 24 0.5 55t50.5 31zM293 96q21 0 32.5 -14.5t6.5 -35.5q-4 -32 -39.5 -45.5t-50.5 9.5q-18 24 0.5 55t50.5 31zM473 96q21 0 32.5 -14.5t6.5 -35.5q-4 -32 -39.5 -45.5t-50.5 9.5q-18 24 0.5 55
t50.5 31z" />
    <glyph glyph-name="perthousand" unicode="&#x2030;" horiz-adv-x="1054" 
d="M163 525q18 83 66 132t111 49t90.5 -49t10.5 -132q-18 -83 -66.5 -132t-109.5 -49q-63 0 -91 49t-11 132zM221 525q-14 -71 -0.5 -110.5t50.5 -39.5q36 0 67 40.5t46 109.5q14 71 0 110.5t-50 39.5q-37 0 -67.5 -40.5t-45.5 -109.5zM730 700l-539 -700h-41l539 700h41z
M439 175q17 83 65 132t110 49q63 0 91 -49t11 -132t-65.5 -132t-111.5 -49t-90.5 49t-9.5 132zM496 175q-14 -71 -0.5 -110.5t50.5 -39.5t67.5 40.5t45.5 109.5q14 69 0 109.5t-51 40.5t-67.5 -40.5t-44.5 -109.5zM767 175q17 83 65 132t111 49t90.5 -49t10.5 -132
t-65.5 -132t-111.5 -49t-90.5 49t-9.5 132zM824 175q-14 -71 -0.5 -110.5t50.5 -39.5t67.5 40.5t45.5 109.5q14 69 0 109.5t-51 40.5t-67.5 -40.5t-44.5 -109.5z" />
    <glyph glyph-name="guilsinglleft" unicode="&#x2039;" horiz-adv-x="250" 
d="M204 97l-112 158l1 10l178 158l14 -18l-126 -145l66 -145z" />
    <glyph glyph-name="guilsinglright" unicode="&#x203a;" horiz-adv-x="250" 
d="M154 423l111 -158l-2 -10l-176 -158l-15 18l126 145l-66 145z" />
    <glyph glyph-name="fraction" unicode="&#x2044;" horiz-adv-x="333" 
d="M479 700l-443 -700h-36l443 700h36z" />
    <glyph glyph-name="Euro" unicode="&#x20ac;" horiz-adv-x="690" 
d="M139 397h-20l7 34h24q48 127 149 201t230 74q119 0 193 -56h31l-13 -122h-28q-13 145 -173 145q-108 0 -188 -63t-121 -179h326l-7 -34h-330q-10 -39 -11 -46q-2 -8 -8 -49h329l-7 -34h-325q-5 -113 48.5 -175t161.5 -62q136 0 230 85l15 -19q-115 -103 -272 -103
q-130 0 -199.5 73t-64.5 201h-24l7 34h20q6 39 8 47q5 24 12 48z" />
    <glyph glyph-name="uni20B4" unicode="&#x20b4;" horiz-adv-x="516" 
d="M175 270h-52l7 35h398l-7 -35h-270q-65 -51 -79 -114q-13 -60 23 -92t111 -32q100 0 171 57l16 -19q-89 -74 -215 -74q-99 0 -149 42t-35 114q15 67 81 118zM548 395h-399l7 35h269q67 52 81 117q12 60 -22 90.5t-108 30.5q-93 0 -161 -53l-15 19q82 70 204 70
q99 0 147 -41t33 -113q-15 -68 -82 -120h53z" />
    <glyph glyph-name="uni20BD" unicode="&#x20bd;" horiz-adv-x="594" 
d="M139 181h-63l4 17l65 13l18 88h-62l3 17l66 14l70 335l-59 15l3 20h257q106 0 160 -54t35 -147q-20 -92 -96 -146t-183 -54h-118l-18 -88h202l-6 -30h-202l-28 -135l87 -23l-4 -23h-231l5 24l67 24zM423 670h-106l-71 -340h106q76 0 131 45t71 124q18 79 -18.5 125
t-112.5 46z" />
    <glyph glyph-name="afii61352" unicode="&#x2116;" horiz-adv-x="1042" 
d="M39 0l3 18l68 24l128 616l-58 19l4 23h141l267 -584l116 548l-59 19l3 17h155l-3 -17l-66 -20l-138 -663h-37l-297 643l-127 -607l58 -19l-3 -17h-155zM817 525q18 83 66 132t110 49q63 0 91 -49t11 -132q-18 -83 -66 -132t-111 -49t-90.5 49t-10.5 132zM875 525
q-14 -71 -1 -110.5t50 -39.5t67.5 40t46.5 110q14 69 0 109.5t-51 40.5q-36 0 -67 -41t-45 -109zM1032 247h-268l7 34h268z" />
    <glyph glyph-name="trademark" unicode="&#x2122;" horiz-adv-x="786" 
d="M427 633l-9 47h-80l-64 -305l29 -10l-3 -15h-118l2 16l35 14l63 300h-81l-29 -49h-19l20 69h281l-8 -67h-19zM889 685l-34 -12l-40 -298l29 -10l-3 -15h-118l2 16l35 14l34 251l-176 -281h-25l-60 281l-74 -260l29 -11l-2 -10h-82l3 11l33 13l85 301l-29 10l3 15h75
l60 -294l184 294h74z" />
    <glyph glyph-name="arrowleft" unicode="&#x2190;" horiz-adv-x="687" 
d="M190 101l-145 158v9l145 158l18 -18l-85 -127h519v-34h-520l86 -128z" />
    <glyph glyph-name="arrowup" unicode="&#x2191;" horiz-adv-x="687" 
d="M180 417l158 144h10l158 -144l-18 -18l-127 85v-519h-35v519l-128 -85z" />
    <glyph glyph-name="arrowright" unicode="&#x2192;" horiz-adv-x="687" 
d="M497 426l145 -158v-9l-145 -158l-17 18l85 128h-520v34h519l-84 127z" />
    <glyph glyph-name="arrowdown" unicode="&#x2193;" horiz-adv-x="687" 
d="M506 110l-158 -145h-10l-158 145l18 17l128 -85v519h35v-518l127 84z" />
    <glyph glyph-name="uni2196" unicode="&#x2196;" horiz-adv-x="687" 
d="M120 257l9 214l7 7l214 10v-26l-150 -30l367 -367l-25 -24l-366 367l-31 -150z" />
    <glyph glyph-name="uni2197" unicode="&#x2197;" horiz-adv-x="687" 
d="M336 487l214 -10l8 -6l9 -214h-25l-30 150l-367 -367l-25 24l368 367l-151 31z" />
    <glyph glyph-name="uni2198" unicode="&#x2198;" horiz-adv-x="687" 
d="M567 270l-9 -214l-7 -7l-214 -9v25l151 30l-367 368l24 24l367 -367l30 150h25z" />
    <glyph glyph-name="uni2199" unicode="&#x2199;" horiz-adv-x="687" 
d="M350 40l-214 9l-7 6l-10 214h25l31 -150l367 367l25 -24l-367 -367l149 -30z" />
    <glyph glyph-name="minus" unicode="&#x2212;" horiz-adv-x="434" 
d="M464 334h-355l7 34h354z" />
    <glyph glyph-name="commaaccent" unicode="&#xf6c3;" horiz-adv-x="180" 
d="M13 -250l-10 13q18 15 34.5 38t19.5 38q1 1 1 8q-18 0 -28 12.5t-6 30.5q3 18 18 30.5t33 12.5q44 0 32 -54q-12 -61 -94 -129z" />
    <glyph glyph-name="dollaroldstyle" unicode="&#xf724;" horiz-adv-x="422" 
d="M231 -4l-10 -46h-30l10 47q-65 3 -98.5 28t-24.5 66q5 35 34 40q24 4 33 -14q4 -9 2 -19l-10 -41q23 -26 71 -31l40 182q-64 21 -93.5 49t-17.5 86q24 117 168 120l11 47h28l-11 -48q59 -5 91 -28q33 -24 24 -65t-41 -41q-14 0 -22 10t-5 24l9 43q-23 24 -62 27l-38 -170
q57 -17 93 -43q45 -32 31 -99q-12 -57 -58.5 -89.5t-123.5 -34.5zM355 111q8 34 -10 52t-70 36l-38 -173q102 8 118 85zM196 354q-7 -31 9 -49.5t57 -33.5l36 161q-88 -7 -102 -78z" />
    <glyph glyph-name="zerooldstyle" unicode="&#xf730;" horiz-adv-x="595" 
d="M123 230q22 106 103 172q80 64 190 64t162 -64q54 -65 32 -172t-104 -172q-79 -64 -188 -64t-163 64q-54 65 -32 172zM203 229q-20 -94 13.5 -149t108.5 -55q73 0 129 54q58 56 77 150q20 95 -13.5 150.5t-107.5 55.5t-130 -55q-58 -56 -77 -151z" />
    <glyph glyph-name="oneoldstyle" unicode="&#xf731;" horiz-adv-x="357" 
d="M298 0h-233l4 24l84 22l76 361h-94l5 25l162 34l10 -12l-86 -414l76 -17z" />
    <glyph glyph-name="twooldstyle" unicode="&#xf732;" horiz-adv-x="451" 
d="M395 0h-347l6 35q145 95 227 167q75 66 92 143q18 89 -78 89q-55 0 -99 -39l-13 -62q-3 -15 -15.5 -26t-28.5 -11q-35 0 -26 46q10 51 64 86q55 35 132 35q75 0 111.5 -32t23.5 -91q-11 -57 -72 -120q-22 -22 -69 -57q-48 -35 -74 -52q-39 -26 -87 -56h216l42 83h27z" />
    <glyph glyph-name="threeoldstyle" unicode="&#xf733;" horiz-adv-x="509" 
d="M377 -4q29 143 -143 143h-34l7 30h34q145 0 172 131q13 62 -12 97.5t-79 35.5q-60 0 -104 -38l-12 -56q-3 -15 -15.5 -25.5t-28.5 -10.5q-35 0 -26 45q10 53 69 85t132 32q84 0 126 -43.5t26 -117.5q-12 -57 -50 -95t-94 -54q134 -39 107 -166q-22 -111 -135 -174
q-112 -64 -284 -70l-14 18q154 14 245.5 75t112.5 158z" />
    <glyph glyph-name="fouroldstyle" unicode="&#xf734;" horiz-adv-x="551" 
d="M425 0l-52 -250h-72l53 250h-303l5 25q212 229 256 435h74q-40 -196 -289 -430h263l46 217l71 59l9 -12l-55 -264h75l-6 -30h-75z" />
    <glyph glyph-name="fiveoldstyle" unicode="&#xf735;" horiz-adv-x="474" 
d="M350 5q15 76 -17 116.5t-105 40.5q-64 0 -114 -33l-16 21l90 310q176 0 283 12l-13 -67h-245l-84 -242q56 31 128 31q97 0 142.5 -51t26.5 -141q-24 -116 -132.5 -182.5t-283.5 -74.5l-14 18q153 14 243 76.5t111 165.5z" />
    <glyph glyph-name="sixoldstyle" unicode="&#xf736;" horiz-adv-x="531" 
d="M234 366q64 61 160 61q94 0 139 -57t25 -155q-21 -99 -93 -158q-70 -58 -164 -58q-108 0 -148.5 80t-9.5 229q44 213 174 325q131 114 297 123l15 -18q-150 -20 -253 -120q-103 -98 -142 -252zM220 310q-58 -283 85 -283q61 0 109 49t66 132q18 87 -13.5 134.5
t-99.5 47.5q-44 0 -84 -22t-63 -58z" />
    <glyph glyph-name="sevenoldstyle" unicode="&#xf737;" horiz-adv-x="512" 
d="M216 -250h-74q28 135 107 271q51 85 74 120l89 132q72 106 86 128h-308l-44 -79h-28l39 138h404l-5 -25q-25 -45 -98 -165l-105 -177q-38 -68 -78 -161q-42 -101 -59 -182z" />
    <glyph glyph-name="eightoldstyle" unicode="&#xf738;" horiz-adv-x="551" 
d="M605 580q-14 -68 -54.5 -110.5t-108.5 -72.5q49 -25 70 -44q28 -22 40.5 -63.5t1.5 -95.5q-19 -93 -88 -146.5t-180 -53.5q-106 0 -151 49.5t-27 135.5q16 76 64 122t132 81q-60 28 -82.5 70.5t-7.5 112.5q18 88 78 139.5t159 51.5q94 0 133 -47.5t21 -128.5zM358 358
l-28 12q-124 -66 -148 -186q-17 -77 13.5 -118t99.5 -41q73 0 123 42.5t66 119.5q15 62 -11 97q-17 24 -45 40q-35 20 -70 34zM391 421l25 -11q97 61 118 165q15 72 -9.5 111t-82.5 39q-60 0 -103 -40t-58 -110q-12 -61 9 -89q16 -22 39 -35q18 -10 62 -30z" />
    <glyph glyph-name="nineoldstyle" unicode="&#xf739;" horiz-adv-x="531" 
d="M420 94q-68 -60 -160 -60q-94 0 -137.5 56t-23.5 154q21 102 94 161q73 60 169 60q106 0 144.5 -76.5t7.5 -223.5q-42 -202 -164 -303q-121 -101 -300 -115l-14 18q151 18 247.5 103t136.5 226zM434 151q60 283 -78 283q-63 0 -113 -52t-67 -136q-17 -85 13.5 -130.5
t96.5 -45.5q45 0 84.5 22.5t63.5 58.5z" />
    <glyph glyph-name="CR.001" horiz-adv-x="333" 
 />
    <glyph glyph-name="T_h" horiz-adv-x="1104" 
d="M628 12l137 658h-263l-131 -629l59 -18l-4 -23h-202l5 24l67 24l130 622h-183l-54 -95h-27l37 125h514l126 32l9 -13l-54 -259l-21 -90l2 -3q38 44 100 71q60 26 105 26q59 0 81.5 -44t6.5 -118l-45 -218q-10 -49 15 -49q19 0 47 23l10 -12q-62 -50 -112 -50
q-51 0 -36 76l47 225q13 61 -2.5 96t-55.5 35q-37 0 -84.5 -27.5t-84.5 -73.5l-68 -327h-61z" />
    <glyph glyph-name="T_h.caron" horiz-adv-x="1104" 
d="M628 12l137 658h-263l-131 -629l59 -18l-4 -23h-202l5 24l67 24l130 622h-183l-54 -95h-27l37 125h514l126 32l9 -13l-54 -259l-21 -90l2 -3q38 44 100 71q60 26 105 26q59 0 81.5 -44t6.5 -118l-45 -218q-10 -49 15 -49q19 0 47 23l10 -12q-62 -50 -112 -50
q-51 0 -36 76l47 225q13 61 -2.5 96t-55.5 35q-37 0 -84.5 -27.5t-84.5 -73.5l-68 -327h-61zM649 893l-161 -129h-9l-107 129l22 18l103 -80l137 80z" />
    <glyph glyph-name="T_h.commaaccent" horiz-adv-x="1104" 
d="M628 12l137 658h-263l-131 -629l59 -18l-4 -23h-202l5 24l67 24l130 622h-183l-54 -95h-27l37 125h514l126 32l9 -13l-54 -259l-21 -90l2 -3q38 44 100 71q60 26 105 26q59 0 81.5 -44t6.5 -118l-45 -218q-10 -49 15 -49q19 0 47 23l10 -12q-62 -50 -112 -50
q-51 0 -36 76l47 225q13 61 -2.5 96t-55.5 35q-37 0 -84.5 -27.5t-84.5 -73.5l-68 -327h-61zM247 -250l-10 13q18 15 35 38t20 38q2 5 0 8q-18 0 -28 12.5t-6 30.5t18.5 30.5t32.5 12.5q44 0 33 -54q-13 -63 -95 -129z" />
    <glyph glyph-name="A.smcp" horiz-adv-x="566" 
d="M364 476h34l100 -442l41 -14l-4 -20h-159l4 20l45 14l-27 122h-212l-78 -122l53 -14l-3 -20h-127l3 20l46 14zM392 182l-48 221l-142 -221h190z" />
    <glyph glyph-name="Aacute.smcp" horiz-adv-x="566" 
d="M364 476h34l100 -442l41 -14l-4 -20h-159l4 20l45 14l-27 122h-212l-78 -122l53 -14l-3 -20h-127l3 20l46 14zM392 182l-48 221l-142 -221h190zM347 515l-11 14l118 97l34 -42z" />
    <glyph glyph-name="Abreve.smcp" horiz-adv-x="566" 
d="M364 476h34l100 -442l41 -14l-4 -20h-159l4 20l45 14l-27 122h-212l-78 -122l53 -14l-3 -20h-127l3 20l46 14zM392 182l-48 221l-142 -221h190zM447 590q2 13 13 22t24 9t20.5 -9.5t3.5 -23.5q-6 -28 -40.5 -46t-77.5 -18t-69.5 18t-20.5 46q3 15 13 24t23 9t20.5 -9
t5.5 -22q-9 -43 33 -43q45 0 52 43z" />
    <glyph glyph-name="Acircumflex.smcp" horiz-adv-x="566" 
d="M364 476h34l100 -442l41 -14l-4 -20h-159l4 20l45 14l-27 122h-212l-78 -122l53 -14l-3 -20h-127l3 20l46 14zM392 182l-48 221l-142 -221h190zM292 529l116 97h8l76 -97l-17 -14l-74 53l-97 -53z" />
    <glyph glyph-name="Agrave.smcp" horiz-adv-x="566" 
d="M364 476h34l100 -442l41 -14l-4 -20h-159l4 20l45 14l-27 122h-212l-78 -122l53 -14l-3 -20h-127l3 20l46 14zM392 182l-48 221l-142 -221h190zM320 584l50 42l79 -97l-18 -14z" />
    <glyph glyph-name="Adieresis.smcp" horiz-adv-x="566" 
d="M364 476h34l100 -442l41 -14l-4 -20h-159l4 20l45 14l-27 122h-212l-78 -122l53 -14l-3 -20h-127l3 20l46 14zM392 182l-48 221l-142 -221h190zM332 603q17 0 26 -11t5 -28q-4 -26 -31 -36.5t-42 7.5q-13 19 2.5 43.5t39.5 24.5zM434 564q4 17 17.5 28t30.5 11
q16 0 25 -11t5 -28q-3 -31 -35 -38q-29 -6 -41 14q-6 10 -2 24z" />
    <glyph glyph-name="Amacron.smcp" horiz-adv-x="566" 
d="M364 476h34l100 -442l41 -14l-4 -20h-159l4 20l45 14l-27 122h-212l-78 -122l53 -14l-3 -20h-127l3 20l46 14zM392 182l-48 221l-142 -221h190zM481 543h-171l6 31h171z" />
    <glyph glyph-name="Aogonek.smcp" horiz-adv-x="566" 
d="M502 -111l8 -8q-40 -31 -71 -31q-43 0 -34 43q12 52 73 107h-102l4 20l45 14l-27 122h-212l-78 -122l53 -14l-3 -20h-127l3 20l46 14l284 442h34l100 -442l41 -14l-4 -20h-36q-48 -51 -58 -98q-6 -28 19 -28q22 0 42 15zM392 182l-48 221l-142 -221h190z" />
    <glyph glyph-name="Aring.smcp" horiz-adv-x="566" 
d="M364 476h34l100 -442l41 -14l-4 -20h-159l4 20l45 14l-27 122h-212l-78 -122l53 -14l-3 -20h-127l3 20l46 14zM392 182l-48 221l-142 -221h190zM342 561q5 25 24 40.5t45 15.5q25 0 37.5 -15.5t7.5 -40.5q-5 -26 -24 -40.5t-44 -14.5q-26 0 -38.5 14.5t-7.5 40.5z
M370 561q-8 -38 22 -38q26 0 37 38q8 38 -22 38q-13 0 -23.5 -10.5t-13.5 -27.5z" />
    <glyph glyph-name="Atilde.smcp" horiz-adv-x="566" 
d="M364 476h34l100 -442l41 -14l-4 -20h-159l4 20l45 14l-27 122h-212l-78 -122l53 -14l-3 -20h-127l3 20l46 14zM392 182l-48 221l-142 -221h190zM292 527l-11 14q70 58 97 58q16 0 33 -16t35 -16q27 0 62 31l10 -13q-68 -59 -98 -59q-16 0 -33 16t-35 16q-23 0 -60 -31z
" />
    <glyph glyph-name="AE.smcp" horiz-adv-x="616" 
d="M282 17l46 12l5 127h-147l-78 -122l53 -14l-3 -20h-127l3 20l46 14l284 442h277l-11 -90h-24l-13 64h-180l-9 -193h106l23 48h23l-26 -122h-22l-3 48h-102l-8 -205h117l39 64h25l-27 -90h-270zM335 182l9 221l-142 -221h133z" />
    <glyph glyph-name="AEacute.smcp" horiz-adv-x="616" 
d="M282 17l46 12l5 127h-147l-78 -122l53 -14l-3 -20h-127l3 20l46 14l284 442h277l-11 -90h-24l-13 64h-180l-9 -193h106l23 48h23l-26 -122h-22l-3 48h-102l-8 -205h117l39 64h25l-27 -90h-270zM335 182l9 221l-142 -221h133zM394 515l-11 14l117 97l34 -42z" />
    <glyph glyph-name="B.smcp" horiz-adv-x="496" 
d="M143 459l4 17h207q74 0 111.5 -32t25.5 -88q-8 -41 -39 -70t-79 -41q52 -12 76 -43t14 -76q-12 -57 -69 -91.5t-139 -34.5h-207l3 17l47 12l87 418zM212 231l-44 -205h82q54 0 90.5 27t46.5 76q11 48 -14.5 75t-78.5 27h-82zM339 450h-82l-41 -193h82q45 0 76.5 25
t41.5 71q9 47 -11.5 72t-65.5 25z" />
    <glyph glyph-name="C.smcp" horiz-adv-x="529" 
d="M493 84l13 -17q-86 -71 -193 -71t-156 65t-26 176q22 111 100 177t184 66q77 0 124 -34l29 14l6 -9l-10 -95h-25q-13 97 -118 97q-81 0 -136.5 -55t-76.5 -159q-21 -98 12.5 -154t118.5 -56q93 0 154 55z" />
    <glyph glyph-name="Cacute.smcp" horiz-adv-x="529" 
d="M493 84l13 -17q-86 -71 -193 -71t-156 65t-26 176q22 111 100 177t184 66q77 0 124 -34l29 14l6 -9l-10 -95h-25q-13 97 -118 97q-81 0 -136.5 -55t-76.5 -159q-21 -98 12.5 -154t118.5 -56q93 0 154 55zM381 515l-11 14l118 97l33 -42z" />
    <glyph glyph-name="Ccaron.smcp" horiz-adv-x="529" 
d="M493 84l13 -17q-86 -71 -193 -71t-156 65t-26 176q22 111 100 177t184 66q77 0 124 -34l29 14l6 -9l-10 -95h-25q-13 97 -118 97q-81 0 -136.5 -55t-76.5 -159q-21 -98 12.5 -154t118.5 -56q93 0 154 55zM541 611l-116 -96h-8l-76 96l17 15l74 -54l97 54z" />
    <glyph glyph-name="Ccedilla.smcp" horiz-adv-x="529" 
d="M256 -66l47 62q-102 3 -148.5 68t-23.5 173q22 111 100 177t184 66q77 0 124 -34l29 14l6 -9l-10 -95h-25q-13 97 -118 97q-81 0 -136.5 -55t-76.5 -159q-21 -98 12.5 -154t118.5 -56q93 0 154 55l13 -17q-80 -66 -182 -71l-19 -25q25 0 37.5 -8t8.5 -24q-5 -24 -83 -89
l-7 9q41 35 45 54q2 11 -10 16t-40 5z" />
    <glyph glyph-name="Ccircumflex.smcp" horiz-adv-x="529" 
d="M493 84l13 -17q-86 -71 -193 -71t-156 65t-26 176q22 111 100 177t184 66q77 0 124 -34l29 14l6 -9l-10 -95h-25q-13 97 -118 97q-81 0 -136.5 -55t-76.5 -159q-21 -98 12.5 -154t118.5 -56q93 0 154 55zM324 529l116 97h7l77 -97l-18 -14l-75 53l-96 -53z" />
    <glyph glyph-name="Cdotaccent.smcp" horiz-adv-x="529" 
d="M493 84l13 -17q-86 -71 -193 -71t-156 65t-26 176q22 111 100 177t184 66q77 0 124 -34l29 14l6 -9l-10 -95h-25q-13 97 -118 97q-81 0 -136.5 -55t-76.5 -159q-21 -98 12.5 -154t118.5 -56q93 0 154 55zM390 576q3 18 17.5 29.5t32.5 11.5t27 -11.5t6 -29.5
q-4 -18 -18 -30t-32 -12t-27.5 12t-5.5 30z" />
    <glyph glyph-name="D.smcp" horiz-adv-x="545" 
d="M143 459l4 17h207q105 0 154 -64q50 -63 27 -174q-24 -111 -100 -175q-77 -63 -180 -63h-207l3 17l47 12l87 418zM349 450h-92l-89 -424h92q70 0 124 55.5t75 155.5q21 101 -9.5 157t-100.5 56z" />
    <glyph glyph-name="Dcaron.smcp" horiz-adv-x="545" 
d="M143 459l4 17h207q105 0 154 -64q50 -63 27 -174q-24 -111 -100 -175q-77 -63 -180 -63h-207l3 17l47 12l87 418zM349 450h-92l-89 -424h92q70 0 124 55.5t75 155.5q21 101 -9.5 157t-100.5 56zM493 611l-116 -96h-9l-76 96l18 15l75 -54l96 54z" />
    <glyph glyph-name="Dcroat.smcp" horiz-adv-x="545" 
d="M139 227h-44l3 16l46 10l41 194l-42 12l4 17h207q105 0 154 -64q50 -63 27 -174q-24 -111 -100 -175q-77 -63 -180 -63h-207l3 17l47 12zM349 450h-92l-41 -197h109l-5 -26h-110l-42 -201h92q70 0 124 55.5t75 155.5q21 101 -9.5 157t-100.5 56z" />
    <glyph glyph-name="Eth.smcp" horiz-adv-x="545" 
d="M139 227h-44l3 16l46 10l41 194l-42 12l4 17h207q105 0 154 -64q50 -63 27 -174q-24 -111 -100 -175q-77 -63 -180 -63h-207l3 17l47 12zM349 450h-92l-41 -197h109l-5 -26h-110l-42 -201h92q70 0 124 55.5t75 155.5q21 101 -9.5 157t-100.5 56z" />
    <glyph glyph-name="Thorn.smcp" horiz-adv-x="469" 
d="M302 456l-47 -15l-13 -60h75q78 0 117.5 -36.5t26.5 -99.5t-67.5 -100t-132.5 -37h-43l-7 10l3 16h42q49 0 83.5 29t46.5 82q11 52 -12 81t-71 29h-66l-67 -318l62 -17l-3 -20h-181l4 21l47 18l85 403l-41 14l4 20h160z" />
    <glyph glyph-name="E.smcp" horiz-adv-x="473" 
d="M212 231l-44 -205h202l38 64h25l-26 -90h-359l3 17l47 12l87 418l-42 12l4 17h352l-10 -90h-26l-12 64h-194l-41 -193h151l24 48h23l-25 -122h-23l-3 48h-151z" />
    <glyph glyph-name="Eacute.smcp" horiz-adv-x="473" 
d="M212 231l-44 -205h202l38 64h25l-26 -90h-359l3 17l47 12l87 418l-42 12l4 17h352l-10 -90h-26l-12 64h-194l-41 -193h151l24 48h23l-25 -122h-23l-3 48h-151zM301 515l-11 14l118 97l33 -42z" />
    <glyph glyph-name="Ebreve.smcp" horiz-adv-x="473" 
d="M212 231l-44 -205h202l38 64h25l-26 -90h-359l3 17l47 12l87 418l-42 12l4 17h352l-10 -90h-26l-12 64h-194l-41 -193h151l24 48h23l-25 -122h-23l-3 48h-151zM402 590q2 13 13 22t24 9t20 -9t3 -24q-6 -28 -40 -46t-77 -18t-70 18t-21 46q3 15 13.5 24t23.5 9t20 -9
t5 -22q-7 -43 34 -43q45 0 52 43z" />
    <glyph glyph-name="Ecaron.smcp" horiz-adv-x="473" 
d="M212 231l-44 -205h202l38 64h25l-26 -90h-359l3 17l47 12l87 418l-42 12l4 17h352l-10 -90h-26l-12 64h-194l-41 -193h151l24 48h23l-25 -122h-23l-3 48h-151zM464 611l-117 -96h-8l-76 96l17 15l75 -54l97 54z" />
    <glyph glyph-name="Ecircumflex.smcp" horiz-adv-x="473" 
d="M212 231l-44 -205h202l38 64h25l-26 -90h-359l3 17l47 12l87 418l-42 12l4 17h352l-10 -90h-26l-12 64h-194l-41 -193h151l24 48h23l-25 -122h-23l-3 48h-151zM246 529l116 97h8l77 -97l-18 -14l-75 53l-96 -53z" />
    <glyph glyph-name="Edieresis.smcp" horiz-adv-x="473" 
d="M212 231l-44 -205h202l38 64h25l-26 -90h-359l3 17l47 12l87 418l-42 12l4 17h352l-10 -90h-26l-12 64h-194l-41 -193h151l24 48h23l-25 -122h-23l-3 48h-151zM240 564q4 17 17.5 28t29.5 11q17 0 26 -11.5t5 -27.5q-4 -17 -17 -28.5t-30 -11.5q-16 0 -25 11.5t-6 28.5z
M389 564q5 17 18 28t29 11q17 0 26 -11.5t5 -27.5q-3 -17 -16.5 -28.5t-30.5 -11.5q-16 0 -25 11.5t-6 28.5z" />
    <glyph glyph-name="Edotaccent.smcp" horiz-adv-x="473" 
d="M212 231l-44 -205h202l38 64h25l-26 -90h-359l3 17l47 12l87 418l-42 12l4 17h352l-10 -90h-26l-12 64h-194l-41 -193h151l24 48h23l-25 -122h-23l-3 48h-151zM315 576q3 18 17 29.5t33 11.5q18 0 27 -11.5t6 -29.5q-4 -18 -18 -30t-32 -12q-19 0 -28 12t-5 30z" />
    <glyph glyph-name="Egrave.smcp" horiz-adv-x="473" 
d="M212 231l-44 -205h202l38 64h25l-26 -90h-359l3 17l47 12l87 418l-42 12l4 17h352l-10 -90h-26l-12 64h-194l-41 -193h151l24 48h23l-25 -122h-23l-3 48h-151zM275 584l49 42l79 -97l-18 -14z" />
    <glyph glyph-name="Emacron.smcp" horiz-adv-x="473" 
d="M212 231l-44 -205h202l38 64h25l-26 -90h-359l3 17l47 12l87 418l-42 12l4 17h352l-10 -90h-26l-12 64h-194l-41 -193h151l24 48h23l-25 -122h-23l-3 48h-151zM435 543h-171l6 31h171z" />
    <glyph glyph-name="Eogonek.smcp" horiz-adv-x="473" 
d="M384 -111l6 -8q-37 -31 -70 -31q-42 0 -33 43q10 51 72 107h-311l3 17l47 12l87 418l-42 12l4 17h352l-10 -90h-26l-12 64h-194l-41 -193h151l24 48h23l-25 -122h-23l-3 48h-151l-44 -205h202l38 64h25l-26 -90h-26q-48 -51 -58 -98q-6 -28 19 -28q22 0 42 15z" />
    <glyph glyph-name="F.smcp" horiz-adv-x="459" 
d="M358 182l-3 48h-144l-41 -193l62 -17l-3 -20h-181l4 21l47 18l86 408l-42 12l4 17h346l-11 -90h-25l-13 64h-187l-41 -194h144l24 48h22l-25 -122h-23z" />
    <glyph glyph-name="G.smcp" horiz-adv-x="560" 
d="M578 210l-47 -15l-35 -171l-12 -9l-28 19q-65 -38 -144 -38q-106 0 -155 65t-26 176q22 111 100 177t184 66q77 0 124 -34l29 14l6 -9l-10 -95h-25q-13 97 -118 97q-81 0 -136.5 -55t-76.5 -159q-21 -98 10.5 -154t113.5 -56q55 0 98 27l29 140l-41 14l5 20h159z" />
    <glyph glyph-name="Gbreve.smcp" horiz-adv-x="560" 
d="M578 210l-47 -15l-35 -171l-12 -9l-28 19q-65 -38 -144 -38q-106 0 -155 65t-26 176q22 111 100 177t184 66q77 0 124 -34l29 14l6 -9l-10 -95h-25q-13 97 -118 97q-81 0 -136.5 -55t-76.5 -159q-21 -98 10.5 -154t113.5 -56q55 0 98 27l29 140l-41 14l5 20h159zM479 590
q4 23 28 29q25 6 32 -13q3 -7 0 -18q-6 -28 -40 -46t-77 -18t-70 18t-21 46q7 33 37 33q13 0 20 -9t5 -22q-7 -43 33 -43q44 0 53 43z" />
    <glyph glyph-name="Gcircumflex.smcp" horiz-adv-x="560" 
d="M578 210l-47 -15l-35 -171l-12 -9l-28 19q-65 -38 -144 -38q-106 0 -155 65t-26 176q22 111 100 177t184 66q77 0 124 -34l29 14l6 -9l-10 -95h-25q-13 97 -118 97q-81 0 -136.5 -55t-76.5 -159q-21 -98 10.5 -154t113.5 -56q55 0 98 27l29 140l-41 14l5 20h159zM326 529
l116 97h8l77 -97l-18 -14l-75 53l-97 -53z" />
    <glyph glyph-name="Gcommaaccent.smcp" horiz-adv-x="560" 
d="M578 210l-47 -15l-35 -171l-12 -9l-28 19q-65 -38 -144 -38q-106 0 -155 65t-26 176q22 111 100 177t184 66q77 0 124 -34l29 14l6 -9l-10 -95h-25q-13 97 -118 97q-81 0 -136.5 -55t-76.5 -159q-21 -98 10.5 -154t113.5 -56q55 0 98 27l29 140l-41 14l5 20h159z
M261 -170l-7 10q35 29 37 50q2 3 0 5q-13 0 -20.5 8.5t-4.5 21.5q7 31 38 31t24 -37q-7 -39 -67 -89z" />
    <glyph glyph-name="Gdotaccent.smcp" horiz-adv-x="560" 
d="M578 210l-47 -15l-35 -171l-12 -9l-28 19q-65 -38 -144 -38q-106 0 -155 65t-26 176q22 111 100 177t184 66q77 0 124 -34l29 14l6 -9l-10 -95h-25q-13 97 -118 97q-81 0 -136.5 -55t-76.5 -159q-21 -98 10.5 -154t113.5 -56q55 0 98 27l29 140l-41 14l5 20h159zM391 576
q5 30 36 38t44 -12q7 -10 3 -26q-4 -18 -18 -30t-32 -12t-27 12t-6 30z" />
    <glyph glyph-name="H.smcp" 
d="M48 0l4 21l47 18l85 403l-41 14l4 20h160l-5 -20l-47 -15l-39 -187h247l40 188l-41 14l4 20h159l-4 -20l-47 -15l-85 -407l41 -14l-4 -20h-159l4 21l47 18l40 189h-247l-41 -194l41 -14l-3 -20h-160z" />
    <glyph glyph-name="Hbar.smcp" horiz-adv-x="564" 
d="M163 337h-43l3 17l44 9l18 79l-42 14l4 20h160l-4 -20l-48 -15l-17 -78h236l17 79l-40 14l4 20h160l-4 -20l-48 -15l-17 -78l43 -9l-3 -17h-44l-64 -303l41 -14l-3 -20h-160l4 21l46 18l41 189h-236l-41 -194l41 -14l-3 -20h-160l4 21l47 18zM234 337l-18 -83h236l18 83
h-236z" />
    <glyph glyph-name="Hcircumflex.smcp" 
d="M48 0l4 21l47 18l85 403l-41 14l4 20h160l-5 -20l-47 -15l-39 -187h247l40 188l-41 14l4 20h159l-4 -20l-47 -15l-85 -407l41 -14l-4 -20h-159l4 21l47 18l40 189h-247l-41 -194l41 -14l-3 -20h-160zM296 529l116 97h9l76 -97l-17 -14l-76 53l-96 -53z" />
    <glyph glyph-name="I.smcp" horiz-adv-x="256" 
d="M302 456l-47 -15l-85 -407l41 -14l-4 -20h-159l4 21l48 18l85 403l-42 14l4 20h159z" />
    <glyph glyph-name="Iacute.smcp" horiz-adv-x="256" 
d="M302 456l-47 -15l-85 -407l41 -14l-4 -20h-159l4 21l48 18l85 403l-42 14l4 20h159zM192 515l-11 14l118 97l34 -42z" />
    <glyph glyph-name="Ibreve.smcp" horiz-adv-x="256" 
d="M302 456l-47 -15l-85 -407l41 -14l-4 -20h-159l4 21l47 18l85 403l-41 14l4 20h159zM294 590q2 13 13 22t24 9q12 0 19 -9t4 -24q-6 -28 -40 -46t-77 -18t-70.5 18t-21.5 46q4 15 14.5 24t23.5 9t20 -9t4 -22q-7 -43 34 -43q44 0 53 43z" />
    <glyph glyph-name="Icircumflex.smcp" horiz-adv-x="255" 
d="M301 456l-46 -15l-85 -407l40 -14l-4 -20h-158l3 21l49 18l85 403l-43 14l5 20h158zM137 529l116 97h8l77 -97l-17 -14l-75 53l-97 -53z" />
    <glyph glyph-name="Idieresis.smcp" horiz-adv-x="255" 
d="M302 456l-47 -15l-85 -407l40 -14l-3 -20h-159l4 21l47 18l85 403l-41 14l4 20h159zM220 564q-2 -30 -33 -38q-30 -7 -42 12q-6 12 -2 26q5 29 35 37q29 7 40 -13q5 -10 2 -24zM316 603q16 0 25 -11t5 -28q-5 -26 -31 -37t-41 8t1 43.5t41 24.5z" />
    <glyph glyph-name="Idotaccent.smcp" horiz-adv-x="256" 
d="M302 456l-47 -15l-85 -407l41 -14l-4 -20h-159l4 21l48 18l85 403l-42 14l4 20h159zM206 576q3 30 37 38q30 7 43 -12q7 -10 2 -26q-3 -18 -17 -30t-32 -12t-27.5 12t-5.5 30z" />
    <glyph glyph-name="Igrave.smcp" horiz-adv-x="256" 
d="M302 456l-48 -15l-85 -407l42 -14l-4 -20h-159l4 21l47 18l85 403l-41 14l4 20h159zM165 584l50 42l79 -97l-18 -14z" />
    <glyph glyph-name="Imacron.smcp" horiz-adv-x="255" 
d="M302 456l-47 -15l-85 -407l40 -14l-3 -20h-159l4 21l47 18l86 403l-42 14l4 20h159zM326 543h-171l6 31h171z" />
    <glyph glyph-name="Iogonek.smcp" horiz-adv-x="256" 
d="M176 -111l6 -8q-37 -31 -71 -31q-41 0 -32 43q10 51 72 107h-103l4 21l48 18l85 403l-42 14l4 20h159l-4 -20l-47 -15l-85 -407l41 -14l-4 -20h-35q-45 -48 -58 -98q-4 -28 19 -28t43 15z" />
    <glyph glyph-name="Itilde.smcp" horiz-adv-x="256" 
d="M302 456l-47 -15l-85 -407l41 -14l-4 -20h-159l4 21l47 18l86 403l-42 14l4 20h159zM138 527l-11 14q67 58 96 58q17 0 34 -16t35 -16q27 0 61 31l11 -13q-68 -59 -99 -59q-16 0 -33 16t-35 16q-24 0 -59 -31z" />
    <glyph glyph-name="IJ.smcp" horiz-adv-x="462" 
d="M302 456l-47 -15l-85 -407l41 -14l-4 -20h-159l4 21l48 18l85 403l-42 14l4 20h159zM299 0l92 442l-42 14l5 20h158l-4 -20l-47 -15l-92 -441q-11 -53 -49 -99.5t-95 -75.5l-13 17q64 52 87 158z" />
    <glyph glyph-name="J.smcp" horiz-adv-x="255" 
d="M93 0l92 442l-42 14l4 20h159l-5 -20l-46 -15l-92 -441q-11 -53 -49 -99.5t-95 -75.5l-13 17q64 52 87 158z" />
    <glyph glyph-name="Jcircumflex.smcp" horiz-adv-x="255" 
d="M93 0l92 442l-42 14l5 20h157l-4 -20l-46 -15l-92 -441q-11 -53 -49.5 -99.5t-95.5 -75.5l-12 17q65 56 87 158zM137 529l116 97h8l77 -97l-17 -14l-75 53l-97 -53z" />
    <glyph glyph-name="K.smcp" horiz-adv-x="514" 
d="M300 456l-47 -15l-45 -216l256 217l-53 14l4 20h138l-4 -20l-47 -14l-174 -149l114 -259l41 -14l-3 -20h-106l-106 244l-68 -58l-32 -152l41 -14l-3 -20h-160l3 21l48 18l85 403l-41 14l4 20h159z" />
    <glyph glyph-name="Kcommaaccent.smcp" horiz-adv-x="514" 
d="M300 456l-47 -15l-45 -216l256 217l-53 14l4 20h138l-4 -20l-47 -14l-174 -149l114 -259l41 -14l-3 -20h-106l-106 244l-68 -58l-32 -152l41 -14l-3 -20h-160l3 21l48 18l85 403l-41 14l4 20h159zM204 -170l-7 10q34 28 38 50v5q-25 0 -26 22q-1 24 22 35q8 4 16 4
q32 0 25 -37q-8 -38 -68 -89z" />
    <glyph glyph-name="L.smcp" horiz-adv-x="455" 
d="M255 441l-87 -415h183l39 64h25l-26 -90h-341l3 17l47 12l86 413l-41 14l4 20h160l-5 -20z" />
    <glyph glyph-name="Lacute.smcp" horiz-adv-x="455" 
d="M255 441l-87 -415h183l39 64h25l-26 -90h-341l3 17l47 12l86 413l-41 14l4 20h160l-5 -20zM192 515l-11 14l118 97l34 -42z" />
    <glyph glyph-name="Lcaron.smcp" horiz-adv-x="455" 
d="M256 441l-87 -415h182l39 64h25l-26 -90h-341l3 17l47 12l86 413l-41 14l4 20h160l-5 -20zM354 603l-117 -96h-8l-76 96l18 14l74 -53l97 53z" />
    <glyph glyph-name="Lcommaaccent.smcp" horiz-adv-x="455" 
d="M255 441l-87 -415h183l39 64h25l-26 -90h-341l3 17l47 12l86 413l-41 14l4 20h160l-5 -20zM174 -170l-7 10q35 29 37 50q1 1 1 5q-13 0 -20.5 8.5t-4.5 21.5q7 31 38 31t24 -37q-8 -38 -68 -89z" />
    <glyph glyph-name="Ldot.smcp" horiz-adv-x="455" 
d="M255 441l-87 -415h183l39 64h25l-26 -90h-341l3 17l47 12l86 413l-41 14l4 20h160l-5 -20zM343 238q3 16 16.5 27.5t29.5 11.5q17 0 26 -11t6 -28q-4 -17 -17.5 -28t-30.5 -11q-16 0 -25 11t-5 28z" />
    <glyph glyph-name="Lslash.smcp" horiz-adv-x="455" 
d="M124 155l-44 -37l-15 19l66 55l53 250l-41 14l4 20h160l-5 -20l-47 -15l-42 -195l99 82l15 -18l-121 -100l-38 -184h182l40 64h25l-26 -90h-341l3 17l47 12z" />
    <glyph glyph-name="M.smcp" horiz-adv-x="683" 
d="M708 456l-47 -15l-54 -407l41 -14l-3 -20h-160l3 21l47 18l48 345l-247 -384h-34l-86 384l-104 -357l42 -14l-2 -13h-114l2 14l48 18l117 410l-40 14l4 20h99l88 -403l258 403h99z" />
    <glyph glyph-name="N.smcp" horiz-adv-x="538" 
d="M48 0l2 14l48 18l86 410l-41 14l4 20h115l179 -371l72 344l-41 14l4 13h113l-3 -13l-47 -16l-93 -447h-34l-206 424l-84 -397l42 -14l-2 -13h-114z" />
    <glyph glyph-name="Nacute.smcp" horiz-adv-x="538" 
d="M48 0l2 14l48 18l86 410l-41 14l4 20h115l179 -371l72 344l-41 14l4 13h113l-3 -13l-47 -16l-93 -447h-34l-206 424l-84 -397l42 -14l-2 -13h-114zM333 515l-11 14l118 97l34 -42z" />
    <glyph glyph-name="Ncaron.smcp" horiz-adv-x="538" 
d="M48 0l2 14l48 18l86 410l-41 14l4 20h115l179 -371l72 344l-41 14l4 13h113l-3 -13l-47 -16l-93 -447h-34l-206 424l-84 -397l42 -14l-2 -13h-114zM496 611l-117 -96h-7l-76 96l16 15l75 -54l97 54z" />
    <glyph glyph-name="Ncommaaccent.smcp" horiz-adv-x="538" 
d="M48 0l2 14l48 18l86 410l-41 14l4 20h115l179 -371l72 344l-41 14l4 13h113l-3 -13l-47 -16l-93 -447h-34l-206 424l-84 -397l42 -14l-2 -13h-114zM216 -170l-8 10q13 10 25 25.5t13 24.5q1 1 1 5q-25 0 -26 22q-1 24 22 35q7 4 16 4q32 0 25 -37q-8 -38 -68 -89z" />
    <glyph glyph-name="Ntilde.smcp" horiz-adv-x="538" 
d="M48 0l2 14l48 18l86 410l-41 14l4 20h115l179 -371l72 344l-41 14l4 13h113l-3 -13l-47 -16l-93 -447h-34l-206 424l-84 -397l42 -14l-2 -13h-114zM279 527l-11 14q67 58 97 58q16 0 32 -16q17 -16 35 -16q28 0 62 31l11 -13q-68 -59 -98 -59q-17 0 -34 16t-35 16
q-24 0 -59 -31z" />
    <glyph glyph-name="Eng.smcp" horiz-adv-x="538" 
d="M48 0l2 14l48 18l86 410l-41 14l4 20h117l169 -414l80 387l-41 14l4 13h113l-3 -13l-47 -16l-93 -447q-11 -53 -49 -99.5t-95 -75.5l-14 17q64 52 87 158l1 9l-170 415l-84 -397l42 -14l-2 -13h-114z" />
    <glyph glyph-name="O.smcp" 
d="M132 238q23 112 99 176q77 66 180 66q101 0 151 -66q50 -65 26 -176q-22 -110 -100 -177q-77 -65 -178 -65q-103 0 -153 65q-49 65 -25 177zM208 237q-21 -102 8 -158.5t99 -56.5q69 0 122.5 57t74.5 158q21 103 -8 160t-99 57t-123 -57t-74 -160z" />
    <glyph glyph-name="Oacute.smcp" 
d="M132 238q23 112 99 176q77 66 180 66q101 0 151 -66q50 -65 26 -176q-22 -110 -100 -177q-77 -65 -178 -65q-103 0 -153 65q-49 65 -25 177zM208 237q-21 -102 8 -158.5t99 -56.5q69 0 122.5 57t74.5 158q21 103 -8 160t-99 57t-123 -57t-74 -160zM376 515l-12 14l119 97
l33 -42z" />
    <glyph glyph-name="Obreve.smcp" 
d="M132 238q23 112 99 176q77 66 180 66q101 0 151 -66q50 -65 26 -176q-22 -110 -100 -177q-77 -65 -178 -65q-103 0 -153 65q-49 65 -25 177zM208 237q-21 -102 8 -158.5t99 -56.5q69 0 122.5 57t74.5 158q21 103 -8 160t-99 57t-123 -57t-74 -160zM477 590q4 23 28 29
q25 6 32 -13q3 -7 0 -18q-6 -28 -40 -46t-77 -18t-70 18t-21 46q5 28 30 32q24 4 31 -16q2 -6 1 -14q-7 -43 33 -43q46 0 53 43z" />
    <glyph glyph-name="Ocircumflex.smcp" 
d="M132 238q23 112 99 176q77 66 180 66q101 0 151 -66q50 -65 26 -176q-22 -110 -100 -177q-77 -65 -178 -65q-103 0 -153 65q-49 65 -25 177zM208 237q-21 -102 8 -158.5t99 -56.5q69 0 122.5 57t74.5 158q21 103 -8 160t-99 57t-123 -57t-74 -160zM321 529l116 97h8
l76 -97l-18 -14l-75 53l-96 -53z" />
    <glyph glyph-name="Odieresis.smcp" 
d="M132 238q23 112 99 176q77 66 180 66q101 0 151 -66q50 -65 26 -176q-22 -110 -100 -177q-77 -65 -178 -65q-103 0 -153 65q-49 65 -25 177zM208 237q-21 -102 8 -158.5t99 -56.5q69 0 122.5 57t74.5 158q21 103 -8 160t-99 57t-123 -57t-74 -160zM361 603q17 0 26 -11
t5 -28q-4 -26 -31 -36.5t-42 7.5q-13 19 2.5 43.5t39.5 24.5zM510 603q17 0 26 -11t5 -28q-5 -26 -31 -37t-41 8t1 43.5t40 24.5z" />
    <glyph glyph-name="Ograve.smcp" 
d="M132 238q23 112 99 176q77 66 180 66q101 0 151 -66q50 -65 26 -176q-22 -110 -100 -177q-77 -65 -178 -65q-103 0 -153 65q-49 65 -25 177zM208 237q-21 -102 8 -158.5t99 -56.5q69 0 122.5 57t74.5 158q21 103 -8 160t-99 57t-123 -57t-74 -160zM348 584l50 42l79 -97
l-17 -14z" />
    <glyph glyph-name="Ohungarumlaut.smcp" 
d="M132 238q23 112 99 176q77 66 180 66q101 0 151 -66q50 -65 26 -176q-22 -110 -100 -177q-77 -65 -178 -65q-103 0 -153 65q-49 65 -25 177zM208 237q-21 -102 8 -158.5t99 -56.5q69 0 122.5 57t74.5 158q21 103 -8 160t-99 57t-123 -57t-74 -160zM312 515l-12 14l111 97
l33 -42zM433 515l-11 14l110 97l34 -42z" />
    <glyph glyph-name="Omacron.smcp" 
d="M132 238q23 112 99 176q77 66 180 66q101 0 151 -66q50 -65 26 -176q-22 -110 -100 -177q-77 -65 -178 -65q-103 0 -153 65q-49 65 -25 177zM208 237q-21 -102 8 -158.5t99 -56.5q69 0 122.5 57t74.5 158q21 103 -8 160t-99 57t-123 -57t-74 -160zM509 543h-171l6 31h171
z" />
    </font>
</defs>
</svg>
